<svg xmlns="http://www.w3.org/2000/svg" viewBox="0 0 117.62 131.72"><defs><style>.cls-1{fill:#e1dcd5;}.cls-2{fill:#eae6e0;}.cls-3{fill:#8c6147;}.cls-4{fill:#58493d;}.cls-5{fill:#dad2c8;}.cls-6{fill:#b78360;}.cls-7{fill:#c1987a;}.cls-8{fill:#d4c9be;}.cls-9{fill:#cbbdb2;}.cls-10{fill:#aa714c;}.cls-11{fill:#af9b8c;}.cls-12{fill:#c6ad9d;}.cls-13{fill:#8c7566;}.cls-14{fill:#766254;}.cls-15{fill:#7a4d34;}.cls-16{fill:#fffefe;}</style></defs><title>beag</title><g id="Layer_2" data-name="Layer 2"><g id="Layer_1-2" data-name="Layer 1"><path class="cls-1" d="M116.07,95.83c-2.48.67-4.28-1.11-6.39-1.81q-1.47,2.52-3,4.91c.51-.33,1-.65,1.57-.93a8.65,8.65,0,0,1,6.21-.41,2.76,2.76,0,0,0,2.25,0c.53-.31,1.12-.76.93-1.46C117.34,95.19,116.64,95.67,116.07,95.83Z"/><path class="cls-1" d="M112.84,89.45c2.57-.15,2.52-1.3,2-3.78-.08-.37-.17-.73-.27-1.08q-1.16,2.53-2.42,5A4.14,4.14,0,0,1,112.84,89.45Z"/><path class="cls-1" d="M109,93.83c-.62-.12-.54-.89-.18-1.38.88-1.25,1.7-2.57,3.36-2.91q1.26-2.43,2.42-5a62.82,62.82,0,0,0-3.38-8.08c-1.31-3-1.62-3-3.72-.53,1,0,1.68,0,2,1.3.39,1.75,2,2.83,3,4.31,1.15,1.81.3,3.09-.91,4.17A26.85,26.85,0,0,1,107.93,88c-1,1.94-1.21,4.32-3.39,5.52s-2.78,3.89-4.44,5.63c-1,1-1.64,2.35-3.27,2.66a1.57,1.57,0,0,0-1,1.66c0,.67-.1,1.25-.94,1.31v.46a5.47,5.47,0,0,1-2.51,3.84c-2.2,1.5-3.61,4-5.78,5.62-.49.37-.92,1-1.45,1.09-3.83.77-3.85.73-4.68,4.84-.12.6,0,1.28-.68,1.62a.67.67,0,0,1-.83-.19,1.33,1.33,0,0,1,.1-1.88l0,0c1.49-1.78.06-3.38-.27-5a2.56,2.56,0,0,1,.52-2.54c1-1.13,2.59-1.83,2.37-3.91-.06-.58,1.5-1.39,2.38-2s1.92-1.22,1.13-2.57c-.51-.87-1.31-1.53-2.29-1s-2.06,1.33-.83,2.72a.92.92,0,0,1-.16,1.27.83.83,0,0,1-1.17.08l-.08-.08c-1.31-1.22-2.54-.64-4-.22-3.28.93-6.09-.91-8.33-5a4.72,4.72,0,0,1-.53-2.21c-.24-2.37-.93-4.21-3.5-5.31-1.83-.78-1.56-3-1.32-4.87l-.38-1.57c-.73-.15-.83-.61-.61-1.23l-.39-2.9a1.7,1.7,0,0,1-.06-1.44l-.44-.5c-1.86-.46-3.71-.95-5.59-1.35-.56-.12-1.37-.27-1.52.59s.45,1.07,1.13,1.19a9.23,9.23,0,0,1,1.79.4c2.68,1.08,2.62,1.57,1,3.87a11.29,11.29,0,0,0-2.21,6.69,11.4,11.4,0,0,1-1.64,6.12c-2.74,4.15-2.94,7.13.06,11.4.31.44.89.84.93,1.29.08.89,1.11,2,.27,2.58-1.22.83-1-.9-1.58-1.37a5,5,0,0,0-6.7-.2c-1.63,1.22-2.9,2.86-4.91,3.69a6,6,0,0,0-2.51,2.68c-.33.57-.8,1.31-1.66.78s-1.31-1.38-.75-2.18a4.1,4.1,0,0,0,.37-3.74,6.07,6.07,0,0,1,0-3,12.15,12.15,0,0,0-.09-6.18c-1.17.1-1.54,1-1.73,1.92-.29,1.35-.39,2.74-.57,4.11-.46,3.5-.53,7.14-2.23,10.32A13.56,13.56,0,0,0,31.06,127a56.52,56.52,0,0,0,7.39,2.68l.17-.16c.88-.83,1.18-1.71.16-2.78-1.64-1.71-1-3.78,1.29-4.19a5.09,5.09,0,0,0,2.24-1.07c1.28-1,2.57-2,4.39-1.78.28,0,.77,0,.87-.19,1.49-2.58,4.34-2.08,6.58-2.91,3.36-1.24,4.27-3.18,1.92-5.71-3.09-3.32-2.22-6.27-.34-9.65A13.34,13.34,0,0,1,58.5,97.6c.48-.42.89-1.65,1.8-.69.65.69,1.52,1.56.62,2.63a1.46,1.46,0,0,0-.29,1.88c.6,1,1.17-.32,1.93,0-1.14,2.59,1.88,3.12,2.31,5,1.07-.44.1-2,1.3-2s1.27,1.09,1.8,1.83a18.42,18.42,0,0,1,1.82,2.89c.26.55.72,1.25,1.39,1,2-.66,2,.58,2.31,2a21.09,21.09,0,0,0,1.69,5.23c.5,1,1.19,2.31-1,2.32-.48,0-1,.47-1.43.69s-1.58.44-1,1.39c.74,1.14.91,0,1.4-.4,1-.75,1.57.18,1.94.91a2.46,2.46,0,0,1-2,3.32c-2.29.18-3.56,1.22-4,3.4a.84.84,0,0,1-.14.29A62.8,62.8,0,0,0,91,116.84c-.81-.76-.34-1.86.41-2.63,1.77-1.82,3.06-4,5.21-5.57a21.16,21.16,0,0,0,5.18-5.2,18.6,18.6,0,0,1,4.83-4.52q1.58-2.39,3-4.91A5.56,5.56,0,0,0,109,93.83Z"/><path class="cls-2" d="M108.36,72.65l-1.54,2.52L107,76l.47,0c2.1-2.47,2.41-2.48,3.72.53a62.71,62.71,0,0,1,3.38,8.08q1.3-2.84,2.47-5.82c-2.07-2.65-4.7-5-6.86-7.56C109.59,71.71,109.36,72.71,108.36,72.65Z"/><path class="cls-2" d="M108.78,92.44c-.36.49-.44,1.26.18,1.38a5.57,5.57,0,0,1,.72.19q1.28-2.19,2.47-4.49C110.48,89.87,109.66,91.19,108.78,92.44Z"/><path class="cls-3" d="M106.85,49.48c-.79-1.23-1.46-2.53-2.19-3.79h-1.42a6.49,6.49,0,0,0,.42,4.24c.83,2,.58,4.06.39,6.27-1.35-.42-2.38-1.25-3.77-1.42C98.5,54.56,97,51.89,97.22,50a3,3,0,0,1,.13-.64c2.72.3,3.12-2.31,4.58-3.59a1.78,1.78,0,0,1,.9-.14c.17-1.5-1.2-2.16-1.83-3.23-1.5.86-2-.37-2.28-1.31s-.67-1.94-1.67-2c-.65,0-1.32.64-1.22,1.67s-.59,2.44,1.33,2.65c.78.09,1.31.82,1.7,1.49.24.41.27,1.09-.39,1-3.08-.43-2.7,2.28-3.59,3.83-.22.38-.21,1-.51,1.24-3,2.59-2.37,5.58-1.68,9,.53,2.2.23,3.72,3,2.2.32-.18.55.19.55.53a1.55,1.55,0,0,1-.47,1.45c-2.09,1.8-2,2.8.55,4,.52.26,1.51.36,1.14,1.19s-1,.14-1.52-.17-1.07-.16-.88.43a2.42,2.42,0,0,0,2,1.63c.76.15,1.28.36,1.76-.69a15.22,15.22,0,0,1,3.1-4.84c1.12-1.08.18-2.5-.15-3.5-.51-1.58.68-2.12,1.35-2.66,1-.81,2.28-1.81,2.28-2.71,0-.48-.47-1.41.28-1.23s1.82-1,2.34.62,3.63,3.26-.3,4.67c-.67.23.11,1.3.33,1.89,1,2.69,1.39,5.14-1.3,7.21-1.43,1.1-2.33,2.71-4.21,3.5-1.69.71-2.31,3-4.31,3.8-.7.26-1.51.67-2.22,1-1.14.53-1.71,1.14-1.63,2.34s-.43,1.67-1.43.59c-.53-.6-1.17-1-1.82-.54-.89.56-.07,1.24.11,1.85.12.42.54.9-.18,1.12a.59.59,0,0,1-.77-.63c-.13-.74-.15-1.36-1.13-1.55s-1-.57-.52-1.41c.21-.44-.38-.93-1-1.08-.51.79-.61,2.76-1.3,2.26-1.16-.79-3.59.92-3.59-2-.5,1.14-.89,2.36,0,3s1.11,1.08.43,2c-.56.76-.9,1.76-2.12.16,0,2.5,2.06,3.83,1.61,5.89,1,.86-.65,1.88.35,2.81,1.11-.74,1-3.16,3.23-2.74.22.07.11-.63,0-1-.16-.55-.71-1.4.24-1.55s.86.83,1,1.49a7,7,0,0,0,.32,1c.89-.67.28-2.7,2.07-2.06a4.49,4.49,0,0,0,0-.59c-.1-1.61-.1-1.61,1.75-1.06.5-.14.75-1.24,1.4-.57s-.45,1-.52,1.51t0,.08a.92.92,0,0,0,1,.84,3.08,3.08,0,0,1,.47-1.89c1-.69,1.34-2.94,3.28-1.37l-.15-2.52c.88,1.87,2,1.48,3.23,1.09,1.81-1.78,2.59-4.27,4.27-6.14.77-.85,1.21-2,2.26-2.56l1.54-2.52c1.32-2.13.64-4.79,1.82-6.87.31-.62.48-1.31,1.31-1.43l.13-.46C112.62,58.2,109.69,53.86,106.85,49.48ZM94.21,84.23a6.46,6.46,0,0,1-.51.83c-.28-.75-.51-1.49,0-1.71S94.4,83.72,94.21,84.23Z"/><path class="cls-4" d="M15.92,67.72c1.22-.9,1.09-2.32,1.61-3.48.37-.77.67-1.56,1-2.34h0a.74.74,0,0,1-.33-1l-.33-.74a3.94,3.94,0,0,1-1.94-1.53A8.6,8.6,0,0,0,10,55.3l-.87.2c-.09.6-.44.91-1.09.66l-2.61.33c-.18.57-.4,1.17-1,.27C2.66,58.41.11,59.41.11,62.41H.29a1.4,1.4,0,0,1,1.39,1.41l.44.48.36.45-.23.15-.14-.58-.48-.45H.37L.83,65.2l.31.48C2.7,67.58,2.33,70.33,4,72.19a14.39,14.39,0,0,1,2.7,6c.38,1.51,1.48,1,2.38,1,1.45,0,.47-1.1.77-1.8a7.84,7.84,0,0,1,3,2.3.94.94,0,0,1,.91.46c1.52.26,2.76,1.18,4.16,1.71l.19-.83C17,79.09,16,77.08,14.72,75.23c-1-1.43.57-2.82-.34-4.24C13.31,69.32,14.92,68.5,15.92,67.72Zm-12,.87C3,67.92,3.2,67,3.06,66.16l-.2-.28.25.22h0A2.39,2.39,0,0,1,3.87,68.59ZM9.1,72c-.13-.14-.34-.28-.38-.42s.11-.33.21-.6a1.75,1.75,0,0,1,.44.56C9.4,71.7,9.2,71.87,9.1,72Z"/><path class="cls-5" d="M60.35,76.81h-.88a3,3,0,0,1-2.73,1.76,12,12,0,0,0-3.8,1.51c0,.95-.15,1.74-1.3,1.84l-.57.49a1,1,0,0,0-.1.43c.58,1.19-.8,1.45-1.06,2.24.69.27,1.84-.38,2,.95s-1.14.88-1.77,1.25a4,4,0,0,1-2.35.72c1.42,1.7,2.82,3.38,4.29,5,.92,1,1.16,2,0,3s-2.12,1.2-2.88-.3c-.46-.83-1.1-.75-1.79-.55a1.58,1.58,0,0,0-1,1.47c0,.56.71,1.14,0,1.68v.94c2.31,1.67,3,4.07,1.73,6.34-.3.54-.55,1.11-.84,1.65-.77,1.45-4.57,3.33-6.14,3.12-1.91-.26-2.78-1.38-2.1-3.12.58-1.48-.11-2.13-1-2.86h-.53v.89a12.15,12.15,0,0,1,.09,6.18,6.07,6.07,0,0,0,0,3,4.1,4.1,0,0,1-.37,3.74c-.56.8-.11,1.65.75,2.18s1.33-.21,1.66-.78a6,6,0,0,1,2.51-2.68c2-.83,3.28-2.47,4.91-3.69a5,5,0,0,1,6.7.2c.58.47.36,2.2,1.58,1.37.84-.58-.19-1.69-.27-2.58,0-.45-.62-.85-.93-1.29-3-4.27-2.8-7.25-.06-11.4a11.4,11.4,0,0,0,1.64-6.12,11.29,11.29,0,0,1,2.21-6.69c1.62-2.3,1.68-2.79-1-3.87a9.24,9.24,0,0,0-1.79-.4c-.68-.12-1.28-.33-1.13-1.19s1-.71,1.52-.59c1.88.4,3.73.89,5.59,1.35l.19-.54L61.14,81Z"/><path class="cls-6" d="M76.71,7.85c-.27-.17-.81-.32-.48-.75.15-.23.65-.2,1-.29-.44-1.62-1.83-2.2-3.17-2.62-.85-.27-1.11-.64-1.11-1.4a1.6,1.6,0,0,0-1.39-.52,20.36,20.36,0,0,1-5.49-.51A16.23,16.23,0,0,0,52.76,4.45a9.74,9.74,0,0,1-5,1.55,2.61,2.61,0,0,0-1.92,1.37c1.89-.19,3.32,2,5.39,1,.38-.19,1,0,1.26-.43,1.17-2.12,2.41-1.61,3.86-.27,1.12,1,2.7.91,4,.91a22.12,22.12,0,0,1,14.13,5.66c.44.38.88,1.45,1.6.57.48-.58.07-1.35-.62-1.75a5.91,5.91,0,0,1-2.22-2.3c-.55-1-.66-1.7,1.21-1.7L72.2,8l.2-.61c1.5,1,3.6.33,4.73,2.33.24.43.6.4.9,0l-.2-.11.2.11,1.46-.08V8.87L79,8.31A3.6,3.6,0,0,1,76.71,7.85Z"/><path class="cls-7" d="M112.6,61.16A23.28,23.28,0,0,0,109,50a40,40,0,0,1-5-11.64c-1.07-4.22-2.43-8.18-5.57-11.52-1.57-1.69-2.74-3.88-4.57-5.47-1.22-1.06-2.37-2.22-3.53-3.35-3.38-3.3-6.08-7.22-9.38-10.57C78.75,5.24,76.35,3.13,73,2.79a1.26,1.26,0,0,0,1,1.42c1.34.42,2.73,1,3.17,2.62.93.1,1.81.28,1.81,1.49l.55.56v.77c1.69,1.1,4.06,1.53,4,4.35a4.4,4.4,0,0,0,2.36,2.56A3.36,3.36,0,0,1,88.49,20l1.22.58a1.93,1.93,0,0,1,2,1.29,1.51,1.51,0,0,1,1.38,1.44,13.23,13.23,0,0,1,5.48,6.56c.91,1,1.88,2,2.71,3.11.65.85.66,1.61-.74,1.61-.13.3-.57.67-.25,1,1.69,1.7,1.35,4.13,2.17,6.13.58,1.42,2,2.3,2.18,3.93.73,1.26,1.4,2.56,2.19,3.78,2.84,4.36,5.77,8.71,4.77,14.36C112.84,63.23,112.65,62.16,112.6,61.16Z"/><path class="cls-6" d="M23,16.65l.07.55c0,1.19,2.12,0,1.78,1.75-.46,2.36-.41,2.41-3.14,1.52a8.28,8.28,0,0,0-1.14,2.76c.57.24,1.26.6,1,1.24-.34.84-1.17-.12-1.75.19a1.6,1.6,0,0,0,1.36,2.1c.55.16,2,.47,1.55,1.3s-.52,2.44-2.19,2.18c-.42,1.27.37,2.49.16,3.75.78.61.73,1.09-.22,1.44l-.15.5-.48,1.71v.6c.44.16.44.52.44.91l.06.43c2.77-.24,2.86-2.8,3.68-4.52s1.5-1.59,2.34-.1c.3-1.67,2.18-2.44,2.3-4.19-3.47-1.39-4.19-3-2.67-6a4.33,4.33,0,0,0,.35-2c-.88.2-1.95.3-1.15-1,.37-.61,0-1.39.66-1.77a3.12,3.12,0,0,0,.41-1.88c-.71-1.37.39-1.47,1.29-2s1.9-.27,2.9-.35a2.66,2.66,0,0,0,0-.44c0-.23.12-.53,0-.67-1.67-2-.73-3.6.54-5.23A34.72,34.72,0,0,0,23,16.65Zm.13,7.89c-.81-.81-1.06-1.29-.37-2,.52.53.26,1.1.4,2Z"/><path class="cls-8" d="M46.41,99.23a18.47,18.47,0,0,0,.1,1.87c.3,2.27-1.87,5-4.1,5.1-.63,0-1.11-.21-.83-1,1.29-3.79-.71-7-1.71-10.41-.27-.9-1-1.06-1.81-1.19a.88.88,0,0,0-.42.9c.56.17,1.12.3.44,1v1.84c.46.1.85.39.79.84s-.43.53-.79.62Q38,99.95,38,101.1c1.16,1.08-.28,2.17,0,3.26.93.74,1.63,1.38,1,2.86-.68,1.74.18,2.86,2.1,3.12,1.57.21,5.37-1.67,6.14-3.12.29-.54.55-1.11.84-1.65C49.41,103.29,48.72,100.9,46.41,99.23Z"/><path class="cls-9" d="M46.41,99.23l0-1a2.85,2.85,0,0,1-1.89-3.3,2,2,0,0,0-.74-2,5.64,5.64,0,0,1-2-4.46c-.5-.67-1.24-.38-1.88-.46L38,88.94c-.79,1.54.11,3.1,0,4.65.81.13,1.53.29,1.81,1.19,1,3.41,3,6.63,1.71,10.41-.28.84.2,1,.83,1,2.23-.1,4.4-2.83,4.1-5.1A18.47,18.47,0,0,1,46.41,99.23ZM40,90.13c-.39.1-.46-.23-.46-.52a.56.56,0,0,1,.38-.39c.14,0,.28.23.46.39C40.19,89.82,40.11,90.1,40,90.13Z"/><path class="cls-7" d="M70.06,1.39C64.39-.64,58.69-.21,53,1.2c-1.25.31-2.69-.2-3.74.83,1,.61.44,1.07-.19,1.42s-1.51.32-1.72,1.25L47.74,6a9.74,9.74,0,0,0,5-1.55A16.23,16.23,0,0,1,66.06,1.76a20.36,20.36,0,0,0,5.5.51C71.27,1.6,70.63,1.59,70.06,1.39Z"/><path class="cls-10" d="M39.83,6.5a1.87,1.87,0,0,0-2,.22c-1.82,1.21-3.94,1.39-5.94,2l-.81.71c-1.27,1.63-2.21,3.29-.54,5.23a2.13,2.13,0,0,1,0,.67c1.79,0,1.1-1.73,1.86-2.8.32,1.27-.36,2.65,1,3.27,1.26-.64,1.47-2.06,2.15-3.06.45-.63.45-1.51,1.45-1.63a1.67,1.67,0,0,1,1.49-2l1-1.32C39.28,7.26,40.38,6.87,39.83,6.5Z"/><path class="cls-9" d="M43.57,85.45c-.88.19-1.28-.21-1.28-1.11-1.08-1.26,1.41-1.18.92-2.26-1.19-.18-2-.22-2.64,1.33-1,2.6-3.48,1-5.29,1.28-.54.09-1.32-.58-1.65.17-1,2.31-1.8,1.08-2.64-.07-1.8-.36-3-2.41-5.14-1.84,0,.64.07,1.19.87,1.42a1.89,1.89,0,0,1,1.47,1.86l1,.47c3.15.73,6.22.12,9.29-.53,1.42-1,2.91-.17,4,.4,1.62.82,2.71.33,4-.43A3.67,3.67,0,0,0,43.57,85.45Z"/><path class="cls-11" d="M9.85,77.33c-.3.7.68,1.8-.77,1.8-.91,0-2,.54-2.38-1A14.39,14.39,0,0,0,4,72.19c.69,5.57,1.8,10.91,7.18,14v-.06l.76-.26-.21-1.08A3.2,3.2,0,0,1,10,82.86c-.26-.63-.79-1.24-.11-1.89s1.48-1.12,2.4-.34l.58-1A7.84,7.84,0,0,0,9.85,77.33Z"/><path class="cls-1" d="M20.27,41.57c.13,1.45-.59,1.24-1.45.73-.49.13-.51,1.6-1.43.51a8,8,0,0,1-2.21,3.25c-1.41,1.37-3.77,1.86-4.25,4.17,2.24-.79,4.16-2.31,6.54-2.68h0a1.74,1.74,0,0,0,2-1.46c.24-.81.22-1.9,1.32-2.26l1.36-.5a.84.84,0,0,1,.95-.91h.48l.37-.61-.46-1.54Z"/><path class="cls-1" d="M49.93,85.14a5.86,5.86,0,0,1-3.5,1c-1.25.76-2.33,1.25-4,.43-1.09-.54-2.57-1.4-4-.4l0,1.43c.51,0,1.06-.1,1.38.46.65.09,1.38-.21,1.88.46,1.21,1.17,2.42.28,3.64,0,.8-.18,1.61-.31,2.41-.46a4,4,0,0,0,2.35-.72c.63-.36,1.91,0,1.77-1.25S50.63,85.41,49.93,85.14Z"/><path class="cls-12" d="M20.54,23.21a8.23,8.23,0,0,1,1.14-2.76,2.7,2.7,0,0,0,1-3.21l-.13-.14c-2.19,2.12-3.56,4.83-5.28,7.28a1.88,1.88,0,0,0,0,1.8C19.57,25,19.52,27,20,28.36c.71.22,1,.65.6,1.35l-.1.51c1.67.26,1.83-1.49,2.19-2.18s-1-1.14-1.55-1.3c-1.23-.35-1.56-1-1.36-2.1C19.81,24,19.68,23.37,20.54,23.21Z"/><path class="cls-13" d="M11.19,86.2v.06c-.86.74-1.48-.51-2.31-.28,1,3.58,3,4.89,6.75,4.47-.24-.45-.48-1-.71-1.45-.69-1.49.39-1,1.08-1l.18-.8h-.41A4.49,4.49,0,0,1,11.19,86.2Z"/><path class="cls-7" d="M41.7,3.77a29.77,29.77,0,0,0-9.89,5c2-.66,4.13-.84,5.94-2a1.87,1.87,0,0,1,2-.22c.55.38-.55.76-.34,1.3,1.37-.12,2-1.51,3.25-1.85l.43-.8C42.53,4.82,41.7,4.72,41.7,3.77Z"/><path class="cls-1" d="M23,84.34h-.82a1.42,1.42,0,0,1-1.54-1.22,2,2,0,0,0-1.36,1.79C21.09,86.47,23.4,87,25.51,88l.53.54c1.35-.11,2.9.17,3.16-1.83l-1-.47C26.29,86.08,24.19,86.42,23,84.34Z"/><path class="cls-14" d="M20.4,88.42c-.79.28-1.56.63-2.37.84-1.11.3-2,.13-2-1.33-.69,0-1.77-.48-1.08,1,.23.45.47,1,.71,1.45h2.76l.11-.14a1.22,1.22,0,0,1,1.73,0l2.36-.4.71-.28c1,0,2.11.14,2.7-1L25.51,88Z"/><path class="cls-4" d="M20.53,30.2l.1-.51c-.84,0-.91-.82-1.28-1.36H17.14l-.44.13c-.71,2,1,2.83,1.84,4.08,1.2-.3.74,1.5,1.74,1.41a1.69,1.69,0,0,1,.41,0C20.89,32.69,20.11,31.47,20.53,30.2Z"/><path class="cls-12" d="M17.47,47.51c-2.38.41-4.31,1.93-6.54,2.72-.71.54-1.74.77-1.82,1.94l2.42-.36a1.48,1.48,0,0,0,.38-.1c0-.59.06-1.17.87-.59a.88.88,0,0,0,.92-.45c.74-2,2.29-1.39,3.66-1,.71.19,1.28,1.09,2,.09C19,48.8,17.41,48.84,17.47,47.51Z"/><path class="cls-10" d="M49.25,2c-2.41,1-5.15.47-7.5,1.7,0,.94.83,1,1.39,1.43a1.31,1.31,0,0,1,.4-.06h0a.74.74,0,0,1,1-.33h.86l.6.06,1.34-.12c.21-.93,1.11-.91,1.72-1.25S50.25,2.61,49.25,2Z"/><path class="cls-7" d="M110.18,65.6c-1.21,2.21-.5,4.87-1.82,7,1,.06,1.23-.94,1.81-1.49a27.61,27.61,0,0,0,1.32-6.94C110.66,64.3,110.52,65,110.18,65.6Z"/><path class="cls-11" d="M19.83,38.2v-.6a1.41,1.41,0,0,1-1.33.5,22.11,22.11,0,0,0-1.11,4.7c.93,1.09.94-.38,1.43-.51l.11-1.75a1.19,1.19,0,0,1,1.3-1h.1l-.06-.43A.91.91,0,0,1,19.83,38.2Z"/><path class="cls-11" d="M7.61,53.92l-3,2.48.91.1,2.61-.33a.83.83,0,0,1,1.09-.66L10,55.3,10.09,54C9.27,53.92,8.39,55.07,7.61,53.92Z"/><path class="cls-7" d="M7.6,53.89c.78,1.11,1.66,0,2.48.11H11.4l.15-2.22-2.42.36A3.39,3.39,0,0,0,7.6,53.89Z"/><path class="cls-3" d="M17.14,26.17v2.21h2.21l.65,0C19.53,27,19.58,25,17.14,26.17Z"/><path class="cls-4" d="M18.51,35.84V38.1a1.41,1.41,0,0,0,1.33-.5l.4-1.68-1-1Z"/><path class="cls-13" d="M18.55,32.58a7.86,7.86,0,0,0,0,3.25l.73-.92c.32-.39.72-.14,1-.07V34C19.26,34.08,19.75,32.28,18.55,32.58Z"/><path class="cls-1" d="M38,101.1a3.86,3.86,0,0,0-.49,3.26H38C37.73,103.28,39.17,102.19,38,101.1Z"/><path class="cls-13" d="M.11,62.38a1.37,1.37,0,0,0,.25,1.45H1.62l0-.08a1.38,1.38,0,0,0,0-.14A1.4,1.4,0,0,0,.11,62.38Z"/><path class="cls-13" d="M18.41,90.41a2.07,2.07,0,0,0,1.84-.16l-.14-.11A1.22,1.22,0,0,0,18.41,90.41Z"/><path class="cls-8" d="M38.49,87.59,38.06,89l1.81-1C39.54,87.49,39,87.59,38.49,87.59Z"/><path class="cls-1" d="M38.06,97.34q0,.73,0,1.46c.36-.08.72,0,.79-.62S38.52,97.44,38.06,97.34Z"/><path class="cls-13" d="M4.48,56.77c.56.9.78.3,1-.27l-.91-.1A.32.32,0,0,0,4.48,56.77Z"/><path class="cls-2" d="M31,129.54q-.7.46,0,.93C31.47,130.17,31.48,129.85,31,129.54Z"/><path class="cls-1" d="M37.59,94.54a.85.85,0,0,0,.44,1C38.7,94.8,38.15,94.67,37.59,94.54Z"/><path class="cls-12" d="M16.72,28.5l.44-.13v-.81C16.69,27.72,16.64,28.08,16.72,28.5Z"/><path class="cls-13" d="M22.62,89.85l.71-.28Z"/><path class="cls-13" d="M1.15,65.67l-.31-.48C.75,65.48.9,65.61,1.15,65.67Z"/><path class="cls-12" d="M22.55,17l.13.14a2.41,2.41,0,0,1,.4,0L23,16.65Z"/><path class="cls-2" d="M69,129.26a.85.85,0,0,0,.08-.2c.44-2.18,1.71-3.22,4-3.4a2.46,2.46,0,0,0,2-3.32c-.37-.73-.94-1.66-1.94-.91-.49.4-.66,1.54-1.4.4-.58-1,.52-1.17,1-1.39s.95-.69,1.43-.69c2.19,0,1.5-1.37,1-2.32a21.08,21.08,0,0,1-1.69-5.23c-.31-1.42-.26-2.66-2.31-2-.67.25-1.13-.45-1.39-1A18.42,18.42,0,0,0,68,106.31c-.53-.74-.6-1.83-1.8-1.83s-.23,1.56-1.3,2c-.43-1.88-3.45-2.41-2.31-5-.76-.35-1.33,1-2-.06a1.46,1.46,0,0,1,.29-1.88c.9-1.07,0-1.94-.62-2.63-.91-1-1.32.27-1.8.69a13.34,13.34,0,0,0-2.77,3.64c-1.88,3.38-2.75,6.33.34,9.65,2.35,2.53,1.44,4.47-1.92,5.71-2.24.83-5.09.33-6.58,2.91-.1.19-.59.19-.87.19-1.82-.22-3.11.78-4.39,1.78a5.09,5.09,0,0,1-2.24,1.07c-2.29.41-2.93,2.48-1.29,4.19,1,1.07.72,2-.16,2.78l-.17.16A53.06,53.06,0,0,0,69,129.26Z"/><path class="cls-3" d="M80.36,87c-.53-.09-2-.91-2.27.7-1.65-.86-1.36,1.13-2.18,1.49a4.57,4.57,0,0,1,1.1-6c1.36-1.12.85-2.53,1.36-3.74.17-.4-2.77-1.16-3.32-.65-1.94,1.78-2,.21-2.22-1.36-.87.42-1.55.78-1.7,1.73.46.09,1.14,0,.52.83s-1.15,1.73-2.28,1.79c-.61,0-.21-.65-.35-.81-1.45-1.7.74-2.71.74-4.12l0,0-2.24-.16c2.62-1.16.44-3.54,2.21-4.75.92.46.63,1.64,1.45,2.46v-4.5l-.18-.2.2.18a1.79,1.79,0,0,0,2.08-1.41c.72-2.25,1.23-4.51,0-6.77-.26-.44-.35-1.18,0-1.24,2.94-.51.35-3.27,1.83-4.44.32-.26-1.66-.31-1.16-1.53-1.29.32-1.13,1.48-1.37,2.39-.15.57.18,1.4-.72,1.49s0-1.16-.9-1.35L65.57,69.39c-.61-1.71-1.93-2.9-2-4.65-.81.78-.27,1.86-.49,2.78,0,2.56.63,5.24-1.27,7.48l.43.93c.54.94,1.6,1.85.08,2.85-.24.84.46,2.16-1.17,2.29l.12.45c.34,0,.73,0,.75.41,0,.16-.35.34-.54.51a1.7,1.7,0,0,0,.06,1.45c1.84-.27,3.15.17,2.53,2.37-.31,1.08,1.15.9.93,1.74a1.37,1.37,0,0,1,1.57,1,7.22,7.22,0,0,0,4,4.45c1.59.57,1.16,1.83.94,3l.49.17c.2-.58.33-1.21,1-1.49,1.69-.76,1.7-.76,2-2.45.62.52,0,1.32.44,1.87.89-1.48,2.33-.73,3.56-.89a9.91,9.91,0,0,1,1.93-2.86c.08-.62-.58-1.14-.25-1.78S81.48,87.23,80.36,87Zm-17-4.38h0l0-.08a1,1,0,0,1-.09-.23h.16l-.07.23S63.35,82.62,63.37,82.64Zm5,.85A2.67,2.67,0,0,1,68,84c-.23-.48-.31-1.1,0-1.22C68.81,82.49,68.59,83.1,68.41,83.49ZM71.07,88c0,.56-.18,1.29-.77,1.19-1-.17,0-1-.27-1.48s-.31-.92.4-1C71.22,86.89,71.06,87.48,71.07,88Zm.46-5.16c.47-1.08.7-1.88,1.64-2.06.15,0,.54.41.54.6C73.62,82.47,72.74,82.56,71.53,82.88Zm2.09,7.85h-.13a.51.51,0,0,1-.42-.59c.07-.67.22-1.4,1.07-1.54.34,0,.52.23.52.62C74.29,89.7,74.6,90.67,73.62,90.73Zm.71-5.59c-.16.53-.46,1.1-1,1.1a1.85,1.85,0,0,1-1.15-1l0,0a1.15,1.15,0,0,1,.45-1.56,11,11,0,0,0,2.49-1.31h0C74.83,83.29,74.59,84.21,74.33,85.14Z"/><path class="cls-3" d="M63.37,82.64s0,0,0-.07l0,.08Z"/><polygon class="cls-3" points="75.09 82.36 75.08 82.36 75.1 82.36 75.09 82.36"/><path class="cls-5" d="M92.27,106.43c-.55,1-1.44.75-2.27.75-1,0-1.33-.43-.58-1.25,1.74-1.93,1.62-4.1.74-6.29a1.22,1.22,0,0,1,.68-1.85c.42-.22,1.19-.31,1-1S90.93,96,90.3,96A4,4,0,0,1,88,95.63c.46-.9,1.16-.6,1.7-.6,2.67,0,2.67.06,1.79-2.5a2.07,2.07,0,0,0-1.35.73c-.13.61-.32,1-.94.36-1.25-.28-1.7,1.18-2.78,1.28a.94.94,0,0,1-1.14.49l-.74.17c-.26,1.26-1.23.77-2,.77h-.78c0,.8.28,1.88-1,1.88-2.13-.06-4,1.4-6.13.81-.34-.1-.72-.37-1,.09s0,.86.33,1.24c.46.57,1.49.85,1.31,1.74s-.09,1.86-1.09,2.45-1.72-.09-2.41-.77A6.77,6.77,0,0,0,68.33,102c2.24,4.09,5,5.93,8.33,5,1.46-.42,2.69-1,4,.22l.08.08a.83.83,0,0,0,1.17-.08.92.92,0,0,0,.16-1.27c-1.23-1.39-.15-2.19.83-2.72s1.78.13,2.29,1c.79,1.35-.25,2-1.13,2.57s-2.44,1.42-2.38,2c.22,2.08-1.37,2.78-2.37,3.91a2.56,2.56,0,0,0-.52,2.54c.33,1.62,1.76,3.22.27,5l0,0a1.33,1.33,0,0,0-.1,1.88.67.67,0,0,0,.83.19c.68-.34.56-1,.68-1.62.83-4.11.85-4.07,4.68-4.84.53-.09,1-.72,1.45-1.09,2.17-1.62,3.58-4.12,5.78-5.62a5.47,5.47,0,0,0,2.51-3.84A2.44,2.44,0,0,0,92.27,106.43Z"/><path class="cls-8" d="M109.62,82.62a15.38,15.38,0,0,0-2.61-5.7c-1.52,2.08-3,4.14-4.52,6.25a2.53,2.53,0,0,1-2.08,1.2l-.42.47c.4.27.64.63.31,1.06s-.59.07-.82-.2c-.74,0-1.11.66-1.67,1l-.54.94a1.6,1.6,0,0,1-1.36,1v0c-.8,2-3.12,2.34-4.33,3.9.88,2.56.88,2.5-1.79,2.5-.54,0-1.24-.29-1.7.6A4,4,0,0,0,90.3,96c.63,0,1.32,0,1.52.7s-.56.83-1,1a1.22,1.22,0,0,0-.68,1.85c.88,2.19,1,4.36-.74,6.29-.75.82-.42,1.25.58,1.25.83,0,1.72.25,2.27-.75a2.44,2.44,0,0,1,2.62-1.1,2.85,2.85,0,0,0,0-.42c0-1.77-2.17-2.81-1.53-4.94,2.37.86,3.43-.36,4.37-2.51a6.24,6.24,0,0,1,4-3.82,4.44,4.44,0,0,0,3-3.33c.47-1.86,1.46-2.5,3.25-2.17.42-1.36-.11-3.06,1.55-4C110,83.81,109.78,83.14,109.62,82.62Z"/><path class="cls-8" d="M72.09,96.58l-.49-.17a10.24,10.24,0,0,1-7-4.6c-.5-.77-1.08-1.47-1.63-2.2-.24,1.87-.51,4.09,1.32,4.87,2.57,1.1,3.26,2.94,3.5,5.31a4.72,4.72,0,0,0,.53,2.21,6.77,6.77,0,0,1,3.46,1.84c.68.69,1.54,1.29,2.41.77s.89-1.46,1.09-2.45S74.43,101,74,100.42a1.11,1.11,0,0,1-.33-1.24c.22-.42.63-.19,1-.09,2.13.59,4-.87,6.13-.81,1.33,0,1-1.08,1-1.88C78.57,96.68,75.33,97.74,72.09,96.58Z"/><path class="cls-5" d="M104.72,90.23a4.44,4.44,0,0,1-3,3.33,6.24,6.24,0,0,0-4,3.82c-.94,2.15-2,3.36-4.37,2.51-.64,2.13,1.53,3.17,1.53,4.94.84-.06,1-.64,1-1.3a1.57,1.57,0,0,1,1-1.66c1.63-.31,2.27-1.66,3.27-2.66,1.66-1.74,2.26-4.43,4.44-5.63S107,90,108,88.06C106.18,87.73,105.2,88.36,104.72,90.23Z"/><path class="cls-13" d="M65,88.22l.1-.18s0,0,0,0H65Z"/><path class="cls-13" d="M70.59,93.4A7.22,7.22,0,0,1,66.53,89a1.36,1.36,0,0,0-1.46-1s0,0,0,0l-.1.18L65,88h.07c.16-.79-1.24-.64-.93-1.7.62-2.2-.69-2.63-2.53-2.37l.39,2.9a1,1,0,0,1,.56,1.24l.37,1.57c.54.73,1.13,1.44,1.63,2.2a10.24,10.24,0,0,0,7,4.6C71.78,95.27,72.21,94,70.59,93.4Z"/><path class="cls-5" d="M112.45,81.61c-1-1.48-2.61-2.56-3-4.31-.32-1.3-1-1.3-2-1.3H107v.82a15.38,15.38,0,0,1,2.61,5.7c.16.48.4,1.19-.12,1.48-1.65.93-1.12,2.64-1.55,4a26.85,26.85,0,0,0,3.61-2.22C112.75,84.7,113.6,83.42,112.45,81.61Z"/><path class="cls-8" d="M62,86.83c-.24.63-.14,1.09.61,1.23A1,1,0,0,0,62,86.83Z"/><path class="cls-13" d="M61.27,81.52l-.19.47.44.5c.19-.17.54-.34.54-.51C62,81.52,61.61,81.52,61.27,81.52Z"/><path class="cls-1" d="M106.83,75.17c-1.06.56-1.5,1.72-2.26,2.56-1.69,1.87-2.46,4.36-4.27,6.14l.1.48a2.53,2.53,0,0,0,2.08-1.2c1.47-2.11,3-4.17,4.52-6.25V76Z"/><path class="cls-15" d="M107.7,61c3.93-1.42.77-3.2.3-4.67s-1.61-.44-2.34-.62-.28.74-.28,1.23c0,.9-1.28,1.89-2.28,2.71-.67.53-1.86,1.07-1.35,2.66.33,1,1.28,2.41.15,3.5a15.22,15.22,0,0,0-3.1,4.84c-.48,1-.95.84-1.76.69a2.42,2.42,0,0,1-2-1.63c-.19-.6.36-.73.88-.43s1.2.88,1.52.17-.62-.93-1.14-1.19c-2.43-1.23-2.57-2.2-.48-4a1.55,1.55,0,0,0,.47-1.45c0-.34-.23-.71-.55-.53-2.82,1.52-2.52,0-3-2.2-.74-3.42-1.32-6.41,1.63-9.07.3-.24.29-.85.51-1.24.89-1.54.51-4.26,3.59-3.83.66.09.63-.58.39-1-.39-.67-.92-1.4-1.7-1.49-1.92-.21-1.24-1.76-1.33-2.65A1.47,1.47,0,0,1,97,39c1,.07,1.33,1,1.67,2s.78,2.17,2.28,1.31c-.84-1.56-1-3.38-2.68-4.61-1.17-.9-1.07-5-.17-6.58a1,1,0,0,1-.09-.4c-1.28,0-2.07-.33-2.37-1.86A7.8,7.8,0,0,0,92,23.73c-1.64.39-2.39-1.28-3.69-1.61-.61-.15-1.68-2-2.07.31-.07.42-.65.06-.95-.17-.51-.4-.93-1.2-1.7-.34a.58.58,0,0,1-.41.15c-.36-3.75-3.72-.82-5.22-2.32-.92-1-2.25-1.44-2.25-3-.74-.5-1.64-.67-2.25-1.5a2.2,2.2,0,0,0-2.71-.77,2.87,2.87,0,0,0-1.44,2.61,31.92,31.92,0,0,0,.26,4.33,1.48,1.48,0,0,0,.34-.3c.47-.76,0-2.49,1.75-2a2.51,2.51,0,0,1,1.77,2.67c-.06,4.2-1.35,8.31-1,12.54,0,0-.15.12-.15.12a2.67,2.67,0,0,1-.41-.1c-.52,1.45-1.08-.28-1.92,0,.92,3.31,1.35,6.61.13,9.87.39,1.11-1.14,2.27.09,3.35,1-1.14,1-2.88,2.16-3.88l.75-4A63.1,63.1,0,0,0,75.41,32c.3-1.37-.06-2.87.7-4.37,1.45,1.49.94,3.27,1,4.92,1.13,1.75.05,3.45-.21,5.14-.32,2-1,4.07-1.19,6.1s-1.83,3.06-3.28,4.18c-1.53,1.82-1.61,4.34-3.12,6.22-.8,1-1.37,2.16-2.65,2.67-.51,2.84-3.23,4.82-3.09,7.92.06,1.75,1.39,2.94,2,4.65L70.85,57c.9.19.08,1.43.9,1.35s.57-.93.72-1.49c.24-.91.08-2.08,1.37-2.39.05-.29,0-.64.44-.69.08,0,.26.18.26.26-.06.43-.4.43-.7.43-.5,1.22,1.48,1.27,1.16,1.53-1.49,1.18,1.1,3.94-1.83,4.44-.32.06-.24.8,0,1.24,1.24,2.26.74,4.52,0,6.77a1.79,1.79,0,0,1-2.08,1.41v4.5c-.82-.81-.54-2-1.45-2.46-1.78,1.21.41,3.59-2.21,4.75l2.24.16.23-.17-.17.23c0,1.4-2.19,2.41-.74,4.12.14.16-.26.81.35.81,1.13-.06,1.8-1.16,2.28-1.79s0-.73-.52-.83l-.11.19.11-.19c.14-1,.83-1.32,1.7-1.73C73,79,73.08,80.63,75,78.85c.55-.51,3.49.25,3.32.65-.5,1.21,0,2.61-1.36,3.74a4.57,4.57,0,0,0-1.1,6c.82-.36.53-2.36,2.18-1.49.27-1.61,1.75-.8,2.27-.7,1.12.17.74,1.2.32,2-.33.64.34,1.16.25,1.78,1.1,1.66,1.3,0,1.75-.46C83.1,88.32,81,87,81,84.48c1.22,1.6,1.56.6,2.12-.16s.57-1.27-.43-2-.49-1.84,0-3c0,2.88,2.44,1.17,3.59,2,.69.5.78-1.48,1.3-2.26.66.14,1.26.64,1,1.08-.48.84-.32,1.24.52,1.41s1,.8,1.13,1.55c0,.42.31.77.77.63.72-.22.3-.71.18-1.12-.18-.62-1-1.3-.11-1.85.65-.46,1.29-.06,1.82.54,1,1.08,1.52.75,1.43-.59s.49-1.82,1.63-2.34c.71-.32,1.52-.72,2.22-1,2-.8,2.62-3.09,4.31-3.8,1.88-.79,2.78-2.4,4.21-3.5,2.69-2.07,2.3-4.52,1.3-7.21C107.81,62.26,107.07,61.2,107.7,61Z"/><polygon class="cls-6" points="93.68 88.62 93.5 88.51 93.49 88.51 93.49 88.52 93.68 88.62"/><path class="cls-6" d="M94,86.63a3.08,3.08,0,0,0-.47,1.88h0l.18.11-.19-.1h-.07a.92.92,0,0,1-.92-.92h-.89a1.42,1.42,0,0,0-.93,1.24c-.19,3.14-2.44,3.65-4.93,4.27-1.74.44-3.2,1.79-5.2,1.73-1,0-1.41-.24-1.52-1.16-1.23.17-2.67-.59-3.56.89-.47-.58.14-1.34-.47-1.87-.29,1.69-.3,1.68-2,2.45-.63.28-.75.91-1,1.48,3.28,1.13,6.52.06,9.77-.22l.86-.08a2.38,2.38,0,0,1,2-.77l.74-.17a1.32,1.32,0,0,1,1.14-.49c1.07-.1,1.53-1.56,2.78-1.28a.81.81,0,0,1,.94-.36,2.06,2.06,0,0,1,1.35-.72c1.21-1.55,3.52-1.9,4.33-3.9C94.66,88.58,94.6,87.32,94,86.63Z"/><path class="cls-15" d="M103.67,49.88a6.49,6.49,0,0,1-.42-4.24h-.42c-.31,0-.71,0-.9.14-1.46,1.28-1.86,3.9-4.58,3.59a3,3,0,0,0-.13.64c-.22,1.83,1.28,4.5,3.07,4.73,1.39.17,2.41,1,3.77,1.42C104.25,53.94,104.5,51.88,103.67,49.88Z"/><path class="cls-10" d="M89.87,87.75a4.49,4.49,0,0,1,0,.59c-1.79-.64-1.18,1.4-2.07,2.06a7.05,7.05,0,0,1-.32-1c-.1-.67-.15-1.63-.95-1.49s-.4,1-.24,1.55c.06.33.17,1,0,1-2.23-.42-2.12,2-3.23,2.74-1-.92.65-1.94-.35-2.81-.52.46-.75,2.11-1.81.46A9.91,9.91,0,0,0,79,93.67c.11.91.47,1.16,1.52,1.16,2,.06,3.46-1.3,5.2-1.73,2.5-.62,4.75-1.13,4.93-4.27a1.42,1.42,0,0,1,.93-1.24v-.9C89.77,86.15,89.78,86.15,89.87,87.75Z"/><path class="cls-10" d="M102.48,41.67c-.82-2-.48-4.43-2.17-6.13-.32-.28.13-.66.25-1-.64-1.23-1-2.69-2.41-3.32-.9,1.58-1,5.68.17,6.58,1.63,1.22,1.84,3,2.68,4.61.63,1.06,2,1.73,1.83,3.23h.42l1.41,0C104.48,44,103.06,43.1,102.48,41.67Z"/><path class="cls-13" d="M97.19,85.29c-1.94-1.57-2.28.67-3.28,1.37.68.66.73,1.92,2,2h0c-.24-1.29.19-1.65,1.36-1l.54-.94C97.11,86.42,97.19,85.84,97.19,85.29Z"/><path class="cls-6" d="M100.3,83.82c-1.17.39-2.35.78-3.23-1.09l.15,2.52c0,.55-.07,1.14.58,1.42.56-.34.93-1,1.67-1l.51-.86.42-.47Z"/><path class="cls-13" d="M91.61,86.65v.94h.88c.07-.51,1.26-.75.52-1.51S92.11,86.51,91.61,86.65Z"/><path class="cls-13" d="M93.7,83.35c-.42.18-.28,1,0,1.71a6.46,6.46,0,0,0,.51-.83C94.4,83.72,94.12,83.17,93.7,83.35Z"/><path class="cls-11" d="M19.8,58.44c.81-1.31.38-3.12,1.86-4l-4.2.46v1c1.45.47,2.1,1.22.87,2.58-.45.5-.39,1.12-.52,1.69l.33.74c.5.22.86.46.35,1-.34.78-.65,1.57-1,2.34-.52,1.16-.39,2.57-1.61,3.48-1,.77-2.61,1.59-1.54,3.27.91,1.42-.66,2.81.34,4.24A52.78,52.78,0,0,1,18,81c1-.44.64-1.2.44-1.91v-.82l-.09-1.44c-1.3.07-1.9-.87-2.47-1.77-.45-.71,0-1,.68-1v-.94l-.82-.76c1.93-.56.63-2,.77-3,0-.37.08-1,.27-1.06a5.56,5.56,0,0,0,2.93-3c.11-1.44-.19-3,1-4.19.37-.39.67-.11,1-.11-.13-.44-.24-.89-.41-1.31C21,58.94,19.28,59.25,19.8,58.44Z"/><path class="cls-13" d="M17.47,55.91c-.78-.27-2,.57-2.26-.91-1.1-1-2.72,0-3.81-1H10.08L10,55.3a8.6,8.6,0,0,1,5.88,3.35,3.94,3.94,0,0,0,1.94,1.53c.13-.58.07-1.19.52-1.69C19.57,57.13,18.92,56.38,17.47,55.91Z"/><path class="cls-12" d="M20.68,79.74a1.58,1.58,0,0,0-2.14-.66c.2.72.56,1.47-.44,1.91l-.11.84V82l.45.38c.73.23,1.75-.49,2.2.67a1.42,1.42,0,0,0,1.54,1.22,30.29,30.29,0,0,0-1.37-4.18A1.58,1.58,0,0,0,20.68,79.74Z"/><path class="cls-9" d="M18.44,82.44,18,82l-.11-.15c-1.4-.53-2.64-1.45-4.16-1.71v1.42L15.1,82a.79.79,0,0,1,1,.78c1.25.41,1.66,2.1,3.18,2.1a2,2,0,0,1,1.36-1.79C20.19,81.95,19.17,82.66,18.44,82.44Z"/><path class="cls-12" d="M12.86,79.68l-.58,1a1.56,1.56,0,0,0,1.48.87V80.13A.94.94,0,0,0,12.86,79.68Z"/><path class="cls-13" d="M3,66.16c.14.83-.06,1.77.81,2.43a2.39,2.39,0,0,0-.75-2.48Z"/><path class="cls-14" d="M8.73,71.61c0,.16.24.28.38.42.1-.16.3-.29.27-.46s-.24-.32-.45-.57C8.83,71.25,8.69,71.45,8.73,71.61Z"/><path class="cls-13" d="M8.08,56.17c.65.25.92,0,1.09-.66l-.14,0A.83.83,0,0,0,8.08,56.17Z"/><path class="cls-13" d="M18.14,60.91h0a.74.74,0,0,0,.35,1C19,61.37,18.63,61.13,18.14,60.91Z"/><polygon class="cls-13" points="2.11 64.28 2.25 64.86 2.48 64.71 2.12 64.26 2.11 64.28"/><polygon class="cls-13" points="1.63 63.81 2.11 64.26 1.67 63.78 1.63 63.81"/><polygon class="cls-13" points="3 66.16 3.05 66.1 2.8 65.88 3 66.16"/><path class="cls-12" d="M57.15,74.57c-.16,1-.75,1-1.51.68,1.25-.33-1.37-1.44.36-1.73l.2-.07A1.07,1.07,0,0,0,56.74,72c-.19-.58-.94-.29-1.45-.29-.77,0-2.28,1.08-1.62-1.11.17-.53-.25-.72-.67-.53-2,.89-4.46-.75-6.35,1.37-.89,1-4.3-2.36-3.68-4.09s-.49-1.1-1.12-1.26c-.75,3.1,1.25,5.43,2.25,8a8.89,8.89,0,0,1,1.36,2.81c.89-1.41,2.47-.68,3.65-1.16.9-.4,2-.16,2.78-1h0a1.18,1.18,0,0,1,1.67.09,2.41,2.41,0,0,1,.4,1.72c-.32,1.65-.33,1.7,1.24,1.3a19,19,0,0,1,4.26-1h.88L60.46,75C59.25,75.72,58.29,74.44,57.15,74.57ZM51.1,73.14a1.28,1.28,0,0,1-1.88.58,6.57,6.57,0,0,0-2.79-.83l0,0,0,0h.08c1.14-.39,1.8-1.74,3.46-1C50.73,72.23,51.29,72.53,51.1,73.14Z"/><path class="cls-12" d="M46.38,72.91l0,0h-.08Z"/><path class="cls-8" d="M47.79,88c-.8.15-1.61.28-2.41.46-1.22.29-2.43,1.18-3.64,0a5.64,5.64,0,0,0,2,4.49,2,2,0,0,1,.74,2,2.85,2.85,0,0,0,1.84,3.31c.76-.54-.11-1.06.05-1.68s.35-1.27,1-1.47,1.34-.28,1.79.55c.81,1.49,1.67,1.36,2.89.28S53,94,52.08,93C50.62,91.39,49.22,89.71,47.79,88Z"/><path class="cls-9" d="M53.95,76.52a2.41,2.41,0,0,0-.4-1.72h0a1.18,1.18,0,0,0-1.67-.07c-.78.87-1.88.63-2.78,1-1.18.48-2.76-.26-3.65,1.16.27.94,1.33,1.6.93,2.68a1.76,1.76,0,0,1,1.93,1.13l1.76-.6c1.32-2.17,1.53-2.17,2.86,0a12,12,0,0,1,3.8-1.51,3,3,0,0,0,2.73-1.76,19,19,0,0,0-4.26,1C53.62,78.21,53.63,78.16,53.95,76.52Z"/><path class="cls-14" d="M50.15,83.54a.9.9,0,0,1-1.24.65c-1-.3,0-.82-.08-1.19a11.67,11.67,0,0,0-.69-1.66c-2.39.17-3.85,2.06-5.85,3,0,.9.4,1.29,1.29,1.11a3.67,3.67,0,0,1,2.82.69,5.86,5.86,0,0,0,3.5-1c.26-.79,1.65-1.05,1.1-2.24A.92.92,0,0,0,50.15,83.54Z"/><path class="cls-4" d="M50.12,80.17l-1.76.6-.18.62A11.68,11.68,0,0,1,48.87,83c.08.38-.92.9.08,1.19l.18.06a.9.9,0,0,0,1.06-.71A.92.92,0,0,1,51,82.9a1.35,1.35,0,0,1,.07-.43l.13-.67A1.44,1.44,0,0,0,50.12,80.17Z"/><path class="cls-13" d="M62.24,75.94,61.81,75H60.43l-.08,1.88.8,4.2c1.62-.13.92-1.45,1.17-2.29C61.73,77.86,60.72,76.94,62.24,75.94Z"/><path class="cls-12" d="M50.09,80.17A1.44,1.44,0,0,1,51.2,81.8l.45.21c1.15-.1,1.3-.84,1.3-1.84C51.62,78,51.41,78,50.09,80.17Z"/><polygon class="cls-14" points="51.07 82.47 51.64 81.98 51.2 81.8 51.07 82.47"/><path class="cls-10" d="M85.89,16.46A4.4,4.4,0,0,1,83.54,14c.05-2.85-2.31-3.29-4-4.39l-1.46.08c-.3.41-.66.43-.9,0C76,7.7,74,8.37,72.45,7.37L72.2,8l2.25,1.08c-1.88.05-1.76.7-1.21,1.7a5.91,5.91,0,0,0,2.22,2.3c.69.4,1.1,1.17.62,1.75-.72.88-1.16-.19-1.6-.57A22.12,22.12,0,0,0,60.34,8.57c-1.31-.05-2.9.09-4-.91-1.44-1.33-2.68-1.84-3.86.27-.26.43-.88.25-1.26.43-2.08,1-3.51-1.16-5.39-1-1.26.78-2.74,1.2-3.84,2.25.52.29.93.91.37,1.29-1.69,1.16-3,2.94-5.36,3l-.27,1.76c2.11-.8,4.08-1.11,6,.08.34.21,1-.11,1.13.51a1.16,1.16,0,0,1-.92,1.18,4.45,4.45,0,0,0-3,2.46c2.69-.69,4.73,1.22,7.19,1,1-.08,1.13.53,1.13,1.33,3-1.93,5,.29,7.15,1.75.07,0-.09.42-.14.64l.52.42c1.36,0,2.8-.21,3.8,1.35-.64,0-1.12.06-1.64.12a.76.76,0,0,0-.73.75.81.81,0,0,0,.49.94c.35.13.82.15,1.06.4a25.5,25.5,0,0,1,1.61,2c-.77.47-1.22,1.47-2.29,1.47a1,1,0,0,0-1,.53c.42.54.81,1.1,1.27,1.61.27.3,1.05.17.87.84s-1.15.37-1.23.48c-1.22,1.65-2.16-.35-3.22-.22.06.89.65,1.71.41,2.65,1.69.52,3.94-.25,4.78,2.33.14.43,1.75.75,2.75.54a.2.2,0,0,0,.11-.17c0-.07-.09-.14-.09-.21-.47-.24-1.32-.47-.65-1.11s1.2,0,1.55.67l.46.48a2.15,2.15,0,0,1,2.8-.94L67,37.47c1.06.07,1.21.68,1.16,1.44s-.77.56-1.27.63c0,.68-.07,1.4.93,1.4l.11-.18-.1.18c-.17,1.35.77,2.27,1.38,3.27h.88c1.23-3.26.79-6.56-.13-9.87.84-.27,1.4,1.46,1.92,0l-.78-3.6c-1.11-.59-.76-1.52-.58-2.42v-.73c-.85-.34-1.13-.83-.42-1.58-.66-1.46-.4-3-.54-4.55a31.78,31.78,0,0,1-.26-4.33,2.87,2.87,0,0,1,1.44-2.61,2.2,2.2,0,0,1,2.71.77c.61.82,1.5,1,2.25,1.5l1.91.39c.15-.25.36-.71.43-.71,3.33.88,7.43-.39,9.74,3.42.07.08.44,0,.67,0A3.35,3.35,0,0,0,85.89,16.46ZM54.38,8.15c-.09,0-.25-.09-.38-.15l.19-.42.37.2C54.5,7.91,54.47,8.12,54.38,8.15ZM65.85,37.5c-.11.78-1,.69-1.47.87s-.7-.19-.7-.63c-.12-1.19.87-.44,1.26-.74S66,36.72,65.85,37.5Z"/><path class="cls-12" d="M46,4.79l-.33.52-.26-.53h-.86l-.49.75c.52,1-.44,1.23-.93,1.73-.73.73-1.85,1.2-1.85,2.47L42,9.59c1.1-1.06,2.58-1.47,3.84-2.25A2.61,2.61,0,0,1,47.76,6l-.42-1.3Z"/><path class="cls-10" d="M77.23,6.82c-.35.09-.85.06-1,.29-.33.43.21.58.48.75A3.6,3.6,0,0,0,79,8.31C79,7.1,78.16,6.92,77.23,6.82Z"/><path class="cls-10" d="M78.1,9.73l-.2-.11Z"/><path class="cls-10" d="M79,8.32l.49.56Z"/><path class="cls-3" d="M91.71,21.75c-.92,0-1.75-.19-2-1.29l-1.23-.58c-.23,0-.61.1-.67,0-2.31-3.81-6.41-2.54-9.74-3.42-.08,0-.28.46-.43.71l.18.21-.21-.18-1.9-.41c0,1.57,1.29,2.06,2.24,2.94,1.5,1.5,4.86-1.43,5.22,2.32.14,0,.32,0,.41-.15.76-.86,1.19-.06,1.7.34.3.23.88.59.95.17.39-2.31,1.46-.47,2.07-.31,1.3.33,2,2,3.69,1.61a1.21,1.21,0,0,1,1.1-.52A1.51,1.51,0,0,0,91.71,21.75Z"/><path class="cls-10" d="M93.1,23.22a1.21,1.21,0,0,0-1.1.52,7.8,7.8,0,0,1,3.68,5.17c.3,1.53,1.09,1.86,2.37,1.86.09-.38.12-.79.53-1A13.22,13.22,0,0,0,93.1,23.22Z"/><path class="cls-6" d="M101.31,32.89c-.83-1.11-1.8-2.11-2.71-3.11-.41.21-.44.62-.53,1a2.21,2.21,0,0,0,.09.4c1.41.64,1.77,2.1,2.41,3.32C102,34.49,101.95,33.74,101.31,32.89Z"/><path class="cls-10" d="M89.73,20.49c.22,1.1,1.05,1.29,2,1.29A1.93,1.93,0,0,0,89.73,20.49Z"/><path class="cls-3" d="M31,19a2.56,2.56,0,0,0,0-.39c-.47.39-.94.77-1.39,1.18-.75.68-1.45.9-1.37-.45.11-1.74-1.73-.07-1.89-1.19A3.12,3.12,0,0,1,25.86,20c.9.79.34,1.85.48,2.77a4.34,4.34,0,0,1-.35,2c-1.52,3.07-.8,4.64,2.67,6h.1c-.09-.44-.11-.82.37-1l.23-.42A62.14,62.14,0,0,0,31.61,20,1,1,0,0,1,31,19Z"/><path class="cls-7" d="M24,35c-.83,1.8-.89,4.31-3.71,4.58h-.1l.07,1.83v.15l3.22-1.3a12.15,12.15,0,0,1,2.86-4.46v-.9C25.5,33.41,24.83,33.2,24,35Z"/><path class="cls-10" d="M27.64,16.13c-.76.43-2,.62-1.29,2,.15,1.13,2-.55,1.89,1.19-.08,1.35.62,1.13,1.37.45.45-.41.93-.79,1.39-1.18l-.46-2.81C29.57,15.87,28.4,15.7,27.64,16.13Z"/><path class="cls-12" d="M29.34,29.32l-.23.42-.37,1h-.1c-.11,1.76-2,2.52-2.3,4.19v.9a30,30,0,0,0,2.14-3c.35-.56.66-.51,1.11-.29A8.45,8.45,0,0,0,31,28.32C30.21,28.25,30,29.22,29.34,29.32Z"/><path class="cls-15" d="M32.42,12.53c-.79,1.07-.1,2.8-1.89,2.8a2.69,2.69,0,0,1,0,.44L31,18.59A2.55,2.55,0,0,1,31,19l.94.13.11-.46c-.17-1.11-.09-2.09,1.3-2.35l.07-.52C32.08,15.18,32.76,13.77,32.42,12.53Z"/><path class="cls-7" d="M23,17.22a2.42,2.42,0,0,0-.4,0,2.7,2.7,0,0,1-1,3.27c2.73.89,2.67.84,3.14-1.52C25.17,17.22,23,18.41,23,17.22Z"/><path class="cls-10" d="M25.86,20c-.69.36-.28,1.14-.67,1.81-.85,1.26.28,1.16,1.15,1C26.2,21.87,26.75,20.81,25.86,20Z"/><path class="cls-7" d="M20.55,23.2c-.86.16-.74.83-.74,1.43.58-.3,1.41.65,1.74-.19C21.83,23.8,21.14,23.42,20.55,23.2Z"/><path class="cls-7" d="M23.13,24.54c-.13-.9.11-1.48-.4-2C22.07,23.25,22.32,23.73,23.13,24.54Z"/><path class="cls-14" d="M20.72,34a1.7,1.7,0,0,0-.41,0v.85l.19.59C21.45,35.08,21.51,34.6,20.72,34Z"/><path class="cls-12" d="M19.32,34.9l1,1,.15-.5-.16-.56C20,34.77,19.6,34.52,19.32,34.9Z"/><path class="cls-12" d="M19.84,38.2a.91.91,0,0,0,.44.91C20.31,38.72,20.29,38.37,19.84,38.2Z"/><path class="cls-8" d="M39.88,89.22a.56.56,0,0,0-.38.39c0,.29.07.62.46.52.15,0,.23-.3.38-.52C40.16,89.45,40,89.21,39.88,89.22Z"/><path class="cls-11" d="M35.6,12.73c-.68,1.06-.9,2.42-2.15,3.06l-.07.52c0,1,0,2-1.3,2.36l-.11.46-.35.87a61.88,61.88,0,0,1-2.3,9.38c.68-.14.88-1.11,1.68-1,1-1.43-.12-3.38,1.28-4.76a18.77,18.77,0,0,1,2.79-7.13A4.12,4.12,0,0,1,37,13.87l.1-1.19,0-1.58C36.08,11.22,36,12.11,35.6,12.73Z"/><path class="cls-8" d="M43.61,5.58a1,1,0,0,1-1,.41c-1.25.34-1.88,1.74-3.25,1.86l-1,1.32c-.25.78-.48,1.58-1.36,1.93l.1,1.58c.82-.08,1.22-.78,1.8-1.2a2.07,2.07,0,0,1,2.37-1.7c0-1.27,1.12-1.74,1.85-2.47.5-.5,1.45-.73.93-1.73Z"/><path class="cls-11" d="M37,11.11c.88-.34,1.1-1.15,1.36-1.93A1.67,1.67,0,0,0,37,11.11Z"/><path class="cls-1" d="M44.1,74.07c-1-2.6-3-4.93-2.25-8l-.17-1.35c-1.22-2-3.83-2.72-4.64-5.09l-.4-.08-.46-.45c-1.6-1.67-3.91-2.56-5.22-4.56l-3.62-3.36-.51-.4-.91-.06c-1.37,0-2.53.06-1.92,2a1,1,0,0,1-.88,1.34A2.39,2.39,0,0,0,23.68,56a4.7,4.7,0,0,1,.41,5.93c1.65.26,2.31,1.45,2.7,2.89a4,4,0,0,0,0,.42.94.94,0,0,1,.49.92c2.32-.33,3.07.61,2.32,2.8h.93a1.06,1.06,0,0,0,1-.44c.06-.48-.2-1.22.58-1.22.59,0,.81.62.81,1.18h.65a.84.84,0,0,1,.73.94q.5.24,0,.46a10.55,10.55,0,0,0,0,4.19l2.47-.29c-.85,1.26-1.49,1.59-2.49.77h-.92c-.51,1.26-1.75,1.41-2.8,1.84H30.1v.43c-.45,1.75-2.39.87-3.27,1.87.21,1.64,0,3.4,2.75,3.16A2,2,0,0,1,31,84.75c.85,1.15,1.64,2.38,2.64.07.33-.75,1.11-.08,1.65-.17,1.81-.28,4.29,1.32,5.29-1.28.64-1.55,1.45-1.51,2.64-1.33l2.71-1a1,1,0,0,1,.44-.92v-.48c.39-1.16-.68-1.82-.94-2.76C44,76.41,43,75.75,44.1,74.07Zm-8.89,6.54c-.59,0-1.12-.2-1.18-.86a.7.7,0,0,1,.86-.81A1.54,1.54,0,0,1,36,80C35.94,80.47,35.58,80.58,35.21,80.61Z"/><path class="cls-5" d="M29.57,81.89c-2.75.25-2.54-1.52-2.75-3.16-1,0-2-.08-3,0-.78.07-2.2-.45-2.2.46a1.9,1.9,0,0,0,2.49,1.63c1.08-.28.77.63.86,1.17l.92,1c2.14-.57,3.33,1.48,5.14,1.84a2,2,0,0,0-1.43-2.9Z"/><path class="cls-12" d="M26.72,84.37c-.8-.23-.87-.78-.87-1.42l-.91-1c-1,.48-.07,2.6-2,2.32,1.22,2.09,3.31,1.75,5.22,1.91A1.89,1.89,0,0,0,26.72,84.37Z"/><path class="cls-11" d="M46.36,79.64v.48c.86.79.19.88-.46,1l-2.71,1c.49,1.08-1.92,1-.92,2.26,2-1,3.46-2.88,5.85-3l.17-.62A1.76,1.76,0,0,0,46.36,79.64Z"/><path class="cls-13" d="M13.74,81.55a1.56,1.56,0,0,1-1.48-.87c-.92-.78-1.75-.26-2.37.34s-.15,1.27.11,1.89a3.2,3.2,0,0,0,1.72,2l-.62-2.94c1.47-.19,2.48,1.51,4,1.06l.17-.2L15.11,82Z"/><path class="cls-4" d="M11.11,81.91l.62,2.94.21,1.08L13.3,86l.4-.44c.34-.93,2.18-1.06,1.41-2.6C13.58,83.42,12.57,81.72,11.11,81.91Z"/><path class="cls-16" d="M13.3,86l-1.36-.06-.76.22a4.49,4.49,0,0,0,4.58,1C15.3,86,13.84,87,13.3,86Z"/><path class="cls-8" d="M25.9,50.74A6.92,6.92,0,0,0,23.34,48c-1.41-1-2.72-2.21-2.5-4.21-1.1.36-1.08,1.46-1.32,2.27v0a1.74,1.74,0,0,1-2,1.44c-.06,1.33,1.5,1.25,1.89,2.25a2.17,2.17,0,0,1,1.44.51c2.59.14,2.38,2,2.27,3.75A1,1,0,0,0,24,52.74C23.37,50.74,24.53,50.74,25.9,50.74Z"/><path class="cls-7" d="M25.63,46.84c-1.56-1.24-1-3.53-.16-5.37l-1-.06-.53.41-.37.61-.45.44c-.55,2.31-.27,4.06,2.13,5.31a3.26,3.26,0,0,1,2,2.6,1.32,1.32,0,0,1,.07.42l3.62,3.36.61-.1C29.51,52,28.3,48.95,25.63,46.84Z"/><path class="cls-8" d="M28.5,32.83c-.65,1.07-1.44,2-2.17,3a12.13,12.13,0,0,0-2.85,4.43l.46,1.55.53-.41a1.41,1.41,0,0,1,1.36-1.45c0-.91.24-1.72,1.37-1.82a3,3,0,0,0,.11-.44c-.18-1.72,1.08-2.68,2-3.82l.3-1.33C29.16,32.31,28.85,32.27,28.5,32.83Z"/><path class="cls-12" d="M25.25,48.18c-2.4-1.25-2.68-3-2.13-5.31l-1,.42-1.36.5c-.22,2,1.09,3.21,2.5,4.21a6.92,6.92,0,0,1,2.62,2.72l.91.06a2,2,0,0,1,.44,0A3.26,3.26,0,0,0,25.25,48.18Z"/><path class="cls-8" d="M18.94,40.58l-.12,1.71c.86.51,1.58.71,1.49-.73v-.15C19.61,41.58,19.43,40.8,18.94,40.58Z"/><path class="cls-8" d="M23.07,42.37h-.19a.84.84,0,0,0-.76.91l1-.41,0,0Z"/><polygon class="cls-12" points="23.13 42.85 23.61 42.37 23.13 42.37 23.13 42.85"/><path class="cls-6" d="M20,28.38h-.68c.37.49.44,1.28,1.28,1.35C21,29,20.74,28.6,20,28.38Z"/><path class="cls-4" d="M17.5,86.22c-.06.79-.67.91-1.32,1L16,88c0,1.46.88,1.63,2,1.33.81-.21,1.58-.55,2.37-.84C20.1,86.89,19.46,85.68,17.5,86.22Z"/><path class="cls-11" d="M16,85.37a4.25,4.25,0,0,1-2.28.2l-.4.43c.53,1,2,0,2.45,1.17h.41c.65,0,1.26-.17,1.32-1C17.41,85.08,16.67,85.19,16,85.37Z"/><path class="cls-12" d="M43.09,5.13,42.61,6a1,1,0,0,0,1-.41,4,4,0,0,1-.06-.45A1.33,1.33,0,0,0,43.09,5.13Z"/><path class="cls-8" d="M28.23,76.31c-.22.43-.54,1-.93.77a7.15,7.15,0,0,1-1.44-1.74c-.36-.48-.09-.66.39-.78s.81.1.2-.65a4.93,4.93,0,0,1-1-5.37h-1c-.64.28.63,2.45-1.37,1.37a1.41,1.41,0,0,0-1,1.4c.15,1,.35,1.91.45,2.91.12,1.16-.42,1.34-1.35.79-1,1.06-.35,3.42-2.73,3.31v.82a1.58,1.58,0,0,1,2.27,1,30.25,30.25,0,0,1,1.37,4.18h.8c1.93.27,1-1.85,2-2.32-.09-.54.22-1.45-.78-1.21a1.9,1.9,0,0,1-2.49-1.63c0-.91,1.41-.39,2.2-.46,1-.07,2,0,3,0,.89-1,2.83-.12,3.27-1.87L30,76.51l.2-.11h.46C29.33,74.62,29.09,74.61,28.23,76.31Zm-5-4a2,2,0,0,1,.08-.38c0-.06.2-.06.2-.06a3,3,0,0,1,.11.35Zm1,5.06a.93.93,0,0,1-.73-1c0-.42.15-.8.62-.8.78,0,.73.65.73,1.17h0C24.92,77.13,24.89,77.56,24.32,77.37Z"/><path class="cls-13" d="M16.1,82.8h-.83L15.1,83c.77,1.54-1.07,1.67-1.41,2.61a4.25,4.25,0,0,0,2.28-.2c.69-.21,1.44-.3,1.51.79,2-.49,2.62.72,2.93,2.34l5.1-.51c-2.11-1-4.42-1.54-6.23-3.1C17.75,84.9,17.35,83.21,16.1,82.8Z"/><path class="cls-3" d="M13.73,50.68a.88.88,0,0,1-.92.45c-.1.47-.44.59-.87.59a1.41,1.41,0,0,1-.38.1L11.4,54c1.09,1.06,2.71,0,3.81,1v-.06h2.25c-.26-1,1.9-1.06,1-2.15C17.28,51.36,15.91,50,13.73,50.68Z"/><path class="cls-6" d="M20.93,51.93c-1.07-.22-.82-1-.07-1.65a2.16,2.16,0,0,0-1.44-.51c-.74,1-1.31.1-2-.09-1.37-.41-2.92-1-3.66,1,2.18-.65,3.55.67,4.73,2.11.87,1.1-1.29,1.15-1,2.15l4.24-.49h.39C22.38,53.31,22.65,52.29,20.93,51.93Z"/><path class="cls-7" d="M11.93,51.71c.42,0,.76-.12.87-.59C12,50.55,11.95,51.11,11.93,51.71Z"/><path class="cls-7" d="M43.61,5.13a4,4,0,0,0,0,.45l.51,0,.49-.75h0A.74.74,0,0,0,43.61,5.13Z"/><polygon class="cls-7" points="45.67 5.26 46 4.79 45.41 4.73 45.67 5.26"/><path class="cls-12" d="M18.94,40.58c.49.22.66,1,1.37.83q0-.92-.07-1.83A1.19,1.19,0,0,0,18.94,40.58Z"/><path class="cls-7" d="M66.42,48.82a15,15,0,0,1-.14-2c0-.67.4-1.45-.23-1.93-.83-.63-1.14.65-2.14.78,1.32-1.83-.18-3.49.18-5.2L63.63,40a1,1,0,0,0-.9.45.74.74,0,0,1,.09.21c0,.06-.11.17-.11.17-1,.2-2.61-.12-2.75-.54-.84-2.59-3.09-1.81-4.78-2.33l-.09.11c.3.48.68,1-.32,1,.53.56,1.35,1.12,0,1.64-.36.14-.82.19-1,.44-.45.49-1.28,1-1,1.69.41.94,1.39.25,1.76-.06,2.45-2,3.7.69,5.45,1.31l0,0a.88.88,0,0,1,.29,1.21c-.46,1-1.46.66-2.25.86-.72.9.59,1.77,0,2.66l.21,0c.36.07,1,0,1.06.23.3.86-.9.68-1.12,1.43-.21.56-1.28-.21-2,.07.19,1,1.27.17,1.55.87a5,5,0,0,0-2.48,1.6.9.9,0,0,1-1.42.17c-.43-.4,0-1.07.25-1.19,1-.42.83-1.46,1.38-1.9-2.71-.93-5.55,2.33-8.11-.6-.68.62-.18,1.51-.85,2.12-1.42,1.3-.34,2.1.86,2.44,2.48.72,4.93,1.67,7.62,1.28.47-.07,2.68-.37.63,1.2a.43.43,0,0,0,0,.42c2.64,3.35.07,1.25-1.17,1.35-1.54.12-3.31,0-4.64,1.19.92,1.87,1.87,3.73,2.73,5.62.17.34.52,1,0,1.23a2.84,2.84,0,0,1-1.59.07c-.71-.07-.52-.67-.3-1.07.48-.85.15-1.32-.68-1.52-1-.24-.9.4-.84,1.06s-.56.58-1,.66c-.72.13-1.51-.23-2.21.26.26,1.11,1.63.3,2,1.21-2.76.86-2.78.87-3.35-1.75-.41-1.76-.77-3.53,0-5.29-.35,0-.71,0-.71-.57a.21.21,0,0,1,.15-.15c.57,0,.5.37.57.71h2c-2.38-1.37-1.56-3.88-3.06-5.27-.34-.35-.29-2-1.34-.35-.35.59-1,0-1.35-.69s-.73-1.63.21-1.94.74-.61.74-1.39c0-1.29-.77-3.19,1.71-3.53,1.1-.15.57-1.63,1.15-2.32C44,43.82,44.35,42,42.49,43c-.18.06-.28-.64-.28-1l-.52-.58c-.68,1-1.07,2.17-2.8,2-1.12-.11,0,1.18-.41,1.72l.47,5.58.2.19H39a.67.67,0,0,1-.07-.16H38c-1.11,2.82,2.07,3.73,2.62,5.82.13.49,1.71.47.78,1.32l0,0A1.69,1.69,0,0,1,39,58.1c-.87-.84-2-1.52-3.28-.84a3.45,3.45,0,0,1,.46,1.87l.46.45.4.08c1.33-.59,2.23.13,3,1s1.54,1.71,2.34,2.54c1.07,1.1.38,1.38-.68,1.52L41.84,66c.63.17,1.72-.42,1.12,1.26s2.79,5.09,3.68,4.09c1.91-2.07,4.33-.44,6.33-1.32.42-.19.83,0,.67.53-.67,2.19.84,1.11,1.62,1.11.51,0,1.26-.3,1.45.29a1.07,1.07,0,0,1-.7,1.46c-1.73.29.89,1.4-.36,1.73.76.32,1.35.32,1.51-.68a1.55,1.55,0,0,1,1.36-1.14c2.33.06,2.31-1.68,2.4-3.14.05-.78-.42-1.59.75-.59.76.59.82-.13.82-.41,0-.7-.15-1.39.65-1.78.22-.92-.32-2,.48-2.78-.14-3.1,2.57-5.08,3.09-7.92l-.73-.2c-1.94,1.73-2.82,4.15-4.12,6.3,0,1.15.12,2.4-1.41,2.79a3.87,3.87,0,0,1-3.4.67c1.89-.87,1.23-2,.74-3a3.54,3.54,0,0,1-.62-1.9L57,61.3l.2.11h2.28c-.66-.46-1.47-.75-.66-1.86s.27-3.31,2.61-3.17c-.28-.8-1.75-1.67-1.15-2,1.23-.68,1.23-3.13,3.44-2.35,1.16.38,1.92-1.26,3.16-1l.43-.41a1,1,0,0,0,0-.37.76.76,0,0,1-.09-.34C67,49.48,65,50.39,66.42,48.82Z"/><path class="cls-6" d="M62.45,69.29c0,.29-.06,1-.82.41-1.17-1-.75-.19-.75.59-.09,1.46-.08,3.2-2.4,3.14a1.55,1.55,0,0,0-1.36,1.14c1.13-.13,2.1,1.15,3.33.42h1.38c1.9-2.24,1.27-4.92,1.27-7.48C62.3,67.89,62.45,68.58,62.45,69.29Z"/><path class="cls-13" d="M72.54,83.7a1.15,1.15,0,0,0-.37,1.58,1.85,1.85,0,0,0,1.15,1c.54,0,.85-.57,1-1.1.27-.93.51-1.85.77-2.78a11,11,0,0,1-2.5,1.32Z"/><path class="cls-6" d="M62.31,78.79c1.53-1,.47-1.92-.08-2.85C60.71,76.93,61.73,77.85,62.31,78.79Z"/><path class="cls-15" d="M74.18,88.6c-.84.14-1,.87-1.07,1.54a.51.51,0,0,0,.55.59c.94-.06.63-1,1-1.51C74.66,88.83,74.47,88.55,74.18,88.6Z"/><path class="cls-13" d="M73.17,80.82c-.94.17-1.14,1-1.64,2.06,1.22-.32,2.09-.41,2.18-1.46C73.73,81.23,73.32,80.82,73.17,80.82Z"/><path class="cls-13" d="M70.43,86.75c-.71.07-.67.5-.4,1s-.73,1.31.27,1.48c.59.1.78-.69.77-1.19S71.22,86.9,70.43,86.75Z"/><path class="cls-15" d="M68,82.78c-.36.13-.28.75,0,1.22a2.67,2.67,0,0,0,.38-.51C68.56,83.1,68.78,82.51,68,82.78Z"/><path class="cls-13" d="M63.37,82.64l.09-.26H63.3A1,1,0,0,0,63.37,82.64Z"/><polygon class="cls-15" points="71.09 69.87 71.11 69.85 70.91 69.67 71.09 69.87"/><path class="cls-8" d="M84.59,95.59a2.38,2.38,0,0,0-2,.77C83.36,96.34,84.33,96.84,84.59,95.59Z"/><path class="cls-8" d="M89.29,93.64c.62.69.81.25.94-.36C89.84,93.21,89.49,93.24,89.29,93.64Z"/><path class="cls-8" d="M86.5,94.93a1.32,1.32,0,0,0-1.14.49C85.85,95.49,86.28,95.45,86.5,94.93Z"/><path class="cls-6" d="M95.91,88.61a1.6,1.6,0,0,0,1.36-1C96.09,87,95.67,87.33,95.91,88.61Z"/><path class="cls-1" d="M100,84.76l-.51.86c.23.28.5.62.82.2S100.37,85,100,84.76Z"/><polygon class="cls-3" points="64.91 88.19 65.01 88.01 65 88 64.91 88.19"/><path class="cls-3" d="M70.07,44.26h-.88c-.47,1.55-.22,3.31-1.4,4.64L67.18,50a.74.74,0,0,0,.09.34l.29.22-.33.15-.43.41s0,.1,0,.15a3.39,3.39,0,0,1-3.15,3.61c-1.31.13-1.31,1.44-2.31,1.52a11.3,11.3,0,0,1-.71,4.34c-.55,1.24.76,1.47,1.17,2.18,1.3-2.15,2.17-4.57,4.12-6.3.07-2.37,2.86-3.42,2.85-5.77.19-.83-.68-2.16,1-2.35l.38-.89C68.93,46.53,70.46,45.37,70.07,44.26Z"/><path class="cls-4" d="M71.67,19.15c-1.75-.52-1.29,1.2-1.75,2a1.48,1.48,0,0,1-.34.3c.13,1.55-.13,3.09.54,4.55.6.41.52,1,.4,1.63v.73c.9.64.46,1.6.58,2.42l.78,3.6a2.66,2.66,0,0,0,.41.1s.15-.12.15-.12c-.33-4.24,1-8.34,1-12.54A2.51,2.51,0,0,0,71.67,19.15Z"/><path class="cls-4" d="M75.39,37.88c-.29.61-.23,1.37-1,1.68A12.33,12.33,0,0,1,73,44.22c.21,1.29-.38,2.46-.53,3.7,1.45-1.11,3.09-2.08,3.28-4.18s.87-4.1,1.19-6.1c.21-1.69,1.34-3.38.21-5.14C75.81,34,76.18,36.16,75.39,37.88Z"/><path class="cls-10" d="M72.35,43.68c-1.16,1-1.16,2.74-2.16,3.87l-.38.89a5.65,5.65,0,0,1-1,2.35c0,2.41-2.76,3.46-2.84,5.83l.73.2c1.27-.51,1.84-1.67,2.65-2.67,1.51-1.88,1.59-4.4,3.12-6.22.15-1.24.74-2.41.53-3.7Z"/><path class="cls-3" d="M76.13,27.63c-.76,1.5-.41,3-.7,4.37a63.09,63.09,0,0,1-2.34,7.68l1.28-.11c.78-.31.72-1.07,1-1.68.81-1.73.43-3.84,1.75-5.39C77.06,30.85,77.57,29.07,76.13,27.63Z"/><path class="cls-6" d="M72.39,43.68l.61.55a12.32,12.32,0,0,0,1.38-4.66l-1.28.11Z"/><path class="cls-3" d="M74.34,53.79c-.44,0-.44.39-.44.69.3,0,.64,0,.7-.43C74.61,54,74.42,53.79,74.34,53.79Z"/><path class="cls-3" d="M71.1,79.19l-.11.19Z"/><polygon class="cls-3" points="69.74 76.89 69.91 76.66 69.68 76.83 69.74 76.89"/><polygon class="cls-3" points="93.47 88.52 93.66 88.62 93.48 88.51 93.47 88.52"/><path class="cls-12" d="M21.59,65.32c-.62.3-1.24.82-1.89.06a5.56,5.56,0,0,1-2.93,3c-.19.06-.27.69-.27,1.06-.14,1,1.16,2.41-.77,3l.82.76c2.55.51,3,.06,2.28-2.49-.52-1.74-.34-1.9,1.48-1.58.9.16.86,0,.68-.84s.73-1.07,1-1.66c.18-.32.72-.58,1-.32.52.48-.24,1.14.07,1.72s.88.46,1.38.52h1c.66-.07,1.33-.11,1.24-.9V65.32a4,4,0,0,1,0-.42l-2.8-.51C23.17,64.84,22.59,65.5,21.59,65.32Z"/><path class="cls-9" d="M23.08,66.25a.71.71,0,0,0-1,.32c-.29.6-1.23.67-1,1.66s.22,1-.68.84c-1.83-.32-2-.16-1.48,1.58.72,2.55.27,3-2.28,2.49l0,.92c.22,1.17,2,1.32,1.79,2.76l.09,1.44c2.38.11,1.73-2.24,2.73-3.31-.28-1.37-.75-2.79.9-3.7a1.41,1.41,0,0,1,1-1.4c-.24-.62-.87-1.25,0-1.88C23,67.39,23.6,66.73,23.08,66.25Z"/><path class="cls-8" d="M23.08,54.06l-1,.42h-.39c-1.48.88-1,2.68-1.84,4-.51.81,1.24.5,1.54,1.22.17.42.27.87.41,1.31l1.77,1A2.15,2.15,0,0,1,24,62l.06-.09A4.7,4.7,0,0,0,23.68,56,2.39,2.39,0,0,1,23.08,54.06Z"/><path class="cls-7" d="M20.79,61.11c-1.21,1.19-.9,2.74-1,4.19.66.76,1.27.24,1.89-.06-.92-2,1.25-2.15,1.87-3.24l-1.77-1C21.45,61,21.16,60.69,20.79,61.11Z"/><path class="cls-12" d="M16.64,74.08c-.64,0-1.12.29-.68,1,.57.9,1.18,1.84,2.47,1.77C18.64,75.4,16.85,75.25,16.64,74.08Z"/><path class="cls-6" d="M17.48,56V55H15.21C15.45,56.48,16.69,55.64,17.48,56Z"/><path class="cls-11" d="M18.44,82.44,18,82Z"/><path class="cls-12" d="M15.11,82l.16.8h.83a.79.79,0,0,0-1-.8Z"/><path class="cls-7" d="M49.93,71.91c-1.73-.77-2.38.63-3.55,1a6.57,6.57,0,0,1,2.88.86l.21.11a1.28,1.28,0,0,0,1.67-.69C51.33,72.58,50.77,72.27,49.93,71.91Z"/><path class="cls-9" d="M45.44,76.88a8.89,8.89,0,0,0-1.36-2.81C43,75.75,44,76.41,45.44,76.88Z"/><path class="cls-3" d="M47.08,20.91c-2.46.24-4.5-1.67-7.19-1a4.45,4.45,0,0,1,3-2.46,1.16,1.16,0,0,0,.92-1.18c-.13-.62-.79-.3-1.13-.51-1.94-1.19-3.91-.88-6-.08L37,13.9a4.12,4.12,0,0,0-1.89,2.62,5.63,5.63,0,0,1-.86,4.17c-.41.6,0,1.77.09,2.83,1.09-.23,1.56-1.57,2.7-1.23l.18-.6.17.12-.34.5c.76,1.64,2.55,1.57,4,2.3L39.41,26.5a1.49,1.49,0,0,0,.07,2c1.31,1.61.67,2.81-.9,4-1,.8-3,.85-2.92,2.85.29.15.34.3,0,.46.23,1.77.64,3.39,2.75,3.77l.12-.91L38,38.19c-1.11-2.7.72-3.7,2.72-4.7,0-2.82,2.65-3,4.23-4.22-.67-1.09.38-2.18,0-3.27-1.5-1-2,1.21-3.23,1a1.79,1.79,0,0,1-.93,1.27c-.41-.93.13-1.21.77-1.44.23-2.67,2.16-3.26,4.34-3.54l.86-.56.52-.34.88-.09v-.08C48.26,21.43,48.08,20.83,47.08,20.91Z"/><path class="cls-6" d="M57.67,28.24a.81.81,0,0,1-.49-.94.76.76,0,0,1,.73-.75,13.72,13.72,0,0,1,1.64-.12c-1-1.56-2.44-1.35-3.8-1.35-.52.6-.18,2.17-1.8,1.54-.75-.27-2,0-1.83-1.27s1.2-1.12,2.2-.77a3.57,3.57,0,0,0,.92.08c0-.22.21-.64.14-.64-2.15-1.46-4.15-3.68-7.15-1.75v.08c0,1,1,.75,1.49,1.12-.87,1.64-2.37,1.25-3.68,1.07-.6-.08-.08-.78-.08-1.19-2.18.28-4.11.87-4.34,3.54l.16.17C43,27.21,43.47,25,45,26c1.48-.37,3,.1,4.39-.71.44-.25.9.17,1.2.51,1.68,1.91,4.47,2.82,4.92,5.82,0,.34.42.64.64,1l.9.07a1,1,0,0,1,1-.53c1.06,0,1.51-1,2.29-1.47a25.48,25.48,0,0,0-1.61-2C58.5,28.39,58,28.37,57.67,28.24Z"/><path class="cls-3" d="M54.32,33.44h-1c-.5,1.57-1.92,2.46-2.74,3.79q0,.08,0,.16a1.92,1.92,0,0,1-2,1.84c-1.93.12-3.85,1.18-5.85,0-.61-.38-.93.15-1,.77v1h.51a7.74,7.74,0,0,1,3.21.4c.1-.6.21-1.17.94-.45h1.89a1.38,1.38,0,0,1,1.33-.5c1.13-1.28,3.32-.16,4.25-1.88.25-.48.8-.42,1.25-.48L55.2,38c.24-.94-.35-1.75-.41-2.65C54.1,34.85,54.38,34.13,54.32,33.44Z"/><path class="cls-6" d="M67.85,41c-1,0-.93-.73-.93-1.4a2.15,2.15,0,0,0-2.8.94c-.36,1.71,1.14,3.38-.18,5.2,1-.14,1.31-1.41,2.14-.78.63.48.23,1.25.23,1.93a15,15,0,0,0,.14,2h1.38c1.18-1.33.93-3.09,1.4-4.64C68.62,43.21,67.67,42.32,67.85,41Z"/><path class="cls-15" d="M58.37,34.26c-.45-.5-.85-1.07-1.27-1.61l-.9-.07c-.52.49-1,1.13-1.85.9,0,.65-.24,1.37.44,1.87,1.06-.12,2,1.87,3.22.23.08-.11,1.1.17,1.23-.48S58.64,34.56,58.37,34.26Z"/><path class="cls-3" d="M42,9.59l-.73.16a2.83,2.83,0,0,1-2.37,1.7c-.58.44-1,1.15-1.8,1.23L37,13.88c2.31-.06,3.67-1.84,5.36-3C42.92,10.5,42.52,9.92,42,9.59Z"/><path class="cls-7" d="M54.33,24.58c-1-.35-2-.41-2.2.77s1.09,1,1.83,1.27c1.62.62,1.28-.94,1.8-1.54l-.51-.42A3.57,3.57,0,0,1,54.33,24.58Z"/><path class="cls-6" d="M64.95,37c-.39.35-1.39-.4-1.26.74,0,.44.17.84.7.63s1.38-.2,1.47-.87S65.47,36.79,64.95,37Z"/><path class="cls-6" d="M67,37.5l-.09,2.06h0c.5-.08,1.23,0,1.27-.63S68.06,37.57,67,37.5Z"/><path class="cls-6" d="M62.09,39.34c-.53.5.18.87.65,1.11a1,1,0,0,1,.9-.45C63.29,39.39,62.62,38.84,62.09,39.34Z"/><path class="cls-15" d="M70.54,28.31c-.19.9-.54,1.84.58,2.42C71,29.9,71.44,28.94,70.54,28.31Z"/><path class="cls-15" d="M70.12,26c-.71.76-.43,1.25.42,1.58C70.64,27,70.72,26.4,70.12,26Z"/><path class="cls-6" d="M54,8c.15,0,.31.16.4.12s.12-.24.18-.37l-.39-.17Z"/><polygon class="cls-6" points="67.85 41 67.95 40.82 67.84 41 67.85 41"/><polygon class="cls-10" points="77.62 17.21 77.83 17.39 77.65 17.18 77.62 17.21"/><path class="cls-10" d="M31.65,20l.35-.87L31,19C31.07,19.46,31.17,19.85,31.65,20Z"/><path class="cls-11" d="M28.77,30.76l.37-1C28.66,29.95,28.68,30.32,28.77,30.76Z"/><path class="cls-6" d="M39.44,26.51c-1.36.39-2.67-.41-4.21,0-.66.19-1.95-1.88-2.95-2.88-1.44,1.31-.28,3.3-1.28,4.74a8.45,8.45,0,0,1-1.32,4.19l-.3,1.33c.36,1.32-.5,2.32-1.13,3.32v1.87l2.27-1v-1.6c-.1-2,.78-2.82,2.78-2.49a5.76,5.76,0,0,0-.57-3.58c-.74-1.25.45-2.33.08-4.11,1.65,1.77,2.19,3.51,3.19,5,.2.25.42.69,0,.69-1.18.1-1,.67-.93,1.56.11,1.26-1.06.71-1.71.87,0,2.35,1.51.74,2.33.93-.08-2,1.87-2,2.92-2.85,1.58-1.23,2.21-2.43.9-4C38.83,27.74,39.09,27.2,39.44,26.51Zm-3.31,1.76L36,28.13c.06,0,.13-.1.19-.09s.12.13.17.13Z"/><path class="cls-10" d="M32.08,18.66c1.3-.35,1.3-1.35,1.3-2.35C32,16.57,31.92,17.55,32.08,18.66Z"/><path class="cls-10" d="M37.07,22.29c-1.15-.34-1.61,1-2.7,1.23-.09-1.07-.5-2.23-.09-2.83a5.63,5.63,0,0,0,.83-4.19,18.75,18.75,0,0,0-2.79,7.13c1,1,2.3,3.07,3,2.88,1.5-.41,2.82.39,4.17,0l1.63-1.92C39.61,23.85,37.82,23.92,37.07,22.29Z"/><path class="cls-12" d="M38.89,11.45a2.83,2.83,0,0,0,2.37-1.7A2.07,2.07,0,0,0,38.89,11.45Z"/><path class="cls-5" d="M31.83,72.69c-1.63-.75-1.59-2.24-1.32-3.75h-.92c-.34,1.7-1.26,1.55-2.47.8.68-.94,1.61-.8,2.47-.8.74-2.19,0-3.13-2.32-2.8h-.44v.92l.52.25-.6.23c0,.9-.73.94-1.39,1a4.93,4.93,0,0,0,1,5.37c.61.75.19.55-.2.65s-.75.3-.39.78a7.15,7.15,0,0,0,1.44,1.74c.39.23.71-.34.93-.77.86-1.7,1.11-1.68,2.39.09,1-.43,2.3-.58,2.8-1.84C31.49,75,32.75,73.1,31.83,72.69Z"/><path class="cls-9" d="M33.39,68.49H31.54a1.06,1.06,0,0,1-1,.44c-.27,1.5-.31,3,1.32,3.75.93.41-.34,2.36,1.5,1.87h1v-.48a10.56,10.56,0,0,1,0-4.19v-.46h-.17A.85.85,0,0,1,33.39,68.49Z"/><path class="cls-12" d="M40,60.66c-.83-.84-1.69-1.58-3-1,.83,2.34,3.44,3.1,4.66,5.06,1.06-.13,1.75-.41.68-1.52C41.54,62.37,40.83,61.5,40,60.66Z"/><path class="cls-12" d="M34.2,55.45a3.4,3.4,0,0,1-2.68-1l-.58.12c1.31,2,3.62,2.88,5.22,4.56a3.45,3.45,0,0,0-.46-1.87C35.19,56.67,34.26,56.43,34.2,55.45Z"/><path class="cls-8" d="M24.08,61.9,24,62v2.3l2.76.51C26.38,63.35,25.71,62.16,24.08,61.9Z"/><path class="cls-8" d="M34.88,78.94a.7.7,0,0,0-.86.81c.07.66.6.86,1.18.86.41,0,.8-.09.8-.61A1.54,1.54,0,0,0,34.88,78.94Z"/><path class="cls-5" d="M34.28,74.53c1,.83,1.64.47,2.47-.77L34.28,74Z"/><path class="cls-5" d="M32.07,67.23c-.79,0-.52.74-.58,1.22h1.39C32.84,67.89,32.67,67.27,32.07,67.23Z"/><path class="cls-9" d="M45.92,81c.63-.08,1.3-.13.44-.92A1,1,0,0,0,45.92,81Z"/><path class="cls-5" d="M33.35,68.47a.85.85,0,0,0,.92.94.84.84,0,0,0-.92-.94Z"/><path class="cls-8" d="M26.86,65.19v.94h.44A.94.94,0,0,0,26.86,65.19Z"/><path class="cls-5" d="M30.08,76.85l0-.43-.2.11Z"/><path class="cls-5" d="M34.27,69.4v.46Q34.77,69.64,34.27,69.4Z"/><path class="cls-12" d="M36.16,59.13l.46.45Z"/><path class="cls-8" d="M26.81,50.8l.51.42a1.32,1.32,0,0,1-.07-.42A2,2,0,0,0,26.81,50.8Z"/><path class="cls-12" d="M20.82,50.25c-.76.6-.93,1.43.07,1.65,1.72.36,1.44,1.38,1.19,2.52l1-.42C23.19,52.24,23.41,50.4,20.82,50.25Z"/><path class="cls-10" d="M38.32,39.64c-2.12-.39-2.52-2-2.75-3.77v-.46c-.82-.19-2.33,1.42-2.33-.93l0-.43c-2-.33-2.88.49-2.78,2.49a12.2,12.2,0,0,1,0,1.6l1.44.55c.1-.45.31-1.13.82-.65.94.88,1.53,2.18,2.53,2.94,1.68,1.29-.27,2.21,0,3.29,1.25.31,1,1.56,1.49,2.31.21.3-.09.72-.34.65-.77-.21-1.94.29-2.13-1.08h-.94c-.79.14-2.07-.35-1.52,1.39.28.88-.62.92-1.17,1s-1.26.67-1.49-.33c-.31-1.42-1.59-1.73-2.59-2.42-.08-.91.93-.22,1.1-.83-1.36-.32-2.38-.74-.52-2.15,1.08-.83.77-2.38,1.08-3.61v-.52h-.52a.93.93,0,0,1-.49.88l-.44.44c.12.64-.19,1-.82,1l-.46.48c-.89,1.84-1.39,4.14.16,5.37C28.27,49,29.52,52,31.52,54.47a3.4,3.4,0,0,0,2.68,1c2.2-.63,1.17-1.18-.93-1.8,2.62-.16,3-2.33,4.62-2.86.17-.33.33-.32.49,0h.44l-.47-5.58c-2.63-1.91-2.64-2.3.14-3.67a1.39,1.39,0,0,0,.83-1.46A1,1,0,0,1,38.32,39.64Z"/><path class="cls-9" d="M24.44,41.41l1,.06L25.9,41l-.07-1A1.41,1.41,0,0,0,24.44,41.41Z"/><path class="cls-12" d="M27.31,37.72l.88-.5c.63-1,1.49-2,1.13-3.32C28.4,35,27.14,36,27.31,37.72Z"/><path class="cls-9" d="M25.92,40l.84-.06.44-.44a.93.93,0,0,0,.49-.88l-.4-.44C26.16,38.28,26,39.1,25.92,40Z"/><path class="cls-7" d="M27.2,38.16l.49.47.5,0V37.22l-.88.5A3.11,3.11,0,0,1,27.2,38.16Z"/><path class="cls-12" d="M22.15,71.3c-1.65.9-1.17,2.32-.9,3.7.92.52,1.47.34,1.35-.79S22.3,72.3,22.15,71.3Z"/><path class="cls-5" d="M24.21,75.59c-.46,0-.62.39-.62.8a.93.93,0,0,0,.73,1c.57.17.62-.26.62-.65S25,75.58,24.21,75.59Z"/><path class="cls-5" d="M23.1,68c-.87.62-.24,1.25,0,1.88,2,1.07.73-1.1,1.38-1.36C24,68.44,23.41,68.57,23.1,68Z"/><path class="cls-5" d="M23.37,71.93a2,2,0,0,0-.08.38l.38-.09a2.8,2.8,0,0,0-.1-.35A1.17,1.17,0,0,0,23.37,71.93Z"/><path class="cls-12" d="M58.07,48.93a.76.76,0,0,1-.94.35A.24.24,0,0,1,57,49.1l1-.24c.63-.9-.68-1.77,0-2.66l-3.12-.08a1.77,1.77,0,0,1-2,.78,4,4,0,0,1,.08-.79c-1.09-.16-2.28.45-3.28-.47-1.17-.39-1.84.68-2.78.94.55.53.61.84-.24,1.19-.5.19-.73.66-1.28,0l-.15-.16a1.74,1.74,0,0,1,.27-2.45l.49.05c-.31-.63-.92-.55-1.46-.63-.59.69-.06,2.17-1.15,2.32-2.47.34-1.71,2.23-1.71,3.53,0,.78.3,1.06-.74,1.39s-.49,1.39-.21,1.94,1,1.28,1.35.69c1-1.65,1,0,1.34.35,1.5,1.39.69,3.9,3.06,5.27H44.39c-.74,1.76-.38,3.53,0,5.29C45,68,45,68,47.74,67.12c-.32-.91-1.7-.1-2-1.21.7-.5,1.49-.14,2.21-.26.48-.07,1.16.08,1-.66s-.16-1.3.84-1.06c.83.2,1.16.67.68,1.52-.22.39-.41.95.3,1.07a2.84,2.84,0,0,0,1.59-.07c.51-.23.16-.89,0-1.23-.87-1.9-1.81-3.75-2.73-5.61h0L49,59.44c.33-.41.42,0,.58.16h0c1.33-1.19,3.1-1.07,4.64-1.19,1.24-.1,3.81,2,1.17-1.35a.43.43,0,0,1,0-.42c2-1.57-.16-1.27-.63-1.2-2.69.39-5.14-.57-7.62-1.28-1.2-.35-2.28-1.14-.86-2.44.67-.61.17-1.5.85-2.12,2.55,2.93,5.4-.33,8.11.6-.55.45-.38,1.49-1.38,1.9-.25.12-.68.78-.25,1.19a.9.9,0,0,0,1.42-.17,5,5,0,0,1,2.48-1.6c-.28-.7-1.36.13-1.55-.87.76-.28,1.83.49,2-.07.23-.75,1.42-.57,1.12-1.43C59.07,49,58.44,49,58.07,48.93ZM45.68,62.35c-.12,0-.23-.12-.34-.19A1,1,0,0,1,45.7,62c.12,0,.23.12.36.19C45.92,62.25,45.8,62.35,45.68,62.35Zm3.43-12.72c-.09,0-.14-.2-.21-.31l.3-.24.27.43C49.35,49.56,49.2,49.66,49.11,49.63Z"/><circle class="cls-12" cx="49.62" cy="59.6" r="0.01" transform="translate(-27.67 66.01) rotate(-54.96)"/><path class="cls-6" d="M60,44.12c-1.75-.62-3-3.31-5.45-1.31-.37.31-1.34,1.06-1.76.06-.28-.64.55-1.2,1-1.69.23-.25.69-.3,1-.44,1.32-.53.5-1.09,0-1.64l-.93-.5c-.93,1.73-3.12.6-4.25,1.88-.09,1.1-.54,1.26-1.33.5H46.42a.89.89,0,0,1-.94.45,7.73,7.73,0,0,0-3.21-.4l-.07,1c0,.4.1,1.09.28,1,1.86-1,1.54.84,2.06,1.56.55.07,1.15,0,1.46.63v.24l.9,1.15c.95-.26,1.62-1.33,2.78-.94,0-.77,2.58.07,1.2-1.77-.17-.22.24-.59.56-.46,1.78.69,3.56.22,6-.31-1.3,1.24-2.33,1.84-2.6,3l3.19.08c.78-.2,1.78.14,2.25-.86l0,0A.88.88,0,0,0,60,44.12Z"/><path class="cls-6" d="M40.6,56.56c-.55-2.1-3.73-3-2.62-5.82-1.62.52-2,2.7-4.62,2.86,2,.69,3,1.24.84,1.87.06,1,1,1.2,1.5,1.8,1.34-.67,2.41,0,3.28.84l0,0a1.69,1.69,0,0,0,2.38-.25C42.31,57,40.73,57,40.6,56.56Z"/><path class="cls-10" d="M60.64,60.74a11.3,11.3,0,0,0,.71-4.34c-2.35-.14-1.84,2.13-2.61,3.18s0,1.4.66,1.86c-.22,1.55-.91,3.22,1,4.27,1.54-.4,1.41-1.65,1.41-2.79C61.4,62.2,60.09,62,60.64,60.74Z"/><path class="cls-10" d="M63.67,52c-2.2-.78-2.21,1.67-3.44,2.35-.6.36.87,1.23,1.15,2,1-.07,1-1.39,2.31-1.52h.15a3.39,3.39,0,0,0,3-3.75C65.58,50.83,64.86,52.47,63.67,52Z"/><path class="cls-6" d="M39.42,40a1.39,1.39,0,0,1-.83,1.5c-2.78,1.37-2.77,1.77-.14,3.67.41-.54-.71-1.83.4-1.67,1.73.14,2.12-1,2.8-2l.07-.5V40a2.92,2.92,0,0,1-1.88-.56Zm.78,1.36v.18s-.12.06-.19,0-.07-.1-.07-.16Z"/><path class="cls-6" d="M59.4,61.43l-2.28,0a3.54,3.54,0,0,0,.62,1.9c.49,1,1.15,2.14-.74,3a3.87,3.87,0,0,0,3.4-.67C58.49,64.65,59.18,63,59.4,61.43Z"/><path class="cls-10" d="M67.21,50l.61-1.11H66.44C65,50.46,67,49.55,67.21,50Z"/><path class="cls-10" d="M53.85,38.59l.93.5c1,0,.62-.52.32-1C54.65,38.17,54.14,38.09,53.85,38.59Z"/><path class="cls-12" d="M44,59.36a.21.21,0,0,0-.15.15c0,.52.36.52.71.57h0C44.48,59.73,44.49,59.36,44,59.36Z"/><polygon class="cls-10" points="41.66 41.48 42.17 41.98 42.24 40.98 41.73 40.98 41.66 41.48"/><path class="cls-6" d="M57.12,61.48l-.2-.11Z"/><path class="cls-6" d="M38.93,50.78a.67.67,0,0,0,.07.16h.12l-.2-.19Z"/><path class="cls-10" d="M67.26,50.68l.33-.15-.29-.22A1,1,0,0,1,67.26,50.68Z"/><path class="cls-6" d="M38,50.72h.49C38.33,50.41,38.17,50.4,38,50.72Z"/><path class="cls-15" d="M68.82,50.79a7,7,0,0,0,1-2.35C68.13,48.63,69,50,68.82,50.79Z"/><path class="cls-11" d="M21.71,65.23c1,.17,1.59-.48,2.29-.93V62a2.17,2.17,0,0,0-.42,0C23,63.07,20.79,63.23,21.71,65.23Z"/><polygon class="cls-8" points="26.83 67.53 27.43 67.3 26.83 67.06 26.83 67.53"/><path class="cls-4" d="M53,32.59l-.5-1.4c-1.15.28-1.8-.9-2.8-1a8.26,8.26,0,0,0-4.63-.9c-1.58,1.22-4.23,1.4-4.23,4.22a2.38,2.38,0,0,1,.4,1.95l-.38.42c.08,1-1,1.4-1,2.29h.06a14.34,14.34,0,0,1,6.55,0c1.46.37,2.84-.37,4.2-.89.83-1.33,2.25-2.22,2.74-3.79A.89.89,0,0,1,53,32.59Zm-9.84,3.3c-1.06-1-.06-2.66,1.06-4,0,0,0,0,0,0h0c-.17,3.36,2.08,4.28,4.64,5A5.36,5.36,0,0,1,43.12,35.89Z"/><path class="cls-4" d="M44.18,31.83s0,0,0,0h0Z"/><path class="cls-10" d="M50.66,25.77c-.3-.34-.76-.76-1.2-.51-1.4.79-3,.33-4.4.69.39,1.09-.66,2.18,0,3.27a8.26,8.26,0,0,1,4.63.9c.15-.72-1.1-1.6.15-2.15.58-.26,1.76-.35,1.87.19.21,1,2.18,1.63.79,3l.5,1.4c.61,0,1.32,0,1.37.88.85.24,1.33-.4,1.85-.9-.22-.32-.59-.61-.64-1C55.13,28.63,52.34,27.67,50.66,25.77Z"/><path class="cls-14" d="M38,38.2c1.46-.14,1.07-2.47,2.76-2.34l.38-.42a2.39,2.39,0,0,0-.4-2C38.82,34.44,37,35.46,38,38.2Z"/><path class="cls-7" d="M48.25,22.35l-.89.1-.52.34-.86.56c0,.41-.52,1.11.08,1.19,1.32.18,2.81.57,3.68-1.07C49.25,23.09,48.25,23.35,48.25,22.35Z"/><path class="cls-13" d="M38.07,38.19l.48.49,1.28-.54c0-.9,1.08-1.35,1-2.29C39.14,35.72,39.53,38,38.07,38.19Z"/><path class="cls-4" d="M38.55,38.67l-.08.87a1,1,0,0,0,1,.46l.42-.56V38.13h-.06Z"/><path class="cls-6" d="M40.88,28.32A1.79,1.79,0,0,0,41.81,27l-.16-.17C41,27.11,40.46,27.39,40.88,28.32Z"/><polygon class="cls-10" points="37.07 22.31 37.08 22.33 37.42 21.83 37.25 21.71 37.07 22.31"/><path class="cls-6" d="M47.37,22.44l-.52.34Z"/><path class="cls-6" d="M35.69,35.36v.46C36,35.66,36,35.51,35.69,35.36Z"/><path class="cls-14" d="M46.39,38.17a14.34,14.34,0,0,0-6.55,0v1.31a2.92,2.92,0,0,0,1.9.57c0-.62.37-1.15,1-.77,2,1.15,3.92.09,5.85,0h.16a1.92,1.92,0,0,0,1.84-2C49.23,37.8,47.86,38.54,46.39,38.17Z"/><path class="cls-10" d="M48.27,41c.79.76,1.23.6,1.33-.5C49.1,40.5,48.57,40.43,48.27,41Z"/><path class="cls-15" d="M53,32.56a.89.89,0,0,0,.38.93h1C54.36,32.56,53.65,32.56,53,32.56Z"/><path class="cls-10" d="M45.45,41.45a.89.89,0,0,0,.94-.45C45.66,40.25,45.56,40.83,45.45,41.45Z"/><path class="cls-3" d="M33.48,42.83c-2.55-.65-2.06-2.42-1.55-4.2l-1.44-.55-2.26,1c-.31,1.23,0,2.78-1.08,3.61-1.86,1.41-.84,1.83.52,2.15-.17.61-1.18-.08-1.1.83,1,.69,2.27,1,2.59,2.42.24,1,.88.41,1.49.33s1.45-.11,1.17-1c-.56-1.74.72-1.25,1.52-1.39.17-.87-.9-1.92.44-2.66C34.14,43.2,33.84,42.92,33.48,42.83Z"/><path class="cls-7" d="M32.84,26.3c.36,1.78-.82,2.86-.08,4.11A5.76,5.76,0,0,1,33.31,34l0,.43c.64-.16,1.82.39,1.75-.9-.08-.89-.25-1.46.92-1.54.39,0,.16-.44,0-.69C35.06,29.85,34.49,28.1,32.84,26.3Z"/><path class="cls-10" d="M36,28.13l.13.14.23-.1c-.06,0-.11-.12-.17-.13S36.06,28.13,36,28.13Z"/><path class="cls-1" d="M27.15,69.73c1.21.75,2.13.9,2.47-.8C28.76,69,27.83,68.79,27.15,69.73Z"/><path class="cls-15" d="M35.28,40.92c-1-.76-1.59-2.06-2.53-2.94-.51-.49-.72.19-.82.65-.51,1.78-1,3.55,1.55,4.2.37.09.66.37.3.57-1.34.74-.27,1.79-.44,2.66l.94,0c0-.83.69-1.25,1-1.89C35,43.13,36.94,42.16,35.28,40.92Z"/><path class="cls-3" d="M35.28,44.21c-.32.64-1.06,1.06-1,1.89.18,1.36,1.36.9,2.15,1.07.25.07.55-.35.34-.65C36.28,45.77,36.53,44.49,35.28,44.21Z"/><path class="cls-7" d="M25.88,40l0,.94c.63,0,.95-.34.82-1Z"/><path class="cls-7" d="M26.76,39.94l.44-.44Z"/><path class="cls-7" d="M51.41,43.39c-.32-.13-.73.24-.56.46,1.38,1.83-1.2,1-1.2,1.77,1,.92,2.19.31,3.28.46h1.88c.26-1.12,1.3-1.71,2.6-3C55,43.61,53.18,44.1,51.41,43.39Z"/><path class="cls-9" d="M46,45.46l-.53-.31-.16.15a1.74,1.74,0,0,0,0,2.46c.55.68.78.21,1.28,0,.85-.36.79-.67.24-1.19Z"/><path class="cls-6" d="M52.8,46.87a1.77,1.77,0,0,0,2-.78H52.93A4,4,0,0,0,52.8,46.87Z"/><path class="cls-7" d="M48.9,49.32c.1.12.1.28.2.31s.24-.12.36-.12l-.27-.43Z"/><path class="cls-7" d="M45.34,62.16c.11.07.22.18.34.19s.24-.1.38-.16c-.13-.08-.24-.19-.36-.19A1,1,0,0,0,45.34,62.16Z"/><path class="cls-7" d="M57,49.09c0,.06.07.18.13.18a.76.76,0,0,0,.94-.35L58,48.85Z"/><path class="cls-7" d="M49.66,59.62h0Z"/><path class="cls-7" d="M49.07,59.45l.58.16C49.48,59.43,49.39,59,49.07,59.45Z"/><polygon class="cls-7" points="45.48 45.17 46 45.46 45.97 45.22 45.48 45.17"/><path class="cls-10" d="M40,41.54h.15l0-.21-.26,0C40,41.43,40,41.54,40,41.54Z"/><path class="cls-9" d="M44.18,31.83c-1.12,1.39-2.13,3.06-1.07,4a5.36,5.36,0,0,0,5.7,1C46.26,36.12,44,35.21,44.18,31.83Z"/><path class="cls-6" d="M49.8,28c-1.25.54,0,1.43-.15,2.15,1,.09,1.65,1.28,2.81,1,1.39-1.41-.59-2-.79-3C51.56,27.67,50.38,27.76,49.8,28Z"/><path class="cls-13" d="M40.81,35.85l.38-.42Z"/></g></g></svg>