<svg xmlns="http://www.w3.org/2000/svg" viewBox="0 0 192.4 198.8"><defs><style>.cls-1{fill:#f1f1f1;}.cls-2{fill:#eae9e9;}.cls-3{fill:#c1bcba;}.cls-4{fill:#e3e3e7;}.cls-5{fill:#e3e2e1;}.cls-6{fill:#d3d4d9;}.cls-7{fill:#dddbda;}.cls-8{fill:#c9c8c9;}.cls-9{fill:#d0cfd2;}.cls-10{fill:#dadce1;}.cls-11{fill:#d5d2cd;}.cls-12{fill:#b0a7a1;}.cls-13{fill:#cb9cb3;}.cls-14{fill:#62585c;}.cls-15{fill:#322931;}</style></defs><title>bich</title><g id="Layer_2" data-name="Layer 2"><g id="Layer_1-2" data-name="Layer 1"><path class="cls-1" d="M183.27,50.22c-1.54-9.07-7.31-15.75-12.41-22.75-1-1.33-1.61-2.87-3.34-3.57-8.19-3.33-14-10.33-22.06-14.15-7-3.33-13.75-5.56-21.4-4a4.37,4.37,0,0,1-4.06-1A17.15,17.15,0,0,0,106.47,1,14.64,14.64,0,0,1,99.56.54a6.58,6.58,0,0,0-5.81.3A36.68,36.68,0,0,1,80.92,5.61a46.89,46.89,0,0,1-21.68-.9C54,3.32,51.68,4,49.88,8.84c-.4,1.23-1.12,2.17-2.4,2.17-2.16,0-3.63,1.12-5.34,2.26C37.77,16.18,35,20.89,30.28,23.41c-2.58,1.37-5.43,2.13-7.65,4.46C12.9,38.11,9.56,51.51,4.34,64c-.43,1,.73,1.67,1.66,2.14H8a63.61,63.61,0,0,0,7.22-22.9c.37-3.57,7.44-8.1,11.37-8,2.35,0,3.92-.29,5-2.85,2-4.86,7.87-4.08,11.54-6.79,1.59-1.18,1.88,1.63,1.73,3-.5,4.52-4.36,6.39-7.57,8.27-3.39,2-3.65,2.89-.46,5.39,4.66,3.65-.66,4-2.4,5.76,0,1.56,3.63,1.6,2.29,3.87-1.11,1.89-3.18,2.21-5.18,2.21-3.65,0-9.27,4.67-8.42,8,1.5,5.89-1.61,10.36-3.42,15.25-.62,1.74-2.19,3.26,1,3.92,1.51.31,1.73,1.64,2.35,2.85,2.14,4.16,1.46,9.41,5.46,12.93,1.35,1.2.34,3.46-.54,5.13l1,1c2.31.37,3.72-1.16,5.31-2.31,4.44-3.22,8.85-1.58,9.66,3.78.41,2.74,2.47,3.4,3.69,1.91,5.9-7.24,13.64-6.05,21.37-5.4,1.67.1,3.34,0,5,0,2.35,1,4.66-2.2,7,0h3a1.79,1.79,0,0,1,2-1.93l1.91,0c.66-3.32,3.16-4.34,6.07-4.86V92.87c0-1.32.13-3.06,1.59-3.06,2.22,0,1.06,2.17,1.39,3.39,3.93.12,4.68,5.68,8.93,5.27a2.29,2.29,0,0,1,2.54-1.14c3.9.37,10.24,5.94,11.45,10v1.91c3.31-.31,3.18,1.85,3,4,.06,1.43.06,2.88,2.06,2.88.34-1.83.7-3.64,3-4-.15-1.58,1.4-2,2-3,.29-3,.49-4.77,5-4.49,5.58.35,11.11,1.91,16.76,1.28.87-.1,2.08-.1,2-1-.55-6,5.3-9.87,4.78-15.8-.09-1,.1-2-.74-2.68-3.12-2.44-1.7-6.13-.31-7.6,4.69-4.94,1.33-9-.77-13-1.73-3.22-5.78-5.64-1.73-9.76-3.41-4.57-5-10.6-10.93-13.16-2.25-1-4-2.44-2-5.41,2.51-3.78,1-9.4-3.13-12-2.34-1.45-5.3-3-3.22-6l.19-.28a5.52,5.52,0,0,1,7.73-1.12c5.05,3.43,10.88,5.28,16.41,7.57,5.14,2.12,7.76,6.54,11.65,9.75,4.93,4.07,7,9.62,8.85,15.62a11.6,11.6,0,0,0,6.53,7C187.27,54.77,183.75,53,183.27,50.22ZM58.89,81c-1.44,0-2.57-.38-2.67-2.08s1.2-1.63,2.35-1.7l0-.07c1.35.05,2.82.07,3,1.77S60.33,81,58.89,81ZM86,77.11c-.59,1-1.23,1.9-1.76,2.9-4.4,8.41-7.2,8.87-13.44,2.22l0,0c-3.93-.89-5.82-3-4.1-7.13.31-.73.95-1.21.37-2.21C65.31,70,65.34,70,69,69c2.54-.67,4.26-3.2,7.26-2.91,3.35.32,6.9-1.41,7.83,4.59.72,4.59,5.82,5.4,11.27,4.59C92,78.59,88.87,77.31,86,77.11Zm48.24,4.64c-3.11,1.8-5.78,5.2-10.11,1.62-2.72-2.26-5.57,1.63-8.72,1.23-1.24-.16-2.21.25-2.44-1.35-3.5-.69-5.63-3.3-7.83-5.69-3-3.33.17-5.19,2-7.33h0c-.78-1.63-2-3.35-.17-4.94s4-1.39,6-.16c2.92-.33,6.3,1.71,8.56-2.12.76-1.25,2.35-.61,3.24.75,1.94,2.9,3.71,6,8,5.57a2.83,2.83,0,0,1,1.62,1C135.14,71.21,135.14,81.2,134.2,81.75Z"/><path class="cls-2" d="M43.17,25.56c-3.67,2.71-9.48,1.93-11.54,6.79-1.09,2.56-2.65,2.85-5,2.85-3.93-.06-11,4.48-11.37,8A63.61,63.61,0,0,1,8,66.15c2.37.26,4.67,2,4.46,3.8A11.37,11.37,0,0,1,8.6,76.76C7.09,77.95,3.89,77.93,4,74.13c-3,.59-4.28,2-3.2,5.27a7.71,7.71,0,0,1-.1,4.89C-1.14,88.91.9,92.13,4,95.15c.22-1.55-.67-3.66,2-4a3,3,0,0,1,3-2c-.07-1.47-1-1.91-2.31-2.08-.9-.13-1.82-1.17-1-1.62,3.62-2,4.24-6.88,8.33-8.33.62-.22,1.16-.81,1.71-.11a3.06,3.06,0,0,1,.73,3.17c-2.17,6.61,0,12.29,6,15.91a3.71,3.71,0,0,1,1.7,2.75,4.11,4.11,0,0,0,3.88,3.3c.89-1.66,1.9-3.93.54-5.13-4-3.52-3.32-8.77-5.46-12.93-.62-1.21-.84-2.54-2.35-2.85-3.22-.66-1.64-2.18-1-3.92,1.81-4.89,4.92-9.36,3.42-15.25-.85-3.32,4.77-8,8.42-8,2,0,4.07-.32,5.18-2.21,1.34-2.27-2.29-2.31-2.29-3.87,1.74-1.76,7.06-2.11,2.4-5.76-3.19-2.5-2.92-3.39.46-5.39,3.21-1.88,7.07-3.75,7.57-8.27C45,27.19,44.76,24.39,43.17,25.56Z"/><path class="cls-3" d="M177.92,132.15l-2-3.84L173,127.23h-3c2.62,7.61-3.4,9.9-8,13.19-2.8,2-4.66,5.68-9,4.81-3.2,1.1-4.54-2.25-7-3l-2,1c-2.95,4.48-7.12,5.3-12,4-2.67,2.13-6,1.06-8.41.43-3.6-1-5.53-.84-6.92,2.78-1.66,4.36-4.33,1.44-6.66.69a5.39,5.39,0,0,1-4,2.09,13.45,13.45,0,0,0-2.88.58c-3.09,1.36-6.76,4.26-9.46,2.58-5.34-3.31-11.26-7.15-9.53-15.26q-.07-1.52-.14-3a26.29,26.29,0,0,0-5,11.08L80,158c5.75,3,1-3,3.59-3.31a100.46,100.46,0,0,0,10.18,5.18c2.67,1,2.61,2.87,2.1,4.69-.86,3.09-2.18.52-3.54.19-3.21-.79-1.92,2-2.32,3.44l2,1h1c1.07-1.45,2.63-.85,4-1l6-1a7,7,0,0,0,1-3.92,7.73,7.73,0,0,1-4.65-1.43,1.62,1.62,0,0,1-.88-2c.45-1.18,7.84-3.75,8.77-2.82,2.24,2.2,4.94,2.34,8,2.57-2.75.53-3.6,2.16-3.36,4.53l1.09.12h1a2.06,2.06,0,0,1,2-1c3.27-2.75,7.56-3.09,11.2-2.75,5.49.52,10.22-1,15-2.85,2.14-.85,3.85.45,5.78.52,1-3.12,3.92-4.72,6-6.93,2.06-3.7,14.42-6.5,17.22-4,1.32,1.21,2.66,2.25.79,4v2c4.8-3.07,3.23-8.31,4.23-12.65C176.83,137.74,174,134.27,177.92,132.15Zm-46.57,24.69a14.08,14.08,0,0,1-2.77.38h0c-1.18-.29-2.69.47-3.1-1.06-.34-1.26,1-1.91,1.57-2.91.82-1.41,2.32-.94,3.56-1.2,2.29-.48,5.92-2.37,6.54.09C137.91,155.14,133.94,156,131.35,156.84Z"/><path class="cls-4" d="M180.41,51.19c-1.85-6-3.92-11.55-8.85-15.62-3.89-3.21-6.51-7.62-11.65-9.75-5.53-2.29-11.41-4.14-16.41-7.57l-.28-.19a5.52,5.52,0,0,0-7.64,1.59c-2.08,2.93.87,4.53,3.22,6,4.13,2.6,5.64,8.22,3.13,12C140,40.59,141.7,42,144,43c6,2.54,7.57,8.57,11,13.14,2.6.86,3.29,3,4.11,5.42,1.16,3.37,1.78,7.57,6.87,7.57-.66-4.82-5.08-7.72-6.08-12.63a28.37,28.37,0,0,0-5.22-11.58c-2.72-3.58-1.62-8.65-2.38-13-.56-3.38,3.21-3.4,5.44-2.11,2.52,1.46,5.64,3.33,6.59,5.76,1.79,4.59,6.45,5.14,9.45,7.91,1.82,1.68,2.42,2.63,2.19,4.68-.38,2.56,1.15,4.37,2.48,6.18s5.24,2.52,3.33,6.28c-.18.34,2,.41,3.16.56a3.53,3.53,0,0,1,2-2v-1A11.6,11.6,0,0,1,180.41,51.19Z"/><path class="cls-5" d="M74,101.17a26.24,26.24,0,0,1-1.6,9c-1.61,4.44-4,3.38-5.61,1.18-2.66-3.59-7.43-3.28-10.14-6.47-.89-1-1.82-.08-2.5.59-2,2-4.89,2.8-6.53,5.23a1.87,1.87,0,0,1-3,.55c-3.87-2.53-4.56-.1-4.69,3.11,0,1.18-.22,2.43-1.66,2.6s-1.87-.71-2.49-1.83c-2.22-4-3.9-8.36-6.84-12l-1-1a4.11,4.11,0,0,1-3.88-3.3,3.71,3.71,0,0,0-1.7-2.75c-6-3.61-8.15-9.3-6-15.91A3.06,3.06,0,0,0,15.73,77c-.55-.7-1.09-.11-1.71.11-4.09,1.46-4.71,6.33-8.33,8.33-.83.45.09,1.5,1,1.62,1.31.17,2.24.61,2.31,2.08.43.46.85,1.27,1.36,1.47,2,.2,4.52-.16,3.52,3.2-.53,1.74-.72,4.34-3.36,4s-3.78-2.29-3.64-5c0-.52-.6-1.07-.92-1.61-2.69.33-1.8,2.44-2,4,1.44,2.14.84,4.64,1.12,7,5.75-2.12,10.7-2.5,15.21,3.27,2.7,3.45,7.22,5.47,10.91,8.14,2.24,1.63,3.23,3.47,1.55,6.21s-.09,3.68,2.59,3c3.39-.8,7.14-1.29,6.66-6.29,0-.8,0-1.89,1-2.06,6.06-1,11.88-3.57,18.18-3,1.36.12,1.73,1.39,1.82,2.63,1.14.67,1,1.82,1.08,2.88a5,5,0,0,0,.92.13c1.65,1.35,3.36-4.44,5,0h2a1.87,1.87,0,0,1,1.94-2L75,112.21c-.29-2.76,1.73-4.37,3.49-5.58A5.37,5.37,0,0,0,81,101.17C78.65,98.93,76.33,102.17,74,101.17Z"/><path class="cls-6" d="M61.19,111.51c-6.3-.58-12.12,2-18.18,3-1,.16-1.08,1.25-1,2.06.48,5-3.27,5.5-6.66,6.29-2.68.63-4.35-.17-2.59-3s.69-4.59-1.55-6.21c-3.69-2.67-8.22-4.69-10.91-8.14-4.51-5.77-9.46-5.39-15.21-3.27l.85,2c3.32,1.18,4.12,3.83,4,7,.44,1.75,3.09,1.85,3,4a1.82,1.82,0,0,1,2,2c2.75.3,1.85,2.41,2,4,1,1.94,2.28,3.7,2.09,6a1.8,1.8,0,0,1,1.93,2l2,1c.74-4.52-.7-8.75-2-13v-1c.12-1.72-1.89-3.37-.16-5.13a1.63,1.63,0,0,1,2.63.16c1.53,1.68,4.1,3,2.59,6,.42,6.81,1.53,7.82,8.42,8,5.35.14,6.46,1.84,4.46,6.66-1.82,4.32,1.16,6.39,4.3,7.13,2.87.69,2.82,2.2,2.82,4.2l2,1a2,2,0,0,0,1.93-1c-.13-3.39,1.59-6.58,1-10H44.34c.6-2.41,2.07-2.79,3.66-3v-2h-.08a2.79,2.79,0,0,1-2.86-2.72c-.29-3,4.41-10,7.31-10.87.16,0,.44-.18.44-.18,3.5,3.75,6.77-1.51,10.2-.25C62.92,112.9,62.55,111.63,61.19,111.51Z"/><path class="cls-7" d="M188,95.19v-3c-2,.17-4.07,2.16-5.6-1.27-.79-1.78-2.86.49-4.4.27-.52,1.52,1.58,3.38.14,4.52-1.65,1.3-2.75-1-4.19-1.55-1.06-.39-2-1.4-3,0l1,2c2,.85,3.69,2.26,6,2,1.35-.66,2.81-1.4,3.67.56s-.71,3-1.85,4.09-2.15,3-4,1.9c-1.44-.88.48-2.32.17-3.55l-5,1h-1c-1.11.67-2.42,1-2.93,2.48-2,5.85-4.08,11.68-6.08,17.52,3.31,0,3-3.05,3.91-4.94,1.45-3.09,3.41-5.13,7.06-5a4,4,0,0,1,3.75,2.72c.59,1.47-.22,2.37-1.58,3.2s-3.42,1.8-.18,3c1.48-.07,2.69-.69,2.92-2.21.59-3.94,3.19-6.94,5.38-9.94,2.7-3.65,5.83-6.83,4.76-11.83C185.45,95.6,186.66,95.35,188,95.19Z"/><path class="cls-8" d="M43,168.16a2,2,0,0,0-2.33-2c-3.83,0-5.55-3.07-6.43-5.8a12.87,12.87,0,0,0-3.23-5.21H28.25v4.93c2.5,1.74,3.15,4.31,3.46,6.92q4.17,3.93,8.61,7.37C38.76,171.33,40.82,169.76,43,168.16Z"/><path class="cls-9" d="M43.18,139c-3.14-.74-6.12-2.8-4.3-7.13,2-4.82.88-6.52-4.46-6.66-6.9-.18-8-1.19-8.42-8H21c1.32,4.2,2.76,8.44,2,13l.07,2c3.73.42,5.62,2,4,6a1.89,1.89,0,0,0,1.93,1c3.2-1.44,6.59-4.59,9,1,3.22-.48,5.57,1.36,8,3C46,141.13,46,139.66,43.18,139Zm-5.65-10.61c.11,1.07-.28,1.59-1,1.59s-1.37-.4-1.37-1.07.13-1.44,1-1.32a4,4,0,0,1,1.4.8Z"/><path class="cls-9" d="M175.72,114.92A4,4,0,0,0,172,112.2c-3.65-.16-5.61,1.88-7.06,5-.91,1.89-.61,4.94-3.91,4.94l-1,0c-3,2.07-4.69,6-9,6h-2c0,2.69,1.51,5.22,1,8,5.29.54,5.8-4.64,8.41-7.23,1.41-1.4,2.12-3.4,4.65-2.29a1.25,1.25,0,0,0,1.87-.91c1.49-4.55,4.72-3.63,8-2.55h1v-2c-3.23-1.15-1-2.22.18-3S176.31,116.39,175.72,114.92Z"/><path class="cls-10" d="M191.62,74.73c.83-5-.73-8.25-3.62-11.59h-3a23,23,0,0,1,1.07,13.15c-.29,1.17.39,2.09,1.17,3.09,1.26,1.57,3.22,3.38-.27,5-1.41.65-.93,1.89.21,2.75,1.82,1.43,2.68,3,.82,5v3c2.61-2,3.49-4.64,4.18-7.92C193.06,82.8,191,78.62,191.62,74.73Z"/><path class="cls-10" d="M8,66.15l-2,0c.43,3-2.92,4.93-2,8-.15,3.8,3,3.82,4.59,2.63a11.37,11.37,0,0,0,3.86-6.81C12.69,68.15,10.39,66.42,8,66.15Z"/><path class="cls-9" d="M28.2,160.12c.44,1.52.82,3,1.11,4.55q1.16,1.16,2.34,2.27C31.34,164.37,30.68,161.83,28.2,160.12Z"/><path class="cls-9" d="M31,142.15,29.19,144l-1,11.18H31C31.82,150.81,30.79,146.48,31,142.15Z"/><path class="cls-8" d="M29,139.14l.2,4.87,1.8-1.86a8.31,8.31,0,0,1,7-2C35.57,134.55,32.19,137.69,29,139.14Z"/><path class="cls-2" d="M13,115.15c.09-2.15-2.55-2.25-3-4H8a13.33,13.33,0,0,0,7,9v-3a1.82,1.82,0,0,1-2-2Z"/><path class="cls-5" d="M6,104.15c-.83,2.75,1.12,4.72,2,7h2C10.09,108,9.3,105.33,6,104.15Z"/><path class="cls-6" d="M23.08,132.13c1,2.21,1.12,5,4,6C28.68,134.13,26.79,132.54,23.08,132.13Z"/><path class="cls-1" d="M187,59.16a3.54,3.54,0,0,0-2,2v2h3C187.84,61.77,188.44,60.21,187,59.16Z"/><path class="cls-7" d="M173.91,123.16h-1l.09,4,2.91,1.11C175.91,126.28,174.67,124.82,173.91,123.16Z"/><path class="cls-5" d="M15,117.14v3a2.11,2.11,0,0,0,2,1C16.82,119.59,17.72,117.48,15,117.14Z"/><path class="cls-5" d="M19,127.14c-1.47,2.74,1,1.66,1.93,2a1.8,1.8,0,0,0-1.93-2Z"/><path class="cls-10" d="M187,97.16a2.1,2.1,0,0,0,1-2C186.66,95.35,185.44,95.6,187,97.16Z"/><path class="cls-2" d="M171.07,94.19a19,19,0,0,1-6-2.31c-2.34-1.49-2.72-3.75-1.61-5.58,1.22-2,3.5-1.48,5.17,0C170.55,88,172,89,172,85.15c-3.38-4.82-4.07-10.32-4-16h-2c-5.09,0-5.71-4.2-6.87-7.57-.83-2.42-1.52-4.55-4.14-5.42-4,4.12,0,6.54,1.73,9.76,2.1,4,5.46,8,.77,13-1.39,1.47-2.82,5.17.31,7.6.84.68.65,1.68.74,2.68.51,5.93-5.37,9.85-4.82,15.79.07.86-1.14.85-2,1-5.65.63-11.18-.93-16.76-1.28-4.53-.28-4.73,1.49-5,4.49,3.22.39,6.28,1.33,9.7.22,2.52-.82,4.07,1.74,5.24,3.74,1.88,3.18,4.23,3.37,7.58,2.37,5.46-1.58,9.63-3.13,8-10.52-.75-3.38,6.33-5.39,9.47-2.82h1c1.18-1.85,1-3.94,1.07-6Z"/><path class="cls-7" d="M142.5,116c.55-2.08-2.56-1.92-4.33-1.72-3.65.42-7.19.54-10.14-2.2-2.3.36-2.66,2.17-3,4a6.5,6.5,0,0,1,1,4.09v1a5.09,5.09,0,0,0,3-1.48c1.7-1.34,3.06-3.3,5.8-.94,2.44,2.13,3.39,3.58,2.14,7-1.64,4.48-2.6,9-8.27,10a1.48,1.48,0,0,1-1.67-.63h-3c-3.44,2.9-5.63,7.23-10,8.9-3.47,1.33-4.48,3.64-4,7,2.33.75,5,3.67,6.66-.69,1.39-3.62,3.32-3.73,6.92-2.78,2.41.62,5.74,1.7,8.41-.43.39-1.8-3.22-2.53-1.34-4.62,1.69-1.92,3.57-.92,5.32.08,2.56,1.48,5.28.95,8,.55l2-1,4-6c.52-2.76-1-5.29-1-8C145.83,124.66,140.71,122.5,142.5,116Z"/><path class="cls-2" d="M69,101.17c-7.73-.6-15.47-1.84-21.37,5.4-1.21,1.49-3.28.83-3.69-1.91-.81-5.36-5.22-7-9.66-3.78-1.59,1.15-3,2.68-5.31,2.31,2.94,3.6,4.62,8,6.84,12,.62,1.12.92,2,2.49,1.83s1.66-1.41,1.66-2.6c.13-3.21.82-5.64,4.69-3.11a1.87,1.87,0,0,0,3-.55c1.64-2.43,4.53-3.23,6.53-5.23.69-.67,1.61-1.59,2.5-.59,2.71,3.19,7.48,2.88,10.14,6.47,1.61,2.2,4,3.25,5.61-1.18A26.24,26.24,0,0,0,74,101.17C72.33,101.16,70.66,101.26,69,101.17Z"/><path class="cls-5" d="M160.5,104.91c1.64,7.39-2.52,8.94-8,10.52-3.35,1-5.7.81-7.58-2.37-1.16-2-2.72-4.56-5.24-3.74-3.42,1.11-6.49.17-9.7-.22-.58,1.08-2.13,1.46-2,3,3,2.74,6.49,2.62,10.14,2.2,1.77-.21,4.88-.36,4.33,1.72-1.72,6.49,3.41,8.64,6.55,12.12l2-.07c.85-2.57,4.24-3.91,2.93-7.78,2.42.94,4.08,2.29,6.08,1.8h1c2.08-5.84,4.08-11.66,6.08-17.52.51-1.48,1.82-1.82,2.93-2.48C166.83,99.52,159.76,101.53,160.5,104.91Z"/><path class="cls-2" d="M132.8,69.34c-4.33.43-6.1-2.67-8-5.57-.89-1.36-2.48-2.05-3.24-.75-2.26,3.84-5.64,1.79-8.56,2.12l1,2c2.32,2.06,7.11,2.06,6,7.06v2.94c-.49,4.13-3.15,5.82-7,6.13.22,1.6,1.19,1.19,2.44,1.35,3.15.4,6-3.5,8.72-1.23,4.33,3.58,7,.18,10.11-1.62.94-.55.94-10.54.14-11.42C134,69.88,133.31,69.29,132.8,69.34Z"/><path class="cls-7" d="M84.09,70.69c-.93-6-4.49-4.27-7.83-4.59-3-.28-4.72,2.25-7.26,2.91-3.66,1-3.69,1-2,3.88.63,1-.06,1.48-.37,2.21-1.74,4.11.14,6.22,4.08,7.11L71,81.06c-2.17-2.26.08-4.62-.17-6.93L70,73.89c.69-3,2.94-3.86,5.69-3.7,2.24.1,5.24-1.07,5.24,3L83.18,75l2.77,2.12c2.91.15,6,1.48,9.41-1.85C89.91,76.09,84.81,75.3,84.09,70.69Z"/><path class="cls-3" d="M114.06,67.13c-3.21-1-4.54,2.18-6.89,3.1-1.87,2.14-5,4-2,7.33,2.2,2.39,4.33,5,7.83,5.69,3.85-.31,6.51-2,7-6.13L119,77c-2.52,4.15-5.56,4.83-9.23,1.4-2.54-3.39-.43-5.49,2.2-7.39,2.57-1.6,4.32,0,6.09,1.56,1.17-.07.71,1.85,2,1.61C121.14,69.22,116.35,69.23,114.06,67.13Z"/><path class="cls-5" d="M108.46,97.23a2.29,2.29,0,0,0-2.54,1.14l.09,2.74c1.21,2.55,2.15,5.13,1.72,8,1.16.18,1.3,1.08,1.3,2,1.94-1,3.83-1.76,5.11-4,1.45-2.55,3.77,1.12,5.77.12C118.7,103.23,112.35,97.62,108.46,97.23Z"/><path class="cls-11" d="M86,99.19a1.82,1.82,0,0,1-2,1.94H81a5.37,5.37,0,0,1-2.51,5.46c-1.76,1.21-3.79,2.82-3.49,5.58,1.74.29,2.32-2.78,4.17-1.63,1.48.92-.45,2.3-.11,3.51,1.38.16,2.81.2,3.15,2l1.65-.28L87,109.19l-.22-1.92c-.45-.36-1.28-.63-1.28-1-.13-1,.76-1.05,1.51-1.11l.93-2.1q.09-1.38.09-2.77l0-1.21Z"/><path class="cls-11" d="M122.94,113.22l-2.88-.1-.1,1.08c1.9,2.67-2.11,3.09-2,5.27.12,2.43-2.42,5.61,2.46,6.25.58.08,1.06,1.58,1.58,2.43,1.7-1.45,1-3.4,1-5.13,0-2.16.93-3,3-2.84a6.5,6.5,0,0,0-1-4.09C122.94,116.08,122.93,114.64,122.94,113.22Z"/><path class="cls-12" d="M80.1,81.32c-3.1,2-6.1,1-9.1-.25l-.26,1.14C77,88.88,79.8,88.42,84.24,80c.52-1,1.17-1.9,1.76-2.9L83.15,75C82.71,77.42,83,80.17,80.1,81.32Z"/><path class="cls-3" d="M119.88,109.13v-1.91c-2,1-4.32-2.66-5.77-.12-1.28,2.26-3.17,3-5.11,4,.68,3.52,4.12,1.33,5.79,2.8a4.73,4.73,0,0,1,.61-.4c1.64-.71,3,.69,4.5.69l.1-1.08C118.18,111.83,119.45,110.48,119.88,109.13Z"/><path class="cls-3" d="M97,93.1c-.66,1.21-1.85,1.05-2.94,1.11.53,2.16-1.69,3.35-1.79,5.35,5-3.09,9.16,1.06,13.75,1.55l-.07-2.74C101.66,98.77,100.93,93.22,97,93.1Z"/><path class="cls-7" d="M107,65.31c-1.88,1.6-.66,3.29.12,4.92,2.34-.93,3.68-4.1,6.89-3.1l-1-2C111,63.92,108.87,63.71,107,65.31Z"/><path class="cls-7" d="M88,99.08v1.21l2.36.39,1.84-1.13c.1-2,2.33-3.18,1.8-5.34C91.12,94.73,88.62,95.75,88,99.08Z"/><path class="cls-5" d="M58.56,77.16c-1.16.07-2.46.07-2.36,1.65S57.5,81,58.89,81s2.84-.4,2.67-2S59.9,77.21,58.56,77.16Z"/><path class="cls-5" d="M119.93,109.11c-.5,1.37-1.77,2.71.07,4l2.93,0C123.06,111,123.19,108.8,119.93,109.11Z"/><path class="cls-7" d="M95.65,89.71c-1.46,0-1.59,1.75-1.59,3.06v1.44c1.09-.11,2.28.1,2.94-1.11C96.66,91.87,97.81,89.74,95.65,89.71Z"/><path class="cls-5" d="M84,101.12h.3A1.82,1.82,0,0,0,86,99.19a1.79,1.79,0,0,0-2,1.93Z"/><path class="cls-10" d="M167.66,164.67q-1.17-2.87-2.3-5.73c-.75-2-1.85-1.6-3.48-2-5.17-1.27-9.38,1.2-13.94,2.33-.32.08-.9.14-.9.25-.56,5.85-5.1,5.31-9.1,5.76.74,3.12,4,2.51,6,3.62,2.86,1.59,3.26-2,4.81-3.41,1.93-1.79,4.56-4.78,7.62-1,.79,1,1.81.64,2.54-.17s1.7-1.43,2.48-.42-.36,1.77-1,2.47c-.82.85-1.89,2.14-1.23,3a12.69,12.69,0,0,1,1.28,2Q164.13,168.19,167.66,164.67Z"/><path class="cls-6" d="M172,153.1v-2c-6-2.17-12,1.67-18,0-2.13,2.21-5,3.81-6,6.93l.06,1.08c4.56-1.12,8.77-3.6,13.94-2.33,1.63.43,2.73,0,3.48,2s1.51,3.9,2.29,5.85q1.79-1.78,3.52-3.64A21.66,21.66,0,0,1,172,153.1Z"/><path class="cls-6" d="M10.37,90.47c-.49,0-.91-.86-1.37-1.32a3,3,0,0,0-3,1.91c.33.53.92,1.09.92,1.61-.14,2.76,1,4.66,3.64,5s2.83-2.22,3.36-4C14.89,90.32,12.43,90.67,10.37,90.47Z"/><path class="cls-12" d="M93.72,159.8a100.48,100.48,0,0,1-10.18-5.18c-2.59.31,2.16,6.31-3.59,3.31-3,.08-6.22.71-8.07-2.65-3.62.53-7.1,2.71-10.92,1l-.24.41.22-.43v-1a9,9,0,0,1,0-1c-2.71-.57-5.54-.57-8-2a10.93,10.93,0,0,1-6.08-4c-1.88-1-3.72-2-5.63-3s-3.81-3.64-6-.77c-1.85,2.43-2.67,5.64-1.27,8.3,1.76,3.33,3.44,7,5.67,9.78,2.76,3.5,8,3.4,12.06,2.21s5.81.18,7.26,3.39h2c2.28-2.28,4.82-2.83,7.57-.94a4.71,4.71,0,0,0,4.72.62c2.72-1.26,5.17-.3,7.72.33,1.67.14,3.33-2.13,5,0h1l3-.06c.4-1.44-.9-4.23,2.32-3.44,1.36.34,2.68,2.9,3.54-.19C96.33,162.67,96.39,160.8,93.72,159.8Z"/><path class="cls-13" d="M107.93,124.1c-4.54-5.84-15.65-5.5-20.18.59a15,15,0,0,1-1.69,1.67c-.27,3,.62,6.36-2.1,8.83V138l.15,3c2.72.76,4.41,2.85,6.1,4.77,5.5,6.21,6.42,6.37,13.74,2.21,1-5.39,7.22-8.63,6.07-14.89Z"/><path class="cls-11" d="M119,134.12a24.69,24.69,0,0,0-8.92-1c1.15,6.26-5.07,9.5-6.07,14.89,3,.83,1.68,3.29,2,5.16a5.39,5.39,0,0,0,4-2.09c-.48-3.37.54-5.68,4-7,4.37-1.67,6.56-6,10-8.9C122.37,134.64,119.88,138.18,119,134.12Z"/><path class="cls-11" d="M142.17,157.55c-4.8,1.9-9.53,3.36-15,2.85-3.64-.34-7.93,0-11.2,2.75-.2,1.34-.43,2.54-2,1h-1v3c4.76.08,9.08-3.06,14-2h1c2.34-3.58,4.67-2.72,7,0h3c4-.45,8.54.1,9.1-5.76,0-.11.59-.17.9-.25l-.06-1.08C146,158,144.28,156.69,142.17,157.55Z"/><path class="cls-8" d="M172.93,123.15c-3.29-1.07-6.53-2-8,2.55a1.25,1.25,0,0,1-1.87.91c-2.53-1.11-3.23.88-4.65,2.29-2.61,2.59-3.12,7.77-8.41,7.23l-4,6c2.42.75,3.76,4.09,7.07,3,1.39-2.59-.5-7.4,5-7.4.49,0,1.24-1.82,1.49-2.88.91-3.94,6.11-7.85,10.47-7.73h3Q172.93,125.15,172.93,123.15Z"/><path class="cls-12" d="M170,127.13c-4.36-.12-9.56,3.8-10.47,7.73-.25,1.07-1,2.88-1.49,2.88-5.45,0-3.56,4.81-5,7.4,4.34.87,6.21-2.8,9-4.82C166.57,137,172.59,134.75,170,127.13Z"/><path class="cls-12" d="M104,148c-7.32,4.18-8.24,4-13.74-2.22-1.74-2-3.43-4-6.15-4.78-1.73,8.14,4.18,12,9.55,15.27,2.7,1.68,6.37-1.22,9.46-2.58a13.45,13.45,0,0,1,2.88-.58C105.68,151.27,107,148.82,104,148Z"/><path class="cls-7" d="M77,146.14c-1.66,0-3,.29-3,2.4,0,.94.11,2.22-1.34,2.14-.85,0-1.33-.89-1.52-1.77-1.31-6.13-3.75-3.16-6.12-.76.74,1.82,3.68,2.33,3,5,1.67,0,3.32.06,3.94,2.06,1.79,3.43,5,2.81,8,2.72l-1-8.79A3.18,3.18,0,0,1,77,146.14Z"/><path class="cls-12" d="M98.47,159.74a1.62,1.62,0,0,0,.88,2.05,7.74,7.74,0,0,0,4.65,1.43,19.81,19.81,0,0,0,7.88.8c-.24-2.37.61-4,3.36-4.53-3.09-.23-5.8-.37-8-2.57C106.31,156,98.93,158.56,98.47,159.74Z"/><path class="cls-11" d="M97,168.15c.21.95,1.5,2.13-.16,2.77s-3.08-.07-3.86-1.77H92c0,1.46,0,2.89-2,3,.51,2.81,2,3.87,4.42,2,1.35-1,2.41-.62,3.6,0,3.45-2.15,8.63-1.84,10-7h-5Z"/><path class="cls-8" d="M171.22,147.15c-2.8-2.45-15.15.35-17.22,4,6,1.65,12-2.19,18,0C173.85,149.4,172.51,148.36,171.22,147.15Z"/><path class="cls-8" d="M87,168.15c-.34.72-.68.7-1,0-1.68-2.14-3.34.14-5,0a2.86,2.86,0,0,1-3,3c1.85,4,5.38,1.16,8,2,1.07-1.46,2.62-.87,4-1,2-.09,2-1.53,2-3l-2-1.06Z"/><path class="cls-11" d="M136,142.62c-1.75-1-3.63-2-5.32-.08-1.88,2.1,1.73,2.83,1.34,4.62,4.86,1.3,9,.48,12-4C141.3,143.57,138.58,144.1,136,142.62Z"/><path class="cls-12" d="M130.61,152c-1.24.25-2.75-.21-3.56,1.2-.57,1-1.9,1.65-1.57,2.91.41,1.55,1.91.78,3.1,1.07a14.08,14.08,0,0,0,2.77-.39c2.59-.86,6.56-1.7,5.8-4.7C136.52,149.68,132.9,151.57,130.61,152Z"/><path class="cls-11" d="M82,134.14l-.06-.07-2,.09c2.45,4.16-1.09,6.31-3,9v3a3.18,3.18,0,0,0,2,3,26.28,26.28,0,0,1,5-11.08v-2.82l-1-.17Z"/><path class="cls-8" d="M104,163.25a7,7,0,0,1-1,3.92h9.94v-3l-1.09-.11A19.8,19.8,0,0,1,104,163.25Z"/><path class="cls-8" d="M93,169.15a2.89,2.89,0,0,0,3.86,1.77c1.63-.63.36-1.77.11-2.77C95.59,168.3,94,167.69,93,169.15Z"/><path class="cls-8" d="M114,164.15c1.59,1.51,1.82.31,2-1A2.06,2.06,0,0,0,114,164.15Z"/><path class="cls-10" d="M182.83,83.19c-5.14-2.55-5.37-8.33-8.14-12.4a27.66,27.66,0,0,1-5-13.78,6.76,6.76,0,0,0-2.64-4.6c-3-2-1.45-4.31-.68-6.11,1-2.35,3.14-.35,4.78-.35,2.08-.06,3,2.07,4.85,2.19.23-2.06-.37-3-2.19-4.68-3-2.77-7.66-3.32-9.45-7.91-1-2.43-4.07-4.3-6.59-5.76-2.23-1.29-6-1.27-5.44,2.11.75,4.36-.34,9.43,2.38,13a28.37,28.37,0,0,1,5.21,11.62c1,4.91,5.42,7.81,6.08,12.63h2c5.41,3,7.82,10.75,5,16h1c1.38.14,3-.47,4,1a19.82,19.82,0,0,0,4.41-.42C183.65,85.34,184.45,84,182.83,83.19Z"/><path class="cls-6" d="M187.11,87.17c-1.13-.86-1.62-2.1-.21-2.75,3.5-1.6,1.53-3.41.27-5-.77-1-1.45-1.91-1.17-3.09a23,23,0,0,0-1.06-13.16v-2c-1.16-.15-3.33-.22-3.16-.56,1.9-3.76-1.85-4.33-3.33-6.28s-2.87-3.61-2.48-6.18c-1.85-.12-2.77-2.24-4.85-2.19-1.65,0-3.78-2-4.78.35-.77,1.8-2.32,4.11.68,6.11a6.76,6.76,0,0,1,2.64,4.6,27.66,27.66,0,0,0,5,13.78c2.78,4.07,3,9.85,8.14,12.4,1.61.8.82,2.14-.39,2.53a19.82,19.82,0,0,1-4.41.42q0,2.5-.07,5c1.54.23,3.61-2,4.4-.27,1.54,3.43,3.6,1.44,5.6,1.27C189.79,90.17,188.94,88.56,187.11,87.17Z"/><path class="cls-3" d="M75.33,126.66c-2.32-1.6-1-4.29-1.32-6.5a2.93,2.93,0,0,1-2-3H70v7l.4.43-.43-.4c-2.34-1.85-3.65-4.44-5-7a5,5,0,0,1-.92-.13l-2,.18c-.24,2.21.25,4.36-1.33,6.55s1.88,6.67,5.32,7.45h2.07c2,.33,4.24-.79,6,1h1l2-.19C76.89,130.1,77.44,128.12,75.33,126.66Z"/><path class="cls-11" d="M62.95,114.13c-3.43-1.26-6.7,4-10.2.25,0,0-.28.18-.44.18-2.9.87-7.59,7.87-7.31,10.87q0,.05,0,.11a2.79,2.79,0,0,0,2.95,2.62,1.73,1.73,0,0,0,.82-2.12c-1.05-2.64-1.17-3.44,2.53-3.31,2.53.1,6.93.27,7.85-4.26.31-1.53,1.72-1.23,2.83-1.32l2.08-.14C64,115.95,64.12,114.8,62.95,114.13Z"/><path class="cls-11" d="M65,117.16c1.37,2.54,2.68,5.13,5,7v-7C68.37,112.76,66.66,118.54,65,117.16Z"/><path class="cls-3" d="M79.13,110.52c-1.81-1.14-2.39,1.94-4.13,1.65l-1.08,2.94.16,1.12c2.08.24,3.4-1.19,4.94-2.19C78.68,112.83,80.62,111.45,79.13,110.52Z"/><path class="cls-11" d="M73.67,115.11a1.87,1.87,0,0,0-1.69,2,2.93,2.93,0,0,0,2,3q.05-1.92.1-3.92l-.16-1.12Z"/><path class="cls-3" d="M51.73,164.8c-4.06,1.18-9.3,1.28-12.06-2.21-2.23-2.78-3.91-6.44-5.67-9.78-1.4-2.66-.58-5.87,1.27-8.3,2.19-2.87,4.09-.18,6,.77s3.76,1.95,5.63,2.95L48,144.15l-2-1c-2.43-1.64-4.78-3.48-8-3a8.31,8.31,0,0,0-7,2c-.22,4.33.81,8.67,0,13a12.87,12.87,0,0,1,3.23,5.24c.87,2.74,2.6,5.8,6.43,5.8a2,2,0,0,1,2.33,2c2.71-.61,4.3,2.61,7,2,3.49-6.23,5.38.21,8,1h1v-3C57.54,165,55.79,163.62,51.73,164.8Z"/><path class="cls-8" d="M60.7,123.7c1.59-2.2,1.09-4.34,1.33-6.55-1.11.1-2.52-.21-2.83,1.32-.92,4.53-5.32,4.35-7.85,4.26-3.7-.13-3.53.67-2.53,3.31a1.73,1.73,0,0,1-.82,2.12l0,2c.73,1.24,2.58,1.4,3,3,2.67,1.29,4.57,4.18,8,4,2.11.41,3.43-1.09,5-2a1.8,1.8,0,0,1,2-2v-2C62.58,130.36,59.11,125.9,60.7,123.7Z"/><path class="cls-8" d="M55.93,142.11c-2,.34-3.88,1.36-6,1a2,2,0,0,1-1.93,1l-1.1,4.12a10.93,10.93,0,0,0,6,3.88c1.2-2.61,4.33-2.93,6-5C57.41,145.75,59,142.53,55.93,142.11Z"/><path class="cls-11" d="M51,133.14c.59,3.43-1.12,6.62-1,10,2.1.36,4-.66,6-1,.69-1.84,3.06-2.67,3-5C55.59,137.33,53.69,134.44,51,133.14Z"/><path class="cls-11" d="M23.43,111.14a1.63,1.63,0,0,0-2.59-.12c-1.73,1.76.28,3.41.16,5.13v1h5C27.49,114.13,24.92,112.83,23.43,111.14Z"/><path class="cls-11" d="M48,130.12c-1.64.22-3.11.59-3.71,3H51C50.6,131.55,48.75,131.39,48,130.12Z"/><path class="cls-5" d="M13,115.15a1.82,1.82,0,0,0,2,2,1.82,1.82,0,0,0-2-2Z"/><path class="cls-6" d="M49.73,176.71c1.64-1.22,2.61.39,3.52,1.61.69.91,1.75.8,2.75.8.09-2,1.56-2,3-2a6.55,6.55,0,0,0-1-4,13.68,13.68,0,0,1-8-3c-2.72.63-4.31-2.59-7-2-2.27,1.63-4.36,3.24-2.54,6.36q4.22,3.26,8.67,6.06C48.85,179.18,48.57,177.57,49.73,176.71Z"/><path class="cls-6" d="M54.07,182.45a1,1,0,0,0-.67.63q1.65.93,3.32,1.79a14.52,14.52,0,0,1-.74-1.42C55.59,182.58,54.91,182.08,54.07,182.45Z"/><path class="cls-5" d="M178,91.15c-3.57-.51-4.17-3-4-6h-2c0,3.86-1.53,2.86-3.49,1.08-1.67-1.44-4-2-5.17,0-1.11,1.83-.73,4.1,1.61,5.58a19,19,0,0,0,6,2.31c1-1.37,2-.36,3,0,1.44.55,2.55,2.85,4.19,1.55C179.58,94.54,177.48,92.72,178,91.15Z"/><path class="cls-9" d="M181.67,98.71c-.87-2-2.31-1.22-3.67-.56.14,1.55-1.42,2-2,3,.3,1.23-1.61,2.66-.17,3.55,1.88,1.1,2.85-.81,4-1.9S182.54,100.69,181.67,98.71Z"/><path class="cls-5" d="M172,96.15c0,2.07.2,4.15-1,6l5-1c.62-1,2.18-1.45,2-3C175.65,98.41,173.91,97,172,96.15Z"/><path class="cls-6" d="M36.16,127.57c-.92-.12-1.07.53-1,1.32s.53,1.07,1.37,1.07,1.1-.53,1-1.59A4,4,0,0,0,36.16,127.57Z"/><path class="cls-7" d="M153.93,120.35c1.32,3.87-2.07,5.21-2.93,7.78,4.28,0,6-3.93,9-6C157.93,122.65,156.35,121.29,153.93,120.35Z"/><path class="cls-4" d="M168,69.15c-.06,5.68.62,11.18,4,16h1C175.82,79.9,173.41,72.17,168,69.15Z"/><path class="cls-3" d="M130.61,122.51c-1.81.63-3.84,1.63-4.61-1.37v-1c-2.08-.16-3,.68-3,2.84,0,1.73.67,3.68-1,5.13,4.17,4.63-2.13,4-3,6,.88,4.06,3.37.52,5,1.06l3-.07a4.23,4.23,0,0,1,3.2-3.91c1.51-.47,1.86-1.24.86-2.47-1.6-2-1-3.07,1.17-4.07a1.68,1.68,0,0,0,.34-2.58C131.82,121.11,131.28,122.26,130.61,122.51Z"/><path class="cls-11" d="M134.76,118.75c-2.74-2.36-4.1-.4-5.8.94a5.09,5.09,0,0,1-3,1.48c.76,3,2.79,2,4.61,1.37.69-.25,1.23-1.44,2-.44a1.68,1.68,0,0,1-.34,2.58c-2.17,1-2.77,2.07-1.17,4.07,1,1.24.65,2-.86,2.47a4.23,4.23,0,0,0-3.2,3.91,1.48,1.48,0,0,0,1.63.62c5.67-1,6.63-5.49,8.27-10C138.15,122.3,137.2,120.85,134.76,118.75Z"/><path class="cls-14" d="M118,72.58,116.87,76l.17.25c.72,0,1.43,0,1.85.77l1.11.1V74.19C118.69,74.43,119.15,72.51,118,72.58Z"/><path class="cls-15" d="M76.4,79c6.29-1.08,1.35-4,1.72-6-2.88-2.44-4.93.18-7.26,1.18.24,2.31-2,4.67.17,6.93,3,1.25,6,2.3,9.1.25C80,79.37,78.66,78.95,76.4,79Z"/><path class="cls-12" d="M75.68,70.25c-2.75-.16-5,.7-5.69,3.7,0,0,.56.16.86.24,2.32-1,4.38-3.62,7.26-1.18l2.81.24C80.95,69.25,77.88,70.38,75.68,70.25Z"/><path class="cls-14" d="M78.11,73c-.36,1.93,4.57,4.87-1.72,5.87,2.28,0,3.6.45,3.74,2.4,3-1.15,2.6-3.9,3-6.27l-2.26-1.73Z"/><path class="cls-14" d="M111.86,71c-2.63,1.89-4.74,3.95-2.2,7.39,1.93-2.53,5-1.11,7.37-2.15l-.17-.24C113.65,75.89,113.6,72.61,111.86,71Z"/><path class="cls-15" d="M117,76.24c-2.38,1.06-5.45-.37-7.38,2.17,3.67,3.44,6.72,2.76,9.23-1.4C118.48,76.24,117.76,76.24,117,76.24Z"/><path class="cls-15" d="M111.87,71c1.74,1.61,1.79,4.89,5,5L118,72.57C116.19,71,114.45,69.41,111.87,71Z"/><path class="cls-14" d="M92.24,99.55l-1.84,1.13a3.57,3.57,0,0,1-2.46,2.4l-.93,2.1-.23,2.07.22,1.92h1c2.84-1.89,5.59-3.29,8.77-.4a2.62,2.62,0,0,0,3.64-.37c2.76-4,4.36-1.26,6.15.84l1.15-.14c.43-2.9-.51-5.48-1.72-8C101.4,100.62,97.24,96.46,92.24,99.55Z"/><path class="cls-12" d="M109,111.08c0-.9-.14-1.8-1.3-2l-1.15.14c-.32,2.28-2.56,3.13-3.6,4.9-.82,1.64-1.18,3,1.28,3.58a9.7,9.7,0,0,0,10.55-3.82C113.13,112.41,109.69,114.6,109,111.08Z"/><path class="cls-14" d="M114.83,113.9a9.7,9.7,0,0,1-10.55,3.82c-2.46-.58-2.11-1.94-1.28-3.58-5,1.21-10,2.49-14.07-2.18-1.07,2.06.33,7.5-5.07,3.75l-1.65.29a2,2,0,0,1-.15.47c-1,1.68-4.84-.16-4.38,2.84.39,2.49,2.68,3.29,5.39,3.11,2.49-.16,1.44,3.09,3.06,4a14.91,14.91,0,0,0,1.69-1.67c4.52-6.09,15.63-6.43,20.18-.59.06-1.7-.91-3.75,2.69-2.53,3,1,5.26-3.19,4.76-8.13A5.8,5.8,0,0,0,114.83,113.9Z"/><path class="cls-12" d="M83,122.43c-2.71.18-5-.62-5.39-3.11-.45-3,3.38-1.16,4.38-2.84a2,2,0,0,0,.15-.47c-.34-1.8-1.78-1.84-3.2-2-1.54,1-2.87,2.42-4.94,2.19q0,1.92-.1,3.92c.32,2.21-1,4.9,1.32,6.5,2.11,1.46,1.56,3.44,1.74,5.34l1.9.25a2.74,2.74,0,0,1,3.1,1.81l.06.07.94,1,1,.17c2.72-2.46,1.83-5.83,2.1-8.83C84.48,125.51,85.53,122.26,83,122.43Z"/><path class="cls-12" d="M87,109.15l-3.18,6.61c5.4,3.76,4-1.69,5.07-3.75L88,109.15Z"/><path class="cls-12" d="M87.93,103.06a3.57,3.57,0,0,0,2.47-2.38L88,100.29Q87.93,101.67,87.93,103.06Z"/><path class="cls-12" d="M85.49,106.23c0,.41.83.68,1.28,1l.23-2.07C86.25,105.22,85.36,105.27,85.49,106.23Z"/><path class="cls-12" d="M120.41,125.71c-4.87-.64-2.34-3.82-2.46-6.25-.09-2.18,3.92-2.59,2-5.27-1.5,0-2.86-1.39-4.5-.69.5,4.93-1.76,9.13-4.76,8.13-3.6-1.21-2.64.83-2.69,2.53l2.07,9a24.68,24.68,0,0,1,8.92,1c.87-2.09,7.17-1.41,3-6C121.47,127.3,121,125.79,120.41,125.71Z"/><path class="cls-2" d="M160.37,166.26c.61-.7,1.78-1.42,1-2.47s-1.69-.45-2.48.42-1.75,1.17-2.54.17c-3.06-3.75-5.69-.76-7.62,1-1.55,1.41-1.94,5-4.81,3.41-2-1.11-5.21-.5-6-3.62h-3c-2.34,3.45-4.67,2.25-7,0h-1a5,5,0,0,0,1.21,6.19c1.13,1,2,2.13,1.78,3.8,2.87,1.39,4.9,2.79,3.33,6.79-1.1,2.72,0,4.29,1.72,5.42a105.31,105.31,0,0,0,25.44-16.07,12.5,12.5,0,0,0-1.31-2C158.48,168.45,159.55,167.15,160.37,166.26Z"/><path class="cls-2" d="M88.18,191.31c-.82.75-.39,2-.24,3.23q1.7.2,3.41.34C90.77,193.38,90.8,191.36,88.18,191.31Z"/><path class="cls-2" d="M99.46,195.16q2.92,0,5.8-.25A5.79,5.79,0,0,0,99.46,195.16Z"/><path class="cls-2" d="M116.32,193.36q3.7-.76,7.31-1.83C120.3,189.69,118.18,191.35,116.32,193.36Z"/><path class="cls-3" d="M73.29,167.85a4.71,4.71,0,0,1-4.72-.62c-2.75-1.89-5.29-1.34-7.57.94.57,1.08,2.13,1.46,2,3h1c2.67-.67,5.34-1.87,8,0l2,.07h2l2-.08h.29a2.86,2.86,0,0,0,2.71-3C78.44,167.54,76,166.57,73.29,167.85Z"/><path class="cls-8" d="M65,148.14H62l-3-1a8.76,8.76,0,0,0,2,7,9,9,0,0,0,0,1c2-1.61,4-3.61,7-2C68.68,150.47,65.73,150,65,148.14Z"/><path class="cls-3" d="M68,153.17c-3-1.64-4.94.36-7,2a3.69,3.69,0,0,0,0,1c3.82,1.76,7.3-.42,10.92-1C71.32,153.17,69.67,153.17,68,153.17Z"/><path class="cls-3" d="M59,147.16c-1.7,2.07-4.84,2.39-6,5,2.5,1.42,5.32,1.42,8,2A8.76,8.76,0,0,1,59,147.16Z"/><path class="cls-8" d="M61,168.14l-2,0v3l2,2a3.58,3.58,0,0,1,2-2C63.16,169.56,61.6,169.14,61,168.14Z"/><polygon class="cls-3" points="60.76 156.57 61 156.16 60.98 156.14 60.76 156.57"/><path class="cls-3" d="M87,168.19H86C86.3,168.86,86.64,168.87,87,168.19Z"/><path class="cls-5" d="M128.21,171.35a5,5,0,0,1-1.21-6.19c-4.94-1.07-9.26,2.07-14.09,2H108c-1.34,5.18-6.52,4.87-10,7-.77,2-.69,6-2.89,5.36-3.41-1-7.89-.37-10.11-4.37-1.56.19-3.56-.62-4,1.84-.53,3.15-2.35,1.85-4,1.15-1.09,0-2.28.18-3-1-2.56-.15-3.05-1.87-3-4H68a3.09,3.09,0,0,1-2,3c-.06,1.62,1.66,3.06.51,4.76-.83,1.24-2.13,2.54-.13,3.7,1.09.63,2.84,1.39,3.69.94,2-1,.25-2.6-.26-3.81-.94-2.2.63-3.46,1.83-2.38,5.4,4.9,11.4,1.62,17.11,1.78,2.87,0,4.48.93,4.27,4a13.64,13.64,0,0,0,9-2c1-.65,2.21-1.42,1.83-2.65-1.48-4.82,2.25-2.93,4.18-3.37.6-4.87,4-1.38,6-2v-1c2.59-4.83,8.27-5.3,12-1,1.38.56,2.26,2.14,4,2A4.16,4.16,0,0,0,128.21,171.35Z"/><path class="cls-5" d="M128,165.16c2.32,2.23,4.65,3.42,7,0C132.65,162.44,130.32,161.58,128,165.16Z"/><path class="cls-2" d="M74,137.16l-3-1H68c-.72,3.68-1.46,7.3-5.26,9.3-.94.49-.74,1.68-.74,2.68h3c2.35-2.4,4.78-5.37,6.14.79.19.88.67,1.77,1.52,1.77,1.45.09,1.34-1.2,1.34-2.14,0-2.11,1.35-2.4,3-2.4v-3C73.65,142.31,74.13,139.58,74,137.16Z"/><path class="cls-7" d="M94.42,174.15c-2.42,1.86-3.9.8-4.42-2-1.39.15-3-.45-4,1a2.07,2.07,0,0,1-1,2c2.23,3.95,6.71,3.37,10.11,4.37,2.2.64,2.12-3.36,2.89-5.36C96.79,173.53,95.74,173.12,94.42,174.15Z"/><path class="cls-11" d="M77.95,171.16l-2,.08,1,6.89c1.62.69,3.43,2,4-1.15.48-2.46,2.48-1.65,4-1.84a2.07,2.07,0,0,0,1-2C83.35,172.3,79.83,175.13,77.95,171.16Z"/><path class="cls-5" d="M78.79,132.23,76.94,132l-2,.19v1a6.75,6.75,0,0,1-1,4c.17,2.42-.31,5.15,3,6,1.91-2.69,5.45-4.84,2.93-9Z"/><path class="cls-3" d="M78.92,132.26l1.08,1.9,2-.09A2.74,2.74,0,0,0,78.92,132.26Z"/><path class="cls-3" d="M82,134.14l.94.95Z"/><path class="cls-7" d="M174,85.14c-.17,3,.42,5.5,4,6v-5C177,84.67,175.38,85.28,174,85.14Z"/><path class="cls-7" d="M68,131.15a1.83,1.83,0,0,1-2,2,1.83,1.83,0,0,1-2,2c-1.58.89-2.91,2.4-5,2,.07,2.33-2.3,3.16-3,5,3,.44,1.47,3.66,3,5l3,1c0-1-.2-2.19.74-2.68,3.8-2,4.54-5.62,5.26-9.3,1-1.56,2-3.14,3,0l3,1a6.75,6.75,0,0,0,1-4l-1-1C72.24,130.34,70,131.45,68,131.15Z"/><path class="cls-11" d="M66,133.17a1.83,1.83,0,0,0,2-2H66Z"/><polygon class="cls-11" points="69.97 124.16 70.4 124.56 70 124.13 69.97 124.16"/><path class="cls-8" d="M75,133.17v-1H74Z"/><path class="cls-8" d="M50,170.14a13.68,13.68,0,0,0,8,3v-2C55.4,170.37,53.51,163.93,50,170.14Z"/><path class="cls-5" d="M61,173.09l-2-2H58v2a6.55,6.55,0,0,1,1,4c.46.87.94,1.89,2.14,1.5s.74-1.63.86-2.55Z"/><path class="cls-11" d="M64,135.16a1.83,1.83,0,0,0,2-2,1.8,1.8,0,0,0-2,2Z"/><path class="cls-2" d="M65.88,190.69c1.87.31,2.58,3.86,2.13,6.45v1c2.6,0,5,.47,6.37-3.14,1.25-3.37,4.15-1,5.76.07,1.86,1.29,3.54,2.37,5.86,2.08,0-.94,0-1.91,0-2.86A91.47,91.47,0,0,1,61.13,187,6.23,6.23,0,0,0,65.88,190.69Z"/><path class="cls-2" d="M82.73,188.69a3,3,0,0,1-1.49-3.4c.37-1.49,1.79-1.85,3.07-2.09l.05,0a2.81,2.81,0,0,1,3.48,1.93c1.75,5,3.44,2.38,5.14,0,.21-3-1.41-4-4.27-4C83,181,77,184.29,71.64,179.35c-1.2-1.08-2.76.18-1.83,2.38.51,1.21,2.26,2.81.26,3.81-.84.45-2.59-.31-3.69-.94-2-1.16-.71-2.46.13-3.7,1.15-1.71-.57-3.15-.51-4.76H62c-.13.92.28,2.16-.86,2.55s-1.65-.7-2.14-1.55c-1.46,0-2.93,0-3,1.95a46.11,46.11,0,0,0,3,4.36A19.25,19.25,0,0,1,61.13,187,91.47,91.47,0,0,0,86,194.29C86.06,192.05,85.73,189.94,82.73,188.69Z"/><path class="cls-4" d="M49.1,181c.41,2.09,1.6,4.2,1.52,6.18s-.81,3.85,2,3.84,1.13-2.56,1.81-3.82a2.36,2.36,0,0,0-.63-2.7,1.55,1.55,0,0,1-.45-1.41q-2.19-1.24-4.34-2.58Z"/><path class="cls-4" d="M57.93,187.91c.85,5.89,4.76,8.26,10,9.26.45-2.6-.26-6.14-2.13-6.45-2.71-.45-3.86-2-4.8-3.78-1.49-.68-3-1.39-4.43-2.14A9.22,9.22,0,0,1,57.93,187.91Z"/><path class="cls-4" d="M55.93,179.12c-1,0-2.06.11-2.79-.79-.91-1.22-1.88-2.83-3.52-1.61-1.13.84-.88,2.41-.62,3.75q2.15,1.35,4.34,2.58a1,1,0,0,1,.61-.59c.83-.41,1.51.09,1.91,1a14,14,0,0,0,.7,1.34c1.46.75,2.94,1.46,4.43,2.14a18.34,18.34,0,0,0-2.07-3.46A46.11,46.11,0,0,1,55.93,179.12Z"/><path class="cls-15" d="M100.41,108.38a2.62,2.62,0,0,1-3.64.37c-3.18-2.89-5.94-1.49-8.77.4l.89,2.86C93,116.63,98,115.35,103,114.14c1-1.79,3.26-2.64,3.58-4.92C104.77,107.12,103.17,104.38,100.41,108.38Z"/><path class="cls-1" d="M106.19,195.67c3.18,4,4.37,3.81,8.18-.08.67-.69,1.33-1.49,2-2.24a88.69,88.69,0,0,1-11.14,1.57A3.09,3.09,0,0,1,106.19,195.67Z"/><path class="cls-1" d="M124.43,192c1,.67,2.55.17,3.78-.59,2.94-1.83,5.8-2.07,8.59.49,1.17,1.07,2.64,1.68,3.54-.5s-.84-1.84-2-2.36a22.61,22.61,0,0,1-3.31-1.68,93.51,93.51,0,0,1-11.39,4.17C123.9,191.67,124.16,191.82,124.43,192Z"/><path class="cls-1" d="M91.39,194.88c0,.12.1.24.15.36,2.23,4.58,4.41,4.75,7.41.51a2.67,2.67,0,0,1,.58-.59l-1,0C96.1,195.18,93.74,195.07,91.39,194.88Z"/><path class="cls-1" d="M86,197.15c2-.32,2.1-1.41,2-2.61l-1.9-.25C86,195.24,86,196.21,86,197.15Z"/><path class="cls-1" d="M133.34,182c1.57-4-.46-5.4-3.33-6.79-1.74.15-2.62-1.43-4-2a20.5,20.5,0,0,0-12,1v1c-1.29,2.8-3.84,1.83-6,2-1.93.44-5.66-1.46-4.18,3.37.37,1.23-.83,2-1.83,2.65a13.64,13.64,0,0,1-9,2c-1.69,2.34-3.39,4.91-5.14,0l0-.05a2.81,2.81,0,0,0-3.51-1.86c-1.28.24-2.71.6-3.07,2.09a3,3,0,0,0,1.49,3.4c3,1.19,3.32,3.28,3.3,5.52l1.9.25c-.15-1.18-.56-2.47.27-3.21,2.61,0,2.59,2.06,3.16,3.55,2.35.19,4.71.3,7.1.3l1,0a5.85,5.85,0,0,1,5.72-.25,88.69,88.69,0,0,0,11.14-1.57c1.84-2,3.94-3.61,7.24-1.81A93.51,93.51,0,0,0,135,187.36,4,4,0,0,1,133.34,182Z"/><path class="cls-11" d="M64,171.19H63a3.58,3.58,0,0,0-2,2l1,3h4a3.09,3.09,0,0,0,2-3C66.28,173.29,64.74,173,64,171.19Z"/><path class="cls-8" d="M64,171.14c.75,1.83,2.29,2.09,4,2h3a2.07,2.07,0,0,0,1-2C69.34,169.31,66.67,170.51,64,171.14Z"/><path class="cls-7" d="M74,171.24v5.9c.71,1.19,1.89,1,3,1l-1.07-6.9Z"/><path class="cls-11" d="M71,173.15c-.08,2.16.41,3.87,3,4v-5.9l-2-.1A2.07,2.07,0,0,1,71,173.15Z"/><path class="cls-2" d="M114,174.14a20.5,20.5,0,0,1,12-1C122.25,168.84,116.57,169.31,114,174.14Z"/><path class="cls-2" d="M108,177.14c2.16-.18,4.71.79,6-2C112,175.76,108.57,172.27,108,177.14Z"/><path class="cls-5" d="M68,136.15h3C70,133,69,134.57,68,136.15Z"/></g></g></svg>