<svg xmlns="http://www.w3.org/2000/svg" viewBox="0 0 98.09 114.13"><defs><style>.cls-1{fill:#5c4c42;}.cls-2{fill:#402e25;}.cls-3{fill:#ce9764;}.cls-4{fill:#c28c5b;}.cls-5{fill:#ba8253;}.cls-6{fill:#a16e40;}.cls-7{fill:#c19777;}.cls-8{fill:#7b6b68;}.cls-9{fill:#bc7d42;}.cls-10{fill:#d8a87d;}.cls-11{fill:#fefdfc;}.cls-12{fill:#e8cebe;}.cls-13{fill:#f1dfd5;}.cls-14{fill:#d6a06e;}.cls-15{fill:#e0b999;}.cls-16{fill:#e0b187;}</style></defs><title>box</title><g id="Layer_2" data-name="Layer 2"><g id="Layer_1-2" data-name="Layer 1"><path class="cls-1" d="M72.88,73.16A1.66,1.66,0,0,1,71,75c-1.32-.21-1.11-1.56-1-2.41.57-4.36,1.28-8.71,1.94-13.06-3-7.31,2.2-13.28,3.26-19.92l-.2-2c-2.06-1.25-4-1.62-5.71.61-1.17,1.5-2.38,2.42-4.63,1.34s-1.39-2.51-1.18-4.15A14.55,14.55,0,0,0,63,31.57c-5.48,1.26-8,6.84-4.92,10.71,3.46-2.24,5.31,5.23,9.11,1.51.62-.63,1.85-.61,3.2-1,0,4.75-.56,8.75-5.39,10.75-.44,1.59,1,5-3,3,.1,1.28-.51,2.82.78,3.7,3.24,2.23,3.24,4.82,1,7.69-.58.75-.23,1.19.23,1.67,2,2.07.39,3.67-1.16,4.32-2.71,1.11-2.19-1.85-2.63-3-1.52-4-1.81-8.32-4.52-12.23-1.49-2.14,2.22-4.38,5.33-4.47-.12-1.86-.31-4-2.39-4.45-2.24-.48-2.4,1.6-2.84,3.24-.38,1.42-1.53,2.35-2.92,1.27s-2.12,0-3,.63c-2.24,1.72-3.84,1.63-4.6-1.45-.19-.58-.73-1.43-1.19-1.49-4-.51-3.21-3.1-1.56-4.74,1-1,3.19-3.46,5.44,0,1.77,2.72,4.5-.72,7-.52,1,.08.53-3.27-1.47-4.63-1.17-.78-1.61-2.58-3.42-2.58C49,42.71,49,42.71,43.85,42.29c3-2.35,3-5.75,4-8.75-1.13.08-2.41-.14-2.82,1.37-.92,3.35-3.38,5.49-5.92,7.56-1.08.88-2.15,2-1.81,3.27.62,2.38-.3,3-2.38,2.89h-.27a2.39,2.39,0,0,0-2.31,2.47c.07,2.35,2.21,1.16,3.45,1.52,2-1.07,2.39,1,2.72,1.83a8.27,8.27,0,0,0,4.55,4.21c2.21.43,5.38-2.07,6.64,2.43-5.32-1.3-8.32,1.62-10.85,5.41.84.1,1.66.21,2.07,1.1l2-.24c4.3-4.34,5-4.26,11,1.43v1.73h.33a1.92,1.92,0,0,1,1.74,2.09c3.79,1.64,3.07,4.94,3,8a24.73,24.73,0,0,1,3,1.64c1.15.84,4-1,3.57,1.72A4.68,4.68,0,0,1,61,87.63c-.93.08-1.93,0-2.93,0-3.79,5.16-9.75,4.63-14.93,4.78-2.47.08-6.33.29-8.33-2.87A6.48,6.48,0,0,1,33,89c-2-1.31-4.79-2.28-5.86-4.18-2.1-3.71,4-1.38,3.75-4.25-2.48,0-5.6-2.29-6.84,2-.36.61-.72.91-1.1,0-2.54-1.85-3.36-4.47-2.9-7.73l3.06,5.84c1.69-2.92,6-3.28,6.83-7.06-3.66-1-5.58-2.82-3-6.65.18-.26.44-.7.34-.86-2.87-4.79.58-7.21,3.58-9.86a6.84,6.84,0,0,0,1-1.68c-1.52-3.36-5-4.56-7.42-7-1.84-1.9-2.54-4.82-.84-6.21,2.34-1.91,3.85.91,5.29,3.49,1.45-3.85,5-4.6,7.23-6.94,2.47-2.56,1.68-4.26-.59-6.14-1.06-.93-1.76-1-2.91.07-1.62,1.54.12,1.46.66,2.22,1.91,2.64-.77,3.14-2.16,4.35-1.89,1.65-2.87,1.3-3.3-1.1a1.71,1.71,0,0,0-.31-.92c-1.46-1.31-3.71-2.31-4.27-3.91-.85-2.43,3.81-.22,3.55-3.29s2.61-2.13,4.12-3,2.63-2.4,3.92-3.65l-1.9-.29-2.08.25c-2,2.81-5.52,2.44-8.12,4-4.09,3.22-4.43,7.39-2.94,12l.12,1c1.44,2.76.86,5.87,1.53,8.76,1.91.88,1.08,2.1.4,3.29l-.12,1.89v8.08a13.5,13.5,0,0,1-1.24,8.31c-2.27-.63-1.39-2.64-1.81-4.06-1.68-1.68-1.61-4.16-2.77-6.08L15.5,69.4,18,80.47h-.1l.93,1.1a6.69,6.69,0,0,1,2,4l1,1.86c1.06.92,2.24,1.74,2.6,3.22l1.48,1.65a1.58,1.58,0,0,1,.87.37L27.94,94a5.49,5.49,0,0,1,3.37,2.33c3.88,1.11,7.58,2.92,11.68,3.25l1.07.14c4.92-1.11,10.09-1.07,14.78-3.25.17-.59.52-.92,1.17-.78l3.06-1.29c4.42-2,6.48-7,11-8.83l-.21-2.09c-.81.19-1.82,1.58-2.39.07-.71-1.88,5.48-12.19,7.56-13h.32l-1.32-8C76.88,66.34,72.62,68.62,72.88,73.16ZM66,60.18l-.83-.36.37-.83c.28.12.71.18.78.38S66.11,59.9,66,60.18Z"/><path class="cls-1" d="M92.55,10.66a20.34,20.34,0,0,0-3.67-1.38c-.54,5.27,1.72,10.28,1.72,17.32-2-4.68-4.08-4.82-7-3.27-1.14.61-3.13-.38-4.74-.64-.87,2.4,1.32,3.81,1.87,5.75,2,.6,3.73,1.79,3.73,3.93,0,1.52-1.8,1-2.8,1.28l-.3,3.07-.53,2.75c1.47.38,1.91,1.73,2.64,2.81s1.8,1.92,2.8.67c4.3-5.53,11-9.6,10.84-17.87,0-1.65-.22-3.47.36-4.93C99.55,14.94,96.06,12.79,92.55,10.66Z"/><path class="cls-2" d="M25.22,3c-3.6,2-8,1-11.47,3.47,4.13,3,4.13,3-.11,9.8-1.62-1.73-.87-3.78-.94-5.61-.07-1.6-.79-1.53-1.88-1.09-.13,1.4-.36,2.74-2.13,3a4.73,4.73,0,0,1,0,1c.45,1.2,1.31,2.32.62,3.74-1.1-.5-1.42-1.58-1.69-2.69-3.8.83-2.23,3.51-2,5.83.26,2.6,1.84.84,2.84,1h0a.43.43,0,0,0,.18-.58c.87-.87,1.58-.76,2.11.36,1.92,2.52,2.91,5.47,4,8.36,2.46-2.58,1.61-6.23,2.9-9.19.46-1.16.14-2.73,2-2.89,0-.83.06-1.63,1.06-1.93l.06-.06c.24-.94,1.06-1,1.82-1.2l1.31-1.76c0-3.11,3.23-4.36,4.07-7C27.79,3.89,27.58,1.71,25.22,3Z"/><path class="cls-3" d="M7.3,96.12a69.15,69.15,0,0,0,6.22,5.43c0-.18,0-.36,0-.53-.39-2.36.55-3.35,2.41-3.52a66.08,66.08,0,0,1-5.73-6.87A35.39,35.39,0,0,1,7.3,96.12Z"/><path class="cls-3" d="M21.78,90.48V87.34l-1-1.86c-2.75-.27-1.86-2.39-2-4l-.93-1.1h.1c-3.18-1-4.35.2-5.35,3.38-.73,2.31-1.51,4.63-2.45,6.87a66.08,66.08,0,0,0,5.73,6.87,7.37,7.37,0,0,1,.9,0C15,92.72,20.2,92.88,21.78,90.48Z"/><path class="cls-2" d="M88.88,9.28c-1.67-1.8-3.88-1.8-6.19-1.84,0,1.13-.25,2.35.15,3.35,1.71,4.15.26,4.95-3.52,3.58a4.57,4.57,0,0,0,0,.79c0,.5.61,1.1-.25,1.44l-.23-1.31L75.68,9.51c-1.89.85-3-3.44-5.14-.82.51,3.09,4,4.6,4.2,7.84a4.7,4.7,0,0,1,1.78,3.09c.94.35,1,1.14,1,2l1.31,1.06c1.6.26,3.6,1.25,4.74.64,3-1.55,5-1.41,7,3.27C90.6,19.56,88.34,14.55,88.88,9.28Z"/><path class="cls-4" d="M81.37,36.72c-2.79-.46-3.18,4.28-6.38,2.9-1.06,6.64-6.26,12.61-3.26,19.92,1.88.18,1.88-1.82,2.88-2.82,1.73.68.32,5.93,4.13,2.75.29-6.69,3.1-13.15,2.1-20Z"/><path class="cls-5" d="M31.8,2.65c2,2.72,5-1.75,7,1C45.5,2,45.59,2.09,46,10.91c1.18-1.66.13-4.71,3-4.21,2.47.44,2.7,2.49,2.78,4.59s.25,4,3,4.16c.26-1.31-1.87-2.63,0-3.93-.62-2-2.88-3.42-2-5.92-1.48-.15-2.69-.76-4.55-2.5,3.52.68,6.13-.1,8.52,1.5,4.26-.25,6,4.63,10,5q.09-1.78.09-3.55V4C55.29.71,43.68-1.77,31.8,2.65Z"/><path class="cls-1" d="M13.84,6.48a7.35,7.35,0,0,0,.92-4.35c-6.45,3.69-9,10.68-13.51,16C-.3,20-.58,21.94,1.42,23.83c1.41,1.34,2,4.47,3.79,4.2,2.45-.36,2.39-3.62,3.34-5.62a2.49,2.49,0,0,0,0-1c-1-.14-2.58,1.61-2.84-1-.24-2.32-1.81-5,2-5.83l1.07-1a4.74,4.74,0,0,0,0-1c-.22-1.65,1.32-2.07,2.13-3,1.09-.44,1.82-.51,1.88,1.09.07,1.82-.68,3.87.94,5.61C18,9.48,18,9.48,13.84,6.48Z"/><path class="cls-6" d="M77.71,62.63l0-.06.2-.42-.24.38Z"/><path class="cls-6" d="M82.5,65.87a17.37,17.37,0,0,0-3.76-6.37c-3.82,3.18-2.4-2.07-4.13-2.75-1,1-1,3-2.88,2.82-.66,4.35-1.37,8.69-1.93,13-.11.85-.32,2.21,1,2.41h.3a1.66,1.66,0,0,0,1.49-1.82c-.26-4.5,3.94-6.79,5.13-10.55l0-.1.24-.38-.2.42,0,.06,1.3,7.9,1.15-3.09c.81.81,1,2.37,2.61,2.12Z"/><path class="cls-4" d="M19.8,39.52l-.12-1a4.85,4.85,0,0,1-3.4-5.62c.14-1.29.37-2.22-1.26-2.4-.23,2.13-.44,4.26-.69,6.39-.69,5.92-1.3,11.83,1.08,17.56l5.39-.94.88-.1.12-1.89h-1C16.92,48.76,16.43,42.59,19.8,39.52Z"/><path class="cls-6" d="M19.63,17.48c-1.83.15-1.51,1.73-2,2.89-1.26,3-.4,6.63-2.87,9.23l.18,1c1.63.18,1.4,1.1,1.26,2.4a4.85,4.85,0,0,0,3.48,5.52c-1.49-4.62-1.18-8.78,2.91-12-.83-.12-2-.59-1.41-1.36C23.92,21.82,22.47,19.56,19.63,17.48Z"/><path class="cls-7" d="M6.08,94.88h0L7.3,96.13a35.38,35.38,0,0,0,2.84-5.5c-.42-.58-.83-1.17-1.24-1.76A64.68,64.68,0,0,1,6.08,94.88Z"/><path class="cls-7" d="M17.95,80.38l-2.45-11c-2.19,6.51-4,13.14-6.59,19.47.41.6.82,1.18,1.24,1.76.94-2.24,1.72-4.56,2.45-6.87C13.61,80.58,14.77,79.33,17.95,80.38Z"/><path class="cls-8" d="M14.71,2.13a7.35,7.35,0,0,1-.87,4.35C17.21,4,21.62,5,25.22,3c2.35-1.3,2.56.88,2.76,2.55,2,.18,2.88-.82,2.72-2.82C25.5-2.13,20.1.71,14.71,2.13Z"/><path class="cls-9" d="M84.16,69.8l-1.35-.23c-1.61.25-1.8-1.31-2.61-2.12L79,70.54l-.31,0-.81,4c1.44,1.51.54,3.42.88,5.12,3.6,1,3.33-3.54,5.83-4.13l.46-2.18Z"/><path class="cls-4" d="M31.79,2.66l-1.09.06c.16,2-.72,3-2.72,2.82-.83,2.63-4.06,3.88-4.08,7,4.56-1,6.44-6.57,11.44-6.74.81,0,1.61-.17,2.42-.26l1-1.89C36.79.9,33.79,5.37,31.79,2.66Z"/><path class="cls-1" d="M82.94,10.79a9.29,9.29,0,0,1-.15-3.35c-.6-1.31-1.81-1.49-3-1.67-1.92,2.8-1.26,5.69-.34,8.6C83.2,15.79,84.65,14.94,82.94,10.79Z"/><path class="cls-5" d="M72.76,3.77c.48,2.17,3.82,2.85,3,5.73l3.17,5.79a4.13,4.13,0,0,1,.49-.13,4.13,4.13,0,0,1,0-.79c-.92-2.91-1.59-5.81.34-8.6C77.62,4.38,75.39,3.31,72.76,3.77Z"/><path class="cls-1" d="M72.72,3.78,66.83,4V6l3.75,2.68c2.14-2.61,3.25,1.67,5.14.83C76.58,6.63,73.24,5.95,72.72,3.78Z"/><path class="cls-5" d="M15.34,54.51a.74.74,0,0,0,.17.87,1.28,1.28,0,0,1,.34.91l.06.19c2.88.48.91,5.46,4.71,5.09h1v-7l-.89-1Z"/><path class="cls-7" d="M16,56.46l-.13,3.26c1.16,1.92,1.09,4.4,2.77,6.08a3.72,3.72,0,0,0,2.07-4.25C16.87,61.92,18.84,56.94,16,56.46Z"/><path class="cls-10" d="M82.5,65.87l.31,3.7,1.35.23C84.44,68.15,84.15,66.74,82.5,65.87Z"/><path class="cls-1" d="M8.7,20.86l2.11.36C10.28,20.11,9.57,20,8.7,20.86Z"/><path class="cls-7" d="M15.34,55.72a4.72,4.72,0,0,0,.55.55,1.28,1.28,0,0,0-.34-.91A3.17,3.17,0,0,1,15.34,55.72Z"/><path class="cls-11" d="M56.63,111.86c0-.31,0-.62,0-.93A45.71,45.71,0,0,1,46.4,112.6c.74,0,1.49.08,2.24.08A39.85,39.85,0,0,0,56.63,111.86Z"/><path class="cls-11" d="M41.16,112.58c1,.07,2,.11,3,.11.75,0,1.5,0,2.25-.08a39.84,39.84,0,0,1-5-.61C41.3,112.19,41.23,112.38,41.16,112.58Z"/><path class="cls-11" d="M55.7,100.69c-.71-1.67,1.67-1.83,3-2.19l-.11-2.08c-4.68,2.18-9.86,2.14-14.78,3.25,0,1.43,0,2.81-2,2.94a4,4,0,0,0-.29.73c1.3,3,.77,5.92-.2,8.65a39.84,39.84,0,0,0,5,.61,45.71,45.71,0,0,0,10.24-1.68C56.72,107.51,57.15,104.08,55.7,100.69Z"/><path class="cls-2" d="M62.74,31.55h0Z"/><path class="cls-2" d="M71.18,29.9c-3.6-3.07-8.25-4.74-11.68-8.13l-1.42.08A15,15,0,0,0,56.71,25c-.41,2.23-1,4.25-3.75,3-2.3-1-5.9-1.35-4.4-5.44l-.45.05-.42-.17c-1.66.84-.62,3-2.23,4.09-4.89,3.24-5.24,3.08-6.47-4.11l-2.39-.68-2,.83c-1.29,1.24-2.4,2.8-3.92,3.65s-4.38,0-4.12,3-4.4.86-3.55,3.29c.56,1.6,2.81,2.6,4.27,3.91a1.71,1.71,0,0,1,.31.92c.43,2.4,1.41,2.75,3.3,1.1,1.38-1.21,4.06-1.71,2.16-4.35-.54-.76-2.28-.68-.66-2.22,1.15-1.07,1.85-.95,2.91-.07,2.26,1.88,3.06,3.58.59,6.14-2.23,2.34-5.78,3.09-7.23,6.94-1.45-2.59-3-5.4-5.29-3.49-1.7,1.39-1,4.31.84,6.21,2.37,2.46,5.9,3.66,7.42,7,1.57-.18,3.27,0,3.93-2-1.24-.36-3.37.83-3.45-1.52a2.39,2.39,0,0,1,2.58-2.46c2.08.11,3-.51,2.38-2.89-.35-1.27.73-2.39,1.81-3.27,2.53-2.06,5-4.21,5.92-7.56.41-1.51,1.69-1.3,2.82-1.37,2.25,1.47,1.47,4,2.19,6,1.81,0,2.26,1.8,3.42,2.58,2,1.37,2.47,4.71,1.47,4.63-2.51-.2-5.24,3.24-7,.52-2.24-3.5-4.44-1-5.44,0-1.65,1.65-2.44,4.24,1.56,4.74.47.05,1,.91,1.19,1.49.77,3.09,2.36,3.17,4.6,1.45.88-.63,1.48-1.81,3-.63s2.54.15,2.92-1.27c.44-1.65.6-3.72,2.84-3.24,2.08.45,2.27,2.59,2.39,4.45l1,2.29c4,2,2.61-1.42,3-3l-1.32-.4.25-.39,1.06.77c4.82-2,5.39-6,5.39-10.75-1.36.41-2.58.4-3.2,1-3.81,3.72-5.65-3.75-9.11-1.51-3.08-3.87-.56-9.44,4.91-10.71h0c1.17-1.36,2.84-1.1,5.33-2.29-1.93,3-3.85,2-5.33,2.29h0a14.55,14.55,0,0,1,.53,3.84c-.21,1.61-1,3.11,1.16,4.16s3.46.16,4.63-1.34c1.71-2.24,3.65-1.86,5.71-.61C77.68,33.16,73.37,31.77,71.18,29.9ZM46,50.73a1,1,0,0,1,.08-.38c0-.08.2-.08.3-.08l.14.36Z"/><path class="cls-5" d="M38.77,6.62l-1-1.08a22.09,22.09,0,0,1-2.42.26c-5,.2-6.85,5.77-11.44,6.74l-1.25,1.71c-.18,1-.92,1.2-1.82,1.2l-.06.06c.06.87-.06,1.63-1.06,1.93,2.85,2.08,4.29,4.34,1.55,7.67-.59.77.58,1.24,1.41,1.36,2.6-1.53,6.12-1.16,8.12-4-.14-2.83.27-5.22,4-4.88,1.61-1.41.72-3.33,1-5-1.62.16-3.62,3-4.62.83-1.17-2.58,3-1.12,3.59-2.91C34.07,7.12,37.58,8,38.77,6.62Z"/><path class="cls-8" d="M38.38,54.38c-.34-.83-.72-2.89-2.72-1.83-.66,2-2.37,1.86-3.93,2a6.84,6.84,0,0,1-1,1.67c-3,2.66-6.44,5.08-3.58,9.86.09.17-.17.6-.34.86-2.57,3.83-.66,5.65,3,6.65l.94-1.06c1.26-2.7-.52-6.94,4.07-7.94,1-4.42,5.69-3.65,8.13-6A8.27,8.27,0,0,1,38.38,54.38Z"/><path class="cls-7" d="M61.78,82.22a24.73,24.73,0,0,0-3-1.64l-2.06-.09a40.71,40.71,0,0,1-14.16-1.18c-1.41-.41-2.65-1.11-2.65,1.2,2.1,1,3.42,2.46,2.61,5-1.48,2.47-3.37-.49-5,.34,2.23,3.56,5.55,1.35,8.39,1.5,1.23.06,2.5-.6,3.76-.94.4-.63.8-.57,1.19,0,2.39.12,4.87-.19,7,1.2h2.93a4.68,4.68,0,0,0,4.51-3.67C65.78,81.22,62.93,83.06,61.78,82.22Z"/><path class="cls-6" d="M66.74,107.53c.34-.46.7-.89,1.06-1.32q-.8.45-1.6.87A5.31,5.31,0,0,0,66.74,107.53Z"/><path class="cls-6" d="M77.93,74.51c-1.82,2.82-1.82,6.49-4.36,9l.21,2.09c-1,5.88-4.82,10.6-7.28,15.88-.9,1.9-2.22,3.77-.3,5.55q.81-.42,1.6-.87a13.64,13.64,0,0,1,6.94-4.68l.15-1.88c-.32-3.56,1.25-6.7,2.06-10,.68-2.7-1.14-6,1.86-8.13v-1.9C78.47,77.93,79.38,76,77.93,74.51Z"/><path class="cls-4" d="M60.35,111.22c1.65-.1,2.3,1.36,3.37,2.17a2,2,0,0,1,1-1.94l2-3v-.06a43.14,43.14,0,0,1-6.46,2.55C60.29,111,60.31,111.13,60.35,111.22Z"/><path class="cls-4" d="M66.23,107.06A51.39,51.39,0,0,1,60,109.84a10.3,10.3,0,0,0,.29,1.1,43.14,43.14,0,0,0,6.46-2.55v-.94A5.4,5.4,0,0,1,66.23,107.06Z"/><path class="cls-4" d="M62.75,94.28c.61,3.86-1,7.06-3,10.16a24.42,24.42,0,0,0,.23,5.4,51.39,51.39,0,0,0,6.26-2.78c-2-1.76-.68-3.65.25-5.62,2.46-5.28,6.28-10,7.28-15.88C69.24,87.44,67.18,92.36,62.75,94.28Z"/><path class="cls-6" d="M80.74,28.47c-.55-1.94-2.74-3.35-1.87-5.75l-1.31-1.06a5.33,5.33,0,0,0-1.76,3.8c-.16,4.52-2.14,2.7-4.06,1.22-2.69-2.29-6.07-3.38-9.07-5l-3.15.09c3.43,3.38,8.08,5.06,11.68,8.13,2.19,1.87,6.5,3.26,3.59,7.7q.1,1,.19,2.06c3.2,1.38,3.6-3.38,6.39-2.92l.3-3.07C79.31,32.3,79,30.57,80.74,28.47Z"/><path class="cls-8" d="M62.63,60.23c-1.29-.88-.68-2.43-.78-3.7l-1-2.29c-3.11.09-6.82,2.33-5.3,4.44,2.71,3.91,3,8.23,4.52,12.23.44,1.18-.08,4.14,2.63,3,1.55-.65,3.16-2.25,1.16-4.32-.46-.48-.82-.92-.23-1.67C65.89,65,65.89,62.47,62.63,60.23Z"/><path class="cls-12" d="M49.64,86.35c-1.25.33-2.53,1-3.76.94-2.83-.15-6.16,2.06-8.39-1.5-3.44-.7-2.59,1.92-2.85,3.68,2,3.16,5.87,2.94,8.33,2.87,5.18-.15,11.14.38,14.93-4.78-2.18-1.38-4.65-1.08-7.05-1.2Z"/><path class="cls-12" d="M46.91,68.5a4.13,4.13,0,0,1-4.18-1.16l-1.95.24-1.15,2.09c-.21,2.47,1.52,4.24,2.32,6.35,2.41,1.57,4.73,1.83,6.73-.62C52.08,72.07,49.13,70.38,46.91,68.5Z"/><path class="cls-2" d="M35.28,71.63a6.85,6.85,0,0,0-4.56.9l-.94,1.06c-.81,3.78-5.14,4.14-6.83,7l-.16,1.9h1.1c1.24-4.32,4.36-2,6.84-2,1.39,0,2.58-1.24,4.07-.67.86-1.62,2,.23,3-.23l.08-2.26C39,74.55,34.42,74.33,35.28,71.63Z"/><path class="cls-5" d="M34.77,79.86c-1.49-.57-2.68.67-4.07.67.27,2.88-5.86.55-3.76,4.29C28,86.72,30.8,87.69,32.8,89a6.53,6.53,0,0,0,1.89.47c.25-1.76-.6-4.38,2.85-3.68,1.6-.83,3.49,2.13,5-.35C40.13,83.32,35.51,84.29,34.77,79.86Z"/><path class="cls-2" d="M42.91,58.6c-2.44,2.39-7.13,1.62-8.13,6-.36,2,.81,3.27,2,4.58a1,1,0,0,0,.7.08l1.2-2.82c2.53-3.79,5.53-6.71,10.85-5.41C48.3,56.53,45.12,59.06,42.91,58.6Z"/><path class="cls-10" d="M24.42,90.62l-2.65-.07c-1.59,2.39-6.75,2.24-5,7,4.15,1.77,6.9-1.13,10-2.94a8.49,8.49,0,0,0,0-1l-.85-1.34Z"/><path class="cls-2" d="M71.17,83.58c.57,1.51,1.58.12,2.39-.07,2.56-2.49,2.56-6.18,4.37-9l.8-3.93C76.65,71.38,70.46,81.7,71.17,83.58Z"/><path class="cls-7" d="M31,96.28l-.31.28c.51,2.46,2.91,2.92,4.6,3.86,1.91,1.06,3.19,2.23,3.6,4.34l2.62-1.41a3.87,3.87,0,0,1,.29-.73c-.35-1.21.48-2.09.88-3.09C38.63,99.19,34.94,97.39,31,96.28Z"/><path class="cls-7" d="M20.75,51.56q.28-1.64.53-3.24c-.67-2.89-.09-6-1.53-8.76C16.42,42.56,16.91,48.77,20.75,51.56Z"/><path class="cls-7" d="M47.72,33.52c-1,3-1.05,6.4-4,8.79,5.11.42,5.11.42,6.23-2.79C49.19,37.52,50,34.95,47.72,33.52Z"/><path class="cls-7" d="M53.71,70.49V68.76c-1.46.44-2.9,1.84-4.06-.7-1-2.21-2.14-1.78-2.73.43,2.21,1.9,5.16,3.58,1.77,6.9,1.81.27,3.15-1.85,5-.89l1-1.86A1.76,1.76,0,0,1,53.71,70.49Z"/><path class="cls-12" d="M59.79,95.64l-1.17.78.11,2.08c.44,2.05-.85,4.3,1.06,6.05,1.94-3.1,3.58-6.3,3-10.16Z"/><path class="cls-8" d="M42.73,67.33a4.13,4.13,0,0,0,4.18,1.16c.59-2.2,1.73-2.63,2.73-.43,1.16,2.55,2.6,1.14,4.06.7C47.65,63.07,47,63,42.73,67.33Z"/><path class="cls-2" d="M55.75,72.59l-1,0-1,1.86c-.9,2.93,3.17,3.37,3,6l2,.13C58.75,77.52,59.52,74.22,55.75,72.59Z"/><path class="cls-3" d="M30.73,22.45l2.07-.24c1.1-1,2.52-.62,3.8-.88.27-1.7-1.41-2.43-1.87-3.76C31,17.23,30.6,19.62,30.73,22.45Z"/><path class="cls-6" d="M20.67,61.55A3.72,3.72,0,0,1,18.6,65.8c.42,1.42-.46,3.43,1.83,4.06a13.51,13.51,0,0,0,1.24-8.31Z"/><path class="cls-8" d="M22.79,82.55l.16-1.9-3.06-5.83C19.43,78.08,20.25,80.7,22.79,82.55Z"/><path class="cls-8" d="M38.74,66.48,37.5,69.25l2.17.41,1.14-2.08C40.4,66.69,39.58,66.56,38.74,66.48Z"/><path class="cls-7" d="M20.81,85.54a6.69,6.69,0,0,0-2-4C18.93,83.14,18,85.26,20.81,85.54Z"/><path class="cls-7" d="M21.76,87.41v3.14l2.65.07C24,89.14,22.87,88.31,21.76,87.41Z"/><path class="cls-7" d="M27.94,94l-.2,1.59,3,1,.31-.28C30.47,94.93,29.19,94.48,27.94,94Z"/><path class="cls-6" d="M21.33,48.29l-.58,3.27,1,0C22.41,50.38,23.25,49.17,21.33,48.29Z"/><path class="cls-12" d="M42.73,99.52c-.4,1-1.2,1.89-.88,3.1,1.92-.14,2-1.52,2-3Z"/><path class="cls-8" d="M53.8,70.48a1.76,1.76,0,0,0,1,2.15l1,0a1.92,1.92,0,0,0-2-2.1Z"/><path class="cls-2" d="M65.5,59l-.37.82.83.37c.12-.28.4-.61.32-.81S65.77,59.12,65.5,59Z"/><path class="cls-5" d="M32.81,22.21l1.93.29,2-.83-.12-.33C35.34,21.59,33.91,21.21,32.81,22.21Z"/><path class="cls-4" d="M26.74,93.6a8.54,8.54,0,0,1,0,1l1,1,.2-1.6-1.2-1.4Z"/><path class="cls-7" d="M18.78,81.52l-.93-1.1Z"/><path class="cls-8" d="M23.86,82.51h-1.1C23.13,83.42,23.5,83.12,23.86,82.51Z"/><path class="cls-7" d="M26.76,93.64v-1a1.57,1.57,0,0,0-.85-.34Z"/><path class="cls-13" d="M58.56,96.46l1.17-.78A.93.93,0,0,0,58.56,96.46Z"/><path class="cls-6" d="M20.73,53.52l.89,1q0-.52,0-1.1Z"/><path class="cls-2" d="M80.74,28.44c-1.75,2.1-1.42,3.83.93,5.2,1-.26,2.83.25,2.8-1.27C84.43,30.23,82.74,29,80.74,28.44Z"/><path class="cls-4" d="M84.59,75.5c-2.5.6-2.23,5.13-5.83,4.13v1.9c-.71,2.69,1.74,6.11-1.92,8.06-.81,3.33-2.38,6.47-2.06,10h1c.88-5.08,5.41-8.71,5.5-14.4,0-1.14,1.58-6.14,5.49-6.61C87,76.89,85.28,76.55,84.59,75.5Z"/><path class="cls-14" d="M77.19,99.6l1.46,0A9.05,9.05,0,0,0,81.08,96Q79.18,97.91,77.19,99.6Z"/><path class="cls-14" d="M86.82,78.58c-3.91.47-5.49,5.47-5.49,6.61-.09,5.7-4.62,9.32-5.5,14.4h1.37q2-1.68,3.89-3.56c1.69-4.23,1.25-9.51,5.5-12.48l1.16-2V80.48A1.92,1.92,0,0,0,86.82,78.58Z"/><path class="cls-8" d="M7.68,14.6a3.64,3.64,0,0,0,1.69,2.74c.69-1.42-.17-2.54-.62-3.74Z"/><path class="cls-8" d="M8.79,12.59c1.76-.26,2-1.59,2.13-3C10.1,10.51,8.56,10.93,8.79,12.59Z"/><path class="cls-6" d="M20.78,15.51c.89,0,1.63-.2,1.82-1.2C21.83,14.48,21,14.57,20.78,15.51Z"/><path class="cls-6" d="M19.66,17.5c1-.3,1.12-1.06,1.06-1.93C19.75,15.88,19.67,16.67,19.66,17.5Z"/><path class="cls-14" d="M13.76,105.6c1.33,0,2.85.09,3.5-1.33l0,0q-1.9-1.25-3.74-2.67C13.67,102.91,13.75,104.25,13.76,105.6Z"/><path class="cls-14" d="M16,97.64c-1.93.14-2.92,1.12-2.52,3.52,0,.13,0,.27,0,.4q1.84,1.42,3.74,2.67c1-2.14,1.88-2.92,2.71-2.84C18.62,100.23,17.3,99,16,97.64Z"/><path class="cls-14" d="M22.78,104.57h1.31q-1.16-.81-2.28-1.69A15.61,15.61,0,0,1,22.78,104.57Z"/><path class="cls-14" d="M27.74,95.57l-1-1c-3.07,1.85-5.82,4.75-9.93,3.06a7.57,7.57,0,0,0-.79,0c1.28,1.33,2.6,2.59,4,3.76.63.06,1.23.62,1.82,1.47q1.13.88,2.28,1.69h.76C27.94,102.26,27.38,98.77,27.74,95.57Z"/><path class="cls-9" d="M76.6,19.67c-2-.24-1.78-1.69-1.78-3.09-4.45-.28-5.63-4.35-8.08-7-4-.37-5.7-5.25-10-5v2c2.64.91,5.36,1.63,6,4.91a8.48,8.48,0,0,1,2,7l1,3c3.74-.33,7.08-.2,6,5.11,1.92,1.49,3.9,3.3,4.06-1.22a5.33,5.33,0,0,1,1.76-3.8C77.6,20.76,77.5,20,76.6,19.67Z"/><path class="cls-4" d="M66.83,6q-.09,1.78-.09,3.55c2.45,2.6,3.63,6.67,8.08,7-.24-3.23-3.69-4.74-4.2-7.84Z"/><path class="cls-4" d="M74.79,16.5c0,1.4-.22,2.85,1.78,3.09A4.7,4.7,0,0,0,74.79,16.5Z"/><path class="cls-1" d="M79.41,15.16a4.13,4.13,0,0,0-.49.13l.24,1.31C80,16.25,79.41,15.66,79.41,15.16Z"/><path class="cls-6" d="M54.88,19.73a34.92,34.92,0,0,0-.09-4.28c-2.74-.16-2.91-2.19-3-4.16S51.56,7.14,49,6.7c-2.88-.51-1.84,2.55-3,4.21C45.59,2.09,45.5,2,38.8,3.65L37.73,5.54l1,1.08c1.5.05,2.84-.34,4.28-2.89.13,4.61-1.46,6.22-4.21,7a2,2,0,0,1-1.06,1.87c2.11,3.2,3.34-2.55,5.55.31-3.38,1.9-1.06,6.72-4.16,9.48,1.24,7.18,1.58,7.35,6.48,4.1,1.61-1.09.57-3.25,2.23-4.09,0-2.65-4.49-3.87-2.39-7.42,3.26,1.69,3.43,4.53,3.26,7.53-1.65,4.18,1.94,4.56,4.25,5.56,2.75,1.21,3.34-.81,3.75-3a15,15,0,0,1,1.37-3.15C56.17,22.43,54.61,22.55,54.88,19.73ZM52.09,24c-.53-.16-.8-.17-.81-.23-.61-2.19-1-4.4.2-6.52.08-.15,1.14,0,1.24.18C53.79,19.78,52.75,21.84,52.09,24Z"/><path class="cls-4" d="M62.71,11.43c-.67-3.28-3.39-4-6-4.91a6.44,6.44,0,0,0,2.27,6c-2.39,1.48-2.94-.72-4.19-1-1.85,1.3.27,2.62,0,3.93a34.94,34.94,0,0,1,.09,4.28c-.27,2.82,1.29,2.7,3.2,2.19l1.42-.15,3.13-.21,3.08-.13-1-3C58.29,16.62,58.23,16.43,62.71,11.43Z"/><path class="cls-6" d="M56.72,6.64h0V6.58S56.72,6.62,56.72,6.64Z"/><path class="cls-6" d="M56.72,6.64l-3.91-1c-.88,2.5,1.39,3.93,2,5.93,1.24.26,1.79,2.46,4.19,1A6.44,6.44,0,0,1,56.72,6.64Z"/><path class="cls-4" d="M48.25,3.08c1.86,1.74,3.07,2.36,4.55,2.5l3.93,1q0-1,0-2C54.39,3,51.77,3.76,48.25,3.08Z"/><polygon class="cls-1" points="77.77 62.58 77.97 62.16 77.73 62.54 77.77 62.58"/><path class="cls-12" d="M37.93,112.24q1.61.22,3.24.33c.07-.19.14-.39.21-.58-1-.19-2.07-.42-3.09-.69C38.17,111.61,38,111.93,37.93,112.24Z"/><path class="cls-12" d="M41.59,103.33,39,104.74l-.37,1.67c.06,1.31.53,2.82.06,3.92-.14.32-.25.65-.37,1,1,.27,2.05.5,3.09.69C42.36,109.25,42.89,106.37,41.59,103.33Z"/><path class="cls-13" d="M56.64,110.92c0,.31,0,.62,0,.94q1.82-.37,3.6-.91a10.32,10.32,0,0,1-.28-1.1Q58.32,110.45,56.64,110.92Z"/><path class="cls-13" d="M59.77,104.55c-1.91-1.74-.63-4.05-1.06-6.05-1.33.36-3.72.5-3,2.19,1.47,3.39,1,6.82.95,10.23q1.67-.48,3.32-1.07A25.25,25.25,0,0,1,59.77,104.55Z"/><path class="cls-4" d="M37.74,12.56v0h-2c-.24,1.7.65,3.62-1,5,.46,1.33,2.14,2.06,1.87,3.76l.12.33,2.39.68c3.1-2.76.78-7.58,4.16-9.48C41.08,10,39.85,15.76,37.74,12.56Z"/><path class="cls-5" d="M45.45,14.94c-2.1,3.55,2.39,4.77,2.39,7.42l.42.16.45,0C48.88,19.48,48.71,16.63,45.45,14.94Z"/><path class="cls-1" d="M68.1,29.26c-2.49,1.19-4.16.92-5.33,2.29C64.25,31.21,66.17,32.24,68.1,29.26Z"/><path class="cls-1" d="M62.76,31.56h0Z"/><polygon class="cls-1" points="64.75 53.56 64.76 53.54 64.7 53.52 64.75 53.56"/><polygon class="cls-1" points="63.44 53.18 64.7 53.52 63.69 52.79 63.44 53.18"/><path class="cls-1" d="M46,50.34a1,1,0,0,0-.08.38l.52-.1-.14-.35C46.25,50.29,46.09,50.28,46,50.34Z"/><path class="cls-4" d="M38.73,6.62c-1.23,1.44-4.7.5-3.93,3.93h2c.64.18,1.61-3.11,2,.18,2.75-.82,4.34-2.43,4.21-7C41.57,6.28,40.23,6.67,38.73,6.62Z"/><path class="cls-9" d="M31.14,13.35c1,2.17,3-.67,4.62-.83h1v-2h-2C34.12,12.31,30,10.85,31.14,13.35Z"/><path class="cls-1" d="M34.78,64.6c-4.59,1-2.81,5.24-4.06,7.94a6.86,6.86,0,0,1,4.56-.9l1.5-2.46C35.59,67.88,34.42,66.6,34.78,64.6Z"/><path class="cls-1" d="M53.75,74.5c-1.91-1-3.25,1.16-5.07.88-2,2.45-4.32,2.2-6.73.62l-4.06,1.37-.08,2.26c.46.9,1.26,1,2.12.84,0-2.31,1.24-1.61,2.66-1.2a40.72,40.72,0,0,0,14.16,1.18C56.92,77.87,52.86,77.43,53.75,74.5Z"/><path class="cls-6" d="M39.92,80.48c-.86.1-1.66.06-2.12-.84-1,.46-2.14-1.39-3,.26.77,4.42,5.36,3.46,7.77,5.58C43.34,82.92,42,81.48,39.92,80.48Z"/><path class="cls-15" d="M49.66,86.36h1.19C50.5,85.79,50.06,85.74,49.66,86.36Z"/><path class="cls-10" d="M77.21,99.59q-1.23,1-2.5,2a15.19,15.19,0,0,1,0,1.83c1.35-1,2.67-2.14,3.95-3.32v-.52Z"/><path class="cls-10" d="M74.86,99.57l-.15,1.88v.15q1.26-1,2.5-2H75.83Z"/><path class="cls-3" d="M66.74,108.53a2.13,2.13,0,0,1,1,2h2c.28-1.64.61-3.37,2.46-3.9a3.1,3.1,0,0,0,2.54-3.18,48.59,48.59,0,0,1-8,4.94Z"/><path class="cls-3" d="M74.69,101.62a59.6,59.6,0,0,1-7,4.62c-.34.42-.68.84-1,1.29v.85a48.59,48.59,0,0,0,8-4.94A16.47,16.47,0,0,0,74.69,101.62Z"/><path class="cls-3" d="M67.74,106.24a59.6,59.6,0,0,0,7-4.62v-.12A13.4,13.4,0,0,0,67.74,106.24Z"/><path class="cls-9" d="M78.76,81.53c-3,2.17-1.18,5.47-1.86,8.13C80.55,87.64,78,84.22,78.76,81.53Z"/><path class="cls-10" d="M66.75,108.52l-2,3c1.11,0,2.29.18,3-1A2.13,2.13,0,0,0,66.75,108.52Z"/><path class="cls-5" d="M65.75,21.54l-3.08.13c3,1.62,6.38,2.71,9.08,5C72.82,21.34,69.48,21.21,65.75,21.54Z"/><path class="cls-7" d="M37.47,69.25a1,1,0,0,1-.7-.08l-1.5,2.46c-.87,2.74,3.74,2.92,2.6,5.74L41.95,76c-.8-2.1-2.53-3.87-2.31-6.35Z"/><path class="cls-4" d="M30.8,110.77l.19,0-.52-.16A3.69,3.69,0,0,0,30.8,110.77Z"/><path class="cls-4" d="M24.8,107.5a2.15,2.15,0,0,1,2,1c1.63-.08,2.48,1.3,3.67,2.07l.52.16.81-.19a12.43,12.43,0,0,1,.13-1.49,47,47,0,0,1-7.13-4Z"/><path class="cls-4" d="M37.71,106.44a6,6,0,0,1,.87,0l.37-1.67c-.45-2.12-1.7-3.28-3.66-4.35-1.68-.94-4.09-1.39-4.6-3.86l-3-1c-.36,3.19.2,6.68-2.89,9v.52a47,47,0,0,0,7.13,4C32.39,106.07,34,104.8,37.71,106.44Z"/><path class="cls-10" d="M17.22,104.2q1.29.85,2.6,1.62c.4-.65,1.25-1.13,2.88-1.25a14.78,14.78,0,0,0-1.05-1.81c-.56-.44-1.12-.89-1.67-1.36C19.13,101.27,18.23,102,17.22,104.2Z"/><path class="cls-10" d="M20,101.4c.55.47,1.11.92,1.67,1.36A2.84,2.84,0,0,0,20,101.4Z"/><path class="cls-10" d="M31.83,110.56l-.79.18A46.22,46.22,0,0,0,38,112.25c.11-.31.24-.63.36-.94-1.26-.34-2.5-.72-3.73-1.17A5.46,5.46,0,0,1,31.83,110.56Z"/><path class="cls-10" d="M38.61,106.47a6,6,0,0,0-.87,0,5.48,5.48,0,0,1-3.15,3.67c1.23.45,2.47.84,3.73,1.17.12-.31.22-.61.35-.92C39.14,109.29,38.61,107.79,38.61,106.47Z"/><path class="cls-3" d="M88.1,89.26c-.11-.23-.23-.45-.34-.68a81.25,81.25,0,0,1-6.57,7.36,9.09,9.09,0,0,1-2.45,3.63v.52A64.84,64.84,0,0,0,88.1,89.26Z"/><path class="cls-3" d="M86.67,83.51c-4.24,3-3.82,8.21-5.48,12.43a81.25,81.25,0,0,0,6.57-7.36A8.88,8.88,0,0,1,86.67,83.51Z"/><path class="cls-10" d="M22.77,104.51c0,1.52,0,3,2.08,3v-2.4l-.8-.56Z"/><path class="cls-10" d="M24.05,104.55l.8.56v-.54Z"/><path class="cls-6" d="M64.72,18.53a8.48,8.48,0,0,0-2-7C58.21,16.46,58.27,16.67,64.72,18.53Z"/><path class="cls-9" d="M51.48,17.25c-1.2,2.11-.81,4.32-.2,6.52,0,.07.28.08.81.23.65-2.17,1.7-4.24.63-6.57A1.72,1.72,0,0,0,51.48,17.25Z"/><path class="cls-5" d="M36.75,10.56v2l-.06.05h1a2,2,0,0,0,1.06-1.87C38.38,7.45,37.41,10.75,36.75,10.56Z"/><path class="cls-16" d="M20.63,111.2c.06,2.75,3.23,3.64,6.15,2.36,0-1.42,0-2.86,0-4.29a53,53,0,0,1-7-3.43C18.89,107.41,20.54,110,20.63,111.2Z"/><path class="cls-16" d="M24.83,107.56c-2.08,0-2.08-1.53-2.08-3-1.64.13-2.49.62-2.9,1.28a53,53,0,0,0,7,3.43c0-.24,0-.47,0-.71A2.15,2.15,0,0,0,24.83,107.56Z"/><path class="cls-14" d="M31.8,110.56a5.46,5.46,0,0,0,2.78-.43q-1.33-.49-2.64-1.08A12.18,12.18,0,0,0,31.8,110.56Z"/><path class="cls-14" d="M37.71,106.47c-3.64-1.63-5.3-.38-5.77,2.58q1.31.58,2.64,1.08A5.48,5.48,0,0,0,37.71,106.47Z"/><path class="cls-14" d="M26.77,109.25q1.76.71,3.56,1.28c-1.09-.78-1.94-2.06-3.55-2C26.77,108.78,26.77,109,26.77,109.25Z"/></g></g></svg>