<?xml version="1.0" encoding="utf-8"?>
<!-- Generator: Adobe Illustrator 20.0.0, SVG Export Plug-In . SVG Version: 6.00 Build 0)  -->
<svg version="1.1" id="Layer_1" xmlns="http://www.w3.org/2000/svg" xmlns:xlink="http://www.w3.org/1999/xlink" x="0px" y="0px"
	 viewBox="0 0 228.4 335.1" style="enable-background:new 0 0 228.4 335.1;" xml:space="preserve">
<style type="text/css">
	.st0{fill:#E5DCD0;}
	.st1{fill:#BA9166;}
	.st2{fill:#3B352E;}
	.st3{fill:#F2ECE2;}
	.st4{fill:#C2BBB1;}
	.st5{fill:#655F54;}
	.st6{fill:#B9AEA2;}
	.st7{fill:#D3CDC2;}
	.st8{fill:#564E44;}
	.st9{fill:#797268;}
	.st10{fill:#989186;}
	.st11{fill:#A6A096;}
	.st12{fill:#FEFEFE;}
	.st13{fill:#E7CDA7;}
	.st14{fill:#888176;}
</style>
<title>catt</title>
<g id="Layer_2">
	<g id="Layer_1-2">
		<path class="st0" d="M161.8,272.3v5.2c0.1,5,8.6,4.3,7,10.4c4.4-1.1,7.1-1.6,8.9-1c2.6-1.7,5.1-3.5,7.6-5.4c-0.8-3.7-1.5-7.4,1-11
			c-0.7-1.2-2-2-3.4-1.8c-9.6,0.3-0.7,7.2-4,10.3C174.3,274,166,278.9,161.8,272.3z"/>
		<path class="st0" d="M163.7,288.5c-0.9,2.4-1.4,4.9-1.7,7.5c3.2-1.5,6.4-3.2,9.5-5.1c-1-0.9-1.9-1.8-2.8-2.9
			C167.2,287.9,166.1,281.5,163.7,288.5z"/>
		<path class="st0" d="M189.8,254.9c1.8,5,2.8,10.3,3,15.6c0.7,0.9,1.5,1.8,2.3,2.7c2.2-2.1,4.4-4.2,6.6-6.5
			c-3.4-7.4-5.5-15.5-10.3-22.3C188.2,247.5,190,251.3,189.8,254.9z"/>
		<path class="st1" d="M162.3,66.8l0.1,3.2c1.5,1.1,1.1,2.6,1,4.1l0.1,2.5c2.1,0.3,4.2,1.2,4.8,3.2c2,6.8,7.9,8.1,13.5,10
			c-1.3,2.9-6.9,6.2,0.7,7.9l0.8-2.2l1,0.7l-1.4,1.7c0.2,0.6,0.2,1.5,0.5,1.6c3.2,0.9,5.2,4.5,4.9,8.9c0.1,1.1,0.3,2.2,0.7,3.3
			c1.2,1,2.4,1.9,4,1.6c3.2-1.3,0.9-4.8,3.2-7.1c2.7,7.5,8.8-1.2,12.5,2.7l5.4-0.6c0.1-0.7,0.2-1.4,0.2-2c1.4-5.1,0-9.9-3.7-13.1
			c-6.7-5.7-6.7-6.9,1.8-11.2l3.2-3.1l-1.3-1.7l5.4-19.5c-0.6-2.3-1.1-5-4-5c-5.5,0.1-2.1,6.7-6.1,8.5c-6.7-5.2-4-11.6-1.4-17.4
			c1.7-3.5,1.5-7.7-0.4-11.1c-1.6-2.8-5.4,0-7.8,0.9c-5.1,1.9-10,4.2-14.2,7.9c-4.6,4.2-4.9,0.1-5.7-3l-0.4-0.2
			c-0.3,0.3-0.5,0.5-0.9,0.7c-0.3,3.8-1.4,7.4-4.8,9.3s-6.1,3.9-7.2,7.6C165.6,59.9,166.3,64.3,162.3,66.8z"/>
		<path class="st0" d="M80,99l5,4.2c7.4,2.4,11.7,7,12.8,15.2c0.5,3.6,1,9.6,8.3,8.6c2.4-0.3,0,2.6-0.1,4l0.2,3.4l5-1.6
			c0.2-3.9,0.6-6.8,4.1-10.1c3.3-3.2,9.1-5,9.8-10.8c-2.9-4.5,0.2-8.4,1.7-12.2c1.3-3.4,2.8-6.7,1.8-10.4c-1.4,0.2-2.8-0.5-3.5-1.8
			c-1.6,0.5-4.3-1.2-4,2.5c0.3,3.4-1.9,4.3-4.7,4.5c-1.9,5.2-3.3,11.8-9.9,3.4c-3.1,1.7-2.2,7.7-7.6,7.1l-0.6,2.2l-0.7-0.4l1.3-1.9
			c-1.8-2.3-4.4-3.9-5.2-7c-0.2-4.9,0.6-8.9,7.1-6.7l5-0.2c-1.2-2.9-2.9-5.6,1.4-7.8c4.6-2.3,7.9-1.1,10.9,2.4
			c2.4,0.2,5.1-0.8,7,1.7c1.4-0.2,2.8,0.5,3.5,1.7c2.3,0,5.1,0.2,5-3.1c-0.2-5.6,3.3-5.8,7.3-5.7c-2.5-4.2-8.1-7.2-5.2-13.5
			c-12.4-0.1-24.8-0.3-37.1-0.3c-2.7,0-6.1-0.9-6.6,3.5c6.9-2.3,11.6,1.5,16.4,5.2c-7.5-0.8-8,7.9-12.3,9c-7.3,1.9-7.1,5.7-4.9,11.2
			C86.3,94.5,81.2,90.8,80,99z"/>
		<path class="st2" d="M160.1,59.8l6.6-3.6c1.2-3.7,3.9-5.8,7.2-7.6c3.3-1.9,4.5-5.5,4.8-9.3c-0.4-1.2-0.4-1.7,0.9-0.7
			c0.1,0.1,0.3,0.1,0.4,0.2c3.3-2,6.3-4.5,8.9-7.4c3.9-4.6,10.7-7.3,16.7-9.4c3.1-1,6.3,1.2,7.2,6.1c1.5,8.2-0.8,17.6,7.5,23.9
			c1.1,0.8,0.5,3.8,0.8,5.8c3.3,9.4-2.2,17.5-3.6,26.2c0.8,3.1,1,6.5,3.7,8.8c-0.5-1.3,0-2.9,1.3-3.6c4.5-8.1,6.5-17.4,5.7-26.7
			c-1.6-18.9-0.8-38-5.3-56.7c-0.6-2.6,0.5-7.3-5.1-5.4c-2.5,9.7-10.1,8.8-17.5,8.5c-1.3,5.9-6.1,8.8-10.6,12
			c-1.7,2.7-3.3,5.4-7,5.2v0.1c0.5,3.5-2.6,4.7-4.5,6.7C170.7,40.9,161.1,47.5,160.1,59.8z"/>
		<path class="st2" d="M5,54.3h2.4C8,52.5,6.9,50.4,8.6,49c-0.3-2.2,0.6-3.3,2.9-3.3l0.6-3.6c-5.5-4.3,3.9-6.6,1.5-10.5
			c0.9-11.3,1.7-11.6,11.5-8.5c3,1,6.6-0.6,9.5,2.4c3.2,3.4-0.8,3.1-1.8,4.4l0.3,4.9l0.1,0.1c3.7-0.1,6.8,0.6,6.8,5.3
			c6.9,5.2,15.2,8.8,20.5,16c7,3.1,1.2,9.5,3.6,13.8l2,1.2c2.6-4.6,5.9-9.1,0.2-13.8C54.7,35.6,38.1,18.7,16.9,6.3l-3.3,0.8
			c-0.6,0.2-1.1,0.3-1.7,0.3c0,2.6-0.3,4.9-3.7,5.1C3.8,26.2,1.7,40,5,54.3z"/>
		<path class="st3" d="M188.3,223.4c-0.9,7.3,0.9,14.2,3.1,21c4.9,6.8,6.9,14.9,10.3,22.3c2.8-2.9,5.4-5.9,8.1-9
			c0.2-5.6-0.2-11-2.1-14.8c-3.9-7.7-6.7-17.1-14.3-23C189,217.3,190.3,222.9,188.3,223.4z"/>
		<path class="st4" d="M67.8,91l10.3,9l1.9-1c1.1-8.2,6.3-4.4,11.3-3.4c-2.2-5.5-2.4-9.3,4.9-11.2c4.4-1.1,4.9-9.9,12.4-9
			c-4.8-3.7-9.5-7.6-16.4-5.2l-1.9,1.7l-19.2,14C71.3,88.1,70,90.2,67.8,91z"/>
		<path class="st4" d="M177.7,216.7c7-0.6,3.3,4.4,2.9,6.6c-0.4,2.2-3.6,4,0.6,5.6l1.6-0.8c0.6-2.9,3.2-3.6,5.5-4.6
			c2.1-0.6,0.8-6.1,5.1-3.5c-0.6-13,5.2-24.5,8.5-36.6l-3.4-1.8c-4.7,5.2-0.7,13.9-8.9,20.1c1-6.3-1.6-10.2-1.7-14.8
			c-1.8,0.1-4.3,0.8-4.2,2.4C184.3,199.1,175.7,206.7,177.7,216.7z"/>
		<path class="st5" d="M184.8,123.7c3.6,4.2,5.6,8.8,3.1,14.3l2,13.5l3.1-3.1c3-9.7,7.7-18.7,13.9-26.7c3-4,4.8-8.9,7.2-13.3
			l-5.4,0.6c-1.5,4.5-6,7.1-6.9,12.8c-2.6-2.1-3.5-5.7-7-4.6C192.3,120.7,186.2,118.6,184.8,123.7z"/>
		<path class="st6" d="M55.7,107.9c2.2-3.4-3.7-8.7,3.2-10c1.4-4.4,4-7.1,8.9-6.9c2.1-0.8,3.5-2.9,3.2-5.2c-2.8-4.7-3.5-8.7,3.7-8.7
			c4.1,0,5.8-2.9,8.3-5c-3.8-0.4-4.2-5.8-8.4-5.6c-5,1.6-5,10.2-12.2,8.6l-8.9,10.1c0,1.1,0,2.3-0.1,3.4c1.2,1,6.1-0.5,2.4,3.9
			c-1.3,1.6-1.5,4.1-2.2,6.1C54.2,101.7,52.3,105.2,55.7,107.9z"/>
		<path class="st1" d="M12.7,92.2c1.4,7,4.1,13.7,8,19.7l7.2-3.4c-0.7-2.6,0.7-4.1,2.7-5.3c2.6-5.8,2.1-11.7,0.3-17.6
			c-4.5,2.3-4.1-5.9-8.3-3.9c-0.3,0.3-0.6,0.7-0.9,1c2.2,2.3,5.1,5,1.6,7.9c-2.6,2.2-6,5.2-9.5,0.8C13.4,91.7,13,91.9,12.7,92.2z"/>
		<path class="st5" d="M48.4,129.3L48.4,129.3L48.4,129.3L48.4,129.3L48.4,129.3z"/>
		<path class="st5" d="M33,162.8l0.1,5c5.3-1.8,4.4-6.5,4.8-10.5c0.2-1.7-0.7-4.6,2.3-4.3c1.8,0.2,1.1,2.9,1.6,4.4
			c0.5-0.1,1-0.2,1.5-0.2c0.2-5.2-0.3-10.4-1.7-15.4c-0.5-1.9-0.5-4.2,2-5.1c2.2-0.8,4-0.3,4.8,2.2c0.4,1.4,1.6,2.5,3,2.8
			c0.1-2.9,0.2-5.8,0.4-8.7c0.1-2.2-0.6-3.8-3.2-3.8l0,0l-0.1,0.1c-0.2,1-0.2,2.3-1.6,2.5c-0.3,0-0.7-0.6-1-0.9l2.6-1.6v-0.1h0.1
			l0.2-2c-3.7-1.3-7.4,3.3-11.1,0c-1.4,0.1-2.7,1-3.2,2.3c-1.3,6.9,4.6,13.8,0,20.7C33.7,154.4,35.7,158.8,33,162.8z"/>
		<path class="st6" d="M147.9,73.5L147.9,73.5L147.9,73.5L147.9,73.5z"/>
		<path class="st6" d="M135.9,66.9c-2.9,6.3,2.7,9.3,5.2,13.5c3.2-2.8,8-1.3,9.3,0.2c2.7,2.9,0.3,8.8,4.7,11.7c-3,3.2-0.6,5.5,2,4.7
			c2-0.6,7.5-1.1,4.9-6.8c-1.6-3.5-1.5-7.7-2.2-11.6c-2.3-0.6-6.2,4.9-6.7-1.9c-2.3-0.1-5.1,0.5-5.3-3.2c-4.4-0.6-1.7-2.6-0.7-4.2
			c-2.7-3.3,2-3.5,2.3-5.5l1.6-1l-1.6-3.4l-8.2,7.4c-0.5,1.7,0.5,3.8-1.7,5.5l-2.4-5.6C136.7,66.7,136.3,66.8,135.9,66.9z"/>
		<path class="st0" d="M187.8,187c0.1,4.5,2.7,8.4,1.7,14.8c8.2-6.2,4.2-14.9,8.9-20.1c2.6-3.7,1.4-8,1.9-12l-3.9-4
			c-3-0.1-2.6-6-6.6-4c-3.3,1.7-0.3,4.7-0.9,7l-1.1,4.1C193.9,177.6,188,182.3,187.8,187z"/>
		<path class="st5" d="M149.5,59.4l1.6,3.4c1,2.1,3.1,1.8,4.9,2.2c0.2-2.1,1.9-3.8,4-4.1c0-0.3,0-0.7,0.1-1
			c1-12.3,10.5-18.8,18-26.8c1.9-2,5-3.2,4.6-6.7c-8.5,4.3-14.5,11-19.8,18.8C159.1,50.4,154,54.7,149.5,59.4z"/>
		<path class="st5" d="M5,54.2c1.6,12.8,4.2,25.5,7.7,38c0.3-0.3,0.7-0.6,1.2-0.6c3.7-1.6,7.7-3.1,6.7-8.5c-3.6-1.6-9.3-4.1-8.3-7.3
			c2.7-8.7-4.3-14.3-4.9-21.6L5,54.2z"/>
		<path class="st6" d="M179.1,177.8l0.1,2.2c6.1,1.6,3.9-7.2,8.7-7.1l1.1-4.1c0.6-2.3-2.5-5.3,0.9-7c4-2,3.6,3.9,6.6,4
			c-0.1-5.9-4.6-11-3.5-17.2l-3.1,3.1c-1.4,2.6-4.2,4.1-7.2,4c2.8,5.2-2.6,8-3.6,12.1C182.1,171.1,181,174.4,179.1,177.8z"/>
		<path class="st5" d="M210.5,93.3c3.7,3.2,5.1,8,3.7,13.1c4.8-3.3,8-7.3,7-13.6c-2.7-2.3-2.9-5.7-3.7-8.8l-5.2-2
			C203.7,86.4,203.8,87.6,210.5,93.3z"/>
		<path class="st7" d="M71.1,85.8l19.2-14c-0.3-1.6,0.6-4-1.7-4.4c-3.3-0.6-3.2,3.7-5.5,4.7c-2.5,2.1-4.2,5-8.3,5
			C67.6,77.1,68.2,81.1,71.1,85.8z"/>
		<path class="st5" d="M25.7,117.2c1.3-3.2,4-3.7,7.1-3.5c4.8,0.5,5.3-3.3,6.4-6.4c-1.7-0.2-3.5-1.1-4.7,1.1
			c0.6,0.3,1.9,0.1,0.7,1.3l-0.8-1.1l-6.4,0.1l-7.2,3.4C19.5,116.5,22.3,117.1,25.7,117.2z"/>
		<path class="st8" d="M63.9,70l-3,1.6l1.5,3.5c7.2,1.6,7.2-7,12.2-8.6c0.4-6.1-3.7-8-8.6-9.1c5.7,4.7,2.5,9.3-0.2,13.8L63.9,70z"/>
		<path class="st8" d="M200.2,9c7.4,0.3,15,1.2,17.5-8.5C211.9,3.4,204.6,3.2,200.2,9z"/>
		<path class="st9" d="M28.7,124.2c2.9-0.7,4.6-2.2,4.1-5.4c0-1.7,0-3.4,0-5.1c-3-0.2-5.7,0.3-7.1,3.5
			C25.8,119.9,22.3,124.2,28.7,124.2z"/>
		<path class="st1" d="M200.4,169.6c-0.6,4,0.6,8.3-1.9,12l3.4,1.8C206.3,178.3,205.1,173.8,200.4,169.6z"/>
		<path class="st2" d="M28.7,124.2l5.7,5.3c0.5-1.3,1.7-2.2,3.2-2.3l-1.4-8.2l-3.4-0.4C33.3,122,31.6,123.6,28.7,124.2z"/>
		<path class="st8" d="M189.8,18l-0.2,3c4.4-3.2,9.2-6.1,10.6-12L189.8,18z"/>
		<path class="st5" d="M182.6,26.3c3.7,0.1,5.3-2.6,7-5.3l0.2-3C185.6,19.2,184.5,23,182.6,26.3z"/>
		<path class="st8" d="M8.2,12.6c3.3-0.2,3.7-2.5,3.7-5.1C7.1,6.6,8.1,9.9,8.2,12.6z"/>
		<path class="st0" d="M141.2,66.8h-4.1l2.4,5.6C141.7,70.6,140.7,68.5,141.2,66.8z"/>
		<path class="st5" d="M221.2,92.8c1.1-0.8,1.6-2.2,1.3-3.6C221.2,89.9,220.7,91.4,221.2,92.8z"/>
		<path class="st8" d="M13.6,7.2l3.3-0.8C15.4,5.4,14.2,5,13.6,7.2z"/>
		<path class="st7" d="M156.5,310.7L156.5,310.7L156.5,310.7L156.5,310.7L156.5,310.7z"/>
		<path class="st7" d="M149.6,293.2c3.6,0.1,5,3.1,7.1,5.2c1.8-0.7,3.5-1.5,5.3-2.4c0.2-2.6,0.8-5.2,1.7-7.7c2.4-7,3.4-0.6,5-0.4
			l0.1,0.1c1.6-6.1-6.9-5.4-7-10.4h-8.7c0.4,3.4-0.1,6.7-3.3,8.2C144.2,288.4,148.3,290.7,149.6,293.2z"/>
		<path class="st10" d="M167.2,258.3l3.5,0.3l5-0.6c4.4-3.9,8.2,0.2,12.2,1c0.1-1.6,0.2-3.3,1.9-4.1c0.1-3.5-1.6-7.3,1.5-10.4
			c-2.2-6.8-4-13.7-3.1-20.9c-2.3,0.9-4.9,1.6-5.6,4.6c2.7,4.8,0.5,6.2-4.1,5.9c-3.5,1.9-9,2.8-4.3,8.8c3.2,0,2.6-1.7,1.6-3.5
			l-0.8-0.8l0.8,0.8c2.6,2.5,5.4-5.5,7.4-0.3c2.1,5.6-2.2,6.4-6.7,6.8c-1.3,0.1-2.5,2.1-4.4,2.1c-1.8,0.4-3.2,1.8-3.7,3.6l0.1,0.1
			c1.7,0.4,1.7,0.9,0.1,1.6C171.1,255.9,168.2,256.8,167.2,258.3z"/>
		<path class="st4" d="M161.8,272.3L161.8,272.3c4.3,6.5,12.5,1.7,17.1,6.7c3.3-3.1-5.6-10,4-10.3c1.5-2.4-4.4-11,5.6-6.7
			c1.1,0.5-0.4-1.9-0.6-3.1c-4-0.8-7.8-4.9-12.2-1c0.1,1.8,3.1,1.7,1.5,5.3C173.9,270.9,166.2,268.4,161.8,272.3z"/>
		<path class="st6" d="M185.2,281.6c0.6,2.8,1.2,5.6,0.6,8.4c-0.7,3.3,4.2,4.2,6.6,2.8c3.4-1.9-1.8-5.3,0.2-8
			c-2.4-1-3.7-2.7-0.5-3.9c6.4-2.4,5.1-5,2.9-7.7C191.9,276.2,188.6,279,185.2,281.6z"/>
		<path class="st6" d="M186.3,270.6c-2.4,3.6-1.8,7.3-1,11c3.4-2.6,6.7-5.4,9.9-8.4c-0.7-0.9-1.6-1.8-2.3-2.7L186.3,270.6z"/>
		<path class="st3" d="M168.8,288L168.8,288c0.8,1.1,1.8,2,2.8,2.9c2.1-1.3,4.2-2.6,6.2-3.9C176,286.4,173.2,286.9,168.8,288z"/>
		<path class="st3" d="M147.8,265.6c2.6,3.7-3.3,11.1,5.3,12h8.7v-5.2h-0.1c-0.8-0.9-5,1.9-2.6-2.4c0.9-1.6,2.9-3.3,0-5
			c-3.3-1.9-6.5-3.9-10.5-2.9C146.6,262.6,147.2,264.7,147.8,265.6z"/>
		<path class="st11" d="M182.9,268.8c1.4-0.1,2.7,0.6,3.4,1.8l6.6-0.1c-0.2-5.3-1.2-10.6-3-15.6c-1.7,0.9-1.8,2.5-1.9,4.1
			c0.1,1.1,1.7,3.6,0.5,3.1C178.4,257.7,184.3,266.3,182.9,268.8z"/>
		<path class="st7" d="M158.4,117.1L158.4,117.1L158.4,117.1L158.4,117.1z"/>
		<path class="st7" d="M126.8,99.7c-1.5,3.8-4.6,7.7-1.7,12.2c3.4,1.4,8.4,1.4,5.4,7.6c-0.6,1.3,0.6,4.7,1.8,3.8
			c5.8-4.3,9.3,1.5,13.8,2.6l7-1.7l1.6-1.9c-5-6.1,1-4.4,3.6-5.1c-0.4-2.9-4.1-2.8-5.1-5.2c-4.9-4.2-4.4-3.9-2.8-7
			c4.5-8.7,8.7-1.6,13,0c1.6,0.1,3,0.4,3.7,2.2l3.3-0.6c-1-2.1-1-4.6,0.1-6.7c6.1,3.7,11.4,7.6,10.4,15.8c5.1,3.8,4.9-3.7,8.1-3.8
			c-0.4-1.1-0.6-2.2-0.7-3.3c0.4-4.4-1.6-8-4.9-8.9c-0.3-0.1-0.3-1-0.5-1.6l-0.4-0.3c-7.6-1.7-2-5-0.7-7.9
			c-5.7-1.9-11.5-3.2-13.5-10c-0.6-2-2.7-2.9-4.8-3.2l-3.6,1.9c0.7,3.9,0.6,8.1,2.2,11.6c2.6,5.7-2.9,6.2-4.9,6.8
			c-2.6,0.7-5-1.5-2-4.7c-4.4-2.9-2-8.8-4.7-11.7c-1.4-1.4-6.2-3-9.4-0.2c-4-0.1-7.5,0.1-7.3,5.7c0.2,3.3-2.7,3-5,3.1l-0.1,0.1
			C129.6,93,128.2,96.2,126.8,99.7z"/>
		<path class="st11" d="M158.4,117.1L158.4,117.1C158.3,117.1,158.3,117.2,158.4,117.1l0.4,0.7L158.4,117.1z"/>
		<path class="st11" d="M154.7,122.2l0.3,0.3c6.4-0.8,8.9,2.4,8.7,8.4l6.8,3.5c-1.8-2.9-1.9-6.2,1.5-7.1c3-0.9,4.8,2.2,5.4,5.1
			c0.2,1.7,0.2,3.5,0,5.2l7,0.4l0.2-0.7c-0.2-2.5-0.3-4.8-2.2-7c-2.3-2.8-2.1-5.9,2.4-6.8c1.3-5.2,7.4-3.1,9.9-6.4
			c-4.3,0.4-2.2-2.1-1.8-3.9c-1.6,0.3-2.8-0.6-4-1.6c-3.2,0.1-3,7.6-8.1,3.8c-0.2,0.1-0.6,0.2-0.7,0.4c-2.2,5.7-5.8,5.4-10.1,2.5
			c-6.5-4.4,0.9-4.6,2.1-6.6c1.6-2.7,0.7-4.2-1.7-5.4l-3.3,0.6c-3.2,3.8-7.6,4.6-12.2,4.7c-0.6,0-1.1,0.1-1.7,0.2
			c1,2.4,4.6,2.2,5.1,5.2h0.1l0.4,0.7l-0.5-0.6c0,0,0-0.1,0-0.1C155.7,117.8,149.7,116.1,154.7,122.2z"/>
		<path class="st5" d="M180.1,38.7c0.8,3.1,1.1,7.2,5.7,3c4.2-3.8,9.1-6,14.2-7.9c2.5-0.9,6.2-3.7,7.8-0.9c2,3.4,2.1,7.6,0.4,11.1
			c-2.6,5.8-5.3,12.3,1.4,17.4c4-1.8,0.6-8.4,6.1-8.5c2.8-0.1,3.4,2.7,4,5c0.5,0,1-0.1,1.4-0.1c-0.2-2,0.3-5-0.8-5.8
			c-8.3-6.3-6-15.8-7.5-23.9c-0.9-4.9-4.1-7.2-7.2-6.1c-6.1,2.1-12.7,4.8-16.7,9.4C186.4,34.2,183.4,36.7,180.1,38.7z"/>
		<path class="st2" d="M193,113.4c-0.4,1.8-2.5,4.3,1.8,3.9c3.5-1.2,4.4,2.4,7,4.6c0.9-5.7,5.4-8.3,6.9-12.8
			c-3.8-3.9-9.8,4.8-12.5-2.7C193.9,108.5,196.3,112.1,193,113.4z"/>
		<path class="st8" d="M215.5,78.9l-3.2,3.1l5.2,2c1.4-8.7,6.9-16.9,3.6-26.2c-0.5,0-1,0-1.5,0l-5.4,19.5L215.5,78.9z"/>
		<path class="st10" d="M158.3,71.9l-5.2,4.8c0.5,6.8,4.4,1.3,6.7,1.9l3.7-2c0-0.8-0.1-1.7-0.1-2.5l-3.4-2.3L158.3,71.9z"/>
		<path class="st8" d="M160,59.8c-0.1,0.3-0.1,0.7-0.1,1.1c0.1,2.2,1,4.3,2.4,5.9c4-2.5,3.2-6.9,4.3-10.6L160,59.8z"/>
		<path class="st2" d="M155.9,65c-0.1,2.6,1.1,4.7,2.3,6.9h1.7l2.5-1.8l-0.1-3.2c-1.4-1.6-2.3-3.7-2.4-5.9
			C157.8,61.2,156.2,62.9,155.9,65z"/>
		<path class="st8" d="M162.5,70l-2.4,1.9l3.4,2.3C163.6,72.6,163.9,71.1,162.5,70z"/>
		<polygon class="st7" points="183.4,95.5 182.6,97.7 182.9,98 184.4,96.3 		"/>
		<path class="st5" d="M178.8,39.2c0.3-0.2,0.6-0.4,0.9-0.7C178.4,37.5,178.3,38.1,178.8,39.2z"/>
		<path class="st5" d="M214.2,77.3l1.3,1.7L214.2,77.3z"/>
		<path class="st4" d="M106.9,140.3c-5.4,6.4-2.3,8.2,4.3,8.2l7.2-0.1l-1.8-1.9c-1.3-0.1-3.2,0-2.9-1.6c0.4-1.9,1.8-1.2,2.7,0
			c5.7-1.6-1-7.7,3.8-9.8c2.9,1.9,3.3,7.7,8.6,6.2c1.4-2.4,1.1-6.9,6.2-4.9c3.2,1.2,4.1-2,5.7-3.7c-0.3-3.9,4.7-3.7,5.3-6.9
			c-4.5-1.1-7.9-6.8-13.8-2.6c-1.2,0.9-2.4-2.5-1.8-3.8c3.1-6.2-2-6.2-5.4-7.6c-0.7,5.8-6.5,7.6-9.8,10.8c-3.5,3.4-3.9,6.3-4.1,10.1
			c0,2.4-1.3,3.6-3.7,3.6C107.3,137.7,107.7,139.5,106.9,140.3z"/>
		<path class="st7" d="M78.1,111.7c-1.1,1.6-1.1,3.8,0,5.4c4.2,0.5,7.4,2.4,3,6c-2.4,2-0.1,5.1-2.9,6.1l-0.1,0.1l2,4.9
			c1.9,1.8,7.1-3.1,6.8,3.3l1.7,0.1c3.2-2.7,2.9,3.3,5.5,2.2l3.2-1.6v-0.1v-1.9c-0.2-1.3,0.5-2.6,1.6-3.3c0.5-0.9,1.1-1.1,1.8-0.1
			v1.8l3.1,0.3c0.3-1.5,0.6-3,2.2-3.8c0.1-1.4,2.5-4.3,0.1-4c-7.3,1-7.8-5-8.3-8.6c-1.1-8.2-5.4-12.8-12.8-15.2
			C84.8,107.7,78.6,107.4,78.1,111.7z"/>
		<path class="st12" d="M105.9,91l0.7,6.8c6.6,8.4,8,1.8,9.9-3.4c-0.8-3.2,1.6-5.7,1.8-8.7c-3-3.5-6.3-4.8-10.9-2.4
			C103,85.5,104.8,88.2,105.9,91z"/>
		<path class="st10" d="M69.3,108.4c-1.8,2.6-3.8,5.1-3.3,8.6h1.6c0.7-1.4,1.9-1.6,3.3-1.4c2.9-0.3,1.6-8.7,7.2-3.8
			c0.5-4.3,6.7-4,6.9-8.6L80,99l-1.9,1C73.5,101,74.2,107.7,69.3,108.4z"/>
		<path class="st4" d="M93.8,97.9c0.8,3,3.4,4.7,5.2,7c5.4,0.7,4.5-5.4,7.6-7.1l-0.7-6.8l-5,0.2C100.1,95.1,97.9,97.6,93.8,97.9z"/>
		<path class="st7" d="M93.8,97.9c4.1-0.4,6.3-2.8,7.1-6.7C94.3,89.1,93.6,93,93.8,97.9z"/>
		<path class="st7" d="M118.3,85.7c-0.1,3-2.5,5.5-1.8,8.7c2.8-0.2,5-1.1,4.7-4.5c-0.3-3.6,2.5-2,4-2.5
			C123.3,84.9,120.7,85.9,118.3,85.7z"/>
		<path class="st7" d="M111.2,132.8l-5,1.6v2l1.3-0.1C109.9,136.3,111.2,135.2,111.2,132.8z"/>
		<path class="st4" d="M103.9,134.7l2.4,1.7c0-0.7,0-1.3-0.1-2L106,131C104.5,131.7,104.2,133.2,103.9,134.7z"/>
		<path class="st7" d="M125.2,87.5L125.2,87.5c0.7,1.4,2,1.8,3.5,1.8v-0.1C127.9,87.8,126.6,87.5,125.2,87.5z"/>
		<polygon class="st4" points="99,104.9 97.8,106.8 98.4,107.2 99.1,104.9 		"/>
		<path class="st1" d="M12.3,75.8c-1,3.3,4.6,5.7,8.3,7.3c0.3-0.3,0.8-0.4,1.2-0.3c0.3-0.3,0.6-0.7,0.9-1c-0.1-4.7,2.6-4.7,5.2-2.4
			s5.1,3.2,8.4,2.8c0.4-3-1.9-4.6-3.6-6.4C30.5,73.4,30,70,31.4,67c2.3-4.1,4.1,3.2,6.9,1.2c2.5-4.9,6.8-3.6,10.5-2.6
			s0.9,4.4,1.2,6.7c0.4,4,0.4,8,0.6,12c1.2-0.2,2.3-0.3,3,0.9L62.4,75L61,71.5l-0.6-15.4c-5.4-7.2-13.6-10.8-20.5-16
			c-3.7,0.1-5.5-2.3-6.8-5.3L33,34.7c-2.2-0.4-1.9-2.1-1.9-3.6l-3.5,0.4L22.2,31l-3.5,0.3c1.3,5.7-1.6,8.8-6.5,10.8
			c-0.2,1.2-0.4,2.4-0.6,3.6c0.2,2.1-0.8,3.2-2.9,3.3c-1.7,1.5-0.6,3.6-1.2,5.3C8.1,61.6,15.1,67.2,12.3,75.8z"/>
		<path class="st8" d="M13.6,31.7c1.7,0.6,3.2-2,5-0.4l3.5-0.2c0.2-1.5-0.3-3.8,1.8-4c2.9-0.2,3.4,2.2,3.6,4.5l3.5-0.4l1.6-1.2
			c1-1.3,5.1-1,1.8-4.4c-2.9-3-6.5-1.4-9.5-2.4C15.3,20.1,14.5,20.3,13.6,31.7z"/>
		<path class="st5" d="M12.2,42.1c4.9-2,7.7-5.1,6.5-10.8c-1.8-1.6-3.3,1-5,0.4C16.1,35.6,6.6,37.8,12.2,42.1z"/>
		<path class="st5" d="M60.3,56.1l0.6,15.4l3-1.6C61.6,65.7,67.3,59.3,60.3,56.1z"/>
		<path class="st5" d="M33.1,34.9c1.2,3,3.1,5.4,6.8,5.3C39.9,35.4,36.8,34.8,33.1,34.9z"/>
		<path class="st5" d="M8.6,49c2.1-0.1,3.1-1.2,2.9-3.3C9.3,45.6,8.3,46.8,8.6,49z"/>
		<path class="st5" d="M33,34.8l-0.3-4.9l-1.6,1.2C31.1,32.7,30.8,34.4,33,34.8z"/>
		<path class="st11" d="M32.8,113.7c0,1.7,0,3.4,0,5.1l3.4,0.4c-0.1-1.2,0.6-3,1.5-2.5c10,5.9,16.6,0.1,23-6.4
			c2.7-2.8,5-4.7,8.6-1.9c4.9-0.7,4.2-7.4,8.8-8.4l-10.3-9c-4.9-0.2-7.5,2.5-8.9,6.9l0.4,0.8L58.9,98c-6.9,1.3-1,6.6-3.2,10
			c-3.4-2.7-1.5-6.3-2.1-9.3c-3.5-0.4-5.6,4.3-9.5,2.8c-3.2,0.6-3.4,3.7-4.9,5.8C38.1,110.4,37.6,114.2,32.8,113.7z"/>
		<path class="st13" d="M147.9,202.6c0,0.6,0,1.1,0,1.7l1.8,1.8c0.5,0,1,0,1.5,0.1c2.9-2.5,6.2-4.6,5.9-10.1
			c4.2,5.4,1.6,10.6,2.9,15.1v1.9l0.1,3.4c1.1,2.4,5.5,1.4,5.3,5.1l5.2-1.8c0.8-4.5,4.4-2.9,7.1-3.3v0.1c-2-10,6.6-17.6,6-27.4
			c-0.1-1.6,2.3-2.3,4.2-2.4c0.2-4.7,6.1-9.3,0.2-14.1c-4.9-0.1-2.6,8.7-8.7,7c-2,6.5-5.9,8.6-12.1,5.4c-4.7,6.9-12,1.3-18.1,4.1
			C150.3,193.7,151.1,198.4,147.9,202.6z"/>
		<path class="st10" d="M176,224.8c-0.1,2.8-1.9,6.6,3.1,7.4c1.5-0.6,1.8-2,2-3.4c-4.2-1.6-0.9-3.5-0.6-5.6s4.1-7.2-2.9-6.6v-0.1
			C177,219.3,176.1,222.1,176,224.8z"/>
		<path class="st9" d="M179.1,232.2l-0.5,1.8c4.6,0.2,6.8-1.1,4.1-5.9l-1.6,0.8C180.9,230.3,180.6,231.6,179.1,232.2z"/>
		<path class="st14" d="M184.4,138.3c-0.4,5.9-7.8,10.3-3.6,17.1l2,0.2c2.9,0.1,5.7-1.4,7.1-4l-2-13.5l-3.4-0.5L184.4,138.3z"/>
		<path class="st7" d="M182.4,130.5c1.9,2.3,2,4.5,2.2,7.1l3.4,0.5c2.5-5.5,0.5-10.1-3.1-14.3C180.3,124.6,180.1,127.7,182.4,130.5z
			"/>
		<path class="st10" d="M27.9,108.6l6.5-0.1l0.1-0.2c1.1-2.2,3-1.2,4.7-1.1c1.5-2.1,1.7-5.2,5-5.8c2-5,3.5-10.4,9.2-12.8
			c0-1.1,0-2.3,0.1-3.4c-0.7-1.2-1.8-1.1-3-0.9c-1.8,2.5-3.3,1-4.8-0.4L41.6,84c-0.5,0.1-1.1,0.2-1.6,0.2l-0.3,5.6
			c2.4,8.6,1.2,10.3-9,13.3C28.6,104.5,27.2,106,27.9,108.6z"/>
		<path class="st7" d="M44.2,101.4c3.9,1.6,5.9-3.2,9.4-2.8c0.7-2.1,0.9-4.6,2.2-6.1c3.7-4.4-1.3-2.9-2.4-3.9
			C47.7,91,46.2,96.4,44.2,101.4z"/>
		<path class="st13" d="M30.7,103.3c10.3-3,11.5-4.8,9-13.4c-3.3-0.6-5-4.3-8.6-4.2C32.8,91.6,33.2,97.5,30.7,103.3z"/>
		<path class="st9" d="M13.9,91.6c3.6,4.3,6.9,1.3,9.5-0.8c3.5-2.9,0.6-5.6-1.6-7.9c-0.4-0.2-0.9,0-1.2,0.3
			C21.6,88.6,17.6,90,13.9,91.6z"/>
		<path class="st13" d="M36.1,82.2h0.2H36.1L36.1,82.2z"/>
		<path class="st13" d="M22.7,81.9c4.3-2,3.9,6.2,8.3,3.9l5.1-3.4c-3,0.3-6-0.7-8.2-2.8C25.3,77.2,22.6,77.1,22.7,81.9z"/>
		<path class="st9" d="M40.8,187c5.7,2.9,4.8-6.6,9.7-5.2c3.6,0.1,5.2-1.5,5.2-5.2c0-2.1,0.4-4.5,3.5-2.5c3.5,0.5,3.6,3.3,4.1,5.9
			l1,1.4c2.6,0.4,4.6,1.1,1.8,4c1.2,1.8,3.2,1.5,5,1.5c4.1-3.8,3.5-10,7.3-13.9c-2.4-1.1-4.1-2.6-3-5.6l-0.1-1.8l-1.2-0.4l1.2,0.1
			c1.3-1.3,2.3-3.3,4.7-2.7l2.6,0.1l1.2-5l-9.2-2c-0.5,3-6.4,1.7-4.9,2.8c4.2,3,1.1,4.3-0.5,5.4c-2.8,2-4.8,0.2-6.7-2.2
			c-1.5-1.7-3.2-3.2-4.9-4.6c-0.6,2.1,0.5,4.6-2.2,6.8c-1.2-7.9-8.7-3.2-12.2-6.7c-0.5,0-1,0.1-1.5,0.2C42,167.2,37.5,177,40.8,187z
			"/>
		<path class="st2" d="M36.3,200.8c3.5,0.3,3.5,2.7,3.5,5.3l4.6,5c1.2,2.5,1,5.7,4.1,7.1l1.4-1.7l0.4-5.2h-0.1
			c-1.1-0.1-1.5-0.6-1.3-1.7c-1.3-2.2-2.6-4.3-2.4-6.9c-1.9-2-3.5-4.1-3.1-7l-0.4-3.4l-2.1-5.3c-3.2-10,1.3-19.8,1-29.7
			c-0.4-1.6,0.2-4.2-1.6-4.4c-3-0.4-2.1,2.6-2.3,4.3c-0.4,4.1,0.5,8.7-4.8,10.5c0,0.9,0,1.8,0.1,2.6c2,3.2,6,6.3,0.1,9.5
			c0.6,1.8,2,3.7-0.4,5.3C35.7,190,38.3,194.8,36.3,200.8z"/>
		<path class="st8" d="M41.6,141.8c1.4,5,1.9,10.2,1.7,15.4c3.5,3.5,11-1.2,12.1,6.6c2.7-2.2,1.7-4.7,2.2-6.8
			c0.5-4.5-5.4-6.5-4.5-11.2l-0.2-0.4l-1.1-2.2c-0.1-0.5-0.3-1-0.5-1.5c-1.4-0.3-2.6-1.4-3-2.8c-0.8-2.5-2.6-2.9-4.8-2.2
			C41.1,137.6,41,139.9,41.6,141.8z"/>
		<path class="st9" d="M36.2,119.2l1.4,8.2c3.7,3.3,7.4-1.2,11.1,0c-0.7-10.1,5-3.9,8.4-3.3c-0.3-6.4,5.2-5.6,8.9-7
			c-0.5-3.4,1.5-6,3.3-8.6c-3.6-2.9-6-0.9-8.6,1.8c-6.3,6.5-13,12.3-23,6.4C36.8,116.2,36.1,117.9,36.2,119.2z"/>
		<path class="st10" d="M48.5,129.3c2.7-0.1,3.3,1.5,3.3,3.7l9.3-5.3c7-0.3,13.3-1.8,16.8-8.7l-6.4-0.2c-3.5,5.2-8.3,6.9-14.3,5.2
			c-3.4-0.6-9.1-6.8-8.4,3.3L48.5,129.3L48.5,129.3z"/>
		<path class="st14" d="M51.4,141.7c0.2,0.5,0.3,1,0.5,1.5h1.8c2.9-5,7.3-9.2,7.4-15.5l-9.3,5.3C51.6,135.9,51.5,138.8,51.4,141.7z"
			/>
		<path class="st0" d="M25.8,171.2l6.7-0.1c0.2-0.3,0.4-0.6,0.7-0.8l-0.1-2.6l-0.1-5c-3-8.3-3.4,3.4-5.7,0.7
			C24.5,165.6,23.3,168,25.8,171.2z"/>
		<path class="st14" d="M45.9,130.9c0.3,0.3,0.7,1,1,0.9c1.4-0.2,1.3-1.5,1.6-2.5L45.9,130.9z"/>
		<path class="st14" d="M48.4,129.3L48.4,129.3L48.4,129.3L48.4,129.3z"/>
		<path class="st9" d="M148,73.4l-0.1,0.1v0.1h0.1C147.9,73.5,148,73.4,148,73.4z"/>
		<path class="st9" d="M147.2,69.4c-1,1.6-3.8,3.5,0.7,4.2v-0.1l0.1-0.1c0-0.2,0.1-0.3,0.2-0.4c0.1-0.2,0.3-0.2,0.5-0.2l-0.6,0.6
			c0,0.1-0.1,0.1-0.1,0.2h-0.1c0.2,3.6,3,3.1,5.3,3.2l5.2-4.8c-1.2-2.1-2.4-4.3-2.3-6.9c-1.8-0.3-3.9-0.1-4.9-2.2l-1.6,1
			C149.6,66.1,149.1,68,147.2,69.4z"/>
		<path class="st5" d="M147.1,69.4c2-1.4,2.4-3.3,2.3-5.5C149.1,65.9,144.5,66.1,147.1,69.4z"/>
		<path class="st11" d="M156.7,172.8c-0.1,0.6-0.1,1.1-0.2,1.7c5.5,1.1,10.6-1.2,15.9-1.7c-1.1-6.1,3.4-5,6.8-5.2
			c1-4.1,6.4-6.9,3.6-12.1l-1.9-0.2c-3.6-0.5-6.4,3-10.1,1.7c-0.6,1.7-1.9,3-3.6,3.6C166.4,167,162.7,170.9,156.7,172.8z"/>
		<path class="st4" d="M167.1,185.2c6.3,3.3,10.1,1.1,12.1-5.4l-0.1-2.2l-3.3,0.4C174,181.9,166.5,178.6,167.1,185.2z"/>
		<path class="st14" d="M172.4,172.8c2.1,0.9,3.5,3,3.4,5.3l3.3-0.4c1.9-3.3,3-6.7,0.1-10.1C175.8,167.9,171.3,166.8,172.4,172.8z"
			/>
		<path class="st10" d="M34.4,108.5l0.8,1.1c1.2-1.2-0.1-1-0.7-1.3L34.4,108.5z"/>
		<path class="st7" d="M69.7,295.3l-0.1,1.1c7.7,3.6,15.9,6.4,24.2,8.1c0.6-1.6,1.3-3.1,2.1-4.6l1.8-9.9c-6.1-0.9-6.5-4.3-3.9-9
			c-6.4,0.2-9.6-7.5-8.5-8.9c9.6-11.5-1.6-7.2-5.8-8.2c1.1,3.7-0.8,6.3-3.3,8.7c3.5,0,3.1,2.7,3.6,4.9c3.9,1.4,7.6,2.9,2.1,7.1
			c-0.1,4.8-2,7.7-7.4,6.7l-3.2,2.2L69.7,295.3z"/>
		<path class="st0" d="M111.2,270.2c0.8,6.5-1.7,12.7,3,18.9l0.9-8.5c4.8,6.1,5.4,12.7,4.8,19.6l3.5,5.3l1.5-3.4l0.4-0.4v-10.3
			l0.8-0.1l3.2,13.1c6-1.3,6.2-5.7,6.3-10.1c0.1-2.2,2.5-5.9,3.1-3.8c2.5,8.3,7.3,2.2,10.9,2.9v-0.2c-1.2-2.5-5.4-4.8,0.2-7.4
			c3.2-1.5,3.7-4.8,3.2-8.2c-8.6-0.9-2.7-8.3-5.3-11.9c-0.6-0.9-1.2-3,0.8-3.5c4-1,7.3,1,10.5,2.9c2.9,1.6,0.9,3.3,0,5
			c-2.4,4.3,1.8,1.6,2.6,2.4c4.4-3.9,12.2-1.4,15.4-9c1.6-3.7-1.4-3.5-1.5-5.3l-5,0.6c-0.4,1.6-0.7,3.5-3,2.6
			c-1.2-0.5-2.4-1.5-0.5-2.8c1-1.6,4-2.5,1.7-5.1c-0.1-0.5-0.1-1.1-0.1-1.6l-0.1-0.1l-3.3-0.1c-2.7,2.2-6.2,7.3-6.9-1.1
			c-0.4-4.7-3.5-7.8-5.6-11.6c-3.9,3.4-9.1,3.4-13.5,5.5c-0.2,6.9,3.7,7.3,9,5.7c2-0.6,4.9-1.2,6,1.6c1.1,2.6-1.1,4.4-2.9,5.6
			c-2.1,1.4-4.7,2-7,2.9c-2.7-0.1-5.6,0-6.5,2.9c-3.2,10.4-8.6,6.6-14.1,2.4l-3.7,1.7l-0.4,7.2L111.2,270.2z"/>
		<path class="st11" d="M144.3,302.7c0.4,4.5,4.4,8.2,3.6,13c3.2-1.2,4.1-6.4,8.7-5c-0.5-4-6.2-8.4,1-11.6c-0.3-0.2-0.6-0.5-0.8-0.7
			C152.7,300.1,148.5,301.5,144.3,302.7z"/>
		<path class="st11" d="M144.4,300.3c-0.2,0.8-0.2,1.7-0.2,2.5c4.3-1.2,8.4-2.7,12.5-4.4c-2.1-2.1-3.6-5-7.1-5.1v0.2
			C149.8,297.1,145.1,297.1,144.4,300.3z"/>
		<path class="st6" d="M139.1,317.7L139.1,317.7c2.7,1.5,5.7,2.1,8.7,1.8l0.1-3.8c0.8-4.8-3.2-8.5-3.6-13c-1.4,0.4-2.8,0.8-4.2,1.1
			c-0.4,1.3-0.5,2.7-0.3,4C140.1,311.2,139.9,314.5,139.1,317.7z"/>
		<path class="st6" d="M140,303.9c1.4-0.3,2.8-0.7,4.2-1.1c-0.1-0.8,0-1.7,0.1-2.5C142.3,300.4,140.5,301.9,140,303.9z"/>
		<path class="st11" d="M139.1,317.7l-1.9,5.3l3,12.1c3-2.6,4.1-5.4,3.3-8.4c-1-4,1.1-5.1,4.3-5.6c0.1-0.5,0.1-1,0-1.6
			C144.8,319.8,141.8,319.2,139.1,317.7z"/>
		<path class="st11" d="M157.2,311c-0.2-0.1-0.3-0.2-0.5-0.2l0.7,0.6C157.3,311.3,157.3,311,157.2,311z"/>
		<path class="st11" d="M156.6,310.8L156.6,310.8L156.6,310.8L156.6,310.8z"/>
		<path class="st7" d="M116.3,306.8c2.6,0,5.1-0.1,7.6-0.4c-0.1-0.3-0.2-0.6-0.4-0.9l-3.5-5.3C117.9,302,117.1,304.4,116.3,306.8z"
			/>
		<path class="st11" d="M124.9,317.8c0.1,0.5,0.2,1.1,0.2,1.6l10.6,3.5l-3.4-5.3C129.8,318.4,127.3,314.2,124.9,317.8z"/>
		<path class="st6" d="M132.3,317.6l3.4,5.3c0.5,0,1,0,1.6,0.1l1.9-5.3l-0.1-0.1C136.8,317.5,134.6,315.9,132.3,317.6z"/>
		<polygon class="st7" points="124.2,327.8 123.5,328.1 123.5,328.2 		"/>
		<path class="st7" d="M171.4,224.3c-6,8.1-7,17.4-6.1,27.1l3.3,0.1c0.4-1.8,1.9-3.2,3.7-3.6l2-5.1c-4.7-6,0.8-6.9,4.3-8.8l0.5-1.8
			c-5-0.8-3.2-4.6-3.1-7.4c0.3-2.8,0.8-5.6,1.6-8.3c-2.7,0.3-6.3-1.3-7.1,3.3C171.9,221.1,172.6,222.7,171.4,224.3z"/>
		<path class="st9" d="M174.3,242.9l-2,5.1c1.9,0,3.1-2,4.4-2.1c4.4-0.5,8.7-1.2,6.6-6.8c-2-5.2-4.8,2.8-7.4,0.3
			C176.8,241.2,177.5,242.9,174.3,242.9z"/>
		<path class="st4" d="M167.7,261.2c2.3,0.9,2.7-0.9,3-2.6l-3.5-0.3C165.2,259.7,166.4,260.7,167.7,261.2z"/>
		<polygon class="st7" points="175.9,239.3 175.1,238.5 175.8,239.3 		"/>
		<path class="st7" d="M168.7,251.6c0,0.5,0.1,1.1,0.1,1.6C170.3,252.5,170.4,252,168.7,251.6z"/>
		<path class="st11" d="M148.7,144.8c0,0.1,0,0.1,0,0.2h0.1C148.8,144.9,148.7,144.8,148.7,144.8z"/>
		<path class="st11" d="M140.9,132.7l2.3,10.1c0.3,0,0.6,0.1,0.9,0.2c1.9-0.4,3.6,0,4.6,1.7c0.1-4.6,2.8-4.2,6-3h3.5
			c0.3-2.4-3-3.9-2.9-4.4c0.6-3.2-7.5-7.8,1.3-9.7l-3.5-3.5l-7,1.8C145.5,129,140.6,128.9,140.9,132.7z"/>
		<polygon class="st11" points="153.1,124 153.1,124 153.1,124 		"/>
		<path class="st4" d="M170.1,118.5c4.3,2.9,7.9,3.2,10.1-2.5c0.1-0.2,0.5-0.3,0.7-0.4c0.9-8.1-4.3-12-10.4-15.8
			c-1.1,2.1-1.1,4.5-0.1,6.7c2.4,1.2,3.3,2.7,1.7,5.4C171,113.8,163.5,114.1,170.1,118.5z"/>
		<path class="st6" d="M150.4,104.9c-1.7,3.1-2.1,2.8,2.8,7c0.6-0.1,1.1-0.1,1.7-0.2c0.4-5.4,3.3-7.6,8.5-6.9
			C159.1,103.3,154.9,96.3,150.4,104.9z"/>
		<path class="st4" d="M154.9,111.8c4.6-0.2,9-0.9,12.2-4.7c-0.6-1.7-2.1-2.1-3.7-2.2C158.2,104.2,155.3,106.4,154.9,111.8z"/>
		<polygon class="st11" points="153.2,124 153.1,124.1 153.1,124.1 		"/>
		<polygon class="st11" points="154.7,122.2 153.2,124 155.1,122.6 		"/>
		<path class="st7" d="M155.2,137.2c-0.1,0.6,3.2,2,2.9,4.4l1.9,1.6c2.6-0.4,5.6,0.6,7.6-2l-0.6-3.3c-2-1.8-3.2-4.3-3.3-7
			c0.2-6-2.2-9.3-8.6-8.5l-2,1.5l3.4,3.5h0.1v0.1c1.2,0.3,2.7,0.2,2.6,2.1c-0.1,0.3-0.3,0.5-0.5,0.5c-1.9,0.1-1.8-1.4-2.1-2.6h-0.1
			l0,0C147.8,129.4,155.8,134,155.2,137.2z"/>
		<path class="st7" d="M156.6,127.6L156.6,127.6L156.6,127.6L156.6,127.6L156.6,127.6z"/>
		<path class="st5" d="M172.5,143.3l-2.4,12.2c0.3,0.5,0.5,1,0.6,1.5c3.7,1.3,6.6-2.2,10.1-1.7c-4.2-6.9,3.2-11.2,3.6-17.1l-7-0.4
			l-3.2,0.4C173.9,140,174.4,142.1,172.5,143.3z"/>
		<path class="st6" d="M170.6,134.6l3.7,3.6l3.2-0.4c0.2-1.7,0.2-3.5,0-5.2c-0.5-2.9-2.4-6-5.4-5.1
			C168.7,128.4,168.8,131.7,170.6,134.6z"/>
		<path class="st6" d="M170.6,134.5l-6.8-3.5c0,2.7,1.2,5.2,3.3,7C169.3,138,170.5,136.8,170.6,134.5z"/>
		<polygon class="st7" points="158.3,117.1 158.3,117.1 158.8,117.8 		"/>
		<path class="st14" d="M18.3,194.4c0.6,4.1,4.7,6,6,9.7l2.9-3.4c-0.3-2.7,2.8-5.9,0.3-8c-5-4.4-0.1-5.5,2-7.6l-6.3-1.7L18.3,194.4z
			"/>
		<path class="st4" d="M23.2,183.4l6.3,1.7l3.3,0.1c2.4-1.6,1-3.5,0.4-5.3l-0.8-8.8l-6.7,0.1C21.1,174.5,26.9,180,23.2,183.4z"/>
		<path class="st0" d="M43.1,284.7l0.1-0.1l0,0l0,0C43.2,284.6,43.2,284.6,43.1,284.7z"/>
		<path class="st0" d="M31,268.9c1,1,2,1.9,3,2.9c0.6-1,1.2-2,1.9-3c0.7-1,1.4-2.2,2.2,0h1.8c0.5,0,1,0,1.5,0
			c0.1-0.6,0.3-1.1,0.6-1.6l-0.3-1.9h-1.9c-2.8,0.6-5.8-0.1-8.1-1.9C31.4,265.3,31.3,267.1,31,268.9z"/>
		<path class="st0" d="M0.4,227.7c1.7,3,3.5,6,5.3,8.9c-1.4-3.5-2.6-7.2-3.9-10.8c-0.3,0.5-0.7,1-1.2,1.4
			C0.5,227.3,0.5,227.5,0.4,227.7z"/>
		<path class="st0" d="M1.7,225.8c1.3,3.7,2.5,7.3,3.9,10.8c5.9,9.5,12.5,18.4,20,26.7c0.1-1.7,0.2-3.4,0.4-5.1
			c0.8-5.1,4.2,1.7,5.8-0.8c0.7-1.2,0.8-2.7,1.1-4c0-1.6,0.2-3.1,1.8-3.9c0.6-1.2,1.6-1.4,2.7-1.3c0.7-3.8,1.2-7.5-4.5-7.4l-3,9.5
			c-0.7-13.3-5.9-3-8.7-3.6c-1.7-3.1,0.8-6.9-2.5-9.1c-1.9,0.8-1.8,4.6-4,3.9s-1.8-3.5-2.2-5.8c-1.4-8.5,5.2-0.5,6.4-3.4
			c0.2-2-2.4-5.1,2-5.6l-2-3.1c-1.1-0.6-1.5-1.2,0-1.8c-0.1-4.4,3.4-6.9,5.1-10.4c-4.4-0.6-0.7-3.6-1.6-5.3c-3.7,2-6.3-5-10-1.4
			C8,209,6,214.8,3.6,220.3C2.8,222,2.8,224.1,1.7,225.8z"/>
		<path class="st0" d="M38,273.1c0,0.9,0.1,1.8,0.3,2.7c1.6,1.4,3.3,2.8,4.9,4.1c-0.1-2.1-0.1-4.2-0.1-6.2l-1.7-1.4h-1.6L38,273.1z"
			/>
		<path class="st10" d="M0.5,227L0,226.9l0.4,0.6C0.3,227.4,0.4,227.2,0.5,227z"/>
		<path class="st10" d="M23.9,211.4c2.3,0.4,1,6.3,5.4,3.4c-1.5-4.6,2.7-9.3-0.2-13.9l-1.9-0.2l-2.8,3.3l-2,2
			C23.2,207.8,19.5,210.8,23.9,211.4z"/>
		<path class="st8" d="M128.9,141.4c1.8,0.7,1.5,2.2,1.3,3.6c-1.2,5.2,2.9,8.1,5,11.9c1.4,0.5,3.4,0,3.9,2.2
			c2.1-0.3,3.5,1.1,5.1,2.1c3.3-1.4,4.1-4.1,3.9-7.3c-0.9-4-6.8-5.7-5-10.9l-2.3-10.1c-1.6,1.7-2.6,4.9-5.7,3.7
			C130,134.5,130.3,139,128.9,141.4z"/>
		<path class="st7" d="M118.4,148.5l-7.2,0.1l0.2,1.8c0.8,0,2.1-0.3,2.5,0.1c5.9,6.3,12.4,10.5,21.4,6.4c-2.1-3.8-6.2-6.7-5-11.9
			h-3.5l-1.2-0.1C124.8,149.1,124.6,154.6,118.4,148.5z"/>
		<path class="st0" d="M100.8,134.5c1.4,7.6-3,17.7,8.9,21l1.8-5.1l-0.2-1.8c-6.6-0.1-9.7-1.8-4.3-8.2c0.8-0.9,0.4-2.7,0.6-4h-1.2
			l-2.5-1.6L100.8,134.5z"/>
		<path class="st3" d="M116.5,145c0,0.5,0.1,1.1,0.2,1.6l1.8,1.9c6.1,6.1,6.3,0.7,7.1-3.6c0.5-1.2,0.9-0.7,1.2,0.1h3.5
			c0.2-1.4,0.5-2.9-1.3-3.6c-5.4,1.5-5.7-4.3-8.6-6.2C115.5,137.3,122.1,143.4,116.5,145z"/>
		<path class="st7" d="M113.8,145c-0.3,1.6,1.6,1.6,2.9,1.6c-0.1-0.5-0.2-1.1-0.2-1.6C115.5,143.7,114.2,143,113.8,145z"/>
		<path class="st6" d="M52.9,145.4l0.2,0.4l11.1-2.4c2.7-0.3,7,3.8,7.9-1s4.7-5.1,7.4-7.3c0.1-0.3,0.3-0.6,0.5-0.8l-2-4.9l-0.8-0.8
			l0.8,0.8c2.8-1,0.4-4.1,2.9-6.1c4.4-3.6,1.2-5.5-3-6l-0.2,1.8c-3.5,6.8-9.8,8.4-16.8,8.6c-0.1,6.3-4.5,10.5-7.4,15.5L52.9,145.4z
			 M66.6,129.4c1.7,0,2.6,0.9,2.5,2.6c-0.1,0.7-0.7,1.4-1.1,2l-2.1-3C65.3,130.1,65.5,129.6,66.6,129.4z M61.1,138.1l0.4-0.7
			c0.2,0.2,0.4,0.4,0.4,0.6s-0.2,0.4-0.3,0.7L61.1,138.1z"/>
		<path class="st4" d="M93.3,155.3l-1.5,1.4l0.3,2c1.4,0.8,1.6,2.1,1.7,3.5l3.4,0.1v0.1l1.5-1.2c5,0.1,10-1.2,14.3-3.8
			c-0.6-1.6-1.9-1.9-3.4-2c-11.9-3.2-7.5-13.3-8.9-21v-1.8l-1.8,0.1c-1.2,0.7-1.8,2-1.6,3.3c1.1,0.6,1.6,1.2,0,1.9v0.1
			C95.5,143.7,102.2,151.3,93.3,155.3z"/>
		<path class="st0" d="M93.4,145.4c-2.7,3.3,0.1,6.6-0.1,10c8.8-4,2.1-11.6,4-17.3l-3.2,1.7C93.9,141.7,93.6,143.5,93.4,145.4z"/>
		<path class="st11" d="M70.8,115.6c0.1,1.1,0.2,2.1,0.3,3.2h0.3l6.4,0.2l0.2-1.8c-1.1-1.6-1.1-3.8,0-5.4
			C72.4,106.9,73.7,115.2,70.8,115.6z"/>
		<path class="st11" d="M86.8,139.8L86.8,139.8L86.8,139.8L86.8,139.8z"/>
		<path class="st11" d="M80.1,134.2c-0.2,0.3-0.4,0.5-0.5,0.8c2.1,2,1.2,8.8,7.2,4.7v-2.3C87.1,131.1,82,136,80.1,134.2z"/>
		<path class="st11" d="M86.9,139.8c2.3,1.7,3,5.2,6.4,5.6c0.2-1.9,0.5-3.7,0.7-5.6c-2.6,1.1-2.3-4.9-5.5-2.2
			C88.3,138.6,88.1,139.6,86.9,139.8z"/>
		<path class="st11" d="M86.8,139.7l-0.1,0.1h0.2L86.8,139.7z"/>
		<path class="st0" d="M97.3,136.1v1.9C98.9,137.4,98.5,136.7,97.3,136.1z"/>
		<path class="st8" d="M86.8,137.5l-0.1,2.4c1.4-0.2,1.6-1.2,1.8-2.3L86.8,137.5z"/>
		<path class="st0" d="M98.9,132.9l1.8-0.1C100.1,131.7,99.5,132,98.9,132.9z"/>
		<path class="st14" d="M57.1,124c6,1.7,10.8,0,14.3-5.2h-0.3l-3.6-1.7H66C62.3,118.5,56.9,117.6,57.1,124z"/>
		<path class="st9" d="M67.6,117.1l3.6,1.7c-0.1-1.1-0.2-2.1-0.3-3.2C69.5,115.5,68.3,115.7,67.6,117.1z"/>
		<path class="st8" d="M43.4,80.3c1.8,0.5,2.1,2.1,2.4,3.6c1.5,1.4,3,2.9,4.8,0.4c-0.2-4-0.2-8-0.6-12c-0.2-2.3,2.5-5.6-1.2-6.7
			s-8-2.3-10.5,2.6C43.6,70.7,43.4,75.5,43.4,80.3z"/>
		<path class="st13" d="M36.3,82.2L36.3,82.2C36.3,82.2,36.3,82.2,36.3,82.2L36.3,82.2z"/>
		<path class="st13" d="M32.7,75.9c1.7,1.8,4,3.3,3.6,6.3c1.6-0.3,3.2,0.6,3.7,2.1c0.5-0.1,1.1-0.1,1.6-0.2c0-1.5,0.3-2.9,1.7-3.7
			c0-4.8,0.3-9.6-5.1-12.1c-2.8,2-4.6-5.3-6.9-1.2C30,70,30.5,73.5,32.7,75.9z"/>
		<path class="st5" d="M22.1,31.1l5.4,0.5c-0.3-2.3-0.7-4.7-3.6-4.5C21.8,27.3,22.3,29.5,22.1,31.1z"/>
		<polygon class="st6" points="58.9,97.9 58.9,97.9 59.3,98.7 		"/>
		<path class="st6" d="M111.3,150.4l-1.7,5.1c1.5,0.1,2.8,0.4,3.4,2c2,1.8,4.4,3.3,6.9,4.3c4.8,1.7,11.8,1.7,12.1,9.5
			c1.6,0.7,5.2-1.4,4.1,3l-4,12.7c3.3,2.9-1.4,6,0.3,8.9c7-1.2,8.4,5.4,12,8.8l1.8-0.2l1.7-1.7c3.2-4.2,2.5-8.9,1.2-13.3
			c6-2.8,13.3,2.8,18-4.1c-0.6-6.7,6.9-3.4,8.7-7.1c0.1-2.3-1.2-4.4-3.4-5.3c-5.3,0.4-10.4,2.8-15.9,1.7c-3.3-2.6-5.2,0.3-7.4,1.9
			c-2.2,1.3-6.6,2.8-6.7,0.9c-0.6-6.2-10.2-10.9-3.2-18.2c-0.5-2.1-2.5-1.7-3.9-2.2c-9,4.1-15.5-0.1-21.4-6.4
			C113.4,150.1,112.2,150.4,111.3,150.4z"/>
		<path class="st3" d="M154.9,230.4l-2,8.3c2.1,3.7,5.2,6.8,5.6,11.6c0.6,8.4,4,3.3,6.8,1.1c-0.8-9.7,0.1-19,6.2-27.1
			c1.2-1.6,0.5-3.2-0.9-4.5l-5.2,1.8c-2,1.4-4.4,2.1-6.8,2C158,226.2,159.1,229.8,154.9,230.4z"/>
		<path class="st7" d="M134,221.8c0.9,6,6.9,7,10.3,10.5c0.6,0.1,1.1,0.1,1.7,0.1c-0.1-3.2,2.2-3.6,4.7-3.9l0.4-4.9
			c-3-4.6,0.6-8.2,2-12.1l-2-5.2c-0.5-0.1-1-0.1-1.5-0.1l-1.9-1.8h-1.6l-1.8,0.2c-4.4,5.4,4.1,4.5,4,7.9c-4,3.1-9.7,3.5-12,8.7
			C136.2,221.6,134.8,221.6,134,221.8z"/>
		<path class="st6" d="M151.2,206.2l2,5.2h1.5c1.6-1.1,3.6-1.1,5.2-0.1c-1.3-4.6,1.3-9.7-2.9-15.1
			C157.3,201.6,154,203.7,151.2,206.2z"/>
		<path class="st7" d="M154.7,211.3c-0.4,4.6,1.5,8.5,3.8,12.3c2.4,0.1,4.8-0.6,6.8-2c0.2-3.7-4.2-2.7-5.3-5.1
			c-0.8-0.7-2.1-1.2-2.2-2c-0.3-1.5,1.2-1.2,2.2-1.4v-1.9C158.3,210.2,156.3,210.2,154.7,211.3z"/>
		<path class="st6" d="M157.8,214.5c0.2,0.8,1.5,1.3,2.2,2c0-1.1-0.1-2.2-0.1-3.4C159,213.3,157.5,213,157.8,214.5z"/>
		<path class="st6" d="M149.7,206.1l-1.8-1.8L149.7,206.1z"/>
		<path class="st4" d="M147.8,202.6l-1.6,1.7h1.6C147.8,203.8,147.8,203.2,147.8,202.6z"/>
		<path class="st1" d="M31,85.7c3.6-0.1,5.4,3.6,8.6,4.2l0.3-5.6c-0.5-1.6-2.2-2.5-3.8-2.1L31,85.7z"/>
		<path class="st1" d="M41.6,84.1l4.1-0.2c-0.3-1.5-0.5-3.1-2.4-3.6C41.9,81.2,41.6,82.5,41.6,84.1z"/>
		<path class="st14" d="M40.7,187l2.2,5.2c2.6-0.2,5.3-0.4,5.5,3.4c7.8-3,15.6-5.4,22.6,1.7l5.4-4.6v15.2
			c6.5-0.3,12.2-1.2,10.2-10.1c0.5-0.2,1-0.4,1.5-0.5c0.2-0.5,0.2-1.1,0.2-1.6c-4.3,0.4-6.1-3-8.7-5.4l-2-1.9
			c-2.4,0.2-5,0.8-6.8-1.6c-1.8,0-3.7,0.3-5-1.5c-1,0.1-2.6,0.8-3,0.3c-1.5-1.7,1.2-2.7,1.1-4.3l-1-1.4c-2.4,0.1-2.4-2.7-4.2-3.3
			c0.3,1.6,0.7,3.3,0.8,4.9c0.3,4.9-4.3,3.7-6.6,4.5c-3.7,1.3-2.7-2.2-2.8-4.2C45.5,180.4,46.4,189.9,40.7,187z"/>
		<path class="st8" d="M62,150.2c2.6,3.4,5,3.9,8.5,2.7c2.8-1.2,3.9,0,4,2.7l9.2,2c2.8,0.1,5.2-2.6,8.2-0.8l1.5-1.4
			c0.2-3.4-2.7-6.7,0-10c-3.6-0.4-4.2-4-6.6-5.7c-6.1,4.2-5.1-2.7-7.3-4.7c-2.7,2.1-6.4,2.4-7.4,7.3s-5.2,0.7-7.9,1
			C64.8,145.9,59,146,62,150.2z"/>
		<path class="st11" d="M57.6,157c1.7,1.4,3.4,3,4.9,4.6c1.8,2.3,3.8,4.2,6.7,2.2c1.6-1.2,4.7-2.4,0.5-5.4c-1.6-1.1,4.4,0.3,4.9-2.8
			c-1.8,0-3.3-1.1-4-2.7c-3.5,1.2-5.9,0.7-8.5-2.7c-3.1-4.1,2.8-4.2,2.2-6.9l-11.1,2.4C52.2,150.4,58.1,152.4,57.6,157z"/>
		<path class="st11" d="M78.2,172.9c-3.8,3.9-3.1,10.2-7.3,13.9c1.8,2.4,4.4,1.7,6.8,1.6c-1.9-5.7,1.6-8.9,5.5-11.9l3.5,0.3l0.6-2
			l-0.7-3.7h-6.5L78.2,172.9z"/>
		<path class="st6" d="M82.5,162.5l-2.8,6.7l0.4,1.9h6.5c2.2-3.9-3-11.1,5.4-12.3l-0.3-2c-2.9-1.8-5.4,0.8-8.2,0.8
			C83.3,159.2,82.9,160.8,82.5,162.5z"/>
		<path class="st11" d="M53.2,186.1c2.3-0.8,6.9,0.5,6.6-4.5c-0.1-1.6-0.5-3.3-0.8-4.9l0.1-2.5c-3.2-2-3.5,0.4-3.5,2.5
			c0.1,3.7-1.6,5.3-5.2,5.2C50.5,183.8,49.4,187.3,53.2,186.1z"/>
		<path class="st10" d="M75.2,167.3c-1.1,3,0.6,4.5,3,5.6l1.9-1.9l-0.4-1.8c-1.3,0.1-2.6,0-3.3-1.5C76,167.5,75.6,167.4,75.2,167.3z
			"/>
		<path class="st11" d="M64.2,181.3c0.1,1.6-2.6,2.6-1.1,4.3c0.4,0.4,1.9-0.2,3-0.3C68.7,182.4,66.8,181.7,64.2,181.3z"/>
		<path class="st4" d="M75.2,165.2l-0.1,0.3l0.1,1.8c0.4,0.1,0.8,0.3,1.2,0.4l3.4-5.3C77.4,161.9,76.5,163.9,75.2,165.2z"/>
		<path class="st5" d="M79.9,162.5l-3.4,5.3c0.6,1.5,1.9,1.5,3.3,1.5l2.8-6.7L79.9,162.5z"/>
		<path class="st6" d="M59.1,174.1l-0.1,2.5c1.8,0.6,1.8,3.5,4.2,3.3C62.7,177.4,62.6,174.5,59.1,174.1z"/>
		<path class="st10" d="M75.2,165.2l-1.2-0.1l1.1,0.4L75.2,165.2z"/>
		<path class="st10" d="M46.5,202.6c-0.2,2.7,1.1,4.8,2.4,6.9l1.3,1.7h0.1c2.8-0.2,5,0.4,5.2,3.8c7.3,0,4.4-8.3,8.7-10.7
			c0.7-4.6,2.7-3.3,4.9-1c2.7-1.3,1.8-3.8,2-5.9c-7-7.1-14.8-4.7-22.6-1.7C47.5,197.9,52.7,201.9,46.5,202.6z"/>
		<path class="st14" d="M29.4,214.8c0.2,2.2,0.3,3.8,3.4,4.6c2.9,0.8,6.6-1,8.7,2.3h1.8l5.2-3.5c-3-1.4-2.9-4.7-4.1-7.1l-10,2
			C33.3,215,31.3,215,29.4,214.8z"/>
		<path class="st6" d="M27.6,192.7c2.5,2.1-0.6,5.3-0.3,8l1.9,0.2c2.4-1.8,4.8,0.1,7.2-0.1c2-5.9-0.6-10.8-3.6-15.6l-3.3-0.1
			C27.3,187.2,22.6,188.3,27.6,192.7z"/>
		<path class="st4" d="M29.3,214.8c2,0.2,3.9,0.2,5.1-1.8c-5.2-7.8,6.1-2.7,5.4-7c0.1-2.5,0-5-3.5-5.3c-2.4,0.2-4.8-1.7-7.2,0.1
			C32,205.5,27.8,210.2,29.3,214.8z"/>
		<path class="st5" d="M43.2,221.8l0.1,5.2c1.1,2.2,3,1.8,4.9,1.5c0.2-2.4,0.3-5,3.8-5l-0.1-5.1l-2.1-1.9l-1.4,1.7L43.2,221.8z"/>
		<path class="st6" d="M34.4,213l10-2l-4.6-5C40.6,210.3,29.2,205.2,34.4,213z"/>
		<path class="st14" d="M46.5,202.6c6.2-0.7,1-4.8,2-7h-5.1C43,198.5,44.6,200.6,46.5,202.6z"/>
		<path class="st14" d="M49.9,216.5l2.1,1.9l3.5,0.1l0.1-3.4c-0.2-3.4-2.4-4-5.2-3.8L49.9,216.5z"/>
		<path class="st5" d="M32.5,171.1l0.8,8.8c5.9-3.2,1.9-6.4-0.1-9.5C32.9,170.5,32.6,170.8,32.5,171.1z"/>
		<path class="st10" d="M42.9,192.2l0.4,3.4h5.1C48.2,191.8,45.6,192,42.9,192.2z"/>
		<path class="st14" d="M50.2,211.2l-1.3-1.7C48.7,210.6,49.1,211.2,50.2,211.2z"/>
		<polygon class="st11" points="51.9,143.2 52.9,145.4 53.7,143.2 		"/>
		<path class="st6" d="M148,73.4l-0.1,0.1l0.1,0.1C147.9,73.5,148,73.4,148,73.4z"/>
		<path class="st6" d="M148.2,72.9c-0.1,0.1-0.1,0.3-0.2,0.4l0.6-0.6C148.4,72.7,148.3,72.8,148.2,72.9z"/>
		<path class="st6" d="M144.2,161.1v0.8c0.1,0.3,0.2,0.6,0.3,0.8c2.6-0.1,5.1-1.1,7.1-2.8c2-1.8,3.6-1.2,5.3,0.2
			c2.5,2,1.6,3.9-0.3,5.7l0.2,7c6-2,9.7-5.8,10.4-12.2l-2.8-5.5l5.8,0.5l2.4-12.2l-4.9-2c-2,2.6-5,1.5-7.6,2
			c0.3,8.3-6.1,8.9-11.9,10.4C148.3,157.1,147.5,159.7,144.2,161.1z"/>
		<path class="st10" d="M144.3,161.9c-2.7,2.8-2,5.1,0.5,7.9c1.7,1.9,4.7,3.3,4.4,6.6c2.2-1.6,4.1-4.5,7.4-1.9
			c0.1-0.5,0.1-1.1,0.2-1.6c-0.1-2.3-0.1-4.7-0.2-7c-4.2-0.4-9,1.9-12-3.1C144.4,162.5,144.3,162.2,144.3,161.9z"/>
		<path class="st4" d="M170.2,155.5l-5.8-0.5l2.7,5.5c1.7-0.6,3.1-1.9,3.6-3.6C170.6,156.5,170.4,156,170.2,155.5z"/>
		<path class="st0" d="M83.1,254.8l-6.7,5.4c2.2,0.2,5.8-0.8,3.2,3.6v0.2c4.2,0.9,15.4-3.3,5.8,8.2c-1.2,1.4,2.1,9.1,8.5,8.9
			l0.6-2.2l0.6,0.4l-1.3,1.8c-2.6,4.6-2.2,8.1,3.9,9c5.3-3.2,2.1,2.3,3.4,3.2c5.8,2.2,9.5,1.6,8.5-6c-0.4-3.1,0.3-6.4-0.2-9.5
			c-0.4-2.4,2.5-8.1-4.4-5.4c-0.8-3.5-5.5-5.6-3.6-10c1.4-3.1,2.3-6.7,7.4-4.9c1.6,0.6,3.8-0.6,5.8-1c-2.6-4.2-8.2-6.6-10.5-3.4
			C97,263,90.3,259.3,83.1,254.8z M104.7,279.4l0.4-0.7c0.2,0.2,0.4,0.4,0.5,0.6s-0.2,0.5-0.3,0.7L104.7,279.4z"/>
		<path class="st14" d="M53.8,261.9v3.3c6.6,3.7,3.2,8.4,1.4,13.8c4.1,0.1,9.4,0.2,5.6,7c4-0.2,6.8,2.6,10.3,3.8
			c2.5-2.6,3.1-0.7,3.5,1.5c5.4,1,7.2-1.9,7.4-6.7c-2.6-3.4-6.5-0.8-9.6-2.4l7.5-4.8c-0.5-2.2-0.1-4.9-3.6-4.9
			c-5.2,1.2-5.2,1.2-4.5-2.1c1.6-8.1-2.9-13.6-11.7-14.2l-0.3-0.3h-0.4C57.8,258.5,57.3,261.6,53.8,261.9z"/>
		<path class="st4" d="M93.7,304.6c-3.8,10.4,0.4,17.6,12.2,20c5.7-0.1,2.9-7.1,6.9-8.5l0.3-3.9c-0.1-1.6-0.1-3.3-0.2-4.9
			c-2.5,1.8-3.5,5.2-6.9,6.1c-1.5,0.4-2.7,0.7-3.8-0.6c-0.8-0.9-1.4-2.2-0.3-3c1.6-1.2,2.1-2.4,2.1-3.5
			C100.6,305.9,97.1,305.3,93.7,304.6z"/>
		<path class="st4" d="M95.9,300.1c-0.8,1.5-1.5,3-2.1,4.5c3.4,0.7,6.8,1.3,10.2,1.6c-0.1-2.2-2.5-4.1-3.1-6.2l-0.4,0.2
			C98.8,302.8,97.3,302.9,95.9,300.1z"/>
		<path class="st6" d="M63.7,254.3l-3.8,2.2c8.8,0.6,13.4,6.1,11.7,14.2c-0.7,3.3-0.7,3.3,4.5,2.1c2.5-2.4,4.4-5,3.3-8.7
			c0-0.1,0-0.2-0.1-0.2c-1.7-0.4-3.8,0.8-4.9-1.2c-0.2-0.4,1.1-1.6,1.7-2.4l6.7-5.4l2-6.6l-8.8-0.5l-1.8,0.3
			c-0.7,1.6-1.6,2.9-3.5,3.2l-3.8-0.4c-1.5,0.4-3.4,0.4-3.3,2.8c1.7-0.1,3.5-0.5,5.3,1.1L63.7,254.3z"/>
		<path class="st3" d="M64.3,302c0.2,2.9,1,5.4,4.6,4.2c3.2-1,5-0.2,5.9,3c4,5.5,5.5-0.9,7-2.2c2.6-2.1,0.4-5.2-1.9-6.2
			c-3.3-1.4-7.1-1.6-10.6-2.4C67.4,299.4,67.1,302.5,64.3,302z"/>
		<path class="st6" d="M60,307.4c1.4,2.8,3,5.4,4.5,8l10.3-6.2c-0.9-3.2-2.7-4-5.9-3c-3.6,1.2-4.4-1.3-4.6-4.2h-1.9
			C58.4,302.5,58.7,304.9,60,307.4z"/>
		<path class="st11" d="M97.7,290.1l-1.8,9.9c1.4,2.8,3,2.7,4.7,0.2l0.5-6.9C99.8,292.5,103,286.9,97.7,290.1z"/>
		<path class="st6" d="M79.8,277.6l-7.4,4.8c3.1,1.6,7-1,9.6,2.4C87.4,280.5,83.8,279,79.8,277.6z"/>
		<path class="st11" d="M64,296.8l-1.7,5.2l1.9,0.1c2.8,0.4,3.1-2.7,5-3.6l0.2-2c-1.6-0.7-3.1-1.5-4.7-2.3
			C64.3,294.9,64,295.9,64,296.8z"/>
		<path class="st11" d="M65.8,293.4c-0.4,0.2-0.7,0.4-1,0.7c1.5,0.8,3.1,1.6,4.7,2.3l0.1-1.1l-0.4-0.4
			C67.9,294.9,66.6,294.9,65.8,293.4z"/>
		<path class="st11" d="M71.1,289.9v3.4l0.3,0.4l3.2-2.2C74.2,289.1,73.6,287.2,71.1,289.9z"/>
		<polygon class="st11" points="71.1,293.3 69.3,294.9 69.7,295.3 71.4,293.6 		"/>
		<path class="st13" d="M85.1,248.1l-2,6.6c7.3,4.6,14,8.2,21-1.4c2.3-3.2,7.9-0.9,10.5,3.4c2.8,3,4,6.8,5.4,10.5l3.7-1.7
			c-1.5-6.9,2.9-8.7,8.2-10.9c6.8-2.8,9.5,1.1,12.4,5.6c2.4-0.9,4.9-1.6,7-2.9c1.8-1.2,4-3,2.9-5.6c-1.1-2.8-4-2.2-6-1.6
			c-5.4,1.5-9.2,1.2-9-5.7l-20.6,0.3c-1.2,2.1-2.8,3.7-5.3,3.6c-7.7-0.6-15.4,2.8-23-0.5L85.1,248.1z"/>
		<path class="st3" d="M113.5,306.8c-0.2,0.2-0.3,0.3-0.5,0.5c0.1,1.6,0.1,3.3,0.2,4.9c1.5-1.5,2.6-3.3,3.1-5.4h-1
			C114.7,306.9,114.1,306.8,113.5,306.8z"/>
		<path class="st3" d="M113,307.3L113,307.3z"/>
		<path class="st3" d="M101.1,293.4c-0.2,2.3-0.3,4.6-0.5,6.9l0.4-0.2c3.5-2.7,6.8-0.3,10.2,0.2c0.4-1.5-0.3-3.9,1.8-4
			c1.9-0.2,1.5,2,1.5,3.2c-0.1,2.5,0.8,5.2-1.1,7.3c0.6,0,1.2,0,1.8,0h1c0.8-2.4,1.6-4.9,3.7-6.5c0.6-6.9,0-13.5-4.8-19.6l-0.9,8.5
			c-4.8-6.2-2.3-12.4-3-18.9l8.4,4.2l0.4-7.2c-1.4-3.7-2.6-7.5-5.4-10.5c-1.9,0.4-4.2,1.6-5.8,1c-5.1-1.9-6,1.8-7.4,4.9
			c-1.9,4.3,2.8,6.5,3.6,10c6.8-2.7,4,3,4.4,5.4c0.5,3.1-0.2,6.4,0.2,9.5C110.6,295,106.9,295.6,101.1,293.4z"/>
		<path class="st4" d="M125,317.7c2.3-3.5,4.8,0.6,7.3-0.1c2.3-1.7,4.6-0.1,6.9,0c0.8-3.2,1-6.5,0.6-9.7c-0.2-1.3,0-2.7,0.3-4
			c-5.3,1.3-10.6,2.1-16,2.6C124.8,310.2,118.4,314.7,125,317.7z M132.6,312.6l0.3-0.7c0.2,0,0.5,0,0.6,0.2c0.1,0.2,0.1,0.5,0.1,0.7
			L132.6,312.6z"/>
		<path class="st4" d="M125.1,302.1l-1.5,3.4c0.2,0.3,0.3,0.6,0.4,1c5.4-0.5,10.7-1.3,16-2.6c0.6-2,2.3-3.5,4.4-3.7
			c0.7-3.1,5.4-3.1,5.3-6.8c-3.6-0.6-8.4,5.4-10.9-2.9c-0.6-2.1-3,1.6-3.1,3.8c-0.2,4.5-0.3,8.8-6.3,10.1l-3.1-13.1l-0.8,0.1v10.3
			l0.6,1L125.1,302.1z"/>
		<polygon class="st10" points="109.6,237.4 109.5,237.4 109.5,237.4 		"/>
		<path class="st10" d="M104.1,239.5c-0.1,0.5-0.1,1.1,0,1.6c3.9,5,10.2,0.2,14.6,3.4l20.6-0.3c4.4-2.1,9.6-2.1,13.5-5.5l2-8.3
			c0.1-3-0.3-5.7-3.6-6.9l-0.4,5c0.4,1.3,2.9,2.5,0.3,3.9c-1.6,0.9-3.3,2.4-4.9,0c-0.6,0-1.2,0-1.7-0.1c-0.8,9.7-7.8,4.5-12.3,5.2
			l-3.7-0.2c-4.7,1.7-9.1-3.9-13.8-0.3c-1.1,6.3-3.2,1.8-5,0.4h-2c-0.5,0-1.1,0.1-1.6,0.2L104.1,239.5z"/>
		<path class="st3" d="M123.7,265.4c5.5,4.2,10.9,8,14.1-2.4c0.9-2.9,3.8-3,6.5-2.9c-2.9-4.5-5.6-8.4-12.4-5.6
			C126.6,256.8,122.3,258.6,123.7,265.4z"/>
		<path class="st9" d="M148.8,145L148.8,145z"/>
		<path class="st9" d="M143.2,142.9c-1.8,5.2,4.1,6.9,5,10.9c5.7-1.5,12.2-2.1,11.9-10.5l-1.9-1.6h-3.5c-0.5,4-3.5,3.1-6,3.2l0,0
			c-1.8,0-3.5-0.2-4.7-1.9C143.8,142.9,143.5,142.9,143.2,142.9z"/>
		<path class="st8" d="M148.7,145c2.5-0.1,5.6,0.8,6-3.2C151.4,140.5,148.7,140.2,148.7,145z"/>
		<path class="st8" d="M144,143.1c1.2,1.7,2.9,1.9,4.8,1.9C147.7,143.1,146,142.7,144,143.1z"/>
		<path class="st11" d="M167,138.1l0.6,3.3l4.9,2c1.9-1.3,1.4-3.4,1.8-5.2l-3.7-3.6C170.6,136.9,169.3,138.1,167,138.1z"/>
		<path class="st6" d="M156.6,127.6c0.3,1.2,0.2,2.7,2.1,2.6c0.3-0.1,0.5-0.3,0.5-0.5C159.3,127.7,157.8,127.9,156.6,127.6z"/>
		<path class="st6" d="M156.5,127.6L156.5,127.6L156.5,127.6L156.5,127.6z"/>
		<path class="st4" d="M18.7,223.5l2,3.2c5.2,1.4,2.5,5.8,3.3,8.8c3-2.5,0.6-6.7,3-9.5c0.8-0.8,1.2-2.1,2.5-1.8
			c1.6,0.3,2.2,1,1.3,2.9c-1.3,3,2.9,5.3,1.8,8.6l0.2,5c5.7-0.1,5.2,3.6,4.5,7.4c-0.4,1.6-1.6,1.3-2.7,1.3c-1.6,0.8-1.8,2.3-1.8,3.9
			c2.2,1.2,1.3,5.5,5.2,5.1c1.5-3.5,3.2-6.8,6.1-9.3c-1.5-5.1-3.1-10.2-2.6-15.7c0-0.5-1.2-1.1-1.9-1.7c-6.2-6-6-7,1.8-9.9
			c-2.1-3.3-5.8-1.5-8.7-2.3c-3.1-0.8-3.2-2.4-3.4-4.6c-4.4,2.9-3.1-3.1-5.4-3.4c-1.8,3.4-5.2,6-5.1,10.4
			C20.2,222.4,20.3,223,18.7,223.5z"/>
		<path class="st4" d="M43.3,279.9v4.6c6.3-1.1,9.7,3.5,13.8,6.9c0.8,0.3,2.2-0.2,2,1.2c0,0.3-1.3,0.5-2,0.7c0.7,4.4,4.9,1.9,7,3.4
			c0-0.9,0.2-1.9,0.8-2.6C57.2,290.1,50,285.4,43.3,279.9z"/>
		<path class="st4" d="M43,267.2l0.1,6.5l0.1,6.2c6.7,5.5,14,10.2,21.6,14.3c0.3-0.3,0.7-0.6,1.1-0.8c0.6-4.1-6-3.1-5.1-7.4
			c3.8-6.8-1.5-6.9-5.6-7c1.8-5.4,5.2-10.1-1.4-13.8l-1.8-1.6C48.3,263.2,45.5,264.7,43,267.2z"/>
		<path class="st6" d="M24.4,273.5c-0.1,0.4,0.9,1.5,1.6,1.6c1.8,0.2,3.8-0.7,4.2-2.3c0.4-1.3,0.6-2.6,0.8-3.9
			c-1.8-1.8-3.6-3.7-5.4-5.7C25.6,266.7,25.2,270.1,24.4,273.5z"/>
		<path class="st6" d="M25.6,263.3c1.8,2,3.6,3.8,5.4,5.7c0.2-1.8,0.4-3.6,0.7-5.5c2.3,1.8,5.2,2.5,8.1,1.9V260c0-0.5,0-1,0-1.5
			h-0.8H38c-3.8,0.4-2.9-3.9-5.2-5.1c-0.3,1.3-0.4,2.8-1.1,4c-1.5,2.5-5-4.1-5.8,0.8C25.8,259.9,25.6,261.6,25.6,263.3z"/>
		<path class="st3" d="M18.8,232.2l-0.1,5.3c3.4,2.2,0.9,6.1,2.5,9.1c2.9,0.6,8-9.7,8.7,3.6l3-9.5c-0.1-1.7-0.1-3.3-0.2-5
			c-2.9-0.5-5.9,7.6-8.6-0.2c-0.8-3.1,1.9-7.4-3.3-8.8C16.4,227.1,19,230.2,18.8,232.2z"/>
		<path class="st10" d="M41.6,265.3l0.3,1.9c0.4,0,0.7,0,1.1,0c2.5-2.5,5.3-4,8.9-3.6l1.8-1.8c3.6-0.2,4-3.4,5.5-5.7
			c0-3.5-4.3-2.1-5.3-4.5c-5.9-1.6-2.6,7-7.4,6.7l-4.7,3.5L41.6,265.3z"/>
		<path class="st7" d="M37.8,282.9c0.2-1.4,0.5-2.9,2-3.6l-0.1-1.8c-0.7-0.3-1.2-0.9-1.4-1.7c-1.5-1.3-2.9-2.7-4.3-4
			C31,277.2,32.2,280.7,37.8,282.9z"/>
		<path class="st7" d="M34,271.8c1.4,1.4,2.9,2.7,4.3,4c-0.2-0.9-0.3-1.8-0.3-2.7v-4.3l-2.1,0.2C35.2,269.8,34.5,270.8,34,271.8z"/>
		<path class="st7" d="M12.5,235.6c0.4,2.3,0,5.1,2.2,5.8s2.1-3.1,4-3.9l0.1-5.3C17.7,235.1,11,227.1,12.5,235.6z"/>
		<path class="st4" d="M37.8,282.9l1.2,1.8c1.6-1.6,0.3-3.7,0.8-5.4C38.3,280.1,38,281.5,37.8,282.9z"/>
		<path class="st14" d="M41.3,268.8l0.2,3.5l1.7,1.4l-0.1-6.5h-1.1C41.6,267.7,41.4,268.2,41.3,268.8z"/>
		<path class="st6" d="M55.4,293.3l0.8,0.1H57c0.7-0.2,2-0.4,2-0.7c0.1-1.5-1.3-0.9-2-1.2c-0.5,0-1.1,0-1.6,0.1L55.4,293.3z"/>
		<path class="st7" d="M39.7,259.9v5.5h1.9c0.1-1.1,0.2-2.3,0.2-3.4L39.7,259.9z"/>
		<path class="st7" d="M39.8,268.8c0,1.2,0,2.4,0,3.6c0.5,0,1.1,0,1.6,0l-0.2-3.5C40.8,268.9,40.3,268.8,39.8,268.8z"/>
		<path class="st11" d="M37.9,268.8v4.3l1.8-0.8c0-1.2,0-2.4,0-3.6H37.9z"/>
		<path class="st4" d="M43.1,284.7l0.1-0.1l0,0C43.2,284.6,43.1,284.6,43.1,284.7z"/>
		<path class="st4" d="M41.9,286.4c1.9,0.5,1.1-1,1.2-1.7L41.9,286.4z"/>
		<path class="st3" d="M34.7,249.4c1.1,0.1,2.4,0.3,2.7-1.3C36.3,248,35.3,248.1,34.7,249.4z"/>
		<path class="st4" d="M55.4,293.4l0.1-1.8C54.2,292.1,54.1,292.7,55.4,293.4z"/>
		<path class="st4" d="M39.7,277.5l0.1,1.8C41.1,278.7,41,278.1,39.7,277.5z"/>
		<path class="st11" d="M35.9,268.9H38C37.3,266.7,36.6,267.9,35.9,268.9z"/>
		<path class="st4" d="M18.8,223.5c0-0.6,0-1.1,0.1-1.7h-0.1C17.3,222.3,17.7,222.9,18.8,223.5z"/>
		<path class="st0" d="M139.1,159c-7,7.4,2.7,12,3.2,18.3c0.2,1.9,4.5,0.4,6.7-0.9c0.3-3.4-2.6-4.7-4.4-6.6
			c-2.5-2.7-3.1-5.1-0.5-7.9v-0.8C142.7,160.1,141.3,158.7,139.1,159z"/>
		<path class="st4" d="M125.5,144.9l1.2,0.1C126.4,144.1,126.1,143.7,125.5,144.9z"/>
		<path class="st10" d="M65.9,131l2.1,3c0.5-0.6,0.8-1.3,1.1-2c0.1-1.7-0.8-2.6-2.5-2.6C65.5,129.6,65.3,130.1,65.9,131z"/>
		<path class="st11" d="M61.5,137.4l-0.4,0.7l0.5,0.6c0.1-0.2,0.3-0.5,0.3-0.7C61.9,137.8,61.6,137.6,61.5,137.4z"/>
		<polygon class="st7" points="78.1,129.3 77.3,128.5 78.1,129.4 		"/>
		<path class="st10" d="M97.2,162.4L97.2,162.4z"/>
		<path class="st10" d="M98.7,161.2l-1.5,1.2c0.1,1.7,1.1,4.6,2.1,4c6.4-3.3,3.6,2.5,4.6,4.4c0.5,1.4,0.8,2.7,1,4.2
			c6.1-7.4,7.4-7,11.6,3.1c4.1,0,8.5-0.4,8.8,5.6c0.3,5.5,3.9,3.6,6.9,3.2l4-12.7c-1.1-1.4-3.8-0.6-4.1-3c-0.3-7.8-7.3-7.8-12.1-9.5
			c-2.5-1-4.9-2.4-6.9-4.3C108.7,160,103.8,161.3,98.7,161.2z"/>
		<path class="st14" d="M83.4,183.4c5.8-1.1,5.1,4.2,7,6.9c5.8,2.1,7.1-0.9,7.1-5.9c0-2.6-1.2-6.5,3-6.6c5.5-0.2,12.5,8.2,12.5,14
			l8.2-1c1.3-5.3-9.6-6.2-4.8-12.8c-4.1-10.1-5.5-10.5-11.6-3.1c-0.2-1.4-0.5-2.8-1-4.2c-0.9-1.9,1.9-7.7-4.6-4.4
			c-1.1,0.6-2-2.4-2.1-4.1l-3.4-0.1c-1.4,3.4,6.7,6.9,1,9.4c-4.4,2-1.4-4.4-3.8-5.9c-1.5,2.9,0.2,7.2-3.8,9l-0.6,2
			c-0.5,1.7-1.9,2.9-3.6,3.1C81.5,181.2,81.7,182.4,83.4,183.4z"/>
		<path class="st10" d="M86.7,171.1l0.7,3.7c4-1.8,2.2-6.1,3.8-9c2.4,1.5-0.7,7.9,3.8,5.9c5.7-2.5-2.4-6-1-9.4
			c-0.1-1.4-0.4-2.7-1.7-3.5C83.7,160,88.9,167.2,86.7,171.1z"/>
		<path class="st14" d="M98.7,161.2l-1.5,1.2L98.7,161.2z"/>
		<path class="st4" d="M132.1,197.5c0.9,2.2,4.5,3.7,1.8,6.8c1.3,4.9-0.4,9.4-1.7,13.9l1.8,3.6c0.8-0.2,2.2-0.2,2.4-0.7
			c2.2-5.2,8-5.7,12-8.7c0.1-3.4-8.5-2.5-4-7.9c-3.6-3.4-5-10-12-8.8C132.4,196.3,132.3,196.9,132.1,197.5z"/>
		<path class="st11" d="M116.4,178.1c-4.8,6.6,6.1,7.4,4.7,12.8l0.3,0.1c2.1-0.6,3.5,0.1,4.1,2.1c2.1,1.7,3.5,4.2,6.5,4.5
			c0.1-0.6,0.2-1.2,0.3-1.8c-1.7-2.9,3-6-0.3-8.9c-3,0.4-6.6,2.3-6.9-3.2C124.9,177.7,120.6,178.1,116.4,178.1z"/>
		<path class="st7" d="M132,171.2c0.4,2.4,3.1,1.6,4.1,3C137.2,169.8,133.6,171.9,132,171.2z"/>
		<path class="st11" d="M153.2,211.3c-1.4,4-5,7.5-2,12.2c3.3,1.2,3.7,3.9,3.6,6.9c4.3-0.6,3.1-4.2,3.7-6.8
			c-2.3-3.8-4.2-7.6-3.8-12.3H153.2z"/>
		<path class="st6" d="M132.2,218.3l-3.7,5l0.4,3.5c6.2,2,1.8,7.2,3.2,10.6c4.6-0.6,11.6,4.6,12.3-5.2c-3.5-3.4-9.4-4.4-10.3-10.4
			L132.2,218.3z"/>
		<path class="st6" d="M146.1,232.4c1.6,2.4,3.3,0.9,4.9,0c2.6-1.4,0.1-2.6-0.3-3.9C148.3,228.7,146.1,229.1,146.1,232.4z"/>
		<path class="st10" d="M74.7,213.1l-0.6,3.2l2.2,1.9c1.5,0.1,2.9,0.4,3.5,2l-0.1,3c0.8,0.1,1.7,0.2,2.5,0.1c6-1.4,10.6-1.3,8.4,7.1
			c-0.1,0.4,1,1.2,1.5,1.8l3.6,0.1l3.5-3.6c0.2-3.1-1.4-4.9-3.6-7.1c-5-5.2-7.4-11.6-5.4-19.1l0.4-4.9l-2.5-0.3
			c-0.5,0.1-1,0.3-1.5,0.5c2,8.9-3.7,9.8-10.2,10.1l-0.5,1.4C76.7,210.9,78.2,212.9,74.7,213.1z"/>
		<path class="st11" d="M88.5,195.7c0,0.5,0,1.1-0.2,1.6l2.5,0.4c0.5-0.1,0.9-0.3,1.3-0.6c0.3-2.6,1.8-3.3,4.1-2.8l4.5-2.4
			c0.1-2.6,0-5.9,3.4-6c3.1-0.1,5,2.4,5.4,5.6l3.3,0.3c0-5.8-7-14.2-12.5-14c-4.2,0.1-3,4-3,6.6c0,5-1.3,8-7.1,5.9L88.5,195.7z"/>
		<path class="st8" d="M73.2,216.1l0.9,0.2l0.6-3.2c-0.4-1.4,0.1-3,1.4-3.8l0.5-1.4v-15.2l-5.4,4.6c-0.2,2.2,0.8,4.7-2.1,5.9
			c0,0.9-0.1,1.8-0.1,2.6C68.1,210.2,73.7,211.9,73.2,216.1z"/>
		<path class="st10" d="M83.3,183.4l-3.6,6.9c2.6,2.4,4.4,5.8,8.7,5.4l1.9-5.4C88.5,187.6,89.1,182.3,83.3,183.4z"/>
		<path class="st9" d="M77.8,188.4l2,1.9l3.6-6.9c-1.7-1.1-1.9-2.2-0.2-3.6l0.2-3.4C79.3,179.5,75.9,182.7,77.8,188.4z"/>
		<path class="st9" d="M70.6,152.9c0.7,1.6,2.2,2.7,4,2.7C74.4,152.9,73.3,151.7,70.6,152.9z"/>
		<path class="st10" d="M83.3,176.5l-0.2,3.4c1.7-0.2,3.1-1.5,3.6-3.1L83.3,176.5z"/>
		<path class="st9" d="M55.5,218.4c1.2,9.1,6.9,3.2,10.8,3.2c2.9-1.2,3.3-5.5,7-5.6c0.5-4.2-5.1-5.9-4.3-10.2l-4.8-1.6
			c-4.3,2.4-1.4,10.7-8.7,10.7C55.5,216.2,55.5,217.3,55.5,218.4z"/>
		<path class="st14" d="M64.2,204.3l4.8,1.6c0-0.9,0.1-1.8,0.1-2.6C66.9,201,64.9,199.6,64.2,204.3z"/>
		<path class="st9" d="M39.7,231.6c-0.1-2.5,0.6-4.5,3.6-4.7l-0.1-5.2h-1.8C33.6,224.6,33.4,225.6,39.7,231.6z"/>
		<path class="st14" d="M41.6,233.4c-0.5,5.5,1.1,10.6,2.6,15.7c0.7,1.9,6.4,3.2,0.7,5.9l1.7,3.5c4.8,0.3,1.4-8.3,7.4-6.7
			c0.5-0.2,1.5-0.4,1.5-0.7c0.1-4.4,0.9-8.6-4.6-11.3c-6.4-3.2,6.6-6.9,0.4-10.9c-0.3-0.1-0.5-0.2-0.8-0.2l-2.2-0.2
			c-1.9,0.3-3.8,0.6-4.9-1.5c-3,0.2-3.7,2.2-3.6,4.7C40.3,232.2,41.6,232.8,41.6,233.4z"/>
		<path class="st8" d="M51.9,218.4c0,1.7,0,3.4,0.1,5.1l1.6,1.5c2.1,3.2,6.8,2.1,8.8,5.5c2.5-0.9,3.7-2.8,3.9-5.3l-0.1-3.4
			c-3.9,0-9.6,5.8-10.8-3.2L51.9,218.4z"/>
		<path class="st9" d="M48.2,228.4l2.2,0.2c0.2-2,1.7-2.8,3.2-3.7l-1.6-1.5C48.5,223.4,48.4,226,48.2,228.4z"/>
		<path class="st9" d="M151.5,160c-2,1.7-4.4,2.7-7,2.8c3,5,7.9,2.7,12,3.1c1.9-1.8,2.8-3.7,0.3-5.7
			C155.2,158.8,153.5,158.2,151.5,160z"/>
		<path class="st7" d="M76.3,260.2c-0.6,0.8-1.9,2-1.7,2.4c1.1,2,3.2,0.8,4.9,1.2C82.1,259.4,78.5,260.3,76.3,260.2z"/>
		<polygon class="st7" points="94.4,278.8 93.8,281.1 95.1,279.2 		"/>
		<path class="st3" d="M105.1,278.7l-0.4,0.7l0.5,0.6c0.1-0.2,0.3-0.5,0.3-0.7C105.5,279.1,105.2,278.9,105.1,278.7z"/>
		<path class="st2" d="M50.8,239.7c5.5,2.7,4.7,6.9,4.6,11.3c0,0.2-1,0.4-1.5,0.7c1,2.4,5.3,0.9,5.3,4.5h0.4l0.3,0.3l3.8-2.2
			c-0.1-0.3-0.1-0.6,0.1-0.8c-0.1-2.4,1.8-2.4,3.3-2.8c2.4-4.5,1.9-8.2-1.1-12.6c-1.4-2.1-5.5-3.7-3.7-7.6c-2-3.4-6.8-2.3-8.9-5.5
			c-1.4,0.9-3,1.7-3.2,3.7c0.3,0,0.6,0.1,0.8,0.2C57.4,232.8,44.4,236.5,50.8,239.7z"/>
		<path class="st6" d="M60.8,286c-0.9,4.3,5.7,3.3,5.1,7.4c0.7,1.4,2,1.5,3.4,1.5l1.8-1.7v-3.4C67.7,288.6,64.8,285.8,60.8,286z"/>
		<polygon class="st11" points="51.9,263.6 53.7,263.6 53.8,261.9 		"/>
		<path class="st10" d="M51.9,263.7l1.8,1.6c0-0.5,0-1.1,0-1.6H51.9z"/>
		<path class="st0" d="M102,309.7c-1.1,0.8-0.5,2.1,0.3,3c1.1,1.3,2.3,1,3.8,0.6c3.4-0.9,4.5-4.3,6.9-6.1v0.1c0-0.1,0-0.3,0-0.5
			c-3.1-0.1-6.1-0.2-9.1-0.6C104.1,307.3,103.6,308.4,102,309.7z"/>
		<path class="st0" d="M101,300.1c0.5,2.1,2.9,4,3,6.2c3,0.3,6.1,0.5,9.1,0.6c0-2.3-0.6-4.6-1.8-6.6
			C107.8,299.8,104.4,297.4,101,300.1z"/>
		<path class="st14" d="M66.2,221.7c0.1,1.1,0.1,2.3,0.1,3.4c2.7,0.6,7.1-1.1,6.1,4.5c-0.3,1.5,0,1.6,1.6,1.7c4.5,0.2,5.2,0.9,3.1,4
			c-2.9,4.3-1.8,8.1-0.9,12.3l8.8,0.5l5.3-0.5c3-5.6,9.9-2.7,13.8-6.5c-0.1-0.5-0.1-1.1,0-1.6l0.2-2c-3.5-0.7-6.8-1.7-8.6-5.2
			l-3.6-0.1c-1,2.1,2.8,6.1-2.4,6.5c-2.6,0.2-7.8,1.5-7.1-1.2c1.6-5.8-3.9-9.3-2.9-14.3l0.1-3c-1.4-0.2-2.9-0.4-3.5-2l-2.3-1.9
			l-0.9-0.2C69.5,216.2,69.1,220.5,66.2,221.7z"/>
		<path class="st9" d="M62.5,230.5c-1.9,3.9,2.3,5.6,3.7,7.6c3,4.4,3.5,8.1,1.1,12.6l3.8,0.4c0,0,0,0,0,0c0-1.7,1.4-3.2,3.1-3.2h0.4
			l1.8-0.3c-0.9-4.2-2.1-8,0.9-12.3c2.1-3.1,1.4-3.8-3.1-4c-1.6-0.1-1.9-0.2-1.6-1.7c1-5.6-3.4-3.9-6.1-4.5
			C66.1,227.7,65,229.6,62.5,230.5z"/>
		<path class="st9" d="M63.9,253.4c-0.2,0.2-0.3,0.6-0.1,0.8l5.5,0.3C67.4,253,65.6,253.3,63.9,253.4z"/>
		<path class="st14" d="M74.1,247.9c-1.7,0-3.1,1.4-3.1,3.2c1.9-0.2,2.8-1.6,3.5-3.2C74.4,247.9,74.3,247.9,74.1,247.9z"/>
		<path class="st9" d="M90.4,247.6c7.6,3.3,15.3-0.1,23,0.5c2.5,0.2,4.1-1.5,5.3-3.6c-4.3-3.2-10.6,1.6-14.6-3.4
			C100.3,244.8,93.3,242,90.4,247.6z"/>
		<path class="st4" d="M113,306.8c0,0.1,0,0.3,0,0.4c0.2-0.1,0.3-0.3,0.4-0.4L113,306.8z"/>
		<path class="st4" d="M111.2,300.2c1.2,2,1.8,4.3,1.8,6.6h0.4c2-2.1,1.1-4.9,1.2-7.4c0-1.2,0.3-3.4-1.5-3.2
			C110.9,296.4,111.6,298.8,111.2,300.2z"/>
		<path class="st11" d="M132.9,311.9l-0.3,0.7l1,0.2c0-0.3-0.1-0.5-0.1-0.7C133.3,312,133.1,312,132.9,311.9z"/>
		<polygon class="st0" points="125.4,301.8 125,302.2 126,302.8 		"/>
		<polygon class="st5" points="109.6,237.3 109.5,237.4 109.6,237.4 		"/>
		<path class="st5" d="M99.2,228.7l-3.5,3.6c1.8,3.5,5.1,4.5,8.6,5.2c0.5-0.1,1.1-0.1,1.7,0.1c0.5-0.1,1.1-0.1,1.6-0.2
			c0.7-1.1,1.3-2.3,2.1-0.1l5-0.4c4.7-3.6,9.2,2,13.8,0.3c-1-3.4-0.8-7.1,0.5-10.4l-2.4-1.8c-6.1,1.3-11.3,8.6-17.8,4.3
			C104.9,226.9,102.3,228.5,99.2,228.7z"/>
		<path class="st14" d="M128.9,226.8c-1.3,3.3-1.5,7-0.5,10.4l3.7,0.2C130.7,234,135.1,228.8,128.9,226.8z"/>
		<path class="st11" d="M114.6,236.9l-5,0.4C111.3,238.7,113.4,243.3,114.6,236.9z"/>
		<path class="st11" d="M107.6,237.4l2.1-0.1C108.9,235.1,108.2,236.3,107.6,237.4z"/>
		<path class="st11" d="M104.3,237.5l-0.2,2l1.8-1.9C105.4,237.4,104.9,237.4,104.3,237.5z"/>
		<path class="st0" d="M24.2,235.5c2.7,7.8,5.8-0.3,8.6,0.2c1.2-3.3-3.1-5.6-1.8-8.6c0.9-2,0.3-2.7-1.3-3c-1.3-0.2-1.8,1-2.5,1.8
			C24.8,228.8,27.2,233,24.2,235.5z"/>
		<path class="st10" d="M38,258.4h1.7c0.6-0.9,1.1-1,1.7,0l3.4-3.4c5.7-2.6,0-4-0.7-5.9C41.3,251.7,39.5,255,38,258.4z"/>
		<path class="st3" d="M18.8,223.5c1.6-0.5,1.4-1.1,0.1-1.7C18.8,222.4,18.8,223,18.8,223.5z"/>
		<path class="st11" d="M39.7,258.4c0,0.5,0,1,0,1.5l2.1,2l4.7-3.5l-1.7-3.5l-3.5,3.4h-0.8H39.7z"/>
		<path class="st8" d="M90.8,197.6l-0.4,4.9l2.3,3.7c8.5-6.3,13.5,1.8,19.9,4.6c2.2,1,4.1-0.2,5.4-1.8c4.2-5.6,9.8-5.9,16-4.7
			c2.7-3.1-0.9-4.6-1.8-6.8c-3-0.3-4.5-2.8-6.5-4.5c-2.2,0.9-3.7,0.3-4.1-2.1l-0.3-0.1l-8.2,1l-3.3-0.3c-0.1,0.5-0.1,0.9-0.1,1.4
			c-0.2,1.2,0.7,3.2-1.5,3.2c-1.8,0.1-3.3-1.2-3.6-3l-3.7-1.2l-4.5,2.4c-0.8,1.9-1.8,3.3-4.1,2.8C91.6,197.3,91.2,197.5,90.8,197.6z
			"/>
		<path class="st2" d="M90.3,202.6c-2.1,7.5,0.4,13.9,5.4,19.1c2.1,2.2,3.8,4,3.6,7.1c3.2-0.2,5.7-1.9,9.5,0.6
			c6.5,4.3,11.8-3,17.8-4.3l1.9-1.7l3.7-5c1.2-4.6,2.9-9.1,1.6-14c-6.2-1.2-11.8-0.9-16,4.7c-1.3,1.7-3.2,2.8-5.4,1.8
			c-6.3-2.8-11.4-10.9-19.9-4.6L90.3,202.6z"/>
		<path class="st14" d="M121.4,190.9c0.5,2.4,1.9,3,4.1,2.1C124.8,191,123.5,190.3,121.4,190.9z"/>
		<polygon class="st14" points="128.5,223.3 126.6,225 128.9,226.8 		"/>
		<path class="st6" d="M82.6,237.6c-0.7,2.7,4.5,1.4,7.1,1.2c5.2-0.4,1.4-4.4,2.4-6.5c-0.5-0.6-1.6-1.3-1.5-1.8
			c2.2-8.4-2.4-8.5-8.4-7.1c-0.8,0.1-1.7,0-2.5-0.1C78.7,228.2,84.2,231.8,82.6,237.6z"/>
		<path class="st14" d="M74.7,213.1c3.5-0.1,2-2.1,1.4-3.8C74.8,210.1,74.3,211.6,74.7,213.1z"/>
		<path class="st6" d="M76.4,218.2c0.7,1.6,2.1,1.8,3.5,2C79.3,218.6,77.8,218.4,76.4,218.2z"/>
		<path class="st14" d="M100.7,191.9l3.7,1.2l5.1-0.2c0-0.5,0-0.9,0.1-1.4c-0.4-3.2-2.4-5.7-5.4-5.6
			C100.6,186,100.8,189.3,100.7,191.9z"/>
		<path class="st10" d="M92,197c2.3,0.5,3.4-0.9,4.1-2.8C93.8,193.7,92.3,194.4,92,197z"/>
		<path class="st6" d="M39.7,258.4h1.6C40.8,257.4,40.3,257.5,39.7,258.4z"/>
		<path class="st2" d="M109.4,193l-5.1,0.2c0.2,1.8,1.8,3.1,3.6,3C110.1,196.1,109.2,194.2,109.4,193z"/>
	</g>
</g>
</svg>
