<svg xmlns="http://www.w3.org/2000/svg" viewBox="0 0 234.95 224.97"><defs><style>.cls-1{fill:#d7ad90;}.cls-2{fill:#d9beb1;}.cls-3{fill:#bb9989;}.cls-4{fill:#cfb5a8;}.cls-5{fill:#966e59;}.cls-6{fill:#e1cdc0;}.cls-7{fill:#744f40;}.cls-8{fill:#c6ab9a;}.cls-9{fill:#ae8d78;}.cls-10{fill:#aa836a;}.cls-11{fill:#c1926e;}.cls-12{fill:#cda07e;}.cls-13{fill:#e5d6ce;}.cls-14{fill:#eee3dd;}.cls-15{fill:#3e2c2a;}</style></defs><title>Asset 1</title><g id="Layer_2" data-name="Layer 2"><g id="Layer_1-2" data-name="Layer 1"><path class="cls-1" d="M119.89,37.51c-.59,1.49-1.27,1.67-2.21.16h-2.19c.18,1.11.47,2.44-.68,3s-2.19,2.7-3.56,1.42S112,40,112.52,39a13.75,13.75,0,0,0,.48-1.37,13.64,13.64,0,0,0-7.26-.3h-1l-3.85-.06c1.64,5.92,6,9.16,11.93,11.65-3.88,2.88-7.16,5.46-12.16,4.21-5.28-1.33-7.6,3.68-11.23,5.86-.9.54-1.25,2-2.65,2-.33,2.83.85,4.13,3.54,5.52,5,2.6,9.32,6.37,10.48,12.47h3c3-4.55-.66-8.68-1.15-13-.38-3.37-1.24-5,2.2-7.92,3.12-2.64,8.44-3.21,9.44-8.55.93,4.22,5.56,1.42,6.76,4a10.53,10.53,0,0,1-.11,9.37c.24,2-1,4.19.89,5.93,1.34-1.3,1.68-3.88,4.84-2.79.86.3,3.87-.81,4.58-3,.52-1.79,1.52-.89,2.52-.56a1.25,1.25,0,0,1,.58,2.26c-3.54,2.19-1.82,8.19-7.06,9.19-2,.39-1.43,2.64-1.28,4.28.36,3.74-.12,7.1-4.12,8.82l-.16,3h5.2c-.35-4,3.19-6,4.87-9,1.6-3.61,3.56-7,7.19-8.87,3.44-1.79,6.36-1.31,7.86,2.69.72,1.93,2.13,2.29,3.89,2.24l-1.83-9c-.46-.17-1.21.13-1.21-.68,0-.13.74-.25,1.13-.37,1.55-2.72-1.77-3.19-2.27-4.9-1.26-4.35.74-8.33,5.24-11q0-1.5,0-3c-6.6-3.46-13.4-6.54-20.69-8.1C127.36,39.21,123.29,39.94,119.89,37.51Z"/><path class="cls-2" d="M100.94,37.28c-8.88.56-17.41,3.09-26.1,4.62C75,45.19,73.47,47,70.27,48c-4.38,1.33-8.36,3.32-10.16,8.1a1.46,1.46,0,0,1-2.71.12c-.68-1.59-2.68-3.36-.39-5.25-.12-1.42-.28-2.85,1.72-3.09l-.08-1.78c-3.33-.73-3.93-4-5.79-6.16a38.42,38.42,0,0,0-11-1c-.8,1.7-4,.18-4,3l4.8-.84c3.17-.49,5.72.43,8.17,3.88h-6c.63,1.13,1.89,1.07,2.89,1.41,2.3.79.86,1.63.12,2.5,2.54,2.23.56,5.58,2,8.09.42,2.75,5.95,4.21,2,8.06,1.57,2.79,2.52,1,4-.26,2.42-2.11,4.18-5.92,8.64-3.92,1.07.47,2.35.46,2.35,2,0,1.16.24,2.51-1.22,2.91-2.8.77-2.8,2.89-2.7,5.12,3.65-1.21,7.3-4.46,10.95,0a13.31,13.31,0,0,0,7.27-1.19c5.68-2.39,13,.25,15.5,6.08.92,2.19,1.9,3.36,4.25,3.19-1.16-6.11-5.48-9.88-10.48-12.47-2.7-1.39-3.88-2.69-3.54-5.52-.73-.13-1.58-.11-1.51-1.21a.46.46,0,0,1,.31-.31c1.11-.07,1.09.78,1.22,1.51,1.41,0,1.75-1.41,2.65-2,3.63-2.17,6-7.18,11.23-5.86,5,1.25,8.28-1.33,12.16-4.21C106.94,46.43,102.58,43.2,100.94,37.28Z"/><path class="cls-3" d="M232.61,21.31a57.8,57.8,0,0,0-21.51,2.56c-13.51,4.49-24.45,13.83-36.59,20.91,1.56.45,3.07-.28,5.07-.58-.57,2.21-3.69,2.47-2.69,4.83.69.29.69.64,0,1-.29,2.53-2.21,3.71-4,5-.49,1.3,1,2.67,0,4-.07,2-1.77,2.29-3.07,3v2c2.13.22,3.56,2.18,3.06,3.47-.72,1.84-3.31,1.38-5.19,1.62-.5,3.34,3.09,2.27,4.2,3.88,4.66.58,4.55-5,8-6.1V66h-2a3,3,0,0,1-3.39-2c-.26-.65-.28-1.37.39-1.65,1.4-.57,2.45.52,3.61,1a13.59,13.59,0,0,1,1.28.69c1.77-.48,4-.44,3.88-3.17a5.77,5.77,0,0,1-1,.06c-2.75,0-7-.08-6.91-2.65s4.3-2.24,7-2.18l2.17-.14a4.51,4.51,0,0,1,0-1c0-2.27-2.34-1.73-3.89-2.73,3-2.09,4.15-4.66,5-7.78a9.67,9.67,0,0,1,6.68-6.54,10,10,0,0,1,7.1-5.9,2.81,2.81,0,0,1,3.08-2l2.88-1.07c1.16-1.17,3-1.67,3.42-.09.5,2.09-1.75,2-3.3,2.16a13.81,13.81,0,0,1-5.68,6.89,7.32,7.32,0,0,0-3.41,5c1.18,3.25-1.46,4.72-3.15,6.61s-3.24,3.62-2.82,6.35l.08.12c1.46.11,3,.69,2.52,2.28-.68,2.1.22,5.44-3.54,5.7l-1,.93q-.06,2.53-.13,5.06l-1,7.92,3.13.14a10.93,10.93,0,0,0,4-4c-1.16-1.13-3.36-1.33-3.23-3.51,0-.22,1.42-.36,2.19-.53l.08-3c-.06-1.44-.06-2.89,1.94-3,1.56-1.27.7-3.58,2-5-.17-2.07.5-4,.35-6.22-.22-3.1.9-6.25,5.37-5.81,1,.07,2.16-.6,3.24-.93,0-1.09-.11-2.26,1-3a1.78,1.78,0,0,1,2-2h.21a1.9,1.9,0,0,0,1.79-2c-.47-1-2.83-1.64-1.19-3.11,1.44-1.29,2-4.52,5.17-2.9,2,.58,3.76-.71,5-1.55,4.29-2.89,8-.17,11.91.51,1.4-2.33,1.72-5,2.13-7.57C235.15,22.67,234.61,21.43,232.61,21.31ZM207.89,34l-.49.37.4-.43.3-.4Z"/><path class="cls-4" d="M39.83,30c-2.3-.42-4.89,1-7-1-4.5-3.87-6.19-9.69-10-14h-1c-.51,1-1.15,2.09-2.45,1.63-1.58-.57-1.58-2.15-1.58-3.57-2.34-2.91-4.44-6-7.88-8,2.56-2.54,5,.29,7.24-.54-3-2.78-7-3.42-10.77-4.27C1.78-.79-.51,1.38.09,6.17.75,11.48,1.89,16.72,2.89,22L5,22.47l-2.09.48c-.1,1.11-.16,2.21.9,3,.83-1.09,1.9-.91,2.34.09,1.73,4,5,4.19,8.65,3.9,1.58-1.77,3.4-1.16,4.72,0,2.46,2.17-1.23,3.89-.74,6l1,.06c4.11,0,8.51-1.14,11.57,3.11,1.08,1.53,5.2-1.55,4.49,2.89h2c0-2.82,3.19-1.3,4-3C38.52,36.55,37.66,33.59,39.83,30Z"/><path class="cls-4" d="M225.83,41.75c-3.72-6.14-9.32-2.32-14.07-2.8a1.9,1.9,0,0,1-2,2,1.77,1.77,0,0,1-2,2c-1.08.73-1,1.9-1,3-.62,2.45,2.64,3.56,2,6,2.41,3.63.86,6.34-1.93,8.9-1.33,1.21-2.59,1.59-3.79.21-1-1.1-1.8-2.48-.37-3.93l5.16-5.2c-1.53-2.76-2.77-1.36-4.53-.08-2.59,1.88-2.2,5.91-5.52,7.09-1.27,1.39-.41,3.69-2,5,.11,1.47.11,2.91-1.93,3.08l-.08,3c.14,1.35,4.4,1.7,1,4a10.93,10.93,0,0,1-3.94,4c.27,2.16,1.8,2.23,3.27,1.67,2.89-1.1,5.83-.66,8.76-.66.24-.72.55-.81.94-.1,3.36-3.65,5.62-8.29,10-11-1.65-1.73-1.13-2.64,1.09-2.92a96.19,96.19,0,0,1,1-10.35c.85-4.25,4.47-2.27,7-2.66l.23-1.34.77.47c2-2.83,4.27-5.57,4.78-9.19C227.69,41.89,226.11,42.21,225.83,41.75Z"/><path class="cls-3" d="M38.89,61.89V60a2.29,2.29,0,0,0-2-1c-.07,1.28.08,2.7-1.79,2.86A1.86,1.86,0,0,1,32.81,60l-2,0c-5.1-.69-8-3.2-7.8-8.69.14-2.13-.5-4.38,0-6.38.76-3,1.07-5.41-2.61-6.59C20,38.13,20,36.78,19.83,36l-1-.06c-2.75-1.06-1.49-4.77-4-6-3.6.29-6.92.1-8.65-3.9-.44-1-1.51-1.18-2.34-.09,1,3.5,1.73,7,3,10.5C11,47.72,14.89,59.17,24.5,67.3c2.14-.57,3.2,1.83,5.14,1.75l1.2-.21V63.69c3,1.48,5.46,5.25,8.89,1.35C38.57,64.22,38.69,63.07,38.89,61.89Z"/><path class="cls-5" d="M166.11,124.25c1-1.55-.74-2.79-.48-4.25-1.8.16-2.6,2.56-4.72,2.08l-1,2.89c1.1,5.54-3.88,10.5-11,11-4,3.28-1.91,9.25-5.74,12.68a42.08,42.08,0,0,0-4.33,5.3c.93,2,2.35,1.57,4.11,1.16a80.2,80.2,0,0,1,8.21-1.11c3.36-.78,6-2.78,8.66-4.78.45-1.84-1.23-4.44,1.88-5.35l5.2-5.86C168.11,133.34,165.24,128.89,166.11,124.25Z"/><path class="cls-6" d="M62.82,120.95l-4,0-.43-.65.4-.26a2.08,2.08,0,0,0,1-2c-1.06-.13-2.44.27-2.74-1.28-.24-1.28.76-1.59,1.76-1.74-1.63-4.64-.62-9.32-.05-14-3.93,0-4.66,3.27-4.66,5.77-.07,4.93-2.28,4.67-5.58,3.16l-2.69.1,0-.08c-.91,7.74-7.33,15.65,1,23,.53.47.63,1.42.93,2.15,1-3.59,3.92-1.8,6.09-2.11.21-1.45-1.33-2.66-.38-4.66,2.43,1.29,4.74,2.64,7.14,3.78,3.16,1.51,5.69-.23,5.59-3.76,0-1.12-.18-2.25-.28-3.37C62.59,125.28,62.74,123.09,62.82,120.95Z"/><path class="cls-5" d="M147.7,212c.36,1.86-.83,3.33-1.11,5,2.34,1.58,5.47.32,7.76,2.83l1.46-6.74A6.23,6.23,0,0,1,151,209.4q-1.8.5-3.61.94A4.15,4.15,0,0,1,147.7,212Z"/><path class="cls-5" d="M151.52,192.1a1.93,1.93,0,0,0,.52-1.35c-.32-4.7,1.2-5.88,6-4.7,1-.94.57-1.94,0-2.94-3.2-5.34-2.73-10.23,1.51-15.25l.19-.1c-1-1.82,2.92-4.37-.87-5.76-1.48,3.34-2.22,7.34-7.27,7.34-1.23,0-1.68,1.42-1.73,2.66h5.52c-3.89,2.94-5.1,6.4-7.5,9a6.93,6.93,0,0,0-1.21,3.83c3.11,4.93,2,8.39-2.89,9.08l-1.07,1,.07,2c5.26,1.27,2,3.83.93,6.08,1.66,0,3.34.9,2.8,2.49-.66,1.92.39,3.35.91,4.86q1.81-.44,3.61-.94a5.94,5.94,0,0,1-.41-1.62C150.09,202.55,146.45,197,151.52,192.1Z"/><path class="cls-1" d="M56.86,153.79c-1.27-3.87-4.57-6.73-5.38-10.87-.21-1.1-1.56-.91-2.56-.91a10.52,10.52,0,0,0-1,2.73c-.75,9.16-1.62,18.28-4.15,27.16l1,1.09c4.33.26,8.91,1,10.07-5-1.72-3.86.48-7.93-.72-11.86C53.39,153.72,55.56,154.11,56.86,153.79Z"/><path class="cls-3" d="M39,22.74c-3-2.6-4.23-6.9-9.23-7.32-1.47-.13-1.83-3.26-2-5.26C26.46,8.51,23.8,9,22.7,7,20.8,6.92,18.29,8.13,18,4.8a1.43,1.43,0,0,0-.76-.26c-2.24.83-4.69-2-7.24.54,3.44,2.06,5.54,5.14,7.88,8,1.7-.15,3.23.11,4,1.94h1c1.88-.16,3.16.68,4.75,1.78,2.44,1.69,2.13,5.17,5.58,6.37,2.63.93.49,3.83-.37,5.83,2.08,2,4.67.59,7,1C43.23,27.1,42,25.34,39,22.74Z"/><path class="cls-7" d="M155.89,213l1.55-1.3.24,0,.06-.24,1.11-1a.66.66,0,0,1,.71-.54,2.44,2.44,0,0,0,.61-2.9l-.34-.37c-2.86,1-5.76,2-8.7,2.78A6.24,6.24,0,0,0,155.89,213Z"/><path class="cls-7" d="M157.61,198l.11-4c-.65-.45-.49-.79.14-1.06l.08-2c-.78-.37-.78-.72.07-1l.11-3.91c-4.85-1.18-6.37,0-6,4.7a1.93,1.93,0,0,1-.52,1.35c-5.07,5-1.43,10.45-.89,15.68a5.92,5.92,0,0,0,.42,1.65c2.94-.82,5.83-1.75,8.7-2.78C157.64,204.14,156.21,201.45,157.61,198Z"/><path class="cls-8" d="M51.79,35c-4.25-2.12-5-6.22-5.9-10.29A71.14,71.14,0,0,0,27.76,10.24c.19,2,.55,5.14,2,5.26,5,.42,6.4,4.8,9.23,7.32s4.24,4.33.83,7.18c-2.16,3.59-1.3,6.55,2,8.9a38.42,38.42,0,0,1,11,1l-.94-4Q51.85,35.44,51.79,35Z"/><path class="cls-1" d="M58.78,83.93c-.32.08-.76.05-.94.25-3.86,4.3-7.39,5.61-10-1.17h-3c-1.12,3-1,6.1-1.12,9.19l1.49,3.67c.75.16,1.39.44,1.56,1.29a4.57,4.57,0,0,0,.12.84c3.24-1,6.37-2.8,10-1.89,1-1.61.67-4.6,3.94-4.07l1-3V88C60.41,86.93,62,83.64,58.78,83.93Z"/><path class="cls-8" d="M220.84,31.42c-1.22.83-3,2.12-5,1.55l-.24.41.21-.44c-3.17-1.63-3.73,1.61-5.17,2.9-1.63,1.48.72,2.11,1.19,3.11,4.76.49,10.35-3.34,14.07,2.8.28.47,1.84.19,2.84.19A6.55,6.55,0,0,0,230,38.06c-.9,0-1.75,1.21-2.66.13a.87.87,0,0,1,.21-.81c1.07-.74,1.82-.12,2.5.68,1.94-1.58,2.18-3.93,2.73-6.13C228.84,31.26,225.13,28.54,220.84,31.42Z"/><path class="cls-2" d="M40.46,72.68c.5-.86.9-1.78,1.34-2.67-3,.79-6-2.67-9,0,2.63,3.92-.77,6.6-2,9.73,1.4,7.15,8.54,8.35,12.89,12.45.12-3.1,0-6.19,1.12-9.19C41.17,81.65,38.68,75.71,40.46,72.68Zm-2,12.92c-4-.6-3.68-4-4.32-7.26v0c3.61.37,6.16,1.38,6.32,4.94C40.49,84.22,39.91,85.82,38.43,85.6Z"/><path class="cls-8" d="M194.16,79.67c-1.47.56-3,.49-3.27-1.67l-3.22-.11a2.25,2.25,0,0,0-.91,2.06c3.75,3.28,3.45,4.31-2,7a6.17,6.17,0,0,0-.08,1c1.29.65,1.12,1.86,1.12,3q0,.51.09,1l2,4.24.91-.88a2.7,2.7,0,0,1,2-2.26v.09c.39-1,.72-.62,1,0a23.41,23.41,0,0,1,1.92-2.27c3.63-3.51,3.24-10.09,9.11-11.86C200,79,197.05,78.57,194.16,79.67Z"/><path class="cls-4" d="M55.36,146.09c.63-1.81,3-.5,3.47-2.12l-1-1-.06-2a1.8,1.8,0,0,1-2-2c-.12-2.2-3.9-3.15-2-6-2.17.3-5.09-1.49-6.09,2.11L49,142c1,0,2.34-.19,2.56.91.81,4.14,4.11,7,5.38,10.86l0,.13c1.05,0,2.15.23,2.83-.9C58.86,150.39,57.76,147.88,55.36,146.09Z"/><path class="cls-2" d="M56.89,96.12c-3.6-.87-6.73.88-10,1.88-.34,4,.83,7.92,1.7,12,3.3,1.51,5.51,1.77,5.58-3.16,0-2.5.72-5.77,4.65-5.77a4.13,4.13,0,0,0,0-1C56.18,99.71,57,97.66,56.89,96.12Z"/><path class="cls-9" d="M42.32,179.08c2.56-1.17.8-4.39,2.45-6.11l-1-1.07c-3.08,3.28-6.39,6.35-9.41,9.69q1.52,1.3,3.06,2.55A10.17,10.17,0,0,1,42.32,179.08Z"/><path class="cls-1" d="M69.85,41c-2.08,4.27-5.1,7.35-10,8.11C59.7,51,58.33,51,57,51c-2.28,1.9-.28,3.67.4,5.25a1.46,1.46,0,0,0,2.71-.12c1.8-4.78,5.8-6.78,10.16-8.1,3.2-1,4.73-2.79,4.57-6.08C73.32,40.7,71.89,39,69.85,41Z"/><path class="cls-3" d="M57.83,35c-1.47,3.51-4,.44-5.94,1l.94,4c1.86,2.12,2.46,5.42,5.8,6.2,1.59-3.65,5.31-4.41,8.31-6.22C64.75,36.73,61.29,35.86,57.83,35Z"/><path class="cls-1" d="M167.89,58l-5.6-8.16c-.09-.91-.75-1.11-1.49-1.23.16,1.26-.1,2.82.56,3.72,2.68,3.68.58,4.38-2.58,4.63.07,1,0,2.55.85,2.55,3.67.11,4,3.07,5.16,5.42l1-.09c1.36-1.74,2.68.44,4,0q0-.42,0-.84,0-1,0-2C169.89,60.3,166.29,60.35,167.89,58Z"/><path class="cls-10" d="M172.91,55c-3.72-.95-1.39-4-2.11-6-2-1.92-4.27.19-6.36-.41l-2.13,1.27L167.89,58a8.2,8.2,0,0,0,5,1C173.83,57.75,172.38,56.39,172.91,55Z"/><path class="cls-2" d="M160.82,48.63c-2.93-1.22-6-.38-9-.53v3c3.21.88,4.87,3.68,7,5.88,3.16-.25,5.26-1,2.58-4.63C160.73,51.45,161,49.89,160.82,48.63Z"/><path class="cls-9" d="M165.06,153.48c-.14,0-.14-.3-.14-.46l-.34-.33-1.69.31-1.12,1.94c.76,2.62-1.83,2.82-2.94,4.09V162c3.79,1.39-.13,3.94.87,5.76,8.27.07-.72-9.35,5.71-10.55C165.86,157.09,167.06,154.59,165.06,153.48Z"/><path class="cls-8" d="M215.89,54.65c-.62,3.35-.68,6.9-1,10.35,4.56-3.15,6.58-7.89,8-13C220.34,52.39,216.71,50.4,215.89,54.65Z"/><path class="cls-10" d="M58.62,46.11l.07,1.75,1.14,1.24c4.92-.76,8-3.83,10-8.1l-2.9-1.11C64,41.69,60.21,42.46,58.62,46.11Z"/><path class="cls-10" d="M171.71,109l-.32-.06-2.47-.92c-1.07.56-1.56,2.07-3.07,2,2,4-1.28,2.68-3,2.91.71,3.32-2.43,5.84-1.9,9.12,2.08.49,2.89-1.91,4.68-2.06-.36-5.11,5-6.9,6.41-11Z"/><path class="cls-9" d="M159.51,167.82c-4.2,5.06-4.67,10-1.47,15.29.34-1.26,1.26-2.71.91-3.73-1.39-4-.21-6.54,4.5-7.72C161.25,170.57,160,169.56,159.51,167.82Z"/><path class="cls-9" d="M174.5,44.77a1,1,0,0,0-.65.38c-.42,1.77-.8,3.56-3.07,3.85.71,2-1.62,5.08,2.11,6,1.81-1.31,3.73-2.49,4-5l-.11-.11a5.07,5.07,0,0,1-.35-.69s.25-.16.38-.25c-1-2.36,2.12-2.62,2.69-4.83C177.56,44.49,176.06,45.22,174.5,44.77Z"/><path class="cls-9" d="M30.89,68.88l-1.2.21c-1,1.6,2.54,5.6-2.65,4.91a2.85,2.85,0,0,0,1.76,3.24c.18-.59.67-1.31,1.18-.89.82.69-.26,1.18-.55,1.75,0,.91.22,1.63,1.36,1.63,1.24-3.12,4.64-5.81,2-9.73Z"/><path class="cls-9" d="M166.89,138c3.68-3.34,3.31-10.11-.74-13.76C165.27,128.88,168.14,133.33,166.89,138Z"/><path class="cls-3" d="M45.89,24.71c.9,4.07,1.65,8.17,5.9,10.29-.08-1.67.23-3,2.28-3.18C51.69,29.06,49.2,26.4,45.89,24.71Z"/><path class="cls-9" d="M163.06,146.88c-2.22.83-1.41-1.73-1.41-3-3.11.91-1.44,3.5-1.89,5.35,1.35,0,3.13-.65,3,1.81,1.06.09,2,.33,1.79,1.72l.34.33c1.45-.68,2.78-2.77,1.94-3.21C165.4,149.09,166.46,145.6,163.06,146.88Z"/><path class="cls-7" d="M29.69,69.07c-1.94.08-3-2.32-5.13-1.78l-.13,1.54a5.16,5.16,0,0,1,.34.75c0,.11-.14.27-.14.4L27,74C32.23,74.67,28.74,70.67,29.69,69.07Z"/><path class="cls-3" d="M180.71,96.84c-1.06.62-1,1.73-1.18,2.73l.49.91c2.6-1.49,6.42-.77,7.87-4.34l-2-4.2C185.52,95,185.2,98,180.71,96.84Z"/><path class="cls-8" d="M171.37,108.92l.32.06H172c2.56-3,6.24-4.85,8.08-8.5l-.49-.92C175.94,101.87,172.37,104.23,171.37,108.92Z"/><path class="cls-3" d="M170.82,49c2.26-.29,2.65-2.09,3.07-3.85-3.42.44-6.8.92-9.43,3.44C166.55,49.2,168.82,47.09,170.82,49Z"/><path class="cls-9" d="M54.82,32.26a1.46,1.46,0,0,0-.75-.44C52,32,51.71,33.34,51.79,35a3.8,3.8,0,0,1,.09.91c1.94-.51,4.47,2.56,5.94-1L55.62,33Z"/><path class="cls-5" d="M160.1,207c0-.17,0-.35.05-.52l-.39.14Z"/><path class="cls-5" d="M157.54,198c-1.37,3.47,0,6.16,2.22,8.62l.39-.14C160.39,203.36,158.42,200.84,157.54,198Z"/><path class="cls-2" d="M113.1,37.69a13.77,13.77,0,0,1-.48,1.37c-.49,1-2.7,1.76-1.27,3.1s2.36-.79,3.56-1.42.86-1.93.68-3Z"/><path class="cls-4" d="M17.92,4.76C18.3,8.1,20.81,6.89,22.7,7,21.89,4.59,19.72,5.08,17.92,4.76Z"/><path class="cls-8" d="M214.9,65.08c-2.22.28-2.74,1.19-1.09,2.92C214.33,67,215.15,66.24,214.9,65.08Z"/><path class="cls-2" d="M117.82,37.71c.84,1.47,1.52,1.26,2.07-.2a1.25,1.25,0,0,0-2.07.2Z"/><path class="cls-3" d="M2.89,22.91,5,22.48,2.89,22A1.86,1.86,0,0,0,2.89,22.91Z"/><path class="cls-2" d="M28.8,77.21l.63.86c.3-.57,1.38-1.07.55-1.75C29.47,75.89,29,76.62,28.8,77.21Z"/><path class="cls-3" d="M188.89,95.26c1.07-.38,2.57-.4,2-2.26A2.7,2.7,0,0,0,188.89,95.26Z"/><polygon class="cls-8" points="223.19 50.62 222.89 52 223.96 51.09 223.19 50.62"/><path class="cls-5" d="M158.78,210.47a2.22,2.22,0,0,1,.12.75c1-.07.84-.66.59-1.29A.66.66,0,0,0,158.78,210.47Z"/><path class="cls-2" d="M45.18,95.82c.06,1,.82,1.13,1.56,1.29C46.56,96.26,45.92,96,45.18,95.82Z"/><path class="cls-2" d="M105.89,37.38h0Z"/><path class="cls-3" d="M55.62,33l-.8-.76Z"/><polygon class="cls-6" points="45.82 110 45.83 109.99 45.4 109.76 45.82 110"/><path class="cls-10" d="M157.67,211.44l1.23-.22a2.22,2.22,0,0,0-.12-.75Z"/><path class="cls-5" d="M157.89,191l.07-1C157.11,190.26,157.11,190.6,157.89,191Z"/><path class="cls-5" d="M157.65,194l.14-1.06C157.15,193.22,157,193.56,157.65,194Z"/><path class="cls-3" d="M24.18,69.25a5.06,5.06,0,0,0,.45.76,1.6,1.6,0,0,0,.14-.4,5.16,5.16,0,0,0-.34-.75C24.34,69,24.15,69.16,24.18,69.25Z"/><path class="cls-8" d="M202.89,79l.48.06.46-.16C203.44,78.19,203.13,78.28,202.89,79Z"/><path class="cls-3" d="M190.89,93.1h1C191.62,92.52,191.28,92.1,190.89,93.1Z"/><polygon class="cls-5" points="167.42 96.79 167.81 97.02 168.24 97.24 167.83 97 167.42 96.79"/><path class="cls-5" d="M183.8,65.59c-.78,1.73-2.56,1.17-4,1.17-3.37,1.15-3.25,6.72-7.93,6.15,1.12,1.54,3.89.78,4.5,3.08h-7.55a1.81,1.81,0,0,0,2,1.89c1.51.74,3.05,1.38,4.75.62,1.54-.69,2.66-.21,3.13,1.31.23.87,1,2.58.23,2.69-4.84.69,2.18,7.57-3.91,7.28-1.93-.1-4.09-5-3.09-6.76.52-.87.52-.87-1.09-2.09-2.64-1.8-6-2.68-5.64-7.28.13-1.81-3.68-2.38-5-4.81-1-1.87-1.36-3.13-.42-4.87l-2-1c-2.87-.71-3.29,3.13-5.77,3.13l-1,1.72.34.65-.66-.32h-.26l-.24-.09-1.3-.06,1.86,9c1.89.08,3,2.34,5.13,1.81,2.68-1.33,2.65.59,2.79,2.32,2,0,5.37-1.2,2.92,3.07l1.57,2.62c3.89,5.06,3.59,6.51-2.23,11.06,3.67,3.75-.3,7-.91,10.33-.34,1.87-1.46,3.69-1.34,5.69,2.64-.64,1.74-3.76,3.88-5.39l.26,4.42c1.74-.22,5,1.09,3-2.91-2.56-4,1.23-7,1.44-11.42,2.5,3.47,1.1,6.59,1.63,9.4l2.48.94c1-4.69,4.57-7,8.24-9.36.15-1,.12-2.11,1.21-2.84,1.07-2,3.6-3.75.52-6.4-1.16-1-.89-3.4.2-4.69,3.89-4.63-.6-13,7.21-15.79q.06-2.53.13-5.06C187.08,64.33,185.16,62.46,183.8,65.59ZM167.81,97l-.39-.23.41.21.41.24Z"/><path class="cls-2" d="M100.83,79h0l0-.07Z"/><path class="cls-2" d="M107.73,82c-2-.14-3-1.51-3.9-3h-3c.76,2.45,1.42,5,2.31,7.33s-.07,3.34-2.31,3.58c-2,0-3.86-.63-5.86-.07-1,.31-2.52.32-3-1-2.59-7.15-8.93-7.87-15-9-1.09.32-2.27,1.06-3.27.9-5.67-.93-7.15,2.58-7.82,7.07l3.28.24c4.13-2.45,8.55-2.81,13.28-2.52,2.17.14,3.23,1.14,4.46,2.4H87a.93.93,0,0,1,.85,1h0a1,1,0,0,1,.83,1.14l.41.72.7,1.13c2.2-.82,3.76,1.63,6,1.18a2.16,2.16,0,0,1,2.83,2c.08,1.89-1.54,1.67-2.82,1.89a28.25,28.25,0,0,0-3.26.91l.2,1c4.07-.37,2.12,2.27,2,4,3.1-1.42,4.57-4.54,6.65-6.91,1.38-1.54,5,.9,4.38-2.93.25-2.39,0-5,2.85-6.2a8.07,8.07,0,0,0,.06-1v-.73l.06-.14-.94-1Z"/><path class="cls-11" d="M121.83,68.9c-1.89-1.74-.65-3.93-.89-5.93-1.11.46-2.2.92-2.93-.54-1.6-3.22-4.75-1.32-7.07-2.16-.61,3.37-5,4.77-4.61,8.57.35,2.77.94,5.89,3,7.7,4,3.52,1,4.31-1.6,5.52q.08.94.16,1.94l.92,1.17-.06.14.62.32-.58.41-.07,1,2.12,2h2.09c.86-1.26.57-3,1.94-4-3.1-4.08.16-9-1.84-13.33-.32-.7.61-1.46,1.56-1.52l.21,0a1.76,1.76,0,0,1,1.93,1.57c.38,2.43.73,4.87,1.1,7.31.89-.66,1.52-2.16,3-1C125.06,75.41,121.42,71.9,121.83,68.9Zm-7.78-2.31c-.19.08-.53-.19-.8-.31l0,0c.12-.23.22-.65.41-.73s.53.19.8.31C114.31,66.09,114.24,66.51,114.05,66.59Z"/><path class="cls-12" d="M114.27,49.6c-1,5.34-6.32,5.91-9.44,8.55-3.45,2.92-2.59,4.56-2.2,7.92.5,4.27,4.15,8.4,1.15,13,.9,1.48,1.9,2.84,3.9,3,2.6-1.21,5.6-2,1.6-5.52-2.1-1.81-2.68-4.92-3-7.7-.39-3.8,4-5.2,4.61-8.57,2.32.84,5.47-1.05,7.07,2.16.73,1.46,1.83,1,2.93.54A10.53,10.53,0,0,0,121,53.6C119.83,51,115.2,53.8,114.27,49.6Z"/><path class="cls-13" d="M146.16,78.57c-4.67-5.69-8.19,0-12.11,1.62-.75.3-1.53.54-2.29.81-1.68,2.94-5.22,4.92-4.87,9,1.4,1.26,3.7,1.62,3.86,4l4-.06c.45-2.72,2.51-1.82,4.14-1.82l2.86-1.15c.78-5.94,4.59-8.76,11-9.64C150.46,79.25,147.82,80.57,146.16,78.57Z"/><path class="cls-2" d="M158.66,81.13a3.14,3.14,0,0,1-2.79-2.32c-2.13.52-3.38-1.87-5.13-1.82s-3.17-.32-3.89-2.24c-1.5-4-4.42-4.47-7.86-2.69-3.64,1.87-5.59,5.26-7.19,8.87.76-.27,1.54-.51,2.29-.81,3.92-1.62,7.44-7.32,12.11-1.62,1.66,2,4.3.68,6.59,2.74-6.4.88-10.21,3.7-11,9.64,1.33-.43,2.58-1.2,4.1-.88l.86-.48a7.84,7.84,0,0,1,10.36-1.28c3.12,1.94,4.39.5,6.06-1.41l-1.59-2.63C160.42,83.36,158.74,83,158.66,81.13Z"/><path class="cls-12" d="M133.83,62.46c-1-.33-2-1.23-2.52.56-.7,2.24-3.71,3.35-4.58,3-3.16-1.09-3.49,1.49-4.84,2.79-.42,3,3.22,6.51-1,9.14-.38,2-1.41,3.84-1,5.94l2,3.07c4-1.72,4.48-5.08,4.13-8.82-.16-1.64-.72-3.89,1.28-4.28,5.24-1,3.51-7,7.06-9.19a1.25,1.25,0,0,0-.58-2.26Z"/><path class="cls-11" d="M159.64,59.53c-.85,0-.78-1.55-.85-2.55-2.13-2.2-3.79-5-7-5.88-4.5,2.7-6.5,6.68-5.24,11,.5,1.71,3.81,2.17,2.27,4.9l1.37,1.06.25.09h.26l.32-.33,1-1.72c-1.94-2.77-1.13-5.5,1.44-6.64,2.29-1,3.59,1.41,4.29,3.54l2,1,5.05,1C163.64,62.61,163.31,59.64,159.64,59.53Z"/><path class="cls-2" d="M126.89,90l-2.15,0c-1.09,5.51-3.25,6.5-8,3.67l-1.69.06c-1.64.49-3,.48-3.26-1.71-1.45,0-2.9,0-3,2,.76,4.63,4.5,2.38,7,3h10c.58-3.46,2.7-.5,4-1l1-2C130.55,91.64,128.24,91.29,126.89,90Z"/><path class="cls-3" d="M117.89,90a5.75,5.75,0,0,0-1.16,3.67c4.79,2.83,7,1.84,8-3.67h-6.84Z"/><path class="cls-11" d="M118.89,84l-1,6,3.88-.07.12-2.93L120,84Z"/><path class="cls-11" d="M147.68,67.32c0,.81.76.51,1.21.68l-.08-1C148.41,67.08,147.68,67.2,147.68,67.32Z"/><path class="cls-6" d="M64.47,60.93c-4.46-2.08-6.22,1.81-8.64,3.92-1.5,1.26-2.45,3-4,.26-2.46-.36-3.72-2.24-5-4.08L39,60v1.89c2,.21,1.91,1.64,1.81,3.08a7.5,7.5,0,0,1,1,5c-.44.89-.84,1.81-1.34,2.67-1.78,3.08.71,9,4.35,10.33h.08c1.23-4.3.18-9,2.47-13.12.78-1.47,1.07-3.26,3.3-2.87s1.63,2.16,1.78,3.53c.29,2.68.32,5.14-2.32,7-1.68,1.18-1.7,3.49-2.24,5.39,2.56,6.79,6.09,5.47,10,1.17.18-.25.62-.17.94-.25a34.49,34.49,0,0,1,3-10.89l1.08-2c-.11-2.23-.1-4.35,2.7-5.12,1.46-.41,1.22-1.75,1.22-2.91C66.77,61.41,65.54,61.42,64.47,60.93Z"/><path class="cls-6" d="M100.81,79c-2.36.15-3.33-1-4.15-3.2-2.5-5.84-9.82-8.48-15.5-6.08a13.31,13.31,0,0,1-7.27,1.19c-3.51,1-5,4.47-8,6.09-3,3.12-2.84,7.29-4,11v1a5.57,5.57,0,0,0,3.87-1.09c.67-4.5,2.16-8,7.82-7.08,1,.16,2.18-.58,3.27-.9,1.15-3.21.29-8,5-8.67,4.42-.65,7.72,2,10.29,5.53C93,78,93.92,79.5,95.14,80c4.69,1.84,5.18,5.89,5.69,10,2.24-.24,3.22-1.18,2.31-3.58S101.57,81.47,100.81,79Z"/><path class="cls-4" d="M47.81,48.83c-3.1,1.71-6.62,2.06-9.94,3.06.29,2.14-.65,4-1.07,6L36.89,59a2.29,2.29,0,0,1,2,1l7.88,1c-1.88-3.48-.18-4.31,3-4.08C48.38,54.42,50.36,51.06,47.81,48.83Z"/><path class="cls-3" d="M47.58,46.41c-1-.34-2.25-.28-2.89-1.41h-4c.3-1.67,2.46-2.11,1.93-3.88l-4.8.84h-2c-1.82,1.21-6.93.41-3,5,2.87.47,6.8-.14,5,5,3.31-1.06,6.84-1.35,9.94-3.06C48.51,48,49.94,47.2,47.58,46.41Z"/><path class="cls-1" d="M62.8,71l-1.08,2c1.13,1.53.86,4.51,4.06,4,3-1.61,4.52-5.09,8-6.09C70.12,66.44,66.48,69.7,62.8,71Z"/><path class="cls-8" d="M46.77,61c1.29,1.82,2.54,3.7,5,4.06,4-3.85-1.55-5.32-2-8.06C46.59,56.71,44.93,57.54,46.77,61Z"/><path class="cls-4" d="M42.68,41.12c.52,1.77-1.63,2.21-1.93,3.88h10.1C48.4,41.56,45.86,40.63,42.68,41.12Z"/><path class="cls-3" d="M57,51c1.35,0,2.72,0,2.91-1.87l-1.18-1.25C56.72,48.12,56.89,49.55,57,51Z"/><path class="cls-1" d="M85.61,59.48a.46.46,0,0,0-.31.31c-.07,1.1.78,1.08,1.51,1.21h0C86.69,60.26,86.71,59.41,85.61,59.48Z"/><path class="cls-9" d="M192.62,37.9a9.67,9.67,0,0,0-6.68,6.54c-.8,3.12-2,5.69-5,7.78,1.56,1,3.89.47,3.89,2.73,2.36-1.86,4.14-.22,6,.92-.42-2.73,1.2-4.53,2.82-6.35s4.33-3.36,3.15-6.61C192.41,43.7,192.77,40.63,192.62,37.9Z"/><path class="cls-10" d="M181.51,85.75c-1.08,1.29-1.36,3.69-.2,4.69,3.08,2.64.55,4.4-.52,6.4,4.41,1.16,4.73-1.84,5.15-4.9a5.63,5.63,0,0,1-.09-1c-2.22-.3-2.57-1.32-1.12-3a6.05,6.05,0,0,1,.08-1c.31-2.43-1-5.32,2-7a2.25,2.25,0,0,1,.91-2.06l1-7.92C180.91,72.75,185.4,81.13,181.51,85.75Z"/><path class="cls-10" d="M171.83,73c-1.11-1.61-4.69-.53-4.2-3.88-1.88-.32-2-1.6-1.73-3.11l-.1-1.15-1,.09L159.75,64c-.94,1.76-.61,3,.44,4.86,1.31,2.43,5.13,3,5,4.81-.36,4.6,3,5.48,5.64,7.28v-3h-.28a1.81,1.81,0,0,1-1.72-1.9C168.83,74,169.83,73,171.83,73Z"/><path class="cls-10" d="M202.86,30.06c0,2.12-.35,4-3,2a10,10,0,0,0-7.1,5.9c.09,2.72-.3,5.79,4.09,5a7.32,7.32,0,0,1,3.37-5.06A13.81,13.81,0,0,0,205.89,31l-.09-2Z"/><path class="cls-10" d="M190.89,55.87c-1.9-1.14-3.68-2.78-6-.92a4.49,4.49,0,0,0,0,1c1.34.15,2,.82,1.69,2.22,0,1.2,1.92,2.37.36,3.5-1.06.77-2.13-.3-3.13-.9l-.22.08c.12,2.73-2.12,2.69-3.88,3.17.13.67,1.27,1.26.13,2q0,.45,0,.9c1.47,0,3.25.56,4-1.17,1.35-3.13,3.28-1.26,5.08-.79l1-.93c.34-2.68,2.63-5.09,1-8Z"/><path class="cls-8" d="M206.78,45.95c-1.08.33-2.2,1-3.26,1-4.47-.44-5.59,2.71-5.37,5.81.15,2.22-.52,4.15-.35,6.22,3.32-1.18,2.94-5.21,5.52-7.09,1.76-1.28,3-2.68,4.53.08a6.59,6.59,0,0,0,.93,0C209.44,49.49,206.18,48.37,206.78,45.95Z"/><path class="cls-4" d="M175.63,58.21c-.09,2.65,4.16,2.65,6.91,2.65.35,0,.68-.06,1-.06l.18-.12V58l-1.09-2C179.94,56,175.72,55.56,175.63,58.21Z"/><path class="cls-8" d="M169.81,64v.84c-.93,1.61-2.52,1-3.87,1.15-.27,1.51-.15,2.8,1.73,3.11,1.88-.24,4.48.22,5.2-1.63C173.37,66.21,171.94,64.25,169.81,64Z"/><path class="cls-8" d="M178.38,63.35c-1.16-.5-2.21-1.59-3.61-1-.67.28-.65,1-.39,1.65a3,3,0,0,0,3.46,2c.65,0,1.3,0,2,0,1.14-.75,0-1.34-.13-2A13.61,13.61,0,0,0,178.38,63.35Z"/><path class="cls-9" d="M190.89,56c1.64,2.93-.65,5.34-1,8,3.75-.29,2.85-3.64,3.52-5.72C193.89,56.69,192.35,56.11,190.89,56Z"/><path class="cls-8" d="M193.75,69.93a10.68,10.68,0,0,0-2.23.49c-.13,2.18,2.07,2.38,3.23,3.51C198.18,71.66,193.92,71.32,193.75,69.93Z"/><path class="cls-9" d="M167.89,58c-1.6,2.35,2,2.3,1.93,4,1.3-.73,3-1,3.07-3A8.2,8.2,0,0,1,167.89,58Z"/><path class="cls-9" d="M205.8,29l.09,2c1.58-.09,3.84,0,3.33-2.09C208.8,27.34,207,27.84,205.8,29Z"/><path class="cls-9" d="M199.84,31.95c2.7,2,3,.17,3-2A2.81,2.81,0,0,0,199.84,31.95Z"/><path class="cls-9" d="M184.89,55.9l-2.21.16,1.09,2,2.82.05C186.89,56.71,186.23,56,184.89,55.9Z"/><path class="cls-8" d="M193.84,66.94c2-.09,2-1.53,1.94-3C193.75,64.06,193.79,65.51,193.84,66.94Z"/><path class="cls-8" d="M209.34,41a1.78,1.78,0,0,0-1.53,2,1.77,1.77,0,0,0,2-2A1.78,1.78,0,0,0,209.34,41Z"/><polygon class="cls-9" points="207.45 34.39 207.89 34 207.85 33.96 207.45 34.39"/><polygon class="cls-9" points="207.89 34 208.05 33.52 207.8 33.94 207.89 34"/><path class="cls-9" d="M176.83,49l-.07,0v.94l.07.08C177.55,49.67,177.55,49.32,176.83,49Z"/><path class="cls-8" d="M31.31,39.14c-3-4.26-7.4-3.1-11.51-3.1.18.78.18,2.13.57,2.26,3.68,1.18,3.37,3.59,2.61,6.59-.55,2,.09,4.25,0,6.38-.2,5.49,2.7,8,7.8,8.69a6.64,6.64,0,0,0-1.09-3.69C26.2,50,26.33,49.71,32.79,47c-3.89-4.61,1.22-3.81,3-5C36.5,37.57,32.37,40.65,31.31,39.14Z"/><path class="cls-8" d="M33.15,23.15c-3.45-1.2-3.14-4.68-5.58-6.37C26,15.68,24.71,14.84,22.82,15c3.81,4.3,5.5,10.12,10,14C33.64,27,35.82,24.08,33.15,23.15Z"/><path class="cls-8" d="M19.53,30c-1.32-1.11-3.13-1.72-4.72,0,2.53,1.2,1.27,4.92,4,6C18.32,33.85,22,32.14,19.53,30Z"/><path class="cls-8" d="M17.79,13c0,1.44-.05,3,1.55,3.57,1.3.46,2-.63,2.45-1.63C21.05,13.1,19.52,12.85,17.79,13Z"/><path class="cls-2" d="M207.89,51.9l-5.16,5.18c-1.44,1.45-.63,2.83.37,3.93,1.2,1.37,2.46,1,3.79-.21,2.79-2.56,4.34-5.27,1.93-8.9A6.59,6.59,0,0,1,207.89,51.9Z"/><path class="cls-4" d="M32.82,47c-6.46,2.71-6.59,2.95-3.1,9.27a6.64,6.64,0,0,1,1.09,3.69l2,.06a2.17,2.17,0,0,1,1.08-2c-.34-3.1,1.83-4.53,3.93-6C39.62,46.83,35.69,47.43,32.82,47Z"/><path class="cls-8" d="M39.79,65.06c-3.43,3.9-5.9.13-8.9-1.35v5.15L32.76,70c3-2.66,6,.8,9,0a7.5,7.5,0,0,0-1-5A6.07,6.07,0,0,0,39.79,65.06Z"/><path class="cls-8" d="M33.89,57.94A2.17,2.17,0,0,0,32.81,60a1.86,1.86,0,0,0,2.29,1.86C37,61.7,36.82,60.29,36.89,59l-.14-1.06Z"/><path class="cls-4" d="M38.92,61.92c-.16,1.15-.31,2.33.84,3.15a6.07,6.07,0,0,1,1-.07C40.89,63.55,40.94,62.12,38.92,61.92Z"/><path class="cls-3" d="M141.74,128.06c.17,2.09-.16,4.18.63,6.25.94,2.45-.82,2.69-2.61,2.69-.75,1.12-1.92.92-3,1-.09,2-1.57,2-3,2,2.33,3.92-2.41,2.28-3,3.87a5.63,5.63,0,0,0,5,4.13,6.39,6.39,0,0,1,.86-.45c1.35-.48,1.84-3.31,3.84-1.67.8.65-.19,1.71-.6,2.59-1.16,2.48-2.56,1.71-4.08.48-3.88,2.27-6.63,1.57-7.93-3-2,.07-2,1.57-2,3,1.88,3.68-1.1,3.59-3.2,4-2.27.44-4.82-.83-6.82,1.32,3.24,1.52,6.68.35,10,.77,1.32-.63,3.22-1.71,3.48.53s-2.16,1-3.36,1.44c.15,2.21-.92,3.15-3.08,2.93.31,4,2.39,3.82,4.8,1.82.71-.57,1.12-2.1,2.12-1.1,2.59,2.44,4.18,5.93,7.8,7.31.06,0-.11,1.44-.49,1.65-5.77,3.19-2.09,6.83-.5,10.53-1.38,1.21-5.45-.29-4.5,1.35,1.21,2.1-2.33,6.44,2.83,6.44.07-1.11-.19-2.37,1.34-2.8,4.33-1.22,7.68-3.93,10.68-7.14-3.9-1.67-2.31-5-2.17-7.72.07-1.61.88-3.17,1.07-4.8s1.72-4.13-2.44-3.06c-2.26.57-4.4-1.65-5.71-3.9-1.11-1.92-.9-3.45,1.16-4.54a42.05,42.05,0,0,1,4.33-5.3c3.84-3.43,1.75-9.4,5.75-12.68a1.85,1.85,0,0,1,.85-2,9.26,9.26,0,0,1,0-6C147.09,128.29,144.43,129.25,141.74,128.06Z"/><path class="cls-10" d="M145.75,159.71c2.22-.43,1.68-3.64,4.14-3.71l1.22-2a80.33,80.33,0,0,0-8.2,1.11c-1.77.41-3.18.84-4.11-1.16-2.07,1.08-2.27,2.62-1.16,4.54,1.3,2.25,3.45,4.48,5.71,3.9,4.17-1.06,2.64,1.44,2.44,3.06s-1,3.19-1.07,4.8c-.14,2.72-1.73,6.06,2.17,7.72,1.13.72.92,1.9,1,3,2.4-2.56,3.61-6,7.5-9H149.9l-.23.41.23-.41c.06-1.24.5-2.66,1.73-2.66,5,0,5.79-4,7.27-7.34V159C154.75,162,150.23,159.09,145.75,159.71Z"/><path class="cls-9" d="M162.89,113l-.26-4.42c-2.14,1.63-1.24,4.75-3.88,5.39l-.93.92a1.08,1.08,0,0,1-1.28.83,1.07,1.07,0,0,0-.66.25,1.68,1.68,0,0,1-2.12,1c-6.16-1-9.7-6.92-15.7-8.2-.47,4,4.55,7.43,5,7.29,5.89-1.83,5.67,4.42,8.67,6.07.76,2.42-2,3.7-1.93,5.9a9.26,9.26,0,0,0,0,6c3.46-1,6.41-2.41,7.38-6.39A4.25,4.25,0,0,1,160,125l1-2.9C160.47,118.81,163.61,116.29,162.89,113Z"/><path class="cls-7" d="M159.8,149.22c-2.66,2-5.3,4-8.66,4.78l-1.25,2c4,.33,7.78-2.46,11.93-1.1L162.9,153l-.1-2C162.89,148.57,161.15,149.22,159.8,149.22Z"/><path class="cls-10" d="M157.11,127.63c-.9,4-3.85,5.42-7.31,6.37a1.85,1.85,0,0,0-1,2c7.17-.48,12.15-5.44,11-11A4.25,4.25,0,0,0,157.11,127.63Z"/><path class="cls-14" d="M117.89,100a3.46,3.46,0,0,1-2.07-3c-2.5-.6-6.23,1.65-7-3l-1.2-.84a6.47,6.47,0,0,0-.78-.1l-1,.1c.62,3.83-3,1.39-4.38,2.93-2.07,2.37-3.54,5.5-6.65,6.91a17.27,17.27,0,0,1-6,7c-1.21,2.85,1.64,6.65-2,9-.75,3.11-3.62,3.14-5.92,4l-.53.4.39-.45,1-4c-2.15-3.28-6.55-3.11-9-5.91l-3.84-.22c-4.54-.14-3.38-3.25-3.08-5.91l-.12-3c-3-1.77-1.65-4.65-1.82-7.14a2.19,2.19,0,0,0-2-2.29c-1.25,1.67-3.19,2.93-3.19,5.35a4.19,4.19,0,0,1,0,1c-.57,4.65-1.58,9.33.05,14,1.21.7,1,1.89,1,3a2.08,2.08,0,0,1-1,2v.91l4,.05c2.59.15,3.09,1.86,3,4,2.36.12,2.07,2.41,2.71,3.67s.75,2.75,2.64,1.41c1-.67,2.23-1.86,3-.39s-.3,4.3-1.23,4.3c-3.82,0-4.85,6.7-10,3.78-1.58-.89-2.69,3.12-5.1,3.24l.06,2,1,1c3.37,1.13,5,4.7,8.47,5.92,1,.3-.13,1.87-1.55,2s-3-.34-4.08,1.13c4.71-.22,2.77,3.94,4,6a1.73,1.73,0,0,1,2.12,1.74c2.51,2.47,6.61,1.45,9,4.15h1.94c-.62-2.42,2.66-3.52,2-6h-1c-3.61.1-4.94-2.14-5.42-5.27a6.46,6.46,0,0,0-.36-1.82c-2.79-5.78-2.15-6.74,4.72-6.9v-2c-1.17-.79-1.54-1.94-1.77-3.79,2.17.69,2.57,2.15,2.83,3.69l10,4,3.14-1.83c-2.09-.8-2.08-2.08-1.2-3.94,1.63-3.46,4.54-5.69,7.24-8.14l-.46-1.91c-2.83-2.44-3.71-5-.71-8a8.68,8.68,0,0,1,2.4-4.72c-.3-1.36-.51-2.71,1.41-3,3.21-.49,5.45-2.89,8.21-4.27v-2c.52-4.57,4.75-2.33,7-3.76,1.12-.72,3.21-.2,3.56-1.94S119.15,100.71,117.89,100Z"/><path class="cls-13" d="M71.24,130.08c-1.88,1.34-2-.06-2.64-1.41s-.34-3.55-2.71-3.67a33.94,33.94,0,0,0,.4,3.4c.1,3.53-2.42,5.27-5.59,3.76-2.41-1.14-4.71-2.48-7.14-3.78-.94,2,.59,3.21.38,4.66,1.25.38,2.57.71,3.77,1.16s1.2,1.45,1.2,2.45c0,2.13-1.37,2.36-3,2.36a1.8,1.8,0,0,0,2,2c2.41-.12,3.52-4.13,5.1-3.24,5.12,2.92,6.15-3.78,10-3.78.94,0,2-3,1.23-4.3S72.17,129.41,71.24,130.08Z"/><path class="cls-13" d="M62.89,121c-.13,2.09-.28,4.28,3,4C66,122.84,65.47,121.14,62.89,121Z"/><path class="cls-13" d="M58.81,115c-1,.11-2,.42-1.74,1.72.3,1.54,1.68,1.15,2.74,1.28C59.81,116.91,60,115.73,58.81,115Z"/><path class="cls-13" d="M58.84,120.91V120l-.43.26Z"/><path class="cls-9" d="M146.89,178c-3,3.17-6.35,5.89-10.65,7.17-1.53.43-1.27,1.69-1.34,2.8,5.35-.61,3.44,3.5,3.93,6l4,1,1.07-1c-1-1.62,1.5-3.49-.7-5.43-.78-.66.8-3.86,3.59-3.66a6.92,6.92,0,0,1,1.1-3.93C147.81,179.93,148,178.75,146.89,178Z"/><path class="cls-9" d="M142.74,224l2.09.94,1-1c-.43-2.39-1.71-4.92.83-6.92.28-1.72,1.47-3.19,1.09-5a9.37,9.37,0,0,1-2.5-1.14q-2,.46-4.1.86C143.69,215.81,141.41,220.07,142.74,224Z"/><path class="cls-9" d="M141.09,211.59l.07.12q2.06-.39,4.1-.86c-2.74-1.71-4.94-4.44-8.41-4.86C136.57,209,139.79,209.59,141.09,211.59Z"/><path class="cls-3" d="M138.79,194l-6.33,1.78c4.7-.1,3.77,6.85,8.25,6.32,0-.81.36-1.84,0-2.39-2.19-3.31.42-2.63,2.15-2.71l-.07-2Z"/><path class="cls-10" d="M147.77,212a4.24,4.24,0,0,0-.29-1.67c-.73.18-1.47.34-2.2.51A9.59,9.59,0,0,0,147.77,212Z"/><path class="cls-10" d="M146.59,205.61c.54-1.58-1.14-2.44-2.8-2.49-.08,2.08-1.55,2-3,1.88h-3.93v1c3.47.39,5.67,3.11,8.42,4.84.73-.17,1.47-.33,2.2-.51C147,208.84,145.94,207.45,146.59,205.61Z"/><path class="cls-10" d="M143.19,188.57c2.19,2-.3,3.82.7,5.43,4.82-.68,5.93-4.15,2.89-9.09C144,184.71,142.42,187.89,143.19,188.57Z"/><path class="cls-9" d="M142.85,196.92c-1.73.08-4.34-.6-2.15,2.71.4.55,0,1.58,0,2.39s.09,1.91.09,2.86c1.42.12,2.89.2,3-1.88C144.89,200.78,148.12,198.21,142.85,196.92Z"/><path class="cls-12" d="M43.52,184.51c.72.4,2.16-.37,3.26-.6.09-6.09,0-5.81,6.26-4,2.32.67,5.08-2,7.72,0a4.91,4.91,0,0,0,.08-.88c-.39-4.57-1.65-8.67-6-11.09-1.16,6-5.74,5.3-10.07,5-1.65,1.72.11,4.93-2.45,6.11a10.18,10.18,0,0,0-4.92,5.07l1.31,1C39.33,183.62,40.53,182.76,43.52,184.51Z"/><path class="cls-11" d="M62.6,168.8c-2.38-1.63-4.29-4.58-1.73-7.89v-2l-3.89-5-.06-.1c-1.3.29-3.47-.07-2.75,2.29,1.2,3.93-1,8,.72,11.86,4.39,2.42,5.64,6.52,6,11.09,1,.55,1.3,2.08,2.74,2l.26-2a1.78,1.78,0,0,1,1-2l.07-2C65.28,172.52,65.24,170.6,62.6,168.8Z"/><path class="cls-4" d="M125.26,202.17c-.31-.37-1-.88-.92-1.06,2.52-5.57-1.82-9-4.31-12.76-1.79-2.68,1.29-2.91,1.29-5.44-4.21,3.08-7.76-4.07-11.92.61-1.12-2.71,2.11-2.57,2-4.71-2.55-1.36-6.77,1.18-8.55-2.82h-1a2.06,2.06,0,0,1-2,1c.56,2.81,3.72,3.27,5,5.58-1.23.87-2.67.21-4,.42q0,.46-.09.92a2.29,2.29,0,0,1,2.06,1.08c3.33,2.61,1.59,4.41-1,6.07a2,2,0,0,0,1,2c2.24.19,3-2.65,5.08-2.65,1.32,1.17-.1,2.19,0,3.25s-.58,2.79,1,2.86,3.76-.7,3.46-2.7c-.37-2.44,0-4.06,2.5-4.31,1.43-.14,4.38,5.77,3.78,7.2-1.49,3.53-.43,6.59,1.81,9.33a12.32,12.32,0,0,1,2.93,7.7q2.25-.09,4.49-.27C129.23,209.55,128.25,205.88,125.26,202.17Z"/><path class="cls-4" d="M50.62,67c-2.3-.4-2.52,1.41-3.3,2.87C45.11,74,46.17,78.73,44.89,83l3,0c.54-1.89.56-4.2,2.24-5.39,2.64-1.88,2.61-4.34,2.32-7C52.25,69.21,52.92,67.45,50.62,67Z"/><path class="cls-8" d="M61.82,89l-1,3L62,94.63a2.18,2.18,0,0,1,1.94,2.19L65.37,98l1.4-1.71c.1-.46.22-1,.33-1.46v-.24c-2.85-3.19.33-4.6,1.92-6.47l-3.28-.24A5.57,5.57,0,0,1,61.82,89Z"/><path class="cls-2" d="M61.75,73a34.47,34.47,0,0,0-2.94,10.89c3.21-.29,1.59,3,3,4.11,1.18-3.76,1.08-7.93,4-11C62.61,77.55,62.88,74.58,61.75,73Z"/><path class="cls-13" d="M56.87,96.07c.15,1.55-.71,3.59,1.93,3.91,0-2.42,2-3.68,3.19-5.35L60.82,92C57.55,91.47,57.89,94.45,56.87,96.07Z"/><path class="cls-4" d="M227.54,37.39a.87.87,0,0,0-.21.81c.91,1.08,1.76-.13,2.66-.13h0C229.36,37.27,228.61,36.65,227.54,37.39Z"/><polygon class="cls-3" points="215.81 32.97 215.6 33.41 215.84 33 215.81 32.97"/><path class="cls-3" d="M34.11,78.3c.64,3.29.34,6.7,4.33,7.27,1.47.22,2-1.36,2-2.36C40.27,79.68,37.72,78.67,34.11,78.3Z"/><path class="cls-3" d="M186.79,80c-3,1.66-1.68,4.56-2,7C190.24,84.27,190.54,83.24,186.79,80Z"/><path class="cls-3" d="M184.71,88c-1.44,1.66-1.1,2.67,1.12,3C185.82,89.81,186,88.6,184.71,88Z"/><path class="cls-6" d="M67.36,149.86c-3.47-1.22-5.1-4.79-8.47-5.92-.52,1.62-2.86.32-3.46,2.07,2.4,1.79,3.5,4.29,4.4,6.92l1.91.06c1.07-1.47,2.71-1,4.07-1.13S68.36,150.21,67.36,149.86Z"/><path class="cls-6" d="M57.6,134.16c-1.24-.42-2.51-.77-3.77-1.16-1.94,2.86,1.88,3.8,2,6,1.67,0,3.07-.24,3-2.36C58.76,135.61,58.84,134.58,57.6,134.16Z"/><path class="cls-1" d="M61.71,153.06,59.8,153c-.68,1.11-1.78.9-2.88.89l3.89,5h3C62.42,157.22,61.31,155.41,61.71,153.06Z"/><path class="cls-6" d="M57.89,142.93l1,1Z"/><path class="cls-3" d="M165.89,64.86l0,1.16c1.35-.15,3,.46,3.87-1.15C168.49,65.31,167.17,63.13,165.89,64.86Z"/><path class="cls-5" d="M149.89,156c-2.5,0-2,3.26-4.09,3.75,4.48-.66,9,2.34,13.15-.66,1.11-1.27,3.7-1.47,2.94-4.09C157.71,153.56,153.89,156.35,149.89,156Z"/><path class="cls-5" d="M162.79,151l.1,2,1.69-.28C164.79,151.33,163.85,151.09,162.79,151Z"/><path class="cls-7" d="M167.27,98.58c-.21,4.42-4,7.42-1.44,11.42,1.51.1,2-1.41,3.07-2C168.37,105.18,169.78,102,167.27,98.58Z"/><path class="cls-3" d="M176.82,49.94V49a1.77,1.77,0,0,0-.35.25A5.08,5.08,0,0,0,176.82,49.94Z"/><path class="cls-15" d="M150.43,91.73c-1.18.07-2.45-1.42-3.68-2.19l-.9.49c-2.2,1.72-4.45,3.39-6.59,5.18-5.64,4.73-5.73,6-1.24,13.51,6,1.28,9.55,7.2,15.7,8.2a2.07,2.07,0,0,1,2.12-1,1.07,1.07,0,0,1,.66-.25l1.28-.83.93-.92c-.13-2.05,1-3.82,1.32-5.68.61-3.33,4.58-6.58.91-10.33C158,94.92,155.43,91.44,150.43,91.73Z"/><path class="cls-9" d="M157.12,88.24a7.84,7.84,0,0,0-10.36,1.28c1.23.77,2.5,2.26,3.68,2.19,5-.29,7.57,3.18,10.51,6.18,5.82-4.55,6.12-6,2.23-11.06C161.5,88.75,160.24,90.18,157.12,88.24Z"/><path class="cls-9" d="M175.57,78.62c-1.69.75-3.23.11-4.75-.62v3c1.6,1.21,1.6,1.21,1.11,2.14-1,1.76,1.16,6.67,3.09,6.76,6.09.29-.92-6.58,3.91-7.28.77-.12,0-1.82-.23-2.69C178.23,78.41,177.1,77.93,175.57,78.62Z"/><path class="cls-10" d="M153.5,59.44c-2.64,1.15-3.43,3.89-1.48,6.66,2.48,0,2.87-3.84,5.77-3.12C157.1,60.85,155.8,58.44,153.5,59.44Z"/><path class="cls-3" d="M171.84,73a2.77,2.77,0,0,0-3,3.08h7.5C175.73,73.75,173,74.52,171.84,73Z"/><path class="cls-10" d="M158.67,81.13c.08,1.87,1.76,2.22,2.92,3.07C164,79.92,160.71,81.13,158.67,81.13Z"/><path class="cls-10" d="M155.89,78.8a3.14,3.14,0,0,0,2.77,2.32C158.53,79.39,158.55,77.47,155.89,78.8Z"/><polygon class="cls-1" points="148.89 68 150.22 68.05 148.89 66.93 148.89 68"/><polygon class="cls-11" points="150.66 68.16 151.32 68.48 150.98 67.83 150.66 68.16"/><polygon class="cls-7" points="167.81 97.02 167.83 97 167.42 96.79 167.81 97.02"/><polygon class="cls-7" points="167.81 97 168.24 97.22 167.83 96.98 167.81 97"/><path class="cls-15" d="M89.77,92c-.7-.13-.92-.47-.7-1.13l-.4-.72h0A1,1,0,0,1,87.79,89a1,1,0,0,1-1-1c-1.23-1.26-2.28-2.27-4.46-2.4-4.73-.29-9.15.08-13.28,2.52-1.59,1.87-4.76,3.28-1.92,6.47.45-.84.76-1.93,1.93-1.69.85.17.71,1.11.51,1.65C69,96.16,68,95.94,67,94.86c-.11.44-.23.95-.34,1.44,2.34,4.76,4.64,9.34,11.28,8.76,2-.17,3.18-1.5,4.89-1.89,3-1.62,5.59-4.26,9.45-3.62a.64.64,0,0,1,.43-.56l-.2-1C91.57,96,90.06,94.28,89.77,92Z"/><path class="cls-13" d="M95.18,79.95c-1.25-.49-2.14-2-3-3.19-2.57-3.53-5.87-6.18-10.29-5.53-4.7.67-3.83,5.46-5,8.67C83,81,89.32,81.74,92,88.88c.44,1.3,2,1.29,3,1,2-.57,3.91.07,5.86.07C100.36,85.85,99.9,81.81,95.18,79.95Z"/><path class="cls-4" d="M92.81,99a.64.64,0,0,0-.43.56c0,2.9-5.23,9.94-6.16,9-3.75-4-5.71.25-8.37,1.25.6,2.69,4.68,4.24,6.82,2.24,1.28-1.17,2.38-2.1,4.14-2a17.28,17.28,0,0,0,6-7C94.94,101.23,96.89,98.58,92.81,99Z"/><path class="cls-10" d="M95.84,93.18c-2.22.45-3.78-2-6-1.18.29,2.29,1.76,4,2.76,6a28.26,28.26,0,0,1,3.29-1c1.26-.2,2.88,0,2.78-1.82a2.16,2.16,0,0,0-2.83-2Z"/><path class="cls-8" d="M108.74,86.9c-2.85,1.2-2.6,3.81-2.85,6.2l1-.1a8,8,0,0,1,.31-1.11c.87.11.47.78.47,1.26l1.15.85c.07-2.07,1.54-2,3-2.1l-1-3Z"/><path class="cls-12" d="M107.89,84l.94,1Z"/><path class="cls-8" d="M108.77,85.87l.58-.41-.62-.32Z"/><path class="cls-10" d="M86.84,88a1,1,0,0,0,1,1,.93.93,0,0,0-1-1Z"/><path class="cls-10" d="M87.84,88.95v0a1,1,0,0,0,.89,1.1v0A1,1,0,0,0,87.84,88.95Z"/><path class="cls-10" d="M89.83,91.94l-.7-1.13C88.91,91.47,89.13,91.85,89.83,91.94Z"/><path class="cls-10" d="M117.85,79l-.72,1.6-.59-.38L117.85,79c-.36-2.44-.72-4.87-1.1-7.31a1.76,1.76,0,0,0-2.14-1.54c-1,.06-1.88.82-1.56,1.52,2,4.33-1.26,9.25,1.84,13.33,1.28-.54,2.25-2.33,4-1l1-.06c-.41-2.1.62-3.94,1-5.94C119.38,76.87,118.76,78.37,117.85,79Z"/><path class="cls-5" d="M114.89,85c-1.41.93-1.12,2.71-2,4,0,1.91,2.38,2.77,2.17,4.77l1.69-.06A5.75,5.75,0,0,1,117.89,90l1-6C117.14,82.67,116.17,84.46,114.89,85Z"/><path class="cls-3" d="M110.8,89l1,3c.26,2.19,1.62,2.2,3.26,1.71.21-2-2.17-2.86-2.17-4.77Z"/><path class="cls-10" d="M113.6,65.45c-.2.08-.26.51-.38.78.27.12.6.39.8.31s.26-.51.38-.78C114.13,65.65,113.8,65.37,113.6,65.45Z"/><path class="cls-3" d="M143.06,116c-.41.14-5.43-3.29-5-7.29-4.49-7.51-4.4-8.78,1.24-13.51,2.14-1.8,4.39-3.46,6.59-5.18-1.52-.32-2.77.45-4,.91l-2.85,1.22c-.89,1.71-2.39,2.06-4.14,1.82l-4,.06-1,2a13.34,13.34,0,0,1,1,13v.88c4.68.84,2.2,6,4.9,8.08,4.42-1.75,2.1,3.25,4,4,1.4-3.07,2.92-4.91,6.4-2,1.42,1.19,3.66,1.41,5.52,2.07C148.72,120.4,149,114.15,143.06,116Z"/><path class="cls-2" d="M134.75,93.92c1.75.24,3.25-.11,4.14-1.82C137.3,92.13,135.25,91.2,134.75,93.92Z"/><path class="cls-6" d="M130.82,109.88c-.79-.27-.73-.57,0-.88a13.34,13.34,0,0,0-1-13c-1.29.46-3.41-2.5-4.09.81,2.71,3.41-.19,6.68-.29,10,0,1.07-1.55,1.26-2.49.94-5.1-1.72-3.79,1.45-3.19,4.11,2,1.1,3.71,2.49,4,5a1.83,1.83,0,0,0,.59.46c1.58,0,3.78-1.55,4.17,1.59l3.76,1.69C132.82,116.74,130.19,113.49,130.82,109.88Z"/><path class="cls-13" d="M115.82,97a3.46,3.46,0,0,0,2.09,3.08c1.25.71,2.84,1.39,2.48,3.24s-2.44,1.23-3.56,1.94c-2.27,1.42-6.51-.81-7,3.76,3.19-.34,6.12,0,8,3.11l2-.16c-.6-2.66-1.92-5.83,3.19-4.11.94.31,2.49.13,2.49-.94.09-3.36,3-6.62.29-10Z"/><path class="cls-3" d="M33.89,57.93h2.87c.42-2,1.35-3.87,1.06-6C35.72,53.42,33.55,54.85,33.89,57.93Z"/><path class="cls-3" d="M183.77,58.06q0,1.33,0,2.6c1,.6,2.07,1.67,3.13.9,1.56-1.12-.36-2.29-.36-3.5Z"/><path class="cls-1" d="M55.78,195.9c.08-2.11-4.19-.88-3-3.88l-.07-.09h-.33a1.79,1.79,0,0,1-1.56-2c-.06-.28-.13-.56-.2-.84l-3.77-1.16a1.94,1.94,0,0,1-1,2l.13.65q4.8,3.34,9.83,6.23A4.71,4.71,0,0,0,55.78,195.9Z"/><path class="cls-8" d="M131.21,214.09c0-.31,0-.62,0-.92q-1.7.18-3.41.31a15.69,15.69,0,0,1-2,3.79c-3,4.28-2.18,4,2,5.39,5.59,1.88,6.32-1.14,6.88-4.91.32-2.1,1-3.07,3.14-2.59s2.23,1.37,1.36,3.48c-1.14,2.8-1.07,5.82,3.51,5.36-1.32-4,1-8.2-1.58-12.3q-4.48.85-9,1.37A9.3,9.3,0,0,1,131.21,214.09Z"/><path class="cls-8" d="M130.38,204.63c-.79-1.14.53-1.62,1.59-1.62a5.89,5.89,0,0,1,4.86,1.88h3.94q-.09-1.43-.09-2.86c-4.49.53-3.56-6.42-8.25-6.32l6.37-1.77c-.49-2.55,1.42-6.66-3.93-6-5.16,0-1.62-4.34-2.83-6.44-.94-1.64,3.12-.14,4.5-1.35-1.58-3.71-5.26-7.35.5-10.53.37-.21.54-1.65.49-1.65-3.62-1.39-5.21-4.88-7.8-7.31-1-1-1.41.53-2.12,1.1-2.41,2-4.49,2.18-4.8-1.82-3.43.37-6.9.69-10,2.37s-6.08-1-9.25-.45c-1.7.3-4-2.17-5-.15s1.74,3.09,3.24,4.27l1.8-.61c2.56,6.1,7.24,2.8,11.24,2.61,3.26,1.5,1.31,6,4.44,7.76a4.59,4.59,0,0,1-2.21,3c-1.41.58-2.12-.56-2.88-1.42-1.45-1.65-2.36-4.2-5.36-3.3h-4l-2,2c1.79,4,6,1.46,8.55,2.82.13,2.14-3.09,2-2,4.71,4.16-4.68,7.71,2.47,11.92-.61,0,2.54-3.08,2.76-1.29,5.44,2.49,3.76,6.83,7.19,4.31,12.76-.08.17.62.68.92,1.06,3,3.72,4,7.39,2.6,11.33q1.71-.13,3.41-.31C131.45,209.95,132.17,207.19,130.38,204.63Zm1-33.63.73.43c-.24.14-.5.38-.74.38s-.49-.24-.74-.38ZM124,189.54c.23-1.62,1.49-1.47,3-1.54h0c2.34.66,4.72,1.93,4.48,5.12-.09,1.28-.08,3.55-2.42,3.7C127.67,196.91,123.76,191.16,124,189.54Z"/><path class="cls-8" d="M136.84,206h-3c0,2.35.1,4.75-1.71,7.11q4.57-.52,9-1.37l-.08-.14C139.79,209.55,136.57,209,136.84,206Z"/><path class="cls-2" d="M115.82,154.28l-2.78.09c-1.53,2.62-3.64,1.6-5.64.84s-4.21-2-6.6-2c-.2,1.81,3,2.89,1.18,4.81-1.62,1.64-3.69.9-5.62.22-1.08-.38-2.45-.28-3.3-.92-1.45-1-3.8-1.37-4-3.48-.25-2.63,2.76-1.73,3.88-3-1.11-1.29-4.72-.61-3.11-4l-10-4-1.06.11v2c.41.49.74,1.32,1.24,1.44,5.65,1.34,4.23,3.51.84,6.09-2.33,1.78-2.54,4-1,6.46h1a10.87,10.87,0,0,1,8.34,4,5.93,5.93,0,0,1,1.16,6.77,10.8,10.8,0,0,1-7.24,6.08c-1.88.48-4.33-.25-1.6-3.31,3.33-3.73-1.33-5.17-2.67-7.56H76.9c-3,3.74.66,6.68,1.34,9.93.86,4.07,5.4,6,6.54,10.07h1.09c3-3.58,7.38-5.76,10.3-9.58,1.66-2.18,4-2.1,5.66.61h1l2-2c-1.22-2.62-4-4.61-3-8-1.5-1.18-4.24-2.33-3.24-4.27s3.34.45,5,.15c3.17-.55,6.11,2.16,9.25.45s6.56-2,10-2.37c2.16.22,3.23-.72,3.08-2.93l-.11-2C122.49,154.63,119.05,155.8,115.82,154.28Z"/><path class="cls-5" d="M124.45,142.88c-.34-2.16.23-4.47.4-6.71-3.51.63-6.11,3.21-9.82,3.87s-2.28,3.62-.87,5.31c2.32,2.78.79,3.28-1.61,3.64-1.13.17-2.28.13-3.42.41s-2.31.92-3-.46c-.61-1.11-.12-2.22.45-3.29,2.92-5.46,2.91-5.47-3.28-7.84-1.62,3-3,6.38-5.62,8.52-2.26,1.84-1.32,2.46.37,3.37a40.49,40.49,0,0,0,15,4.66l2.78-.09c2-2.15,4.55-.88,6.82-1.32,2.1-.41,5.08-.32,3.2-4C122.64,147.58,124.79,145,124.45,142.88Z"/><path class="cls-4" d="M136.84,127v-.1c-4.12-1.28-4.35-3.32-1.12-6l.12-2.88c-2.7-2.08-.22-7.24-4.91-8.08-.64,3.62,2,6.86,1.46,10.72l-3.76-1.69-1.34.22.3,1.76c2.71.2,2.21,2.26,2.3,4l-.36,2-.21,2c3.32.91.18,3.64,1.44,5.12,1.72,1.57,1.28,3.93,2.13,5.82a7.49,7.49,0,0,1,1,.15c1.42,0,2.9,0,3-2l-2.28-1.59,2.13-.51,1.17-2q.07-1.94.15-3.94C135.44,129.86,136,128.45,136.84,127Z"/><path class="cls-4" d="M146.22,120c-3.48-2.9-5-1.06-6.4,2-.09,2.23.24,4.36,2,6.06,2.67,1.19,5.33.23,8-.09-.07-2.2,2.69-3.47,1.93-5.9C149.88,121.41,147.64,121.19,146.22,120Z"/><path class="cls-9" d="M132.89,139.84c-1.06,1.64-2.61,1-3.94,1a14.46,14.46,0,0,1,1.87-6.83c-1.26-1.48,1.88-4.2-1.44-5.11L125,136.17c-.17,2.24-.75,4.7-.4,6.71s-1.81,4.7,1.35,6.07c0-1.43,0-2.93,2-3-.17-.88-1.42-1.76-.28-2.63s2.17.2,3.22.54c.63-1.59,5.37.05,3-3.87A7.49,7.49,0,0,0,132.89,139.84Z"/><path class="cls-9" d="M141.82,128.07c-1.76-1.68-2.09-3.81-2-6.07-1.93-.78.42-5.77-3.91-3.91l-.12,2.88c-1,2.23.68,4,1.12,6v.1c1.11.71,2.66,1.25,1.22,3Q138.06,132,138,134a1.75,1.75,0,0,1,1.86,2v1c1.79,0,3.55-.24,2.61-2.69C141.66,132.25,142,130.15,141.82,128.07Z"/><path class="cls-8" d="M130.78,143.86c-1.06-.34-2.09-1.41-3.22-.54s.11,1.75.28,2.63c1.29,4.57,4,5.27,7.94,3a7.9,7.9,0,0,0,0-1A5.62,5.62,0,0,1,130.78,143.86Z"/><path class="cls-9" d="M136.63,147.49a6.36,6.36,0,0,0-.86.45,7.88,7.88,0,0,1,0,1c1.52,1.23,2.92,2,4.1-.53.41-.88,1.4-1.94.6-2.59C138.44,144.18,138,147,136.63,147.49Z"/><path class="cls-8" d="M125.78,155l.11,2c1.19-.4,3.63.76,3.37-1.47S127.1,154.37,125.78,155Z"/><path class="cls-8" d="M134.53,136.44l2.24,1.56c1.11-.06,2.28.14,3-1v-1l-3.11-.07Z"/><path class="cls-5" d="M149.82,172l-.23.41Z"/><path class="cls-5" d="M153.72,116.89c.93.16,1.73,0,2.12-1A2.07,2.07,0,0,0,153.72,116.89Z"/><path class="cls-5" d="M157.78,114.84l-1.28.83A1.08,1.08,0,0,0,157.78,114.84Z"/><path class="cls-7" d="M101.82,133.07v0l-.13.09Z"/><path class="cls-7" d="M124.48,117.36a1.81,1.81,0,0,1-.59-.46c-8.06-2.55-16-2.86-23.64,1.39a8.69,8.69,0,0,0-2.4,4.72l.71,8,.46,1.91a.65.65,0,0,1,.78.35,2,2,0,0,1,.16-.75,1.12,1.12,0,0,1,1.85.53c1.73-1,1.65-3.28,1.95-4.61.61-2.71,1.55-4.14,4.11-3.25,2.76,1,2,3.19,1.26,5.39-.34.91-3.14,1.66-.77,2.91,1.56.83,2-.94,2.56-2.17.64-1.48,1.51-2.87,2.28-4.31,1.48.56-.19,3.76,1.67,3,2.1-.85,5-2.34,5.32-4.79.54-4.48,2.48-5.63,6.48-4.28a8,8,0,0,1,.87,0l-.3-1.76A2.55,2.55,0,0,1,124.48,117.36Zm-8,6c-2.63.83-5.46-.2-8-1.1-1-.35-.41-1.81.77-2.07a24.18,24.18,0,0,1,3.65-.23h0a11.53,11.53,0,0,1,3.27.45C117.71,121.07,118.13,122.83,116.51,123.34Z"/><path class="cls-12" d="M76.89,164.95c-2.42-2.7-6.52-1.69-9-4.19-1.38.26-2-.43-2.12-1.74l-1.87-.11h-3v2c2.14,3.68,6.45,5.87,7.23,10.48a4.08,4.08,0,0,1,.84.12c4.63-2,6.38,2,7.07,4.59,1.24,4.53,4.39,6.58,7.78,8.78a7.5,7.5,0,0,0,1,.07c-1.14-4.07-5.68-6-6.54-10.07C77.54,171.63,73.89,168.69,76.89,164.95Z"/><path class="cls-6" d="M80.82,159c.66,2.4-2.62,3.5-2,6,1.33,2.39,6,3.83,2.67,7.56-2.74,3.06-.29,3.79,1.6,3.31a10.8,10.8,0,0,0,7.24-6.08A5.93,5.93,0,0,0,89.16,163,10.87,10.87,0,0,0,80.82,159Z"/><path class="cls-3" d="M97.64,146.33c2.62-2.14,4-5.52,5.62-8.52l-.23-.28c-1.08-.06-1-.83-.93-1.57l-.4-2.86.13-.07c-.86.45-1.33-.06-1.86-.55a2,2,0,0,0-.16.75c.54,6-1.82,10-6.82,11.73l-3.14,1.83c-1.61,3.37,2,2.69,3.11,4l7.81,2.41c2.39.06,4.44,1.19,6.6,2,2,.75,4.11,1.78,5.64-.84a40.49,40.49,0,0,1-15-4.66C96.31,148.79,95.37,148.17,97.64,146.33Z"/><path class="cls-13" d="M80,146.39c-.5-.12-.83-.94-1.24-1.44-6.9.16-7.52,1.12-4.7,6.9a6.46,6.46,0,0,1,.36,1.82c.48,3.13,1.81,5.36,5.42,5.27-1.56-2.46-1.35-4.68,1-6.46C84.26,149.9,85.68,147.73,80,146.39Z"/><path class="cls-13" d="M84.65,111.94c-2.14,2-6.21.45-6.82-2.24l-2,.33c-.09,2-1.37,2.72-3.09,3,2.46,2.8,6.86,2.63,9,5.91,1.66-2.17,3.34.21,5,0,3.62-2.32.77-6.11,2-9C87,109.84,85.93,110.77,84.65,111.94Z"/><path class="cls-3" d="M119.87,111.93l-2,.16c-3,2.24-5.27-1.15-8-1.09-2.75,1.39-5,3.79-8.21,4.27-1.92.28-1.72,1.63-1.41,3,7.64-4.24,15.58-3.94,23.64-1.39C123.58,114.37,121.89,113,119.87,111.93Z"/><path class="cls-2" d="M99,132.91c-2.7,2.45-5.61,4.68-7.24,8.14-.88,1.86-.9,3.14,1.2,3.94,5-1.68,7.37-5.73,6.82-11.73A.65.65,0,0,0,99,132.91Z"/><path class="cls-4" d="M68.63,108.2q.16,2.35.33,4.7l3.84.21c1.71-.3,3-1,3.09-3a13.26,13.26,0,0,1-6.81-2.25A3.29,3.29,0,0,0,68.63,108.2Z"/><path class="cls-6" d="M109.89,109v2c2.72-.05,5,3.33,8,1.09C116,109,113,108.63,109.89,109Z"/><path class="cls-6" d="M81.78,119l-1,3.94.06.06c2.3-.84,5.17-.86,5.92-4C85.11,119.19,83.43,116.81,81.78,119Z"/><path class="cls-13" d="M65.87,107c-.29,2.66-1.46,5.77,3.08,5.91q-.17-2.35-.33-4.7Z"/><path class="cls-6" d="M61.76,153c-.4,2.35.71,4.16,2.1,5.88l1.87.11C64.5,157,66.44,152.82,61.76,153Z"/><path class="cls-2" d="M98.55,131l-.71-8C94.89,125.95,95.72,128.56,98.55,131Z"/><path class="cls-4" d="M69.74,105.84a1.82,1.82,0,0,1-1.55-2.05l-1.93-2.26L65.77,104l.12,3,2.73,1.17a3.25,3.25,0,0,1,.48-.31l.93-2H70Z"/><path class="cls-13" d="M63.92,96.82c.17,2.49-1.18,5.37,1.82,7.14l.48-2.47L65.37,98Z"/><path class="cls-13" d="M77.06,139.17c.23,1.84.61,3,1.77,3.79l1.06-.11C79.61,141.32,79.21,139.9,77.06,139.17Z"/><path class="cls-6" d="M65.77,159.06c.12,1.3.74,2,2.12,1.74a1.73,1.73,0,0,0-2.12-1.74Z"/><path class="cls-2" d="M107.2,91.83a8,8,0,0,0-.31,1.17,6.78,6.78,0,0,1,.78.09C107.63,92.61,108.07,91.94,107.2,91.83Z"/><polygon class="cls-6" points="80.44 123.39 80.89 123 80.83 122.94 80.44 123.39"/><path class="cls-13" d="M77.86,203.95l-3,0a17.91,17.91,0,0,0-1.49,1.37c1.78.7,3.56,1.36,5.37,2C78.39,206.19,78.23,205,77.86,203.95Z"/><path class="cls-13" d="M103.86,210.94c-1.59-5.4-2.38-5.58-9-2l-1.71,2.28q3,.64,6.07,1.12C100.62,211.63,102.8,212.5,103.86,210.94Z"/><path class="cls-9" d="M131.21,214a9.42,9.42,0,0,0,.88-1l-.84.09C131.24,213.45,131.22,213.74,131.21,214Z"/><path class="cls-9" d="M133.84,205.93h0l-.42-.25.43.23v0h3v-1.09A5.89,5.89,0,0,0,132,203c-1.06,0-2.39.47-1.59,1.62,1.78,2.58,1.06,5.35.87,8.59l.84-.09C134,210.71,133.84,208.29,133.84,205.93Z"/><path class="cls-9" d="M133.41,205.68l.42.25h0v0Z"/><path class="cls-11" d="M53.08,180c-6.26-1.86-6.17-2.14-6.26,4,1.77,1.34-.34,2.68,0,4l3.77,1.14c.3-2.38,2.63-1.81,3.33-1.4C56.27,189,57,187.48,58,186c-.82-1.31-1.4-2.52.6-3.4,1.13-.5,2.34-1.09,2.19-2.7C58.16,177.93,55.4,180.67,53.08,180Z"/><path class="cls-1" d="M46.79,188c-.31-1.35,1.8-2.69,0-4-1.11.23-2.54,1-3.29.68-2.9-1.7-4.12-.94-4.75.52q3.18,2.52,6.48,4.84a3.24,3.24,0,0,1,.56,0A2,2,0,0,1,46.79,188Z"/><path class="cls-11" d="M45.14,190l.82.59-.13-.66A3.23,3.23,0,0,0,45.14,190Z"/><path class="cls-10" d="M60.85,179a4.91,4.91,0,0,0-.08.88c.16,1.61-1,2.2-2.19,2.7-2,.88-1.42,2.09-.6,3.4,2.86-.59,6.54-.25,5.68-5C62.19,181.09,61.85,179.56,60.85,179Z"/><polygon class="cls-11" points="38.89 197 40.14 196.42 38.79 196 38.89 197"/><path class="cls-5" d="M68.53,179.43c-.66-2.15,1-3.78,3.21-4.44L69,171.51a3.88,3.88,0,0,0-.84-.12c-1.5.8-.92,3.43-3.14,3.61q-.07,1-.07,2c1.35,1.53.22,1.79-1,2l-.25,2c.87,4.76-2.82,4.42-5.68,5-1,1.42-1.75,3-4.06,1.72-.66-.36-3-.92-3.29,1.45.07.28.14.56.2.84,1.35,0,2,.61,1.89,2l.07.1c5.84-1.62,11.63-4.22,17.55-4.54,4.89-.26,4.49-2.73,4.82-5.68a15.23,15.23,0,0,0-1.93.1A4.06,4.06,0,0,1,68.53,179.43Z"/><path class="cls-10" d="M62.6,168.81c2.64,1.8,2.68,3.72,2.36,6.2,2.22-.18,1.63-2.8,3.14-3.61-.79-4.62-5.1-6.8-7.23-10.48C58.31,164.23,60.22,167.19,62.6,168.81Z"/><path class="cls-10" d="M63.89,179c1.25-.24,2.38-.5,1-2A1.78,1.78,0,0,0,63.89,179Z"/><path class="cls-6" d="M118.7,196.66c.61-1.43-2.34-7.34-3.78-7.2-2.5.25-2.87,1.87-2.5,4.31.31,2-1.9,2.77-3.46,2.7s-.81-1.8-1-2.86,1.28-2.08,0-3.25c-2.08,0-2.84,2.84-5.08,2.65-.51,2.19-1.94,3-4,2.43-1.4-.4-2.64-.57-3.49.77s.31,2,1.2,3c1.62,1.87.39,4.3-.44,6.21-.5,1.16-1.41,2.12-1.32,3.52,6.61-3.56,7.4-3.39,9,2a5.87,5.87,0,0,1,3.21,2.39q5.61.52,11.32.53c1.7,0,3.39,0,5.08-.12a12.33,12.33,0,0,0-2.94-7.75C118.28,203.25,117.22,200.19,118.7,196.66Zm-18.17,8.14c-.61.13-1.51-.18-1.31-1,.47-2.07,1.32-4,4.47-4.61C102.89,201.71,103.23,204.15,100.53,204.8Z"/><path class="cls-2" d="M82.84,209.93a2.16,2.16,0,0,0,1,2,21.2,21.2,0,0,0,8,1l1.29-1.71q-5.36-1.13-10.58-2.73Z"/><path class="cls-2" d="M96.16,205.41c.83-1.91,2.06-4.34.44-6.21-.89-1-2.2-1.48-1.2-3,.85-1.34,2.09-1.17,3.49-.77,2.08.57,3.51-.25,4-2.43a2,2,0,0,1-1-2c-2.93,1.09-5.6,3.42-9.08,1.9L90.89,194A29.7,29.7,0,0,0,88,202.76c-1,4.79-1.7,4.94-6.07,2.06l-.12.11.71,3.55q5.22,1.6,10.58,2.73l1.71-2.29C94.74,207.54,95.65,206.57,96.16,205.41Z"/><path class="cls-6" d="M96.13,175.33c-2.92,3.82-7.3,6-10.3,9.58,3.38.48,6.33,3.09,9.87,2,1.11-2,3-2.62,5-3.09a4.78,4.78,0,0,0,.09-.92c-2.82-1.58-4.72-3.31-1-6a2.06,2.06,0,0,0,2-1C100.13,173.23,97.79,173.15,96.13,175.33Z"/><path class="cls-6" d="M102.87,184.9c-2.46.17-4.36,2.38-7,2-.23,2.42-4.06,3-3.06,6,3.48,1.52,6.15-.82,9.08-1.9C104.45,189.37,106.19,187.57,102.87,184.9Z"/><path class="cls-2" d="M99.89,177c-3.75,2.7-1.84,4.43,1,6,1.29-.25,2.73.42,4-.42C103.66,180.27,100.5,179.81,99.89,177Z"/><path class="cls-1" d="M100.82,183.91c-2,.47-3.93,1.09-5,3.09,2.62.4,4.52-1.82,7-2A2.29,2.29,0,0,0,100.82,183.91Z"/><path class="cls-7" d="M66.77,96.27,65.37,98l.85,3.49,2,2.28A2.23,2.23,0,0,1,70,105.84H70c3.67.74,7.29,3.58,11,.07a5,5,0,0,0,1.87-2.77c-1.71.38-2.89,1.72-4.89,1.89C71.4,105.62,69.11,101,66.77,96.27Z"/><path class="cls-7" d="M69.13,92.87c-1.2-.22-1.55.87-2,1.71,0,0,0,.24,0,.26,1,1.07,2,1.3,2.55-.32C69.84,94,70,93,69.13,92.87Z"/><path class="cls-10" d="M82.92,103.15a5,5,0,0,1-1.87,2.77c-3.76,3.51-7.38.67-11.05-.07l-.94,2a13.25,13.25,0,0,0,6.82,2.28l1.94-.4c2.66-1,4.62-5.25,8.37-1.25,1,1,6.18-6,6.18-8.93C88.51,98.89,85.92,101.57,82.92,103.15Z"/><polygon class="cls-11" points="116.52 80.22 117.11 80.6 117.83 79 117.82 79 116.52 80.22"/><path class="cls-4" d="M130.89,109.88V109C130.14,109.31,130.08,109.61,130.89,109.88Z"/><path class="cls-3" d="M124.46,117.34a2.55,2.55,0,0,0,2.78,1.79l1.39-.2C128.24,115.79,126,117.34,124.46,117.34Z"/><path class="cls-6" d="M67,202.55q3.2,1.46,6.46,2.74a18.17,18.17,0,0,1,1.47-1.36C73.18,202.49,69.37,201.94,67,202.55Z"/><path class="cls-11" d="M58,199.1l.79-.2a4,4,0,0,1,0-.42l-1.42-.79C57.39,198.28,57.44,198.86,58,199.1Z"/><path class="cls-11" d="M61.59,195.17c5.69-1.55,10.88-4.74,17-5,1.57-.07,1.76.67,2.42,1.86s.16,3.47,2.16,3.42c1.63,0,2-2.33,2.82-3.23a4.45,4.45,0,0,0,.85-3.27c-1.58-.94-3-2-3-4.08-3.39-2.2-6.55-4.25-7.78-8.78-.69-2.58-2.44-6.58-7.07-4.58L71.71,175c.62,2.55,3.73,4,3.4,6.89s.07,5.41-4.82,5.68c-5.91.32-11.7,2.93-17.55,4.54-1.23,3,3,1.76,3,3.88,1.63-.21,1.6.77,1.63,1.7l1.42.79A4,4,0,0,1,61.59,195.17Z"/><path class="cls-12" d="M50,206c2.34.63,2.49-3.23,4.93-1.91l1-.12c.75-1.61,2.29-2.9,2.12-4.9-.51-.24-.56-.8-.58-1.39l-1.59-.9C55.68,200.88,50,201.94,50,206Z"/><path class="cls-12" d="M55.79,196a4.79,4.79,0,0,1,0,.82l1.59.9C57.39,196.78,57.43,195.79,55.79,196Z"/><path class="cls-11" d="M50.79,190a1.79,1.79,0,0,0,1.89,2C52.79,190.65,52.14,190,50.79,190Z"/><path class="cls-11" d="M45.82,190a1.93,1.93,0,0,0,1-2A2,2,0,0,0,45.82,190Z"/><path class="cls-3" d="M114.89,168c-.69,3.31-5.22,2.77-6,6,3-.9,3.9,1.65,5.36,3.3.75.86,1.47,2,2.88,1.42a4.59,4.59,0,0,0,2.21-3C116.21,174,118.15,169.49,114.89,168Z"/><path class="cls-4" d="M103.69,165.39s-1.17.4-1.8.61c-1,3.42,1.78,5.42,3,8h4c.81-3.19,5.34-2.65,6-6C110.89,168.16,106.18,171.46,103.69,165.39Z"/><path class="cls-4" d="M127,188c-1.51,0-2.75-.17-3,1.53s3.68,7.37,5.07,7.28c2.34-.15,2.33-2.42,2.42-3.7C131.72,190,129.35,188.69,127,188Z"/><path class="cls-3" d="M130.59,171.44c.24.13.5.38.74.38s.49-.24.74-.38l-.74-.44Z"/><path class="cls-6" d="M92.94,150.84c-1.11,1.27-4.13.37-3.93,3,.24,2.11,2.6,2.43,4,3.48.85.64,2.22.54,3.3.92,1.93.68,4,1.42,5.62-.22,1.87-1.92-1.38-3-1.18-4.82Z"/><path class="cls-1" d="M85.87,185H84.78q-.52,0-1-.06c0,2.08,1.47,3.14,3,4.08,2.41.79,3,3.08,4.06,5l1.92-1c-.94-3,2.83-3.6,3.06-6C92.2,188,89.25,185.46,85.87,185Z"/><path class="cls-15" d="M126.67,120.94c-4-1.34-5.94-.19-6.48,4.28-.32,2.44-3.22,3.93-5.32,4.79-1.87.79-.19-2.41-1.67-3-.77,1.43-1.63,2.82-2.28,4.31-.56,1.23-1,3-2.56,2.17-2.36-1.25.44-2,.77-2.91.74-2.2,1.5-4.39-1.26-5.39-2.56-.89-3.49.54-4.11,3.25-.31,1.37-.19,3.7-2.08,4.7l.4,2.86a1.38,1.38,0,0,1,1,1.55l.24.26c6.19,2.37,6.2,2.38,3.28,7.84-.57,1.07-1,2.18-.45,3.29.74,1.38,2,.73,3.05.46s2.28-.24,3.42-.41c2.41-.36,3.94-.86,1.61-3.64-1.41-1.68-2.76-4.66.87-5.31s6.3-3.24,9.82-3.87l4.38-7.23.21-2-.33-2Z"/><path class="cls-8" d="M128.89,140.84c1.43,0,3,.64,4-1-.89-1.84-.45-4.25-2.13-5.83A14.46,14.46,0,0,0,128.89,140.84Z"/><path class="cls-3" d="M135.71,120.87c-3.23,2.67-3,4.71,1.12,6C136.38,124.87,134.71,123.13,135.71,120.87Z"/><path class="cls-3" d="M127.54,120.86a8,8,0,0,0-.87,0l2.48,4,.69,0C129.75,123.17,130.25,121.11,127.54,120.86Z"/><path class="cls-8" d="M136.84,127c-.8,1.49-1.4,2.89,1.22,3C139.5,128.25,138,127.71,136.84,127Z"/><path class="cls-3" d="M137.94,133.94l-1.17,2,3,.06a1.75,1.75,0,0,0-1.83-2.06Z"/><polygon class="cls-9" points="129.49 126.91 129.85 124.91 129.15 124.91 129.49 126.91"/><path class="cls-5" d="M116.13,120.41a11.53,11.53,0,0,0-3.24-.46,24.19,24.19,0,0,0-3.64.23c-1.18.25-1.77,1.72-.77,2.07,2.54.9,5.36,1.94,8,1.1C118.13,122.84,117.68,121.08,116.13,120.41Z"/><path class="cls-15" d="M100,132.5c.53.5,1,1,1.86.55a1.12,1.12,0,0,0-1.86-.55Z"/><path class="cls-5" d="M102.08,136c0,.72-.19,1.49.93,1.57A1.38,1.38,0,0,0,102.08,136Z"/><path class="cls-10" d="M68.15,103.75a1.82,1.82,0,0,0,1.78,2.07A2.23,2.23,0,0,0,68.15,103.75Z"/><path class="cls-14" d="M103.83,210.94c-1.06,1.53-3.19.74-4.59,1.41q3.87.61,7.8,1A5.87,5.87,0,0,0,103.83,210.94Z"/><path class="cls-2" d="M58.8,198.9l-.79.2c.18,2-1.37,3.28-2.12,4.9,3.15,2,6.24,3.58,9.19-.36A3.34,3.34,0,0,1,67,202.57q-3.7-1.69-7.3-3.61A6.42,6.42,0,0,1,58.8,198.9Z"/><path class="cls-2" d="M74.85,204l3,0,3.94,1,.12-.11a48.79,48.79,0,0,1-1-5.33c-.15-1.87-1-2.87-2.8-2.58-1.43.23-3.69-2.38-4.25,1.12-.2,1.26-1.19,2-2.06,1.19-4-3.65-8.09-.33-12.09-.36q3.6,1.92,7.3,3.61C69.43,202,73.19,202.51,74.85,204Z"/><path class="cls-6" d="M83.82,212c-.27,2.41.38,4.26,3.07,4.86,3.17.67,3.93-1.78,4.93-3.86A21.2,21.2,0,0,1,83.82,212Z"/><path class="cls-6" d="M82.75,210l-.31-1.55q-1.9-.58-3.78-1.22C79.18,208.86,80.09,210.16,82.75,210Z"/><path class="cls-6" d="M77.81,204c.36,1,.53,2.19.86,3.23q1.88.64,3.78,1.22L81.75,205Z"/><polygon class="cls-8" points="133.82 206.02 133.83 206 133.4 205.77 133.82 206.02"/><path class="cls-7" d="M68.5,179.44A4.06,4.06,0,0,0,73.2,182a15.15,15.15,0,0,1,1.92-.1c.3-3-2.8-4.34-3.41-6.9C69.47,175.65,67.89,177.28,68.5,179.44Z"/><path class="cls-2" d="M99.22,203.78c-.2.83.7,1.14,1.31,1,2.7-.59,2.33-3.07,3.16-5.59C100.54,199.82,99.72,201.73,99.22,203.78Z"/><path class="cls-12" d="M58.78,198.9a6.49,6.49,0,0,0,.93.07l-.88-.47A4,4,0,0,0,58.78,198.9Z"/><path class="cls-12" d="M71.78,199.33c.88.81,1.86.06,2.06-1.19.56-3.5,2.82-.89,4.25-1.12,1.8-.29,2.65.71,2.8,2.58a48.79,48.79,0,0,0,1,5.33c4.35,2.88,5.06,2.73,6-2.1a29.71,29.71,0,0,1,2.9-8.88c-1-1.88-1.59-4.18-4-5,0,1.17.18,2.23-.85,3.27s-1.2,3.23-2.82,3.23c-2,0-1.56-2.36-2.16-3.42s-.85-1.93-2.42-1.86c-6.08.28-11.26,3.48-17,5a4,4,0,0,0-2.81,3.33l.88.47C63.73,199,67.82,195.68,71.78,199.33Z"/></g></g></svg>