<svg xmlns="http://www.w3.org/2000/svg" viewBox="0 0 128.24 159.02"><defs><style>.cls-1{fill:#eed9c2;}.cls-2{fill:#e7ceb3;}.cls-3{fill:#f7e7d4;}.cls-4{fill:#b2855a;}.cls-5{fill:#d1ae8c;}.cls-6{fill:#dbc4ac;}.cls-7{fill:#bea185;}.cls-8{fill:#e1c3a3;}.cls-9{fill:#c29a72;}.cls-10{fill:#e4d6c6;}.cls-11{fill:#d4b99c;}.cls-12{fill:#5f4532;}.cls-13{fill:#896444;}.cls-14{fill:#98775c;}.cls-15{fill:#452e24;}</style></defs><title>lab</title><g id="Layer_2" data-name="Layer 2"><g id="Layer_1-2" data-name="Layer 1"><g id="Layer_2-2" data-name="Layer 2"><g id="Layer_1-2-2" data-name="Layer 1-2"><path class="cls-1" d="M74.25,31.07c-3.23-.34,0-4.55-3-5-2.71-.45-5.72,1.11-8.16-1.19l-4.88,1.24c-.36,2.31-1.53,3.81-4,4-.33,2.38-2,4-3.41,5.74-1.11,1.36-2.23,1.32-2.56-.74-4.13,1-9.63-3.44-9.63-7.87,0-1.09,1.07-1,1.82-1.23a1.76,1.76,0,0,1,.73-2.12,5.59,5.59,0,0,1-.07-.88c-4-.31-3.52-2.23-1.22-4.29s4.81-4,7.16-6c.9-.75,1.6-1.84.72-3C47.08,8.84,45.93,9,45,9.31c-3.67,1.26-6.3.34-8.42-3.09C35.24,4,32.07,5.67,30.24,4c-3,.59-4.39,3-6,5.08a3.09,3.09,0,0,0,3,1.93c1.54.21,3.69-.89,4.54.9,1.08,2.27-1.93,2.13-2.72,3.52,2.53,1.29,5,3.41,8.19-1-.49,4.16-1,6.87-.62,9.87.47,4-2.17,4.6-5.4,2.68l-3,6c-1.6,5.14-5.23,9.49-6,15,.37,2,1.37,3.88,1,6h1a13.85,13.85,0,0,1,.33-2.9c.77-1.83.76-4.85,4-3.68,2.2.8,4.1,2.27,2.61,5.21a3.72,3.72,0,0,0,0,1.47,26.93,26.93,0,0,0,9-1.08h0l.39-2.17c.13.08.38.14.38.25A1.52,1.52,0,0,1,40.18,53v0h0l-2,7.5c2.93-2.31,6.25-2.13,5.93-6.52a6,6,0,0,1,4-6c1.6-2.12,2.89-4.5,5.2-6.1a3.38,3.38,0,0,1,2.24-3.53c2.93-1.43,6.14-2.3,4.4-7-.64-1.62,1.9-1.4,3-1.12,3.73,1,8.08.36,10.52,4.36C74.7,33.38,74.12,32.17,74.25,31.07Zm-40,12.19a3,3,0,0,1-3.66.38,2.66,2.66,0,0,1-1.39-2.88h0c.92-3.73,1.57-7,3.53-9.67,1.32-1.81,2.38-1.91,3.56.3A10.23,10.23,0,0,1,34.29,43.26Zm7.88,5.09c-.15.09-.46-.12-.7-.2.12-.25.22-.62.39-.71s.49.12.76.21h0A2.71,2.71,0,0,1,42.17,48.35Z"/><ellipse class="cls-1" cx="40.17" cy="53.04" rx="0.01" ry="0.01" transform="translate(-26.34 51.48) rotate(-51.52)"/><path class="cls-2" d="M89.12,132a15.24,15.24,0,0,1,0,2.36q2.06-1.39,4.06-2.93A8.24,8.24,0,0,1,89.12,132Z"/><path class="cls-3" d="M76.93,5c-.86-.36-.43-1.42.34-2C71.75-.26,65.65,0,59.57,0c-10,.11-20-.59-29.37,4,1.83,1.63,5,0,6.33,2.18,2.11,3.42,4.75,4.35,8.42,3.09.94-.29,2.14-.47,2.8.49.88,1.13.18,2.22-.72,3-2.36,2-4.84,3.88-7.16,6S37.14,22.71,41.14,23c2.7-3.41,6.37-.83,9.76-1.6-3-5.86,1.47-4.24,4.3-4.24.91-1.48,2-.44,3.07-.27,1.64.26,3.19.14,2.72-2.2-.23-1.14-.94-2.49,1.06-2.43h0a2.24,2.24,0,0,1,2.09,2.38c.06,1.83,0,3.66,0,5.49l-1.11,4.72c2.44,2.3,5.45.74,8.16,1.19,0-1.93-.29-4,2-5,1.26-2.45,1.71-6.17,6-3.27,1.1.74,2.16-.37,3-1.2l.17-.15a2.1,2.1,0,0,0,0-3C80.08,11,80.68,6.66,76.93,5Z"/><path class="cls-4" d="M124.39,52,122.29,54l-.06.06c-.27,1,.49,2.3-.64,3.2-1.45-.57-1.63-2.05-2.26-3.15-1-1.76-3.18-3.74-1.43-5.76s3.47,1.2,5.4.73c.11-4.59-4.74-3-6.51-5.21-.47.8-1.28,1.57-1.34,2.4A6.27,6.27,0,0,1,113.28,51a18.83,18.83,0,0,1,0,2.49c-.33,2.39,2.17,5.24-2,7-1.92.81-1.06,6-5.5,4.41-.4,3.13-2.65,2.28-4.57,2.13-.64,2.92-2.92,3-5.21,3-2.48,2.46,1.34,5.47-.66,8,.32,2.87,2,5,3.91,7,2.67-.1,5.19-1.48,7.94-.91l1.19-.14c-.4-3.47,3-4,4.6-6,2.31-1.49,3.61-3.86,5.19-6-.34-5.94,1.41-10.94,6.12-14.9C126,55.63,127.39,53.7,124.39,52Z"/><path class="cls-5" d="M117.16,97c-3.09-5.94-3.56-12.49-4.18-19-1.6,2-5,2.53-4.6,6,1.63,2.64-.24,4.78-1.16,7-.16,2.83.59,6.25-4.07,6l-1-1.12-1,.08c-2.8,4.48-7.4,7.5-9.9,12.23a1.45,1.45,0,0,1-1.3.47c-5.08-1.5-4.94,2.73-5.48,5.42-.64,3.19-.41,6.31-5.22,4.05l-.32-.12a3,3,0,0,0-3.74,2c3.82.76,3.67,4.41,5,7,5-.3,6-5.11,8.67-7.91.75-.76.87-2.14,2.32-2.14l1-1c.25-7.13,6.51-12.88,12-11,2.09.34,4.36,1.6,4.36-2.49,0-1.81,2.11-3.58,4.39-1.58,1.38,1.21,2.7,2.17,4.23.61C118.55,100.18,117.94,98.52,117.16,97Z"/><path class="cls-6" d="M12.15,121c.86-3.27,3.56-2.93,6.06-3l3-2v-2c-.1-2.8.5-5.31,3-7l-1-1a1.81,1.81,0,0,1-2-2h-2c-.79,3.15-3.51,3.94-6.06,4.94L13,110c2.37,2.68-.26,2.51-1.75,3q-.08,1.06-.08,2.11c.45,2.18-2.12,2-2.78,4-.3.85-.57,1.71-.83,2.57q.82.9,1.65,1.77A5.31,5.31,0,0,1,12.15,121Z"/><path class="cls-7" d="M127.34,51.38c-2.19-6.7-7.39-12-8.52-19.14-2.08-.82-2.08-3.2-3.43-4.57-.78-.79-1.52-1.85-2.87-1.08l-.05,0a1.85,1.85,0,0,0-.9,2.46c1,1.87.09,4.29,1.79,5.92,2.36.14,2,2.34,2.7,3.69.38.73.26,1.84-.83,1.84-.64,0-1.24-1-1.86-1.5l-1.09-1c-1.72,2.4-.78,5.46-2,8-.37,1.69-2.13,3.06-1,5h4a6.27,6.27,0,0,0,2.17-4.72c.06-.83.87-1.6,1.34-2.4,1.77,2.21,6.62.62,6.51,5.21,1.09.7.94,1.88,1.09,2.88,3,1.75,1.6,3.68-.1,5.11C119.58,61,117.83,66,118.17,72c2.83.06,3.92-1.43,4.43-4.21.54-3.58,1.28-7.32,4.07-9.86C129.1,55.68,128.18,53.94,127.34,51.38Z"/><path class="cls-2" d="M110.25,18c-1.43.76-2.56,1.91-4.36,2.18-2.32.35-4,1.59-3,4.5.78,2.24,0,3.56-2.61,3.3,2.76,6.12,3.32,13.3,8.87,18V35.59c2.21,0,2.4,1.48,3,2.48l1.09,1v-4c-1.69-1.62-.79-4-1.79-5.92l0-.05a1.85,1.85,0,0,1,1-2.43c1.35-.76,2.08.29,2.87,1.08,1.35,1.36,1.35,3.75,3.43,4.57C117.5,26.61,115.31,21.46,110.25,18Z"/><path class="cls-8" d="M29.06,15.53c.79-1.38,3.8-1.24,2.72-3.52-.85-1.79-3-.69-4.54-.9-.85,1.74-1.78,3.85-4,3.44-1.82-.33-.72-2.46-1.09-3.74-1.06.21-2.23.21-2.84,1.33A3,3,0,0,1,17.19,15c-2.19,2.14-5.49,3.07-6.85,6.14,1.79,1.67,2.42-.41,3.42-1.12,1.51-1.06,2.29-.91,2.51,1,1.25.92,4.45-2,4.1,2.07,1.74.16,2.95-1.08,4.42-1.63,2.3-.86,4.65-1.05,4.44,2.65l2,2.93c3.23,1.92,5.88,1.32,5.4-2.68-.38-3,.13-5.71.62-9.87C34.06,19,31.59,16.83,29.06,15.53Z"/><path class="cls-1" d="M77.27,3c-.77.57-1.2,1.62-.34,2,3.75,1.64,3.16,6,5.46,8.41l.15.17a2.1,2.1,0,0,1-.33,3c-.86.83-1.91,1.94-3,1.2-4.31-2.9-4.76.82-6,3.27,1.88,1.27-.26,5.76,4,5a2.12,2.12,0,0,1,2-1c-.11-1.88.6-3.1,2.69-3s4.18,0,6.27,0v-3L88.12,19a3,3,0,0,1-.31-4.23c1.66-1.8,3.55.31,5.38.31.43-3.53-4.18-4.52-4-7.94Z"/><path class="cls-6" d="M94.25,131c0-.13,0-.26-.05-.39l-1.21,1A8.25,8.25,0,0,0,94.25,131Z"/><path class="cls-6" d="M106.26,120l.23-1.62q-.86,1-1.75,2.06A8.61,8.61,0,0,1,106.26,120Z"/><path class="cls-6" d="M103,122.42c.08-.79.55-1.49,1.79-2q.88-1,1.75-2.06l.72-5-4-.35c-1.64,1.14,3.26,2.74-.64,4.34-4.13,1.69-3.86,2.38-4.49-2.52-.26-2-1.22-2-2.65-1-1.06.75-2.15,1.47-3.22,2.21l-1,1c.19,1.34-1.45,2.7-.43,3.63,2.65,2.75.42,4.66-.8,6.82-.79,1.41-2.89,2.63-.73,4.52a8.26,8.26,0,0,0,3.74-.43l1.21-1a7,7,0,0,0-.22-1.06c-.71-1.75-1.49-3.78.51-4.87s2.87,1,4,2.22Q100.78,124.76,103,122.42Z"/><path class="cls-9" d="M23.22,54.1a13.48,13.48,0,0,1-.88,1.28c-1.9,2.21-5,5.18-6.9,4.36-2.26-1-1-5-.88-7.76.23-3.73-1-7.34-2.33-10.85-1.35.88-2,2.65-3.47,3-2-1.18,1.65-4.89-2.6-4.89l-.59,2.88q.07,1.39.13,2.78C7.9,46.3,7.1,48.37,7,50.3v1.89l1.82.23c.65-1.42.9-3.28,3.1-3.07.34,0,.94.69.88.87-.65,1.88-.63,4.25-3.25,4.8l-.22,1,1.11,2a3.54,3.54,0,0,1,1.85,3,7.27,7.27,0,0,1,1.86,6c1.38.79,1,2.17,1.14,3.38.31,3.71,1.58.33,2.39.33l-.18-.38L17.22,69c-.43-5.52,4.82-7.52,7.1-11.31l-.1-3.61Z"/><path class="cls-3" d="M106.81,14.88c-5.38-3.74-11.9-4.79-17.6-7.74-.21,3.42,4.41,4.41,4,7.94,1.39,3.4,5.15,5.24,6,8.92l.07,2,1.09,2c2.62.26,3.39-1.06,2.62-3.3-1-2.91.63-4.15,3-4.5,1.8-.27,2.93-1.42,4.36-2.18C110.08,15.88,108.12,15.78,106.81,14.88Z"/><path class="cls-6" d="M17.69,70.79c-.81,0-2.08,3.37-2.39-.34-.14-1.21.24-2.59-1.14-3.38-1.12.59-1.44,1.62-1.9,2.74-1.7,5,.09,10.37-2,15.26-.46,3.53,1.14,6.63,2,9.89.59,2.26,1.91,2.78,3.91,2.11.75-5.32-2.16-11.09,2-16,.61-2.34-.8-5.12,1.44-7.12A4,4,0,0,0,17.69,70.79Z"/><path class="cls-8" d="M103.21,113.08c-2.37-3.06.12-5.43,1-8-5.5-1.92-11.76,3.84-12,11,1.08-.74,2.16-1.46,3.22-2.21,1.43-1.06,2.39-1,2.65,1,.62,4.9.36,4.21,4.49,2.52C106.47,115.82,101.57,114.22,103.21,113.08Z"/><path class="cls-10" d="M12.28,95c-.85-3.27-2.44-6.36-2-9.89C8.39,89,4.59,93.31,9.48,96.93c4.65,3.47,5.65,7.1,3.65,12.1,2.55-1,5.26-1.79,6.06-4.94l-3-7C14.15,97.76,12.88,97.24,12.28,95Z"/><path class="cls-2" d="M102.92,122.46q.86-.92,1.7-1.88A2.41,2.41,0,0,0,102.92,122.46Z"/><path class="cls-11" d="M16.23,21.1l-.24.42.22-.43c-.22-1.92-1-2.08-2.51-1-1,.71-1.63,2.78-3.42,1.12a2,2,0,0,0-2,1.09l-1,2.87,4.93-.1,1-.12c1.43-.19,2.33,0,2.73.9A13.1,13.1,0,0,1,17,33.91l.22.2h1v-.94c1-3.29,2.57-6.43,2.1-10C20.68,19.1,17.48,22,16.23,21.1Z"/><path class="cls-6" d="M4.63,27.48l-.38-.39c-4.1,1-5.31,4.38-3.31,7.13C2.76,36.74,3.81,39.58,5.6,42l.59-2.86C5,36.51,2.91,34.2,3.09,31Z"/><path class="cls-2" d="M24.23,9.12c-1.13,0-2,.41-2.08,1.7.38,1.28-.72,3.41,1.09,3.74,2.22.41,3.15-1.7,4-3.45A3.09,3.09,0,0,1,24.23,9.12Z"/><path class="cls-6" d="M4.28,27.11l.38.39c1.2-.44,2.57-.67,2.63-2.37l1-2.87C4.65,22,4.65,24.7,4.28,27.11Z"/><path class="cls-6" d="M7,52.09c-2.59,3.34-.81,4,2.34,3.85l.22-1-.73-2.62Z"/><path class="cls-6" d="M5.73,44.82c.18,1.86-1.13,4.09,1.31,5.4C7.13,48.29,7.93,46.19,5.73,44.82Z"/><path class="cls-10" d="M11.21,113c1.49-.46,4.13-.29,1.75-3A3.15,3.15,0,0,0,11.21,113Z"/><path class="cls-2" d="M17.09,15a3,3,0,0,0,2.17-2.85C17.22,12.16,17.23,13.65,17.09,15Z"/><path class="cls-6" d="M10.45,58c-.25,1.54-.19,2.89,1.85,3A3.54,3.54,0,0,0,10.45,58Z"/><path class="cls-10" d="M9.69,113.79c-.28,1,.7,1.15,1.44,1.34q.08-1.06.08-2.11C10.69,113.32,9.8,113.47,9.69,113.79Z"/><path class="cls-1" d="M27,148c0,.15.06.29.09.45C27.3,148.16,27.25,148,27,148Z"/><path class="cls-2" d="M40.49,143.79a2.27,2.27,0,0,0-.27-.93,67.67,67.67,0,0,1-27.53-16,9.64,9.64,0,0,0,2.53,4.19c5,2.24,5,2.61,0,7v1c6.66-1.05,10.61,1.92,12,9,2.89.09,3.31,3,5,4.32,1.43,1.07,4.12,5.8,5-.55a2.8,2.8,0,0,1,2.3-2.33c1.74-.53,2.25.91,2.89,2.07.87,1.58,1.41,3.51,3.75,3.51-.56-2.19-1.26-4.53-1.65-6.63-.35-1.86.06-3.49,1.86-4.21-1.64-.27-3.26-.61-4.87-1C41.07,143.67,40.49,143.91,40.49,143.79Z"/><path class="cls-2" d="M46.24,135c-2.19-2,1.45-3.45.45-5.31-4.28,1.55-5.17,3-4.65,7.33a37.14,37.14,0,0,1,.13,5,1.72,1.72,0,0,1-.63,1.19c1.61.41,3.23.75,4.87,1a4.78,4.78,0,0,1,.75-.24C45.52,141.13,46.5,138,46.24,135Z"/><path class="cls-2" d="M35,136c.65-1.49-.74-2.06-2-1a15.88,15.88,0,0,0-2.11,2.89c-1.07-2.64-.21-4.37.18-6.24-3.4-.57-3.12,3-5.3,4.27a20.13,20.13,0,0,1,1.67-10.23c.7-1.79,2.11-3.81-1.15-4.65-.09,2-1.4,3.12-3,4a4.43,4.43,0,0,1,0,1c-.41,1.95,1.21,5.16-1.41,5.61S18,129.31,17,126.84c-1-2.64-.88-4.83,1.26-6.77v-2c-2.5,0-5.2-.32-6.06,3a15.79,15.79,0,0,0,.47,5.81,67.67,67.67,0,0,0,27.53,16C38.82,140.33,32.76,141.18,35,136Z"/><path class="cls-11" d="M79.25,25.1a2.12,2.12,0,0,0-2,1c.55,2.61-1.57,3.6-3.09,4.94-.13,1.09.44,2.31-.8,3.56-2.44-4-6.79-3.36-10.52-4.36-1-.28-3.6-.5-3,1.12,1.74,4.74-1.47,5.61-4.4,7a3.38,3.38,0,0,0-2.24,3.53c6,.05,12.13-.41,16.91,4.37.13-4.85,2.37-2.13,4.13-1.2,1.22-3-1-6.87,2.29-9.38-.71-5.35,4-4.44,6.72-5.79C84.72,26,82.49,25.1,79.25,25.1Z"/><path class="cls-6" d="M44.09,54c.35,4.43-2.94,4.25-5.85,6.58l2-7.51a26.93,26.93,0,0,1-9,1.08,2,2,0,0,1-1,1.87v1l2.16.08c3.46-2.49,4.46,1,4.46,2.66,0,2.83,1.78,5,1.89,7.77q0,.09,0,.18a3.74,3.74,0,0,0,3.93,3.53c2.58-.07,2.27-2.4,2.71-4.07.3-4.07.31-8.15,1.61-12.07L48.09,48A6,6,0,0,0,44.09,54Z"/><path class="cls-12" d="M53.17,41.85c-2.22,1.63-3.52,4-5.08,6.17L47,55.17l1,.15c1.76-3.57,5-5.63,7.93-8,2.29-2.88,4.92-1,7.44-.48A1.41,1.41,0,0,1,63.66,48a2.47,2.47,0,0,1-1.61.83c-1.58-.21-3.14-.65-4.71-1,1,3.42,2.12,5.69,6.24,2.69,2-1.52,4.84-4.29,7.6-.52a4,4,0,0,0-1.1-3.8C65.3,41.44,59.17,41.9,53.17,41.85Z"/><path class="cls-2" d="M26.25,29c-.74,1.81-2.28,2.08-4,2a3.12,3.12,0,0,1-2,3.05,2.12,2.12,0,0,1-2,1h-1c-3,4.18.21,8.33.31,12.46.1,3.85,2.79,2.51,4.67.58.74-5.49,4.37-9.84,6-15C26.54,32.27,27.86,29.93,26.25,29Z"/><path class="cls-11" d="M17.53,47.54c-.11-4.14-3.31-8.29-.31-12.46q0-.5,0-1L17,33.89c-2.72.76-2.29,4.24-4.62,5.33l-.12,1.86c1.33,3.51,2.56,7.12,2.33,10.85-.12,2.82-1.38,6.76.88,7.76,1.9.82,5-2.15,6.9-4.36a13.46,13.46,0,0,0,.85-1.21c.39-2.13-.61-4-1-6C20.31,50.05,17.63,51.39,17.53,47.54Z"/><path class="cls-3" d="M32.85,31.07c-2,2.68-2.65,6-3.57,9.68a2.66,2.66,0,0,0,1.39,2.88,3,3,0,0,0,3.66-.38,10.23,10.23,0,0,0,2.08-11.88C35.24,29.16,34.17,29.27,32.85,31.07Z"/><path class="cls-2" d="M28.72,47.45c-3.28-1.17-3.28,1.85-4,3.68A13.85,13.85,0,0,0,24.23,54l.09,3.61L26.51,61l2.69.09.07-.22.9-.83.07-1v-1q-1.56-1,0-2a2,2,0,0,0,1-1.91,3.72,3.72,0,0,1,.09-1.51C32.82,49.72,30.92,48.25,28.72,47.45Z"/><path class="cls-11" d="M55.6,23.93c1-2.49-.7-4.5-.45-6.75-2.82,0-7.3-1.62-4.3,4.24-3.38.77-7.06-1.81-9.76,1.6a4.43,4.43,0,0,0,.09.89c2-.08,4,0,5.91-.27,5-.62,6.85,2,7.12,6.44,2.49-.19,3.66-1.69,4-4C56.81,25.93,55,25.4,55.6,23.93ZM53,22.14c-.19.45-.41.43-.53,0,0-.1.13-.25.13-.37s.28,0,.32,0A.45.45,0,0,1,53,22.14Z"/><path class="cls-12" d="M47.08,23.64c-1.91.27-3.91.19-5.91.27A1.76,1.76,0,0,0,40.43,26c1.79.79,2.66,2.94,4.7,3.34,3.09-.13,5.8,3.71,9.09.71C53.93,25.64,52.08,23,47.08,23.64Z"/><path class="cls-3" d="M45.12,29.4C43,29,42.21,26.84,40.43,26c-.75.17-1.82.11-1.82,1.23,0,4.43,5.5,8.87,9.63,7.87C49.21,32.11,45.12,31.88,45.12,29.4Z"/><path class="cls-11" d="M45.13,29.37c0,2.48,4.12,2.72,3.12,5.72.32,2.06,1.45,2.09,2.56.73,1.41-1.74,3.08-3.35,3.41-5.74C50.93,33.12,48.19,29.24,45.13,29.37Z"/><path class="cls-2" d="M73.25,21.1c-2.29,1-2,3.07-2,5,3,.44-.21,4.65,3,5,1.43-1.39,3.55-2.38,3-5C73,26.78,75.09,22.29,73.25,21.1Z"/><path class="cls-5" d="M26.23,29.1c1.63.83.31,3.17,2,4l3-6-2-2.93A4.55,4.55,0,0,0,26.23,29.1Z"/><path class="cls-11" d="M58.21,26l4.88-1.14,1.07-4.72C61,20.9,60,23.9,58.21,26Z"/><path class="cls-6" d="M41.89,47.43c-.2.1-.26.46-.39.71.24.07.49.32.7.2s.31-.45.46-.7C42.39,47.55,42.09,47.33,41.89,47.43Z"/><path class="cls-6" d="M40.23,53.08v0h0Z"/><path class="cls-6" d="M40.62,50.89l-.39,2.17A1.52,1.52,0,0,0,41,51.14C41,51,40.75,51,40.62,50.89Z"/><path class="cls-8" d="M80.21,140c.17-.32.33-.6.48-.86l-.46.21C80.23,139.61,80.23,139.83,80.21,140Z"/><path class="cls-8" d="M83.76,137.61c.89.72,1.63,2.36,2.45,3.44.25,1.55.66,3.3,2.66,2.16,1-.57,2.89-1.62,1.45-3.5-1.31-1.69-1.17-3.57-1.08-5.44Q86.56,136.08,83.76,137.61Z"/><path class="cls-8" d="M89.22,132c-2.16-1.9-.06-3.12.73-4.52,1.22-2.16,3.46-4.07.8-6.82-1-1,.65-2.39.46-3.68-1.44.07-1.57,1.43-2.33,2.15-2.73,2.8-3.67,7.61-8.67,7.91V129c1.88,1.35,1.32,3.11.61,4.73-.81,1.85-.55,3.75-.59,5.63l.46-.21c1.28-2.12,2.24-2.25,3.06-1.58q2.79-1.53,5.48-3.34A14.42,14.42,0,0,0,89.22,132Z"/><path class="cls-1" d="M94.45,124.75c-2,1.09-1.22,3.13-.51,4.87a7,7,0,0,1,.21,1q2.18-1.75,4.28-3.69C97.33,125.77,96.48,123.65,94.45,124.75Z"/><path class="cls-6" d="M80.21,140.08c-1.65,1.41-.74,3.32-1,5,1.58-.17,2,1.4,3,2,2.11-.19,2-1.82,2-3.24s.25-2.62,2-2.75c-.84-1.08-1.58-2.75-2.48-3.46-1,.54-2,1.06-3,1.55C80.56,139.44,80.39,139.74,80.21,140.08Z"/><path class="cls-6" d="M80.73,139.17c1-.49,2-1,3-1.55C82.92,137,82,137.13,80.73,139.17Z"/><path class="cls-11" d="M79.24,145.08c1.56-.18,1.95,1.39,3,2v3h-5Z"/><path class="cls-1" d="M62,12.29c-2.06,0-1.29,1.29-1.06,2.43.46,2.34-1.09,2.46-2.72,2.2-1.06-.17-2.15-1.2-3.06.27-.25,2.25,1.45,4.27.45,6.75-.58,1.46,1.2,2,2.61,2.15C60,23.9,61,20.9,64.16,20.16c0-1.83.06-3.66-.07-5.49A2.24,2.24,0,0,0,62,12.29Z"/><path class="cls-13" d="M99.24,85c.47,1.47,3.15,3.18,1.47,4.09-2.56,1.4-5.47,3.44-8.93,1.78-2.17-1-3-2.34-2.17-4.67,1.22-3.21-.9-8.73,5.72-8.14,2-2.5-1.81-5.51.67-8,0-3.63,1.41-6.82,3.29-9.84.38-1.84-.82-2.16-2.21-2.3l-.84,1.21c-.42,1.56-2.31,2.45-1.42,4.76.79,2.06-.56,4-2.56,5.22l-1.09,1c-.74,2.72-1.35,5.52-2.85,8A25.32,25.32,0,0,0,87.09,86l.17,4c.6,1.33,2.15,2.15,2.15,3.79l2.78.28,10.91-3.27c.16-1.68-.29-3.67,2.36-3.91,1.72-.17,1.72-1.6,1.72-2.89C104.43,83.48,101.91,84.86,99.24,85Z"/><path class="cls-12" d="M99.25,85c-1.89-2-3.6-4.06-3.91-6.94-6.62-.59-4.5,4.93-5.72,8.14-.88,2.33,0,3.67,2.17,4.67,3.46,1.65,6.37-.39,8.93-1.78C102.4,88.2,99.67,86.49,99.25,85Z"/><path class="cls-5" d="M108.24,57.05l-.1-.1c-2.08,0-1.92-1.54-1.92-2.92-2.76.88-2.76,4.09-4.76,5.66-.8.63-1.19,1.57-2.19.42C97.41,63.16,96,66.35,96,70c2.29,0,4.58,0,5.21-3,0-2.61,2.36-4,3.93-4.45C108.58,61.68,108.31,59.49,108.24,57.05Z"/><path class="cls-9" d="M113.2,53.59a18.81,18.81,0,0,0,0-2.49h-3.95c-.28,2,3,4.63-1,6,.07,2.44.35,4.63-3.1,5.52-1.57.45-3.93,1.84-3.93,4.45,1.92.15,4.16.95,4.48-2.07,4.45,1.59,3.58-3.6,5.5-4.41C115.4,58.8,112.91,56,113.2,53.59Z"/><path class="cls-13" d="M124.34,52c-.15-1,0-2.19-1.09-2.88-1.93.47-3.54-2.92-5.4-.77s.43,4,1.43,5.76c.63,1.1.81,2.58,2.26,3.15,1.13-.91.36-2.2.64-3.2l-.4-.46.46.4Z"/><path class="cls-14" d="M108.36,84l-1.19.14c0,1.3,0,2.73-1.72,2.89-2.65.24-2.2,2.23-2.36,3.91l4.18.18C108.12,88.8,110,86.66,108.36,84Z"/><path class="cls-9" d="M92.19,94.12l-2.78-.28c.18,3-.89,4.63-4.33,4.32-4.33-.41-8.45,1.34-12.33,2.86-4.07,1.6-4.72.69-3.66-3.07l-2.76.14-1.89,1.13c-.36,1.75-1.68,1.87-3.11,1.87l-.91.15c0,3.8-.22,7.12-5.58,4.89a23,23,0,0,0-4.72-.91c.56,2.39,2.08,3.37,4.43,4,4.34,1.2,9.29,3.66,10.68,7.2,2.38,6.17,6,4.33,10,3.67a3,3,0,0,1,4.06-1.89c4.81,2.26,4.58-.86,5.22-4.05.53-2.69.4-6.92,5.48-5.42a1.45,1.45,0,0,0,1.3-.47c2.5-4.73,7.11-7.75,9.9-12.23C98.08,95.86,94.19,99.25,92.19,94.12Zm-17.81,21.5c-3.91,1.55-5.66-1-7.37-2.78-1.86-2,.33-3.86,1.88-5.37a18.93,18.93,0,0,1,9.66-5.27c1.89-.37,2.84.53,2.54,3.1C79,108.36,79.7,113.49,74.38,115.62Zm6.92,0a3.34,3.34,0,0,1-.58-1c0-.21.31-.6.57-.71.73-.32.75.3.92.9Z"/><path class="cls-11" d="M75.2,120.13c-3.95.66-7.58,2.5-10-3.67-1.38-3.54-6.34-6-10.68-7.2-2.36-.67-3.87-1.65-4.43-4L48.15,105c-3.92,1.64-6.67.49-9.14-3-2-2.89-3.35-6.82-8.24-7.13-.74,0-2.68-4.77-4.68-6.89l-1,1c0,4.26,3.32,6.76,5.2,10.11,1.49,0,2.76.76,2.93,2.15.33,2.75.74,4.81,4.27,3a1,1,0,0,1,1.32,1.39c-1.14,2.53,1.41,3.73,2,5.83-3.26,1.53-10.2-4.54-9.62,4.53,1.21,2.3,2.13,4.34.74,7.22-1.28,2.67,1.36,5,2.61,7.25.46.82,2.35.53,2.35-.47,0-3.21,2.08-5.41,3-8.09,1-2.91-2.72-.08-3.36-2.14,1.18-2.2,3.64-2.12,5.76-2.68a45.27,45.27,0,0,0,6.45-2.47c2.59-1.41,4.54-3.74,7.08.59.68,1.15,4.28.94,4.4,4.15,0,.64,1,1.39,2.26.33,3.53-3,2.38.56,2.66,2.06.81.75.7,1.14-.44,1.27s-1.47.91-1.61,1.91l.28.28c2.17-.07,1.72,1.91,2.17,3.54,2.72-2.23,3.52-8.69,8.64-3.69,2.79-1.6,2.4,1.17,2.9,2.29.65,1.44-.47,3.37,1.12,4.65l2-3v-2C78.89,124.57,79.05,120.92,75.2,120.13Z"/><path class="cls-4" d="M103.09,90.92,92.17,94.11c2.06,5.13,5.91,1.74,9,1.91h.94a3.7,3.7,0,0,1,0-.83l-.39-.47.48.38a2.09,2.09,0,0,1,1,2c4.65.23,3.91-3.19,4.07-6Z"/><path class="cls-9" d="M102.26,95v0a3.69,3.69,0,0,0,0,.83l1,1.12A2.09,2.09,0,0,0,102.26,95Z"/><path class="cls-5" d="M38.79,105.61a1,1,0,0,0-1.32-1.39c-3.53,1.76-3.94-.29-4.27-3A2.67,2.67,0,0,0,30.27,99a5.41,5.41,0,0,1-.1,1.84c-.54,1.22,2.14,2,.57,3.22s-2.83.58-4.25-.6c-.74-.59-2.15-.42-3.25-.59l-.07.08v3l1,1c1,3.21,1.68,6.24-3,7v2c2.41.19,3.81,2.39,6,3l4-3c-.58-9.07,6.36-3,9.62-4.53C40.22,109.34,37.67,108.13,38.79,105.61Z"/><path class="cls-5" d="M20.69,95.94a3.64,3.64,0,0,1-1.23-4c-.38-1.85-1.68-3.51-.08-5.6,1.44-1.86.08-3.67-1.18-5.24-4.21,4.89-1.29,10.67-2,16l3,7h2a2,2,0,0,1,2-1l.08-.08C23.53,100.25,23.09,97.77,20.69,95.94Z"/><path class="cls-5" d="M9.25,123.49c-1.14,2.26.62,5.07,1.14,7.58.3,1.26.28,3.52,2,3.54s2.68-1.65,2.81-3.49a9.85,9.85,0,0,1-2.52-4.25Q10.93,125.25,9.25,123.49Z"/><path class="cls-5" d="M12.19,121.12a5.35,5.35,0,0,0-2.95,2.37q1.68,1.75,3.43,3.38A16.14,16.14,0,0,1,12.19,121.12Z"/><path class="cls-11" d="M18.23,118.07v2c2.68.66,3.79,2.88,5,5,1.6-.88,2.91-2,3-4l1-2c-2.2-.62-3.6-2.82-6-3Z"/><path class="cls-11" d="M21.21,114c4.68-.76,4-3.79,3-7C21.72,108.76,21.09,111.26,21.21,114Z"/><path class="cls-11" d="M21.22,104.09a1.81,1.81,0,0,0,2,2v-3A2,2,0,0,0,21.22,104.09Z"/><path class="cls-5" d="M109.28,51.09c-1.12-1.93.63-3.31.93-5l-1-.07c-5.56-4.7-6.12-11.88-8.9-18l-1.09-2c-1.7,1.37-.77,3.3-1,5,1.74,1.82,1.15,4.1.83,6-.65,3.92-3.23.61-4.88,1h-2l-.08,2c1.38,1.67,4,.81,5.23,2.2s2.91,2.85.91,4.85l1,4c2.52-.39,3.39-2.68,4.83-4.68a11.9,11.9,0,0,1,2.2,7.68A2.79,2.79,0,0,1,108.18,57l.1.1C112.28,55.73,109,53.09,109.28,51.09Z"/><path class="cls-8" d="M109.25,35.63V46.06l1,.07c1.23-2.53.28-5.6,2-8C111.66,37.09,111.47,35.63,109.25,35.63Z"/><path class="cls-4" d="M116,38.79c-.7-1.35-.34-3.55-2.7-3.69v4c.61.53,1.21,1.47,1.87,1.53C116.27,40.68,116.39,39.52,116,38.79Z"/><path class="cls-2" d="M24.71,21.52c-1.42.54-2.67,1.78-4.42,1.63.47,3.59-1.1,6.73-2.1,10,1.35-.63,2.26-2.15,4-2.07.8-1.69,2.24-2.16,4-2a4.55,4.55,0,0,1,3-4.92C29.4,20.46,27.09,20.66,24.71,21.52Z"/><path class="cls-2" d="M81.88,22c-2.19-.09-2.79,1.1-2.69,3,3.23,0,5.46.85,4,4.79l2.39.47c6.28-.4,6.53-.1,6.59,7.72h2l1-4c.37-5.55-4.94-7.82-7-12C86.06,22,84.07,22.13,81.88,22Z"/><path class="cls-8" d="M93.24,21.59c-1.29-1.5-2.76-2.83-5-2.5v3c2,4.15,7.33,6.42,7,12,2.17.17,1.67-2.32,3.07-3,.21-1.67-.72-3.6,1-5l-.07-2A6.28,6.28,0,0,1,93.24,21.59Z"/><path class="cls-2" d="M87.79,14.78l-.06.07a3,3,0,0,0,.44,4.22c2.26-.33,3.73,1,5,2.5a6.28,6.28,0,0,0,6,2.53c-.81-3.78-4.57-5.62-6-9C91.35,15.13,89.45,13,87.79,14.78Z"/><path class="cls-12" d="M26.52,61.07l-2.19-3.41C22,61.5,16.79,63.5,17.22,69c.69.37.77.79.29,1.37l.18.38A4,4,0,0,1,19.61,74c2.67.93,4.17,3.44,6.43,4.93,1.44-4.78,2.15-9.52.37-14.44C26.12,63.63,24.77,62.07,26.52,61.07Z"/><path class="cls-4" d="M12.21,25c-1.64,4.1-5.43,4.93-9.06,6-.23,3.14,1.86,5.49,3,8.14,4.24,0,.6,3.71,2.6,4.89,1.47-.36,2.12-2.13,3.47-3l.11-1.82c.65-4.74,2.62-9.41.83-14.33ZM7,36.92c-.31-3.28.38-5.14,4-5.62A6.84,6.84,0,0,1,7,36.92Z"/><path class="cls-4" d="M11.93,49.27c-2.2-.21-2.45,1.65-3.1,3.07l.73,2.6c2.62-.54,2.6-2.92,3.25-4.8C12.87,50,12.26,49.27,11.93,49.27Z"/><path class="cls-4" d="M17.22,69l.29,1.37C18,69.81,17.91,69.35,17.22,69Z"/><path class="cls-4" d="M26,78.88C23.78,77.38,22.27,75,19.61,74c-2.25,2-.83,4.77-1.46,7.13,1.26,1.56,2.61,3.37,1.18,5.24-1.6,2.09-.3,3.75.08,5.6A16.23,16.23,0,0,1,25.07,89l1-1a10.14,10.14,0,0,1,.35-7.78Z"/><path class="cls-6" d="M106.23,120.07h0c.13.73.11,1.58,1.21,1.51a.45.45,0,0,0,.31-.31C107.81,120.18,107,120.2,106.23,120.07Z"/><path class="cls-9" d="M13.2,24.91C15,29.79,13,34.46,12.38,39.2c2.33-1.09,1.9-4.57,4.62-5.33a13.1,13.1,0,0,0-1.07-8.06C15.53,24.91,14.63,24.72,13.2,24.91Z"/><path class="cls-9" d="M4.64,27.5,3.14,31c3.63-1.09,7.42-1.92,9.06-6l-4.93.12C7.21,26.83,5.84,27.07,4.64,27.5Z"/><path class="cls-5" d="M18.22,34.12h2a3.12,3.12,0,0,0,2-3.05c-1.72-.08-2.63,1.43-4,2.07Q18.23,33.61,18.22,34.12Z"/><path class="cls-5" d="M17.22,35.08h1v-1h-1Z"/><polygon class="cls-8" points="15.99 21.5 16.23 21.08 16.21 21.07 15.99 21.5"/><path class="cls-8" d="M59.5,150.92c2.88-1.36,1.61-3.83,1.8-6.21q-2.09.21-4.21.27C58.3,146.81,59.62,148.59,59.5,150.92Z"/><path class="cls-8" d="M61.42,140.63c-1-.41-2.44-.24-2.54-1.5-.58-7.7-5.37-3.23-8.66-3.09l-.13.13c.55,1.59.73,3.34,3.31,1.82,2.33-1.4,1.54,1,1.84,2a8.54,8.54,0,0,0,1.85,5q2.12-.06,4.21-.27a4,4,0,0,1,.85-2.24,16.42,16.42,0,0,0-.06,2.16q2.54-.3,5-.82C66.44,141.15,63.37,141.42,61.42,140.63Z"/><path class="cls-11" d="M47.17,144.06a5.12,5.12,0,0,0-.65.2l1.13.18A2,2,0,0,0,47.17,144.06Z"/><path class="cls-2" d="M27,148.91a1.36,1.36,0,0,1-.55.66c-.53.22-.93-.19-.71-.71.14-.33.66-.52,1-.72S27.37,148,27,148.91Z"/><path class="cls-8" d="M40.53,144c0,.15.69-.15,1.18-.68l-1.57-.43A2.23,2.23,0,0,1,40.53,144Z"/><path class="cls-8" d="M42.08,137.19c-.52-4.33.37-5.78,4.65-7.33,1,1.86-2.64,3.31-.45,5.31l3.85,1.12.13-.13c1.31-8-5.41-12.63-7.94-19-2.12.56-4.58.48-5.76,2.68.63,2.06,4.36-.77,3.36,2.14-.92,2.69-3,4.89-3,8.09,0,1-1.89,1.3-2.35.47-1.26-2.25-3.9-4.58-2.61-7.25,1.39-2.88.47-4.92-.74-7.22l-4,3-1,2c3.26.84,1.87,2.86,1.19,4.84a20.13,20.13,0,0,0-1.67,10.23c2.18-1.27,1.9-4.84,5.3-4.27-.39,1.87-1.26,3.6-.18,6.24A15.88,15.88,0,0,1,33,135.18c1.27-1.11,2.66-.54,2,1-2.18,5,3.56,4.34,5.14,6.66l1.57.43a1.64,1.64,0,0,0,.5-1.08A37.13,37.13,0,0,0,42.08,137.19Z"/><path class="cls-5" d="M48.21,146c1.76.25,3.15,0,4-1.11-1.51-.09-3-.24-4.49-.45A2,2,0,0,1,48.21,146Z"/><path class="cls-5" d="M55.24,140c-.3-1,.49-3.37-1.84-2-2.58,1.52-2.76-.23-3.31-1.82l-3.85-1.12c.26,3-.72,6.11,1,8.92a2,2,0,0,1,.52.44c1.48.21,3,.36,4.49.45a4.36,4.36,0,0,0,.87-2.21C53.24,141.33,53.48,140,55.24,140Z"/><path class="cls-8" d="M23.23,126.08a4.43,4.43,0,0,0,0-1c-1.22-2.12-2.33-4.34-5-5C16.09,122,16,124.2,17,126.86c.94,2.47,2.1,5.3,4.83,4.83S22.77,128,23.23,126.08Z"/><path class="cls-6" d="M90.24,57c-1.57,4.47-3.29,1.83-5,.08-2.36-1.88-4.87-4.57-6,1-.18.86-.43,1.76-1.43,1.52a2.16,2.16,0,0,1-1.52-2.28c-.07-3.07-.07-6.14-.07-9.21l-2-3c-1.76-.93-4-3.65-4.13,1.2A4,4,0,0,1,71.18,50l.2.09c3.75,5.13.4,9.44-1.6,13.91,1.8,2,3.92,3.63,3,7.24-.44,1.67,1.56,4.25,4.56,3.89.5-1.35,2.19-2.07,2-3.79,0-1.78,0-3.58.15-5.34a2,2,0,0,1,2.1-1.89c1.68,0,1.62,1.24,1.68,2.39l3,.48c.13-1.31.66-2.31,2.06-1.31A5.62,5.62,0,0,0,92.24,67c2.48-2.37-.71-5.5,1-8C93.15,57,91.64,57,90.24,57Z"/><path class="cls-15" d="M85.64,30.36l-2.39-.47c-2.74,1.35-7.43.44-6.71,5.79.75,1,1.39,2.15,2.75,2.5L90.05,37C90.74,33.36,86.55,32.94,85.64,30.36Z"/><path class="cls-7" d="M76.53,35.68c-3.3,2.51-1.07,6.34-2.34,9.37l2,3c2.3-.27,1.86-2.09,2-3.6s-.51-3.21,1-4.43l.09-1.84C77.93,37.83,77.25,36.73,76.53,35.68Z"/><path class="cls-13" d="M53.13,65.06V65c.12-2.16,0-4.18-3-3.9-2.17,1.6-1.57,5.32-4.74,6.15-.44,1.67-.13,4-2.71,4.07h-.18a3.74,3.74,0,0,1-3.76-3.72c-.1-2.77-1.89-5-1.89-7.77,0-1.61-1-5.15-4.46-2.66C31.09,62.23,36.16,66,35.23,71c5.26-1,2.92,4.59,5.26,6.13,1.36-1,2.54-2.53,4.54-2,1.8-3.7,6.5-3.83,8.8-7h-.49C51.62,67.24,51.58,66.2,53.13,65.06Z"/><path class="cls-11" d="M32.39,57.16l-2.17,0v1c.71.31.67.65,0,1l-.07,1-.9.83-.06.22c-1.14,6,.8,11.87,0,17.87,2.7.3,1-2.58,2.59-3.7A7.3,7.3,0,0,0,35,80.14L35.26,71C36.16,66,31.09,62.23,32.39,57.16Z"/><path class="cls-7" d="M49.38,59.55l.64-.3c.33-1.86-1.36-2.67-2.06-4l-1-.09c-1.3,3.92-1.31,8-1.61,12.07,3.17-.82,2.58-4.55,4.74-6.15L49.94,60Z"/><path class="cls-1" d="M30.23,58.08v-2Q28.67,57.08,30.23,58.08Z"/><path class="cls-15" d="M63.57,50.5c-4.12,3-5.24.73-6.24-2.69L56,47.25c-2.93,2.41-6.17,4.46-7.93,8,.69,1.33,2.38,2.15,2.06,4a.61.61,0,0,1,0,.78,6.14,6.14,0,0,1,.1,1.1c3-.28,3.09,1.74,3,3.89,2.55.41,4.77,1,6.25-2.49,1.87-4,3.91,1,6,.45,2.12-4.29,6.11-7.69,5.93-13h-.17C68.4,46.21,65.57,49,63.57,50.5Z"/><path class="cls-7" d="M56,47.3l1.37.56c1.57.35,3.13.78,4.71,1A2.47,2.47,0,0,0,63.66,48a1.41,1.41,0,0,0-.25-1.2C60.9,46.24,58.26,44.42,56,47.3Z"/><path class="cls-5" d="M22.21,31.09c1.72.08,3.26-.2,4-2A3.57,3.57,0,0,0,22.21,31.09Z"/><path class="cls-11" d="M18.27,35.11a2.12,2.12,0,0,0,2-1h-2Z"/><path class="cls-7" d="M29.2,61.17l-2.67-.1c-1.75,1-.4,2.56-.11,3.37,1.78,4.92,1.08,9.66-.37,14.44l.38,1.37L29.2,79C30,73.08,28,67.17,29.2,61.17Z"/><path class="cls-1" d="M30.23,58v1C30.9,58.71,30.94,58.37,30.23,58Z"/><path class="cls-1" d="M30.16,60.11l-.9.83Z"/><path class="cls-1" d="M52.59,21.77c0,.13-.15.25-.13.38.12.38.34.4.53,0a.45.45,0,0,0-.08-.38Z"/><path class="cls-11" d="M82.24,155.08v-1l.69-.32C83.23,154.48,82.77,154.79,82.24,155.08Z"/><path class="cls-2" d="M74.18,141.86q-1.55.53-3.11,1A2.83,2.83,0,0,0,70.2,145c2,.3,1.77,2.09,2.52,3.36,2,3.41-1.71,7.95,2.46,10.64,2.7-1.27,1.83-3.71,1.92-5.88-1-.23-1.9-.56-1.7-1.86.16-1,1-1.12,1.8-1.25l2-5c.26-1.68-.66-3.59,1-5,0-.21,0-.42,0-.63q-2.67,1.25-5.41,2.24A3.68,3.68,0,0,1,74.18,141.86Z"/><path class="cls-2" d="M73.2,142H72.9a2.83,2.83,0,0,0-1.83.82q1.57-.45,3.11-1A5.78,5.78,0,0,1,73.2,142Z"/><path class="cls-2" d="M80.81,133.75c.71-1.62,1.27-3.37-.61-4.73l-2,3c.11,1.7-.14,3.24-2,4-.27,2,.78,4.61-1.39,5.61q2.75-1,5.41-2.24C80.26,137.51,80,135.61,80.81,133.75Z"/><path class="cls-11" d="M77.09,153.18c-1-.23-1.9-.57-1.7-1.86.16-1,1-1.12,1.8-1.25Z"/><path class="cls-11" d="M80.23,154l-.22.43.23-.42Z"/><path class="cls-5" d="M87.27,90c-2.82-1.19-2.86-2.53-.18-4a25.29,25.29,0,0,1,1.17-7.94c-1.9-2.42-3.73-2-4.73.58-.81,2.06-1.57,3.64-4.08,3.44l-.21,1.14c-.05,1,.21,2.2-1,2.82-1.33.43-1.07,1.55-1.12,2.55-.12,2.28,1.69,2.36,3.25,3s3.48.7,4.91,3.12c-4.24.31-8,.63-11.56,1.23-3.06.51-.7-3.29-1.53-4.94l-2.7,1.38L69.11,95V98c-1.06,3.76-.42,4.66,3.66,3.06,3.88-1.52,8-3.27,12.33-2.86,3.42.32,4.49-1.26,4.31-4.31C89.36,92.2,87.86,91.39,87.27,90Z"/><path class="cls-1" d="M91.28,43.15c-.12,1,.09,2.23-1,3,.61,3.63-2.58,7.23-.06,10.87,1.44,0,3,0,3,2h3l.83-1.1c-1.61-3-.2-5,2.13-6.77l-1-4C96.9,44,94.81,42.34,91.28,43.15Z"/><path class="cls-8" d="M104,46.39c-1.43,2-2.31,4.29-4.82,4.68-2.33,1.77-3.74,3.77-2.13,6.77,1.37.18,2.57.46,2.2,2.31,1,1.15,1.39.2,2.19-.42,2-1.57,2-4.78,4.76-5.66A11.9,11.9,0,0,0,104,46.39Z"/><path class="cls-9" d="M86.32,69.1c-2.23.75.11,4.73-3.3,4.64-1.37,2.7-3.35,5.15-3.53,8.36,2.51.2,3.27-1.38,4.08-3.44,1-2.58,2.83-3,4.73-.58,1.5-2.48,2.11-5.27,2.84-8A7.85,7.85,0,0,0,86.32,69.1Z"/><path class="cls-9" d="M93.22,59c-1.71,2.51,1.48,5.64-1,8l.06,2c2-1.22,3.35-3.16,2.56-5.22-.89-2.3,1-3.2,1.42-4.76Z"/><path class="cls-11" d="M88.26,65.71c-1.4-1-1.94,0-2.06,1.31l.12,2a7.86,7.86,0,0,1,4.83,1l1.09-1-.06-2A5.62,5.62,0,0,1,88.26,65.71Z"/><path class="cls-9" d="M87.26,90l-.18-4C84.4,87.46,84.44,88.8,87.26,90Z"/><path class="cls-8" d="M106.23,54.08c0,1.38-.14,2.94,1.92,2.94A2.79,2.79,0,0,0,106.23,54.08Z"/><polygon class="cls-4" points="121.8 53.64 122.19 54.1 122.25 54.04 121.8 53.64"/><path class="cls-4" d="M78.55,102.2a18.93,18.93,0,0,0-9.66,5.27c-1.55,1.5-3.74,3.37-1.88,5.37,1.71,1.78,3.46,4.33,7.37,2.78,5.37-2.13,4.61-7.26,6.71-10.32C81.35,102.73,80.4,101.83,78.55,102.2Z"/><path class="cls-14" d="M58.36,100.94c-1,3.42-3.58,2.33-5.7,1.82-1.22-.3-3.3-.94-1.3-3-1.22-1.14-2.74-.49-4.12-.68l.85,6,2,.18a23,23,0,0,1,4.72.87c5.35,2.23,5.58-1.09,5.58-4.89l-1.3-.22A3.67,3.67,0,0,0,58.36,100.94Z"/><path class="cls-13" d="M64.09,92l-.89.53v2.88c1,1.61-.07,2.16-1.27,2.79s-2.73,1-2.84,2.8l1.27.25.9-.17a2.6,2.6,0,0,1,3.1-1.87l1.89-1.13A2.82,2.82,0,0,1,69.09,95l.35-2.61L69.09,91A6.9,6.9,0,0,1,64.09,92Z"/><path class="cls-14" d="M66.26,98.12l2.83-.19V95h-.3A2.82,2.82,0,0,0,66.26,98.12Z"/><path class="cls-5" d="M81.24,113.93a1.09,1.09,0,0,0-.57.71,3.34,3.34,0,0,0,.58,1l.91-.86C82,114.17,82,113.56,81.24,113.93Z"/><path class="cls-14" d="M61.27,101.12c1.43,0,2.75-.1,3.1-1.87A2.6,2.6,0,0,0,61.27,101.12Z"/><path class="cls-1" d="M67.25,145h2.92a2.82,2.82,0,0,1,.85-2.17q-1.94.55-3.91,1A4.87,4.87,0,0,1,67.25,145Z"/><path class="cls-1" d="M73.17,142a11.82,11.82,0,0,1,3-6c.71-3.93-1.87-7.24-2-11-5.13-5-5.93,1.46-8.65,3.69-.45-1.64,0-3.61-2.17-3.54l-.62.34.34-.61c.13-1,.46-1.78,1.6-1.91l.43-1.31c-.28-1.51.87-5.07-2.66-2.07-1.26,1.06-2.26.31-2.26-.33-.11-3.21-3.72-3-4.4-4.15-2.53-4.33-4.49-2-7.08-.59A45.2,45.2,0,0,1,42.28,117c2.53,6.4,9.26,11,7.94,19,3.29-.14,8.08-4.61,8.66,3.09.09,1.26,1.54,1.1,2.54,1.5,1.95.79,5,.49,5.69,3.18q2-.41,3.91-1A2.83,2.83,0,0,1,73.17,142Z"/><path class="cls-2" d="M47,99.15,40.2,94.07c-1.33-1.75-2.55-3.55-2.07-5.94l-.11,0a.94.94,0,0,1-.59-1.19A12.84,12.84,0,0,1,35,80.1a7.3,7.3,0,0,1-3.2-4.78c-1.59,1.12.12,4-2.59,3.7l-2.74,1.22c-1,2.56-1.43,5.13-.35,7.78,2,2.12,3.91,6.85,4.66,6.87,4.89.31,6.19,4.24,8.24,7.13,2.47,3.46,5.22,4.61,9.14,3l-.85-6Z"/><path class="cls-9" d="M30.21,101A5.4,5.4,0,0,0,30.27,99c-1.85-3.24-5.18-5.75-5.18-10a16.23,16.23,0,0,0-5.67,2.89,3.64,3.64,0,0,0,1.23,4c2.4,1.82,2.84,4.31,2.63,7.07,1.11.17,2.51,0,3.25.59,1.42,1.18,2.66,1.88,4.25.6S29.67,102.22,30.21,101Z"/><path class="cls-8" d="M77.11,127.31c-.51-1.12-.12-3.89-2.9-2.29.11,3.78,2.69,7.09,2,11,1.88-.71,2.11-2.26,2-4.06C76.63,130.68,77.75,128.75,77.11,127.31Z"/><path class="cls-9" d="M64.7,123c1-.08,1.25-.48.44-1.27Z"/><polygon class="cls-9" points="101.78 94.65 102.17 95.12 102.26 95.03 101.78 94.65"/><path class="cls-2" d="M79.29,38.14,79.19,40c2.84,5.36,6.9,3.66,11.08,2.1a1.84,1.84,0,0,1,1.93-2q.07-1,.07-2L90.09,37Z"/><path class="cls-11" d="M95.24,34.09l-1,4c1.64-.41,4.23,2.9,4.88-1,.32-2,.91-4.23-.83-6C96.91,31.77,97.41,34.26,95.24,34.09Z"/><path class="cls-8" d="M92.09,40h-.22a1.84,1.84,0,0,0-1.67,2l1.06,1c3.53-.78,5.62.9,6.9,4,2-2.05.44-3.35-.91-4.85S93.43,41.67,92.09,40Z"/><path class="cls-11" d="M85.68,30.4c.92,2.62,5.11,3,4.41,6.62l2.13,1.06C92.17,30.26,91.92,30,85.68,30.4Z"/><path class="cls-13" d="M7,36.92a6.84,6.84,0,0,0,4-5.62C7.41,31.79,6.72,33.64,7,36.92Z"/><path class="cls-9" d="M53.08,142.7a4.36,4.36,0,0,1-.86,2.2c1.12.07,2.24.11,3.37.11l1.46,0A8.48,8.48,0,0,1,55.23,140C53.47,140.08,53.26,141.33,53.08,142.7Z"/><path class="cls-7" d="M62.18,142.53a4,4,0,0,0-.84,2.18l.78-.09A16.58,16.58,0,0,1,62.18,142.53Z"/><path class="cls-2" d="M67.25,145h2.94c-.11,1-.36,2-1.71,1.82C67.43,146.75,67.36,145.87,67.25,145Z"/><path class="cls-15" d="M81.45,70.21l-2.12,1.13c.19,1.71-1.5,2.44-2,3.79-2,3.62-4.79,3.89-8.11,1.89a2.5,2.5,0,0,1-2.9-1,11.59,11.59,0,0,1-5.19-5.11c-1.76-2.9-4-4.22-7.32-2.66-2.3,3.13-7,3.25-8.81,7l.1.15c1.26,0,1.78.72,1.78,1.93a41.31,41.31,0,0,0,11.31,2,19.18,19.18,0,0,0,3.44-.09,6.91,6.91,0,0,1,7.63,4.16c1.54,3.49-3.24,3.4-4,5.78l-1,1L64.09,92a6.91,6.91,0,0,0,5-1.07c.69-1.14,1.85-.93,2.93-1a1.94,1.94,0,0,1,2.14-.91c.39-1,.74-.72,1.07,0l1.88-.46c0-1-.22-2.12,1.12-2.55.14-1-.33-2.24,1-2.82l.21-1.13c.17-3.21,2.16-5.65,3.53-8.36C83,72.34,84,70.51,81.45,70.21Z"/><path class="cls-11" d="M79.18,40.06c-1.55,1.21-.92,2.89-1,4.43s.32,3.32-2,3.6c.07,3.07,0,6.14.07,9.21a2.16,2.16,0,0,0,1.52,2.28c1,.23,1.26-.66,1.43-1.52,1.13-5.6,3.63-2.91,6-1,1.24-2.4,2.48-4.29.82-7.54-2.46-4.84,2.21-3,4.28-3.41,1.11-.73.9-1.91,1-3L90.2,42C86.09,43.68,82,45.38,79.18,40.06Z"/><path class="cls-7" d="M72.75,71.21c.93-3.61-1.18-5.24-3-7.24a6.5,6.5,0,0,0-.91.18C68.41,65.22,66.77,65.51,67,67c2.1,3,.82,6.82,2.2,10,3.32,2,6.11,1.74,8.11-1.89C74.35,75.48,72.34,72.91,72.75,71.21Z"/><path class="cls-14" d="M65.42,63a4.27,4.27,0,0,0,3.42,1.18,6.58,6.58,0,0,1,.91-.18c2-4.5,5.34-8.81,1.6-14C71.53,55.36,67.53,58.76,65.42,63Z"/><path class="cls-8" d="M90.32,46.15c-2.07.41-6.74-1.43-4.28,3.41,1.66,3.26.42,5.15-.82,7.54,1.71,1.74,3.43,4.38,5-.08C87.74,53.38,90.92,49.78,90.32,46.15Z"/><path class="cls-11" d="M81.55,64.24A2,2,0,0,0,79.49,66c-.15,1.76-.15,3.56-.15,5.34l2.12-1.13,1.77-3.57C83.17,65.48,83.21,64.24,81.55,64.24Z"/><path class="cls-13" d="M83.23,66.63,81.46,70.2c2.5.3,1.57,2.13,1.59,3.55,3.41.1,1.08-3.89,3.3-4.64l-.12-2Z"/><path class="cls-5" d="M61.69,79.13a19.18,19.18,0,0,1-3.44.09,41.31,41.31,0,0,1-11.31-2,2.58,2.58,0,0,1-1.76-1.91l-.1-.15c-2-.52-3.18,1-4.54,2-.16,1.5.83.94,1.55.86l.43-.75.89.81C45.67,81.67,51.09,80,53.15,84l.15.1c3.63.58.94,4.41,3,5.79h2.87c3.15-4.72,4.15-4.84,6.15-.84.73-2.38,5.51-2.3,4-5.78A6.91,6.91,0,0,0,61.69,79.13Z"/><path class="cls-12" d="M65.42,63c-2.08.57-4.13-4.46-5.93-.42C58,66,55.74,65.43,53.18,65v.08l.2,3.1h.49c3.32-1.56,5.57-.25,7.32,2.66a11.59,11.59,0,0,0,5.19,5.11c-.3-1.55-.66-3-.89-4.67S64.38,67.65,67,67c-.25-1.5,1.39-1.79,1.82-2.86A4.27,4.27,0,0,1,65.42,63Z"/><path class="cls-15" d="M42.07,78c-.72.08-1.71.64-1.55-.87-2.34-1.54,0-7.11-5.26-6.11l-.33,9.12A12.84,12.84,0,0,0,37.39,87l.7,1.22c1.94,0,2.74-2.82,5-2l0-3.23C41.84,81.47,42.42,79.64,42.07,78Z"/><path class="cls-15" d="M53.38,68.12l-.2-3.1C51.63,66.2,51.67,67.23,53.38,68.12Z"/><path class="cls-13" d="M49.46,59.55,50,60a.61.61,0,0,0,.07-.73Z"/><path class="cls-8" d="M74.19,141.86a3.61,3.61,0,0,0,.61-.21Z"/><path class="cls-8" d="M76.17,136a11.82,11.82,0,0,0-3,6,5.69,5.69,0,0,0,1-.17l.61-.21C77,140.65,75.91,138,76.17,136Z"/><path class="cls-8" d="M80.37,91.56c-1.46-.58-3.37-.7-3.25-3L75.24,89l-1,0a1.77,1.77,0,0,1-2,2c.83,1.65-1.53,5.45,1.53,4.94,3.61-.6,7.32-.92,11.56-1.23C83.85,92.26,81.83,92.14,80.37,91.56Z"/><path class="cls-14" d="M69.14,91l.35,1.42L72.19,91,72.05,90C71,90,69.83,89.8,69.14,91Z"/><path class="cls-9" d="M78.24,86c1.21-.58.95-1.75,1-2.82C78,83.78,78.42,85,78.24,86Z"/><path class="cls-9" d="M59.15,96.1c-1.77,2.24-4.2,2.2-6.71,1.45-1.83,1.14-3.39-.42-5.09-.53L47,99.18l.28-.13c1.38.18,2.9-.47,4.12.68,2.28.67,4.91-.65,7,1.18a3.6,3.6,0,0,1,.67.13c.11-1.8,1.64-2.17,2.84-2.8s2.32-1.17,1.27-2.78C61.79,95.37,60.39,94.54,59.15,96.1Z"/><path class="cls-13" d="M51.4,99.74c-2,2,.08,2.7,1.3,3,2.12.5,4.7,1.59,5.7-1.82C56.31,99.09,53.69,100.41,51.4,99.74Z"/><path class="cls-1" d="M59.16,89.94H56.3c-2.77,2.37-3.35-2.35-6-1.21,1.25-1.79,3.32-2.38,2.87-4.58L53,84c-2.65,1.28-7.26-1.48-7.94,3.85l1,2.11c5.3,3.37,11.1,3.31,17,2.65l1-.57.21-1.88C62.6,89.72,60.78,92.34,59.16,89.94Z"/><path class="cls-15" d="M46.17,89.93c-2,2.38,0,3.39,1.62,4.41s3.76,1.22,4.67,3.22c2.51.75,4.94.79,6.71-1.45,1.21-1.57,2.61-.73,4-.65V92.58C57.24,93.23,51.44,93.3,46.17,89.93Z"/><polygon class="cls-11" points="62.75 125.58 63.38 125.24 63.09 124.97 62.75 125.58"/><path class="cls-13" d="M47.77,94.34c-1.68-1.07-3.6-2-1.6-4.41l-1-2.1c-1.08-.05-1.56-.89-2.08-1.66-2.25-.81-3.06,2-5,2-.48,2.38.74,4.18,2.07,5.94,3.46-1.67,5.54,0,7.14,2.92,1.7.1,3.26,1.67,5.09.53C51.53,95.55,49.45,95.41,47.77,94.34Z"/><path class="cls-5" d="M40.2,94.1,47,99.17q.18-1.07.35-2.15C45.74,94.1,43.66,92.43,40.2,94.1Z"/><path class="cls-13" d="M37.42,87a.94.94,0,0,0,.73,1.11l-.7-1.22Z"/><path class="cls-5" d="M61.22,155.08,60.47,154l.38-.25.38,1.3Z"/><path class="cls-14" d="M65.5,71.29c.22,1.57.59,3.11.89,4.67A2.5,2.5,0,0,0,69.22,77c-1.39-3.2-.1-7-2.2-10C64.38,67.68,65.28,69.72,65.5,71.29Z"/><path class="cls-2" d="M59.15,89.94c1.63,2.41,3.44-.22,5.14.2l1-1C63.27,85.09,62.27,85.22,59.15,89.94Z"/><path class="cls-5" d="M72.09,89.93l.1,1.09a1.77,1.77,0,0,0,2-2A1.94,1.94,0,0,0,72.09,89.93Z"/><path class="cls-13" d="M45.16,75.29a2.58,2.58,0,0,0,1.78,1.93A1.65,1.65,0,0,0,45.16,75.29Z"/><path class="cls-5" d="M74.17,89h1.07C74.91,88.35,74.56,88.08,74.17,89Z"/><path class="cls-2" d="M43.42,78.08l-.35,4.86q.07,1.62.07,3.23c.52.76,1,1.6,2.08,1.66.68-5.33,5.28-2.58,7.94-3.85C51.11,80.08,45.68,81.67,43.42,78.08Z"/><path class="cls-2" d="M53.33,84.14c.45,2.2-1.62,2.79-2.87,4.58,2.49-1.13,3.07,3.59,5.84,1.22C54.24,88.55,56.93,84.73,53.33,84.14Z"/><path class="cls-13" d="M42.09,78c.36,1.64-.22,3.47,1,4.94l.32-4.86-.87-.81Z"/></g></g></g></g></svg>