<svg xmlns="http://www.w3.org/2000/svg" viewBox="0 0 152.54 177.1"><defs><style>.cls-1{fill:#fdfdfd;}.cls-2{fill:#1a1a1a;}.cls-3{fill:#302f32;}.cls-4{fill:#565553;}.cls-5{fill:#272628;}.cls-6{fill:#3b3a3b;}.cls-7{fill:#444446;}.cls-8{fill:#6f6d6f;}.cls-9{fill:#453025;}.cls-10{fill:#964f26;}.cls-11{fill:#986039;}.cls-12{fill:#7e5d48;}.cls-13{fill:#633823;}.cls-14{fill:#b06c37;}.cls-15{fill:#b78d67;}</style></defs><title>rotweiler</title><g id="Layer_2" data-name="Layer 2"><g id="Layer_1-2" data-name="Layer 1"><path class="cls-1" d="M17.74,50.19h0v0Z"/><path class="cls-2" d="M13.69,123c.1-3-2.14-5.3-4.22-5.14a2.08,2.08,0,0,0-1.56.81q2.79,3.91,5.75,7.49C13.65,125.08,13.66,124,13.69,123Z"/><path class="cls-2" d="M57.32,148.54c-.5-1.47-.88-2.88-2.65-3.81-1.52-.79,0-1.37.89-1.61l.15-1.06a2.29,2.29,0,0,1-2-.95c-4.15-2-4.76-5.11-3-9l-.25-2L49.73,129l0-4.86c-1.31-3.13-.31-6.8-2.25-9.79-4.56-2.08-4.82-5.18-2.45-9.21,1.64-2.79,1.93-5.42-2.39-6l-1,.94c-.2.78.53,2.17-.79,2.19-1,0-1.23-1.23-1.23-2.21l-.1-2.51a3.75,3.75,0,0,0-.87-.43c-4.26-.73-6.58-3.94-9-7a2,2,0,0,1-2-.94h0c-2.21-2.29-4.91-4.47-2-8,2.3-2,2-9.9-.55-10.19A8.09,8.09,0,0,0,18,74c-.32,1.33-1.26,2.62-.3,4,.71.21.91.52.18,1-1.24,1.56,1.12,3.74.13,4.36-4.87,3.05-2.48,8.94-5.37,12.64,1.06.77.9,1.91.9,3,1.82,2.34,2.79,5,1.64,7.81-1.28,3.17,1.33,5.31,2.06,7.84,1.48,5.1,0,9.78-.51,14.62,0,.11,0,.22,0,.34,15,16.77,32.78,27.2,52,29l0-1.6C64,155.35,59.17,154,57.32,148.54ZM22.9,79.61c-.84.2-1.1-.5-1-1.14a1.21,1.21,0,0,1,.83-.84c.3,0,.62.5,1,.85C23.39,78.94,23.21,79.54,22.9,79.61Z"/><path class="cls-2" d="M25.67,19.11h0s0,0,0,0Z"/><path class="cls-2" d="M55.45,5c-4.06,1.49-7.38.11-11-1C40,3.16,37.12,6.48,33.67,8.34l-.93.76-.88.74c.69.35,2.47-.11,1.76,1.31s-2.42,1.16-3.82.52l-1.88.49.85.7.93,1.23c1.36,2.6-.87,1.73-1.92,2l-.11,2-.94,1h-1c.27,2.64-1.46,4.26-3,6-.75,4.39-3.51,8.33-3,13l-1.92,12.1c.92-.91,1.78-1.5,2.57.18A11.63,11.63,0,0,1,21,59c-.82,2.86-2.45,5.94-.39,9,1.9-.25,3-1.15,2.91-3.69-.11-4.6.83-9.06,1.14-13.6.09-1.28-.26-2.66,1-3.6,4.07-3.9,2.13-9.7,4.5-14.21C31.94,29.54,33,26,38.1,26.67c2,.27,3-2.31,4.6-3.4a12.64,12.64,0,0,1,7-2.18l3-1c1.68-.76.14-4.18,3.16-3.83l.84-.12C52.76,8.5,60.17,11.68,62.5,10L64,6.18C61.43,3.73,58,4,55.45,5Z"/><path class="cls-3" d="M5.64,110q-.9,1.3-1.82,2.58L5,114.35C5.32,112.94,5.9,111.54,5.64,110Z"/><path class="cls-2" d="M137.72,50.1l-.06-4c-1.72-2.4-2.17-5.28-3-8,0-5.76-5.33-9.33-6.05-14.8l-2.19-4.1c-4.51-.56-4.16,1.84-2.9,4.78l-.84,2.12c1.16,2.26,3.08,4.2,3,7v2c-.52,1.29,2.54,3.46-1,4a2.34,2.34,0,0,0-1.77,3.76c3.6,5.54,2.37,11.41,1.74,17.28-.32,4.2-.7,8.39-.95,12.59-.09,1.58-.47,3.3.9,4.63L126.9,77c-.06-2.61-.28-5.23-.13-7.82.24-4,1.59-7.88,5.83-8.76,2.74-.57,1.39,3.44,3,4.69l1.09-1.07C136.94,59.4,135.69,54.63,137.72,50.1Zm-8.38-1.46c-1.91-2.56-3.19-4.8-2.13-9.09C128.94,43.14,130.12,45.39,129.35,48.64Z"/><path class="cls-2" d="M25.68,19.09h0Z"/><path class="cls-2" d="M19.65,16.09l-4.9,2.38c.63,3.82-3.24,5.47-4.13,8.55,0,.49,0,1,0,1.46.08,2-.74,3.92-2.64,4.09S6,30.52,5.64,29C3,29.86,3.79,34.51,0,34.17l.09,2.92c1,.82.86,1.88.61,3C1.63,45,4.92,48.71,7.06,53a1.16,1.16,0,0,1,.84,0c2.43-.48,2-2.78,2.64-4.34.42-1,.32-3,1.36-3,5.65.27,4.55-5.1,6.74-7.66-.19-4.62.1-9.14,3.11-13a9.82,9.82,0,0,1,3.93-6l0-2C23.57,17.43,21.66,16.48,19.65,16.09Z"/><path class="cls-3" d="M32.56,73.94A15.78,15.78,0,0,0,30.8,71c-.28.15-.7.5-.81.41-3.23-2.28-3.41-11.39-.31-14.31v-5c-5.88,2-3.5-2.66-4-5-1.26.95-.91,2.33-1,3.6-.31,4.54-1.25,9-1.14,13.6.06,2.55-1,3.44-2.91,3.69-.66,2.1-4.18,3-2.6,6a8.09,8.09,0,0,1,7.1-3.14c2.57.29,2.84,8.17.55,10.19,1.07,2.57,2.26,5.12,2,8h0a2.06,2.06,0,0,1,2,.94c2.4,3.1,4.72,6.3,9,7a6.35,6.35,0,0,1,.25-1l-1-5c-.31-4.92,2.07-9.34,2.64-14.1C36.24,80.28,34,78.22,32.56,73.94Z"/><path class="cls-3" d="M101.66,151.08l0-3a2,2,0,0,1-2-1l-5,0-1,1,2.06,3c1.07.11,3.22.34,2.61,1.19a2.21,2.21,0,0,0-.28,2.16q2.12-.82,4.2-1.78A2,2,0,0,1,101.66,151.08Z"/><path class="cls-4" d="M117.67,13c-.14,1.36-.88,3.43-2,2.51-2.72-2.16-7.68,1.54-8.93-3.65-.31-1.27-.66-2.54-1-3.81-4-1.86-7.91-4.22-12.13-5.43-3.41-1-7.19-2.25-10.86-.35.2,2.29,2,1.8,3.32,1.76a12.33,12.33,0,0,1,7,1.56c-1.47,4.58-6.81-.24-8.48,3.6.87,1,2,.8,3.17.8,3.48-.86,5.09.58,5,4.09l-.09,3c2.35.21,3.23-.92,3.1-3.19-.11-2,.38-3.62,2.81-3.74,0-.9-1.22-1.9-.05-2.67s1.73.12,2.37,1c2.79,3.81,4.15,8.26,5.69,12.62,2,2.94,6.27-.32,8.15,3,.76-1.65,1.82-2,3.61-1.33s3.33,1.59,5.25,1.21c-1.26-2.95-1.61-5.34,2.9-4.78A14.17,14.17,0,0,0,117.67,13Z"/><path class="cls-5" d="M152.24,47.07c-1.14-1.14-.74-2.52-.62-3.85-.46-3.4-2.68-5.64-5.25-7.49-5.87-4.22-11.83-8.3-17.76-12.44.72,5.46,6.06,9,6.05,14.8,3.83,1.51,3.45,5,3.9,8.17-.51,2.17,1.89,3,2.2,4.8,4.65,2.59,5.63,2,7-4.63,1.7,1.17-.46,7.61,4.76,3.65Z"/><path class="cls-5" d="M13.78,129.44a1.85,1.85,0,0,0,2,1.84c1,0,1-.88,1-1.58-1-1.16-2.05-2.35-3.06-3.57C13.69,127.24,13.73,128.34,13.78,129.44Z"/><path class="cls-5" d="M17.26,114.74c-.73-2.53-3.34-4.67-2.06-7.84,1.15-2.86.19-5.47-1.64-7.81-1.94,3.45-.12,7.54-1.88,11,0,1.36.1,2.59,1.76,3.11a1.29,1.29,0,0,1,.64,2.28c-1.1,1.11-2.2.4-2.85-.64-.92-1.48-.49-3.19-.44-4.82-1.14-3,1.81-6.05-.22-9a29.39,29.39,0,0,0-4.93,9c.25,1.52-.33,2.92-.69,4.32q1.45,2.2,3,4.3a2.08,2.08,0,0,1,1.56-.81c2.07-.16,4.32,2.1,4.22,5.14,0,1.05,0,2.11,0,3.16,1,1.22,2,2.41,3.06,3.57,0-.12,0-.23,0-.34C17.25,124.52,18.74,119.84,17.26,114.74Z"/><path class="cls-6" d="M126.9,77l-2.29.33.05.47a16.89,16.89,0,0,1-.75,6.19c-1.11,3.37-2.09.91-3.16.09h-2.14c-3,3.82-5.12,7.95-5,13l3,1h2.95l1.09,0c.8-1.35,2.59-3.17,2.22-4-1.92-4.15,0-6.5,3.23-8.4,1-.61.8-.94.38-1.82-1-2.05-.32-3.54,1.52-5C130.86,76.6,127.64,77.45,126.9,77Z"/><path class="cls-7" d="M147.78,46.42c-1.37,6.6-2.36,7.22-7,4.63-.25,1.07.09,2.35-1.14,3.05a1.88,1.88,0,0,0-.79,2.22c2.7-.66,3.83.27,3.88,3.16,0,2.26-1.2,4.88,1.18,6.77,4.32-4.63,8.48-9.34,8.65-16.19C147.32,54,149.48,47.59,147.78,46.42Z"/><path class="cls-4" d="M110.9,121.34c-.81,7.28-3.82,13.63-7.35,19.84,2.28.74,2.5-3.27,4.94-2.13,4.81-7.64,6.3-16.33,7.94-25h-2.8A14.67,14.67,0,0,0,110.9,121.34Z"/><path class="cls-7" d="M119.63,98.1l-3.4,6.43c-1.3-2.51.3-4.4.45-6.43l-3-1-2,.06c-.72,1.84-3.11,2.67-3,5h3l.23-.42-.23.42c1.73,3.27-2,6-1,9.16,1.61-.12,2.57-1.25,3.39-2.66,1.33,2.23-.49,3.73-.48,5.46h2.8a.56.56,0,0,0,.37-.71c-.1-1.37-.51-2.87,1.48-3.3l.71-1.3c-.33-1.26-.7-2.53.43-3.61a7.7,7.7,0,0,0,1.29-7Z"/><path class="cls-3" d="M76,.46A10.57,10.57,0,0,0,70.7.26C69.4,2.88,68,2.89,66.65.33a6.31,6.31,0,0,0-5.11.53l-1,.17c-5.49.17-10.64,2.17-16,3,3.57,1.07,6.9,2.45,11,1C58,4,61.43,3.73,64,6.18l5.7-1.07C71.75,3.74,74.14,3.38,76.52,3a2.94,2.94,0,0,0,0-.87Z"/><path class="cls-5" d="M17.76,50.14h0v0Z"/><path class="cls-5" d="M18.63,38.09c-2.19,2.56-1.09,7.93-6.74,7.66-1,0-.94,1.92-1.36,3-.63,1.56-.2,3.86-2.64,4.34l-.78,2-.46,3c3.34.32,6.26,0,7.3-4,.28-1.08,1.58-1,2.56-1l1-2a3.69,3.69,0,0,1-.13-.74c0-.06.25-.12.4-.18l1.92-12.06Z"/><path class="cls-6" d="M86,4.05c-1.37,0-3.12.52-3.32-1.76l-2.59-.12a.58.58,0,0,1-.46-.65A1.67,1.67,0,0,0,77.56.59L77.7,2c-.57,3,2.19,4.64,3,7.09l3.82.09c1.67-3.84,7,1,8.48-3.6A12.33,12.33,0,0,0,86,4.05Z"/><path class="cls-7" d="M103.71,153.13c1.46-.84,3.27-1.26,3.95-3.1l-.06-.06c-1.36.76-2.74,1.47-4.12,2.14A2.7,2.7,0,0,1,103.71,153.13Z"/><path class="cls-7" d="M108.45,143.08l0-4c-2.44-1.13-2.66,2.88-4.94,2.13-1.07,2.18-2.2,4.34-1.92,6.9q0,1.5,0,3a1.86,1.86,0,0,1,1.82,1c1.39-.67,2.76-1.38,4.12-2.14C104.62,147.3,105.53,145.08,108.45,143.08Z"/><path class="cls-8" d="M142.72,59.49c0-2.89-1.18-3.83-3.88-3.16q0,3.32,0,6.65L141,70l1.46,3.11c0-2.39,0-4.79,1.45-6.88C141.52,64.36,142.75,61.75,142.72,59.49Z"/><path class="cls-7" d="M14,54.07c-1,4-4,4.33-7.3,4C5.5,60,4.51,62.75,6.13,63.86c1.82,1.26,3.77-1.13,5.3-2.56a20.49,20.49,0,0,0,5.09-8.24C15.53,53.12,14.23,53,14,54.07Z"/><path class="cls-7" d="M6.65,23c.42,2.23,1,4.34,4,4,.89-3.09,4.75-4.74,4.13-8.55C11.55,19.1,8.51,20,6.65,23Z"/><path class="cls-8" d="M116.25,13c-1.39,0-2.91.34-3.52-1.49-2.06-1.74-4.59-2.53-7-3.48.33,1.27.69,2.53,1,3.81,1.25,5.19,6.21,1.49,8.93,3.65,1.16.92,1.91-1.15,2-2.51C117.19,12.7,116.71,12.31,116.25,13Z"/><path class="cls-5" d="M6.65,23,4.73,24.38,5.64,29C6,30.52,6,32.75,8,32.57s2.71-2.09,2.64-4.09c0-.49,0-1,0-1.46C7.61,27.38,7.07,25.27,6.65,23Z"/><path class="cls-7" d="M0,34.17c3.79.34,3-4.31,5.64-5.19l-.91-4.6C1,26.61.82,30.54,0,34.17Z"/><path class="cls-6" d="M142.44,73.14,141,70c-1.39.62-2.8-2.47-4.17,0,1.1,2.94,2,6,5.63,7.55C142.44,75.9,142.44,74.52,142.44,73.14Z"/><path class="cls-3" d="M28.11,14.27c-.46-.61.21-1,.65-1.4l-.85-.7c-3.15.48-5.75,2.11-8.27,3.92,2,.39,3.92,1.34,6,1l2.07-1c1.06-.27,3.29.6,1.93-2C29.15,14.17,28.28,14.49,28.11,14.27Z"/><path class="cls-4" d="M12.66,96.09,10.57,101c2,3-.92,6,.22,9l.89.07c1.76-3.48-.07-7.57,1.88-11C13.57,98,13.72,96.86,12.66,96.09Z"/><path class="cls-5" d="M138.83,63l-2.13,1.09-1.09,1.07c0,1.75-.27,3.55,1.2,4.94,1.38-2.5,2.78.59,4.17,0Z"/><path class="cls-3" d="M31.87,9.84,29.8,11.68c1.4.63,3.09.93,3.82-.52S32.56,10.2,31.87,9.84Z"/><path class="cls-7" d="M70.7.26,66.65.33C68,2.89,69.4,2.88,70.7.26Z"/><path class="cls-4" d="M116.8,113.36c1.74-.54,1.24-2.09,1.48-3.3C116.29,110.49,116.7,112,116.8,113.36Z"/><path class="cls-7" d="M151.62,43.22c-.13,1.34-.52,2.72.62,3.85Z"/><path class="cls-4" d="M112.72,11.55c.61,1.83,2.14,1.5,3.52,1.49C115.48,11.57,113.93,12,112.72,11.55Z"/><path class="cls-4" d="M119,108.76c.84-1.12.56-2.38.43-3.61C118.3,106.23,118.67,107.5,119,108.76Z"/><path class="cls-7" d="M.09,37.09l.61,3C.95,39,1.08,37.92.09,37.09Z"/><path class="cls-7" d="M76,.46l.56,1.66L77.7,2,77.56.59Z"/><path class="cls-7" d="M7.06,53l.05,2,.78-2A1.15,1.15,0,0,0,7.06,53Z"/><path class="cls-7" d="M111.6,156.12l-.87-1.15Z"/><path class="cls-3" d="M33.67,8.34l-.93.76Z"/><path class="cls-4" d="M80.11,2.17l-.46-.65A.58.58,0,0,0,80.11,2.17Z"/><path class="cls-7" d="M61.53.86l-1,.17Z"/><path class="cls-3" d="M17.73,78.09l.18,1C18.64,78.61,18.44,78.31,17.73,78.09Z"/><path class="cls-2" d="M17.35,50.33a3.69,3.69,0,0,0,.13.74l.28-.93C17.62,50.2,17.35,50.26,17.35,50.33Z"/><path class="cls-5" d="M92.81,163.53c.79,1,.84,2.18-.89,2.54a3,3,0,0,0-1.39.43c-5.3,4.85-5.29,4.86-11.95.56l-1.94,2.18c-.1,3.05,2.78,5,3,7.87,1.75-.67.34-4.65,2.91-3.65,3.93,1.54,6.18-1,9-2.42,3.93-1.37,6.29-4.33,8-7.93-3.09-1.07-3.34-1.41-1.24-3,2.64-2,.35-3.75-.29-5.65q-3.14,1.21-6.35,2.09A7.11,7.11,0,0,0,92.81,163.53Z"/><path class="cls-5" d="M98.34,152.31c.61-.85-1.54-1.08-2.61-1.19l-2-.05c-2.48.33,2,3-1,3.13a19.29,19.29,0,0,0-.93,2.37q3.21-.89,6.35-2.09A2.21,2.21,0,0,1,98.34,152.31Z"/><path class="cls-9" d="M68.76,161.12l2.92,0a7.58,7.58,0,0,1-.49-2.26q-1.25-.06-2.49-.18Z"/><path class="cls-9" d="M75.1,150.81l1.55,2.32c2-2.83.72-6,1-9a44.77,44.77,0,0,0,0-6.89c-.09-1.3,1.81-3-.32-3.84-1.87-.78-3.06.52-3.87,2.11-1.28,2.5-3.14.61-4.74.61.32,5.66,2.81,11.2.94,17a6.57,6.57,0,0,1-1,4l0,1.6q1.24.11,2.49.18C71,155.68,73.14,153.28,75.1,150.81Z"/><path class="cls-6" d="M61.3,143.14c-.42-1.12-1.69-.73-2.58-1h0c-.67,1.49-2,.92-3.12,1-.93.24-2.41.82-.89,1.61,1.77.92,2.15,2.34,2.65,3.81,1.85,5.46,6.72,6.81,11.36,8.52a6.57,6.57,0,0,0,1-4C66.76,149.85,62.92,147.45,61.3,143.14Z"/><path class="cls-10" d="M61.73,133.05c-.31-1.81-1.81-3.46-3.06-3.54-4.33-.28-5-3.52-6.1-6.49l-2.82,1.11q0,2.43,0,4.86l.73,1.14.25,2c3.18,2.29,3.51,5.52,3,9a2.29,2.29,0,0,0,2,.95l3,.08h0c-.29-1.5,1.73-3.1-.25-4.55-1.21-.88-3.4-1.26-2-3.65S59.91,133,61.73,133.05Z"/><path class="cls-4" d="M71.2,158.84a7.58,7.58,0,0,0,.49,2.26q0,3,0,6a9.43,9.43,0,0,1,5,2.11l1.94-2.18c.61-2.87-.5-5.51-1.33-8.19q-1.38.06-2.76.06C73.4,158.94,72.29,158.9,71.2,158.84Z"/><path class="cls-4" d="M76.65,153.13l-1.55-2.32c-2,2.47-4.08,4.87-3.91,8,1.1.06,2.2.1,3.31.1q1.38,0,2.76-.06A11.57,11.57,0,0,1,76.65,153.13Z"/><path class="cls-11" d="M42.72,91.07c-.29-2.4-.1-4.84-1.41-7-2.56,1.71-.1,5.71-3.37,7.06l1,5,.62,1.38.11,2.51,2,0,1-.94,0-1C41.29,95.77,43,93.45,42.72,91.07Z"/><path class="cls-4" d="M42.65,98.11l0,1c4.32.61,4,3.24,2.39,6-2.37,4-2.11,7.13,2.45,9.21l.33-1.86c-2.06-7.05-1.44-9.7,2.89-12.36l-1-1C47.07,100.73,45.27,96.57,42.65,98.11Z"/><path class="cls-12" d="M51.72,115l-3.87-2.5-.33,1.86c1.93,3,.94,6.65,2.24,9.79L52.58,123l0-1.93q0-.47,0-.95C50.12,118.82,51.51,116.8,51.72,115Z"/><path class="cls-9" d="M50.72,132.08c-1.8,3.92-1.2,7.06,3,9C54.23,137.6,53.89,134.38,50.72,132.08Z"/><path class="cls-6" d="M27.65,89.12c.29-2.91-.9-5.45-2-8C22.75,84.65,25.44,86.83,27.65,89.12Z"/><path class="cls-6" d="M71.68,161.1q0,3,0,6c-3.14-1-3-3.46-2.88-6Z"/><path class="cls-6" d="M22.7,77.62a1.21,1.21,0,0,0-.83.84c-.08.64.18,1.34,1,1.14.31-.07.49-.67.81-1.14C23.32,78.12,23,77.61,22.7,77.62Z"/><path class="cls-12" d="M41.65,100l-2,0c0,1,.22,2.23,1.23,2.21C42.18,102.22,41.45,100.83,41.65,100Z"/><path class="cls-11" d="M55.56,143.13c1.12-.07,2.45.51,3.12-1l-3-.08Z"/><path class="cls-6" d="M27.65,89.12a2,2,0,0,0,2,.94A2.06,2.06,0,0,0,27.65,89.12Z"/><path class="cls-9" d="M49.73,129l.73,1.14Z"/><path class="cls-12" d="M38.65,97.09a3.86,3.86,0,0,1,.87.42l-.62-1.38A6.32,6.32,0,0,0,38.65,97.09Z"/><path class="cls-5" d="M42.7,23.27c-1.58,1.09-2.62,3.67-4.6,3.4C33,26,31.94,29.54,30.17,32.9c-2.37,4.5-.43,10.3-4.5,14.21.5,2.33-1.87,7,4,5A81,81,0,0,1,31,43.85c.75-2.9,2.14-5,4.74-1.18,2.1-1.43-.6-5.16,3-5.58,0-6.27,2.62-.53,3.91-.86l1-2.13h0c-1.45-.14-2-.7-1.38-2.25s2.41-2.72,2.39-4.69c2-1.73,6.09-1.76,5-6.06A12.64,12.64,0,0,0,42.7,23.27Z"/><path class="cls-4" d="M69.67,5.11,64,6.18,62.5,10c2,4.12-2.82,4.59-3.84,7.09,1.34,0,1.93.74,2,2l1,.39c3.59-.52,5,1.18,4.79,4.63l.11,1,4.1-1.06c-.68-2.58-2.74-4.76-2.19-7.68-1-.33-2.54,0-2.4-1.63.11-1.25,1.36-1.61,2.48-1.85a4.15,4.15,0,0,1,.05-.9l.06-1.91c-.81-.12-1.68-.22-1.8-1.27a1.37,1.37,0,0,1,1.38-1.65c1.14-.1,2.29-.07,3.44-.1C72.08,5.33,69.74,6.39,69.67,5.11Z"/><path class="cls-4" d="M68.67,10.09h0Z"/><path class="cls-6" d="M52.69,20.07l-3,1c1.1,4.3-3,4.33-5,6.06h3c2.09,0,2,1.52,2.07,2.92,2.17-1,3.51-3.36,6-3.93q0-1.49,0-3l-3.6,1.51Z"/><path class="cls-3" d="M58.66,17.11h0l0,0Z"/><polygon class="cls-3" points="58.68 21.1 58.68 21.1 58.68 21.1 58.68 21.1"/><path class="cls-3" d="M58.67,17.12c-1.4,1.26-2.51,1.54-2.82-.88-3-.35-1.48,3.07-3.16,3.83l-.56,4.59,3.6-1.51,3-2.05c0-1.28.61-2,2-1.9v-.08C60.59,17.86,60,17.12,58.67,17.12Z"/><path class="cls-3" d="M56.68,16.12l2,1c1.06-2.47,5.78-3,3.82-7.06C60.17,11.68,52.76,8.5,56.68,16.12Z"/><path class="cls-3" d="M58.7,17.09h0l0,0Z"/><path class="cls-3" d="M18.63,38.09h1c-.51-4.68,2.25-8.61,3-13h-.92C18.73,29,18.44,33.46,18.63,38.09Z"/><path class="cls-7" d="M21.74,25.09h.92c1.57-1.72,3.31-3.35,3-6A9.83,9.83,0,0,0,21.74,25.09Z"/><path class="cls-4" d="M55.85,16.24c.31,2.43,1.43,2.14,2.85.85l-2-1Z"/><path class="cls-7" d="M25.67,19.11h1.05l.94-1q.06-1,.11-2l-2.07,1Z"/><path class="cls-7" d="M28.11,14.27c.17.22,1-.1,1.58-.18l-.93-1.23C28.32,13.26,27.65,13.67,28.11,14.27Z"/><path class="cls-3" d="M26.72,19.12l.94-1Z"/><path class="cls-6" d="M118.28,22.76c-1.79-.69-2.85-.32-3.61,1.33.21,2.36,3.88,4.73,0,7.06l.11,2.94c2.88,1.08,2.46,4.09,3.26,6.22.34.91-2.11.57-3.29.8-1.35,2.54-1.68,5,.65,7.19,2.62,2.47,3.12,5.43,2.53,8.92-.34,2-1.22,5,2.7,4.89,2.23-2.11,1-4.57,0-6.42-2.69-5-.5-10.1,0-14.84.3-3,.25-5.28-1.22-7.55-2.74-4.23-.51-5.58,3.29-6.21l0-1,.84-2.12C121.6,24.35,119.93,23.39,118.28,22.76Z"/><path class="cls-5" d="M125.68,35.09v-2c-4-.49-2.73-3.63-3-6-3.81.63-6,2-3.29,6.21,1.47,2.27,1.52,4.52,1.22,7.55-.46,4.74-2.66,9.85,0,14.84,1,1.85,2.19,4.31,0,6.42l-.21,3,.34,2,1-.05a2.12,2.12,0,0,1,1-2c0-1.9-.36-4,2-4.95.63-5.87,1.86-11.74-1.74-17.28a2.34,2.34,0,0,1,1.77-3.76C124.82,37.71,124.2,36.14,125.68,35.09Z"/><path class="cls-7" d="M123.71,72.72c.25-4.2.62-8.39.95-12.59-2.36,1-2,3-2,4.95a2,2,0,0,1-1,2l-1,.05c.64,3.42-1.25,6.59-1,10q2.24,2.46-1,3h0q0,1,0,2t0,2h2.14a9,9,0,0,1,3.91-6.27l-.05-.47C123.24,76,123.62,74.3,123.71,72.72Z"/><path class="cls-6" d="M137.72,50.1c-2,4.53-.78,9.3-1,14L138.83,63q0-3.32,0-6.65a1.88,1.88,0,0,1,.79-2.22C139.8,52.38,139.6,50.84,137.72,50.1Z"/><path class="cls-6" d="M134.67,38.08c.83,2.73,1.27,5.61,3,8l.91.15C138.12,43.12,138.5,39.6,134.67,38.08Z"/><path class="cls-3" d="M127.22,39.55c-1.06,4.29.22,6.53,2.13,9.09C130.12,45.39,128.94,43.14,127.22,39.55Z"/><path class="cls-3" d="M122.67,27.09c.26,2.37-1,5.51,3,6,.11-2.8-1.81-4.74-3-7Z"/><path class="cls-8" d="M138.57,46.25l-.91-.15q0,2,.06,4c1.88.74,2.08,2.28,1.91,4,1.23-.7.89-2,1.14-3.05C140.46,49.25,138.06,48.42,138.57,46.25Z"/><path class="cls-3" d="M125.68,35.09c-1.48,1-.86,2.61-1,4C128.22,38.55,125.16,36.38,125.68,35.09Z"/><path class="cls-2" d="M39.51,40.71c-1.39-.55-.61-2.37-.79-3.62-3.6.42-.9,4.14-3,5.58-2.6-3.85-4-1.72-4.74,1.18a81,81,0,0,0-1.3,8.25v5c.34,4.64-.79,9.39,1.12,13.9a15.68,15.68,0,0,1,1.76,2.92c1.46,4.28,3.68,6.35,8,3.14l.2-1.92a2.88,2.88,0,0,1-.79-4c1.11-1.8,2.61.31,4,.17,2.26-3.19.83-8,4.52-10.55a1.55,1.55,0,0,1,.16-.66l1-3c.15-2.34-1.88-5,.89-7l.09-1C46,47.57,44,42.5,39.51,40.71Zm2.78,25.67c-.12,0-.34-.08-.35-.13a1.29,1.29,0,0,1,.13-.42c.12,0,.34.08.35.13A1.29,1.29,0,0,1,42.29,66.38Z"/><path class="cls-12" d="M49.66,94l-2,0c-2.05.33-3.54-.59-3-2.6a28.85,28.85,0,0,0,1-8.43c1.4-2.26-3.91-3.49-.92-6-.4-2.9,2.79-4.89,2-7.88-.51-3,3.06-5.18,1.78-8.37C44.8,63.37,46.23,68.14,44,71.34c-.37,1.85-.66,3.76-3.18,3.81l-.2,1.92c-.57,4.76-3,9.17-2.64,14.1,3.27-1.36.81-5.36,3.37-7.06,1.31,2.12,1.12,4.56,1.41,7s-1.43,4.7-.07,7c2.63-1.54,4.43,2.62,7.06,1A5.73,5.73,0,0,1,49.66,94Z"/><path class="cls-13" d="M29.67,57.11c-3.09,2.92-2.91,12,.31,14.31.12.08.53-.27.81-.41C28.88,66.5,30,61.75,29.67,57.11Z"/><path class="cls-5" d="M110.72,111.26c.79,5.08-2.31,9-4,13.4-.77,2-2.88,2.47-5,2.47-4.23,2.56-1.39,6.67-2.19,10,1.53,3.31-.08,6.64,0,10a2,2,0,0,0,2,1c-.28-2.56.85-4.72,1.92-6.9,3.53-6.21,6.54-12.55,7.35-19.84a14.67,14.67,0,0,1,2.73-7.27c0-1.74,1.81-3.24.48-5.46C113.29,110,112.33,111.14,110.72,111.26Z"/><path class="cls-7" d="M99.62,137.11c-2.26.57-.92,5.56-4.91,4,.79,1.71-1.1,2.71-1.11,4.22a2,2,0,0,0,1.06,1.8l5,0C99.53,143.76,101.14,140.43,99.62,137.11Z"/><path class="cls-5" d="M93.59,145.33l-2.9-.3q0,1.51,0,3l2.95,0,1-1A2,2,0,0,1,93.59,145.33Z"/><path class="cls-7" d="M90.72,148.05l0,0q0,1,0,2h0c1.1,0,2.26-.17,3,1l2,.05-2.06-3Z"/><path class="cls-4" d="M103.71,153.13a2.7,2.7,0,0,0-.24-1l-1.22.58A2.2,2.2,0,0,0,103.71,153.13Z"/><path class="cls-4" d="M101.66,151.08a2,2,0,0,0,.6,1.61l1.22-.58A1.86,1.86,0,0,0,101.66,151.08Z"/><path class="cls-2" d="M87.69,10c-1.12,0-2.3.2-3.16-.8L80.7,9.12a6.82,6.82,0,0,0-1,3.92v0c1.53.74.94,1.48,0,2.22-.66,1.93-.75,4.7-4,2.75-.67,1.27-3.38,2-1,4.06.7.37,1.77.57,2.05,1.14,1.93,3.88,4.71,3.49,7.84,1.78-.41-3.19,2.41-4.2,4.06-6,.32-2-.66-4.17.89-6C89.87,11.47,88.12,11.15,87.69,10Z"/><path class="cls-8" d="M106.52,21.12c-1.54-4.37-2.91-8.81-5.69-12.62-.64-.87-1.31-1.69-2.37-1s0,1.77.05,2.67c1.9,2.44,4.78,5.8,3.2,8.06-2.12,3-6.51,1.55-10,.88l0,0c-1,1.63-1.26,3.27,0,4.91a1.88,1.88,0,0,0,.85-.07c4.89-3.63,8.14-2.32,12.32,5a6,6,0,0,1,3.88,4.18,3.07,3.07,0,0,0,3-2C108.42,28.58,106.18,25.52,106.52,21.12Z"/><path class="cls-7" d="M106.52,21.12c-.34,4.4,1.9,7.46,5.16,10l2.94,0c3.93-2.33.26-4.71,0-7.06C112.79,20.8,108.53,24.06,106.52,21.12Z"/><path class="cls-7" d="M95.7,13.91c.13,2.27-.76,3.4-3.1,3.19a1.93,1.93,0,0,0-.88,2c3.49.68,7.87,2.15,10-.88,1.59-2.26-1.3-5.62-3.2-8.06C96.08,10.3,95.59,11.94,95.7,13.91Z"/><path class="cls-3" d="M88.63,19l3,.1,0,0a1.93,1.93,0,0,1,.88-2l.09-3-3.16-1C88,14.87,89,17.05,88.63,19Z"/><path class="cls-7" d="M87.69,10c.43,1.13,2.18,1.45,1.84,3.05l3.16,1C92.77,10.6,91.17,9.16,87.69,10Z"/><path class="cls-7" d="M13.44,113.22c-1.65-.52-1.76-1.74-1.76-3.11l-.89-.07c0,1.63-.48,3.34.44,4.82.65,1,1.75,1.75,2.85.64A1.29,1.29,0,0,0,13.44,113.22Z"/><path class="cls-3" d="M114.66,84.23c0,1.7-1.27,2.61-2.23,3.69-2.56,2.89-3.38,5.89-.75,9.19l2-.06c-.15-5,2-9.14,5-13q0-1,0-2l-2-.09Z"/><path class="cls-2" d="M120.75,84.1c1.06.82,2.05,3.29,3.16-.09a16.89,16.89,0,0,0,.75-6.18A9,9,0,0,0,120.75,84.1Z"/><path class="cls-3" d="M116.23,104.53l3.4-6.43h-2.95C116.53,100.13,114.93,102,116.23,104.53Z"/><path class="cls-3" d="M111.68,102.1h-3l-.94.8c-.05,6.28-4.76,10.29-7.47,15.27-1.89,3.46-3.09,6.68,1.55,8.95,2.07,0,4.19-.43,5-2.47,1.64-4.36,4.74-8.32,4-13.4C109.69,108.06,113.41,105.37,111.68,102.1Z"/><path class="cls-6" d="M107.7,89l-1.11,0-1.81.17a7.75,7.75,0,0,0-.74,4.73l.7.14c1.05.28,2.4.41,1,2l-1.07,2.12q0,1.48-.08,3a2.81,2.81,0,0,0,3.1,1.84l.95-.8c-.1-2.33,2.3-3.16,3-5-2.63-3.3-1.81-6.3.75-9.19,1-1.09,2.27-2,2.23-3.69L114.47,82C111,83.17,111.63,88.32,107.7,89Z"/><path class="cls-3" d="M111.68,102.1l.23-.42-.23.42Z"/><path class="cls-7" d="M76.52,3c-2.38.38-4.77.75-6.85,2.12.06,1.28,2.41.22,2,2,.25.74.29,1.75.8,2.16,2.43,1.94.94,2.88-.81,3.85-.91,3.47,2,3.88,4,5,3.3,1.95,3.38-.82,4-2.75V13C77.1,10.19,76.91,6.56,76.52,3Z"/><path class="cls-4" d="M77.7,2l-1.17.09a3,3,0,0,1,0,.87c.39,3.57.58,7.19,3.2,10a6.83,6.83,0,0,1,1-3.92C79.89,6.68,77.13,5.06,77.7,2Z"/><path class="cls-2" d="M77.26,158.87c.82,2.68,1.94,5.31,1.33,8.19,6.65,4.3,6.64,4.29,11.95-.56a3,3,0,0,1,1.39-.43c1.73-.36,1.67-1.53.89-2.54a7.11,7.11,0,0,1-1.1-7A64.37,64.37,0,0,1,77.26,158.87Z"/><path class="cls-2" d="M92.64,154.19a5.31,5.31,0,0,1-5-2c-.37.55-.9,1-1.45.39s-.13-1.08.43-1.44l-.16-4.8a2.17,2.17,0,0,1-1.8-2.56c.88-6-1.22-12,.42-18.13,1.13-4.28-3.31-8-3.55-12.42l-6.81-.07-5-.12c-2-.26-4,1.74-6.09.1l-1,0a1.94,1.94,0,0,1-2-1l-.88.2-.85.94-.11.2c-1.33,7.57,1.66,13.62,6.61,19A11.47,11.47,0,0,1,66.78,135l1.95,1.1c1.61,0,3.46,1.89,4.74-.61.82-1.59,2-2.89,3.87-2.11,2.13.89.23,2.54.32,3.84a44.77,44.77,0,0,1,0,6.89c-.26,3,1,6.22-1,9a11.57,11.57,0,0,0,.61,5.75,64.37,64.37,0,0,0,14.45-2.31A19.29,19.29,0,0,1,92.64,154.19Z"/><path class="cls-6" d="M93.68,151.06c-.74-1.14-1.9-1-3-1-.73,1.18-1.95,1-3.05,1l0,1a5.31,5.31,0,0,0,5,2C95.71,154.06,91.2,151.4,93.68,151.06Z"/><path class="cls-11" d="M66.78,135c-2.29.95-3.18-1.76-5-1.92s-3.86-1.63-5.29.88.83,2.77,2,3.65c2,1.45,0,3,.25,4.55.89.28,2.16-.12,2.58,1,1.62,4.31,5.46,6.71,8.36,9.92,1.87-5.78-.61-11.32-.94-17Z"/><path class="cls-13" d="M58.81,113.39c-3.58-.65-1.59-3.52-1.74-5.2-.19-2.21,2.08-2,3.72-2q0-.49,0-1c-2.33-.26-4.6-.3-6.17,1.9,0,3,.38,6.09-2.86,7.89-.21,1.81-1.6,3.83.92,5.16a4.87,4.87,0,0,1,.36.69s-.24.17-.37.26q0,1,0,1.93c1.14,3,1.77,6.22,6.1,6.49,1.25.08,2.74,1.73,3.06,3.54,1.86.16,2.76,2.87,5,1.92a11.47,11.47,0,0,0-1.36-2.56C60.47,127,57.48,121,58.81,113.39Z"/><path class="cls-5" d="M57.61,99.19c-2.6-2-4.6.52-6.87.94-4.33,2.66-4.95,5.31-2.89,12.37l3.87,2.5c3.24-1.8,2.83-4.93,2.86-7.9-.42-1.71-3.14-2.72-1.92-4.79,1.12-1.91,2.74-.08,4.14.08.29,0,.61-.19.92-.29l-.08-2.1Q57.64,99.59,57.61,99.19Z"/><path class="cls-7" d="M56.69,92.16c-.38,1.06-.69,2.15-1.16,3.17-.33.72-.84,1.5-1.79,1.37-1.14-.16-1-1.11-.85-1.88.78-3.12-1.6-2.47-3.21-2.75l0,0q0,1,0,1.94a5.73,5.73,0,0,0,0,5.09l1,1C53,99.7,55,97.2,57.61,99.19c1.47-1.35,2.48-3.44,5-3l.08-5v-2l-1.91.13C60.48,91.66,57.93,91,56.69,92.16Z"/><path class="cls-10" d="M52.63,121.09c.13-.09.38-.22.37-.26a4.87,4.87,0,0,0-.36-.69Q52.64,120.62,52.63,121.09Z"/><path class="cls-2" d="M65.73,28.17c-3,2.2-4.24-.8-6.07-2.06a3.15,3.15,0,0,0-3.95,0c-2.48.57-3.82,2.89-6,3.93-2.06,0-2-1.48-2.07-2.92h-3c0,2-1.73,3-2.39,4.69S42.22,34,43.67,34.1l.23-.42-.23.43-1,2.13c1.9,2.34,1.37,6.83,6,6.77.21-1.39,1.09-1.83,2.42-1.89,3-.13,4.6-1.32,3.7-4.69-.24-.92-.58-2.67,1.06-2.76s1.46,1.69,2,2.82c1,2.14-3.18,4.36-.18,5.83,2.81,1.38,3.54-2.88,5.94-3.34.83-3.57,4.63-4.8,6.16-7.82l-1-1.06C67.63,29.55,67.29,27.93,65.73,28.17ZM53,35.57c-.49,2.28-2.78,3.77-4.89,4.22-1.57.33-2.16-1.85-2.25-3.28-.15-2.69,2-3,3.87-3.38C51.4,33.32,53.29,34,53,35.57Z"/><path class="cls-4" d="M48.62,43c-4.62.06-4.08-4.43-6-6.77-1.3.33-3.92-5.41-3.91.86.18,1.25-.6,3.07.79,3.62C44,42.5,46,47.57,50.65,49.12,55.23,45.34,49.78,44.88,48.62,43Z"/><path class="cls-5" d="M71.68,13.09,68.61,12a4.1,4.1,0,0,0-.05.9q0,1.74-.09,3.48c-.56,2.93,1.51,5.11,2.18,7.69,1.18.12,1.78.44.85,1.7s-1.89,2.87-2.83,4.32l1,1.06c1.78-.85,2.68-3.08,5-3.13,0-2-.79-3.94,0-5.91-2.38-2,.33-2.79,1-4.06C73.64,17,70.77,16.56,71.68,13.09Z"/><polygon class="cls-10" points="58.68 21.1 58.68 21.1 58.68 21.1 58.68 21.1"/><path class="cls-10" d="M61.65,19.5l-1-.39v.08c0,1.33-.74,1.86-2,1.9l1,5c1.83,1.26,3.07,4.26,6.07,2.06-.1-1.11-.39-2.28.82-3l-.11-1C60.91,26.66,61.74,22.6,61.65,19.5Z"/><path class="cls-6" d="M68.89,9.71l-.22.39h0Z"/><path class="cls-6" d="M72.49,9.24c-.51-.41-.55-1.42-.8-2.16-1.15,0-2.3,0-3.44.1a1.37,1.37,0,0,0-1.38,1.65c.12,1,1,1.15,1.8,1.27h0l.22-.39-.21.4h0q0,1-.06,1.91l3.07,1.07C73.43,12.13,74.92,11.18,72.49,9.24Z"/><path class="cls-14" d="M61.65,19.5c.09,3.1-.75,7.16,4.79,4.64C66.7,20.69,65.25,19,61.65,19.5Z"/><path class="cls-3" d="M70.66,24.08l-4.1,1.06c-1.22.75-.92,1.92-.82,3,1.56-.24,1.9,1.38,2.94,1.93.94-1.44,1.81-2.93,2.83-4.32S71.84,24.2,70.66,24.08Z"/><path class="cls-3" d="M66.08,14.77c-.15,1.62,1.43,1.3,2.4,1.63q0-1.74.09-3.48C67.44,13.15,66.19,13.51,66.08,14.77Z"/><path class="cls-13" d="M55.73,23.15q0,1.49,0,3a3.15,3.15,0,0,1,3.95,0l-1-5Z"/><path class="cls-5" d="M47.65,27.15c0,1.44,0,2.92,2.07,2.92C49.64,28.66,49.74,27.13,47.65,27.15Z"/><path class="cls-13" d="M58.68,21.1c1.23,0,2-.58,2-1.9C59.29,19.1,58.71,19.82,58.68,21.1Z"/><path class="cls-4" d="M117.89,57.21c.59-3.48.09-6.44-2.53-8.92-2.34-2.2-2-4.65-.65-7.19a9.69,9.69,0,0,1-2-5.72c-.16-1.8.77-1.8,2.05-1.29l-.11-2.94-2.94,0a3.07,3.07,0,0,1-3,2c.52,1.41,2.16,2.29,1.92,4.05-.58,3,3,5.26,1.27,8.67-.8,1.6-1.33,2.42-3.07,2.16-.74,3.6-4.48,1.48-6.19,3.24,1.19,2,1.39,3.18-1.71,2.92-1.81-.15-2.48-2.11-4.22-2q0,3,0,6c2.34.73,3.64-1.9,5.94-1.77,1.36.08,2.92-1.92,3.89.66.76,2,1,4.11-1.53,4.79-1.6.44-2,1.87-3,2.57-2.41-.91,0-4.51-2.54-4.7-1.83-.13-1.65,2-1.74,3.5,0,4.15-.55,8.52,5.07,9.83.43.1.6,1.37.89,2.09,3.53-1,4.72,1.53,6,4a10.64,10.64,0,0,0,4.16-4.89c.17-1.09,1.92-3.24-1.25-2.22-1.35.43-2.64,2.12-3.64,0-.89-1.89-2-4-.72-6.17,1.85-3.29,4-3.49,6-.36.9,1.44,1.28,3.08,3.44,2.83q.09-1.55.18-3.1c.32-.59.65-.56,1,0l1.7,0q.1-1.51.21-3C116.67,62.17,117.55,59.25,117.89,57.21Z"/><path class="cls-7" d="M114.74,34.1c-1.28-.51-2.21-.51-2.05,1.29a9.69,9.69,0,0,0,2,5.72c1.18-.23,3.63.11,3.29-.8C117.2,38.19,117.61,35.17,114.74,34.1Z"/><path class="cls-12" d="M120.72,67.14q-.17-1-.34-2l-1.7,0h-1l-.18,3.1c0,1.7.84,3.55-.93,4.91.35,3.23-2.51,5.7-2.13,8.94q.09,1.09.19,2.19l2-2.18a1.85,1.85,0,0,1,2-2h0c0-1.1-.13-2.27,1-3C119.47,73.73,121.36,70.56,120.72,67.14Z"/><path class="cls-6" d="M121.68,67.09a2,2,0,0,0,1-2A2.12,2.12,0,0,0,121.68,67.09Z"/><path class="cls-6" d="M118.67,80.08q3.29-.52,1-3C118.55,77.81,118.71,79,118.67,80.08Z"/><path class="cls-6" d="M116.64,82l2,.09q0-1,0-2A1.85,1.85,0,0,0,116.64,82Z"/><path class="cls-6" d="M63.55,39c-2.41.46-3.13,4.72-5.94,3.34-3-1.47,1.21-3.69.18-5.83-.54-1.13-.3-2.92-2-2.82s-1.3,1.84-1.06,2.76c.9,3.37-.72,4.56-3.7,4.69-1.33.06-2.21.5-2.42,1.89,1.16,1.88,6.61,2.34,2,6.12l-.09,1,3.17,0a8.39,8.39,0,0,1,4.88-1c1.14-3.32,2.67-4.42,9.71-6.86C67.27,40.21,63.6,42.09,63.55,39Z"/><path class="cls-11" d="M51.42,56.89a1.8,1.8,0,0,0-.72.25c0,1.47-.05,2.9-2.05,3a1.53,1.53,0,0,0-.16.66c1.28,3.19-2.29,5.35-1.78,8.37,2.08-.35,3.52-1.74,5-3.09.09-3-.66-6.12.92-9Z"/><path class="cls-5" d="M49.67,57.1l1,0a1.83,1.83,0,0,1,.72-.25l1.1-.89,0-.06L53.63,53q.05-1.46.1-2.93l-3.17,0C47.8,52.14,49.82,54.76,49.67,57.1Z"/><path class="cls-3" d="M40,71.17a2.88,2.88,0,0,0,.79,4c2.52-.05,2.81-2,3.18-3.81C42.6,71.48,41.1,69.37,40,71.17Z"/><path class="cls-12" d="M48.64,60.13c2-.09,2.05-1.52,2.05-3l-1,0Z"/><path class="cls-3" d="M41.94,66.25s.22.09.35.13a1.29,1.29,0,0,0,.13-.42s-.22-.09-.35-.13A1.29,1.29,0,0,0,41.94,66.25Z"/><path class="cls-9" d="M51.65,81.23l-1.93-.12c-.84,1.77-2.35,2.1-4.1,1.92a28.87,28.87,0,0,1-1,8.43c-.5,2,1,2.93,3,2.6a1.72,1.72,0,0,1,2-2l0,0C53.66,89.06,50.75,84.8,51.65,81.23Z"/><path class="cls-10" d="M51.7,66.08c-1.47,1.34-2.91,2.74-5,3.09.79,3-2.4,5-2,7.88,2-.29,3.81-1.37,5.89-.92-1.18-3.72.5-6.45,3.09-8.86l-.22-2.17Z"/><path class="cls-13" d="M44.71,77c-3,2.5,2.32,3.73.92,6,1.75.18,3.27-.15,4.1-1.92l.87-5C48.52,75.68,46.67,76.76,44.71,77Z"/><path class="cls-4" d="M47.69,94.06l2,0q0-1,0-1.94A1.72,1.72,0,0,0,47.69,94.06Z"/><path class="cls-4" d="M107.72,102.91a2.81,2.81,0,0,1-3.1-1.83l-3,5c1.17.67,0,1.44.09,2.15,1.11,4.76-1.58,7.54-5.14,9.88-2.12,4.34.7,8.58.3,12.95-.25,2.7-.83,4.69-3.18,6l0,0,1,1.18q0,1.43,0,2.86c4,1.56,2.65-3.43,4.91-4,.8-3.31-2-7.42,2.19-10-4.65-2.27-3.44-5.49-1.55-8.95C103,113.2,107.67,109.19,107.72,102.91Z"/><path class="cls-12" d="M93.66,137.07l0,0h0Z"/><path class="cls-12" d="M94.71,138.25l-1-1.15-3,0-3,.07,1.08,5.94A1.81,1.81,0,0,1,90.69,145l2.9.3c0-1.5,1.9-2.51,1.11-4.22Q94.7,139.68,94.71,138.25Z"/><path class="cls-7" d="M90.67,148.1l0,0q0-1.51,0-3a1.81,1.81,0,0,0-1.95-1.94l-2.26,3.21q.08,2.4.16,4.8l1,0c1.11-.09,2.32.14,3.05-1h0c-.73-.14-1.73-.13-1.49-1.22C89.26,148.53,90.15,148.35,90.67,148.1Z"/><path class="cls-6" d="M89.18,148.88c-.23,1.09.76,1.07,1.49,1.22q0-1,0-2C90.15,148.35,89.26,148.53,89.18,148.88Z"/><path class="cls-7" d="M88.63,19c-1.65,1.8-4.47,2.8-4.06,6l-.1,3.12c.28,1.65,1.4,2.09,2.89,2,.32-2.82,2.59-4.26,4.29-6.1-1.25-1.64-1-3.28,0-4.91Z"/><path class="cls-3" d="M76.74,23.25c-.29-.58-1.35-.77-2.05-1.14-.8,2,0,3.94,0,5.91l0,.17c2.42-1.59,3.07-.43,3,1.91a2,2,0,0,1,1,2l3,1c.38-2-1.3-5.09,2.8-4.92q0-1.56.09-3.12C81.44,26.74,78.67,27.13,76.74,23.25Z"/><path class="cls-4" d="M79.73,13.08V15.3C80.67,14.56,81.27,13.82,79.73,13.08Z"/><path class="cls-5" d="M92.51,24c2.39,1,3.85,2.63,2.87,5.27-1.14,3.09-3.84,3-6.54,2.68-.91-.12-1.12-.81-1.27-1.55l-.2-.22c-1.49.09-2.61-.34-2.89-2-4.1-.16-2.42,3-2.8,4.92l1.11,2a1.84,1.84,0,0,1,1.89,2L84.91,39c3.74.86,2.59,3.81,2.68,6.24l.47,2.58c1.81,2.89,3.91,5.67,3.61,9.37a2.34,2.34,0,0,0,2,1.87,5.44,5.44,0,0,1,.9-.21l2.16-.77q0-3,0-6l-1-3.13c-4.69-7-3.82-10.53,2.88-11.78L98.78,35c1.6-1.65,4.21-.28,5.81-1.95q.12-2,.24-4.09C100.65,21.66,97.39,20.35,92.51,24Z"/><path class="cls-14" d="M92.51,24a1.88,1.88,0,0,1-.85.07c-1.71,1.84-4,3.28-4.29,6.1l.2.22c.94.09,1.16.78,1.27,1.55,2.7.36,5.4.41,6.54-2.68C96.36,26.61,94.89,25,92.51,24Z"/><path class="cls-7" d="M104.83,28.93q-.12,2-.24,4.09c1.9.18,3,1.14,3.07,3.13.28,1.16-.7,3,1,3.35,1.31.31.8-2,2-2.33.24-1.77-1.4-2.65-1.92-4.05A6,6,0,0,0,104.83,28.93Z"/><path class="cls-15" d="M101.41,92.9c-2.76-2.07-2.79-2-2.85-5.6-.31-1.07-1-2.08-.57-3.28a55.57,55.57,0,0,0-2.64-17.25c-.6-1.82-.51-3.87-.73-5.81a2,2,0,0,1-1-1.91,2.34,2.34,0,0,1-2-1.87c-2.42-1-3.31-3.37-4.9-5.13l-1.32.2c-.7,2.92,4.38,4.53,1.77,7.88L87.65,62c.73.45.86.81-.15,1a1.45,1.45,0,0,1-.68.15,4.28,4.28,0,0,1-.25.71c0,.47,0,.95,0,1.43,1.13,0,2.35.59,1.9,1.66-2.38,5.53.15,11.26-.7,17a38.49,38.49,0,0,0-.4,11.2c.41,2.61,1.1,3,3.84,2.57s6.5-1.94,8,2.51l.51,4.86,2,1,3-5,.08-3-1-1.1C102.11,96.12,102.75,93.91,101.41,92.9Z"/><path class="cls-5" d="M116.59,73.11l-2.84,1A10.63,10.63,0,0,1,109.59,79c.09,1.37-.63,2-1.92,2.15l-1.1,5.95.14,1,1,.86c3.93-.7,3.29-5.84,6.77-7C114.09,78.8,116.95,76.34,116.59,73.11Z"/><path class="cls-14" d="M98.56,87.3c.06,3.57.09,3.53,2.85,5.6,1.34,1,.7,3.22,2.34,4.11q.14-1.56.29-3.13a7.77,7.77,0,0,1,.74-4.73C103,87.4,101.26,85.83,98.56,87.3Z"/><path class="cls-12" d="M102.62,83,98,84c-.43,1.2.26,2.21.58,3.28,2.69-1.47,4.48.1,6.22,1.85l1.81-.17q.08-.42.12-.84l-.14-1Z"/><path class="cls-12" d="M104,93.88q-.15,1.57-.29,3.13l1,1.09L105.77,96l-1-2C104.51,94,104.28,93.92,104,93.88Z"/><path class="cls-13" d="M104.74,94l1,2C107.14,94.43,105.8,94.3,104.74,94Z"/><path class="cls-13" d="M106.59,89l1.11,0-1-.87Q106.66,88.57,106.59,89Z"/><path class="cls-13" d="M86.72,116a8.55,8.55,0,0,1,5.83-4.86q-.09-1.56-.18-3.12c-2.93-.37-3.19,3.62-5.95,3.72-.55-3.23.28-7.23-4.61-7.72l-1.12,5.13a6,6,0,0,1,.86,4c.23,4.46,4.68,8.13,3.54,12.42-1.63,6.16.46,12.12-.42,18.13a2.16,2.16,0,0,0,1.8,2.56l2.26-3.21-1.08-5.94c-2.56-4.45-1.6-8.86.1-13.3.66-1.74,2.13-3.85-1.12-4.74-.82-.43-1.68-.9-1.63-2S86,116.18,86.72,116Z"/><path class="cls-9" d="M66.72,109.1,62.62,108l-1,1.08a1.89,1.89,0,0,1-1.08,2,2.5,2.5,0,0,0,.07,1,1.94,1.94,0,0,0,2,1c.12-.39.22-1.11.37-1.12.84-.06.53.7.67,1.15,2.06,1.64,4.05-.36,6.09-.1l-1.24-3.93Z"/><path class="cls-9" d="M76.73,108,74.62,109q.06,2,.12,4.09l6.81.07a6,6,0,0,0-.86-4Z"/><path class="cls-11" d="M60.79,106.16c-1.64,0-3.91-.17-3.72,2,.14,1.68-1.84,4.55,1.74,5.2l.11-.2a.82.82,0,0,1,.85-.94l.88-.2a2.5,2.5,0,0,1-.07-1,2,2,0,0,1,1.08-2l1-1.08A1.68,1.68,0,0,0,60.79,106.16Z"/><path class="cls-12" d="M68.54,109.08,69.79,113l5,.12q-.06-2-.12-4.09C72.59,107.48,70.57,109.41,68.54,109.08Z"/><path class="cls-5" d="M86.64,151.11c-.56.36-1,.88-.43,1.44s1.08.16,1.45-.4l0-1Z"/><path class="cls-13" d="M63,112c-.15,0-.25.73-.37,1.12l1,0C63.56,112.67,63.87,111.91,63,112Z"/><path class="cls-13" d="M58.92,113.19l.85-.94A.82.82,0,0,0,58.92,113.19Z"/><path class="cls-12" d="M70.63,96.12h-.92c-5.34,2.36-4.83-2.39-6.08-5h-.95q0,2.52-.08,5c.39,1.19,2.64,2.43,1.45,3.24-1.72,1.18-4.12,2.26-6.42.61l.08,2.1,3,3.1q0,.49,0,1A1.68,1.68,0,0,1,62.62,108l4.09,1.11c-1-2.22-.5-3.78,1.74-5,2.61-1.45,5,.35,7.53.28,2.17-.06,0,2.46.75,3.63l4,1.17L81.8,104l-.93-2.95C76.4,101.62,74.09,97.69,70.63,96.12Z"/><path class="cls-9" d="M56.8,102.38c-1.4-.16-3-2-4.14-.08-1.22,2.07,1.5,3.08,1.92,4.79,1.57-2.2,3.84-2.16,6.17-1.9l-3-3.1C57.41,102.19,57.09,102.41,56.8,102.38Z"/><path class="cls-9" d="M57.61,99.19q0,.4,0,.81c2.3,1.65,4.7.56,6.42-.61,1.19-.82-1.06-2-1.45-3.24C60.09,95.75,59.08,97.84,57.61,99.19Z"/><path class="cls-4" d="M57.76,83.07l-.08-2-1.84-1c-1.24,1-3.05-.22-4.19,1.13-.91,3.57,2,7.83-2,10.83,1.61.28,4-.37,3.21,2.75-.19.77-.29,1.72.85,1.88,1,.13,1.46-.65,1.79-1.37.47-1,.78-2.11,1.16-3.17-.1-1.67.24-3,2.23-3.3l-.3-3.75A1.89,1.89,0,0,1,57.76,83.07Z"/><path class="cls-9" d="M71.34,89.24c-2-.25-2.87-1.15-2.63-3.13-2,.36-3.35,2.66-5.72,2.08a4.81,4.81,0,0,0-.31.89q0,1,0,2h.95c1-1.21,2-1.33,3-.06,3.14-.23,3.11,1.87,3,4.05l.06,1h.92l4.06-3C74.95,90.63,73.43,89.5,71.34,89.24Z"/><path class="cls-12" d="M58.91,88.87c-2,.25-2.32,1.63-2.23,3.29,1.25-1.14,3.79-.5,4.09-3l-.49-.49Z"/><path class="cls-12" d="M60.29,88.72l.48.48,1.91-.13a4.61,4.61,0,0,1,.32-.89l-.32-2.09C60.94,86.12,60.56,87.37,60.29,88.72Z"/><path class="cls-7" d="M71.06,38.25a16.63,16.63,0,0,1-2.66-1.36c2.72-2.63,7-3.87,6.29-8.7l0-.17c-2.28,0-3.18,2.28-5,3.13-1.53,3-5.33,4.25-6.16,7.82,0,3.12,3.71,1.24,4.77,3.2-7,2.44-8.57,3.54-9.71,6.86l.06.06c2.13.32,3.58-2.69,5.95-1.23,1.8.41,3.34-.56,5-1,.31-1.11.57-2.33,2-1l2.94-.12C78.95,40.71,75.09,39.48,71.06,38.25Z"/><path class="cls-6" d="M49.7,33.12c-1.88.37-4,.69-3.87,3.38.08,1.43.67,3.61,2.25,3.28,2.11-.44,4.41-1.94,4.89-4.22C53.29,34,51.4,33.32,49.7,33.12Z"/><path class="cls-5" d="M43.68,34.1l.23-.43-.23.42Z"/><path class="cls-4" d="M68.68,10.1l.21-.4-.22.39Z"/><path class="cls-8" d="M104.6,47c-7.84,0-8.48-1-6-8.93a5.72,5.72,0,0,1,0-.88C91.93,38.47,91.06,42,95.75,49c2.8-.81,4.5,1.77,6.88,2.23,1.71-1.75,5.45.36,6.19-3.24l-.13-1.92A6.54,6.54,0,0,1,104.6,47Z"/><path class="cls-8" d="M102.74,73c-5.63-1.31-5.1-5.68-5.07-9.83-1.3-.15-1.8-1-1.94-2.19l-1.11,0c.22,1.94.13,4,.73,5.81A55.48,55.48,0,0,1,98,84l4.63-1q0-.4,0-.81c-.74-.21-1.75-.27-1.53-1.33.08-.4.94-.64,1.45-1l.15-1.93a1.45,1.45,0,0,1,0-.71c-.58-.41-.78-.82,0-1.21h0l1-.87v-.16C103.34,74.34,103.17,73.07,102.74,73Z"/><path class="cls-6" d="M114.09,65.37c-2-3.13-4.1-2.93-6,.36-1.23,2.19-.16,4.27.72,6.17,1,2.16,2.3.47,3.64,0,3.17-1,1.41,1.13,1.25,2.22l2.84-1c1.77-1.36,1-3.21.93-4.91C115.37,68.45,115,66.8,114.09,65.37Z"/><path class="cls-3" d="M110.63,37.16c-1.19.38-.67,2.64-2,2.33-1.68-.39-.71-2.19-1-3.35-3.06.35-5.93-.7-8.88-1.18l-.14,2.25a5.75,5.75,0,0,0,0,.88l1.18.12c5-.78,5.93,5.32,10.11,5.93l-1.23,1.92q.06,1,.13,1.92c1.74.26,2.27-.57,3.07-2.16C113.6,42.42,110.05,40.16,110.63,37.16Z"/><path class="cls-7" d="M102.62,56.32c-2.3-.13-3.6,2.5-5.94,1.77l-2.16.77a2.5,2.5,0,0,1,1.2,2.1c.14,1.18.64,2,1.94,2.19.08-1.45-.09-3.63,1.74-3.5,2.56.19.13,3.79,2.54,4.7,1-.69,1.44-2.13,3-2.57,2.52-.69,2.29-2.77,1.53-4.79C105.55,54.4,104,56.39,102.62,56.32Z"/><path class="cls-7" d="M103.63,75.06v.16l-1,.87,0,1.21a1.46,1.46,0,0,0,0,.71c2.45-.17,2.71,3.09,5,3.19,1.29-.14,2-.78,1.92-2.15C108.35,76.6,107.16,74.07,103.63,75.06Z"/><polygon class="cls-7" points="102.66 76.09 102.66 76.09 102.66 76.08 102.66 76.09"/><path class="cls-7" d="M95.75,49l1,3.13c1.74-.08,2.41,1.88,4.22,2,3.1.25,2.89-.93,1.71-2.93C100.25,50.77,98.55,48.19,95.75,49Z"/><path class="cls-6" d="M117.71,65.1h1C118.36,64.54,118,64.51,117.71,65.1Z"/><path class="cls-7" d="M53.73,50.09q-.05,1.46-.1,2.93c1.77.21,2.67-1.32,4-2l1-1.93L58.62,49A8.4,8.4,0,0,0,53.73,50.09Z"/><path class="cls-14" d="M52.52,56l.1,1.09c-1.59,2.86-.83,6-.92,9l1.77-1c1.82-2.65.09-6.32,2.53-8.79l-3.45-.36Z"/><path class="cls-12" d="M51.42,56.89l1.2.21L52.52,56Z"/><path class="cls-12" d="M57.63,51c-1.33.68-2.23,2.21-4,2l-1.07,2.94,3.45.36L57.59,56C57.52,54.37,59.81,52.71,57.63,51Z"/><path class="cls-12" d="M55.8,69.15l-1.05-1.83-1.06-.05c-2.59,2.41-4.27,5.14-3.09,8.86l-.87,5,1.93.11c1.14-1.35,2.95-.18,4.19-1.13C58.8,76.44,54.21,72.81,55.8,69.15Z"/><path class="cls-3" d="M77.64,73.27c-2.9-.55-4.24-2.74-5.35-5.14-.57-1.23-.11-1.83,1.24-1.76l1.13-5.21c-2.45-1-5.71.12-7.33-2.93a4.22,4.22,0,0,0-3.64-1.13c-1.17,1.12-2.31,2.26-3.5,3.34-1,.87-1.15,3.42-3,2.29-1.53-.95.34-2.57.52-3.92a13.22,13.22,0,0,1,1-2.71L57.59,56,56,56.31c-2.44,2.47-.71,6.14-2.53,8.79l.22,2.17,1.07.06c2.39-2.93,3.88.93,5.9.79-.09-1.81,2.25-2.43,2.06-4.35-.15-1.46.29-2.71,2.14-2.59s1.78,1.61,1.84,2.93c1.07.07,2.88-.37,2.55,1.32-.55,2.85,1.28,5.5.18,8.45-1.31-.49-.62-3.17-2.73-2.77,0,1.16,0,2.33-.12,3.49a1.89,1.89,0,0,1-1.62,1.67c-1.26.29-1.07-.8-1.32-1.53-.71-2-1.47-4.07-3.93-4.65l1,3c.93,3.39-2.66,5.1-3,8l.08,2c.74.14,2,.07,2.13.47.37.83-.57,1.25-1.28,1.58q.15,1.87.3,3.75l1.38-.15c.27-1.35.65-2.6,2.39-2.62,3.7-3.9,7.78-3.22,12-1,0-.49.12-1.21-.15-1.44-3.27-2.83-3.82-4.42,1.5-5C79.68,78.31,75.78,74.73,77.64,73.27Zm-12,6.84-.24.41.22-.43c.07-1.38.75-1.68,1.85-.94.33.23.76.94.66,1.09C67.33,81.43,66.52,80.25,65.68,80.11Z"/><path class="cls-15" d="M96.58,118.12c-1.26-.7-.66-2-1-3l-1-1-3,1.87h0l-.8,1.15c-.91,6.63-.45,13.26-.12,19.89l3,0c2.35-1.34,2.93-3.33,3.18-6C97.28,126.7,94.46,122.46,96.58,118.12Z"/><path class="cls-3" d="M98.66,112.05c-.7,1.33-1.06,3-3,3.06.32,1-.29,2.31,1,3,3.56-2.33,6.25-5.12,5.14-9.88Z"/><path class="cls-12" d="M101.63,106.09l-2-1-1-.06c-.28,1.52-.65,3-2,4l-.13,1.26a1.8,1.8,0,0,0,2.14,1.77l3.06-3.81C101.67,107.53,102.8,106.76,101.63,106.09Z"/><path class="cls-15" d="M94.71,138.25l-1-1.18Z"/><path class="cls-11" d="M89.59,117.08H87.73l-1.09,2c3.25.9,1.78,3,1.12,4.74-1.7,4.44-2.65,8.85-.1,13.3l3-.07c-.33-6.63-.8-13.26.12-19.89Z"/><path class="cls-4" d="M84.91,39q-.11-1-.22-1.92c-1.33,0-2-.67-1.89-2l-1.11-2-3-1c-1.26-.2-2.49-.42-1-2,.11-2.34-.54-3.5-3-1.91.71,4.82-3.57,6.06-6.29,8.7a16.63,16.63,0,0,0,2.66,1.36c4,1.23,7.89,2.47,3.53,7.58,3.87-2.83,7.95-2.29,12.09-.75C85.91,43.1,84.2,41.4,84.91,39Z"/><path class="cls-7" d="M77.65,30.09c-1.47,1.59-.24,1.81,1,2A2,2,0,0,0,77.65,30.09Z"/><path class="cls-8" d="M86.68,45.07c-4.14-1.54-8.22-2.08-12.09.75l-2.94.12a1.76,1.76,0,0,1-2,1c-1.65.39-3.18,1.36-5,.95,0,.79-1.06,1.63.12,2.36,4.46-1,8.89-2.24,13.4-2.75,3.13-.36,4.85,2.33,6.33,4.78a5,5,0,0,1,1,0l1.32-.2,1.28-4.24-.47-2.58A7.36,7.36,0,0,1,86.68,45.07Z"/><path class="cls-4" d="M86.78,52.06c1.58,1.76,2.47,4.17,4.9,5.13.3-3.7-1.8-6.48-3.61-9.37Z"/><path class="cls-4" d="M104.59,33c-1.6,1.67-4.21.29-5.81,1.95,2.95.48,5.82,1.52,8.88,1.18C107.6,34.16,106.49,33.2,104.59,33Z"/><path class="cls-6" d="M84.91,39c-.71,2.4,1,4.11,1.77,6.08a7.36,7.36,0,0,0,.91.16C87.5,42.81,88.65,39.85,84.91,39Z"/><path class="cls-6" d="M82.79,35c-.11,1.37.56,2,1.89,2A1.84,1.84,0,0,0,82.79,35Z"/><path class="cls-4" d="M94.53,58.85a5.37,5.37,0,0,0-.9.21,2,2,0,0,0,1,1.91l1.11,0A2.5,2.5,0,0,0,94.53,58.85Z"/><path class="cls-7" d="M87.57,30.37c.15.74.36,1.43,1.27,1.55C88.73,31.15,88.51,30.47,87.57,30.37Z"/><path class="cls-12" d="M91.18,97.73c-2.74.42-3.43,0-3.84-2.57a38.49,38.49,0,0,1,.4-11.2c.84-5.73-1.69-11.45.7-17,.46-1.07-.77-1.64-1.9-1.66-1.94,1.91-2.24,5.45-5.75,5.81-.59,5.25-.21,10.11,2.7,15,.72,1.2,1.23,5.68-1.08,8.15.59,1.87,2.43,2.94,2.91,5,.86,3.62,3.3,5.49,7.11,5.36,1.09-3.22,4-3.71,6.71-4.35C97.67,95.79,93.81,97.33,91.18,97.73Z"/><path class="cls-8" d="M79.7,54.08c-4.28-2.21-8.91-.58-13.33-1.21,2.11,1.46,2.22,3.29,1,5.36,1.61,3,4.87,2,7.32,2.93l2.07.08c.37-.23.8-.71,1.11-.64.77.17.74.9.7,1.56a1.62,1.62,0,0,1,1,2c-.78,1.81,4.28,3,.7,4.61-2.47,1.13-5.3.66-6.7-2.43-1.35-.07-1.81.53-1.24,1.76,1.11,2.4,2.45,4.59,5.35,5.14.56-1.43,1.48-2.34,3.15-2.14,3.51-.36,3.81-3.9,5.75-5.81l0-1.43-.72-.8C83.31,60.43,82.55,56.54,79.7,54.08Zm-8.09,1.76-.35-.28c.14-.07.28-.2.41-.19s.24.17.36.26Z"/><path class="cls-4" d="M92.43,104.59q0,1.72-.06,3.44.09,1.56.18,3.12l.12-.06,2.2,2.06,1.66-2.87.13-1.26-2-4.26,4,.28,1,.06q-.25-2.43-.51-4.86C96.38,100.88,93.52,101.37,92.43,104.59Z"/><path class="cls-4" d="M83.64,53.08l-3.94,1c2.85,2.46,3.61,6.35,6.15,9a6.86,6.86,0,0,1,1,.09A1.44,1.44,0,0,0,87.5,63l.15-1-.43-1.89C85.1,58.26,83.58,56.07,83.64,53.08Z"/><path class="cls-12" d="M85.45,52.27a5,5,0,0,0-1,0l-.82.83c-.06,3,1.45,5.18,3.58,7.07C89.84,56.8,84.75,55.18,85.45,52.27Z"/><path class="cls-12" d="M87.65,62l-.15,1C88.51,62.85,88.38,62.49,87.65,62Z"/><path class="cls-12" d="M86.58,63.9a4.14,4.14,0,0,0,.24-.71,6.86,6.86,0,0,0-1-.09Z"/><path class="cls-13" d="M102.68,78l-.15,1.93.09,2.28c0,.27,0,.54,0,.81l3.95,4.12,1.1-5.95C105.39,81.09,105.13,77.83,102.68,78Z"/><path class="cls-5" d="M85.32,99.22c-.48-2-2.32-3.1-2.91-5l-7.76-6.13-5.93-2c-.24,2,.59,2.88,2.63,3.13s3.6,1.39,3.34,3.86c1.36,2.2,3.79,3.17,5.64,4.79,1.19,1,1.92,1.85.54,3.19L81.8,104c4.89.49,4.06,4.49,4.61,7.72,2.75-.1,3-4.09,5.95-3.72q0-1.72.06-3.44C88.62,104.71,86.18,102.85,85.32,99.22Z"/><path class="cls-9" d="M86.72,116l1,1.07h1.86a2.21,2.21,0,0,1,2-1h0l1-4.94-.12.06A8.55,8.55,0,0,0,86.72,116Z"/><path class="cls-12" d="M85,117.14c-.05,1.07.81,1.54,1.63,2l1.09-2-1-1.07C86,116.18,85.06,116.12,85,117.14Z"/><path class="cls-7" d="M76,104.36c-2.53.07-4.92-1.72-7.53-.28-2.23,1.24-2.74,2.8-1.74,5l1.83,0c2,.33,4-1.61,6.08,0L76.73,108C76,106.81,78.15,104.3,76,104.36Z"/><path class="cls-13" d="M60.58,111.09a1.89,1.89,0,0,0,1.08-2A2,2,0,0,0,60.58,111.09Z"/><path class="cls-4" d="M80.33,97.89C78.47,96.27,76,95.3,74.69,93.1l-4.06,3c3.46,1.57,5.76,5.51,10.24,5C82.25,99.75,81.52,98.94,80.33,97.89Z"/><path class="cls-7" d="M66.68,91c-1-1.27-2.05-1.15-3,.06,1.24,2.62.73,7.37,6.08,5l-.06-1C67.26,94.77,67,92.88,66.68,91Z"/><path class="cls-6" d="M55.8,69.15c-1.59,3.66,3,7.29,0,11l1.84,1c.31-2.93,3.9-4.64,3-8C58.26,72.73,57.41,70.46,55.8,69.15Z"/><path class="cls-6" d="M57.76,83.07a1.89,1.89,0,0,0,.85,2c.71-.33,1.65-.75,1.28-1.58C59.72,83.15,58.5,83.22,57.76,83.07Z"/><path class="cls-6" d="M74.68,85.09c-4.21-2.21-8.3-2.89-12,1q.16,1,.32,2.09c2.37.58,3.69-1.72,5.72-2.08l5.93,2L74.71,87l0-1.95Z"/><path class="cls-4" d="M66.68,91c.34,1.83.59,3.72,3,4.05C69.79,92.92,69.82,90.82,66.68,91Z"/><path class="cls-4" d="M66.37,52.87a2.58,2.58,0,0,1-1.63-2.65c-1.18-.73-.13-1.57-.12-2.36-2.37-1.46-3.81,1.55-5.95,1.23l-1,1.93c2.19,1.69-.11,3.35,0,5l1.1.06a5,5,0,0,0,3.57-1.17c.61-.54,1.53-1,2-.05.24.56-.33,1.47-.53,2.23a4.23,4.23,0,0,1,3.65,1.13C68.59,56.16,68.48,54.34,66.37,52.87Z"/><path class="cls-4" d="M69.6,46.91a1.76,1.76,0,0,0,2-1C70.17,44.58,69.91,45.81,69.6,46.91Z"/><path class="cls-4" d="M99.82,38.22C98.31,42.84,101.38,45,104.6,47a6.55,6.55,0,0,0,4.1-1l1.23-1.92C105.76,43.55,104.81,37.45,99.82,38.22Z"/><path class="cls-6" d="M99.82,38.22l-1.18-.12c-2.53,8-1.89,8.93,6,8.93C101.38,45,98.31,42.84,99.82,38.22Z"/><path class="cls-12" d="M101.08,80.88c-.21,1.06.8,1.12,1.53,1.33l-.09-2.28C102,80.24,101.16,80.48,101.08,80.88Z"/><path class="cls-13" d="M103.62,75.22l-1,.87Z"/><path class="cls-13" d="M102.65,77.29l0-1.21C101.86,76.47,102.07,76.88,102.65,77.29Z"/><path class="cls-4" d="M60.66,68.12c-2,.14-3.51-3.72-5.9-.79l1,1.82c1.61,1.31,2.45,3.58,4.85,3.92l-1-3,.93-2Z"/><path class="cls-7" d="M80.79,71.13c-1.67-.21-2.59.7-3.15,2.14-1.86,1.46,2,5-1.61,5.41-5.31.55-4.77,2.13-1.5,5,.27.23.11,1,.15,1.44h0c1.32.18,3,.5,2.45,2.15-.41,1.31-1.59,0-2.43-.2l-.07,1.09,7.77,6.13c2.31-2.47,1.8-7,1.08-8.15C80.58,81.25,80.2,76.39,80.79,71.13Z"/><path class="cls-5" d="M79.52,64.19a1.62,1.62,0,0,0-1-2l-1.81-.91-2.07-.08-1.13,5.21c1.41,3.09,4.23,3.56,6.7,2.43C83.8,67.16,78.74,66,79.52,64.19Z"/><path class="cls-2" d="M64.86,61.18c-1.85-.12-2.29,1.13-2.14,2.59.19,1.92-2.15,2.54-2.06,4.35l0,0c2.92-1.16,2.77,2.89,5,2.93l1.1-7C66.63,62.79,66.77,61.3,64.86,61.18Z"/><path class="cls-8" d="M62.27,54.93A5,5,0,0,1,58.7,56.1a13.22,13.22,0,0,0-1,2.71c-.18,1.35-2,3-.52,3.92,1.81,1.13,2-1.42,3-2.29,1.19-1.09,2.34-2.23,3.5-3.34.2-.75.77-1.67.53-2.23C63.8,53.89,62.88,54.39,62.27,54.93Z"/><path class="cls-6" d="M60.62,68.15l-.93,2c2.46.57,3.22,2.61,3.93,4.65.25.73.06,1.82,1.32,1.53a1.89,1.89,0,0,0,1.62-1.67c.09-1.16.09-2.33.12-3.49l-1.09,0C63.39,71,63.54,67,60.62,68.15Z"/><path class="cls-7" d="M69.24,65.43c.33-1.69-1.48-1.25-2.55-1.32l-1.1,7,1.09,0c2.11-.41,1.42,2.28,2.73,2.77C70.52,70.93,68.69,68.28,69.24,65.43Z"/><path class="cls-6" d="M67.51,79.15c-1.1-.74-1.77-.44-1.85.94l0,0c.84.15,1.65,1.33,2.49.13C68.27,80.09,67.85,79.37,67.51,79.15Z"/><path class="cls-6" d="M65.44,80.52l.24-.41,0,0Z"/><path class="cls-7" d="M96.52,110.28l-1.66,2.87-.26,1,1,1c2,0,2.35-1.73,3-3.06A1.8,1.8,0,0,1,96.52,110.28Z"/><path class="cls-12" d="M91.62,116l3-1.87.26-1-2.2-2.06Z"/><path class="cls-12" d="M89.59,117.08l1.21.11.81-1.15A2.21,2.21,0,0,0,89.59,117.08Z"/><path class="cls-7" d="M96.65,109c1.34-1,1.7-2.47,2-4l-4-.28Z"/><path class="cls-7" d="M78.14,47.47c-4.51.52-8.94,1.8-13.4,2.75a2.58,2.58,0,0,0,1.63,2.65c4.42.62,9.05-1,13.33,1.21l3.94-1,.82-.83C83,49.79,81.27,47.11,78.14,47.47Z"/><path class="cls-3" d="M77.84,60.59c-.31-.07-.74.41-1.11.64l1.81.91C78.58,61.5,78.6,60.76,77.84,60.59Z"/><path class="cls-4" d="M71.26,55.56l.35.28.41-.2c-.12-.09-.23-.25-.36-.26S71.39,55.49,71.26,55.56Z"/><path class="cls-3" d="M74.69,85.1q0,1,0,1.95c.83.2,2,1.52,2.43.2C77.65,85.6,76,85.28,74.69,85.1Z"/></g></g></svg>