<svg xmlns="http://www.w3.org/2000/svg" viewBox="0 0 121.17 193.36"><defs><style>.cls-1{fill:#625348;}.cls-2{fill:#856546;}.cls-3{fill:#342923;}.cls-4{fill:#9d7047;}.cls-5{fill:#c0976a;}.cls-6{fill:#6c5038;}.cls-7{fill:#9a7656;}.cls-8{fill:#55412f;}.cls-9{fill:#443a33;}.cls-10{fill:#b48d63;}.cls-11{fill:#a4866a;}.cls-12{fill:#ae8155;}.cls-13{fill:#ceab85;}.cls-14{fill:#c4a27a;}</style></defs><title>germ</title><g id="Layer_2" data-name="Layer 2"><g id="Layer_1-2" data-name="Layer 1"><path class="cls-1" d="M108.73,46.33l0,0h0Z"/><path class="cls-1" d="M113.54,17.73c-1.24-4.45-1.73-9.11-3.72-13.35C107.71-.1,105.38-1,101.66,1c.7,4.6-3.39,6.55-5.39,9.65-1,1.62-2.35,3.07-3.53,4.6,2.56.4,3,3.85,5.78,4.07.33,0,0,1.44-.75,1.92.45,2.78-1,5.3-1.07,8,2,.46,3.66-.63,5.35-1.61,1.6,3.11-1.21,5-1.51,7.48l.26,5.19c3.44-2.38,3.25-6.55,4.84-9.85a49.94,49.94,0,0,0,1.91-6.21c1.36,3.35,1.14,6,3.83,6.78a1,1,0,0,1,.34.88c-2.17,3.82.31,8.38-1.94,12.17a2.16,2.16,0,0,1-1,2.15l1.69,3.86a2.66,2.66,0,0,0,.44.27c.6-.93,1.57-1.79,1.75-2.79C114.38,37.73,116.35,27.8,113.54,17.73Zm-9.62,8.1c-.26-.12-.68-.17-.75-.36s.18-.52.3-.78l.79.34Z"/><path class="cls-2" d="M72.72,46.29l-2.61-.1-.25-.07-.15.22a8.9,8.9,0,0,0,0,6c6.73.13,8,1.5,7.59,6.64-.22,2.95-1.69,2.58-3.18,1.9-2.93-1.33-5.7-3-8.53-4.57a6.14,6.14,0,0,1-3.85-1c-.37.91-.71,1.83-1.11,2.72-2.88,6.35-5.78,7.23-11,3.32.45,3.23,3.21,7-2,9,.72,3.3,3,5.77,4.57,8.49,3.12,1.77.43-12.47,6.66-1.79,1.92-2.72,2.47-6.57,6.49-6.78l.28-2.88c0-1.38.6-2.08,2-1.91l2.95-.18c5-3.82,7.59,1.12,11,3l.1-1c-.53-1.86.42-3.95-.93-5.68-2-2.59.29-2.88,1.91-3.53q0-.95.07-1.9C81,51.31,77.93,47.68,72.72,46.29Z"/><path class="cls-3" d="M18.72,173.29h0l.82.06-1.05-.79A3.74,3.74,0,0,1,18.72,173.29Z"/><path class="cls-3" d="M28,179c.4,1.58,2.3,3.13,3.71,2.66a1.91,1.91,0,0,0,.83-.52q-2.33-1.09-4.61-2.36C27.92,178.87,27.95,178.93,28,179Z"/><path class="cls-3" d="M13.71,170.3c.84.31,1.83.38,2.71.62q-1.84-1.51-3.63-3.15A7.78,7.78,0,0,0,13.71,170.3Z"/><path class="cls-3" d="M32.2,177.37c-2.86-6.72-2.05-14.22-4.53-21-3.18-1.82-2.92-7.43-8-7.22-.44,1.44-.83,2.91-2.64,3.23l-1.27,1.31-4.54,12.62a2.11,2.11,0,0,1,1.51,1.47q1.79,1.64,3.63,3.15a2.87,2.87,0,0,1,2.07,1.64l1.05.79c3.7.3,7.11,1,8.36,5.44q2.28,1.27,4.61,2.36C33.36,180.21,32.7,178.55,32.2,177.37Z"/><path class="cls-4" d="M109.24,163.25c-.85-.74-2.91-1.05-1.6-2.79,1.62-2.17-1.44-2.71-1.22-4.29-3.61-.45-3-3.55-3.72-5.85-1.23.65-.93,1.84-1,2.9-.76,2-2.24,3.76-2,6.09,2.67,4.89,2.67,4.89-3,5a9.71,9.71,0,0,1-5.08,5c-1.3,4.13-4,.73-5.93,1.06.66,2.18-2,3-2,4.94,2.45.17,4.92,1.35,7.08-1.3,1.26-1.54,3.24-.48,4.25.79a3.37,3.37,0,0,1,.26.38A88.11,88.11,0,0,0,109.24,163.25Z"/><path class="cls-5" d="M108.77,126.33l-1.27-.24c-4-3.4-7.12.78-10.67,1.33-1,3.7-3.8,6.1-6.13,8.85l-1.85.14c-.59,1.24,2.15,3.4-1.08,3.92a5.2,5.2,0,0,1-.17.88l-.91,5,0,3.06.1,1.07,2.87-.06c1.54-3.64,4.7-1.33,7.07-1.93a2,2,0,0,1,2,.93c3.1-.38,1.88-6,6.1-5,1.41-2,2.52-4.12,2.07-6.71a27,27,0,0,1,1.5-8.07A4.37,4.37,0,0,0,108.77,126.33Zm-9.66,13.25c-1.49-1.88-3.35-2.66-2.66-4.75.23-.69,1.55-.7,2.22-.23C100.37,135.81,99.65,137.29,99.11,139.58Z"/><path class="cls-2" d="M21.77,134.87c-1.09-1.34-1.24-3.28-3.31-4.09-1.29-.5-1.9-2.32-1.58-3.91.44-2.15,2.29-1.42,3.66-1.57,1.88-.21,4.84.43,2.19-3-2.07-.52-5.48,1.36-6-1s-2-6.18,1.87-8A12.38,12.38,0,0,0,21.37,102c-.56-2-.87-3.82.26-5.66l0-3c-2.68-.15-1.32-3.15-2.89-4.08L17,89.21c.4,8.62-.92,17.06-2.34,25.53A38.49,38.49,0,0,0,14.53,126c.81,6.32,5,11.27,6.3,17.33,1.68,1.57,1.14,2.5-.86,3l-.22.17q0,1.32,0,2.63c5-.22,4.77,5.39,8,7.22,4.75-.48,2.15-5,1.7-5.41C24.87,146.43,25.59,139.57,21.77,134.87Z"/><path class="cls-1" d="M7.68,26.29c0-1.09.17-2.26-1-3-3.76-1,.11-3.48-1-5q0-1,0-2c.76-1.1.24-7-.49-8.62a12.31,12.31,0,0,1-.51-3.33C1.12,6.17,1.41,9.75,1,12.92-.72,26-.6,38.9,4.5,51.35c.6.22,1,.58.86,1.29l-.53.76C7.92,51,10.58,48.55,6.14,45c-.36-.29-.49-.85-.74-1.28-3.73-6.55-2.22-9.79,5.29-11.39l0-1.92C8.59,29.8,6.42,29.3,7.68,26.29Z"/><polygon class="cls-6" points="33.66 56.25 33.67 56.25 33.67 56.24 33.66 56.25"/><path class="cls-6" d="M49.74,47.41l.35.94c-4.51,1.17-7,6.41-12.31,6l-1,.94-1,.15a2.06,2.06,0,0,1-2,.78l.07,3.07h2c1.57-1.55,1.81-.35,2,1-.79,2.49-2.54,5.09.85,7.07a3.54,3.54,0,0,1,2-3.07c.13-1.12-.09-2.36,1.05-3.15,0-2,.16-4.45,2.65-4.38,2.17.06,3.55,2,3.54,4.41l1.91.11c5.18,3.91,8.08,3,11-3.32.4-.89.74-1.81,1.11-2.72a5.22,5.22,0,0,1-1-4H58.69c-1.72,2.09-.91,5-2.55,7.25-1.22,1.65-2.48,2.21-4.12,1.23-1.38-.83-2.46-1.75-1.44-4a12.92,12.92,0,0,1,8.14-7.51,7.93,7.93,0,0,1,5-1c1.1-.06,2.29.14,3.08-.94C61.05,46.12,55.3,45.31,49.74,47.41Z"/><path class="cls-7" d="M103.9,81.2c-2.17,1.35-3.78,1-5.15-1.32-1.55-2.61-3.37-5.06-5.07-7.58l-1,.1.95,4a3.43,3.43,0,0,1,.09.91,1.81,1.81,0,0,1,.87,2.11c.93,2.42,1.92,4.82,2.75,7.27.46,1.36,1,3.12-.33,4-1.16.76-2.38-.43-3.31-1.35-1.7.17-3.62-.69-5,1.06,1.53,2,3.17,4,3.24,6.67.53-.29,1.27-.46,1.54-.91.54-.88,0-2.52,1.6-2.65s1.37,1.41,1.81,2.38a31.08,31.08,0,0,0,2,3.28l2.84,0V96c2,2,2.11,4.09,2.15,6.23l.84.09a1.82,1.82,0,0,1,1.08,1.94q0,1,0,2l2.39,2a31.46,31.46,0,0,1-.27-3.46C108.13,96.65,102.55,89.51,103.9,81.2Z"/><polygon class="cls-3" points="91.71 15.29 91.71 15.29 91.72 15.29 91.71 15.29"/><path class="cls-3" d="M92.76,22.72c-.62.69-1.43,1.68-2.46.93-.88-.64-.61-1.8-.33-2.75.55-1.88,1.15-3.74,1.74-5.61l-2.87,0a11.91,11.91,0,0,0-3.09,5.12l-.56.8-.5,1c.55,4.17-2.66,7-3.62,10.65-.41,1.57-1.19,5-.53,4.77,2.37-.67,5.26,1.22,7.2-1.43,1.73-2.36,3.26-5.14,6.86-5l2.1-2c0-2.72,1.52-5.24,1.07-8C96,21.29,94.16,21.18,92.76,22.72Z"/><path class="cls-8" d="M104.82,65.2c-3.94-1.21-7.25-2.86-6.17-8,.23-1.12-.71-1.71-1.8-1.87a17.36,17.36,0,0,1-1.31,6.85l2.22,9.32c-2.82,0-3-4.06-5.81-3.16.49,1.36,1.83,2.35,1.74,4,1.7,2.52,3.52,5,5.07,7.58,1.36,2.3,3,2.67,5.15,1.32l.62-2c-1-.82-.67-1.4.32-1.87l.21-2.5a8.33,8.33,0,0,1,.9-6C106.72,67.34,107.38,65.73,104.82,65.2Z"/><path class="cls-9" d="M18.7,12.68a57.76,57.76,0,0,0-4-4.87C12.28,5.34,10,2.17,5.7,3.74l-.92.58-.05,0a12.31,12.31,0,0,0,.51,3.33C6,9.3,6.49,15.2,5.73,16.3c3.26-.37,6,.22,6.84,4,.39,1.68,1.56,2.92,3.07,2.55a3.93,3.93,0,0,0,2.71-3.72c0-1.29-.88-2.67,1.35-2.77l.09-2.12-.59-1A1,1,0,0,1,18.7,12.68Z"/><path class="cls-10" d="M108.15,108.25l-2.39-2-3,0-.06,3a2,2,0,0,1,1,2c1.17.47,1.57,1.61,2.3,2.5,1.25,1.53,1.48,2.91.15,4.4-1.75,2-2.51-.36-3.62-.94a26.86,26.86,0,0,1-2.83-1.94l-2,0c-2.21,1.28-5.16-2.62-7,1,2.67.67,3,2.28,2.3,4.74-.28.94-2.1,2.79.71,3.28,2.1-4.08,6.24-1.8,9.33-2.84,1.8-.6,3.78-.82,5.86-2.18l-1.4,6.82,1.26.24C112.55,120.17,110.33,114.21,108.15,108.25Z"/><path class="cls-6" d="M110.85,154.53c-.85-1.46-2.71-.9-3.69-2,4.37-3.37,1.1-5.2-1.16-7.22-1,1.77-3.24,2.68-3.3,5,.69,2.3.11,5.41,3.72,5.85-.22,1.59,2.84,2.12,1.22,4.29-1.3,1.74.76,2.05,1.6,2.79q2.53-2.65,4.92-5.55C113,157.43,111.94,156.42,110.85,154.53Z"/><path class="cls-11" d="M15.82,153.69c-4.43,2-4.24,7.1-6.94,10.29q1.18,1.21,2.38,2.36l0,0Z"/><path class="cls-9" d="M9.18,40.07c.92-1.14,1.71.15,2.5.59a1.63,1.63,0,0,0,2.23-.26c.68-.73.76-1.7,0-2.2-2.12-1.46-1.75-4.19-3.26-5.92-7.51,1.6-9,4.84-5.29,11.39.25.43.38,1,.74,1.28,4.44,3.59,1.78,6-1.31,8.44l.26,1.28c2.74-1,3.16,1.54,4.26,2.93,1.31-.44,1.12-1.52,1.41-2.46.47-1.56-1.8-3.33.1-4.53,2.06-1.3,3,1.72,4.78,1.77C14.52,48.84,11.9,46.2,10,43.11,9.45,42.13,8.24,41.24,9.18,40.07Z"/><path class="cls-1" d="M15.63,52.39c-1.82-.05-2.72-3.07-4.78-1.77-1.9,1.2.37,3-.1,4.53-.28.93-.09,2-1.41,2.46-1.09-1.4-1.51-3.92-4.26-2.93l.12,4.64c1.83,0,3.65,0,5.48.06,1.13,0,2.29,1.44,1.72,1.73-3.88,2-.2,6.22-2.79,8.41l2.9,4.56,1,.37.16-4.18a3.16,3.16,0,0,1,1.82-3c.22-1.4-.3-3,1.05-4.1.47-1.94-.68-4.16,1.05-5.87C17.6,55.39,16.39,54,15.63,52.39Z"/><path class="cls-8" d="M19.79,14.21l-.09,2.12c3.06,6.54,6.08,13.11,9.22,19.61a10.78,10.78,0,0,1,.87,3.3c.45,3.12.95,6.11,5.48,4.18,2-.84,3.12,1.61,4.89,1.94a1,1,0,0,1,.47-.6c-2.33-2.76-4.94-5.22-7.08-8.24C28.48,29.36,25.5,20.94,19.79,14.21Z"/><path class="cls-8" d="M94.87,33.25l-.26-2c-3.6-.13-5.13,2.64-6.86,5-1.94,2.64-4.83.76-7.2,1.43-.66.19.12-3.2.53-4.77,1-3.62,4.17-6.48,3.62-10.65-4.49,5.48-7.21,12.06-11,18,2.87,1.88,6.27-.85,9.14,1,2.32-2.08,5.86-.8,8.21-3.05,1.13-1.08,3-1.26,3.77-2.93-.54-.27-1.49-.47-1.55-.82C93,33.34,94.12,33.42,94.87,33.25Z"/><path class="cls-3" d="M84,47.18c-1.43-1.76-1.3-3.83-1.17-5.89-2.87-1.88-6.27.84-9.14-1l-.9,1.32a8.2,8.2,0,0,0-.06,4.73c5.21,1.39,8.26,5,10.17,9.82,5.56,1,3-3.06,3.06-5.22C86,49.49,83.46,49.07,84,47.18Z"/><path class="cls-2" d="M113,54.07c-1.74,5.76-3.52-.11-5.28,0l-4,0c-3,4,1.93,7.26,1.08,11.07,2.56.52,1.9,2.13,1.12,3.62a8.33,8.33,0,0,0-.9,6c2.42-2.91,1.28-7.76,4.61-9.86C114.21,62.1,114.54,58.52,113,54.07Z"/><path class="cls-9" d="M119.84,150.2c.32.58.61,1.22.89,1.87a.38.38,0,0,1,.44.25,13.22,13.22,0,0,0-.69-3.06Z"/><path class="cls-9" d="M109.74,135.73v1c.46,3.41-2.17,7.47,2.22,10.1.82.49,1.54,1.69,2.45,1.34,3-1.16,4.4.13,5.44,2l.64-.94C118.52,143.64,113.14,140.36,109.74,135.73Z"/><path class="cls-7" d="M40.63,44.76a1,1,0,0,0-.47.6l-.65,2.69c.93,3.54-1.1,3.81-3.75,3.41-1.91.06-1.92,1.5-2.06,2.84a1.81,1.81,0,0,1,2,1.16l1-.15,1-.94c5.28.39,7.8-4.85,12.31-6l-.35-.94C46.63,46.79,42.83,48.54,40.63,44.76Z"/><path class="cls-11" d="M10.68,59.38c-1.82-.07-3.65,0-5.48-.06C3.7,64,5,67.48,9.61,69.52c2.59-2.19-1.09-6.44,2.79-8.41C13,60.82,11.82,59.42,10.68,59.38Z"/><path class="cls-7" d="M69.71,46.34H66.76c-.8,1.08-2,.88-3.08.93-2.12.5-.56,3.69-2.92,4a5.23,5.23,0,0,0,1,4,6.14,6.14,0,0,0,3.85,1l-1.51-3.61c2.05.26,4,1,5.63-.36A8.9,8.9,0,0,1,69.71,46.34Z"/><polygon class="cls-3" points="91.72 15.29 91.72 15.29 91.71 15.29 91.72 15.29"/><path class="cls-3" d="M91.69,11.32l0,4h1c1.19-1.53,2.48-3,3.53-4.6,2-3.09,6.09-5,5.39-9.65C96.63,2.81,94.61,7.5,91.69,11.32Z"/><path class="cls-9" d="M18.72,79.29c-1.88,0-2.67-2.64-4.81-2l-.47.11-.48,0,1.25,4.81c2.18,1.34,2.24,3.49,2.19,5.69l.62,1.3,1.71.11a1.83,1.83,0,0,1,2-2l-1-3C17.16,83.1,17.61,81.26,18.72,79.29Z"/><path class="cls-6" d="M110.9,50.44a2.7,2.7,0,0,1-.44-.27l-1.68.24-1.09,3.69c1.76-.13,3.54,5.74,5.28,0C113.63,52.09,111.87,51.49,110.9,50.44Z"/><path class="cls-10" d="M108.4,129.48a27,27,0,0,0-1.5,8.08c.9-.42,1.58-1.61,2.84-.82,0-.33,0-.67,0-1C109.23,133.66,110.47,131.22,108.4,129.48Z"/><path class="cls-11" d="M17.09,152.38c1.81-.32,2.2-1.79,2.64-3.23q0-1.31,0-2.63C16.19,147.25,17.46,150.19,17.09,152.38Z"/><path class="cls-8" d="M70.11,46.19l2.61.1a8.2,8.2,0,0,1,.06-4.73C70.29,42.18,70.73,44.49,70.11,46.19Z"/><path class="cls-1" d="M14.2,82.22a7.24,7.24,0,0,0,2.19,5.69C16.44,85.72,16.38,83.57,14.2,82.22Z"/><path class="cls-8" d="M88.84,15.33l2.87,0,0-4A6,6,0,0,0,88.84,15.33Z"/><path class="cls-11" d="M20,146.34c2-.52,2.54-1.45.86-3C19.87,144.14,20,145.28,20,146.34Z"/><path class="cls-11" d="M12.51,74.08c-.15,1.15-.79,2.37.45,3.34l.48,0,.47-.11-.36-2.89Z"/><path class="cls-7" d="M104.52,79.21c.92-.49,1-1.11.32-1.87C103.85,77.81,103.49,78.39,104.52,79.21Z"/><path class="cls-1" d="M4.78,4.32l.92-.58C5.16,3.56,4.86,3.77,4.78,4.32Z"/><path class="cls-8" d="M18.7,12.68a1,1,0,0,0,.5.51l-.09-.41Z"/><path class="cls-8" d="M85.75,20.45l-.56.8Z"/><path class="cls-9" d="M4.5,51.35c-.21.75-.17,1.35.86,1.29C5.49,51.92,5.1,51.57,4.5,51.35Z"/><path class="cls-8" d="M108.76,46.3h0s0,0,0,0Z"/><path class="cls-8" d="M111.37,31.1c-2.69-.74-2.47-3.44-3.83-6.78a49.94,49.94,0,0,1-1.91,6.21c-1.58,3.29-1.4,7.47-4.84,9.85a6.4,6.4,0,0,1-1.13,3.89c0,.33,0,.74-.12,1-2.45,3.38-1.69,5.7,2.28,6.91,1.06.32,1.79.83,1.91,2l4,0,1.09-3.69-3.27-.25c1.22-1.4.74-3.7,3.21-3.85a2.2,2.2,0,0,1,1-2.15c2.25-3.8-.24-8.35,1.94-12.18A1,1,0,0,0,111.37,31.1Z"/><path class="cls-2" d="M95.93,34.22,94.8,35.31C94.07,37,92.16,37.15,91,38.23c-2.35,2.25-5.89,1-8.21,3.05-.13,2.07-.27,4.14,1.17,5.89a17.86,17.86,0,0,0,6.68,1.15c2.91,0,4.29-1.18,4-4.14-1.39-.25-3.48-.13-3-2.21s2.9-2.41,4.78-3c1.13-.37,1.87-.31,2.22,1,.74,2.81-2.79,1.52-3.09,3.29a7.35,7.35,0,0,0,4.12,1,6.41,6.41,0,0,0,1.13-3.89l-.26-5.19C98.85,35.6,97.5,34.41,95.93,34.22Z"/><path class="cls-9" d="M98.52,19.37c-2.8-.23-3.22-3.67-5.78-4.07h-1C91.13,17.16,90.53,19,90,20.9c-.28,1-.55,2.1.33,2.75,1,.76,1.84-.24,2.46-.93,1.4-1.55,3.21-1.44,5-1.43C98.55,20.8,98.85,19.39,98.52,19.37Z"/><path class="cls-7" d="M96.71,29.31l-2.1,2,.26,2,1.06,1c1.57.19,2.92,1.38,4.62,1,.3-2.45,3.11-4.37,1.51-7.48C100.36,28.68,98.73,29.77,96.71,29.31Z"/><path class="cls-3" d="M108.76,46.3c-2.52.13-2,2.44-3.25,3.85l3.27.25,1.68-.24Z"/><path class="cls-7" d="M103.17,25.47c.07.19.49.25.75.36l.34-.8-.79-.35C103.36,25,103.1,25.28,103.17,25.47Z"/><path class="cls-3" d="M108.73,46.33a2.14,2.14,0,0,0,1-2.18A2.21,2.21,0,0,0,108.73,46.33Z"/><path class="cls-3" d="M86.77,79.25c-1.33,0-2.55.07-3.13-1.63-.35-1-1.14-2.56-1.91-2.67-5.23-.74-5.87-7.14-10.6-8.39-.24-.06-.28-.88-.41-1.35l-2.95.18a1.83,1.83,0,0,1-2,1.91l-.28,2.88.16,4.06c0,.83.33,1.89-.05,2.46-3.58,5.3-.68,8.57,2.5,13s5.24-.51,7.59.54c.75-2.45,2.83-3.26,4.94-4,.15-1.51,1.64-1.88,2.41-2.85,1.94-2.43,3.11-2,3.6.88.31,1.84,1.08,3,3.07,3,.88-3-1-5.3-2.1-7.81Zm-6.76,1c-1.28,1.09-2.69,3-4.53,2s-3.66-2.57-2-5.76c1.35,2.6,1.69,2.59,3.65.53.87-.91,1.81-.61,2.62.15C80.76,78.07,81,79.35,80,80.21Z"/><path class="cls-6" d="M103.74,54.14c-.12-1.16-.85-1.66-1.91-2-4-1.22-4.73-3.53-2.28-6.91.17-.23.09-.65.12-1a7.35,7.35,0,0,1-4.12-1l-.91.92c.33,3-1.05,4.13-4,4.14A17.86,17.86,0,0,1,84,47.18c-.53,1.89,2,2.31,2,3.71-.07,2.16,2.5,6.19-3.06,5.22q0,1-.07,1.9c4.32,2.31,6.47,6.53,9.13,10.32,2.85-.91,3,3.2,5.82,3.16l-2.22-9.32c-1.64-.23-2.73,2.92-4.73.7-1.53-1.7-1-3.71-1-5.64,0-1.46,1.25-2.42,2.26-1.52,2,1.78,3.21-.62,4.81-.4,1.09.16,2,.75,1.8,1.87-1.08,5.15,2.23,6.8,6.17,8C105.67,61.4,100.76,58.15,103.74,54.14Zm-5.57-.48.07-.73c.07.13.2.27.19.39S98.26,53.54,98.17,53.65Z"/><path class="cls-6" d="M59,77c-6.23-10.68-3.54,3.56-6.66,1.79-1.61-2.72-3.85-5.19-4.57-8.49l-1,0c-.14,2.6-1.76.89-2.77,1a2.54,2.54,0,0,0,.78,2.65c2.76,2.21,4,5.25,5,8.5,1.59-1.48,1.84-.39,1.92,1l0,.05c3,0,5.13-2.71,8.31-2.54,1.54.08,1.58-1.75,1.81-3.06.37-2.11,1.29-3.75,3.84-3.57q-.08-2-.17-4.06C61.44,70.38,60.89,74.24,59,77Z"/><path class="cls-8" d="M85.7,73.3c-1.38,0-2-.69-1.74-2.1l-2.23-3c-3.43-1.9-6-6.85-11-3,.13.47.17,1.28.41,1.35,4.73,1.25,5.37,7.65,10.6,8.39.76.11,1.56,1.65,1.91,2.67.58,1.69,1.8,1.65,3.13,1.63l-1.06-5.94Z"/><path class="cls-6" d="M69.74,52.32c-1.65,1.39-3.57.61-5.63.36l1.51,3.61c2.83,1.54,5.6,3.24,8.53,4.57,1.49.68,3,1,3.18-1.9C77.73,53.82,76.47,52.45,69.74,52.32Z"/><path class="cls-11" d="M82.81,58c-1.62.65-3.92.94-1.91,3.53,1.35,1.74.4,3.82.93,5.68,3.35-1.32,6.15-1.4,6.88,3.1,1.43.48,2.22,2.15,3.94,2.07l1-.1c.1-1.62-1.25-2.61-1.74-4C89.28,64.55,87.13,60.32,82.81,58Z"/><path class="cls-7" d="M47.8,61.19l-6.19,0c-1.15.78-.92,2-1.06,3.15,2.18,0,2.18,1.54,2.09,3.11a2.2,2.2,0,0,0,.77.18c3.73-2.41,3.26.46,3.32,2.65l1,0c5.17-2,2.42-5.73,2-9Z"/><path class="cls-7" d="M81.84,67.23l-.1,1,2.23,3a1.85,1.85,0,0,1,1.74,2.1h0c2.19.2,3.28-.7,3-3C88,65.83,85.19,65.91,81.84,67.23Z"/><path class="cls-8" d="M65.74,67.3a1.83,1.83,0,0,0,2-1.91C66.34,65.23,65.72,65.92,65.74,67.3Z"/><path class="cls-8" d="M31.68,181.67c-1.41.48-3.31-1.08-3.71-2.66,0-.08,0-.15-.07-.22a76.75,76.75,0,0,1-8.36-5.44l-.82-.06v4l1,0c3.15,1.06,6.52,1.86,7,6l2,2c3.51-.37,5.81.77,6.18,4.66.11,1.1.51,2.64,1.77,2.66,1.65,0,1.85-1.72,2-2.94.27-1.94.88-3.74.59-5.9a65.88,65.88,0,0,1-6.71-2.69A1.91,1.91,0,0,1,31.68,181.67Z"/><path class="cls-8" d="M43.41,178.83c1.9.79,3.26-1.15,3.62-3.15.33-1.82,2.41-4-.42-5.33-2-.93-2.24-1.64-.77-3.14,2.8-2.87,4.56-7.12,9.56-7.07,1,0,1.22-1,1.38-1.81-3.49-.2-5.8-3-8.9-4-3.3-1.11-8.07-4.63-4.92,4.45-4.32-2.52-6-5.14-4.34-8.66,1.32-2.88.93-4-2.19-3.12-2.38.66-3.13-1.06-3.75-2.38-1.83-3.88-5.47-7.37-3-12.36a3,3,0,0,0-.27-2.41c-3.09-5.22,0-7.15,4.36-8.52q0-1,0-2c-3.17-1.93-3.38-4.28-1-7-.29-2-1.66-3.94.33-6,3.25-3.41.56-6.68-1.08-9.49s-4.29-2.38-6.94-.84c-.91.53-2.27.3-3.42.42-1.13,1.84-.82,3.65-.26,5.66a12.38,12.38,0,0,1-2.78,11.23c-.79,4,3.08,5.86,4.14,9,2.65,3.46-.31,2.82-2.19,3-1.37.15-3.22-.58-3.66,1.57-.32,1.59.28,3.41,1.58,3.91,2.08.81,2.22,2.74,3.31,4.09,3.82,4.7,3.1,11.56,7.6,16.07.46.46,3.05,4.93-1.7,5.41,2.47,6.79,1.67,14.28,4.53,21,.5,1.18,1.16,2.85.31,3.79a65.88,65.88,0,0,0,6.71,2.69c0-.12,0-.25,0-.37C38.82,181.54,37.3,176.3,43.41,178.83Zm-7.11-5.58c-1.13,0-2.55,0-2.23-1.74.29-1.55,1.75-1.17,2.83-1.19s2.37-.08,2.6,1.54C39,173.64,37.52,173.24,36.29,173.25Z"/><path class="cls-8" d="M19.54,173.35a76.75,76.75,0,0,0,8.36,5.44C26.64,174.32,23.24,173.66,19.54,173.35Z"/><path class="cls-6" d="M11.64,174.38c2.84-.21,4.37,2.75,7.06,2.92q0-2,0-4h0c-2.27,0-4.73.35-5-3a7.75,7.75,0,0,1-.92-2.52c-.52-.47-1-1-1.54-1.44C8.75,169.14,10.11,171.76,11.64,174.38Z"/><path class="cls-6" d="M11.28,166.31l0,0c.51.49,1,1,1.54,1.44A2.11,2.11,0,0,0,11.28,166.31Z"/><path class="cls-8" d="M13.71,170.3c.27,3.33,2.73,3,5,3a3.74,3.74,0,0,0-.24-.72q-1-.8-2.07-1.64C15.54,170.68,14.55,170.61,13.71,170.3Z"/><path class="cls-8" d="M16.42,170.92q1,.84,2.07,1.64A2.87,2.87,0,0,0,16.42,170.92Z"/><path class="cls-2" d="M78.76,184.3c4.41,0,2.63,4.07,4.05,6h2l1.87-1c1.05-2.56,1.63-5.52,5.13-6a2,2,0,0,0,.89-2c-1.67-1.5-.83-2.45.67-3.37,1.07-.66,2.88-1.2,1.95-2.77a70.07,70.07,0,0,1-17.15,8.66A1.7,1.7,0,0,0,78.76,184.3Z"/><path class="cls-2" d="M90.81,174c-2.16,2.65-4.62,1.47-7.08,1.3.91,2.12,3.19,4.31-.29,6.22-1.48.81-1.52-.36-1.74-1.28-1.7-.09-2.63,1.34-4,2a2.45,2.45,0,0,0,.44,1.59,70.07,70.07,0,0,0,17.15-8.66,3.37,3.37,0,0,0-.26-.38C94.06,173.54,92.07,172.48,90.81,174Z"/><polygon class="cls-12" points="88.71 160.29 88.72 160.3 88.72 160.3 88.71 160.29"/><path class="cls-12" d="M89.74,162.22l-1-1.92c-2.6-.71-1.29-3.78-3-5l-2.79,1.28-.11,1.82-2.28,3.71a4.51,4.51,0,0,1,.19,6.2l0,1.05c1.89,2.09.66,4.59.9,6.9q0,2,.07,4c.22.91.26,2.09,1.74,1.28,3.49-1.91,1.2-4.1.29-6.22,0-1.91,2.65-2.76,2-4.94q0-1.58,0-3.17Z"/><polygon class="cls-12" points="88.72 160.3 88.72 160.29 88.71 160.29 88.72 160.3"/><path class="cls-12" d="M96.77,148.35c-2.37.6-5.53-1.7-7.07,1.93,1.84,1.26,4.09,2.2,4,5l.42.25-.45-.21c-3.82-.5-5.42,1.22-5,5,1.47,0,2.9,0,3,2,2.51,2.94-2.41,2.86-2,4.94l1.95,2.07a9.71,9.71,0,0,0,5.08-5c-1.89-2.61-3.1-5.13,1-6.9C100,154.1,95.11,151.57,96.77,148.35Z"/><path class="cls-2" d="M97.71,157.39c-4.06,1.78-2.85,4.29-1,6.91,5.65-.11,5.65-.11,3-5A1.85,1.85,0,0,1,97.71,157.39Z"/><path class="cls-10" d="M98.73,149.29c-.4,2.35,1.09,3.28,3,3.92.07-1.06-.23-2.24,1-2.9.06-2.36,2.34-3.27,3.3-5l-1.17-1C100.61,143.29,101.83,148.91,98.73,149.29Z"/><path class="cls-7" d="M98.73,149.29a2,2,0,0,0-2-.94c-1.66,3.22,3.28,5.75.94,9a1.85,1.85,0,0,0,2,1.91c-.27-2.33,1.21-4.1,2-6.09C99.82,152.57,98.33,151.64,98.73,149.29Z"/><path class="cls-10" d="M85.73,167.21q0,1.58,0,3.16c2-.33,4.63,3.07,5.93-1.06l-1.95-2.07Z"/><path class="cls-12" d="M93.71,124.3c-2.81-.49-1-2.34-.71-3.28.73-2.46.36-4.08-2.3-4.74l-1,.76c.91,4.36-2.53,6.6-4.64,9.48a57.24,57.24,0,0,1-8.2,16.85c2.69.82,6.89-2.58,7.91,2.85H86.7l.91-5c-2.13.28-4.62-.05-4.36-2.51.3-2.77,3.54-3.64,5.72-4.77,2-1,1.57,1.18,1.73,2.33,2.33-2.75,5.17-5.15,6.13-8.85C92.88,129.3,92.55,127.55,93.71,124.3Z"/><path class="cls-8" d="M114.16,157.7c1.64.4,3.27-.81,4.88-3.26.53-.81,1.13-1.58,1.7-2.37-.29-.64-.57-1.28-.89-1.87Q117.11,154.13,114.16,157.7Z"/><path class="cls-8" d="M114.41,148.18c-.92.35-1.64-.85-2.45-1.34-4.39-2.62-1.76-6.68-2.22-10.1-1.25-.79-1.93.4-2.84.82.45,2.59-.66,4.69-2.07,6.71l1.17,1c2.27,2,5.53,3.85,1.16,7.22,1,1.15,2.84.59,3.69,2,1.1,1.89,2.2,2.9,3.31,3.17q2.95-3.57,5.68-7.5C118.81,148.31,117.42,147,114.41,148.18Z"/><path class="cls-4" d="M103,121.46c-3.09,1-7.23-1.24-9.33,2.84-1.17,3.25-.84,5,3.12,3.12,3.54-.55,6.63-4.73,10.67-1.33l1.4-6.82C106.83,120.64,104.85,120.86,103,121.46Z"/><path class="cls-10" d="M89.7,150.29l-2.87.06a9.35,9.35,0,0,0-.12.95l-1,4c1.73,1.24.41,4.31,3,5-.44-3.76,1.15-5.49,5-5l0,0C93.79,152.48,91.54,151.55,89.7,150.29Z"/><path class="cls-13" d="M80.72,150.3l-1,3c.38,2.11,1.05,4,3.12,5.12l.11-1.82c.59-2.24,1.35-4.36,3.79-5.26a9.29,9.29,0,0,1,.12-.95l-.1-1.07C84.61,148.92,82.72,149.93,80.72,150.3Z"/><path class="cls-4" d="M89,133.95c-2.18,1.13-5.42,2-5.72,4.77-.27,2.45,2.22,2.78,4.36,2.51a5.2,5.2,0,0,0,.17-.88c-1-1.68-1.38-3.19,1.08-3.92l1.85-.14C90.55,135.13,91,132.92,89,133.95Z"/><path class="cls-14" d="M84.81,146.22c-3-.3-4.62.83-4.09,4.08,2-.37,3.89-1.37,6-1q0-1.53,0-3.06Z"/><path class="cls-12" d="M98.66,134.61c-.67-.47-2-.47-2.22.23-.68,2.09,1.18,2.87,2.66,4.75C99.65,137.29,100.37,135.81,98.66,134.61Z"/><path class="cls-12" d="M88.85,136.42c-2.45.73-2.06,2.25-1.08,3.92C91,139.82,88.26,137.66,88.85,136.42Z"/><path class="cls-3" d="M77.74,107.28l0-3c-2,.17-5.13-.64-3.13,3.19,2.91,5.6,1.81,11.7-3.13,15.71-.48.39-1.31.37-1.21,1.3.59.85,1.39.73,2.18.4,1.26-.52,2.46-.47,2.83,1S74,127,73.31,127.6c-3,2.62-5,3.57-4.66-2,.21-3.36-4-5.55-2.61-9.54.47-1.39,2.52-3,.69-4.83q0-1.44.1-2.89c-1.29-5.58-5.16-7.86-10.5-6-1.84.64-3.84,2.18-5.17,0s.1-4.63,1.83-5.66c4.15-2.44,4.81-6.42,5.72-10.44-1.7-2.54-5.91,1-7-2.91l0-.05a2.12,2.12,0,0,1-1.92-1c-.93-3.26-2.2-6.29-5-8.5A2.53,2.53,0,0,1,44,71.19q-.15-.45-.27-.91c-5.7,1.28-9.64-2.43-14-5-4.86,5.53-7.26,12.35-10,19l1,3,.9,6.12q0,1.48,0,3c1.15-.12,2.51.11,3.42-.42,2.64-1.54,5.37-1.85,6.94.84s4.33,6.08,1.08,9.49c-2,2.09-.62,4-.33,6,1.08,2.23,3.19,4.31,1,7q0,1,0,2a21.45,21.45,0,0,1,3.48,3.44,4.11,4.11,0,0,1,.24,3.31c-.63,1.55-1.45.18-2.24-.21-1.8-.9-2.44.17-2.47,1.76a61.16,61.16,0,0,0,.08,7.93c.3,2.67,1.21,4.33,4.73,5,6.37,1.27,10.94,6.22,15.31,10.74,1.63,1.68,2.06,3.16,4.11.84,1.27-1.44,3.12-.66,4.71-.84l.13-3.08c-2.71-.28-5.59.93-8.14-.9-3.77-1.09-6.1-3-4.12-8.32,1.09,3.22,2.52,5.35,5.17,6.25,4.74.74,9.32-.84,14-1-.19-1.82,2-1.79,2.73-3-1.9-1.64-3.93-.61-5.73-1l-.05,0c-.19,1.55-.59,2.54-2,.76-4.37,0-9.31,1.72-12-3.78l-2.95-1c-1,2.46-1.5,3.51-3.87.45-2.54-3.28-4.58-6.23-4-11,3.5,2.4,1.48,9.44,7.8,8.5,4.24-2.89,8.62-2.75,13.08-.57l2.57-.09c1.17-.26,2.36-.59,3.32.53l1,.2c4.16-.57,4.5,3.24,5.5,5.51.72,1.62,1.46,1.28,2.45,1.42l.26.1a57.31,57.31,0,0,0,8.2-16.85l.55-11.2C83.25,112.4,81.11,109.24,77.74,107.28Zm-24.5,24.5A1.59,1.59,0,0,1,51.61,133c-.65-.05-1.41-.61-1.06-1.17a3.56,3.56,0,0,1,2-1.09C53,130.55,53.42,131,53.25,131.78Zm7.49-23.5c1.07.83.72,1.78.07,2.59-2.1,2.62-3,5.43-1.14,8.79-5.9-.56-8.71-4.45-9.31-8.8-.47-3.43,3.44-3.69,6.39-3.52,1.32-3.8,4.07-1.52,6.32-1.81C63.38,107.73,61,107,60.73,108.28Z"/><path class="cls-6" d="M18.59,113.26c-3.91,1.85-2.41,5.63-1.87,8s3.94.48,6,1C21.67,119.12,17.8,117.26,18.59,113.26Z"/><path class="cls-8" d="M18.72,89.33c1.56.94.21,3.93,2.89,4.08l-.9-6.12A1.83,1.83,0,0,0,18.72,89.33Z"/><polygon class="cls-3" points="33.67 56.24 33.66 56.24 33.66 56.25 33.67 56.24"/><path class="cls-3" d="M35.27,43.42c-4.53,1.94-5-1.06-5.48-4.18a10.78,10.78,0,0,0-.87-3.3c-3.14-6.5-6.16-13.07-9.22-19.61-2.23.1-1.32,1.48-1.35,2.77a3.93,3.93,0,0,1-2.71,3.72c-1.51.36-2.69-.87-3.07-2.55-.86-3.73-3.58-4.33-6.84-4q0,1,0,2c3.69,1-.08,3.47,1,5,1.12.75.91,1.92,1,3,1.64.88,3,2,3,4.07q0,1,0,1.92C12.2,34,11.84,36.75,14,38.21c.72.5.63,1.47,0,2.2a1.63,1.63,0,0,1-2.23.26c-.78-.44-1.57-1.73-2.5-.59s.27,2.06.85,3c1.86,3.1,4.48,5.74,5.59,9.28.76,1.59,2,3,2,4.9.24,2.06,2.87,4.55-1.05,5.88-1.35,1.11-.84,2.7-1.05,4.1,2.26,2.73-.43,2.48-1.82,3q-.08,2.09-.16,4.18l.36,2.89c2.15-.68,2.93,2,4.81,2l2.06-9a13.68,13.68,0,0,0,.2-2.44c-.48-5.08,2.19-5,5.74-3.58l2-4c-.13-2.14.53-3.73,2.9-4.09l2,0,0-1.94c.14-1.34.15-2.78,2.06-2.84a5.39,5.39,0,0,1,3.76-3.41l.65-2.69C38.39,45,37.24,42.58,35.27,43.42Zm-9.54,5.9c-.35,1.77-1.45,2-2.87,2-2.06,0-1.07-1.42-1.27-2.41-.9-4.53.82-6.6,6-6.07C26.87,45.24,26.14,47.25,25.74,49.32Z"/><path class="cls-9" d="M7.68,26.29c-1.27,3,.9,3.51,3,4.07C10.7,28.25,9.33,27.17,7.68,26.29Z"/><path class="cls-9" d="M5.73,18.29c1.11,1.51-2.76,4,1,5C5.65,21.76,9.42,19.28,5.73,18.29Z"/><path class="cls-9" d="M42.65,67.41l-1.87,0c-.7.87-1.39,1-2.07,0l-.15-.06c-3.39-2-1.64-4.59-.85-7.07a2.07,2.07,0,0,1-2-1h-2l-1,.08c.9,2.95-2.89,3.5-3,5.92,4.35,2.54,8.28,6.24,14,5q-.14-1.34-.28-2.69A2.14,2.14,0,0,1,42.65,67.41Z"/><path class="cls-9" d="M50.59,55.8c-1,2.22.06,3.13,1.44,4,1.64,1,2.9.42,4.12-1.23,1.64-2.22.82-5.16,2.55-7.25l0-3A12.92,12.92,0,0,0,50.59,55.8Z"/><path class="cls-2" d="M44.26,56.78c-2.49-.07-2.68,2.33-2.64,4.38l6.19,0C47.81,58.75,46.43,56.84,44.26,56.78Z"/><path class="cls-2" d="M58.72,48.29l0,3h2.07c2.36-.33.8-3.51,2.92-4A7.93,7.93,0,0,0,58.72,48.29Z"/><path class="cls-2" d="M40.56,64.31a3.54,3.54,0,0,0-2,3.07l.15.06h2.07l1.87,0C42.74,65.85,42.74,64.35,40.56,64.31Z"/><path class="cls-2" d="M31.61,56.2l.1,3.13,1,.07,1-.08-.07-3.08Z"/><path class="cls-2" d="M33.7,54.3l0,1.95a2.06,2.06,0,0,0,2.06-.78A1.81,1.81,0,0,0,33.7,54.3Z"/><path class="cls-8" d="M35.72,59.33a2.07,2.07,0,0,0,2,1C37.53,59,37.3,57.78,35.72,59.33Z"/><path class="cls-2" d="M36.74,55.31l1-.94Z"/><path class="cls-5" d="M91.92,97.08c-.07-2.72-1.72-4.67-3.24-6.67-1.6-1.69-3.22-.21-4.84,0h0c-.37,1.62,2.22,3.36-.19,4.91l.09,3c2.38,2.57,3.06,6.06,4.84,9,2.63-1,4-3.48,6.2-5a7.41,7.41,0,0,1,0-.93C93.14,100.36,91.59,99.34,91.92,97.08Z"/><polygon class="cls-14" points="99.72 115.29 99.71 115.29 99.71 115.3 99.72 115.29"/><path class="cls-14" d="M103.81,102.25c-2.16,0-2.08-1.55-2.14-3l-2.85,0c-1.74,0-2.7,1.47-4.07,2.15a7.45,7.45,0,0,0,0,.93c4.66,1.31,1.12,3.93,1,6,.17,2.48,2.4,4.37,2,7l2,0c-.2-2.6-.22-5.11,3-6l.05-3a1.76,1.76,0,0,1,1.9-2.05q0-1,0-1.94Z"/><path class="cls-6" d="M94.56,79.4c-2.33-1.26-4.65-.86-7,.06,1,2.51,3,4.79,2.09,7.81,1.54.29,3.74-.7,4,2.07.94.92,2.15,2.11,3.31,1.35,1.38-.9.79-2.66.33-4C96.47,84.22,95.48,81.82,94.56,79.4Z"/><path class="cls-2" d="M89.68,87.27c-2,0-2.75-1.19-3.07-3-.49-2.86-1.66-3.31-3.6-.88-.77,1-2.26,1.34-2.41,2.85-.55,2.65,2,2.89,3.23,4.16,1.61-.18,3.24-1.65,4.84,0,1.37-1.75,3.29-.9,5-1.06C93.42,86.57,91.22,87.55,89.68,87.27Z"/><path class="cls-2" d="M93.69,77.29l-1.28-.44,1.2-.48-1-4c-1.72.07-2.51-1.6-3.94-2.07.27,2.28-.82,3.18-3,3l1.06,5.94.82.21c2.32-.92,4.64-1.32,7-.06A1.81,1.81,0,0,0,93.69,77.29Z"/><path class="cls-10" d="M95.06,93.52c-1.63.13-1.06,1.76-1.6,2.65-.28.45-1,.62-1.55.91-.32,2.26,1.22,3.28,2.83,4.25,1.37-.68,2.33-2.17,4.07-2.15a31.08,31.08,0,0,1-2-3.28C96.43,94.93,96.75,93.39,95.06,93.52Z"/><path class="cls-5" d="M101.67,99.23c.06,1.47,0,3,2.14,3,0-2.14-.1-4.26-2.15-6.23C101.67,97.33,101.67,98.28,101.67,99.23Z"/><path class="cls-5" d="M104.66,104.28a1.76,1.76,0,0,0-1.9,2.05l3,0q0-1,0-2Z"/><path class="cls-10" d="M104.65,102.34q0,1,0,1.94h1.08A1.82,1.82,0,0,0,104.65,102.34Z"/><path class="cls-6" d="M92.41,76.85l1.28.44a3.48,3.48,0,0,0-.09-.91Z"/><path class="cls-2" d="M92,55.72c-1-.91-2.24.06-2.26,1.52,0,1.92-.51,3.93,1,5.64,2,2.22,3.09-.93,4.73-.7a17.33,17.33,0,0,0,1.31-6.85C95.25,55.1,94,57.5,92,55.72Z"/><path class="cls-5" d="M87.84,113.3l-1.1,1,.3,2.93a5.8,5.8,0,0,1,.63.06l2.06-.26,1-.76c1.88-3.62,4.83.29,7-1,.36-2.64-1.87-4.52-2-7C92,108.33,90.67,112,87.84,113.3Z"/><polygon class="cls-14" points="99.71 115.3 99.72 115.3 99.72 115.29 99.71 115.3"/><path class="cls-14" d="M103.72,111.27a4.16,4.16,0,0,1-4,4,26.77,26.77,0,0,0,2.83,1.94c1.11.58,1.87,2.89,3.62.94,1.33-1.49,1.1-2.87-.15-4.4C105.29,112.88,104.89,111.74,103.72,111.27Z"/><path class="cls-5" d="M102.7,109.28c-3.22.9-3.19,3.42-3,6a4.16,4.16,0,0,0,4-4A2,2,0,0,0,102.7,109.28Z"/><path class="cls-9" d="M16.58,63.16c3.92-1.32,1.29-3.81,1.05-5.88C15.9,59,17,61.22,16.58,63.16Z"/><path class="cls-9" d="M13.71,70.27c1.39-.53,4.08-.27,1.82-3A3.16,3.16,0,0,0,13.71,70.27Z"/><path class="cls-1" d="M93.25,34.49c.06.35,1,.55,1.55.82l1.13-1.08-1.06-1C94.12,33.42,93,33.34,93.25,34.49Z"/><path class="cls-2" d="M35.76,51.46c2.65.4,4.68.13,3.76-3.41A5.39,5.39,0,0,0,35.76,51.46Z"/><path class="cls-8" d="M31.71,59.33c-.72,1.18-1.91.92-3,1l-2,4a10.6,10.6,0,0,1-5.94,6l-2.06,9c-1.11,2-1.56,3.8,1,5,2.72-6.65,5.12-13.47,10-19,.13-2.42,3.92-3,3-5.92Z"/><path class="cls-11" d="M96.43,39c-1.88.61-4.28.83-4.78,3s1.61,2,3,2.21l.91-.92c.3-1.78,3.83-.48,3.09-3.29C98.29,38.64,97.56,38.59,96.43,39Z"/><path class="cls-8" d="M68.07,89.71C64.9,85.27,62,82,65.57,76.7c.39-.57.05-1.63.05-2.46-2.55-.19-3.47,1.45-3.84,3.57-.23,1.31-.27,3.14-1.81,3.06-3.17-.17-5.3,2.55-8.31,2.53,1.12,3.93,5.34.37,7,2.91,1.72.94,4,1.35,4,4,3.57.44,5.1,2.92,6,6,0,1.11-.16,2.3,1.05,3q.49,0,1,0c-.65-2.4,2-2.6,2.64-4,.8-1.64,2.95-2.75,2.28-5C73.31,89.2,71.3,94.24,68.07,89.71Z"/><path class="cls-6" d="M80.61,86.21c-2.11.78-4.2,1.59-4.94,4,.67,2.3-1.48,3.41-2.28,5-.67,1.37-3.29,1.58-2.64,4,1.92,0,4-.3,5,2v0c1.22-2.48,2.49-4.86,5.92-3H83.7l-.09-3c-.89-1.67-6.74-3.53.19-4.91h0C82.61,89.1,80.06,88.85,80.61,86.21Z"/><path class="cls-6" d="M77.15,77c-2,2.06-2.3,2.07-3.65-.53-1.68,3.19.19,4.79,2,5.76s3.26-.93,4.53-2c1-.86.75-2.14-.24-3.07C79,76.39,78,76.09,77.15,77Z"/><path class="cls-2" d="M98.17,53.65c.09-.11.25-.22.26-.34s-.12-.26-.19-.39C98.21,53.17,98.19,53.41,98.17,53.65Z"/><path class="cls-2" d="M43.42,67.59q.14,1.34.28,2.69c.08.31.17.61.27.91,1-.06,2.63,1.65,2.77-.95C46.68,68,47.15,65.18,43.42,67.59Z"/><path class="cls-8" d="M49.71,82.34a2.12,2.12,0,0,0,1.92,1C51.55,82,51.3,80.86,49.71,82.34Z"/><path class="cls-2" d="M84,71.2c-.27,1.41.36,2.06,1.74,2.1A1.85,1.85,0,0,0,84,71.2Z"/><path class="cls-6" d="M52.8,182c.4-.08.61-1.06.91-1.62-1.92-7.54,1.44-10.71,9.12-8.48a3.29,3.29,0,0,0,3.6-.81,2.77,2.77,0,0,0,.65-3.13c-2.28-8.44-2.24-8.45,3.09-16.72,1.72,1.68.7,4.5,2.56,6.1h0q0-4.46.07-8.92l-4.1,0a2,2,0,0,1-1.92,1,6.13,6.13,0,0,1-5,5l-5,4c-.16.84-.4,1.82-1.38,1.81-5-.05-6.76,4.2-9.56,7.07-1.47,1.5-1.27,2.22.77,3.14,2.83,1.28.75,3.51.42,5.33-.36,2-1.72,3.94-3.62,3.15-6.11-2.53-4.59,2.71-4.24,4.64,0,.13,0,.25,0,.37A61.73,61.73,0,0,0,49,186.28C48.79,184.16,49.66,182.62,52.8,182Z"/><path class="cls-9" d="M57,154.14c-2.05,2.32-2.49.85-4.11-.84-4.37-4.52-8.94-9.47-15.31-10.74-3.52-.7-4.43-2.36-4.73-5a61.16,61.16,0,0,1-.08-7.93c0-1.59.67-2.66,2.47-1.76.79.4,1.61,1.76,2.24.21a4.11,4.11,0,0,0-.24-3.31,21.45,21.45,0,0,0-3.48-3.44c-4.31,1.37-7.46,3.31-4.36,8.52a3,3,0,0,1,.27,2.41c-2.43,5,1.21,8.49,3,12.36.62,1.32,1.37,3,3.75,2.38,3.11-.86,3.51.24,2.19,3.12-1.62,3.52,0,6.13,4.34,8.66-3.14-9.08,1.62-5.56,4.92-4.45,3.1,1,5.42,3.83,8.9,4l5-4-.06-1C60.08,153.48,58.24,152.7,57,154.14Z"/><path class="cls-6" d="M19.68,177.33c.76,3.81,3.44,5.4,6.95,6C26.19,179.2,22.82,178.4,19.68,177.33Z"/><path class="cls-3" d="M36.89,170.32c-1.08,0-2.54-.35-2.83,1.19-.32,1.71,1.11,1.74,2.23,1.74s2.73.39,3.2-1.39C39.26,170.24,38,170.29,36.89,170.32Z"/><path class="cls-9" d="M33.73,119.29c2.21-2.69.1-4.77-1-7C30.35,115,30.55,117.35,33.73,119.29Z"/><path class="cls-4" d="M86.69,189.32c4,0,3.64-3.8,5.13-6C88.32,183.8,87.74,186.76,86.69,189.32Z"/><path class="cls-4" d="M69.72,190.32l3.12,1.15c2.5-.48,1.69-2.56,2-4.1.13-1.3.2-2.72,1.88-.94a2,2,0,0,0,2-2.12,1.7,1.7,0,0,1-.58-.46,62.24,62.24,0,0,1-6.73,1.86C70.76,187.2,72.16,189.52,69.72,190.32Z"/><path class="cls-4" d="M75.73,179.27c-1.06,0-2.18-.15-3,.85,1.43,2.08,2.55,4.11-1.05,5.17a1.66,1.66,0,0,0-.27.42,62.24,62.24,0,0,0,6.73-1.86,2.45,2.45,0,0,1-.44-1.59Z"/><path class="cls-10" d="M75.78,178.26l0,1,2,3c1.33-.66,2.26-2.08,4-2l-.07-4C79.27,175.71,78.19,178.93,75.78,178.26Z"/><path class="cls-7" d="M73.67,172.24c-.64.53-1.69,1.32-2.56.18a1.58,1.58,0,0,1,0-1.32c3.94-1.39,1.72-5.63,3.7-7.9-.11-1.13.09-2.46-1.41-2.84-2.32-.59-1-1.93-.69-3.06-1.86-1.61-.84-4.43-2.56-6.1-5.33,8.27-5.37,8.29-3.09,16.72a2.77,2.77,0,0,1-.65,3.13,3.29,3.29,0,0,1-3.6.81c-7.68-2.23-11,.94-9.12,8.48.7-.89,1.86-3,2.54-.92,1.8,5.58,3.44,2.1,5.2.25.38-.4.19-1.28,1.22-1.33v5.88h1.9c.88-2.77,5-3,4.62-6.56,1.85.44,1.57,3,3.58,2.46.78-1,1.91-.81,3-.85l0-1c-1-4.42,2.54-6.37,5-8.92l0-1C77.69,168.42,75.8,170.49,73.67,172.24Z"/><polygon class="cls-7" points="80.72 168.29 80.72 168.3 80.72 168.3 80.72 168.29"/><path class="cls-14" d="M79.68,153.26c-1.72-.09-2.23,2.25-4,2-1,.66-1.35,2.22-2.92,2h0c-.28,1.13-1.63,2.47.69,3.06,1.5.38,1.29,1.72,1.41,2.84l4.66-.06,1.05-1.05,2.28-3.72C80.73,157.3,80.06,155.38,79.68,153.26Z"/><path class="cls-5" d="M80.74,169.34c-2.42,2.55-5.91,4.5-5,8.92,2.41.66,3.49-2.55,5.86-2C81.39,173.94,82.63,171.44,80.74,169.34Z"/><path class="cls-4" d="M89.74,162.22l-4,5,4,0c-.41-2.09,4.51-2,2-4.94Z"/><path class="cls-14" d="M82.91,156.56l2.79-1.28,1-4C84.26,152.2,83.51,154.32,82.91,156.56Z"/><polygon class="cls-7" points="80.72 168.3 80.72 168.29 80.72 168.29 80.72 168.3"/><path class="cls-7" d="M80.53,162.1l-1.05,1.05c2,1.34,1,3.38,1.24,5.13A4.51,4.51,0,0,0,80.53,162.1Z"/><path class="cls-10" d="M88.71,160.29l1,1.93,2,.08C91.62,160.27,90.18,160.26,88.71,160.29Z"/><path class="cls-10" d="M93.7,155.31l.45.21-.42-.25Z"/><path class="cls-5" d="M76.9,143.37l-.26-.1c1.21,1.33.08,2.45-.32,3.64,2.37,3-1.27,5.51-.67,8.36,1.8.26,2.31-2.09,4-2l1-3c-.53-3.25,1.07-4.38,4.09-4.08C83.79,140.78,79.58,144.18,76.9,143.37Z"/><path class="cls-6" d="M87.68,117.3l-.42.59-.21-.64q-.15-1.47-.3-2.93l-1.09,1q-.28,5.6-.55,11.2c2.11-2.89,5.55-5.12,4.64-9.48Z"/><path class="cls-9" d="M68.72,96.3c-2.94-1.07-5.44-2.57-6-6,0-2.63-2.3-3-4-4-.91,4-1.57,8-5.72,10.44-1.74,1-3.12,3.54-1.83,5.66s3.33.65,5.17,0c5.34-1.87,9.21.42,10.5,6,3.43-2.24,2.63-5.85,2.95-9.09C68.56,98.61,68.76,97.41,68.72,96.3Z"/><path class="cls-9" d="M77.7,104.31c.2-1.57-1.38-2-2-3v0c-2.82-.29-4.66.58-3.86,3.79.55,2.19-.41,4.19-.1,7.83-1.78-4.57-3.43-1.6-5-1.6,1.83,1.85-.21,3.44-.69,4.83-1.35,4,2.82,6.18,2.61,9.54-.34,5.52,1.69,4.57,4.66,2,.66-.58,2.29-.33,1.93-1.73s-1.57-1.48-2.83-1c-.79.33-1.59.45-2.18-.4-.1-.92.73-.91,1.21-1.3,4.94-4,6-10.1,3.13-15.71C72.58,103.67,75.74,104.48,77.7,104.31Z"/><path class="cls-11" d="M64.36,135.59l-2.57.09c-2.63.53-5.24,1.16-7.89,1.55a2.23,2.23,0,0,0-2.22,2c2.65,5.5,7.58,3.75,12,3.78l2-.77.05,0,3-5.92-1-.2C66.53,136.21,65.34,136.59,64.36,135.59Z"/><path class="cls-1" d="M60.73,108.28l-4-.94c-2.94-.17-6.86.09-6.39,3.52.6,4.35,3.4,8.23,9.31,8.8-1.87-3.36-1-6.17,1.14-8.79C61.45,110.06,61.8,109.11,60.73,108.28Z"/><path class="cls-9" d="M74.19,141.84c-1-2.27-1.34-6.08-5.5-5.51l-3,5.92c1.8.39,3.83-.63,5.73,1-.76,1.21-2.92,1.18-2.73,3q0,1,0,2.1l4.1,0,0,0,1.06-1,2.49-.47c.4-1.19,1.53-2.32.31-3.64C75.64,143.12,74.9,143.46,74.19,141.84Z"/><path class="cls-1" d="M54.72,147.25a2.26,2.26,0,0,0-1,2.06c2.54,1.83,5.42.62,8.14.9l5-.9a2,2,0,0,0,1.92-1q0-1,0-2.1C64,146.42,59.46,148,54.72,147.25Z"/><path class="cls-1" d="M70.74,99.28q-.49,0-1,0c-.31,3.25.49,6.86-2.95,9.09q-.05,1.44-.1,2.89c1.6,0,3.25-3,5,1.6-.31-3.64.65-5.64.1-7.83-.8-3.21,1-4.08,3.86-3.79C74.71,99,72.66,99.29,70.74,99.28Z"/><path class="cls-9" d="M40.91,127.75c-.62,4.76,1.42,7.7,4,11,2.36,3.06,2.84,2,3.87-.45l0-2C42.39,137.19,44.4,130.15,40.91,127.75Z"/><path class="cls-8" d="M48.71,136.25l0,2,2.95,1a2.23,2.23,0,0,1,2.22-2c2.65-.39,5.26-1,7.89-1.56C57.32,133.51,52.95,133.37,48.71,136.25Z"/><path class="cls-8" d="M81.66,102.29q0-2,0-4c-3.42-1.86-4.7.52-5.92,3,.6,1,2.18,1.44,2,3l0,3h2c.05-1,3.22-1.2.5-3.15C78.48,102.87,80.63,102.55,81.66,102.29Z"/><path class="cls-9" d="M79.73,107.28h-2c3.37,2,5.51,5.13,7.9,8l1.09-1,1.1-1,.51-3.72a1,1,0,0,0-.63.11C84.48,110.78,82.42,108,79.73,107.28Z"/><path class="cls-9" d="M49.55,141c-2,5.29.35,7.22,4.12,8.32a2.26,2.26,0,0,1,1-2.06C52.08,146.35,50.65,144.22,49.55,141Z"/><path class="cls-8" d="M61.67,153.3l.06,1a6.13,6.13,0,0,0,5-5l-5,.9Z"/><path class="cls-9" d="M56.75,107.34l4,.94c.31-1.25,2.65-.55,2.33-2.75C60.82,105.82,58.07,103.54,56.75,107.34Z"/><path class="cls-8" d="M52.54,130.7a3.56,3.56,0,0,0-2,1.09c-.35.56.41,1.12,1.06,1.17a1.59,1.59,0,0,0,1.64-1.18C53.42,131,53,130.55,52.54,130.7Z"/><path class="cls-9" d="M65.67,142.29l-2,.77C65.07,144.84,65.48,143.84,65.67,142.29Z"/><path class="cls-8" d="M64.36,135.59c1,1,2.17.61,3.31.53C66.72,135,65.54,135.34,64.36,135.59Z"/><path class="cls-9" d="M21.6,48.87c.2,1-.79,2.42,1.27,2.41,1.42,0,2.53-.2,2.87-2,.4-2.07,1.13-4.08,1.83-6.52C22.41,42.28,20.69,44.34,21.6,48.87Z"/><path class="cls-9" d="M21,67.88a13.62,13.62,0,0,1-.2,2.44,10.6,10.6,0,0,0,5.94-6C23.17,62.86,20.49,62.8,21,67.88Z"/><path class="cls-6" d="M28.71,60.29c1.09,0,2.28.22,3-1q0-1.56-.1-3.13C29.24,56.57,28.58,58.15,28.71,60.29Z"/><path class="cls-6" d="M40.78,67.44H38.71C39.39,68.39,40.08,68.31,40.78,67.44Z"/><path class="cls-10" d="M94.74,102.26c-2.19,1.5-3.56,4-6.2,5l-1.37.09.45,1.06a.88.88,0,0,1,.72,1.18q-.26,1.87-.51,3.73c2.84-1.34,4.2-5,7.86-5C95.86,106.19,99.4,103.57,94.74,102.26Z"/><path class="cls-2" d="M81.64,98.29q0,2,0,4c3.15-.34,3.16,1.78,3.09,4v0l1,1,1.46.07,1.36-.09c-1.78-2.89-2.46-6.39-4.84-9Z"/><path class="cls-2" d="M83.8,90.37c-6.93,1.37-1.08,3.23-.19,4.91C86,93.73,83.43,92,83.8,90.37Z"/><path class="cls-10" d="M87.26,117.88l.42-.59a5.71,5.71,0,0,0-.63-.06Z"/><path class="cls-3" d="M62.73,90.28c.55,3.45,3,5,6,6C67.82,93.2,66.29,90.72,62.73,90.28Z"/><path class="cls-2" d="M62.67,184.23q0-2.94,0-5.88c-1,0-.84.93-1.22,1.33-1.77,1.85-3.41,5.32-5.2-.25-.68-2.09-1.84,0-2.53.91-.3.56-.51,1.53-.91,1.62-3.13.66-4,2.2-3.85,4.32a59.85,59.85,0,0,0,8.45.78C58.7,185.44,61.14,185.5,62.67,184.23Z"/><path class="cls-7" d="M76.32,146.91l-2.49.47-1.06,1,0,0q0,4.46-.07,8.92c1.57.18,1.93-1.38,2.92-2C75.05,152.41,78.69,149.9,76.32,146.91Z"/><path class="cls-12" d="M58.71,187.09l-1.31,0a3.58,3.58,0,0,0-.62,1.17c1.53.33,3.45-.71,4.56,1,1.36,2.08-2.73,1.63-1.92,3.56,3.29,2.11,5.37-2.23,8.36-1.4l1.93-1.06c2.45-.79,1-3.12,1.73-4.61A60,60,0,0,1,58.71,187.09Z"/><path class="cls-12" d="M71.45,185.71a1.66,1.66,0,0,1,.27-.42c-2.2-1.53-5.48,4.12-7.14-1.06h-1.9c-1.53,1.27-4,1.22-5.27,2.84l1.31,0A60,60,0,0,0,71.45,185.71Z"/><path class="cls-2" d="M74.84,187.36l1.88-.94C75,184.64,75,186.06,74.84,187.36Z"/><path class="cls-5" d="M69.19,177.67c.36,3.57-3.74,3.79-4.62,6.56,1.66,5.19,4.94-.47,7.14,1.06,3.6-1.06,2.48-3.08,1.05-5.16C70.76,180.68,71,178.11,69.19,177.67Z"/><path class="cls-12" d="M79.48,163.15l-4.66.06c-2,2.27.25,6.51-3.7,7.9a1.58,1.58,0,0,0,0,1.32c.86,1.13,1.91.34,2.56-.18,2.13-1.75,4-3.82,7.05-3.94C80.47,166.54,81.45,164.49,79.48,163.15Z"/><path class="cls-6" d="M73.83,147.38l-1.06,1Z"/><path class="cls-6" d="M81.66,102.29c-1,.25-3.18.58-1.43,1.83,2.72,2-.44,2.14-.5,3.15h0l5-1C84.82,104.07,84.81,102,81.66,102.29Z"/><path class="cls-8" d="M87.18,107.34l-1.46-.07c-1.56.87-.71-.6-1-1v0l-5,1c2.69.71,4.75,3.5,8,2.41l-.08-1.3Z"/><path class="cls-2" d="M87.63,108.4l.08,1.3a1,1,0,0,1,.64-.12A.88.88,0,0,0,87.63,108.4Z"/><path class="cls-6" d="M85.72,107.27l-1-1C85,106.67,84.16,108.14,85.72,107.27Z"/></g></g></svg>