<svg xmlns="http://www.w3.org/2000/svg" viewBox="0 0 105.1 148.78"><defs><style>.cls-1{fill:#d4a370;}.cls-2{fill:#b17039;}.cls-3{fill:#c8894c;}.cls-4{fill:#784820;}.cls-5{fill:#bd8857;}.cls-6{fill:#9f5e2b;}.cls-7{fill:#895226;}.cls-8{fill:#5c361b;}.cls-9{fill:#472b17;}.cls-10{fill:#9f6b3a;}.cls-11{fill:#6b3e1c;}.cls-12{fill:#b17c4c;}.cls-13{fill:#956133;}.cls-14{fill:#c3b2a1;}</style></defs><title>Asset 3</title><g id="Layer_2" data-name="Layer 2"><g id="Layer_1-2" data-name="Layer 1"><path class="cls-1" d="M50.48.2c-9.72.54-16.6,6.56-22,13.16-4,4.86-5,12.2-7.3,18.44,2-.54,3.4-2.76,5.83-2l.21-3.9c-.72-3.31.5-6.18,2-9a9,9,0,0,1,10.06-6.14c2.35.26,6.25,1.11,5.93-3.8-.06-.93,1.05-1.09,1.93-1l2,.75c.77.11,1.47.31,1.62,1.23a3,3,0,0,1,.34.81l8.79-.08,1-.94A12.07,12.07,0,0,1,64,6c3.59-.82,6,1.2,6.08,4.78,3.9.41,8.23-1.51,11.55,2.1.39-1.82-1.12-2.63-2-3.74C71.86-.24,61.35-.4,50.48.2Z"/><path class="cls-2" d="M24.11,80.81c-1.32,5.6-5.36,4.55-9.22,3.67-.77-.18-1.44-.86-2.17-.11s-.21,1.24.22,1.73c2.88,3.29-.81,3.49-2.57,5.09l-.69-4.95L6.1,87.84q-.05.48-.06,1c.1,2.13.8,4.7-2.93,4l0,3c.25.35.77.79.7,1-.3,1-1,.15-1.49.18L2,101.89l2.38,4.92c1.52,1.16,2.85,2.3-.29,3l-.88.51c-.46,3,2.11,2.22,3.57,2.84,2.7,1.13,5.53.62,8.32.67v-1c-1.11,0-2.23,0-3.34,0-4.21.27-3.79-1.49-1.77-4-5.21-.92-2.45-4.7-2.39-7.29,0-1,1.46-2,1.65-3.39A1.29,1.29,0,0,1,11,97.11c1,.31,1.29,1.46.77,2-2.61,2.47-.7,5.2-.69,7.81,1.45-.07,3,.17,4.09-1.16,0-1-.15-2.14.86-2.88l.94-1.07a4.86,4.86,0,0,0,.15-.83l.77-1.17.13,0-.12-1.87c-1.34-.1-1.69-1.35-2.51-2.07-3.52-3.1-2.34-4.86,1.52-6,1.29-.92,2.51-.27,3.74.16.43-.79,0-2.39,1-2.36,1.65,0,2.22,1.57,2.46,3.08l1.93.17a6.77,6.77,0,0,1,.93-.07C26.7,87.29,28.55,83.12,24.11,80.81Z"/><path class="cls-1" d="M89.69,26.2c-.63-4-1.32-8.27-5.58-10.46L85,22l1.24,5.76c2.15,2.57.11,5.08-.42,7.44-.38,1.73-.74,3.1.3,4.58,2.39.7,3.84,2.81,6,4,2.6,1.42,3.82,4.12-.06,6.62-.84-4-3.76-3.84-6.82-3.4l1,3.71c3.3-.22,4.55,2.8,7.15,4.54,1.06-1,1.15-3.41,3.31-3.29-.3-6.92-.63-13.83-4.81-19.8A13.49,13.49,0,0,1,89.69,26.2Z"/><path class="cls-3" d="M31.17,50.77c-1.5-.48-2.3-1.72-3.14-2.92-1.16-.17-3.07.34-2.45-1.82.81-2.83-.78-5-1.61-7.33-1.89-2.24-1.44-3.48,2.13-5.88l1.19-1.08q-.15-1-.3-2c-2.43-.73-3.84,1.49-5.83,2l-.4,2.58C18.9,39.1,21.4,44,20,48.76c1.67,0,2.67,1.08,3.64,2.2.82.95,2.68,1.82,2,3.06-1.08,1.85-2,0-3-.71-1.21-.82-2,.91-3.3.65L20,48.78c-2,0-4.28-.37-4,2.85.18,1.45-.53,3.13,1.1,4.2,3.89.38,2.27,2.89,1.9,4.92l.21,1.71,1.55.7c1.51-5.85,4.9-4,8.66-1.48.3-2-1.31-5.39,2.62-3.86q.21-1.54.43-3.08C32.06,53.43,30.87,52.36,31.17,50.77Z"/><path class="cls-3" d="M23,73.94c-1.69-.54-3.81-.58-3.71-3.19q-.12-.45-.2-.91a1.78,1.78,0,0,1-2-1.16l-1,.14c-.71,1.17-2,1.5-3.11,2C10.91,72,9.8,73.6,10.31,76,15,71.31,13.54,80,16.65,79.3L9.18,80.8C7.32,82,7.26,85.66,3.83,84.66a.71.71,0,0,0-.3.62c-.28,2,2.65.76,2.57,2.56l3.58-1.6.69,4.95c1.76-1.6,5.45-1.79,2.57-5.09-.43-.5-.81-1.13-.22-1.73s1.4-.07,2.17.11c3.86.88,7.9,1.94,9.22-3.67C24.12,78.45,21.24,76.58,23,73.94Z"/><path class="cls-4" d="M16.06,130.83a8.53,8.53,0,0,1,3.73-.26q-2.4-1.56-4.71-3.31C15,128.52,15,129.78,16.06,130.83Z"/><path class="cls-4" d="M27.1,131.8c4.82-.1,7.73,3.25,11,6l5.08-1c.18-3.36-2.11-3.14-4.35-3-1.37.06-2.86,0-3.26-1.59s1.32-2,2.26-2.79c2.12-1.88,5.81-.53,7.27-3.64-1.34-2-3.75,1.5-5-1l-2,0c-1.65,1.46-4.46,1.56-5,4.35-.25,1.28-1.05,1.57-2.18.89a14,14,0,0,0-1.69-1c-2.56-1.09-6.62,1.52-7.82-2.4-.84-2.74-.28-5.91-.35-8.89l-1,0-4.06,1.15-.25,1.31c.32,1.95,1,3.93-.58,5.68a12.22,12.22,0,0,1,0,1.39q2.3,1.75,4.71,3.31a8.49,8.49,0,0,1,1.33.31C23.12,131.13,25.33,130.07,27.1,131.8Z"/><path class="cls-2" d="M100.29,79.76a7.39,7.39,0,0,1-1.83.57c-1.88.08-4.56,1.05-5.17-1.28s.88-4.39,3.89-4.29c-1.2-2.4,1.44-6-2.45-7.79-1,2.2,2.42,6.05-2.46,6.57,1.28,5-4.18,6.53-5.27,10.3.77,3-2.13,7.78,4,8,2.7-6.11,6.11-8,12.68-7a3.45,3.45,0,0,0-.38-2.79Z"/><path class="cls-1" d="M96.59,59.25l-.83,5.59c-1.24-2.54-2.76-3.75-3.07-6-.27-2-1.65-3.23-3.52-.95,3.31,2.46-.69,5,.12,7.53,2.33,2.23,1.16,5.73,3,8.15,4.88-.52,1.41-4.37,2.46-6.57,3.89,1.79,1.25,5.39,2.45,7.79,1.87,1.15,2.56,3,3.11,5l3,2.3c.42-2-.85-3.51-1.58-5C99,71.36,99.78,64.74,96.59,59.25Z"/><path class="cls-1" d="M14.27,57.55c1.78-3.12-1.32-3.73-2.1-5.48a2.34,2.34,0,0,0-1,2.61c1.94,7.18,2.27,13.87-4.87,18.73-1,.71-.85,1.94-.27,1.88,3.43-.38,2,1.55,1,2.43-2.21,1.89-2.7,4.37-3.2,6.95,3.43,1,3.49-2.68,5.35-3.86L10.31,76C9.8,73.6,10.91,72,13,70.82l.22-4c-.63-3.35,1.9-5,3.78-6.94C15.28,59.94,13.34,59.19,14.27,57.55Z"/><path class="cls-3" d="M81.59,12.93c-3.32-3.61-7.65-1.7-11.55-2.1.74,1.82,3,2.63,3.24,4.77,3.34,1.76,5,4.46,4.74,8.3l1,1.05c2.07-.83,2.43-5.11,6-3l-.85-6.23Z"/><path class="cls-3" d="M103.71,84.86c-6.57-1-10,.9-12.68,7,2.06,0,1.85,1.58,2,2.92l2.14.1.88-.18a14.94,14.94,0,0,1,.57-1.87c2.6-5.8,2.76-5.85,8.07-3C104.66,88.15,104.84,86.38,103.71,84.86Z"/><path class="cls-2" d="M95,109.79c-.39,2,1.19,3.31,2.14,5.53-1.44-.29-2.42-.39-3.09-1.47-1.72,1.77-.6,4-1,6l1,1.1c3.33-1.82,3.36,1.92,5,3,.68-1.88-1.63-5.56,3-5l.23-1.49-2.22-5.56C98.5,110.84,97.11,109.38,95,109.79Z"/><path class="cls-3" d="M93.32,55.23c-2.6-1.74-3.85-4.76-7.15-4.54,1.55,1.89,1.09,3.23-1.12,4.09v2l.09.07c1.76-1.33,2.72.56,4,1,1.88-2.28,3.25-1,3.53.95.31,2.28,1.83,3.48,3.07,6l.83-5.59q0-3.65,0-7.31C94.47,51.82,94.38,54.21,93.32,55.23Z"/><path class="cls-1" d="M12.84,51.48l3.22.15c-.32-3.23,1.94-2.87,4-2.86h0c1.37-4.73-1.13-9.66.73-14.37C17.92,40,16.27,46.15,12.84,51.48Z"/><path class="cls-4" d="M103.05,93.91c-2.32.47-4.58,1.39-7,.8l-.88.18c-.5,2.11,1.07,3.4,2,4.95,2.18,1.9-.24,5,1.89,7,1.63-.06,1.56-.91,1.52-2.31-.06-2.44-.67-5.33,2.56-6.57q0-1.63,0-3.25A1.79,1.79,0,0,1,103.05,93.91Z"/><path class="cls-5" d="M6.76,113.16c-1.46-.61-4,.19-3.57-2.84-1.12-.21-2.16.17-2,1.35s1.21,2,2.6,2.56c3.91,1.53,8.33,1.34,12,3.67l1.26-1c-.58-1.06-1.94-1.61-1.95-3C12.29,113.78,9.46,114.29,6.76,113.16Z"/><path class="cls-2" d="M104.67,89.88c-5.31-2.9-5.47-2.85-8.07,3A14.86,14.86,0,0,0,96,94.71c2.44.59,4.71-.33,7-.8C104.34,92.87,105.85,91.92,104.67,89.88Z"/><path class="cls-1" d="M3.53,85.28C1,90.63-2.11,95.92,2,101.89L2.36,97l.8-1.22q0-1.5,0-3C2.94,90.66,3.5,89,6,88.8q0-.48.06-1C6.18,86,3.25,87.28,3.53,85.28Z"/><path class="cls-2" d="M16.06,51.63l-3.22-.15a1.13,1.13,0,0,0-.67.58c.78,1.76,3.87,2.36,2.1,5.48-.93,1.64,1,2.4,2.69,2.34l.18-.12q0-2,0-3.93C15.53,54.76,16.24,53.08,16.06,51.63Z"/><path class="cls-2" d="M17,116.86l-1.26,1,.17,1L20,117.72C19.26,116.54,18.08,116.9,17,116.86Z"/><path class="cls-5" d="M4.35,106.81l-.29,3C7.21,109.11,5.87,108,4.35,106.81Z"/><path class="cls-2" d="M59.56,17.08c-3.19-1.44-.19-5.4.57-8.19l-.22-.23-8.79.08a4.77,4.77,0,0,0,0,1.45c1.14,3.62,1.49,7-2.05,9.66a3.75,3.75,0,0,0,.87.11c2.35-1,3.3,1.82,5.23,1.95C58.94,19.56,61,21,61.85,25,63.33,21.71,64.48,19.29,59.56,17.08Z"/><path class="cls-6" d="M51.13,8.73a3,3,0,0,0-.34-.81c-.76-.12-1.41-.38-1.62-1.23l-2-.75c-.26,3.4,4.34,6.52.43,10.1-3.79-3.14-6.69-.76-9.56,1.8l-.05,1.77C46,15.68,42.21,23.94,44.48,26l1.67-1.06A1.82,1.82,0,0,1,48,23.77l.34,0c0-1.37-.59-2.84.76-3.95,3.54-2.62,3.19-6,2.05-9.66A4.77,4.77,0,0,1,51.13,8.73Z"/><path class="cls-2" d="M45.2,6.94c.32,4.91-3.58,4.07-5.93,3.8a9,9,0,0,0-10.06,6.14L32,16.83l.08-.08A1.77,1.77,0,0,1,34,14.84l3.07-1,.24-.43-.21.45c.11,1.38-.49,2.92.91,4,2.87-2.56,5.77-4.94,9.56-1.8,3.91-3.58-.68-6.71-.43-10.1C46.26,5.85,45.14,6,45.2,6.94Z"/><path class="cls-2" d="M64,6a12.13,12.13,0,0,0-3,1.67l.22.25c2-.14,3.93.39,1.64,2.4-4.57,4-1.63,4.25,1.9,4.6.95.09,1.26.91,1.45,1.73,2.4.68,4.51-1,6.85-.82l.25-.27c-.27-2.14-2.49-3-3.24-4.77C70,7.24,67.54,5.22,64,6Z"/><path class="cls-7" d="M37.23,29.09c-3.55-.79-3.22-3.5-3-6.14L32,23.79v0c-.85,2.43-3,2-4.83,2.11L27,29.78l.3,2L29,32.91a2.19,2.19,0,0,1,2.1-1.08c.26-1.17-.56-2.65,1.24-3.65,2.47,3.3,4,6.6,1.75,10.65a2,2,0,0,0,1.11,2l2.8-.08c.69-2.13,1.66-4.19-.41-6.26C36,32.92,36.31,31,37.23,29.09Z"/><path class="cls-6" d="M32,16.83l-2.79.06c-1.52,2.8-2.73,5.68-2,9,1.88-.09,4,.33,4.83-2.11C30.26,21.46,30.89,19.15,32,16.83Z"/><path class="cls-2" d="M49.17,6.69c.2.85.86,1.11,1.62,1.23C50.64,7,49.94,6.8,49.17,6.69Z"/><path class="cls-2" d="M59.92,8.65l.22.23,1-.93L61,7.71Z"/><path class="cls-6" d="M43.15,136.84l-5.08,1a6,6,0,0,1-.8.88q2,.61,4.08,1.08a3.71,3.71,0,0,0,1.27-.86C43.35,138.14,44.19,137.88,43.15,136.84Z"/><path class="cls-7" d="M19.79,130.56l1.18.75a4.1,4.1,0,0,0,.14-.44A8.49,8.49,0,0,0,19.79,130.56Z"/><path class="cls-7" d="M32.07,107.82h0l.24-.43-.24.43Z"/><path class="cls-7" d="M26,98.8l.06.09v0Z"/><path class="cls-7" d="M39.73,108.33C38.9,103,34.36,101,31,98c-1.51-1.36-.75-3.4-1.08-5.12l-1.82-2h-1a6.63,6.63,0,0,0-.93.07c0,1.45-.09,2.86-2.06,2.94L23.9,94c.79,1.6,2.08,3,2.17,4.87a4.8,4.8,0,0,1,.39.42s-.14.16-.22.25L28,105.77l.09,1.09a6.27,6.27,0,0,0,4,1h0l.24-.43-.24.43h0c-.12,3,3.41,5.62,1,8.88a2.9,2.9,0,0,0,3.06-1.87c1-1.77,1.92-3.34,4.52-2.41,2,.7,3.72-.46,5.36-1.51L42,109C41.18,108.76,39.78,108.65,39.73,108.33Z"/><path class="cls-6" d="M28.11,106.85c-1.44,1.63-3.35.73-5.05.95h0l-8,5v1c0,1.42,1.37,2,2,3,1.06,0,2.24-.31,3,.87l1,0c1.38-1.33,3.6-1.44,4.54-3.56.46-1,1.38-3.2,3.27-1.49,1.35,1.21,1.05,2.58-.41,3.73-.31.24-.27.91-.39,1.39a6.66,6.66,0,0,0,5-1.13c2.45-3.26-1.08-5.87-1-8.88A6.27,6.27,0,0,1,28.11,106.85Z"/><polygon class="cls-6" points="32.07 107.82 32.07 107.82 32.07 107.82 32.07 107.82"/><path class="cls-4" d="M15.2,105.71c-1.09,1.33-2.63,1.09-4.08,1.16v0l-1,1.11a2.29,2.29,0,0,1-.11.93c-2,2.49-2.44,4.24,1.77,4,1.11-.07,2.23,0,3.34,0l8-5C21,105,18,105.73,15.2,105.71Z"/><path class="cls-6" d="M23.11,73.79l-.16.15c-1.72,2.64,1.17,4.51,1.16,6.87,4.44,2.32,2.59,6.49,2.95,10h1c.12-3.17-1.06-7.63,4.94-5L33.16,82l-2-1.17C27.56,79.47,25.21,76.78,23.11,73.79Z"/><path class="cls-8" d="M26,98.88h0L26,98.8Z"/><path class="cls-8" d="M26,98.88c-1.36-.29-2.93.3-4-1l-1-1h0c-1.06.23-2.83-1.55-3.07,1.06q.06.94.11,1.87c2.3-.28,1.65,3.26,3.92,3,3-1.09,3.07,3.95,6,2.95l-1.77-6.24A3.54,3.54,0,0,1,26,98.88Z"/><path class="cls-7" d="M21.06,92.84h0l0,0Z"/><path class="cls-7" d="M17,89.84c-3.86,1.16-5,2.92-1.52,6,.82.72,1.17,2,2.51,2.06.24-2.62,2-.83,3.07-1.06l0-4C18.7,93.2,17.76,91.61,17,89.84Z"/><path class="cls-6" d="M11.11,106.88v0h0S11.11,106.86,11.11,106.88Z"/><path class="cls-6" d="M11,97.11a1.29,1.29,0,0,0-1.81,1.09c-.19,1.38-1.63,2.4-1.65,3.39-.06,2.59-2.82,6.38,2.39,7.29a2.29,2.29,0,0,0,.11-.93l1-1.11c0-2.6-1.9-5.32.69-7.77C12.32,98.57,12,97.42,11,97.11Z"/><path class="cls-9" d="M18.06,99.8l-.13,0-.77,1.17a4.8,4.8,0,0,1-.15.83l-.94,1.07c-1,.74-.83,1.84-.87,2.88,2.8,0,5.8-.71,7.86,2.09h0a7.14,7.14,0,0,0-1.08-5C19.71,103.06,20.36,99.52,18.06,99.8Z"/><path class="cls-7" d="M21.74,87.64c-1.08,0-.62,1.57-1,2.36l.39,2.81L23.9,94l.17-.16q.06-1.55.13-3.11C24,89.21,23.39,87.68,21.74,87.64Z"/><path class="cls-7" d="M21.06,92.8l0,0v0Z"/><path class="cls-3" d="M3.11,92.84c3.73.65,3-1.92,2.93-4C3.5,89,2.94,90.66,3.11,92.84Z"/><path class="cls-3" d="M17,89.84c.81,1.78,1.76,3.38,4.14,3L20.7,90C19.46,89.58,18.24,88.92,17,89.84Z"/><path class="cls-6" d="M24.07,93.82c2-.08,2-1.49,2.06-2.94l-1.93-.17Q24.13,92.27,24.07,93.82Z"/><path class="cls-3" d="M2.36,97c.52,0,1.19.81,1.49-.18.08-.25-.45-.69-.7-1Z"/><path class="cls-7" d="M17,101.76l-.94,1.07Z"/><path class="cls-7" d="M17.93,99.75l-.77,1.17Z"/><path class="cls-6" d="M79,24.95,77.3,26.88l-.19,1.07L76,28.8A1.91,1.91,0,0,0,74,30c.29,1,1.24,1.71-.23,2.88a6,6,0,0,0-1.74,8l2.95,2c1.28-1.83-3.81-5.77,2-6.09.74-1.94-1.8-4.43,1-6,.16-.72.16-1.71,1.23-1.47.37.08.56.95.83,1.46l0,0c3-.4,2.4-3.29,3.68-5.6l.31,3.69a2.33,2.33,0,0,0,2.07-1.14L85,22C81.41,19.84,81.06,24.12,79,24.95Z"/><path class="cls-10" d="M86.2,27.74a2.33,2.33,0,0,1-2.07,1.14c1.11,5.26-2.22,9.89-2.13,15L80.88,51.6c3.6-1.85,2.79,2.1,4.17,3.17,2.21-.86,2.67-2.2,1.12-4.09L85.2,47c.93-2.33,2.34-4.59.89-7.21-1-1.48-.68-2.86-.3-4.58C86.31,32.82,88.35,30.31,86.2,27.74Z"/><path class="cls-3" d="M92.08,43.75c-2.16-1.18-3.61-3.29-6-4,1.45,2.62,0,4.89-.89,7.21,3.06-.44,6-.58,6.82,3.4C95.89,47.87,94.68,45.17,92.08,43.75Z"/><path class="cls-4" d="M31.05,41.89c2.24-3.35.23-6.71,0-10.06A2.19,2.19,0,0,0,29,32.91,21.72,21.72,0,0,0,28,47.84c.84,1.2,1.64,2.44,3.14,2.92,1.62-1.94-.43-3.15-1-4.59C29.47,44.44,28.62,42.89,31.05,41.89Z"/><path class="cls-4" d="M21,64c-.07-.29-.14-.58-.2-.87l-1.55-.7c-1.8,1.38-4.18,2.05-5.23,4.34a1.84,1.84,0,0,0,2,2l1-.14c1.66-1.31,1.83-.1,2,1.16q.08.46.2.91a6.36,6.36,0,0,1,3.84,2.06C25.21,69.21,20.63,67.21,21,64Z"/><path class="cls-8" d="M34.07,38.83c-1.47,1-.7,2.7-1.16,4-.24.69-.58,1.74-1.57.9-.36-.3-.2-1.22-.28-1.85-2.43,1-1.58,2.55-.89,4.29.57,1.44,2.63,2.65,1,4.59-.3,1.59.89,2.66,1.37,4H35l-.9-7c-.6-2.47,1.14-4.59,1.06-7A2,2,0,0,1,34.07,38.83Z"/><path class="cls-2" d="M32.1,57.83c-3.94-1.53-2.33,1.91-2.62,3.86-3.76-2.48-7.15-4.38-8.66,1.47.06.29.13.58.2.87,3-1.09,5.79-2.44,9.22-1.3,1.86.61,1.55-2.17,2.76-2.92A2.07,2.07,0,0,0,32.1,57.83Z"/><path class="cls-2" d="M27.29,31.74,26.1,32.81A7.23,7.23,0,0,1,24,38.69c.83,2.37,2.42,4.5,1.61,7.33-.62,2.16,1.3,1.64,2.45,1.82A21.72,21.72,0,0,1,29,32.91Z"/><path class="cls-6" d="M23.67,51c-1-1.11-2-2.22-3.64-2.2h0L19.31,54c1.35.26,2.09-1.47,3.3-.65,1,.66,1.93,2.56,3,.71C26.35,52.77,24.49,51.9,23.67,51Z"/><path class="cls-4" d="M35,54.76H32.53q-.22,1.54-.43,3.08a2.07,2.07,0,0,1,.89,2c2,1.15.19,3.83,2,5a1.87,1.87,0,0,1,2-2C34.86,60.52,35,57.64,35,54.76Z"/><path class="cls-10" d="M17.14,59.76l-.18.12c-1.88,2-4.41,3.6-3.78,6.94l.86,0c1-2.29,3.43-3,5.23-4.34l-.21-1.71Z"/><path class="cls-1" d="M24,38.69a7.23,7.23,0,0,0,2.13-5.88C22.53,35.22,22.08,36.45,24,38.69Z"/><path class="cls-1" d="M17.16,55.83q0,2,0,3.93l1.92,1C19.43,58.72,21.05,56.21,17.16,55.83Z"/><path class="cls-6" d="M10.31,76,9.18,80.8l7.47-1.5C13.54,80,15,71.31,10.31,76Z"/><path class="cls-6" d="M19.25,70.75c-.1,2.62,2,2.65,3.71,3.19l.16-.15q0-.49,0-1A6.36,6.36,0,0,0,19.25,70.75Z"/><path class="cls-6" d="M14,66.8l-.86,0-.22,4c1.14-.51,2.4-.84,3.11-2A1.84,1.84,0,0,1,14,66.8Z"/><path class="cls-6" d="M17.09,68.68a1.78,1.78,0,0,0,2,1.16C18.92,68.57,18.75,67.37,17.09,68.68Z"/><path class="cls-9" d="M65.06,108.81c-2.31.75-4.26,2.73-7,2.07-1.17,3-3,2.25-5,.9-3.24-.84-4.27,3-7.34,3.31-3.34.37-6.47.82-9.69-.26A2.91,2.91,0,0,1,33,116.7a6.66,6.66,0,0,1-5,1.13c-1.49.22-3.8-.68-3.79,1.89s2.35,3.53,4.38,4c3.09.65,6.29.8,9.44,1.16l2,0c3.56-2.36,7.72-2.4,11.73-2.94,1.67-.23,3.06.18,2.76-2.65-.24-2.19,1.75-3.48,4.16-4.6A31.24,31.24,0,0,1,71,111.78a4,4,0,0,0,.07-1l-2-2Z"/><path class="cls-7" d="M38.07,137.82c-3.24-2.77-6.16-6.12-11-6A3.39,3.39,0,0,1,26,134.18a66.9,66.9,0,0,0,11.23,4.52A6,6,0,0,0,38.07,137.82Z"/><path class="cls-10" d="M46.94,129.78c1.44-2.25,4.94-1.24,6.12-3.9l0-1c-1.67.15-3.53-.61-4.89,1-.71,1-1.39,1-2-.07l-1,0c-1.46,3.11-5.15,1.76-7.27,3.64-.94.84-2.71,1.07-2.26,2.79s1.9,1.65,3.26,1.59c2.24-.1,4.53-.32,4.35,3,1,1,.19,1.3-.53,2.08a3.71,3.71,0,0,1-1.27.86q2.7.62,5.46,1a3.6,3.6,0,0,0,.31-1C47.64,136.44,44.53,133.16,46.94,129.78Z"/><path class="cls-8" d="M54.56,119.21c.3,2.83-1.08,2.43-2.76,2.65-4,.54-8.17.58-11.73,2.94,1.24,2.47,3.66-1,5,1l1,0,2,.07c1.37-1.62,3.22-.86,4.89-1l1.1-1.07c4-2.16,8-4.66,12.94-3-.14-.47-.14-1.1-.45-1.37-1-.89-3-1.07-2.41-3.14.54-1.75,2.35-.3,3.41-1.15.54-.43,1.58-.25,2.39-.34l1-3.06a31.24,31.24,0,0,0-12.27,2.83C56.31,115.73,54.33,117,54.56,119.21Z"/><path class="cls-8" d="M24.25,119.72c0-2.58,2.3-1.67,3.79-1.89.12-.47.09-1.15.39-1.39,1.47-1.15,1.76-2.51.41-3.73-1.9-1.71-2.81.47-3.27,1.49-.94,2.11-3.16,2.23-4.54,3.56.07,3-.49,6.15.35,8.89,1.2,3.92,5.26,1.31,7.82,2.4a14,14,0,0,1,1.69,1c1.12.68,1.93.39,2.18-.89.55-2.78,3.36-2.88,5-4.35-3.15-.36-6.35-.51-9.44-1.16C26.61,123.25,24.26,122.31,24.25,119.72Z"/><path class="cls-6" d="M27.1,131.8c-1.77-1.74-4-.68-6-.93a4.1,4.1,0,0,1-.14.44q2.48,1.54,5.07,2.86A3.39,3.39,0,0,0,27.1,131.8Z"/><path class="cls-6" d="M89.29,65.4l-.22.47c0,1.11.18,2.29-1,3,.22,3.33.51,6.68-2.05,9.71-1.6-2.25-2.57-4.33-.94-6.8-1.12-1.16-.35-3.69-2.81-3.87a44,44,0,0,0-.18,12.88q0,3.52,0,7l1,0a4.14,4.14,0,0,1,3.93-4c1.09-3.78,6.55-5.31,5.27-10.3C90.45,71.13,91.63,67.63,89.29,65.4Z"/><path class="cls-7" d="M91,91.87c-6.17-.25-3.27-5.06-4-8a4.14,4.14,0,0,0-3.93,4c-1,3.67,2.2,5.92,3,9l2.9,0c.73-1.1,1.86-1,3-.94l1.13-1.05-.06,0C92.89,93.45,93.1,91.89,91,91.87Z"/><path class="cls-6" d="M97.18,74.76c-3-.1-4.52,1.87-3.89,4.29s3.3,1.36,5.17,1.28a7.38,7.38,0,0,0,1.83-.57C99.73,77.8,99.05,75.91,97.18,74.76Z"/><path class="cls-2" d="M89.17,57.87c-1.32-.44-2.28-2.33-4-1L84.66,59c-.13-.09-.34-.15-.38-.26a1.62,1.62,0,0,1,.75-2q0-1,0-2c-1.38-1.08-.57-5-4.17-3.17l.06.14a1.78,1.78,0,0,1-1,2.1l-.18,3.93-.66,7.08a1.78,1.78,0,0,1,1.95,2l1.17,1.06c2.46.19,1.69,2.72,2.81,3.87,2,0,2-1.48,2-2.92-.16,0-.38,0-.47-.11-1.65-1.82-4.56-4.39-2.68-6.15s3.1,2.48,5.14,3.28l.22-.47C88.48,62.91,92.48,60.33,89.17,57.87Z"/><path class="cls-2" d="M73.27,15.59l-.25.27c0,1.7-1.46,3.11-.9,4.9A13,13,0,0,1,76.89,24L78,23.89C78.31,20.06,76.61,17.36,73.27,15.59Z"/><path class="cls-7" d="M76.89,24l.41,2.87L79,24.95l-1-1.05Z"/><path class="cls-2" d="M93.05,94.79l0,0-.06,0Z"/><path class="cls-2" d="M95.15,94.89l-2.09-.1-1.1,1c-1.1,0-2.22-.16-3,.94-3.73,3.68,1.26,4.77,2.11,7.09a4.56,4.56,0,0,1,.94-.11c.33-3.08,2.78-3.4,5.08-3.91C96.22,98.29,94.65,97,95.15,94.89Z"/><path class="cls-4" d="M94,121l-1-1.1-2,0c0,2.08,0,4.16,0,6.23s-1.12,2.77-3,2.67c-1.92.68-3.77,5.34-5.84,0-.45-1.18-2.07.25-3.16,0-1.69.51-2.78,1.82-4,3,1.37,1.78.25,3.48-.19,5.18-.14.53-.42,1.08-.57,1.61a68.82,68.82,0,0,0,18.63-9C93.82,126.8,93.15,123.73,94,121Z"/><path class="cls-6" d="M90.78,108.19c.14-1.5-1.58-1.27-2.69-1.39-2.75.14-4.24,3.4-7.55,2.82-.85-.15-4.15,2.35-.79,4.63,1.65,1.11,1.24,2.91,1.34,4.53,2.11.49,4-.73,6-.92,1.85-.34,2.63,1.42,4,2l2,0c.39-2-.74-4.23,1-6C93,111.95,90.51,111,90.78,108.19Z"/><path class="cls-7" d="M97.13,99.84c-2.31.51-4.75.83-5.08,3.91L95,109.8c2.13-.42,3.52,1,5.1,2h0l-1.05-5C96.89,104.88,99.31,101.74,97.13,99.84Z"/><path class="cls-11" d="M95,109.8,92,103.74a4.54,4.54,0,0,0-.94.11,3.09,3.09,0,0,1-3,2q0,.47,0,.94c1.1.12,2.83-.11,2.69,1.39C90.51,111,93,111.95,94,113.86c.66,1.08,1.65,1.18,3.09,1.47C96.17,113.1,94.59,111.81,95,109.8Z"/><path class="cls-2" d="M103.26,100.17l-.15-2.26c-3.23,1.24-2.62,4.14-2.56,6.57,0,1.4.11,2.25-1.52,2.31l1.05,5c1.43-.3,3.64,2.14,4.21-1.2C101.12,107.41,101.76,103.83,103.26,100.17Z"/><path class="cls-1" d="M62,25h-.11c-.87-4-2.91-5.41-6.68-3.06-.23,1.1.27,3-2,1.93A5.28,5.28,0,0,1,49.94,20a3.66,3.66,0,0,1-.87-.11c-1.35,1.1-.78,2.58-.76,3.95,3.62,3.46,8,4.12,12.73,3.43.82-.12.93-.74,1-1.39A2.2,2.2,0,0,1,62,25Z"/><path class="cls-6" d="M66.17,16.69C66,15.86,65.67,15,64.72,15c-3.53-.35-6.47-.6-1.9-4.6,2.29-2,.32-2.53-1.65-2.4l-1,.93c-.76,2.79-3.77,6.75-.57,8.19,4.91,2.21,3.76,4.63,2.28,7.89H62L65,24.81a3,3,0,0,0,.09-.83q0-.6,0-1.21C66.13,20.87,63.06,18.23,66.17,16.69Z"/><path class="cls-3" d="M49.94,20a5.28,5.28,0,0,0,3.23,3.88c2.27,1.05,1.77-.84,2-1.93C53.23,21.78,52.29,19,49.94,20Z"/><path class="cls-3" d="M71.06,29.66c-1.45-1.75-4.14,4.55-5-.77-1.2-.71-.85-2-1.06-3-1,1.65-2,1-2.92,0-.07.65-.18,1.27-1,1.39-4.74.69-9.11,0-12.73-3.43l-.34,0c-.31.86-1.05,1-1.82,1.13L44.48,26l-.76,2.3c.68,3.31,2,1.27,3.17.38,1-.74,2.15-1.26,2.86.19.53,1.1-.33,2-1.33,2.21C42.6,32.41,41.64,37.47,39.92,42a5,5,0,0,0-.11.74c.68,2.22-.94,5.65,3.18,6.08.74-2.05-1.27-5,1.93-6.24a6.45,6.45,0,0,1,3-3.75c.61-5,5-4.22,8-4.66,2.79-.4,2.86,2.53,3.09,4.66l0,0a3.9,3.9,0,0,1,1,.1c3.81.32,6.38,1.1,3.42,5.75C62,47.07,64.48,48,66.21,49l.78-.26A41.32,41.32,0,0,1,67.15,43c.41-2.54,1.47-3.28,2.95-.5l1.93.34q0-1,0-2a6,6,0,0,1,1.74-8c1.47-1.17.51-1.9.22-2.87Z"/><path class="cls-9" d="M37.95,19.61a7,7,0,0,0-.84.21l-2.06,2-.88,1.07,0,.06c-.19,2.64-.52,5.35,3,6.14l6.5-.82.76-2.3C42.21,23.94,46,15.68,37.95,19.61Z"/><path class="cls-3" d="M37.09,13.83l0,0-3.07,1a3.19,3.19,0,0,1-1.91,1.91l-.08.08c-1.12,2.31-1.75,4.63,0,6.93v0c1-2.24.64-6.15,5.07-4a7,7,0,0,1,.84-.21q0-.88.05-1.77C36.6,16.75,37.2,15.21,37.09,13.83Z"/><path class="cls-2" d="M46.14,24.91c.77-.11,1.51-.28,1.82-1.13A1.82,1.82,0,0,0,46.14,24.91Z"/><path class="cls-6" d="M32.09,16.76A3.19,3.19,0,0,0,34,14.84,1.77,1.77,0,0,0,32.09,16.76Z"/><path class="cls-3" d="M37.09,13.83l.21-.45-.24.43Z"/><path class="cls-7" d="M66.17,16.69c-3.12,1.55,0,4.18-1.07,6.09a6.22,6.22,0,0,0,.91.06c1.89-1.14,3.05-4.4,6.12-2.08-.56-1.79.94-3.2.9-4.9C70.69,15.65,68.57,17.36,66.17,16.69Z"/><path class="cls-12" d="M46.89,28.64c-1.2.9-2.48,2.93-3.16-.37l-6.5.82c-.91,1.86-1.23,3.82.33,5.38,2.07,2.07,1.1,4.12.41,6.26l.14,1.06,1.81.18c1.71-4.51,2.68-9.56,8.49-10.93,1-.23,1.86-1.12,1.33-2.21C49,27.38,47.87,27.91,46.89,28.64Z"/><path class="cls-11" d="M31.08,31.83c.2,3.35,2.22,6.71,0,10.06.08.63-.08,1.55.28,1.85,1,.84,1.33-.21,1.57-.9.46-1.31-.31-3,1.16-4,2.29-4,.72-7.35-1.75-10.65C30.52,29.18,31.34,30.66,31.08,31.83Z"/><path class="cls-6" d="M35.17,40.81c.09,2.39-1.65,4.51-1.06,7,3.08-.84,2.32-4.22,4-6L38,40.74Z"/><path class="cls-6" d="M32,23.79,34.2,23l0-.06.88-1.07,2.06-2C32.68,17.64,33,21.55,32,23.79Z"/><path class="cls-8" d="M46.4,99.5c-1.21,1.11-2.75,2.48-4,1-.9-1.07-.59-3.12.31-4.62s1.65-2.73,2.47-4.09c.25-2.42-.46-4.69-1.08-7l-10-3a4.53,4.53,0,0,1-.91.1v0L33,85.79c5.3,1.39,5.73,6.38,7.78,10.2C38,94.93,37,92.45,35.07,89.76c-.29,4-3,2.88-5.19,3.09.33,1.72-.43,3.76,1.08,5.12,3.4,3,7.94,5.08,8.77,10.36.05.32,1.45.43,2.23.64.78-2.68-.06-7,5.21-5.15l1.75-1.05.17-2.94C48.2,99.58,47.36,98.62,46.4,99.5Z"/><path class="cls-11" d="M33,85.79c-6-2.61-4.82,1.85-4.94,5l1.83,2c2.15-.21,4.9,1,5.19-3.09,1.92,2.69,3,5.17,5.7,6.23C38.73,92.17,38.29,87.18,33,85.79Z"/><path class="cls-8" d="M47.2,109.71,46,110.91c-1.64,1.05-3.41,2.21-5.36,1.51-2.61-.93-3.54.64-4.52,2.41,3.22,1.07,6.35.63,9.69.26,3.07-.34,4.1-4.15,7.34-3.31C52.56,107,49.18,110.38,47.2,109.71Z"/><path class="cls-9" d="M42,109l4,1.95,1.22-1.2q0-2.95,0-5.89C41.89,102,42.73,106.28,42,109Z"/><path class="cls-3" d="M21.06,92.8q0,2,0,4.07h0l1,1c1.12,1.31,2.71.7,4.07,1C26,97,24.7,95.59,23.9,94Z"/><path class="cls-4" d="M22,102.82a7.14,7.14,0,0,1,1.08,5c1.7-.22,3.61.68,5-1L28,105.77C25,106.77,25,101.73,22,102.82Z"/><path class="cls-3" d="M26.25,99.53c.08-.09.23-.23.22-.25A5.89,5.89,0,0,0,26,98.8,3.54,3.54,0,0,0,26.25,99.53Z"/><path class="cls-6" d="M32.07,107.82l.24-.43-.24.43Z"/><path class="cls-2" d="M10.08,107.94l1-1.11Z"/><path class="cls-7" d="M33,59.8c-1.2.76-.9,3.54-2.76,2.92C26.81,61.59,24,62.94,21,64c-.38,3.18,4.2,5.18,2.07,8.77q0,.5,0,1c2.09,3,4.45,5.68,8,7l-1.06-7,0-1.06c-1-1.22-2.75-1.76-3.31-3.51-.41-1.26-1.17-2.56-.2-3.7,1.17-1.39,2.37-.06,3.54.33,1.57-.71,3.8,1.84,4.93-1C33.18,63.64,35,61,33,59.8Z"/><path class="cls-2" d="M33,72.76l0,1.05c.89.63,1.57,1.78.43,2.22-.93.36-1.27-1.15-1.41-2.12l-.92-.13-1.06,0,1.06,7,2,1.16v0a1.83,1.83,0,0,1,1-2.06c1.22-1,.88-2.52,1.13-3.83C35,74.57,35.21,72.87,33,72.76Z"/><path class="cls-7" d="M21,96.87l1,1Z"/><path class="cls-9" d="M72.13,20.76c-3.06-2.32-4.23.94-6.12,2.08L65.13,24a3,3,0,0,1-.09.83L65,25.87c.21,1.06-.15,2.31,1.06,3,1.72,0,3.54-.65,5,.77L74,30a1.91,1.91,0,0,1,2-1.18l1.08-.85.19-1.07q-.21-1.44-.41-2.87A13,13,0,0,0,72.13,20.76Z"/><path class="cls-7" d="M83.82,25.19c-1.28,2.3-.66,5.2-3.68,5.6-.36,2.23-.73,4.45-1.07,6.68-.12.77,0,2-1.08,1.78s-.79-1.56-1-2.46c-5.83.32-.73,4.26-2,6.09a2.21,2.21,0,0,0,1.16,2h1a4.93,4.93,0,0,1,1.29-3.5c1.57.48,1.7,2.66,3.51,2.54-.09-5.12,3.24-9.75,2.13-15Z"/><path class="cls-11" d="M78,30.78c-2.83,1.58-.29,4.07-1,6,.18.9-.2,2.25,1,2.46s1-1,1.08-1.78c.34-2.23.71-4.46,1.07-6.68l0,0Z"/><path class="cls-2" d="M75,42.88l-2.95-2,0,2c.41,2.35,1.68,3.8,4.17,4q0-1,0-1.94A2.21,2.21,0,0,1,75,42.88Z"/><path class="cls-7" d="M79.28,29.3c-1.06-.23-1.07.75-1.23,1.48l2.06,0C79.83,30.25,79.64,29.38,79.28,29.3Z"/><path class="cls-7" d="M76,28.8l1.08-.85Z"/><path class="cls-8" d="M78.49,41.35a4.93,4.93,0,0,0-1.28,3.51c.91.66.88,1.31,0,1.94l-.11,2c2.18,1.71-.27,3.36-.07,5q.08,1.48.16,3l2.62,1q.08-2,.17-3.93c0-.86.05-1.68,1-2.09l-.06-.14L82,43.89C80.2,44,80.06,41.83,78.49,41.35Z"/><path class="cls-7" d="M46.9,54.77a10.18,10.18,0,0,0-2.55,1.34c-1.9,1.84-4.21,2.64-6.16.91s-1.74-4.09-.13-6.2c.06-2.82-.4-5.75,1.76-8.11a4.67,4.67,0,0,1,.11-.74l-1.81-.18c-1.67,1.77-.92,5.16-4,6l.9,7c-.06,2.88-.15,5.76,2.05,8.07l.09,1.81a4,4,0,0,1,2,3.17c2.28-.25,4.58,2,6.85,0C49.12,63.64,46.31,59.09,46.9,54.77Zm-7.42,7.87a1.24,1.24,0,0,1-1.24-1.25c0-.72.35-1.21,1.43-1.22.28.35.87.79,1,1.33C40.83,62.25,40.2,62.68,39.48,62.65Z"/><path class="cls-11" d="M37.16,64.63l-.09-1.81a1.87,1.87,0,0,0-2,2c-1.13,2.85-3.36.31-4.93,1-.59,2.75,1.91,3.93,3,5.84,1.73-.29,3.47-.61,3.13,2.13C38.44,71,36,67.62,37.16,64.63Z"/><path class="cls-7" d="M83,97.91a2.22,2.22,0,0,1-1-2c-3.55,3.45-4.36-2.36-7-2.06h-.47l-.47,0c.24,1.93,1.77,3.22,2.23,5.22.73,3.24.73,5.47-2.28,7.49-1.34.9-2,2.82-3,4.28a4,4,0,0,1-.07,1l-1,3.06,1,.18c1.62-1.24,3.06-1.35,4.13.7l3.92,3.19,2-.14c-.09-1.62.31-3.42-1.34-4.53-3.36-2.27-.07-4.78.79-4.63,3.31.58,4.8-2.67,7.55-2.82q0-.47,0-.94C86.81,102.95,86.29,99.57,83,97.91Z"/><path class="cls-4" d="M74.08,93.83l-2,0-1.08,0c-1.75,1.33-2.46,3.43-3.76,5.08-.91,1.15-2.32,3.2-3.23-.14l-2.26.07.2,2.88a3.24,3.24,0,0,0,2.93,2.11c3.16.16,3.57,2.64,4.18,5l2,2c1-1.46,1.62-3.38,3-4.28,3-2,3-4.25,2.28-7.49C75.85,97.05,74.32,95.76,74.08,93.83Z"/><path class="cls-4" d="M59.09,87.78c-2.1,2-4.69.63-7,1,.35,2.95.92,5.89,1,8.85.06,2.63-.53,5.22-4.13,5.11l-1.75,1.05q0,2.95,0,5.89c2,.67,5.36-2.67,5.92,2.07,2,1.36,3.78,2.06,5-.9-1.69-2-4.35-3.19-4.89-6.09a5.11,5.11,0,0,1,1.76-4c.38-1.58.85-3.15,1.13-4.75.25-1.41-.21-3.52,1.55-3.73,2.24-.26,2,2.07,2.39,3.55C62.94,93.37,62.65,90.77,59.09,87.78Z"/><path class="cls-13" d="M62,101.73l-4.91,0-1,3,.42.24-.43-.22-2.89,0c.54,2.91,3.21,4.11,4.9,6.09,2.73.66,4.68-1.32,7-2.07q-.07-2.48-.15-5A3.24,3.24,0,0,1,62,101.73Z"/><path class="cls-8" d="M64.92,103.85q.08,2.48.15,5h4C68.49,106.48,68.07,104,64.92,103.85Z"/><path class="cls-12" d="M48.85,141c.65,1.48-1.6,3.4-.78,4.85,4.05-3.2,6.5-2.49,7,2.89L60,143.72a9.06,9.06,0,0,1,.06-1.49c.07-.34.13-.67.18-1-1.53.11-3.07.17-4.62.17A63.67,63.67,0,0,1,48.85,141Z"/><path class="cls-12" d="M51.73,132.92c-1,0-.55-1.35-.66-2.1a7.18,7.18,0,0,1-4.12-1c-2.42,3.38.7,6.65.18,10A2.65,2.65,0,0,1,48.85,141a63.67,63.67,0,0,0,6.78.37c1.55,0,3.09-.06,4.62-.17C61.14,135.44,58.63,133.08,51.73,132.92Z"/><path class="cls-2" d="M47.13,139.78a3.6,3.6,0,0,1-.31,1q1,.14,2,.25A2.65,2.65,0,0,0,47.13,139.78Z"/><path class="cls-11" d="M62,124.8c-2.47-1.61-5.4.38-7.9-1L53,124.87l0,1,1.86.2c2.74-.86,4.63,1.75,7.16,1.76l1-1.06A2.06,2.06,0,0,0,62,124.8Z"/><path class="cls-5" d="M53.06,125.88c-1.17,2.66-4.68,1.65-6.11,3.9a7.18,7.18,0,0,0,4.12,1c1-1.82,4.72-1.4,3.85-4.73Z"/><path class="cls-4" d="M48.13,125.87l-2-.07C46.74,126.87,47.41,126.88,48.13,125.87Z"/><path class="cls-9" d="M79.07,118.91l-3.92-3.19c-1.51.57-3.24,2.4-4.13-.7l-1-.17c-.81.09-1.85-.1-2.39.34-1.06.85-2.87-.6-3.41,1.15-.63,2.06,1.36,2.25,2.41,3.14.31.27.31.9.45,1.37s0,.65,0,1a2.07,2.07,0,0,1,1.05,2c3.33,2.2,7.21,2.4,11,3.06,3,.31,4.3-2,4.67-4C84.31,119.6,80.34,120.64,79.07,118.91Z"/><path class="cls-7" d="M54.12,123.8c2.5,1.37,5.42-.61,7.89,1a6.35,6.35,0,0,1,5-3q0-.49,0-1C62.13,119.14,58.16,121.64,54.12,123.8Z"/><path class="cls-7" d="M80.12,76.75l-3.06.06c.13,3-1.58,6,0,9,1.19,1.71,3.15,2.13,4.9,2.9q0-.46.08-.92,0-3.52,0-7Z"/><path class="cls-7" d="M86.67,67.61l.39.22,0,0V67.8Z"/><path class="cls-7" d="M83.93,62.59c-1.88,1.76,1,4.33,2.68,6.15.09.1.31.07.47.11h0q0-.48,0-1l0,0-.39-.22.43.19v.07l.88,1,.07,0c1.2-.7,1-1.87,1-3C87,65.07,85.85,60.79,83.93,62.59Z"/><path class="cls-3" d="M88,68.89l-.87-.06h0c0,1.44,0,2.89-2,2.92-1.63,2.47-.67,4.55.94,6.8,2.56-3,2.28-6.38,2.05-9.71Z"/><path class="cls-2" d="M83.07,87.83l-1,0q0,.46-.08.92,0,3.57,0,7.14a2.22,2.22,0,0,0,1,2l3-1.1C85.27,93.75,82,91.51,83.07,87.83Z"/><path class="cls-3" d="M81.08,66.84v0l0,0Z"/><path class="cls-3" d="M81.08,66.84c-1.1,3.23-1,6.57-1,9.91l1.93,4a44,44,0,0,1,.18-12.89Z"/><path class="cls-6" d="M89,96.76l-2.9,0-3,1.1c3.25,1.65,3.77,5,5,7.94a3.09,3.09,0,0,0,3-2C90.25,101.53,85.26,100.44,89,96.76Z"/><path class="cls-3" d="M93.07,94.77l-1.13,1.05Z"/><path class="cls-11" d="M75.08,61.65A2.88,2.88,0,0,1,72,64.83c-1.16,4.2-4.11,7.66-4.93,12l-1,2c1.62,2.75.12,4.47-2,6l.08,3,3.84,0,5.07-2c.2-2.55.5-5.12-.92-7.55,4.31,1.15,2.45,4.92,2.94,7.66q0,.44,0,.88l1,0,1-1c-1.6-3,.11-6,0-9a15.64,15.64,0,0,1-2-6.37c0-1.86.35-3.61,2.81-3.64l1.19-2q.33-3.54.67-7.08l-2.62-1A5.75,5.75,0,0,0,75.08,61.65Z"/><path class="cls-3" d="M79.11,64.85l-1.19,2h3.14A1.78,1.78,0,0,0,79.11,64.85Z"/><path class="cls-3" d="M81.06,66.83l0,0h0Z"/><path class="cls-3" d="M84.28,58.77c0,.12.25.18.38.26l.47-2.17L85,56.79A1.62,1.62,0,0,0,84.28,58.77Z"/><path class="cls-10" d="M80,53.84a1.78,1.78,0,0,0,1-2.09C80,52.16,79.94,53,80,53.84Z"/><path class="cls-7" d="M74.89,137c.44-1.7,1.56-3.4.19-5.18l-4,.05c.42,1.51,2.87,3.5-1,4-1.86.11-3.44,1.07-3.51,2.85-.06,1.6,1.78.91,2.8,1.16l.12,0q2.44-.54,4.82-1.28C74.47,138.06,74.75,137.52,74.89,137Z"/><path class="cls-8" d="M81.1,118.77l-2,.14c1.26,1.73,5.24.69,4.67,3.91-.36,2-1.71,4.31-4.67,4v2c1.09.2,2.7-1.22,3.16,0,2.07,5.37,3.92.71,5.84,0a37.41,37.41,0,0,0-1-11C85.06,118,83.21,119.26,81.1,118.77Z"/><path class="cls-11" d="M67.05,125.76c1.41,1.36,4.19,1.84,3.09,4.81l.9,1.29,4-.05c1.2-1.16,2.3-2.47,4-3v-2c-3.76-.66-7.64-.86-11-3.06A2.14,2.14,0,0,0,67.05,125.76Z"/><path class="cls-11" d="M91,119.9c-1.35-.63-2.13-2.39-4-2a37.41,37.41,0,0,1,1,11c1.88.1,3.09-.49,3-2.67S91,122,91,119.9Z"/><path class="cls-2" d="M62,25.84c1,1,1.93,1.67,2.92,0L65,24.81,62,25A2.19,2.19,0,0,0,62,25.84Z"/><path class="cls-2" d="M65.13,24,66,22.84a6.3,6.3,0,0,1-.91-.06Q65.12,23.38,65.13,24Z"/><path class="cls-9" d="M62.07,44.77c-1.15-.13-2-.54-1.91-1.91L59,41.75a10.56,10.56,0,0,1-9.33.58c-1.79-.68-3.19-.17-4.76.23-3.21,1.28-1.2,4.19-1.94,6.24l1.24,1.91c1.4,1,2.81,2,2.66,4.07-.58,4.31,2.22,8.86-.9,13l.1,2.08L48,70.93c4.21-.06,8.44.29,12.59-.76a.74.74,0,0,0,.79,0c.27-2.82-2.6-4-3.24-6.39-1-.84-2.34-1.79-.78-3,2-1.57,2-3.92,2.82-5.94-1.92-1.57-.12-2.2.77-3.05C60.74,49.32,62.66,47.25,62.07,44.77Z"/><path class="cls-7" d="M77.07,48.81l.11-2h-1c-2.5-.15-3.76-1.61-4.17-4L70.1,42.5c-.43,2.38,1.36,5.86-3.11,6.24l-.78.26,0,2.72c5.31,1.39,5.4,1.64,3,9.4C68.56,58.4,68,56.57,65,57.73c-2.14.83-3.65-1.25-4.88-2.95-.84,2-.81,4.37-2.82,5.94-1.56,1.22-.18,2.17.78,3l9.39-.66c-3.15,1.18-2.21,3.73-2.41,5.77,4.44-.4,4.09-5,6.26-7.5,1.09,1.2.58,2.39.67,3.48a2.88,2.88,0,0,0,3.06-3.18,5.76,5.76,0,0,1,2.08-4.84q-.08-1.48-.16-3c-1.16-.29-3.15.57-3.34-.92C73.4,50.84,75.53,49.89,77.07,48.81Z"/><path class="cls-12" d="M63.48,44.68c3-4.65.39-5.43-3.42-5.75l-1,.9q0,1,0,1.92l1.13,1.12a1.7,1.7,0,0,1,1.91,1.91c.59,2.48-1.32,4.54-1.15,7,1.77,3.87,3.52,2.52,5.26,0q0-1.36,0-2.72C64.48,48,62,47.07,63.48,44.68Z"/><path class="cls-13" d="M48,38.8a6.44,6.44,0,0,0-3.05,3.76c1.56-.39,3-.91,4.76-.23A10.57,10.57,0,0,0,59,41.75q0-1,0-1.92l0-1,0,0Z"/><path class="cls-6" d="M56,34.14c-3,.44-7.39-.34-8,4.66H59.07C58.84,36.67,58.77,33.74,56,34.14Z"/><path class="cls-2" d="M39.82,42.71c-2.16,2.36-1.7,5.29-1.76,8.11,2.51-.13,2.15,3.07,4.35,3.68l1.83-3.8L43,48.79C38.87,48.37,40.49,44.94,39.82,42.71Z"/><path class="cls-2" d="M70.1,42.5c-1.48-2.78-2.54-2-2.95.5A41.21,41.21,0,0,0,67,48.73C71.46,48.36,69.67,44.88,70.1,42.5Z"/><path class="cls-7" d="M66,28.89c.84,4.92,3.21-.11,4.71.51C69.29,28.36,67.61,28.89,66,28.89Z"/><path class="cls-7" d="M71.06,29.66a.88.88,0,0,0-.34-.26A3.24,3.24,0,0,1,71.06,29.66Z"/><path class="cls-6" d="M59.07,39.83l1-.9a3.9,3.9,0,0,0-1-.1Z"/><path class="cls-7" d="M34.17,22.89l.88-1.07Z"/><path class="cls-7" d="M60.53,81.83c-6.72,2.27-12.39.75-17.44-3.94-1.86,2.63.68,4.61,1,6.92.61,2.28,1.32,4.55,1.08,7l3,0c1.53-.91-1.11-4.89,2.92-4,0-3.56,2-3.34,4.75-2.48-.73,2-2.27,2.26-3.81,2.55q0,.45.06.9c2.34-.39,4.93,1,7-1,.67-2.65,1.72-4.67,5-3,2.11-1.51,3.61-3.22,2-6C63.59,78.63,62.61,81.12,60.53,81.83Z"/><path class="cls-11" d="M39.15,67.8l1.52,9.35c-2,1-2.75-1.74-4.45-1.33a4.49,4.49,0,0,0-.95.19c-.25,1.31.09,2.8-1.13,3.83l-.07,2,10,3c-.33-2.31-2.86-4.29-1-6.92.49-1.66-3-4,.82-5.08a3.53,3.53,0,0,1,2.18-3L46,67.78C43.72,69.85,41.43,67.55,39.15,67.8Z"/><path class="cls-13" d="M52.06,88.81q0-.45-.06-.9l-.95-.07c-4-.92-1.38,3.06-2.92,4,0,2.7,2.5,5.12.95,8q-.09,1.47-.17,2.94c3.61.11,4.19-2.48,4.13-5.11C53,94.7,52.41,91.76,52.06,88.81Z"/><path class="cls-11" d="M45.17,91.77c-.83,1.36-1.66,2.72-2.47,4.09s-1.21,3.56-.31,4.62c1.26,1.49,2.8.13,4-1,1-.88,1.8.08,2.68.32,1.55-2.89-.92-5.31-.95-8Z"/><path class="cls-6" d="M33.16,81.9a4.53,4.53,0,0,0,.91-.1l.07-2A1.84,1.84,0,0,0,33.16,81.9Z"/><path class="cls-4" d="M30.1,65.87c-1.16-.39-2.37-1.72-3.54-.33-1,1.15-.21,2.44.2,3.7.57,1.75,2.27,2.3,3.31,3.51l1,1,.92.13a6.75,6.75,0,0,1,1-.09q0-.53,0-1.05l0-1C32,69.8,29.51,68.62,30.1,65.87Z"/><path class="cls-6" d="M30.06,73.81l1.05,0-1-1Z"/><path class="cls-6" d="M33.07,71.71l0,1c2.17.11,2,1.82,2.23,3.26a4.49,4.49,0,0,1,.95-.19q0-1,0-2C36.55,71.1,34.8,71.42,33.07,71.71Z"/><path class="cls-6" d="M33,73.81a6.75,6.75,0,0,0-1,.09c.14,1,.48,2.49,1.41,2.12C34.58,75.58,33.9,74.44,33,73.81Z"/><path class="cls-11" d="M77.21,44.85h-1q0,1,0,1.94h1C78.09,46.16,78.12,45.51,77.21,44.85Z"/><path class="cls-4" d="M77.07,48.81c-1.53,1.08-3.66,2-3.4,4.12.19,1.49,2.18.63,3.34.92C76.8,52.17,79.24,50.52,77.07,48.81Z"/><path class="cls-6" d="M44.24,50.7l-1.83,3.8c-2.2-.61-1.84-3.81-4.35-3.68-1.61,2.11-1.7,4.58.13,6.2s4.26.93,6.16-.91a10.14,10.14,0,0,1,2.55-1.34C47,52.74,45.64,51.72,44.24,50.7Z"/><path class="cls-9" d="M37.16,64.63c-1.16,3,1.28,6.34-1,9.21q0,1,0,2c1.7-.4,2.48,2.29,4.45,1.33L39.14,67.8A4,4,0,0,0,37.16,64.63Z"/><path class="cls-6" d="M39.67,60.18c-1.08,0-1.46.49-1.43,1.22a1.24,1.24,0,0,0,1.24,1.25c.73,0,1.35-.4,1.19-1.14C40.54,61,39.94,60.52,39.67,60.18Z"/><path class="cls-6" d="M77.09,85.83l-1,1-.86,2q-.09,2.49-.18,5c2.61-.29,3.43,5.51,7,2.06q0-3.57,0-7.14C80.23,88,78.28,87.55,77.09,85.83Z"/><path class="cls-8" d="M75.08,85.92h-.49l-.49,0-1,.91c-2.32,2-2,4.46-1,7l2,0,.47,0H75q.09-2.49.18-5l-.15-2Q75.06,86.35,75.08,85.92Z"/><path class="cls-8" d="M71,115c.89,3.1,2.62,1.26,4.13.7C74.08,113.67,72.65,113.78,71,115Z"/><path class="cls-8" d="M68,87.82l-3.84,0q-.05,5.47-.1,10.95c.91,3.34,2.33,1.29,3.23.14,1.3-1.65,2-3.75,3.76-5.08C70,91.83,67.62,90.53,68,87.82Z"/><path class="cls-13" d="M59.09,87.78c3.56,3,3.85,5.59.91,8.12.05,1.31-.07,2.73,1.78,3L64,98.79q.05-5.47.1-10.95l-.08-3C60.81,83.12,59.76,85.13,59.09,87.78Z"/><path class="cls-12" d="M60,95.9c-.42-1.48-.15-3.81-2.39-3.55-1.76.21-1.3,2.32-1.55,3.73-.28,1.6-.74,3.17-1.13,4.75a2.19,2.19,0,0,1,2.13.95l4.91,0q-.1-1.44-.2-2.88C59.93,98.63,60.06,97.21,60,95.9Z"/><path class="cls-7" d="M73.06,85.8l-5.07,2c-.37,2.71,2.05,4,3.05,6l1.08,0c-1-2.52-1.31-4.94,1-7q0-.5,0-1Z"/><path class="cls-10" d="M54.94,100.83a5.11,5.11,0,0,0-1.76,4l2.89,0,0,0,1-3A2.19,2.19,0,0,0,54.94,100.83Z"/><path class="cls-10" d="M56.07,104.83l.43.22-.42-.24Z"/><path class="cls-10" d="M60.07,142.23a9,9,0,0,0-.06,1.5c2.89-.24,5.79-.4,8.66-.77a2.24,2.24,0,0,0,2-1.93c.08-.74-.55-1-1.19-1.15a63.58,63.58,0,0,1-9.25,1.36C60.19,141.55,60.14,141.88,60.07,142.23Z"/><path class="cls-10" d="M66.57,138.69c.07-1.78,1.65-2.74,3.51-2.85-.52-2.32-4.89-1.61-4-5.06h-.48l-.47,0c-1.2,1.3-2.77,1.53-4.47,1.61-.74-2,1.77-2.81,1.37-4.54-2.53,0-4.42-2.62-7.16-1.76.87,3.33-2.87,2.91-3.85,4.73.11.76-.29,2.08.66,2.1,6.9.16,9.42,2.52,8.52,8.31a63.58,63.58,0,0,0,9.25-1.36l-.12,0C68.35,139.6,66.5,140.29,66.57,138.69Z"/><path class="cls-7" d="M67.05,125.76l-4,1-1,1.06c.4,1.73-2.11,2.58-1.37,4.54,1.7-.09,3.26-.31,4.47-1.61l.44-1.26.51,1.27h0l4-.21C71.24,127.6,68.46,127.12,67.05,125.76Z"/><path class="cls-8" d="M67.06,121.81a6.35,6.35,0,0,0-5,3,2.06,2.06,0,0,1,1.07,2l4-1a2.14,2.14,0,0,1,1.06-2A2.07,2.07,0,0,0,67.06,121.81Z"/><path class="cls-2" d="M77.92,66.8c-2.46,0-2.84,1.78-2.81,3.64a15.64,15.64,0,0,0,2,6.37l3.06-.06c-.06-3.35-.15-6.7,1-9.94Z"/><path class="cls-2" d="M87.06,67.83l0,0-.43-.19Z"/><path class="cls-2" d="M87.1,68.83l.87.06-.88-1Q87.09,68.35,87.1,68.83Z"/><path class="cls-2" d="M87.06,67.83l0,0V67.8Z"/><path class="cls-8" d="M46,76.79c-1.56-.87-1.66-2.51-2.08-4-3.79,1.12-.33,3.42-.82,5.08,5.05,4.69,10.73,6.21,17.44,3.94,2.08-.7,3.06-3.2,5.53-3l1-2-4.16-.07C57.77,81.4,52.42,81.41,46,76.79Z"/><path class="cls-9" d="M71.34,61.34c-2.17,2.47-1.82,7.11-6.26,7.5l-.52,1.4.11,1.32-.34,1.17-1.07,2.15-.34,1.88,4.16.07c.82-4.34,3.78-7.8,4.93-12C71.92,63.73,72.44,62.54,71.34,61.34Z"/><path class="cls-7" d="M72.13,78.26c1.43,2.42,1.12,5,.92,7.55l0,0,1,.09h1C74.58,83.17,76.44,79.4,72.13,78.26Z"/><path class="cls-7" d="M75.21,88.83l.86-2-1,0Z"/><path class="cls-2" d="M70.14,130.57l-4,.21c-.93,3.45,3.45,2.74,4,5.06,3.84-.47,1.39-2.47,1-4Z"/><path class="cls-5" d="M61.34,70.13a.73.73,0,0,1-.79,0c-3.76,3.61-9.58,4-12.59.76l-1.87-1.07a3.53,3.53,0,0,0-2.18,3c.42,1.47.51,3.11,2.08,4,1.47-2,3-.2,4.47,0,4.15.44,8.41,1.79,11.39-2.89.72-1.13,1.06.47,1.41,1l1.07-2.15.35-1.17q-.06-.66-.12-1.32Z"/><path class="cls-2" d="M66.18,51.71c-1.75,2.54-3.49,3.89-5.26,0-.89.86-2.69,1.48-.77,3.05,1.23,1.69,2.74,3.78,4.88,2.95,3-1.16,3.54.68,4.18,3.38C71.58,53.34,71.48,53.1,66.18,51.71Z"/><path class="cls-4" d="M61.34,70.13l3.22.12.52-1.4c.2-2-.74-4.59,2.41-5.77l-9.39.66C58.75,66.09,61.61,67.31,61.34,70.13Z"/><path class="cls-11" d="M48,70.93c3,3.2,8.83,2.85,12.59-.76C56.41,71.22,52.17,70.86,48,70.93Z"/><path class="cls-13" d="M60.15,42.87c-.09,1.37.77,1.78,1.91,1.91A1.7,1.7,0,0,0,60.15,42.87Z"/><path class="cls-4" d="M51.05,87.85l.95.07c1.53-.3,3.08-.59,3.81-2.55C53,84.51,51,84.28,51.05,87.85Z"/><path class="cls-11" d="M73.13,86.83l1-.91-1-.09Q73.11,86.33,73.13,86.83Z"/><path class="cls-2" d="M65.17,130.77l.47,0h.47l-.51-1.27Z"/><path class="cls-14" d="M61.85,73.86c-3,4.68-7.24,3.33-11.39,2.89-1.48-.16-3-1.92-4.47,0,6.44,4.62,11.78,4.61,16.93,0l.34-1.88C62.91,74.33,62.57,72.73,61.85,73.86Z"/><path class="cls-4" d="M64.33,72.74l.35-1.17Z"/></g></g></svg>