<svg xmlns="http://www.w3.org/2000/svg" viewBox="0 0 153.14 208.25"><defs><style>.cls-1{fill:#fcfbfa;}.cls-2{fill:#271e17;}.cls-3{fill:#ccc6c0;}.cls-4{fill:#372d22;}.cls-5{fill:#574c3f;}.cls-6{fill:#463b2f;}.cls-7{fill:#979185;}.cls-8{fill:#63594d;}.cls-9{fill:#7d766a;}.cls-10{fill:#c2bdb6;}.cls-11{fill:#b0a99e;}.cls-12{fill:#706759;}.cls-13{fill:#d4d0cb;}.cls-14{fill:#b9b5ae;}.cls-15{fill:#8c8578;}.cls-16{fill:#a49e92;}</style></defs><title>eng</title><g id="Layer_2" data-name="Layer 2"><g id="Layer_1-2" data-name="Layer 1"><path class="cls-1" d="M36.92,17.08h0v0Z"/><path class="cls-2" d="M58.7,109.18c-3-.65-1.27-3.31-2.07-4.93-1.07-2.16-2.82-3.58-4.34-5.28a9.63,9.63,0,0,1-2.55-5.75l-.79-.88-1-.22c-3.4-.77-4.6-2.62-2.87-5.89-.06-1.1-.28-2.25.82-3l-.89-14c-1.54-3.16-2.62-6.41-2-10-1.69-1.63-1.18-2.58.95-3h0c-.16-2.29,1-4.07,2.25-5.82,3.8-5.24,1.27-10-1.29-14.65-.51-.93-1.08-1.66,0-2.5a2.2,2.2,0,0,1,1-2v-2l.06-2H44c-2.18,2.28-2.12,5.13-2,8-3.72,3.93-2.23,8.29-1.6,12.89.55,4-1.24,7.15-6.36,5.13l.95,6c1.56,1.64.27,1.8-1,2v0a15.78,15.78,0,0,0,1.69,3c1.89,2.12,1.67,4.28-.69,5.26C32,70.59,33.23,67,32,66.09l-2.51,2.26c-.93-.95-.27-2.1-.42-3.13-1.23-1.34-2.87-1.67-3.68-.06-.67,1.33-2.59,3.25-.26,4.76,1.12.72,1.62,1.21.49,2.08C21,75.52,20.45,80.63,20,85.78c-.12,1.32-.52,2.27-2,2.31-2.07.06-4.3-.14-4.84-2.49-.7-3-2.81-3.33-5.22-3.45l-1.12,2c1.43.72,1.2,2,1,3.19a3.74,3.74,0,0,0,.13.91A1.73,1.73,0,0,1,10,90.2a6.23,6.23,0,0,1,0,1c1.74.91,2.5,2.18,1.36,4-.67,1.1-2,2.22-.64,3.43,1.21,1,2.8.68,4.2,0,.81-.41,1.58-1.61,2.56-.64s.26,2.12,0,3.26c-.92,4.52-3.9,7.89-6.36,11.52-2,3-2,6.12-1.1,9.39,1.46-1.64,1.53-4.57,4.43-4.86,1.12-.11,2.47-.46,3.15.78s-.27,2.08-1.18,2.9c-3.35,3-3.33,3-3.26,7.54,1.7-1.62,3.38-2.88,5.52-2.21,1.44.45,3.54.49,1.86,3.17-.94,1.51-2,3.41-.15,5.43.66.73-.7,1.16-1.5,1.31l1.35,2.92c1.43.19,4.07.63,3.15,2-3.47,5.1,1.38,3,2.88,3.72.95.48,2.67.29,2.47,1.89-.25,2-1.66.83-2.66.63-3.15-.62-4.45,2.4-6.72,3.53-1.16.58-1.8,1.43-2.63-.15l-.92.44c-.2,2-1.15,3.9-.43,5.95.5.36,1.33.64,1.45,1.11,1.16,4.47,4.12,5.06,8,3.9l.08-.09a1.75,1.75,0,0,1,2.44-1.59l2.64-2.3c2.71-3.34,6.85-4.14,10.48-5.82,1-.46,2.73-.22,2.25-1.88-.59-2-2-1.07-3.13-.31-2,1.41-4,.7-4.25-1.3-.33-2.48,2.25-.25,2.83-1,1.41-1.72,7.47.39,4.33-5.11a1.22,1.22,0,0,1,0-.91c5.61-1.24,2.7-3.72.95-6.1-.15-.21.24-1.18.39-1.19a3,3,0,0,1,1.78.39c.92.7,1.54,2.88,2.91,1.24,1.2-1.44-.19-2.41-1.64-3.34-2.16-1.38-2-3.89-2.19-6.72,2.34,1.59,2.93,5.29,6.36,4l.89-.93-.27-1c-2.31.36-3-1.65-4.37-2.74,2-3.19,5.45-.64,7.67-2.29-.88-4.3.73-7,5.07-8l-.54-2.74C57,111.95,59.85,110,58.7,109.18Zm-36.38-5.64c-2.37,0-1.17-2.55-1.3-4-.27-3.12-.3-6.27,3.85-7.85-.31,2.58-.89,4.87,0,7.29C25.52,101,24.52,103.51,22.32,103.54Zm7.37-22.94c-1.36-1.09-1-3,0-4.49,1.09-1.65,2.37-2.18,3.89-.37.26.31.9.3,1.37.43l.25-.41-.22.44c0,1.37-1,2-2,2.6S31.46,82,29.69,80.59Zm5.67,52c-1,.73-1.37-.51-1.18-1.28a3.16,3.16,0,0,1,2.94-2.75c1.06,0,1.58.92,1.51,1.92C38.8,133.15,36.42,131.77,35.37,132.55Zm13.14-11.17c-1.56,1.2-3.25,1.09-5.39-.12,1.73-1.77,3.22-2.64,5.15-1.6A1.09,1.09,0,0,1,48.51,121.39Z"/><path class="cls-3" d="M128.46,176.48c0-.11-.08-.22-.13-.32-4.83-1.16-3.14,4-5.46,5.58-1.44-1.28-.7-3-.92-4.53-1.91-4.66-6.41-7.37-8.84-11.63-.61-1.06-1.43-1.65-2.28-.6-2.21,2.74-4.29,2.14-6.81.39a1.79,1.79,0,0,0-2.88,1.52c.06,4.13-2.7,3.35-5.16,3.22a3,3,0,0,0-1.86,3.09c3.73.93,7.74-.86,11.25,3.19a8.47,8.47,0,0,1,1.86,8.86c-1.17,3.86-4.27.15-6.39.89l-.89.92-1,1.11a12.35,12.35,0,0,0-1.56,2c.88-.13,1.75-.29,2.62-.45a3.08,3.08,0,0,1,5.71-1.24c1.6-.4,3.18-.82,4.75-1.31a5.3,5.3,0,0,0-1-4.49c-1.53-2,.14-4.57,1-6.59.6-1.48,3.23-1.79,4.41-1.35a2.86,2.86,0,0,1,1.17,4.44,13.56,13.56,0,0,1-.18,6.14c2.81-1.06,5.57-2.26,8.28-3.58a3.15,3.15,0,0,1-.16-1C124,178.78,125.86,177.11,128.46,176.48Z"/><path class="cls-4" d="M144.06,108.13c-2.8-.23-5.56-.43-8.31.57-1.52.55-3.37,1.19-4.45-.66a3.39,3.39,0,0,1,.33-3.78c1.64-2.15,3.13-.09,5.22,1-.63-2.67-1.07-4.55-1.53-6.43-.25-1-.43-2.11.94-2.34s1.55.86,1.69,1.9c.42,3.29,1.29,6.25,5.26,6.8l0-1.69c0-1.59-1-3.48,1.36-4.31-.17-1.47-.57-3.32-1.93-3.59-3.2-.63-1.85-2.58-1.68-4.28-4.32-3.06,3.47-2.15.8-4.94-1.33-.4-3.91.78-5.58-1.28L131,84.2a27.57,27.57,0,0,0-.19,11.23c.59,3.11,1.35,6.93-2.87,9.16-1.65.87.62,3,.08,4.58.64.09,1.38.08,1.49.93,0,.17-.39.58-.56.56-.86-.11-.84-.85-.94-1.49-2.47-.49-3.69-5.36-6.17-3.21s-.08,5.83.8,8.72c.25.81,1.33,1.41,1.38,2.5,1.46,0,2.88,0,3,2,1.68-.19,3.35-1.37,5,0a9.2,9.2,0,0,0,2.58-4.06c.37-1,.86-2.49,2.37-.93,2.76-.05,5.35-1.51,8.18-1l3.92,0-1.52-2.94A3.77,3.77,0,0,1,144.06,108.13Zm-17.84,5.67c-.28-.12-.71-.18-.79-.38s.19-.54.31-.81c.28.12.71.18.78.37S126.35,113.53,126.23,113.8Z"/><path class="cls-5" d="M116.11,42.12l-.52.43L116,42c-.13-2.11-.15-4.21,1.07-6.08-1.66-2-3.86-3.11-4.3-6.63A30.71,30.71,0,0,0,107.25,16,31.25,31.25,0,0,0,96,6.39c-.18,1-.07,2.17-.63,2.78s-1.68-.1-1.94-.81c-.83-2.25-2.21-2.63-4.27-1.73-2.35,1-3,2.73-2.27,5.1.71,1.82,2.36,2.15,4,2.51,3.34-5.49,5.47-.43,8,.92a10.24,10.24,0,0,1,8,11c1.59,2.72,2.76,5.71,5,8-.21,3,2.62,6,0,9,0,1.31-.41,3,.24,3.88,2.62,3.53,1.42,6.31-1.06,9.14-.36.41-.21,1.27-.29,1.91.79,1.52,2.49,2.66,1.35,4.89-.68,1.32.41,2.11,1.78,2.26.34-3.29.52-6.69,5-7.09l.14-.14c.14-.76,0-1.91.48-2.23,1.58-1.11,4.29-1.23,2-4.41-.8-1.12,2.15-1,2.47-2.41a23.65,23.65,0,0,0-3.23-6.77C119.23,45.36,117.7,42.12,116.11,42.12Z"/><path class="cls-6" d="M14.88,98.59c-1.4.71-3,1.08-4.2,0-1.38-1.21,0-2.33.64-3.43,1.13-1.85.38-3.12-1.36-4-1.76,2.46-3.6,4.28-6.19.88a.33.33,0,0,0-.21.5c.51,1.17.44,2.15-.88,2.72C1.11,98.4-.8,101.59.36,105.19c2,6.1,4.3,12.08,6.48,18.12A.52.52,0,0,1,7,124l0,.07,2.84-.86.1-1.13c-.89-3.28-.95-6.38,1.1-9.4,2.46-3.63,5.44-7,6.36-11.52.23-1.14.92-2.32,0-3.26S15.7,98.17,14.88,98.59Z"/><path class="cls-6" d="M147,131.17c-.84-1.8-2.51-5.15-3.44-4.23-2.25,2.24-7.77,1.78-6.6,7.2.45,2.06-.25,4.3.68,6.37.33.74.51,1.79-.48,2.11-1.22.39-1.79-.63-2-1.62-.46-1.92-.87-3.86-1.16-5.81a2,2,0,0,0-2.36-1.9c-1.29.1-2.76,1.09-2.34,2,1.9,4.27-1.43,7.49-2,11.36-1.67.55-2.55-1.9-4.31-1.48.64,2,.82,4.31,2.88,5.62l3.19-.67,1,.74,1,.41c.84,0,2,.6,2.11-1l-.09-1.17-.41-.24.43.21,1,.61c3-1.34,6.37-2.17,8-5.52l-.7-.75.73-.35h0c1.2-2.19,3-1,4.59-.79l-.09-2.06a3.31,3.31,0,0,1-.37-4.15c-.27-1.16.51-2,.94-2.9Z"/><path class="cls-4" d="M25.39,58.39,25,58.16h0Z"/><path class="cls-4" d="M28.32,61.34c-2.64-.42.47-3.41-.44-5.13-1.74-.55-1.51-2.68-2.91-3.7-2.2,2,.14,3.82,0,5.66h0l.41.23L25,58.17h0c-2.6.07-3.55-3.2-6.18-3.07-1.73.65-.23,3.07-2,3.68-.16,1.3-.39,2.6-.47,3.91-.11,1.88-1.74,4.61,2.55,4a3,3,0,0,1,2.84,2.92c-.25,2.42-1.51.26-2.37.19C17.71,69.65,18,71,18,71.86a11.63,11.63,0,0,1-3.11,7.7c-2.2,2.54-2.93,1-2.94-1.45L8.07,79.65l-.16,2.5c2.41.12,4.52.41,5.22,3.45.54,2.35,2.77,2.55,4.84,2.49,1.48,0,1.88-1,2-2.31C20.45,80.63,21,75.52,25.57,72c1.13-.87.63-1.35-.49-2.08-2.33-1.5-.41-3.42.26-4.76.81-1.61,2.46-1.29,3.68.06C29.31,63.89,33.69,62.2,28.32,61.34Z"/><path class="cls-4" d="M36.9,17.11h0l0,0Z"/><path class="cls-4" d="M38.67,30.65c-2,.18-1.48,1.71-2.21,2.27-.48.37-1.17.82-1.66.72A1.08,1.08,0,0,1,34.23,32c2.66-3.9,1.67-9.15,4.79-12.86a2,2,0,0,0-2.13-2l-.8,1.1,0,.11a.61.61,0,0,1-.34.78c-1.78,2.45-4.14,4.65-3.48,8.13a3.64,3.64,0,0,1-1.81,5,.79.79,0,0,0-.5.8c.8,4.45-1.08,8.71-.93,13.12,3.81-.43,5,1.66,4.94,5.05l.07,2c5.13,2,6.92-1.13,6.36-5.13-.63-4.6-2.12-9,1.6-12.89C38.35,35.7,39.29,32.26,38.67,30.65Z"/><path class="cls-7" d="M124.86,168.13c-.41-4.91-1.38-9.58-5.41-13-2.14.85-.94,2.61-1.09,4-.64,4-2.55,5.22-4.85,2.68s-3.67-1.41-5,.52c-2.11,3.1-3.93,2.19-5.83-.11L99,162.16c-.78,1.83-2.33,2.09-4.06,2l-2.07,1.07a3.92,3.92,0,0,0,0,.86c1.43.11,3,0,3.11,2.1l0,1.91c2.46.13,5.21.91,5.16-3.22a1.79,1.79,0,0,1,2.88-1.52c2.52,1.75,4.6,2.35,6.81-.39.85-1.05,1.67-.47,2.28.6,2.43,4.26,6.92,7,8.84,11.63a6.5,6.5,0,0,0,0-7.37c-1-1.68-1.43-3.25-.47-5.1C123.81,164.76,122.34,168.43,124.86,168.13Z"/><path class="cls-5" d="M122.95,145.21c-2.27-.09-2.08,1.46-2,3,.58.36,1,.89.45,1.46s-1.1.12-1.44-.48l-2-.14c-.11,1.91-1.48,4-2.91,2.83-3.33-2.69-4.83.59-7.09,1.34l-.23.4.23-.4c-.49-2.06.34-4.55-2-6h0c-4.66,6.85-6.9,7.43-15.05,3.88l-1.06.21c1.19,6.45,6.94,3.21,10.43,4.73,1.36.59,3.22.31,4.68,1.19,4.33,2.71,7.07,1.13,8.42-3.17,3.52.23-1.31,7.58,5,5.15.15-1.39-1.05-3.15,1.09-4,.36-4,3.4-2.46,5.58-2.7l.79-1.63C123.77,149.52,123.59,147.24,122.95,145.21Zm-19.76,9.19a1.1,1.1,0,0,1,.09-.38c0-.06.19-.06.29-.09l.13.35Z"/><path class="cls-5" d="M126,56.17h0l.4.23-.41-.22h0c-2.39.2-4.12,2.88-6.84,1.85l-.14.14-3,12c2.09,1.81,4.58.54,6.86.88-.08-2.31,1.16-5-2.12-6.35-1.08-.45-.68-1.7-.08-2.58,1.42-2.07,3.88-2.38,5.93-3.24.88-.37,1.35,1.13,1.45,2.15,0,.33,0,.67,0,1,1.06,5.8,1.06,5.79-2.94,9.06A7.23,7.23,0,0,0,130,72.13l2.6-.92c-1-6-2.31-11.83-5.43-17.11A2,2,0,0,0,126,56.17Z"/><path class="cls-5" d="M126.39,56.39l-.4-.23h0Z"/><polygon class="cls-6" points="24.98 58.16 24.98 58.16 24.98 58.17 24.98 58.16"/><path class="cls-6" d="M29,46.16v1h0c1.85,1.86-.07,2.74-1.17,3.26s-1.76-.77-1.72-1.73c.07-1.79-1.44-2.48-2.19-3.69-2.48,3-3.33,6.75-5.11,10.08,2.63-.12,3.58,3.14,6.18,3.07.14-1.83-2.2-3.7,0-5.66,1.4,1,1.17,3.15,2.91,3.7,1.29.18,1.76.75,2.07,2.54,3-1.61.27-6.29,4-7.54C34,47.82,32.8,45.73,29,46.16Z"/><path class="cls-8" d="M12,129.78c-.7-2.17-2.24-4.08-2.1-6.53l-2.85.86c.53,2.2-1.26,4-1.12,6.12,1,.05,2.14-.06,2,1.37-.41,4.32,2.11,7,5,9.58,1.66.44,2.22-1.53,3.3-1.67,2.45.62-2.14,3.67,1.65,3.68,1.92-.71,2.13-2.38,2.29-4.08l-1.35-2.92C14,135.59,13.9,135.61,12,129.78Z"/><path class="cls-9" d="M81,1.28l-.43,2.13L87,5.19c-4.75,3.76-11.33,5.08-11.4,12.12,2.4-2.37,4.31-5.53,8.39-5.16l2.95-.42c-.73-2.37-.08-4.07,2.27-5.1,2.06-.9,3.45-.53,4.27,1.73.26.71,1.37,1.44,1.94.81s.45-1.83.63-2.78C93.9,5.29,91.37,4.58,89.69,3,87,.44,84.19.35,81,1.28Z"/><path class="cls-10" d="M63.53.85l.37,2.37a1.63,1.63,0,0,1,.36.67c1.25.26,1.47,1.36,1.87,2.32,5.14-.56,4.72,4,6.64,7.21-1.5-6.9,2.1-9.36,7.79-10L81,1.28C75.23-.76,69.38.07,63.53.85Z"/><path class="cls-5" d="M13.74,170.72C14.86,173,11.87,176.05,15,178c1.34-3.15,2.5-6.39,5-8.92a4.88,4.88,0,0,1,.74-2.67q-3-2.55-5.77-5.34Z"/><path class="cls-5" d="M22.82,164.89l2-1.81a3.46,3.46,0,0,0,0-1c-3.86,1.16-6.82.57-8-3.9-.12-.46-.95-.74-1.45-1.11l-.48,4q2.82,2.78,5.77,5.34A4.08,4.08,0,0,1,22.82,164.89Z"/><path class="cls-4" d="M130,72.13c.23,2.34-.88,4.35-3,4.39-4.07.07-7.17,2.93-11.14,3.18-3.06.19-2.14,2.86-2.43,5,4.72-4.63,10.41-1.72,15.55-2.5-.15-3.41,1.49-5.93,4-8l-.35-3Z"/><path class="cls-5" d="M18.85,66.68c-4.29.6-2.66-2.13-2.55-4,.08-1.31.31-2.6.47-3.91-1.35.56-1.18,1.88-1.41,3C14.2,67.18,13.08,72.65,12,78.11c0,2.47.75,4,2.94,1.45A11.63,11.63,0,0,0,18,71.86c0-.87-.3-2.21,1.31-2.07.86.08,2.12,2.24,2.37-.19A3,3,0,0,0,18.85,66.68Z"/><path class="cls-5" d="M64.26,3.89a1.62,1.62,0,0,0-.36-.67c-1.41-.09-2.92,0-2.93-2.1l-2,.06c0,1.7-1.46,2.54-2.21,3.8,7.1,2.16.82,4.75.23,7.16l9.91,5.07,1.4-1.12-.48-1.86C64.39,11.56,62.13,8.48,64.26,3.89Z"/><path class="cls-5" d="M28.75,47.58l.23-.42h0Z"/><path class="cls-5" d="M29.92,33c-4.48,2.74-4.75,7.61-6,12,.75,1.21,2.26,1.9,2.19,3.69,0,1,.53,2.29,1.72,1.73s3-1.4,1.17-3.26l-.23.42.23-.42h0q0-.5,0-1C28.84,41.75,30.72,37.49,29.92,33Z"/><path class="cls-11" d="M128.33,176.16c-.39-1.76-.08-3.78-1.87-5-1.17-.29-1.43-1.16-1.44-2.21a1,1,0,0,0-.16-.81c-2.52.31-1.05-3.36-3.34-3.4-1,1.86-.52,3.42.47,5.1a6.5,6.5,0,0,1,0,7.37c.22,1.5-.52,3.25.92,4.53C125.19,180.13,123.51,175,128.33,176.16Z"/><path class="cls-8" d="M7.9,88.25a3.69,3.69,0,0,1-.13-.91c-1.8-.61-2.34-1.61-1-3.19l1.12-2,.16-2.5c-3,.35-4.48,1.84-3.93,5A22.88,22.88,0,0,1,3.76,92c2.59,3.4,4.44,1.58,6.19-.88a6.23,6.23,0,0,0,0-1A1.88,1.88,0,0,1,7.9,88.25Z"/><path class="cls-8" d="M48,7.19,46.73,8a32,32,0,0,0-6.92,5.11L41,14A22.13,22.13,0,0,0,55,5.09l-.21-1.7Z"/><path class="cls-5" d="M128.94,82.18l2,2,5.18.87-3.2-10.88C130.42,76.26,128.79,78.78,128.94,82.18Z"/><path class="cls-12" d="M149.06,113.22l-3.92,0c2.84,2.83,3.09,6.45,3.07,10.15,2.62-.19,1.25,2.62,2.66,3.43,1.82-.67.63-2.55,1.34-3.67C151.78,119.63,152.07,115.9,149.06,113.22Z"/><path class="cls-8" d="M121.62,51.37c2.28,3.18-.43,3.3-2,4.41-.46.32-.33,1.46-.48,2.23,2.72,1,4.45-1.65,6.84-1.85a2,2,0,0,1,1.19-2.07L124.1,49C123.77,50.36,120.82,50.25,121.62,51.37Z"/><polygon class="cls-8" points="125.98 56.16 125.97 56.16 125.97 56.17 125.98 56.16"/><path class="cls-13" d="M8,131.6c.14-1.43-1.06-1.32-2-1.37a29.07,29.07,0,0,1,.83,5.34c0,2-1.35,3.72,1.56,5.32,1.86,1,3.36,2.43,5.64,2.28l-1-2C10.07,138.64,7.55,135.92,8,131.6Z"/><path class="cls-10" d="M150.88,126.8c-1.42-.82,0-3.62-2.66-3.43l.27,7.6.56,2.24c6.07-1.78,3.77-6.2,3.17-10.08C151.5,124.25,152.7,126.13,150.88,126.8Z"/><path class="cls-12" d="M143.18,103.46q0,.85,0,1.69c1,.78.84,1.91.85,3a3.77,3.77,0,0,0,3.48,2.15c0-2.8.47-5.71-1.64-8.09Z"/><path class="cls-8" d="M117.1,35.95c-1.22,1.87-1.2,4-1.07,6.08l.08.09c1.59,0,3.12,3.24,4.76.08C120.11,39.82,119.51,37.34,117.1,35.95Z"/><path class="cls-14" d="M17.94,143.19c-3.78,0,.8-3.05-1.65-3.68-1.08.14-1.64,2.11-3.3,1.67l1,2c3.51,2,.35,5.52,1.83,8l.92-.44C15.86,148,19,145.94,17.94,143.19Z"/><path class="cls-12" d="M140.94,91.29c-.17,1.69-1.52,3.65,1.68,4.28,1.36.27,1.76,2.12,1.93,3.59a.83.83,0,0,0,.69.11C145.81,95.53,144.81,92.63,140.94,91.29Z"/><path class="cls-14" d="M129,150.16l-3.2.67-.79,1.63c2.2.8,4.51,2.16,5.92-1.14l-1-.41C129.32,151.09,129.09,150.72,129,150.16Z"/><path class="cls-5" d="M39.81,13.13a5.91,5.91,0,0,0-2.91,4,2,2,0,0,1,2.13,2C41.34,18.08,40.95,16,41,14Z"/><path class="cls-9" d="M54.77,3.39,55,5.09,56.77,5C57.52,3.72,59,2.87,59,1.18,57,.89,55.86,2.06,54.77,3.39Z"/><path class="cls-10" d="M146.08,136.14a3.31,3.31,0,0,0,.37,4.15,3,3,0,0,0,2.08-3.31C148.35,135.89,147,136.29,146.08,136.14Z"/><path class="cls-6" d="M144.55,99.16c-2.39.82-1.39,2.72-1.37,4.3l2.72-1.27-.66-2.92A.83.83,0,0,1,144.55,99.16Z"/><path class="cls-13" d="M3.75,136.89c1.68-1.47,1.35-2.75.4-4.48C2.61,134,2.89,135.26,3.75,136.89Z"/><path class="cls-9" d="M61,1.12c0,2.05,1.52,2,2.93,2.1L63.53.85C62.65.66,61.73.16,61,1.12Z"/><path class="cls-5" d="M30.42,32.24a3.64,3.64,0,0,0,1.81-5Z"/><path class="cls-10" d="M141.95,143.14c1.43-.86,3.71,3.25,4.59-.79C144.92,142.11,143.15,141,141.95,143.14Z"/><path class="cls-12" d="M147,131.17l0,2.07,2,0-.56-2.24Z"/><path class="cls-8" d="M2.67,95.26c1.33-.57,1.39-1.55.88-2.72A2.73,2.73,0,0,0,2.67,95.26Z"/><path class="cls-7" d="M125,168.94c0,1,.27,1.92,1.44,2.21A2.93,2.93,0,0,0,125,168.94Z"/><path class="cls-9" d="M48,7.19,46.73,8Z"/><path class="cls-5" d="M36.1,18.21l.82-1.13A1,1,0,0,0,36.1,18.21Z"/><path class="cls-5" d="M35.71,19.1a.61.61,0,0,0,.34-.78Z"/><path class="cls-8" d="M6.84,123.31l-.14.42L7,124A.52.52,0,0,0,6.84,123.31Z"/><path class="cls-5" d="M133,149.18l.09,1.17.88-.58-1-.61Z"/><path class="cls-10" d="M141.92,144.24l0-1.1-.73.35Z"/><path class="cls-6" d="M56.77,5,55,5.09A22.14,22.14,0,0,1,41,14c-.05,1.94.34,4-2,5.11-3.13,3.71-2.13,9-4.79,12.86a1.08,1.08,0,0,0,.57,1.63c.49.1,1.18-.35,1.66-.72.73-.56.21-2.09,2.21-2.27.62,1.61-.32,5.06,3.29,4.5-.12-2.86-.18-5.71,2-8,.3-2.25-.07-5.13,3.79-2.53,1.26.85,3.41.39,5.15.53-.45-4.91,2.1-8.88,4.09-13C57.59,9.73,63.87,7.14,56.77,5Z"/><path class="cls-6" d="M65.94,66.14A1.88,1.88,0,0,1,64,63.8c.38-4.41-3.09-5.28-6-6.63.75,3.31-4.12,5.38-2,9,1.74.32,2.32-2.71,4.23-1.56,1.14.69,1,2.13.61,3.14-.5,1.42-.18,3.84-2.13,3.91-1.67.06-2.6-1.74-2.78-3.53-.63.52-1.9,1.29-1.81,1.53,2.39,6.14-4.24,4.9-6.08,7.51l-.1,3c3.74,1.38-.18,4.13,1.06,6l.09,2.33-.14,3.86.79.89c3.49-1.26,4.95,3.91,8.44,2.67a8,8,0,0,0-1.72-4.74,5.77,5.77,0,0,1-6.16-3.23c-.92-1.94.34-4,2-5.21,1.09-.83,2.58-2.51,3.9.23s3.19-.09,4.8.24l0,0,0-4c.91-4.31,2.79-7.53,8-7C68.73,69.75,65,69.1,65.94,66.14Z"/><path class="cls-6" d="M51.06,131.71,51,130.13c-3.36,1.19-4-2.45-6.29-4,.16,2.83,0,5.33,2.19,6.72,1.46.93,2.84,1.9,1.64,3.34-1.36,1.64-2-.54-2.91-1.24a3,3,0,0,0-1.78-.39c-.15,0-.54,1-.39,1.19,1.75,2.38,4.66,4.85-.95,6.1a1.22,1.22,0,0,0,0,.91c3.14,5.5-2.92,3.39-4.33,5.11-.58.71-3.16-1.51-2.83,1,.26,2,2.21,2.71,4.25,1.3,1.1-.76,2.54-1.73,3.13.31.48,1.66-1.25,1.42-2.25,1.88-3.63,1.68-7.77,2.48-10.48,5.82a5.14,5.14,0,0,0,4.69-.94c4.33-3.18,11.14-3,12.9-9.66l3.75-9.3C50.44,136.08,51.18,133.88,51.06,131.71Z"/><path class="cls-6" d="M51,130.11v0l.08,0Z"/><path class="cls-11" d="M50.18,154.07c-2.88-1.53-1.87-4.34-2.62-6.55-1.76,6.62-8.57,6.47-12.9,9.66a5.14,5.14,0,0,1-4.69.94l-2.64,2.3A2.33,2.33,0,0,1,24.89,162l-.08.09a3.46,3.46,0,0,1,0,1L26,164.2l2,0c3.69.87,7.35-1.12,11-.07.23-2.13-1.13-5.26,3.06-4.93,1.58-1.26,3.09-2.5,5.26-.91,1.88,1.38,3.7.35,4.79-1.08C53.66,155.16,51.13,154.58,50.18,154.07Z"/><path class="cls-5" d="M65.84,94.12c-1.25.1-1.75.91-1.92,2,2.63,4-1,5.48-3.27,5.34-3.13-.19-1.08-3.49-1.55-5.38a7.43,7.43,0,0,1-.93-.22c-3.49,1.24-4.94-3.93-8.44-2.68A9.63,9.63,0,0,0,52.28,99c1.52,1.7,3.28,3.12,4.34,5.28.8,1.62-.88,4.28,2.07,4.93l1.09-.18q.08-.42.18-.84a57.39,57.39,0,0,0,4.16-4.8c2.07-3,3-1.52,3.84.8,1.32.48,2.62,1.84,4,.08C68.54,101.71,69.16,96.72,65.84,94.12Z"/><path class="cls-4" d="M18.67,126.28c-2.14-.67-3.82.59-5.52,2.21-.07-4.51-.09-4.53,3.26-7.54.91-.82,1.88-1.62,1.18-2.9s-2-.89-3.15-.78c-2.9.29-3,3.22-4.43,4.86l-.1,1.13c-.14,2.44,1.4,4.35,2.1,6.53,1.88,5.83,1.94,5.81,6.87,6.41.8-.15,2.16-.58,1.5-1.31-1.82-2-.8-3.92.15-5.43C22.21,126.77,20.11,126.73,18.67,126.28Z"/><path class="cls-5" d="M55,27.16c-2,3.57-5.7,3.43-9.05,4a2.2,2.2,0,0,0-1,2c3,.45,3.14,3.89,5.45,5.28,1.24.75,2.16,1.85,3.77,1.69,2.37-1.68,2.55-4.32,3-6.85C54.31,32,55.1,29.43,55,27.16Z"/><path class="cls-4" d="M50.38,38.47c-2.3-1.39-2.43-4.83-5.45-5.28-1.09.84-.51,1.57,0,2.5,2.55,4.68,5.08,9.41,1.29,14.65-1.27,1.75-2.41,3.53-2.25,5.82l2,0a2.21,2.21,0,0,0,1.05-2c1.32-4.49,4.74-8,5.81-12.62.05-.22.89-.25,1.36-.37q0-.5,0-1C52.53,40.32,51.62,39.22,50.38,38.47Z"/><path class="cls-15" d="M69.89,120.23c-4.55-.18-4.73-4.49-5.49-7.09-1.17-4-2.47-2.25-4.25-1.06a3,3,0,0,1-.59.34l.53,2.74c2-.12,3.45.48,2.45,2.82A32.42,32.42,0,0,1,60,122.18c1.34,1.81,4.39.24,5.52,2.91.32.76,2.11.61,3.48-.17C71.37,123.54,69.65,121.78,69.89,120.23Z"/><path class="cls-4" d="M26.27,144.8c-1.5-.76-6.35,1.39-2.88-3.72.92-1.35-1.72-1.79-3.16-2-.16,1.7-.37,3.37-2.29,4.08,1.09,2.75-2.08,4.81-1.22,7.52.83,1.58,1.47.73,2.63.15,2.26-1.13,3.57-4.15,6.72-3.53,1,.19,2.4,1.37,2.66-.63C28.93,145.1,27.22,145.29,26.27,144.8Z"/><path class="cls-12" d="M47,54.15a2.21,2.21,0,0,1-1.05,2c-.4,4.35,1,8.82-.92,13.06l.89,14,2-3,.1-3c-1.82-2.17-1.51-6.61-.93-6.86,3.93-1.7,1.29-3.19.61-5.22-.94-2.8,2.22-4.91,2.21-7.74C49.93,55.35,49,54.24,47,54.15Z"/><path class="cls-8" d="M52,129.17v0h0Z"/><path class="cls-8" d="M59.86,129.15c-2.35-.15-1.28,2.61-2.82,3.36-1.54-1.31-.54-5.06-4.07-4.34l-1.26,0,.26,1c1.67,0,1.48.91,1,2,2.76.33,2,2.38,2,4l.35,1.47.9,1.49a1.55,1.55,0,0,1,.31.89c2.13.92,4.27,2,6.4,0l.41-1.8C58.8,136,60.26,132.16,59.86,129.15Z"/><path class="cls-5" d="M33.93,51.21c-3.71,1.25-.95,5.93-4,7.54-.31-1.79-.77-2.37-2.07-2.54.91,1.72-2.2,4.71.44,5.13,5.37.86,1,2.55.7,3.88.15,1-.51,2.18.42,3.13L32,66.09l2-4.95v0a2.06,2.06,0,0,1,1-2l-1-6Q34,52.19,33.93,51.21Z"/><path class="cls-4" d="M52.91,25.16c-1.74-.14-3.89.32-5.15-.53-3.86-2.6-3.49.28-3.79,2.53H46c.66-.12,1.6-1,1.8.37S47,29.07,46,29.17q0,1,0,2c3.36-.57,7-.42,9.05-4,.58-.08,1.5-.2,1.17-.91C55.57,24.88,54.11,25.25,52.91,25.16Z"/><path class="cls-5" d="M60.09,115.15c-4.35,1-6,3.71-5.07,8l1.16-.11c.11-1.33.43-2.22,1.81-.85l2,0A32.41,32.41,0,0,0,62.55,118C63.54,115.63,62.14,115,60.09,115.15Z"/><path class="cls-4" d="M24.87,91.72c-4.15,1.58-4.12,4.73-3.85,7.85.12,1.42-1.07,4,1.3,4,2.2,0,3.2-2.55,2.51-4.53C24,96.59,24.56,94.3,24.87,91.72Z"/><path class="cls-6" d="M56.18,123l-1.16.11c-2.23,1.65-5.65-.9-7.67,2.29,1.39,1.09,2.06,3.1,4.37,2.74l1.26,0c.34-1-.56-3.32,1.85-2,3.07,1.62,1.75-1.06,2.2-2Z"/><path class="cls-5" d="M45.92,56.11l-2,0h0c0,1.11.22,2.28-.95,3-.62,3.59.46,6.84,2,10C47,64.94,45.52,60.46,45.92,56.11Z"/><path class="cls-4" d="M33.92,61.14l-2,4.95c1.27.91.07,4.5,3,3.31,2.37-1,2.58-3.14.69-5.26A15.74,15.74,0,0,1,33.92,61.14Z"/><path class="cls-4" d="M33.6,75.72c-1.52-1.81-2.8-1.27-3.89.37-1,1.47-1.38,3.41,0,4.49C31.46,82,31.95,79.52,33,78.78s2-1.24,2-2.6l0,0C34.5,76,33.86,76,33.6,75.72Z"/><path class="cls-9" d="M49.09,88.46q0-1.16-.09-2.32l-3.92.09c-1.72,3.27-.53,5.12,2.87,5.89C49.15,91.15,45.8,88.77,49.09,88.46Z"/><path class="cls-8" d="M47.94,80.18l-2,3c-1.1.79-.88,1.94-.82,3L49,86.14C47.76,84.31,51.67,81.57,47.94,80.18Z"/><path class="cls-6" d="M37.12,128.53a3.16,3.16,0,0,0-2.94,2.75c-.19.77.2,2,1.18,1.28s3.44.6,3.26-2.1C38.7,129.45,38.18,128.51,37.12,128.53Z"/><path class="cls-4" d="M48.27,119.67c-1.93-1-3.42-.17-5.15,1.6,2.14,1.21,3.84,1.32,5.39.12A1.09,1.09,0,0,0,48.27,119.67Z"/><path class="cls-6" d="M6.79,84.16c-1.36,1.58-.83,2.58,1,3.19C8,86.12,8.22,84.88,6.79,84.16Z"/><path class="cls-4" d="M43,59.18c1.16-.74,1-1.91.95-3C41.83,56.6,41.32,57.54,43,59.18Z"/><path class="cls-5" d="M47.95,92.11l1,.21q.07-1.93.14-3.87C45.8,88.77,49.15,91.15,47.95,92.11Z"/><path class="cls-6" d="M46,27.17l-.06,2c1-.1,2-.4,1.86-1.63S46.69,27.05,46,27.17Z"/><path class="cls-6" d="M7.9,88.25A1.88,1.88,0,0,0,10,90.2,1.73,1.73,0,0,0,7.9,88.25Z"/><path class="cls-4" d="M33.93,61.12c1.29-.15,2.58-.31,1-2A2.06,2.06,0,0,0,33.93,61.12Z"/><path class="cls-5" d="M24.89,162a2.33,2.33,0,0,0,2.44-1.59A1.75,1.75,0,0,0,24.89,162Z"/><path class="cls-9" d="M58.7,109.18c1.15.85-1.72,2.77.86,3.24a3,3,0,0,0,.59-.34L59.79,109Z"/><path class="cls-4" d="M35,76.18l.22-.44-.25.41Z"/><path class="cls-8" d="M52,129.15s0,0,0,0l0,0Z"/><path class="cls-8" d="M52,130a4.09,4.09,0,0,1,0-.82l-.86.9A2.61,2.61,0,0,1,52,130Z"/><path class="cls-8" d="M51.09,130.1h0l-.09,0Z"/><path class="cls-14" d="M87,191.11l-.05,2c1.06.14,2.45-.26,2.76,1.28C90,195.7,89,196,88,196.19c.42,2.09-1.21,3.38-2,5,3.5.43.74,4.19,3.06,5.52,3-2.12,1-6.3,3.46-8.62,1,1.21-.4,4,2.45,4.07a3.06,3.06,0,0,0,2-3c-1.17-.71-1-1.86-1-3a8.87,8.87,0,0,1,1.35-6.08A89.62,89.62,0,0,1,87,191.11Z"/><path class="cls-14" d="M100.85,186.14a12.77,12.77,0,0,0-4.41-8c-1.26-1-2.46-2.15-2.52-4l-2,0c-2-.08-4.38,1.75-6-1-2.14,2.49-.89,4,2.09,4.72-2,2-5.32.2-5.92,3.32,1.92.34,5.14-1.19,5.44,1.36.28,2.34,2.85,5.37-.47,7.62l0,.93a89.62,89.62,0,0,0,10.33-1,12.35,12.35,0,0,1,1.56-2l1-1.1ZM92,177.74a.6.6,0,0,1-.5-1,.86.86,0,0,1,.8-.27c.2.08.27.5.41.78C92.46,177.44,92.21,177.76,92,177.74Z"/><path class="cls-13" d="M105.38,176.39c-3.5-4-7.52-2.26-11.25-3.19a4.82,4.82,0,0,0-.2.93c.06,1.82,1.25,3,2.51,4a12.77,12.77,0,0,1,4.41,8c2.12-.73,5.21,3,6.39-.89A8.47,8.47,0,0,0,105.38,176.39Z"/><path class="cls-14" d="M110,189.18a4.13,4.13,0,0,0,3.76-3.12q-1.64.57-3.31,1.09C110.35,187.82,110.17,188.49,110,189.18Z"/><path class="cls-14" d="M116,179.17a2.86,2.86,0,0,0-1.17-4.44c-1.18-.44-3.81-.12-4.41,1.35-.83,2-2.49,4.55-1,6.59a5.3,5.3,0,0,1,1,4.49q1.66-.51,3.31-1.09a6.45,6.45,0,0,0,.2-1.65C114,182.39,114.27,180.49,116,179.17Z"/><path class="cls-11" d="M110,189.18l-2,6h2.91c1.93-3.18,4-6.32,4.92-9.83l-2.1.76A4.13,4.13,0,0,1,110,189.18Z"/><path class="cls-11" d="M116,179.17c-1.77,1.33-2.09,3.22-2.08,5.26a6.45,6.45,0,0,1-.2,1.65l2.1-.76A13.56,13.56,0,0,0,116,179.17Z"/><path class="cls-16" d="M93,168.16l-1.23,2.14c-.94,1.32.34,2.56.14,3.86l2,0a4.82,4.82,0,0,1,.2-.93A3,3,0,0,1,96,170.11l0-1.91Z"/><path class="cls-14" d="M108,195.16h2.91a1.84,1.84,0,0,1-2.52,1.94C107.09,196.78,107,196,108,195.16Z"/><path class="cls-2" d="M145.14,113.21c-2.83-.56-5.42.9-8.18,1a6,6,0,0,1,0,1.46c-.36,1.64,3.22,2.74.71,4.56-2.13,1.54-3.95.16-5.7-1-1.68-1.35-3.36-.18-5,0v3a3.15,3.15,0,0,0,1-.15c2-1,3.53-.55,4.49,1.42.62,1.28-.52,1.74-1.38,2.13-2.48,1.12-3.73.08-4.07-2.44a11,11,0,0,1-3-6c0-1.08-1.13-1.69-1.38-2.5-.88-2.89-3.34-6.52-.8-8.72s3.7,2.73,6.17,3.21h0c.54-1.59-1.72-3.72-.08-4.58,4.22-2.23,3.46-6.05,2.87-9.16A27.57,27.57,0,0,1,131,84.2l-2-2c-5.15.78-10.83-2.14-15.55,2.5.29-2.13-.63-4.8,2.43-5,4-.24,7.07-3.1,11.14-3.18,2.16,0,3.27-2,3-4.39a7.23,7.23,0,0,1-4.89-1.06l-2.28,0c-2.28-.34-4.77.93-6.86-.88l-2-1c-1.19.22-2.32.39-1,2,1,1.18-.2,1.54-1,2-.06,2-1.47,2.06-2.93,2.07-.61,1.35-2.19,2.2-2,3.95,1.35.26,3.23-.66,3.77,1.41a1.75,1.75,0,0,1-1.51,2.2c-1.79.2-2.12-1.19-2.29-2.59-3.48-.68-5.58,1.07-7,4,2.37.28,5.57-1.07,6,3,1.23,4.05-3.32,7.47-1.25,11.7.34.7-.82,1.4-1.64,1.46-1.27.09-1-1-1-1.73s0-1.64,0-2.47c-3.79.13-7-.67-8-5-3-4.82,2.23-4.91,4-7h0a7.54,7.54,0,0,0-.39-6.34c-.57-1.28,1-3.59,2.5-5,1.7.32,1.26,2.75,3.07,2.89,1.25-1.25-.51-2.41-.11-3.61-.17-.64-.34-1.27-.5-1.91-1.42-5.52.23-7.05,6.44-6a5,5,0,0,0-.73-3.24c-.67-.88-1.74-1.85-.9-3,1.05-1.43,2.34.45,3.55.07.08-.65-.07-1.51.29-1.92,2.48-2.83,3.69-5.61,1.06-9.14-.65-.87-.19-2.56-.24-3.88-4.85-.36-2.12,5.26-5.05,6.4-1.42-4.18.93-11.31,5.07-15.4-2.26-2.3-3.43-5.29-5-8-4-.62-5.57-3.28-6-7-1.4.19-2.91-.53-4.37.59,1.29,1.74,2.68,3.36,3.78,5.15,2.48,4,2.95,8.22-.87,11.61-5.73,5.08-5.12,11.72-5.2,18.29-.05,4.08-.23,8.16-.43,12.24-.11,2.16-1.74,2.06-3.27,2a.41.41,0,0,0-.19.49,1.84,1.84,0,0,1-.11,2.52l-.21,8.27a.67.67,0,0,1,0,.55L90.81,92c-.1,3.2.83,7.2-4.75,6.19l-.08,1c-.26,2.44,2.38,4,1.45,6.51,2,.17,1.14-2.26,3.08-2,0,3.59-3.47,4.39-5.21,6.47L84,112.34c-.38,2.7,3.82,4.65,1.25,7.71l.34,3.92c2.55,2.43,1.13,3.09-1.45,3.23l-.45,2,.33,2.94c1.33.06,2.79-.23,4,.23,4.32,1.72,6.36.29,6.59-4.26.7,3.18,1.49,6.34,2.06,9.55.36,2,1,4.57-2.78,2.55-1.91-1-3.51.51-4.58,1.91a2.2,2.2,0,0,0,.58,3.13c1.59.85,3.52,1.76,5.14,0,1.76-1.94,2.76-1.65,4.4.42,1.5,1.89,4.23,1.58,6.57,1.5h0a6.59,6.59,0,0,1,2.06-5.32,2.43,2.43,0,0,1,2.76-.43c1.11.53.37,1.21,0,2-.78,1.7.32,1.45,1.38,1.18,3.83-1,5.59.7,5.77,4.45l2,.14,1-1c-.11-1.5-.29-3,2-3,1.76-.42,2.64,2,4.31,1.48.57-3.87,3.9-7.1,2-11.36-.42-1,1-1.94,2.34-2a2,2,0,0,1,2.36,1.9c.29,2,.7,3.89,1.16,5.81.24,1,.81,2,2,1.62,1-.31.81-1.37.48-2.11-.93-2.07-.23-4.31-.68-6.37-1.17-5.42,4.35-5,6.6-7.2.93-.92,2.6,2.42,3.44,4.23l1.5-.2-.27-7.6C148.23,119.66,148,116,145.14,113.21Zm-35.19-12h0c1.53-4-2.61-7.36-1.89-12,2.83,2,2.5,6.46,6.88,5.8,1-.15,1.45,2.66,1.56,4.31-2.33.08-3.47,4.42-6.55,1.85h0c-.52,3.49-2.34,5.58-6,5.81C102.93,101.71,105.62,100.56,110,101.19ZM100,116.37c-.18-2.15.18-4.07,2.95-4.24l.25-.41-.2.46a26.69,26.69,0,0,0,0,4.49c.55,3.16-1.38,0-2.24.85C99.35,119,100,116.74,100,116.37Zm7.66,21.72c-1.39,0-.05-6.27-3.5-1.38-.65.92-2.22.61-3-.51s-1.67-2.59-.43-4.05a2.24,2.24,0,0,1,3.12-.43C106.19,133.11,109.26,134.06,107.67,138.1Zm7.83-12.68c-.72.82-1.51.22-2.2-.14-1.72-.91-3.26-2-5.27-2.46-1.37-.28-1-1.85-1-3,0-.75.46-1.17,1.52-1.33,1.24,2.87,5.41,1.59,6.84,4.62C115.78,123.88,116.13,124.7,115.5,125.42Zm.45-9.73c-.4.87-.43,1.92-1.9,2.77-.08-2.84.41-5.66-3.51-5.44-1.2.07-1.64-1-1.24-2.13s1.18-1.76,2.28-1.28C114.2,110.73,118.1,111,115.95,115.69Zm2.17-6a.62.62,0,0,1-.76-.86c.14-.39.65-.64,1-1l.6.84C118.68,109,118.46,109.59,118.11,109.69Zm.14-14.25c-.26-2.06,2-2.28,3.88-2.26,1.83-.39,2.8,1,3.76,2.37.66,1,1.63,2.07.44,3-1,.76-1.71-.43-2.45-1s-.88-2.28-2.53-1.92C120.28,95.84,118.66,98.61,118.25,95.43Zm5.19,48.1.06-.74c.07.13.21.27.2.39S123.53,143.42,123.44,143.53Zm17.79-25.83c-.2.08-.53-.19-.81-.31.12-.28.18-.71.37-.78s.54.19.81.31C141.49,117.19,141.43,117.62,141.23,117.7Z"/><circle class="cls-2" cx="109.96" cy="101.19" transform="translate(-2.56 199.52) rotate(-83.77)"/><path class="cls-6" d="M143.21,105.15c-4-.55-4.84-3.51-5.26-6.8-.13-1-.32-2.13-1.69-1.9s-1.19,1.32-.94,2.34c.46,1.88.9,3.76,1.53,6.43-2.1-1-3.58-3.11-5.22-1a3.39,3.39,0,0,0-.33,3.78c1.08,1.85,2.94,1.21,4.45.66,2.74-1,5.51-.8,8.31-.57C144,107.06,144.26,105.93,143.21,105.15Z"/><path class="cls-6" d="M137,115.62a6,6,0,0,0,0-1.46c-1.51-1.56-2,0-2.37.93a9.2,9.2,0,0,1-2.58,4.06c1.75,1.19,3.57,2.57,5.7,1C140.22,118.36,136.65,117.26,137,115.62Z"/><path class="cls-6" d="M124,117.18a11,11,0,0,0,3,6q0-.48,0-1,0-1.51,0-3C126.87,117.17,125.45,117.14,124,117.18Z"/><path class="cls-6" d="M128,109.17h0c.1.64.08,1.38.94,1.49.17,0,.58-.39.56-.56C129.36,109.25,128.62,109.27,128,109.17Z"/><path class="cls-6" d="M125.75,112.62c-.12.28-.39.61-.31.81s.51.26.78.38c.12-.28.39-.61.31-.82S126,112.73,125.75,112.62Z"/><path class="cls-6" d="M96.61,19.79c1.46-1.12,3-.39,4.37-.59.15-1.77-1.42-2.67-2-4.06-2.56-1.34-4.69-6.4-8-.92a1.71,1.71,0,0,0,.08.48c4,7.86,3.84,8.19-4.21,11.57L86,29.2c1.8.72,2.58,3.21,4.88,3s3.22,1.44,4.2,2.85c.75,1.09-.69,1.71-1.28,2.27C92,39,90.49,37.41,89,36.59a13.2,13.2,0,0,1-1.92-1.54l-3.78,1.27,1.06,2.76.59,1.14L86,43.16c6.26.3,3.2,5.11,3.9,8.09.05,2,2.56,4.22-.41,6l1.1,11.77c1.54.07,3.17.17,3.27-2,.2-4.08.38-8.16.43-12.24.09-6.57-.53-13.21,5.2-18.29,3.82-3.38,3.34-7.57.87-11.61C99.29,23.15,97.9,21.54,96.61,19.79Z"/><path class="cls-2" d="M90.92,14.23c-1.63-.35-3.28-.69-4-2.51L84,12.15C79.23,16,78.34,21,79.65,26.64c.24,1,.24,1.93-.79,2.55.23,1.57.44,3.14,1.73,4.27l1.33.93c.95-1.21,1.94-2.09,1.51-4.16-.36-1.72-.46-5,3.36-3.95,8-3.38,8.17-3.71,4.21-11.57A1.71,1.71,0,0,1,90.92,14.23Z"/><path class="cls-6" d="M112.24,63c1.14-2.22-.55-3.37-1.35-4.89-1.21.38-2.5-1.5-3.55-.07-.83,1.13.23,2.1.9,3a5,5,0,0,1,.73,3.24l0,1.88c1.75,2,.68,5.24,3,7,.77-.45,1.92-.81,1-2-1.29-1.59-.16-1.77,1-2q0-2,.05-3.91C112.64,65.09,111.55,64.31,112.24,63Z"/><path class="cls-4" d="M112,34.18c-4.14,4.08-6.48,11.22-5.07,15.4,2.94-1.15.21-6.77,5.05-6.4C114.63,40.17,111.8,37.17,112,34.18Z"/><path class="cls-4" d="M98.95,15.15c.61,1.39,2.18,2.29,2,4.06.44,3.67,2,6.33,6,7A10.24,10.24,0,0,0,98.95,15.15Z"/><path class="cls-4" d="M114,65.25q0,2-.05,3.91l2,1,3-12C114.54,58.56,114.36,62,114,65.25Z"/><path class="cls-4" d="M115.59,42.54l.52-.43L116,42Z"/><path class="cls-5" d="M130,150.9l-1-.74C129.09,150.72,129.32,151.09,130,150.9Z"/><path class="cls-5" d="M133,149.18l0,0-.43-.21Z"/><path class="cls-6" d="M25,58.17l.41.22L25,58.16Z"/><path class="cls-15" d="M89.87,151.26,89,150.09c-3.41-1.05-4.78-3.8-5.63-6.91-1-3.73-.27-7.39.66-11l-.33-2.94-2.8-1c-2.25,3.63-1.25,8.54-4.61,11.74L75,144.25c-1.24,2.22.21,2.75,1.95,3.09,2.13-1.55,3.71-2.4,5.26,1.06a9.23,9.23,0,0,0,4.69,4.79c2.39.94,2.23,3,2.21,4.93.11.6.21,1.21.32,1.81,2.43.93,1.57,4,3.48,5.31l2.07-1.07a4.07,4.07,0,0,0-.21-.94c-.61-1.23-2.37-2.06-1.53-3.78.61-1.26,1.71-.16,2.57-.25,2.17-.23,3.47.55,3.23,3l3.71.08,2.28-5.06c-1.46-.88-3.33-.6-4.68-1.19C96.81,154.47,91.07,157.7,89.87,151.26Z"/><path class="cls-12" d="M113.4,154c-1.35,4.3-4.1,5.87-8.42,3.17l-2.28,5.06c1.9,2.31,3.71,3.21,5.83.11,1.31-1.92,2.64-3.12,5-.52s4.21,1.36,4.85-2.68C112.09,161.59,116.92,154.24,113.4,154Z"/><path class="cls-14" d="M92.86,165.23c-1.91-1.28-1-4.37-3.47-5.31-2.7,4.26-1.3,7.58,2.37,10.38L93,168.16q-.06-1-.11-2.06A3.78,3.78,0,0,1,92.86,165.23Z"/><path class="cls-16" d="M95.75,159.2c-.87.09-2-1-2.57.25-.83,1.72.93,2.55,1.53,3.78a4.07,4.07,0,0,1,.21.94c1.73.09,3.28-.17,4.06-2C99.22,159.74,97.93,159,95.75,159.2Z"/><path class="cls-15" d="M92.87,166.1q.06,1,.11,2.06l3,0C95.91,166.07,94.3,166.21,92.87,166.1Z"/><path class="cls-4" d="M99.41,145.67c-1.64-2.07-2.64-2.36-4.4-.42-1.61,1.78-3.55.87-5.14,0a2.2,2.2,0,0,1-.58-3.13c1.07-1.4,2.67-2.93,4.58-1.91,3.78,2,3.14-.51,2.78-2.55-.57-3.2-1.36-6.37-2.06-9.55-.23,4.55-2.27,6-6.59,4.26-1.16-.46-2.63-.18-4-.23-.93,3.63-1.68,7.29-.66,11,.85,3.11,2.22,5.86,5.63,6.91,1.49-1.37,1.74-.28,1.91,1,8.15,3.55,10.39,3,15.05-3.88C103.64,147.25,100.91,147.56,99.41,145.67Zm-12.64-9.94c-.2-.09-.24-.52-.35-.8.28-.11.63-.37.83-.28s.24.52.35.8C87.32,135.55,87,135.82,86.77,135.73Z"/><path class="cls-4" d="M112.21,144.56c-1.05.27-2.16.53-1.38-1.18.34-.75,1.09-1.44,0-2a2.43,2.43,0,0,0-2.76.43,6.59,6.59,0,0,0-2.06,5.32c2.33,1.44,1.5,3.94,2,6h0c2.26-.74,3.77-4,7.09-1.34,1.43,1.15,2.79-.92,2.91-2.83C117.8,145.26,116,143.56,112.21,144.56Z"/><path class="cls-2" d="M89,150.09l.85,1.17,1.06-.21C90.76,149.81,90.51,148.73,89,150.09Z"/><path class="cls-4" d="M121,148.17l-1,1c.34.59.87,1,1.44.48S121.56,148.53,121,148.17Z"/><path class="cls-15" d="M103.28,154a1.1,1.1,0,0,0-.09.38l.51-.11-.13-.35C103.47,154,103.32,154,103.28,154Z"/><path class="cls-12" d="M107.75,153.57l.23-.4h0Z"/><path class="cls-4" d="M128,61c-.09-1-.57-2.52-1.45-2.15-2.06.86-4.52,1.17-5.93,3.24-.6.88-1,2.13.08,2.58,3.28,1.37,2,4,2.12,6.35l2.28,0c4-3.26,4-3.26,2.94-9.06C128,61.7,128,61.36,128,61Z"/><path class="cls-8" d="M126,56.17l.41.22-.4-.23Z"/><path class="cls-13" d="M72.78,13.41c-1.92-3.23-1.5-7.77-6.64-7.21l1.7,8,.48,1.86c1.94.26,1.5,1.91,1.83,3.12,1.43,1.86.92,2.77-1.37,2.83-2.25,2.17-3,5.13-4.23,7.86.54,2.67,3.3,2.3,4.84,3.57,1.33,1.09,3.4,1.41,3.8,3.51l1.82,1c1.46-.64,1.84-2.86,3.88-2.65l1.72-1.82c-1.29-1.13-1.51-2.71-1.73-4.27a20.66,20.66,0,0,1-3.29-11.88c.07-7,6.65-8.36,11.4-12.12l-6.4-1.78C74.88,4.05,71.28,6.51,72.78,13.41Z"/><path class="cls-5" d="M75.58,17.31a20.66,20.66,0,0,0,3.29,11.88c1-.61,1-1.5.79-2.55C78.34,21,79.23,16,84,12.15,79.89,11.78,78,14.95,75.58,17.31Z"/><path class="cls-9" d="M64.26,3.89c-2.13,4.6.12,7.68,3.57,10.35l-1.7-8C65.74,5.25,65.52,4.15,64.26,3.89Z"/><path class="cls-10" d="M21.87,169.16l-1.95,0c-2.46,2.52-3.63,5.77-5,8.92q0,1.56,0,3.12c1.19.7.9,1.87.94,2.94,3.89,5,4.75-1.15,7.07-1.93,3.29-3.11,4.17-6.48,2.09-10.85C24.25,169.57,23.43,169.16,21.87,169.16Z"/><path class="cls-10" d="M24.84,163.08l-2,1.81.12,2.24c2.22.28,3.27-.66,3-2.93Z"/><path class="cls-11" d="M19.92,169.13l1.94,0,.62-1.16c-.61-.51-1.22-1-1.82-1.54A4.88,4.88,0,0,0,19.92,169.13Z"/><path class="cls-11" d="M22.82,164.89a4.08,4.08,0,0,0-2.16,1.57c.6.52,1.21,1,1.82,1.54l.46-.86Z"/><path class="cls-2" d="M52.91,25.16c1.2.09,2.66-.28,3.29,1.09.32.71-.59.83-1.17.91.07,2.27-.72,4.83,2.1,6.15a5,5,0,0,1,3.56-2.5c1.41-4.84,5.6-8.41,6.23-13.61L57,12.14C55,16.28,52.45,20.25,52.91,25.16Z"/><path class="cls-9" d="M68.31,16.09l-1.4,1.12c-.62,5.2-4.81,8.77-6.23,13.61l.55.67,3.31-1.59c1.2-2.73,2-5.7,4.23-7.87.3-1,.26-2.2,1.37-2.83C69.81,18,70.25,16.34,68.31,16.09Z"/><path class="cls-6" d="M28.75,47.58l.23-.42h0Z"/><path class="cls-4" d="M79,84.13c-2.41,1.81-3.23-.54-3.75-1.84a3,3,0,0,0-3.18-2.22l-.1,2c.42,2-1.16.88-1.78,1s-1.9.53-1.18-1c-1.56-4-5.12-2.52-8-2.89q0,2,0,4c.72.13,1.57.12,1.5,1.21a.45.45,0,0,1-.31.31c-1.1.08-1.08-.78-1.22-1.5-1.61-.33-3.54,2.37-4.8-.24s-2.81-1.06-3.9-.23c-1.63,1.24-2.88,3.27-2,5.21a5.77,5.77,0,0,0,6.16,3.23l.6-1.83c0-1,0-2.4,1.18-2.31,1.37.11.55,1.53.64,2.39,1.06,3.83,4.83,1.31,6.84,2.91,2.21,0,2.28-1.93,2.57-3.51,2.49.86,2.74,2.59,2.64,4.5l4,.75c.16-.74.25-1.79,1.32-1.36.78.31.4,1-.18,1.43l-.22,2c2.33-2,6.62-2.86,4.34-7.62-.39-.81.79-1.22,1.62-1.35C82.19,85,81.16,84,79,84.13Z"/><path class="cls-5" d="M60.91,42.09c-2.56,1.89-4.69.7-6.77-.92-.47.12-1.31.15-1.36.37-1.07,4.61-4.5,8.13-5.81,12.62,2,.09,3,1.2,3,3.2,0,2.84-3.15,4.95-2.21,7.74.68,2,3.32,3.53-.61,5.22-.58.25-.9,4.69.93,6.86,1.84-2.61,8.47-1.37,6.08-7.51-.09-.24,1.17-1,1.81-1.53l.07-2c-2.13-3.62,2.74-5.69,2-9h0c-1.07,0-1.7.83-2.5,1.37a2.69,2.69,0,0,1-2.26.33c-1.47-.75,0-1.5.18-2.3.3-1.71.48-4.05,0-5.1-2-4.41,1.29-4.37,3.66-5.29,3.62,2.68-1,3.91-1,5.94,1.34,1.75,3.23.85,4.9,1,.58-1.72-1-4.38,2.12-5q0-2.42.06-4.84A2.45,2.45,0,0,1,60.91,42.09Z"/><path class="cls-4" d="M78.3,59.64c1.39-4.31-1.48-2.58-3.28-2.4.19,2.5-1.26,3-3.39,3-3.88,0-5.63,2.15-5.69,5.89-.9,3,2.79,3.62,3,6l3.08,6c4.94,0,5.45-3.81,6.16-7.32.46-2.29-.27-4.9,1.95-6.67l-.18-2C78.94,61.63,77.89,60.92,78.3,59.64Z"/><path class="cls-5" d="M70.22,49.5a5.94,5.94,0,0,0-5.52-.94c.53,3.15.89,6.2-3.64,6.52-1.59-.13-3.59-.86-3.08,2.09h0c3,1.35,6.42,2.22,6,6.63a1.88,1.88,0,0,0,1.92,2.33c.06-3.74,1.81-5.91,5.69-5.89,2.13,0,3.58-.5,3.39-3L74.8,55C70.86,55.18,69.72,53,70.22,49.5Z"/><path class="cls-2" d="M69,72.14c-5.17-.53-7,2.69-8,7,2.88.38,6.43-1.12,8,2.89l3,0,.1-2q0-.95,0-1.89Z"/><path class="cls-15" d="M58.86,89.4,57,89.32l-.6,1.83a8,8,0,0,1,1.72,4.74,7.43,7.43,0,0,0,.93.22l4.82,0c.18-1.12.67-1.93,1.92-2l-.14-1.8C63.69,90.71,59.92,93.24,58.86,89.4Z"/><path class="cls-2" d="M60.22,64.61c-1.91-1.16-2.49,1.88-4.23,1.56l-.07,2c.18,1.79,1.12,3.59,2.78,3.53,1.95-.07,1.63-2.48,2.13-3.91C61.19,66.74,61.36,65.3,60.22,64.61Z"/><path class="cls-10" d="M34.14,178.5a4.38,4.38,0,0,1,2.34-.63l-1.54-.92A8.37,8.37,0,0,0,34.14,178.5Z"/><path class="cls-10" d="M43,177.26a9,9,0,0,1-2.21-.89c-1.38-1-2.43-2.52-1.53-4.2s2.32,0,3.5,0a13.36,13.36,0,0,1,3.22,1c1-.79-.58-3.26,2-3a6.51,6.51,0,0,0,1-4c-.29-.16-.66-.25-.85-.49-.92-1.21-3.29-1.27-2.86-3.5a1.4,1.4,0,0,1,1.05-.82c1.92,0,2.82,1.39,3.65,2.84,2.34.36,3.25-1.2,4-3-.14-4,3.56-1.68,5-3.06-1.93-1.92-4.27-3.32-6.18-5.32-2.49-2.6-2.65-4.57.22-6.73l1-4.76a2.09,2.09,0,0,1,1-2.17l1.44-.13a1.54,1.54,0,0,0-.31-.89,1.34,1.34,0,0,1-.9-1.48l-.35-1.47c-2.29-.28-1.55,3.06-3.62,3l-3.75,9.3c.75,2.21-.26,5,2.62,6.55,1,.5,3.48,1.09,1.94,3.12-1.09,1.44-2.91,2.46-4.79,1.08-2.17-1.59-3.67-.34-5.26.91l-.07,5c-.26.51-.44,1.37-.81,1.46-1,.26-1.1-.72-1.28-1.43q-.46,0-.91-.11c-3.69-1.05-7.35.93-11,.07-.1,2,.6,3.55,2.79,2.79,2.67-.92,5.22-.86,6.58,1.5,1.58,2.74-.21,5.33-1.83,7.65-.19.27-.38.54-.57.83l1.54.92c2,.06,3.63,1.74,5.5,2.31Z"/><path class="cls-11" d="M53,131.14l-1,.13-.95.44c.11,2.17-.62,4.37.24,6.51,2.08,0,1.34-3.31,3.62-3C54.93,133.52,55.73,131.47,53,131.14Z"/><path class="cls-2" d="M51,130.11l.05,1.6.95-.44L52,130A2.58,2.58,0,0,0,51,130.11Z"/><path class="cls-13" d="M34.14,178.5a8.37,8.37,0,0,1,.8-1.55,109.25,109.25,0,0,1-12.46-9l-.62,1.16c1.56,0,2.38.41,3.21,2.17,2.07,4.36,1.2,7.73-2.09,10.85.06.32,0,.9.18.94,6,1.58,5.39,7.53,7.2,11.65,2-.31,1.44-2,2.39-2.71s2.2-.63,2,.67c-.41,2.63-.86,4.61,2.67,5.63,2.61.75,4.44-.24,6.54-1a4.77,4.77,0,0,1,1-.16c3-1.78,4-4.89,5.3-7.83L50,186.17a9.33,9.33,0,0,0-.51-1.81,99.08,99.08,0,0,1-13.05-6.49A4.38,4.38,0,0,0,34.14,178.5Z"/><path class="cls-13" d="M42,180.17c-1.87-.57-3.45-2.24-5.5-2.31a99.08,99.08,0,0,0,13.05,6.49C48.29,181.25,45.55,180.15,42,180.17Z"/><path class="cls-13" d="M35.51,176.12c1.62-2.33,3.41-4.91,1.83-7.65C36,166.1,33.43,166,30.76,167c-2.19.76-2.89-.81-2.79-2.79l-2,0c.24,2.27-.82,3.2-3,2.93l-.46.86a109.25,109.25,0,0,0,12.46,9C35.13,176.65,35.32,176.38,35.51,176.12Z"/><path class="cls-16" d="M39,164.11q.45.07.91.11l2.09,0q0-2.5.07-5C37.88,158.85,39.24,162,39,164.11Z"/><path class="cls-9" d="M67.82,109.6c-.27.35-.8-1.47-1.2-2.28-.75-1.51-.83-2.85,1.35-3.15-.85-2.32-1.77-3.77-3.84-.8a57.39,57.39,0,0,1-4.16,4.8c5.23-1.26,6.43,2.77,7.86,6.21.56,1.35.4,3,2.07,3.69l-.06-2.91c-1.37-2.44.36-2.72,2.09-3l1.08-.06-.07-2C71.21,110.73,70,106.77,67.82,109.6Z"/><path class="cls-6" d="M70.92,93.3c.1-1.92-.16-3.65-2.64-4.5-.29,1.59-.36,3.47-2.57,3.51l.14,1.8c3.32,2.6,2.7,7.59,6.12,10.13l2.21-1.08c-.56-3.05-3.14-5-4.37-7.66C69.11,94,69.22,93.38,70.92,93.3Z"/><path class="cls-8" d="M72,104.25c-1.37,1.75-2.67.4-4-.08-2.18.3-2.1,1.64-1.35,3.15.4.81.93,2.64,1.2,2.28,2.15-2.83,3.39,1.13,5.12.51,1.71-1.21,0-4.55,3-4.93l0-2-1.84,0Z"/><path class="cls-7" d="M67.83,114.38c-1.43-3.45-2.62-7.47-7.86-6.21q-.1.42-.18.84.18,1.54.36,3.07c1.78-1.19,3.08-2.92,4.25,1.06.76,2.61.94,6.91,5.49,7.09q0-1.08,0-2.16C68.22,117.37,68.38,115.73,67.83,114.38Z"/><path class="cls-9" d="M59.1,96.11c.47,1.89-1.58,5.19,1.55,5.38,2.28.14,5.9-1.29,3.27-5.34Z"/><path class="cls-9" d="M58.67,35.84c.15-2.18,1.65-3.09,2.57-4.36l-.55-.66a5,5,0,0,0-3.56,2.5c-.43,2.53-.61,5.16-3,6.85,0,.34,0,.67,0,1,2.08,1.62,4.22,2.81,6.77.92C61.61,41,62.3,39.9,62,38.51,63,35.18,60.88,35.31,58.67,35.84Z"/><path class="cls-16" d="M74.08,124.13v-6.06l-2.3-2.83-1.94-.08q0,1.45.06,2.91,0,1.08,0,2.16c-.24,1.55,1.48,3.31-.91,4.69-1.37.79-3.16.93-3.48.17-1.14-2.68-4.18-1.11-5.52-2.91l-2,0,0,1.9,2,2.12,1.15.93-1.26,2c.4,3-1.07,6.82,3.43,8.09,2.41-.82.7-1.65.14-2.72-.84-1.61-1.14-3.9-.08-5s3.19-.5,4.63.68l1,0c1.28-.12,2.58.08,3-1.8,1-4.2,2.49-1.35,3.83-.18l1.16,1,2-3c-.5-1.36-2.12-2.13-2-3.82C75.64,122.21,74.89,122.92,74.08,124.13Z"/><path class="cls-11" d="M62.88,139c-2.13,2-4.27.92-6.4,0l-1.44.13a2.42,2.42,0,0,1-1,2.17l-1,4.76c2.36,2.47,5.58-1.36,7.95,1.09,1.49-.89,3.29-1.36,4.17-3.07L65,141.19Z"/><path class="cls-14" d="M67,139.16h0Z"/><path class="cls-14" d="M68,130.16c-1.44-1.18-3.52-1.87-4.63-.68s-.76,3.43.08,5c.56,1.07,2.27,1.9-.14,2.72l-.41,1.8L65,141.19l2-2c-.13-1.43.29-3.43-.5-4.19C63.49,132.05,66.47,131.42,68,130.16Z"/><path class="cls-5" d="M58,124.1l-.49,0-.49,0c-.45,1,.87,3.63-2.2,2-2.41-1.27-1.51,1.09-1.85,2,3.53-.72,2.53,3,4.07,4.34,1.54-.75.47-3.51,2.82-3.36l1.26-2L60,126.22Z"/><path class="cls-6" d="M52,129.15a4.09,4.09,0,0,0,0,.86l.05,1.26,1-.13C53.46,130.06,53.65,129.13,52,129.15Z"/><path class="cls-11" d="M56.17,138.14l-.9-1.48A1.34,1.34,0,0,0,56.17,138.14Z"/><path class="cls-15" d="M56.18,123,57,124.1l.49,0,.49,0,0-1.9C56.61,120.83,56.29,121.72,56.18,123Z"/><path class="cls-3" d="M85.2,191.15a8.21,8.21,0,0,1,1.87-1c3.32-2.26.75-5.28.47-7.62-.3-2.55-3.51-1-5.44-1.36l-.48,1.61c1.08,4.57-1.73,6.36-4.63,8.09,2.29.18,4.59.28,6.92.28Z"/><path class="cls-9" d="M85.94,173.15c.09-1.35-.74-1.9-1.89-2.17l-3.66.41c-1,1.75-1.56,4.07-4.42,3.43l-1.12,3.31c.45,1.74-.78,2.71-1.74,3.79-1.18,1.33-.56,2,.83,2.4a7.62,7.62,0,0,0,7.69-1.5l.47-1.61c.61-3.13,3.93-1.35,5.92-3.32C85,177.12,83.8,175.65,85.94,173.15Z"/><path class="cls-13" d="M91.75,170.3c-3.67-2.8-5.07-6.12-2.37-10.38q-.16-.9-.32-1.81c-2.71.4-1.64-3.55-4.39-3.52-.69,1.88.36,3.65.79,5.36.54,2.15-.71,2.15-2.07,2.3l-.33,6.1L84,171c1.15.27,2,.82,1.89,2.17,1.57,2.76,3.93.94,6,1C92.1,172.87,90.81,171.63,91.75,170.3Z"/><path class="cls-13" d="M85.2,191.15c-2.69,1.86-3.46,5-4.18,8.16,2.38-.47,3.12.73,2.92,2.88l2.08-1v0c.77-1.63,2.39-2.91,2-5l-1-3q0-1,.05-2Z"/><path class="cls-13" d="M87.07,190.19a8.21,8.21,0,0,0-1.87,1l1.85,0Q87.06,190.65,87.07,190.19Z"/><path class="cls-3" d="M88,196.19l-1-3c1.06.14,2.45-.26,2.76,1.28C90,195.7,89,196,88,196.19Z"/><path class="cls-16" d="M92.3,176.49a.86.86,0,0,0-.8.27.6.6,0,0,0,.5,1c.21,0,.46-.29.71-.46C92.57,177,92.5,176.58,92.3,176.49Z"/><path class="cls-14" d="M83.93,202.19l2.08-1c-.09,2,.16,4.17-2.26,5.66C82.75,205.17,82.55,203.69,83.93,202.19Z"/><path class="cls-5" d="M80.57,73c-.76-1.4.35-1.66,1.39-1.84a1.7,1.7,0,0,0-.09-1c-1.07-.17-2.07-.56-1.72-1.87.28-1.05,1-1.15,1.78-.28l2-1-.11-1.76-3.65-1.12c-2.21,1.77-1.48,4.38-1.95,6.67-.71,3.52-1.22,7.32-6.16,7.32q0,.95,0,1.89a3,3,0,0,1,3.18,2.22c.51,1.3,1.34,3.65,3.75,1.84,2.12-2.24-.53-4.74.46-7.69C81.35,80.35,84.33,83,85,87.07l.09,1.2c1.56-.85,3.17-1.57,2.93-3.88a3.26,3.26,0,0,1,2.1-3.48.67.67,0,0,0,0-.56C85,80.45,82.64,76.86,80.57,73Z"/><path class="cls-15" d="M84.19,107.09c-1.6-.54-1.11-1.83-1.07-3a4.42,4.42,0,0,1-.18-1c-2.22,1-4.21,2.84-7,2-3.06.38-1.33,3.71-3,4.93l.07,2a6.55,6.55,0,0,1,3,3l6.07-1c-.06-1.35.48-2.07,1.93-1.82l1.25-2.2C83.88,109.5,84.39,108.17,84.19,107.09Z"/><path class="cls-4" d="M100,84.17H98c1.09,3.71-4.13,3.83-4,7,1,4.34,4.21,5.14,8,5,.51-3.34.87-6.76,4-9C105.52,83.1,102.32,84.45,100,84.17Z"/><polygon class="cls-4" points="97.96 84.16 97.97 84.16 97.97 84.15 97.96 84.16"/><path class="cls-6" d="M90.81,92a6.65,6.65,0,0,1-6.54,2c-1.14-.23-1-1-.26-1.68l.79-1.1.25-2.89L85,87.07l-3.14.12c-.84.13-2,.55-1.62,1.36,2.28,4.76-2,5.6-4.34,7.62-.94,1.12-.54,1.75.76,2,2.09.38,4.19.72,6.28,1.08L85,99.17l1.08-1C91.64,99.17,90.71,95.18,90.81,92Z"/><path class="cls-6" d="M104.87,72.09l-1.84,0c-.4,1.2,1.36,2.36.11,3.61-1.81-.14-1.37-2.56-3.07-2.89-1.45,1.37-3.06,3.69-2.5,5A7.54,7.54,0,0,1,98,84.16h2c1.44-2.92,3.54-4.67,7-4l0-1c-.15-1.74,1.43-2.6,2-3.95C108,73.75,105.46,74.2,104.87,72.09Z"/><path class="cls-9" d="M88,84.39c.24,2.31-1.38,3-2.94,3.88l-.25,2.89L84,92.25c-.73.69-.88,1.45.26,1.68a6.65,6.65,0,0,0,6.54-2l-.72-11.07A3.26,3.26,0,0,0,88,84.39Z"/><path class="cls-10" d="M87,54.07a.7.7,0,0,1-.6.29l-.44,6.78c0,3.47,3,6.28,2.2,9.92l2.32-1.5a.41.41,0,0,1,.19-.49L89.51,57.3C87.62,57,88.3,54.76,87,54.07Z"/><polygon class="cls-4" points="109.96 101.19 109.96 101.19 109.95 101.19 109.96 101.19"/><path class="cls-4" d="M114.95,95c-4.38.66-4.05-3.76-6.88-5.8-.72,4.6,3.42,7.94,1.89,12,3.08,2.57,4.22-1.77,6.55-1.85C116.39,97.69,115.92,94.88,114.95,95Z"/><path class="cls-7" d="M82.59,118.35c-3.07-.35-6.34-1-5.61,4-.13,1.69,1.49,2.46,2,3.82l.83.15c.51-.34-.88-3.58,1.68-1.05.36.35,2.15-.75,3.28-1.18a2.32,2.32,0,0,1,.86-.11L85.28,120Z"/><path class="cls-12" d="M85.6,75.75c-1.79-.48-1.62-2.18-1.68-3.63l-2-.95c-1,.18-2.15.44-1.39,1.84,2.07,3.85,4.4,7.44,9.54,7.34l.21-8.27c-.79.54-1.6,1-2.36,1.62S87.07,76.14,85.6,75.75Z"/><path class="cls-4" d="M108.94,66.13c-2.79,1-4.53,2.72-4.07,6,.58,2.12,3.09,1.67,4.17,3.12,1.46,0,2.87-.09,2.93-2.07C109.63,71.38,110.7,68.14,108.94,66.13Z"/><path class="cls-6" d="M87.42,105.68c.93-2.47-1.7-4.07-1.45-6.51H85a2,2,0,0,1-2,1,6.93,6.93,0,0,0,0,1c1.08.68,1.07,1.35,0,2a4.41,4.41,0,0,0,.18,1c1.92.42,2.4,1.37,1.06,3,.21,1.07-.3,2.41,1.1,3.05,1.74-2.08,5.19-2.88,5.21-6.47C88.56,103.41,89.37,105.85,87.42,105.68Z"/><path class="cls-4" d="M108.59,118.51c-1.06.17-1.5.58-1.52,1.33,0,1.12-.41,2.68,1,3,2,.42,3.56,1.56,5.27,2.46.68.36,1.48,1,2.2.14s.28-1.54-.07-2.28C114,120.1,109.82,121.38,108.59,118.51Z"/><path class="cls-5" d="M102.54,70.22c.16.64.33,1.27.5,1.91l1.84,0c-.46-3.23,1.28-4.94,4.07-6l0-1.88C102.77,63.17,101.11,64.7,102.54,70.22Z"/><path class="cls-4" d="M103.85,131.72a2.24,2.24,0,0,0-3.12.43c-1.24,1.46-.46,2.82.43,4.05s2.37,1.43,3,.51c3.44-4.88,2.11,1.34,3.5,1.38C109.26,134.06,106.19,133.11,103.85,131.72Z"/><path class="cls-4" d="M111.58,109.6c-1.1-.48-1.92.26-2.28,1.28s0,2.2,1.24,2.13c3.92-.22,3.44,2.6,3.51,5.44,1.47-.85,1.5-1.9,1.9-2.77C118.1,111,114.2,110.73,111.58,109.6Z"/><path class="cls-6" d="M105.95,87.21c-3.1,2.2-3.45,5.61-4,9,0,.82,0,1.65,0,2.47s-.23,1.83,1,1.73c.82-.06,2-.76,1.64-1.46C102.62,94.68,107.17,91.26,105.95,87.21Z"/><path class="cls-4" d="M122.13,93.17c-1.93,0-4.15.2-3.88,2.26.41,3.17,2,.41,3.1.17,1.66-.36,1.72,1.25,2.53,1.92s1.5,1.8,2.45,1c1.19-1,.22-2.05-.44-3C124.93,94.12,124,92.78,122.13,93.17Z"/><path class="cls-6" d="M103.93,107c3.69-.23,5.51-2.32,6-5.81C105.62,100.56,102.93,101.71,103.93,107Z"/><polygon class="cls-6" points="109.95 101.19 109.95 101.19 109.96 101.19 109.95 101.19"/><path class="cls-4" d="M127.94,122a3.15,3.15,0,0,1-1,.15q0,.48,0,1c.33,2.52,1.59,3.56,4.07,2.44.86-.39,2-.85,1.38-2.13C131.47,121.48,129.91,121,127.94,122Z"/><path class="cls-5" d="M88.11,71.06l-2,.22-1.07.2-1.2.57,0,.07c.06,1.45-.11,3.15,1.68,3.63,1.46.39,1.51-1.41,2.35-2s1.57-1.08,2.36-1.62a1.84,1.84,0,0,0,.11-2.52Z"/><path class="cls-6" d="M84,112.34c-1.45-.25-2,.47-1.93,1.82,1.34,1.26.76,2.74.49,4.18l2.69,1.7C87.86,117,83.66,115,84,112.34Z"/><path class="cls-6" d="M103,112.19l-.05-.05c-2.77.16-3.12,2.09-2.95,4.24,0,.37-.66,2.59.8,1.15.85-.84,2.78,2.32,2.24-.85A26.62,26.62,0,0,1,103,112.19Z"/><path class="cls-9" d="M81.49,125.26c-2.56-2.53-1.17.72-1.68,1.05l1.12,1.88,2.8,1,.45-2c.09-1.06,1.17-1.93.59-3.12C83.64,124.51,81.84,125.61,81.49,125.26Z"/><path class="cls-6" d="M94,91.16c-.14-3.17,5.09-3.29,4-7C96.21,86.24,90.94,86.33,94,91.16Z"/><path class="cls-4" d="M107,79.15l0,1c.17,1.4.5,2.79,2.29,2.59a1.75,1.75,0,0,0,1.51-2.2C110.24,78.49,108.35,79.41,107,79.15Z"/><path class="cls-4" d="M84.77,124.08c.58,1.19-.5,2.06-.59,3.12,2.57-.14,4-.8,1.45-3.23A2.31,2.31,0,0,0,84.77,124.08Z"/><path class="cls-4" d="M117.36,108.82a.62.62,0,0,0,.76.86c.35-.1.57-.65.83-1l-.6-.84C118,108.18,117.5,108.44,117.36,108.82Z"/><path class="cls-4" d="M140.8,116.61c-.2.08-.26.51-.37.78.28.12.61.39.81.31s.26-.51.38-.78C141.33,116.8,141,116.53,140.8,116.61Z"/><path class="cls-6" d="M123.44,143.53c.09-.11.25-.22.26-.35s-.12-.26-.19-.39C123.48,143,123.46,143.29,123.44,143.53Z"/><path class="cls-6" d="M103,112.19l.2-.46-.25.41Z"/><path class="cls-5" d="M85.48,99.18H86l.08-1-1.08,1Z"/><path class="cls-9" d="M90.88,32.19c-2.31.22-3.08-2.27-4.88-3-2.07,2.4,2.21,3.64,1.07,5.86A13.31,13.31,0,0,0,89,36.59c1.51.81,3,2.45,4.81.72.59-.57,2-1.19,1.28-2.27C94.1,33.63,93.13,32,90.88,32.19Z"/><path class="cls-14" d="M84.93,40.23l-.59-1.14-1.06-2.76a1.5,1.5,0,0,1-1.35-1.94l-1.33-.92-1.72,1.82A4.13,4.13,0,0,1,80,38.15c2.79,2.77,3.62,6.55,5.13,10a2.69,2.69,0,0,1,.92.07q0-2.52,0-5Z"/><path class="cls-12" d="M86,29.2l.8-2.91c-3.82-1-3.72,2.23-3.36,3.95.43,2.06-.56,2.95-1.51,4.16a1.5,1.5,0,0,0,1.35,1.94l3.78-1.27C88.2,32.83,83.92,31.59,86,29.2Z"/><path class="cls-5" d="M86,43.16l0,5c1.17.7,1,1.84,1,2.94h0a2.67,2.67,0,0,0,2.89.11C89.22,48.27,92.28,43.46,86,43.16Z"/><path class="cls-12" d="M87,51.14,87,54.07c1.34.69.66,3,2.56,3.23,3-1.83.46-4,.41-6.05A2.67,2.67,0,0,1,87,51.14Z"/><path class="cls-12" d="M84.93,40.23l-.59-1.14Z"/><path class="cls-13" d="M76.91,147.33c-1.74-.34-3.19-.87-2-3.09l-1.8-1.18a4.56,4.56,0,0,0-4.2,4.07c-.15,2.05-4.82,3.73-.27,6.34,1.09.62,0,3.28-1.44,4.24s-2.53-.11-3.16-1.4c-1.42-2.9-4-5.44-3.12-9.12-2.36-2.45-5.59,1.38-7.95-1.09-2.87,2.16-2.71,4.13-.22,6.73,1.92,2,4.25,3.41,6.18,5.32,3.54.46,4.09,3.92,6,6,1.8.74,4,1.22,2.91,4,.14,3.23,2.19,5.87,2.36,9.27s3,.48,4.59.68L76,174.81a5.23,5.23,0,0,0-1.62-4.35,6.77,6.77,0,0,1-1.68-6.32c.7-2.05,3.48-.56,5.29-1l.28-3.23-.11-1.73C76.3,154.73,78.44,150.83,76.91,147.33Z"/><path class="cls-14" d="M67,139.18h0v0Z"/><path class="cls-14" d="M79,126.17l-2,3-1.16-1c-1.35-1.17-2.86-4-3.83.18-.43,1.88-1.73,1.68-3,1.8,1,3.37,2.61,6.88-2,9l-1.14,4.94c.85,1.2,1.11,3,3.11,3a4.56,4.56,0,0,1,4.2-4.07c.07-2.41-1.79-4.47-1.23-7a6.1,6.1,0,0,1,1.86-4.68c.92,2,4.27,2.95,1.81,6l.72,2.52c3.36-3.2,2.36-8.11,4.61-11.74l-1.12-1.88Z"/><path class="cls-14" d="M86.85,153.18a9.23,9.23,0,0,1-4.69-4.79c-1.55-3.46-3.13-2.61-5.26-1.06,1.54,3.49-.61,7.4,1.23,10.86,2.48.9.49-3.56,2.83-2.47,2.79,1.3,1.65,4.33,2.43,6.53,1.37-.15,2.62-.15,2.07-2.3-.43-1.7-1.48-3.48-.79-5.36,2.74,0,1.68,3.91,4.38,3.52C89.09,156.13,89.24,154.13,86.85,153.18Z"/><path class="cls-12" d="M71.93,136.1c-.56,2.49,1.3,4.55,1.23,7l1.8,1.18,1.36-4.31-.72-2.52Z"/><path class="cls-2" d="M87.25,134.64c-.2-.09-.55.17-.83.28.11.28.15.71.35.8s.55-.17.83-.28C87.49,135.16,87.45,134.73,87.25,134.64Z"/><path class="cls-6" d="M80,45.28c.18-1.75-1.88-2.19-2.08-3.7A6.71,6.71,0,0,1,75,37.93l-1.82-1C69.85,40.39,66,39.87,62,38.51c.3,1.4-.39,2.49-1.09,3.58a2.45,2.45,0,0,0,2.17,1.18c6-.66,10.85,1.79,15.07,5.8,1.9,1.13,3.8,1.91,5.76.13a7.51,7.51,0,0,0-.16-1C81.67,48.29,79.65,48.25,80,45.28Z"/><path class="cls-11" d="M69.38,33.46c-1.54-1.27-4.3-.9-4.84-3.57l-3.31,1.58c-.92,1.27-2.42,2.18-2.57,4.36,2.21-.53,4.37-.65,3.33,2.67,4,1.36,7.85,1.88,11.18-1.53C72.78,34.87,70.71,34.55,69.38,33.46Z"/><path class="cls-7" d="M75,37.93a6.71,6.71,0,0,0,2.87,3.65c2.09-.29-1.7-4.21,2.12-3.43a4.13,4.13,0,0,0-1.11-2.86C76.84,35.07,76.46,37.3,75,37.93Z"/><path class="cls-14" d="M68.77,22c2.29-.05,2.8-1,1.37-2.83C69,19.83,69.08,21,68.77,22Z"/><path class="cls-12" d="M76.63,98.14c-1.3-.24-1.7-.87-.76-2l.22-2L75,94.06l-4-.75c-1.7.07-1.81.67-1.11,2.21,1.23,2.7,3.81,4.61,4.37,7.66l1.84,0c3,1.61,4.08-3.23,6.94-2a6.89,6.89,0,0,1,0-1l-.06-.94C80.82,98.87,78.72,98.52,76.63,98.14Z"/><path class="cls-12" d="M79,84.13c2.17-.12,3.2.82,2.84,3.05L85,87.07c-.63-4-3.62-6.72-5.52-10.63C78.46,79.4,81.1,81.89,79,84.13Z"/><path class="cls-5" d="M69,82c-.73,1.58.69,1.17,1.18,1s2.2.94,1.78-1Z"/><path class="cls-6" d="M58.23,87c-1.19-.09-1.15,1.32-1.18,2.3l1.81.08C58.77,88.54,59.6,87.12,58.23,87Z"/><path class="cls-6" d="M61,83.16l0,0c.14.72.12,1.57,1.22,1.5a.45.45,0,0,0,.31-.31C62.56,83.27,61.71,83.29,61,83.16Z"/><path class="cls-6" d="M76.27,92.69c-1.07-.42-1.16.62-1.32,1.36l1.14.06C76.67,93.7,77,93,76.27,92.69Z"/><path class="cls-12" d="M63.08,43.27,63,48.11l1.68.44a5.94,5.94,0,0,1,5.52.95c1.34-.19,2.74-.66,3.83.64,1.44-.07,3,.45,4.1-1.08C73.92,45.05,69.1,42.61,63.08,43.27Z"/><path class="cls-6" d="M56,52.12c-1.71-2.34.28-4,1-5.94-2.38.91-5.7.88-3.66,5.29.49,1.05.31,3.4,0,5.1-.14.8-1.65,1.55-.18,2.3a2.69,2.69,0,0,0,2.26-.33c.8-.54,1.43-1.33,2.5-1.37-.5-3,1.49-2.23,3.08-2.09l-.16-2C59.23,53,57.35,53.87,56,52.12Z"/><path class="cls-2" d="M63,48.11c-3.16.63-1.54,3.29-2.12,5l.16,2c4.53-.32,4.17-3.37,3.64-6.52Z"/><path class="cls-12" d="M57.05,46.18c-.76,1.91-2.76,3.59-1,5.94C56.08,50.09,60.67,48.86,57.05,46.18Z"/><path class="cls-8" d="M83.91,49.2c-2,1.78-3.87,1-5.76-.13-1.06,1.53-2.66,1-4.1,1.08-.06,1.67-.23,3.35.75,4.85L75,57.25c1.8-.19,4.67-1.92,3.28,2.4-.41,1.27.64,2,1.68,2.51.25-2,2.2-3.11,2.34-5.31s1.87-3,4-2.49a.7.7,0,0,0,.6-.29q0-1.46.07-2.93h0C85.41,51.38,85,49.69,83.91,49.2Z"/><path class="cls-12" d="M82.32,56.84c-.14,2.2-2.09,3.33-2.34,5.31q.09,1,.18,2l3.65,1.12a20.93,20.93,0,0,0-.2-2.79c-.17-.86-1.12-1.89-.11-2.46.46-.26,1.6.68,2.42,1.08l.44-6.78C84.19,53.87,82.45,54.77,82.32,56.84Z"/><path class="cls-2" d="M74.05,50.14c-1.09-1.31-2.48-.83-3.83-.65-.5,3.52.63,5.68,4.58,5.5C73.82,53.5,74,51.81,74.05,50.14Z"/><path class="cls-13" d="M63,168.14c-1.11-4.79-5-6-9-6.93-.74,1.79-1.65,3.35-4,3a2,2,0,0,1-1,2,6.51,6.51,0,0,1-1,4c0,5.84,5.41,8.19,7.93,12.4.76-2.17.76-2.17-.92-7.39-1.35-1.77-2.36-3.65-2-6-.69-.56-1.1-1.32-.06-1.73,1.38-.54,1.93.42,2.07,1.66,2.22.93,3.36,2.48,2.9,5,.13,1.94.55,3.88.7,5.77.31,3.69,1.56,4.22,4.44,2.32.25-2.38-.43-4.62-.94-6.9C61.43,172.77,63.14,170.57,63,168.14Z"/><path class="cls-3" d="M50,186.17a12.39,12.39,0,0,1,1-1.22l-1.48-.59A9.34,9.34,0,0,1,50,186.17Z"/><path class="cls-3" d="M55.33,184.86c2.48,1.56,6,2.41,8.6-.73a2,2,0,0,0-.89-2c-2.89,1.9-4.13,1.37-4.44-2.32-.16-1.89-.57-3.83-.7-5.77L55,175.16c1.68,5.22,1.68,5.22.92,7.39-2.52-4.21-8-6.56-7.93-12.4-2.56-.25-1,2.22-2,3,.12,2.17-.46,3.83-3,4.09l-1,2.91c3.57,0,6.31,1.07,7.56,4.19l1.48.59C52,183.86,53.17,183.5,55.33,184.86Z"/><path class="cls-11" d="M59,158.15c-1.45,1.38-5.14-.92-5,3.06,4.09.91,7.92,2.14,9,6.93l1.94.94q0-.45,0-.9,0-2,0-4C63.07,162.07,62.52,158.61,59,158.15Z"/><path class="cls-11" d="M42.77,172.2c-1.17-.06-2.61-1.67-3.5,0s.15,3.16,1.53,4.2a8.94,8.94,0,0,0,2.21.88c2.51-.26,3.09-1.92,3-4.09A13.36,13.36,0,0,0,42.77,172.2Z"/><path class="cls-3" d="M46.34,161.36a1.4,1.4,0,0,0-1.05.82c-.43,2.23,1.94,2.29,2.86,3.5.18.24.56.33.84.49a2,2,0,0,0,1-2C49.15,162.75,48.26,161.34,46.34,161.36Z"/><path class="cls-11" d="M41.2,165.65c.37-.09.55-1,.81-1.46l-2.09,0C40.1,164.94,40.16,165.91,41.2,165.65Z"/><path class="cls-13" d="M54,141.34a2.42,2.42,0,0,0,1-2.17A2.09,2.09,0,0,0,54,141.34Z"/><path class="cls-14" d="M50,186.17l.18,3.15c1.89-.69,3.85-2.6,5.8-.85s-1.57,2.9-1,4.7c2.16.27,1.3,1.58,1.2,2.91-.28,3.53-1.33,7.32,2.86,10.69,0-2.78-.11-5,.06-7.17a2.6,2.6,0,0,1,1.35-1.87c1-.37,1.39.56,1.46,1.45.22,2.75,2.83,4.22,3.41,7,.68,3.26,4.19,1.53,6.45,2.06-.06-3.67,0-7.43-4.93-8.11-.89-.12-1.64-.44-1.69-1.42s.69-1.41,1.55-1.59c1.73-.35,3-2.05,5.06-1.53,3.19.83,3.06-1.42,3.16-3.45-1-.16-2.24-.61-1.45-1.6A91.3,91.3,0,0,1,51,184.95,12.4,12.4,0,0,0,50,186.17Z"/><path class="cls-14" d="M73.94,184.31c-1.39-.41-2-1.07-.83-2.4,1-1.08,2.19-2.06,1.74-3.79-1.61-.19-4.42,2.63-4.59-.68s-2.22-6-2.36-9.27H65q0,.45,0,.89c1.34,2.24,3.48,4.36,1,7.13a25.93,25.93,0,0,0,.86,7.33A4.28,4.28,0,0,1,65,188.71c-1.69-1.3-.66-3.11-1-4.58-2.61,3.14-6.12,2.29-8.6.73-2.16-1.36-3.29-1-4.31.09a91.3,91.3,0,0,0,22.49,5.61l0-.07C75.41,188.38,74.58,186.41,73.94,184.31Z"/><path class="cls-16" d="M56,188.46c-2-1.75-3.9.17-5.8.85-1.27,2.95-2.3,6.05-5.3,7.83q0,1,0,2c2.57,1.62,2.78,5.75,6.7,6.05.8-1.93.18-4,.27-6.11-.94-.26-2.51,1.46-2.78-.45-.37-2.71,1.27-4.19,4-4.47l1.94-1C54.46,191.37,58,190.19,56,188.46Z"/><path class="cls-5" d="M73,112.11l-1.08.06-.14,3.08,2.3,2.83c2.16,0,1.83-1.6,2-2.93A6.54,6.54,0,0,0,73,112.11Z"/><path class="cls-7" d="M69.83,115.16l1.94.08.14-3.08C70.19,112.45,68.47,112.73,69.83,115.16Z"/><path class="cls-5" d="M82.95,101.16c-2.86-1.19-4,3.66-6.94,2l0,2c2.75.84,4.75-1,7-2C84,102.51,84,101.84,82.95,101.16Z"/><path class="cls-9" d="M76,115.14c-.13,1.33.21,3-2,2.93v6.06c.81-1.21,1.56-1.92,2.91-1.78-.73-5,2.54-4.35,5.61-4,.27-1.45.84-2.93-.49-4.18Z"/><path class="cls-13" d="M68,130.16c-1.51,1.26-4.49,1.9-1.51,4.82.78.77.36,2.77.5,4.2,4.62-2.12,3-5.63,2-9Z"/><path class="cls-7" d="M77,129.17l-1.16-1Z"/><path class="cls-8" d="M61.13,127.15,60,126.22Z"/><path class="cls-3" d="M69,147.14c-2,0-2.26-1.83-3.11-3l-.35,0h-.35c-.88,1.71-2.68,2.18-4.17,3.07-.83,3.68,1.7,6.22,3.12,9.12.63,1.29,1.77,2.35,3.16,1.4s2.53-3.62,1.44-4.24C64.13,150.87,68.81,149.19,69,147.14Z"/><path class="cls-13" d="M65.14,144.12h.35l.35,0,1.14-5-2,2Q65.07,142.66,65.14,144.12Z"/><path class="cls-11" d="M75,192.15c.65-.44,1.35-.85,2-1.26q-1.75-.14-3.49-.34C72.72,191.54,74,192,75,192.15Z"/><path class="cls-11" d="M81.63,182.81a7.61,7.61,0,0,1-7.69,1.5c.64,2.1,1.47,4.07-.39,6.17l0,.07q1.74.2,3.49.34C79.9,189.17,82.71,187.38,81.63,182.81Z"/><path class="cls-10" d="M76.13,166.79c.69-2.18,2.57.06,3.78-.63l-.45-1.94L78,163.16c-1.81.42-4.6-1.07-5.29,1a6.77,6.77,0,0,0,1.68,6.32A5.23,5.23,0,0,1,76,174.81c2.85.64,3.41-1.68,4.42-3.43-.59-.3-1.17-.62-1.76-.89C77,169.76,75.52,168.71,76.13,166.79Z"/><path class="cls-14" d="M79.91,166.16c-1.21.69-3.09-1.55-3.78.63-.61,1.92.9,3,2.5,3.71.6.28,1.18.59,1.76.89L84,171l-1-2.63A3.84,3.84,0,0,1,79.91,166.16Z"/><path class="cls-15" d="M81,155.73c-2.34-1.09-.35,3.37-2.84,2.47l.11,1.73c1.43,1.14,2.06,2.5,1.22,4.29q.22,1,.44,1.94a3.84,3.84,0,0,0,3.15,2.2q.17-3,.33-6.1C82.62,160.05,83.76,157,81,155.73Z"/><path class="cls-9" d="M83.49,60.06c-1,.56-.06,1.6.11,2.46a20.93,20.93,0,0,1,.2,2.79l.11,1.76c2.61.41,2,2.56,2.24,4.22l2-.22c.76-3.64-2.18-6.46-2.2-9.92C85.09,60.74,84,59.8,83.49,60.06Z"/><path class="cls-11" d="M83.91,67.06l-2,1-.06,2.15a1.71,1.71,0,0,1,.09,1l2,.95,0-.07,1.2-.57,1.07-.2C85.88,69.62,86.53,67.47,83.91,67.06Z"/><path class="cls-12" d="M80.16,68.33c-.35,1.31.65,1.7,1.72,1.87L81.94,68C81.19,67.18,80.44,67.28,80.16,68.33Z"/><path class="cls-5" d="M83.12,104.14c0,1.13-.54,2.42,1.06,3C85.52,105.5,85,104.56,83.12,104.14Z"/><path class="cls-5" d="M83,100.16a2,2,0,0,0,2-1l-2.07.06Z"/><path class="cls-5" d="M84.8,91.15,84,92.25Z"/><path class="cls-9" d="M83.89,72l1.2-.57Z"/><path class="cls-8" d="M77.87,41.58c.2,1.51,2.26,1.95,2.08,3.7-.3,3,1.72,3,3.8,2.94l1.37-.1c-1.51-3.43-2.35-7.2-5.13-10C76.17,37.37,80,41.29,77.87,41.58Z"/><path class="cls-12" d="M86,48.19a2.69,2.69,0,0,0-.92-.07l-1.37.1a7.63,7.63,0,0,1,.16,1c1.12.5,1.49,2.18,3.08,1.93C87,50,87.22,48.89,86,48.19Z"/><path class="cls-10" d="M65,164.15q0,2,0,4h2.95C68.95,165.38,66.79,164.9,65,164.15Z"/><path class="cls-14" d="M78.24,159.93,78,163.16l1.5,1.06C80.31,162.43,79.67,161.06,78.24,159.93Z"/><path class="cls-7" d="M71.93,136.1l3.67,1.31c2.46-3-.89-4-1.81-6A6.1,6.1,0,0,0,71.93,136.1Z"/><path class="cls-11" d="M65.95,176.21a5.37,5.37,0,0,0-3.85-.94c.51,2.27,1.2,4.52.94,6.9a2,2,0,0,1,.89,2c.37,1.48-.66,3.28,1,4.58a4.28,4.28,0,0,0,1.84-5.17A25.93,25.93,0,0,1,65.95,176.21Z"/><path class="cls-10" d="M63,168.14c.12,2.43-1.59,4.63-.91,7.13a5.37,5.37,0,0,1,3.85.94c2.48-2.77.34-4.89-1-7.13Z"/><path class="cls-11" d="M55,169.1l-2,.07c-.37,2.34.65,4.22,2,6l2.92-1.09C58.35,171.59,57.21,170,55,169.1Z"/><path class="cls-3" d="M52.92,167.44c-1,.41-.63,1.17.06,1.73l2-.07C54.85,167.86,54.31,166.9,52.92,167.44Z"/><path class="cls-7" d="M53.09,194.18l-1.19,4.93c-.94-.26-2.51,1.46-2.78-.45C48.75,195.94,50.39,194.46,53.09,194.18Z"/></g></g></svg>