<svg xmlns="http://www.w3.org/2000/svg" viewBox="0 0 225.26 260.88"><defs><style>.cls-1{fill:#312922;}.cls-2{fill:#55493e;}.cls-3{fill:#6e6156;}.cls-4{fill:#7d6f62;}.cls-5{fill:#3e342b;}.cls-6{fill:#4b3f32;}.cls-7{fill:#a5927e;}.cls-8{fill:#66543e;}.cls-9{fill:#7d6549;}.cls-10{fill:#887e72;}.cls-11{fill:#5e544b;}.cls-12{fill:#ece5dd;}.cls-13{fill:#dfd5c7;}.cls-14{fill:#d3c6b7;}.cls-15{fill:#bfb0a0;}.cls-16{fill:#fdfdfc;}</style></defs><title>Asset 2</title><g id="Layer_2" data-name="Layer 2"><g id="Layer_1-2" data-name="Layer 1"><path class="cls-1" d="M211.59,35.6c-.49-2-1.78-3.92-.21-6-3.47-4.13-4.42-9.71-8-13.8-1.78.28-3.85-1.62-4.32-1.41-3.87,1.69-4.28-2.59-6.57-3.5A37.27,37.27,0,0,1,184,6c-1.52-1.15-3.69-.44-4.81-2.16-9.09-2.3-17.43-1.61-24,6-.14,4.67-5.89,7.24-4.32,12.67-2.69-2.22-.69-5.53-2.63-7.63-2.81.49-2.33,3.68-4.12,5A36.88,36.88,0,0,1,155.26,34a4.8,4.8,0,0,0,0,.67,2.16,2.16,0,0,1,1,2.17l1,.8c3.48-1.18,2.59,1.57,2.89,3.23h0c1.66.25,3.26.63,3.94,2.43,1.91,5,6.1,8.18,9.85,11.61,1.74,1.59.88,3.3,1.21,5l1,3.83,1.27.45.79-1c-1.46-3,.24-6-.09-9.14,1.61-.13,1.71,1.82,3,2l3-7.05,0,0c.63-2.51,5-2.22,4.14-6.23-.62-2.84-.76-4.59-4.1-2.81A30.3,30.3,0,0,1,181,41.08c-1.55.61-3.16,1.42-4.68.18-1.89-1.54.35-3,.29-4.42-.26-5.76,4.46-12.14-2.13-17.25-.67-.52-1.65-3-.55-4,.92-.89,2.59-2.31,4.26-.61,3.25.16,6.46,0,9.76.57,4.09.74,4.79,2.75,4.05,6.28-1.23-.2-1.17-2.33-2.76-1.93A30.7,30.7,0,0,0,186,22.14c-2.14,1.93-5.72,4.07-3.21,7.13a7.35,7.35,0,0,0,9.28,1.63c1.63-.92,3-1.26,4.62-.54,1.17.53,1.91,2.47,1,2.7-4.12,1-2.89,3.68-2.65,6.37A3.77,3.77,0,0,1,192.74,43c-2.28,1.23-1.86,2.76-.06,4.18,2-.45,4.14-.79,6.14-1.39,5.39-1.62,10.55-4.18,16.39-4C215.05,39.12,212.2,38,211.59,35.6ZM171.21,47.92l-.23.42.23-.42.23-.42Zm18.47-18.75c-.13-.25-.36-.51-.35-.76s.27-.48.41-.72l.4.77Zm8.83-10.3-.85-.91a3.33,3.33,0,0,1,1-.59c.21,0,.6.32.71.58C199.73,18.67,199.13,18.7,198.51,18.86Z"/><path class="cls-2" d="M53.92,220.4c.3-2.35,2.51-3,3.51-2.27,4.25,3.22,8.54.82,12.8.7L73,217.42c-6.57-1.26-13.4,1-19.88-1.49a26.28,26.28,0,0,1-3.84.89c-1.5.13-2.61-1.27-1.38-2,4.26-2.66,3.39-7.36,5.07-11,.18-.39.78-.58,1.18-.86l-1.05-9.07a6.86,6.86,0,0,1-2.29.74c-4.81-.28-8.49,4.24-6.2,8.46,1.73,3.19,1.35,4.55-1.61,6.15-1,.53-1.3,2.22-2.06,3.29-1,1.36-1.61.22-2.32-.44l-.19,0-.14,4.6a126.17,126.17,0,0,0,12.16,9.26,11.93,11.93,0,0,1,2-3A4.89,4.89,0,0,0,53.92,220.4Z"/><path class="cls-3" d="M72.36,166.85l-.64-.4.6-.43.09,0-.19-5.14h0a5.89,5.89,0,0,1-.42-.65s.21-.18.33-.27l.09-3.06q-.46,0-.92,0c-1.3-2.33-3.23-1.38-5.05-1-.14.57.15,1.49-1,1.25a.54.54,0,0,1-.34-.34c-.21-1.15.73-.8,1.28-1l.79-3.54c-2.83,2.15-4.57,1.26-5.76-1.42-.58-2.77-.24-5.87-3.1-7.79-1.61-1.08-.55-2.69-.4-4.06a1.34,1.34,0,0,1,.7-1c.66-.15.93.19,1.26,1,1.1,2.52,2.91,3.68,5.56,1.79.32-1.65-6.12-3.32,0-4.94-1.26-1.41-3.31-2-4-4-3.51,1.9-5.81-.23-6.81-3s.17-5.25,3.88-5.15q0-.39-.06-.77v-1.18c.44-2.28,2-4.76-1-6.49-1.09.65-.24,1.45-.31,2.16-.17,1.62-.84,3.51-2.63,3.18-1.36-.25-2.13-1.75-.63-3.46.76-.87-1.08-1.4-1.4-2.3h-1c-.67,2-3.43,1.64-3.49,1.23-.72-5-9.48-3-8.21-9.52a1.72,1.72,0,0,0-1.11-.53,1.09,1.09,0,0,0-1.05,1.38c.57,1.52-.17,2.47-1.12,3.42l.41.25-.44-.22c-2.23-1.12-1.32-5.37-5-5-.27,1.25-1.06,2.66-.72,3.73q3.6,11.49,7.65,22.84c.69,1.92,1.54,4.09,4,4.69a1.17,1.17,0,0,1,.17-.52,5.84,5.84,0,0,0-1.34-3.08c-1-1.38-1.64-3.16,1.16-3.54-.3-.94-1-2-.82-2.81.38-1.74-3.2-1.65-1.61-3.27s3.22-.14,4.67,1.08a16.84,16.84,0,0,0,3.49,1.63c-4.23.49-3,2.51-1.94,4.62.73,1.45,2.93,2.53,1.37,4.66,3.53.59,4.8,2.64,4,6.07,2.64,2.34,4.35,4.8,1,7.9l.83,2c3.32.88,4.24,2.16.7,4.18,2.38,3,5,5.85,5.65,9.79,2.41,1,4.31,4.51,7.62,1.56.08-.07,3.35.2,1.23,2.88-1.82,2.3,1.45,5.9-1,8.58C67,182.66,68.51,185.42,72,187c1.6-3-2.47-4.48-2.07-7.42.16-1.18-.13-2,1.17-2.47.82-2.18-1.46-3.57-1.51-5.51,1.43-1.13,3-.43,4.42-.59L74,168.81Zm-35.07-54c1.88,3.11,3.58,5.33,3.93,9.28C38.46,119.23,35.7,117.49,37.29,112.82Zm19.39,34.93c-.25,0-.48-.24-.72-.38.25-.11.51-.31.76-.3s.49.23.77.38C57.19,147.57,56.93,147.77,56.67,147.75Zm10.36,15c-.71,2.15-2.68.12-4.22,1.11s-1.39-1.63-1.63-2.88l-1.29-.41.26-.38,1.07.74a1.7,1.7,0,0,0,.39-.29c1.23-1.7,2.75-2.26,4.56-1A2.61,2.61,0,0,1,67,162.71Z"/><path class="cls-2" d="M197.76,205.87c-.94-2.64-1.73-5.33-2.57-8q-1.87,2.32-3.81,4.53a9.06,9.06,0,0,1-.94,4.23c-1,1.89-1.87,3.22,1.45,2a1.72,1.72,0,0,1,2.14,1.54c.1,1.15.06,2-1.85,1.92s-.47,1.91-.94,2.86c.89.69,1.25,2.26.4,2.31-2.44.16-3.69,2.43-6,2.88-.92-1.72-.28-3.5-.45-5.2-.52-1.5-.55-3.36-1-4.88q-3.64,3.61-7.46,6.87a9.51,9.51,0,0,0,1.79,4c1,1.35-.49,2-1.16,2.84-2.88,3.57-.78,8.87,3.62,10.33,2.67.88,2.23-2.8,4.28-2.16,1.76-.56,2.54-1.43,3.67-3.31,2.57-4.27,2.87-10.3,8.3-12.7h.93C195.63,212.67,199,209.24,197.76,205.87Zm-5.08.3c-.13-.26-.37-.52-.36-.78s.27-.49.42-.73l.41.78Z"/><polygon class="cls-2" points="179.21 199.91 179.21 199.91 179.21 199.91 179.21 199.91"/><path class="cls-2" d="M179.6,207.16c-.34,0-1.07-1.42-1-2.1.26-2.13,2.29-.16,3.21-1.21-.72-1.41-2.88-1.91-2.61-3.94l-4.07-1h-.93v1c0,1.12.12,2.28-1,3,.83,1.23-2,5.58,3,3.41.87-.38.93,1,.86,1.85-.25,2.92-.85,5.87-.28,8.69q3.82-3.26,7.46-6.87C183.64,208.39,182.54,207.13,179.6,207.16Z"/><path class="cls-2" d="M191.41,184.52l-1.27-2.61c-2,1-4-.48-5.93,0l0,3c2.59.87,4,5.88,2,8.28-1.2,1.48-2.47,3.45-5,2.76-1.49,3.8,2.13,5.3,3.57,7.76a1,1,0,0,0,2-.44c-.34-1.84,1.87-3.12.69-5.08-.5-.84-.81-2.49.87-2.74a2.39,2.39,0,0,1,2.44,2.08,28.17,28.17,0,0,1,.58,4.9q1.94-2.22,3.81-4.53a64.9,64.9,0,0,0-3.4-9A7.71,7.71,0,0,1,191.41,184.52Z"/><path class="cls-4" d="M36.15,214.68q1.1,1,2.21,1.94c.05-1.53.1-3.07.16-4.6C36.69,212,36.68,213.62,36.15,214.68Z"/><path class="cls-4" d="M47.92,100.59A13.86,13.86,0,0,0,45.25,95c-1.46-.5-1.4-2.36-4-2.56-3.6-.27-5.91-4.13-5-8.54l-.06-4.94a8.32,8.32,0,0,1,1-5.07c-.44-2.36,1.44-3.88,2.19-5.79,1-2.62.9-4.65-1.42-6.36l-1,1.17c-2.21,4.56-1.54,10.3-5.77,14,2.22,2,1.77,4.63,1.82,7.26.14,7.33-1.33,14.5-1.9,21.75,3.7-.34,2.79,3.91,5,5l0,0c.94-1,1.69-1.9,1.12-3.42a1.09,1.09,0,0,1,1.05-1.38,1.72,1.72,0,0,1,1.11.53c-1.27,6.52,7.49,4.53,8.21,9.52.06.41,2.82.8,3.49-1.23-1.35-1.21-2.77-2.64-2.17-4.48.33-1,2.06-.43,3.16-.54q0-.48,0-1C46.11,108.71,48.73,103.43,47.92,100.59Z"/><path class="cls-5" d="M196.72,30.36c-1.58-.72-3-.38-4.62.54a7.35,7.35,0,0,1-9.28-1.63c-2.51-3.07,1.07-5.2,3.21-7.13a30.7,30.7,0,0,1,3.25-2.27c.25-4-2.38-1.9-3.48-1.35-4.15,2.05-5.74,1.41-7.58-3.57-1.67-1.7-3.34-.28-4.26.61-1.1,1.07-.12,3.51.55,4,6.59,5.11,1.87,11.49,2.13,17.25.07,1.44-2.18,2.88-.29,4.42,1.52,1.24,3.13.43,4.68-.18a30.3,30.3,0,0,0,3.23-1.22c3.34-1.78,3.48,0,4.1,2.81.87,4-3.5,3.72-4.14,6.23l.42.24-.44-.22-3,7.05.13,2.24c1.07-1.44,2.06-2.94,3.22-4.29,2.34-2.69,3.52-6.8,8.12-6.79-1.8-1.42-2.22-3,.06-4.18A3.77,3.77,0,0,0,195,39.43c-.25-2.69-1.48-5.34,2.65-6.37C198.63,32.83,197.9,30.89,196.72,30.36Z"/><path class="cls-3" d="M71.25,25.84a4.91,4.91,0,0,1,0-1c-1.15.09-2.48-.17-3.43.32C61.56,28.44,56.13,27,50.83,23c-1.26-1-1.7-2.91-3.63-3-2.23,5.7-6.36,2.63-9.92,2.15l-5.18,2.33.12,1.46c6.41,0,12.51,2.4,18.95,2.31,1.55,0,2,1,.91,2.33-.86,1-1.93,1.88-1.81,3.39,2.86.29,1.37,2.11.93,3.19-1,2.52-1.76-1.07-2.8-.26a7.81,7.81,0,0,0-1.22,5,1.81,1.81,0,0,1,2,2c.85.81,3.36-3.37,3,1h1a12.27,12.27,0,0,1,8-6.07c.12-1.81,1.51-1.84,2.81-2.1,1-.2,2-.78,1.69-2s-1.61-.79-2.54-.91l-7.73,2.87A10.35,10.35,0,0,1,61.11,30c2.06-.9,4.32-1.28,6.31-2.54,1.26-.8,1.67.25,1.68,1.4C72.88,30,70.54,26.85,71.25,25.84Z"/><path class="cls-4" d="M116.22,25.07a8.64,8.64,0,0,0-7.61,1.33c-3.16,2.58-5.71.65-8.24-.27-2.09-.76.7-2.67-.09-4.06-3.94,1.08-8,.92-12,1.06l-.07,2.79c1.42,1.28,3.71.39,5,2,.94-.2,2.45-4.92,2.74.66.18,3.42,1.5,6.33-2.49,8.49-1-1.87,2.87-4.54-1.29-5.16-2.83,2.13-.09,5.63-2,8a2.15,2.15,0,0,1,1,2c3.77,1,4.87-3.58,8-3.8-3.13-2.77.48-4.17,1.38-6,.19-.4,1.83-.4,1.89,1.22a21.38,21.38,0,0,0,.81,3.78c3.36.65,6-3.69,9.62-1.42.06,0,.88-.74.81-.95-2-6,2.38-4.62,5.45-4.75C119.4,27.6,115.25,27.92,116.22,25.07Z"/><path class="cls-4" d="M174.32,89.75c-3.64,3.94-1.79,8.73-2.06,13.2,1.79,1.75,3.94,3.44,1,6,.6,6.87-.17,13.2-6.78,17.23-.25.94-.55,1.87-.73,2.82-.37,2-1.73,5,2.57,2.75.32-.17,1.22.77,1.85,1.19l2.87-1c2.8-4.4,2.82-9.59,4.12-14.42,2.25-8.32,1.67-16.53.07-24.84C176.85,90.72,175.74,90.24,174.32,89.75Z"/><path class="cls-3" d="M50.08,178.46c-7.77,9.85-9.6,21.71-11.4,33.6.7.66,1.35,1.8,2.32.44.76-1.06,1.07-2.76,2.06-3.29,3-1.6,3.35-3,1.61-6.15-2.3-4.23,1.39-8.74,6.2-8.46a6.84,6.84,0,0,0,2.29-.74q0-.47,0-.94c-2.36-.63-3.14-2.69-4.23-4.74,2.75-.69,4-1.67,3.85-5.32-.18-4.64,3.43-8.26,7.31-11l.25-2.78-3-.1C54.93,172.14,52.54,175.33,50.08,178.46Z"/><path class="cls-5" d="M13.78,37.37c-.91,2.35-3.44,1.39-5.33,1.6C4.51,45.4,4.94,52.73,4.16,59.81c.35,1.45-.58,3.31,1.34,4.28A2.21,2.21,0,0,0,6.26,62c-.31-3.15.87-5.29,4.09-6.05l.86-1a9.8,9.8,0,0,1,7-3.05v-4a2.9,2.9,0,0,1-3.07-2.85c-.72-3.34.86-4.57,4-4.36L19.29,39c-2.56-2.21,1-3.3.92-5.05C17.62,34.21,15,34.16,13.78,37.37Z"/><path class="cls-2" d="M163.32.6c-10.14,1.58-15.58,10.87-24.54,14.23a.61.61,0,0,1,.7,0c1.75.28,2,1.84,2.72,3.07l1.91,2c1.78-1.33,1.31-4.52,4.12-5,2.7-1.16,3.2-5.34,6.95-5,6.6-7.63,14.94-8.31,24-6,.7-1.2,2.65-.62,3.11-2.17A42.3,42.3,0,0,0,163.32.6Z"/><path class="cls-6" d="M31.57,67c-1.32,1-3.06,1.42-4.18.61a6,6,0,0,1-2.48-4c0-2.51,2.22-.87,4-1.22-1.89-2.29-1.4-5.23-2.84-7.58-1.33.59-.95,4.56-3.89,2-2-.45-2.87,1.44-4.28,2.2.28,5.36,5,7.34,8.1,10.56,2.13,2.24,5,3.81,5.26,7.37,4.23-3.73,3.56-9.47,5.77-14C34.46,63.27,33.37,65.6,31.57,67Z"/><path class="cls-7" d="M100.28,22.07c.79,1.39-2,3.3.09,4.06,2.53.92,5.08,2.85,8.24.27a8.64,8.64,0,0,1,7.61-1.33l1.91-.34c-1-3,1.71-2.88,3.18-3.81L120,17.52C113.2,18,106.7,19.84,100.28,22.07Z"/><path class="cls-5" d="M182.3,1.67c-.46,1.55-2.41,1-3.11,2.17,1.12,1.72,3.28,1,4.81,2.16a37.27,37.27,0,0,0,8.52,4.91c2.3.91,2.7,5.2,6.57,3.5.48-.21,2.55,1.69,4.32,1.41C199.09,7.06,191.08,3.79,182.3,1.67Z"/><polygon class="cls-8" points="184.21 181.91 184.21 181.91 184.21 181.91 184.21 181.91"/><path class="cls-8" d="M184.28,169.63l-1.8,3.5c-.89-2.9-3.85-3.53-4.26-6.2l-5.86-.09.9,3c1.15.07,2.59-.1,3.14,1,1.44,2.94,2.64,6,3.94,9,1.66,0,3.15.27,3.87,2,2-.48,4,1,5.93,0C188.39,177.72,187.55,173.09,184.28,169.63Z"/><path class="cls-9" d="M143.17,30.18c-1.13-.78-2.51-5.24-3-8.26-1.15,0-2.38.14-3.07-1.14l-3-3.22a7.79,7.79,0,0,0-4.82.08c.26,1.56-1.58,2-1.79,3,7,3.11,12.28,7.49,13.7,15.37C143.18,34.6,150.66,35.33,143.17,30.18Z"/><path class="cls-10" d="M127.54,20.63c.21-1,2.05-1.42,1.79-3-3.08-.86-6.17-1.34-9.29-.13l1.28,3.41,1,2c4.49.15,8,2.77,11.94,4.48,2.17.95,1,2.32.93,3.62l3.14,3.93a2.58,2.58,0,0,1,0,.89l0,0c.4.14,1.1.22,1.13.43.15.83-.66.66-1.12.85a1.44,1.44,0,0,0,0,.56l2.56.12q.15-.91.3-1.81C139.82,28.12,134.54,23.74,127.54,20.63Z"/><path class="cls-3" d="M191.41,184.52a7.71,7.71,0,0,0,.38,4.34,64.9,64.9,0,0,1,3.4,9c.61-.75,1.21-1.52,1.81-2.28A90.23,90.23,0,0,0,191.41,184.52Z"/><path class="cls-11" d="M8.45,39c1.9-.2,4.42.75,5.33-1.6,1.25-3.21,3.84-3.15,6.43-3.46a5.85,5.85,0,0,1,.87-.07c-.27-5,5.14-3.27,7-5.86.53-.74,2-.77,3.09-1.13l1-.94-.12-1.46C21.63,25.08,13.86,30.1,8.45,39Z"/><path class="cls-6" d="M224,42.81c-3.62-4.93-8.29-8.87-12.57-13.18-1.56,2.05-.28,4,.21,6,.6,2.43,3.46,3.52,3.61,6.19,2.08,1.26,4.12,2.6,6.26,3.75,1,.56,2.23,2.15,3.4.8C225.87,45.18,224.69,43.82,224,42.81Z"/><path class="cls-11" d="M46.19,145.94l0,0v0Z"/><path class="cls-11" d="M46.22,142.92s0,0,0,0l0,0Z"/><path class="cls-11" d="M51.21,142c.83-3.43-.44-5.49-4-6.07a16.45,16.45,0,0,0-1,7c1.21,1,1.45,2,0,3l-1.32,3.29c1.31,2.51,3.13,4.38,6,5,1-.47,2-.95,2.12-2.28l-.83-2C51.93,147.27,48.76,145,51.21,142Z"/><path class="cls-10" d="M47.82,126.65A16.84,16.84,0,0,1,44.33,125c-1.45-1.22-3-2.79-4.67-1.08s2,1.52,1.61,3.27c-.18.84.52,1.87.82,2.81,2.42,2.14,2.63,4.34.18,6.61a1.17,1.17,0,0,0-.17.52L43.38,143l2.85-.06a16.45,16.45,0,0,1,1-7c1.56-2.14-.64-3.21-1.37-4.66C44.81,129.16,43.59,127.13,47.82,126.65Z"/><path class="cls-7" d="M71.25,25.84c1.91.73,3.32,1.81,2.95,4.16,1.46-2,1.66-2.21,3-.59,1.12,1.37,1.3-.05,1.74-.33a6.59,6.59,0,0,1,5.21-1c1.72,0,2.66-1.53,4.06-2.16l.07-2.79c-5.66.82-11.47.21-17.06,1.74A4.88,4.88,0,0,0,71.25,25.84Z"/><path class="cls-2" d="M173.28,87.92a5.56,5.56,0,0,1-4.07-2l-3.92.08a2.63,2.63,0,0,1,0,2.88,11.17,11.17,0,0,1,2.9,6.1l1.89,4,1.11,2.89,1.09,1.06c.28-4.46-1.58-9.26,2.07-13.2Z"/><path class="cls-4" d="M175.3,65.41c-.42,1.06-.72,2.4-2.21,2-1.2-.31-.85-1.6-.9-2.52-.09-1.63-.11-3.26-.16-4.89a7.72,7.72,0,0,0-.81-.11c-.69,1.66-5.38,1.72-2,5,1.31,3.88.43,8.29,2.84,11.91l5.48-12.62-1.27-.45A12.71,12.71,0,0,0,175.3,65.41Z"/><path class="cls-8" d="M171.13,151c-1.94-3.43-.62-6.81.18-10.2l-.22-1.81-2.87,1.91c-.14,2.69-2.15,4.61-2.91,7,1.37,0,1.89.8,2,2,.81.41.9,1.17.95,1.95,2.28,1.87-.21,5,1.89,7C174.44,156.79,170,153.54,171.13,151Z"/><path class="cls-10" d="M67,167.43c-3.3,3-5.21-.55-7.62-1.56l-2,3.11,3,.1c4.87,1.47,6.87,4.94,6.88,9.81,2.45-2.68-.82-6.28,1-8.58C70.36,167.63,67.09,167.36,67,167.43Z"/><path class="cls-4" d="M167.38,78.78a2,2,0,0,0-1.16,2.13l2,1,1,4.06a5.56,5.56,0,0,0,4.07,2c3.06-3.16-1.24-5.25-1.16-8C170.35,80.32,169,79,167.38,78.78Z"/><path class="cls-7" d="M178.25,160.89l-.19.12c-.75,2-.3,4,.16,5.91.4,2.67,3.36,3.3,4.26,6.2l1.8-3.5c.19-1.95-1-3.33-2-4.76C177.87,166.63,180.07,161.74,178.25,160.89Z"/><path class="cls-7" d="M169.21,64.91a2.3,2.3,0,0,0-1,2l0,1.92,0,1.06-1,4c1.53,1.58,2.61,3.18.14,4.87,1.62.22,3,1.54,4.74,1.17,1.22-1.07.68-2.1-.07-3.13C169.64,73.2,170.52,68.79,169.21,64.91Z"/><path class="cls-10" d="M171.3,140.81c-.8,3.39-2.12,6.76-.18,10.2l2.94,0a3,3,0,0,1,.51-3.55C174.07,144.93,173.66,142.38,171.3,140.81Z"/><path class="cls-7" d="M178.28,156.65a20.24,20.24,0,0,0-3.7-9.22,3,3,0,0,0-.51,3.55c2,3.08,1,7.36,4,10l.19-.12,1.08-2.26a.78.78,0,0,0-.23-.79Z"/><path class="cls-11" d="M4.16,59.81c-1.05,3.59-5.49,6.09-3.76,11,2.72-1.85,4.42-3.9,5.1-6.72C3.58,63.12,4.51,61.27,4.16,59.81Z"/><path class="cls-7" d="M170.15,132.9l-.79,1.16c.28,2.39-3.56,4.1-1.14,6.85l2.87-1.91c1.43-2.17,2.6-4.41,1.94-7.14Z"/><path class="cls-6" d="M178.22,54c.33,3.11-1.37,6.12.09,9.14,2.44-.77,3-2.69,3-4.93L181.2,56C179.93,55.83,179.83,53.88,178.22,54Z"/><path class="cls-11" d="M37.27,22.12c3.57.48,7.7,3.55,9.92-2.15C43.47,18.76,40.45,20.79,37.27,22.12Z"/><path class="cls-10" d="M138.77,14.82l-4.63,2.75,3,3.21a2.3,2.3,0,0,1,2.13-.83l-.08-2.06c-1.1-1.12.34-2,.27-3.05A.6.6,0,0,0,138.77,14.82Z"/><path class="cls-1" d="M10.35,56l-.17,1.81,7,.26.18-2L11.21,55Z"/><path class="cls-10" d="M21.13,53.81a2.16,2.16,0,0,1-2.9.21,1.6,1.6,0,0,1,0,.89c-.05.61-.19,1.13-1,1.08l.13.07-.18,2,.7.93c1.41-.76,2.25-2.66,4.28-2.2C22.09,55.69,22.28,54.51,21.13,53.81Z"/><path class="cls-10" d="M178.25,160.89c1.81.85-.38,5.74,4,4a14.46,14.46,0,0,0-2.93-6.24Z"/><path class="cls-10" d="M53,151.89c-.08,1.34-1.1,1.81-2.12,2.28l2.82,1.9C57.28,154.05,56.36,152.77,53,151.89Z"/><path class="cls-6" d="M6.26,62c1.25-1.47,2.08-3.32,3.92-4.24L10.35,56C7.13,56.73,5.95,58.87,6.26,62Z"/><path class="cls-11" d="M46.19,145.94l0-.05h0Z"/><path class="cls-11" d="M43.38,143l.27,3.39,2.55-.47q0-1.49,0-3Z"/><path class="cls-11" d="M46.19,142.88v0h0Z"/><path class="cls-10" d="M44.9,149.21l1.33-3.32-2.59.48C43.81,147.43,43.91,148.52,44.9,149.21Z"/><path class="cls-8" d="M203.06,211.88l-.79-1.54Z"/><path class="cls-10" d="M179.11,157.84l-.83-1.19Z"/><path class="cls-12" d="M108.17,231a2.18,2.18,0,0,1-2-1c-3.26-2.37-8.38-2.51-9.18-7.85a2.27,2.27,0,0,0-2.68-1.71c-1.33.18-.81,1.54-1.1,2.41-.67,2.06,1.66,4.07,0,6.1a25.18,25.18,0,0,1,.81,14v0a96.88,96.88,0,0,0,13.69,1c1.52,0,3,0,4.54-.12-.25-2.86-1.91-5.4-3.83-7.58C106.35,233.86,107.81,232.69,108.17,231Z"/><path class="cls-8" d="M152.79,36.68l.41.24h0Z"/><path class="cls-8" d="M155.27,34.72l-.43-.5.42-.17A36.88,36.88,0,0,0,144.1,19.91l-1.91-2h-3l.08,2.06,2.18,1.5-1.24.47c.45,3,1.82,7.48,3,8.26,7.49,5.14,0,4.42-1.93,5.81l-.3,1.81c3-.28,3-.28,3.68,4.36l3.55-1.2c1-3.64,4-1.42,6-2l-.94-2h0l-.41-.24.42.23h0l3,0A2.16,2.16,0,0,0,155.27,34.72Z"/><path class="cls-5" d="M174,55c-3.75-3.43-7.95-6.58-9.85-11.61-.68-1.8-2.28-2.18-3.94-2.43l1.22,4.64c5.13,3.51,7.45,8.94,9.8,14.34A7.68,7.68,0,0,1,172,60l3.18-.09C174.88,58.26,175.75,56.55,174,55Z"/><path class="cls-11" d="M188,15.53c-3.3-.6-6.51-.42-9.76-.57,1.83,5,3.42,5.62,7.58,3.57,1.1-.54,3.74-2.63,3.48,1.35,1.59-.4,1.53,1.73,2.76,1.93C192.78,18.28,192.08,16.27,188,15.53Z"/><path class="cls-5" d="M148.22,14.9c1.94,2.09-.06,5.41,2.63,7.63-1.57-5.43,4.18-8,4.32-12.67C151.41,9.56,150.91,13.74,148.22,14.9Z"/><path class="cls-3" d="M153.21,36.92h0Z"/><path class="cls-3" d="M160.21,40.92c-1.27-.8-3.14-1.07-2.9-3.23l-1-.8-3,0,.93,2c.11,3.08,3.23,4.4,4.12,7l3.15-.41-1.22-4.64Z"/><path class="cls-6" d="M172,60c0,1.63.07,3.26.16,4.89.05.92-.3,2.21.9,2.52,1.49.39,1.79-.95,2.21-2a12.63,12.63,0,0,1,1-1.66l-1-3.83Z"/><path class="cls-5" d="M157.31,37.68c-.24,2.16,1.62,2.43,2.9,3.23C159.9,39.25,160.8,36.5,157.31,37.68Z"/><path class="cls-5" d="M199.41,17.94c-.12-.26-.5-.61-.71-.58a3.33,3.33,0,0,0-1,.59l.85.91C199.13,18.7,199.73,18.67,199.41,17.94Z"/><path class="cls-5" d="M189.74,27.68c-.15.24-.4.48-.41.72s.22.51.35.76l.46-.72Z"/><path class="cls-5" d="M171.21,47.92l.23-.42-.23.42Z"/><path class="cls-5" d="M154.83,34.21l.43.5a4.9,4.9,0,0,1,0-.68Z"/><path class="cls-5" d="M171,48.33l.23-.42h0Z"/><path class="cls-13" d="M49.88,237.71c4.95,5.31,1.65,10.81,1.81,16.24l.31,2,4.38,4.93c2.56-.1,4.3-2.53,4.74-3.9,1.7-5.31,4.38-3.84,7.71-2.06,2.19,1.17,5.45.65,5.8-1.32.65-3.68,2.78-2.57,4.73-2.51,3.69.13,7.13-.37,9.88-3.14-1.44-.77-2.89-1.55-4.41-.15s-1.75-.72-2.67-.94c-3,.35-3.59-1.67-4-3.92-4.5-.36-7.72-3.18-8.61-6.8A112,112,0,0,1,50.5,225.87C48.55,229.81,47.71,235.38,49.88,237.71Z"/><path class="cls-13" d="M70.57,229.3c2.06-3.76.34-7-.34-10.47-4.26.11-8.55,2.52-12.8-.7-1-.76-3.21-.07-3.51,2.27a4.89,4.89,0,0,1-1.42,2.49,11.93,11.93,0,0,0-2,3,112,112,0,0,0,19.05,10.27A9.43,9.43,0,0,1,70.57,229.3Zm-2.36-2.39-.23.42.22-.42.24-.41Z"/><path class="cls-13" d="M68,227.33l.23-.42.23-.41-.24.41Z"/><polygon class="cls-5" points="62.21 174.91 62.21 174.91 62.21 174.91 62.21 174.91"/><path class="cls-5" d="M78.1,203.09c-.38-.3-1.09-.61-1.08-.88.24-5.71-2.35-10.48-5-15.23-3.51-1.56-5-4.32-4.78-8.08,0-4.87-2-8.35-6.88-9.81l-.25,2.78,2.1,3h0l.39-2.19c.13.08.34.14.38.26a1.52,1.52,0,0,1-.77,1.93h0c.29,2.69-2.8,4.33-2.11,7.32.31,1.34-3.55-2.47-2.43,1.22a6.83,6.83,0,0,1-.83,5.6c-.82,1.51-2.4,2.6-3.65,3.87q0,.47,0,.94l1.05,9.07c-.25,4.34,1.43,8.84-1,13,6.48,2.45,13.31.23,19.88,1.49l2-2.58.81-1.41a.56.56,0,0,0-.42-.59c-.75,0-1.68.09-1.81-.92-.09-.71.59-1,1.22-1.05.7-.74,1.08-1.9,2.39-1.87,1.63-.41,3.13-.9,2.07-3.11C78.57,205.11,77.79,204.33,78.1,203.09Zm-16.75-6.68a2.43,2.43,0,0,1-1.54-.72c-1.45-3.13,1.88-3.92,2.72-6.42C63.82,192.36,62.72,194.44,61.36,196.41Z"/><path class="cls-14" d="M78.16,242.94c0-1-.19-2.25-1.12-2.44-1.92-.38-2.34-1.27-2.28-2.35q-2.63-.94-5.21-2C70.45,239.76,73.66,242.58,78.16,242.94Z"/><path class="cls-14" d="M75.21,234.91A10.5,10.5,0,0,1,77,228.85a5.18,5.18,0,0,0,.71-5.07c-.92-2.39-.68-4.27,2-5.73,2.85-1.57,3.73,0,4.82,2.05.25.46,1.1.6,1.67.88l.13-.13v-4L86.14,214c-2.56-2.39-7.12-1.21-8.9-5-1.31,0-1.69,1.13-2.39,1.87l.6,2a.56.56,0,0,1,.42.59l1.59.88c-.64.92-1.54.64-2.41.53l-2,2.58-2.82,1.41c.68,3.46,2.4,6.71.34,10.47a9.43,9.43,0,0,0-1,6.84q2.58,1.08,5.21,2a14.72,14.72,0,0,1,.46-2.25C74.52,235.58,74.49,235.25,75.21,234.91Z"/><path class="cls-6" d="M54.2,202.93c-.4.28-1,.47-1.18.86-1.68,3.64-.81,8.35-5.07,11-1.23.77-.12,2.16,1.38,2a26.27,26.27,0,0,0,3.84-.89C55.63,211.77,53.95,207.27,54.2,202.93Z"/><path class="cls-11" d="M137.16,122.94c-.25,2.8-2.42,1.72-3.94,1.95-.26,1.15,1.29,2.57-.3,3.44s-2.09-1.8-3.66-1.46c-.73,1.15-.91,3.18-3.09,2.08-2-1-2-3.44-2.74-5-1.34-3-.73-3.23-4.28-2-.59.92-2.19,1.49-1,3,4.35,1.62.22,4.91,1.36,7.3.4.85-.76,2.44-1.2,3.69,1.81.56,4.9,1,4.3,3-.9,3-4.64,2.23-7.19,2.82-1.28.3-2.84-.46-4.24-.87-2.29-.66-1.87,1-1.95,2.2.26,3.74,3.81,3.61,6.12,5.1-1.9,4.21-3.58,4.49-5.65.08-.83-1.76-2.32-3.21-2.46-5.31a2,2,0,0,0-1-1.94l-5,2q0,1,0,2c5.12-.92,6.25,3.77,7.86,6.58.91,1.59,1.67,3.63,3.09,4.49,3.22,2,3.22,3.75.16,6.06-1.08-2.21-4.05-3-5.15-5.65-.78-1.9-1.89-.13-2.84-.07-4.69.32-8.63-1.41-12.09-4.42-2.83-1.35-5.16-3.14-6.15-6.32-.5-1.61-1.37-2.66-2.84-.68-1.52-1-1-2.58-1-4h0l-2-2c-1.92,1.19.14,5.23-3.22,5-2.16-.12-3.93-1.26-5.22-3.8-1-2-4.25-2.89-6.5-4.27-6.14,1.62.3,3.29,0,4.94l.89,2.09c2.06,4.54,5.32,8.64,5.17,14q.46,0,.92,0c1.39,1.32,1.48,2.65,0,4l.19,5.14c1.8-.46,3.25-1,3.93-3.21,1.35-4.35,5.67-6.29,8.51-9.46,1-1.11,2.54-.46,3.7.27,6.16,3.87,13,6.63,18.67,11.31l2.16,2.05c.72,2,4.47,1.48,3.7,4.63,1.47,1,2.6,1.29,4.08-.39,2.59-3,3-.71,3.08,1.61l2.93.12,2.9-.15.09-.12a6.94,6.94,0,0,1,.09-1l2.19-1.07-.14-1.66c-.93-5.3-.94-5.36-9.22-4.84-1.37.09-2.83.92-2.74-1.3.1-2.45,1.66-.73,2.66-.95,2.21-.48,4.25-1.8,6.31-2.88a1.5,1.5,0,0,0,0-1.26c-5.23-2.75-.71-4.16.79-6,1.31-1.6,1.27-1.65-3.09-3.88.8-3.05,3.38-1.55,5.19-2,1.07-1.13-.78-4.56,3.18-3.63,1.21.28.54-2.19.88-3.35h0c-1.32-.29-3.48.79-3.73-1.26-.27-2.28,1.45-3.49,3.72-3.72,2.67-1.13,3.52-4.65,7.82-4.29,2.6.22,3.54-4.44,3.25-7.7Z"/><path class="cls-13" d="M121.27,182.9a8.78,8.78,0,0,1-.23.93c-.47,3.45-4.23,2.23-5.82,4.09q0,.48,0,1c1.82.39,3.57,1.22,6,0-1.2,4.08-4.19,3.31-5.94,3.24s.37-2-.1-3.13c-1.26.46-2.16,2.29-3.87,1-4.51,5.11-9.65,4.69-15,1.67a5.37,5.37,0,0,0-4.33-.19c-9.52,2.65-17.47-3.92-16.47-13.64-.53-.94.1-2.37-1.25-3-1.24.46.46,5-3.1,2.23-1.3.45-1,1.3-1.17,2.47-.4,2.94,3.66,4.39,2.07,7.42,2.65,4.75,5.24,9.52,5,15.23,0,.28.7.59,1.08.88.37-1.76.78-3.51,1.08-5.29.19-1.1-.16-2.58,1.48-2.64s1.36,1.51,1.68,2.55c.36,1.2.84,2.37,1.43,4,3-2.45,2.4-8.92,8.32-6.64a5,5,0,0,1,3.12,2.86c3.91-1.43,8.11.55,12-1l18-1A66.24,66.24,0,0,1,123.14,183Z"/><path class="cls-1" d="M84.84,153.38c-2.83,3.17-7.16,5.11-8.51,9.46-.68,2.19-2.13,2.75-3.93,3.21l-.09,0a7.42,7.42,0,0,1,0,.83l1.61,2c2.45-3.34,5.41-1.29,8.23-.78,3.16-2.36,6.56-.13,9.62-.53,5.12-.66,10.62.26,15.4-2.54-5.67-4.68-12.51-7.44-18.67-11.31C87.38,152.92,85.83,152.27,84.84,153.38Z"/><path class="cls-2" d="M77.22,111.84l-.09-1.06c-3.34-.3-4.59,3.83-8.27,3.65-1.88-.09-3.76-.3-5.64-.52-2.51,3.32-3.12,6.65-.09,10,.23-.23.62-.42.68-.68.58-2.44,1-5,4.23-5.27,1.93-.18,3.06,1.08,3.9,2.56,1.37,2.42,2.08,4.88-.1,7.29a18.88,18.88,0,0,0-1.42,2c.1,1.92-.64,3.07-2.73,3.09-3.4,0-4.63-2.24-5.4-5l-1-.26-.1,4.24c.73,1.95,2.78,2.57,4,4,2.25,1.38,5.48,2.27,6.5,4.27,1.29,2.54,3.06,3.68,5.22,3.8,3.37.19,1.3-3.85,3.22-5,.63-4-1.5-7.56-3.3-10.53C73.33,122.47,75,117.3,77.22,111.84Z"/><path class="cls-4" d="M62.31,127.93h-.05l0,0Z"/><path class="cls-4" d="M64.24,108.08l-2-.16a3.1,3.1,0,0,1-3,2c.45,3.33-2.69,3-4.29,3.56a19.29,19.29,0,0,0-2.73,1.43c.31.9,2.15,1.43,1.4,2.3-1.49,1.71-.73,3.21.63,3.46,1.79.33,2.46-1.56,2.63-3.18.07-.71-.78-1.51.31-2.16,3.08,1.73,1.47,4.21,1,6.49.75.39.76.78,0,1.18q0,.39.06.77c1.79,1.41-.43,2.71-.12,4.08l.08.08c1.13,1.06,1.8-2.85,3.07-.28l1,.25,1-1q0-1.5-.09-3c-3-3.37-2.42-6.7.09-10C65.45,111.26,65.56,110.64,64.24,108.08Z"/><path class="cls-15" d="M82.19,168c-2.82-.51-5.78-2.56-8.23.78L74,171l1.4,1.84,4.81.2a17.81,17.81,0,0,0,8.85.36l.15-2.19C87.45,168.88,83.45,171.5,82.19,168Z"/><path class="cls-4" d="M63.2,149.9a2.1,2.1,0,0,1-2,1c1.19,2.68,2.93,3.57,5.76,1.42l-.79,3.54.05.05c1.83-.42,3.75-1.37,5.05,1,.15-5.36-3.1-9.46-5.17-14C64,144.77,66.65,148.61,63.2,149.9Z"/><polygon class="cls-4" points="63.19 149.91 63.2 149.9 63.2 149.9 63.19 149.91"/><path class="cls-10" d="M59.68,139c-.34-.77-.6-1.11-1.26-1a1.34,1.34,0,0,0-.7,1c-.15,1.38-1.21,3,.4,4.06,2.86,1.92,2.52,5,3.1,7.79a2.1,2.1,0,0,0,2-1h0l-.41-.22.42.21h0c3.45-1.3.82-5.14,2.93-7l-.89-2.09C62.59,142.71,60.78,141.55,59.68,139Z"/><path class="cls-10" d="M62.79,149.69l.41.22h0Z"/><path class="cls-11" d="M55.83,108.52c-1.17,1.43-1.7,2.71-3.63,1.37-1.1.11-2.82-.49-3.16.54-.59,1.85.82,3.28,2.17,4.48h1A19.29,19.29,0,0,1,55,113.5c1.59-.58,4.74-.22,4.29-3.56C59.29,106.58,57.5,106.47,55.83,108.52Z"/><path class="cls-11" d="M58.25,128c-.17.7-.12,1.59-1.23,1.49a.46.46,0,0,1-.31-.31c-.1-1.09.74-1.11,1.46-1.26-.31-1.37,1.91-2.66.12-4.08-3.71-.09-4.9,2.37-3.88,5.15s3.29,4.85,6.81,3q0-2.12.1-4.23C60,125.1,59.37,129,58.25,128Z"/><path class="cls-11" d="M66.17,159.63c-1.81-1.29-3.33-.72-4.56,1a1.69,1.69,0,0,1-.39.29l0,0c.24,1.25,0,3.92,1.63,2.88s3.51,1,4.22-1.11A2.61,2.61,0,0,0,66.17,159.63Z"/><path class="cls-6" d="M74.15,174.08l1.27-1.25L74,171c-1.45.16-3-.54-4.42.59.05,1.93,2.33,3.32,1.51,5.51,3.36,2.61,2-1.28,2.92-2.11-.2,0-.41,0-.44-.06C73.41,174.42,73.61,174.11,74.15,174.08Z"/><path class="cls-6" d="M74.22,174.84A.53.53,0,0,0,74,175h.21Z"/><path class="cls-10" d="M51.21,142c-2.46,3,.71,5.26,1,7.9C55.56,146.81,53.85,144.35,51.21,142Z"/><path class="cls-10" d="M41.22,122.1c-.36-4-2.05-6.17-3.93-9.28C35.7,117.49,38.46,119.23,41.22,122.1Z"/><path class="cls-6" d="M42.09,130c-2.8.38-2.15,2.16-1.16,3.54a5.84,5.84,0,0,1,1.34,3.08C44.72,134.36,44.51,132.16,42.09,130Z"/><path class="cls-4" d="M72.12,160q.07.46.09.92h0c1.48-1.33,1.38-2.65,0-4Z"/><path class="cls-10" d="M56,147.37c.24.14.48.37.72.38s.51-.19.81-.31c-.28-.15-.52-.37-.77-.38S56.2,147.26,56,147.37Z"/><path class="cls-4" d="M64.91,156.85a.54.54,0,0,0,.34.34c1.14.24.85-.68,1-1.25l-.05-.05C65.64,156.05,64.7,155.7,64.91,156.85Z"/><path class="cls-11" d="M59.9,160.53l1.29.41,0,0-1.07-.74Z"/><path class="cls-11" d="M58.23,121.84q0,.59,0,1.18C59,122.62,59,122.23,58.23,121.84Z"/><path class="cls-4" d="M36.2,110.93l.44.22-.41-.25Z"/><path class="cls-11" d="M71.79,160.26a5.89,5.89,0,0,0,.42.65q0-.46-.09-.92C72,160.09,71.78,160.24,71.79,160.26Z"/><path class="cls-11" d="M71.72,166.45l.64.4a7.42,7.42,0,0,0,0-.83Z"/><path class="cls-6" d="M185.24,235.89q0-2,0-4c-2-.64-1.61,3-4.28,2.16-4.4-1.46-6.51-6.76-3.62-10.33.67-.84,2.19-1.49,1.16-2.84a9.51,9.51,0,0,1-1.79-4q-1.3,1.11-2.63,2.18a2.15,2.15,0,0,1-.92,2.26c-5.2,3.18-8.42,7.17-6.37,13.7a9,9,0,0,1-1.59.84c.74,4-.53,6.28-4.94,6q0,.47,0,.95c2,.58,1.51,3,2.94,4,3.16-1.35,2.61-4.91,4.39-7.37-.26,4.38,0,8.39,4.54,10.44a6.51,6.51,0,0,0,.44-.89c1.59-4.92,3.45-9.22,9.71-4.82.37.26,1.26-.23,1.9-.37-.58-2.43,2-3.76,2.05-6A2,2,0,0,1,185.24,235.89Zm-9.79,3.18a1,1,0,0,1,.08-.37c0-.06.2-.05.3-.07l.14.34Z"/><path class="cls-6" d="M177,208.23c.07-.83,0-2.23-.86-1.85-5,2.17-2.12-2.19-3-3.41-1-1.57-2-1.2-3.06,0-2.4,4.18-.88,8.59-.69,12.9,0,1,1,2.18,2,1.54,1.47-.92,1.93-.42,2.44.84a3.84,3.84,0,0,1,.24.88q1.32-1.07,2.63-2.18C176.15,214.09,176.75,211.15,177,208.23Z"/><path class="cls-5" d="M184.19,184.87a2,2,0,0,1-1-1.89c-2.19-.14-5.83,2-4.94-3.06l-.42-.25.44.22c.7-.37,1.45,3.22,2.12,0-1.29-3-2.49-6.08-3.94-9-.55-1.13-2-1-3.14-1-.55,2.49-2.25,5,1.49,7.68-5,.14-7.48,1.28-4.67,5.74a3.84,3.84,0,0,1-.41,3.32c-1.6,2.42-4.48,4.48-.15,7.15.56.35-1.82,2.66-.26,4.27a8.83,8.83,0,0,0,4.89-1l7-1c2.54.69,3.82-1.28,5-2.76C188.17,190.75,186.78,185.74,184.19,184.87Z"/><path class="cls-6" d="M191.88,208.64c-3.32,1.19-2.43-.13-1.45-2a9.06,9.06,0,0,0,.94-4.23q-3.5,4-7.2,7.66c.5,1.52.52,3.38,1,4.88,2,.83,4-2.17,6,0,.47-.94-1.08-3,.94-2.86s1.95-.76,1.85-1.92A1.72,1.72,0,0,0,191.88,208.64Z"/><path class="cls-6" d="M179.44,199.5l-.23.41h0Z"/><path class="cls-6" d="M191.38,202.39a28.17,28.17,0,0,0-.58-4.9,2.39,2.39,0,0,0-2.44-2.08c-1.68.25-1.38,1.9-.87,2.74,1.18,2-1,3.24-.69,5.08a1,1,0,0,1-2,.44c-1.44-2.45-5.06-4-3.57-7.76l-7,1,1,1.95,4.07,1h0l.23-.41-.22.41h0c-.26,2,1.9,2.53,2.61,3.94-.92,1-2.95-.92-3.21,1.21-.08.68.64,2.1,1,2.1,2.93,0,4,1.23,4.58,2.89Q187.88,206.39,191.38,202.39Z"/><path class="cls-11" d="M191.23,214.94c-2-2.18-4,.82-6,0,.17,1.7-.46,3.48.45,5.2,2.26-.44,3.51-2.71,6-2.88C192.48,217.2,192.13,215.64,191.23,214.94Z"/><path class="cls-11" d="M169.28,198l.84,4.95c1-1.17,2.05-1.55,3.06,0,1.14-.74,1-1.9,1-3-.66-.34-.72-.68,0-1h.93l-1-1.95A8.83,8.83,0,0,1,169.28,198Z"/><path class="cls-8" d="M184.19,184.87q0-1.48,0-3L183.14,183A2,2,0,0,0,184.19,184.87Z"/><polygon class="cls-8" points="184.21 181.91 184.21 181.92 184.21 181.91 184.21 181.91"/><path class="cls-6" d="M192.32,205.39c0,.25.23.52.36.78l.47-.73-.41-.78C192.59,204.91,192.33,205.15,192.32,205.39Z"/><path class="cls-6" d="M174.21,199.94q0-.51,0-1C173.49,199.26,173.55,199.6,174.21,199.94Z"/><path class="cls-1" d="M41.15,30.51c-2.58.14-5.27-1.72-7.92-2.68-4.43,1.22-7.06,6.09-12.15,6a5.73,5.73,0,0,0-.87.07c.06,1.75-3.49,2.85-.92,5.05,1.9-.88,3.61-2.34,5.92-2,.71-.9,1.73-1.3,2.46-.36a3.61,3.61,0,0,1,0,4.16c-1.65,2.77-4.49,3.59-7.4,4.22a3.27,3.27,0,0,1-2,3q0,2,0,4,0,1.05,0,2.11a2.16,2.16,0,0,0,2.9-.21L22.24,51c0-1.6,1.08-2.62,2.42-2.4,1.93.32,1.55,2.09,1.39,3.54q0,1.36,0,2.71c1.44,2.35.95,5.28,2.84,7.58-1.77.35-4-1.29-4,1.22a6,6,0,0,0,2.48,4c1.12.81,2.86.43,4.18-.61,1.79-1.41,2.89-3.75,5.45-4.15l1-1.17.95-2.29L39,59c1.28-3.27,1.7-7,5.17-9.06h0a8.54,8.54,0,0,1,2.71-7.23,4.66,4.66,0,0,1,.24-.79,7.8,7.8,0,0,1,1.22-5,2,2,0,0,1,.8-2C47.38,31.85,45.11,30.3,41.15,30.51Z"/><path class="cls-11" d="M60.25,89.9l0,0c-.74-.13-1.73-.1-1.49-1.2.07-.32,1-.45,1.53-.67,1.79-2.27,2.15-4.57,1-6.13l0,0a27.17,27.17,0,0,1-15,3c-.17,1.65,2.22,3.31,0,5,.44,1.77.55,3.79,3.06,4-.29-2.3,1.55-3.84,2.14-5.86.44-1.52,2.41-1.51,3.44-.9,1.53.9.55,2.83-.3,3.19-2,.86-2.23,2.67-3.16,4.15-1,1.65-1.33-.61-2.11-.57-1,1.48-2.64.75-4,1a13.87,13.87,0,0,1,2.67,5.64c.81,2.84-1.81,8.12,4.29,8.34,0-1.15,0-3.14.87-3.1,5.08.2,2.71-3.47,3.07-5.6.32-1.87.79-3.6,3-2.37,3.77,2.1,3.55-.81,4.08-2.92C61.06,94,58.61,93.14,60.25,89.9Z"/><path class="cls-3" d="M52,60.86c4.21-.77,1.38-2.44.38-3.84l-1.44,1q0,.4,0,.8c.08.57-.19.82-.74.83-2.74.36-4.39,2.25-6,4.2a12.07,12.07,0,0,1,1.34,1.79c-2.32,2.45-4.94,4.54-5.31,8.42-.12,1.27-1.93.11-2.94-.25a8.31,8.31,0,0,0-1,5.07,6,6,0,0,1,4-1l0,0c-.1-.53-.85-1.34-.1-1.54,1.05-.28,1,.84,1.09,1.54l.28.14c.46-.46,1.23-.86,1.34-1.4,1.19-6.09,5.66-6.13,10.39-5.76-.6-1.29-1.59-2.69.91-3.05l-1.84-2.07c-.8-.92-3,0-2.89-2A2.82,2.82,0,0,1,52,60.86Z"/><path class="cls-3" d="M67.12,89.06H65.37l-.15,1.8c.7.35.74.69,0,1a3.27,3.27,0,0,1-2,3.09c-.53,2.12-.3,5-4.08,2.92-2.22-1.23-2.69.49-3,2.37-.36,2.13,2,5.8-3.07,5.6-.92,0-.86,1.95-.87,3.1q0,.48,0,1c1.94,1.34,2.46.06,3.63-1.37,1.67-2,3.47-1.94,3.41,1.42a3.1,3.1,0,0,0,3-2c-.09-1.14-.24-2.31,1-3a15.24,15.24,0,0,1,2.92-8.15c.13-1.35.2-2.74,2-2.88,0-1.33-.84-2.68,0-4ZM58.5,101.27l-.87-.22c.22-.32.38-.82.68-.92s.74.18,1.12.3Z"/><path class="cls-10" d="M46.16,89.93a8.43,8.43,0,0,1-1,0c-2.67.07-2.88-2.42-4.06-3.9-2.28,1.24-3.72.78-4-2a6.66,6.66,0,0,1-.86-.13c-1,4.41,1.35,8.26,5,8.54,2.61.2,2.55,2.06,4,2.56,1.34-.3,3,.43,4-1h0C46.71,93.73,46.6,91.7,46.16,89.93Z"/><path class="cls-10" d="M42.36,61.14q-2.63,1-3.41-1.74L38,61.69c2.32,1.71,2.46,3.74,1.42,6.36-.76,1.91-2.63,3.43-2.2,5.79,1,.36,2.82,1.52,2.94.25.37-3.88,3-6,5.31-8.42a12,12,0,0,0-1.34-1.79C42.25,63.79,42.2,62.53,42.36,61.14Z"/><path class="cls-11" d="M36.22,78.92q0,2.47.06,4.94a6.79,6.79,0,0,0,.86.13c1.07-.61,1.47-2.22,3.06-2.07h0q0-2,0-4A6,6,0,0,0,36.22,78.92Z"/><path class="cls-1" d="M184.2,48.93l.44.22-.42-.24Z"/><path class="cls-10" d="M57.35,46.84c-2.71,2.34-4,1.5-4.15-1.91h-1a5.28,5.28,0,0,1-4,4c1,3,0,6,0,9l2.67.11,1.43-1c2.37-.33,4-1,5.1-3.75a24.2,24.2,0,0,1,6.69-8.62l1.06-3.9-4,1.17C60.66,44.14,58.94,45.46,57.35,46.84Z"/><path class="cls-9" d="M71.25,25.84c-.71,1,1.63,4.2-2.15,3-1.65,2.08-5.17,1.93-5.95,5,.93.12,2.2-.25,2.54.91s-.68,1.76-1.69,2c-1.31.26-2.7.29-2.81,2.1,1.15.89.84,1.44-.34,2-1.83.94-.16.81.36,1l4-1.18c.58-4.38,4.51-6,7.53-6.49,4.73-.7,1.76-2.62,1.46-4.25C74.57,27.66,73.16,26.57,71.25,25.84Z"/><path class="cls-2" d="M51.16,28.22c-6.43.09-12.54-2.32-18.95-2.31l-1,.94,2.05,1c2.64,1,5.33,2.81,7.92,2.68,4-.21,6.23,1.34,8,4.39l1.07-1c-.12-1.52,1-2.39,1.81-3.39C53.18,29.25,52.71,28.19,51.16,28.22Z"/><path class="cls-6" d="M67.42,27.46c-2,1.25-4.25,1.64-6.31,2.54a10.35,10.35,0,0,0-5.69,6.76l7.73-2.87c.78-3.11,4.3-3,5.95-5C69.09,27.71,68.68,26.66,67.42,27.46Z"/><path class="cls-4" d="M61.19,38.86a12.27,12.27,0,0,0-8,6.07c.1,3.42,1.44,4.26,4.15,1.91,1.6-1.38,3.31-2.7,3.87-4.92-.52-.21-2.19-.08-.36-1C62,40.3,62.34,39.75,61.19,38.86Z"/><polygon class="cls-4" points="49.21 43.91 49.21 43.91 49.21 43.91 49.21 43.91"/><path class="cls-4" d="M49.21,43.92l-.9.9c-.08,1.36-1.12,2.7-.1,4.09h0a5.28,5.28,0,0,0,4-4C52.56,40.54,50.06,44.72,49.21,43.92Z"/><path class="cls-4" d="M50.26,33.94l-1.07,1a2,2,0,0,0-.8,2c1-.81,1.77,2.79,2.8.26C51.64,36.06,53.13,34.24,50.26,33.94Z"/><polygon class="cls-4" points="49.21 43.91 49.21 43.91 49.21 43.91 49.21 43.91"/><path class="cls-4" d="M47.17,41.89a4.76,4.76,0,0,0-.24.79L48.28,44l.93-.05A1.81,1.81,0,0,0,47.17,41.89Z"/><path class="cls-8" d="M134.24,27.36c-3.91-1.71-7.45-4.33-11.94-4.48-.48.19-1.76.39-1,.89,2.87,2,2.58,5,3.55,7.72-2.5.81-3.43-2.39-5.59-1.54-3.07.13-7.49-1.3-5.45,4.75.07.21-.75,1-.81.95-3.63-2.27-6.27,2.07-9.62,1.42l-2.17,1.28q0,.36.09.71l5.9.88c3.81-.75,8.23.86,11.26-2.95.28-.35,1.11-.37,1.24-.7,2.5-6.74,3.21-.86,4.53.63h1c.46-4.2,3.35-3.44,6.09-3,.91-1.44-.43-1.74-1.19-1.92-2-.45-2-1.69-.95-2.75,1.68-1.64,1.23.65,1.81,1.16,1.2,1,2.78.29,4.16.57C135.28,29.68,136.41,28.31,134.24,27.36Z"/><path class="cls-10" d="M88.2,25.92c-1.4.63-2.34,2.14-4.06,2.16a4.45,4.45,0,0,1-1.62,3.51c-1.41,1.06-1.69,1.15-.29,3,2,2.64-2.38,3.94-3,6.31,3.78,1,7.23-1.74,11-1,1.86-2.37-.87-5.86,2-8l1-4C91.92,26.31,89.63,27.2,88.2,25.92Z"/><path class="cls-11" d="M90.25,44.92c-2.09-1.79.89-2,1-3a2.15,2.15,0,0,0-1-2c-3.76-.73-7.21,2-11,1-1.1.06-2.28-.16-3.09.9,2.3,2.34,6.59,1.46,8.13,5C86.56,46.65,87.57,48,88.1,50c.54,5.08-.41,10.1-.71,15.14.84-.71,1.67-1.43,2.9-1.23.89-2.58-.73-5.49,1-8l.9-6C92.17,48,89.52,47.14,90.25,44.92Zm-4.43-1.74c-.12,0-.35-.08-.35-.13a1.27,1.27,0,0,1,.13-.42c.12,0,.35.08.35.13A1.27,1.27,0,0,1,85.82,43.19Z"/><path class="cls-2" d="M99.27,38.08c-3.18.22-4.28,4.83-8,3.8-.08,1.09-3.07,1.26-1,3,2.33-.71,2.76,1.76,4.17,2.75,2.07-2.22,2.59-6,6.59-5.67l.27-2.95c0-.23-.07-.47-.09-.71Z"/><path class="cls-9" d="M121.27,23.77c-.73-.5.54-.7,1-.89l-1-2c-1.47.93-4.21.8-3.18,3.81l-1.91.34c-1,2.85,3.18,2.53,3,4.88,2.16-.85,3.09,2.35,5.59,1.54C123.85,28.77,124.14,25.72,121.27,23.77Z"/><path class="cls-11" d="M93.21,27.92l-1,4c4.16.62.29,3.28,1.29,5.16,4-2.16,2.67-5.07,2.49-8.49C95.66,23,94.16,27.72,93.21,27.92Z"/><path class="cls-10" d="M100.65,32.06c-.91,1.86-4.51,3.25-1.38,6l1.92.27,2.17-1.28a21.38,21.38,0,0,1-.81-3.78C102.48,31.66,100.85,31.66,100.65,32.06Z"/><path class="cls-2" d="M164.22,113.9a3.69,3.69,0,0,1-1.53,3.24l-.51-2.2-1,0c-1,1.28-2.85,2-3,3.95q0,1,0,2l1.9,1c1.58,0,3,.14,3.14,2.23l-1,1.55,1.21.21,3,.27c6.61-4,7.38-10.36,6.78-17.22C170.68,111.39,165.66,109.4,164.22,113.9Z"/><path class="cls-11" d="M168.3,131.7c-4.31,2.23-2.95-.74-2.57-2.75.18-1,.48-1.88.73-2.82l-3-.27-1.4.81.2-1,1-1.55a3.63,3.63,0,0,1-3.14-2.23l-1.9-1c-2.7.27-3,4.11-6,4a2.07,2.07,0,0,0-1,2c.74.31,1.51.95,2.21.88,4.8-.47,6.22,1.64,4.85,6,2.63.38,1.59,2.78,2.31,4.21l5.56-1.06c.82-1.26,1-3.24,3.23-2.92l.79-1.16C169.52,132.47,168.62,131.54,168.3,131.7Z"/><path class="cls-11" d="M172.26,102.94l-1.09-1.06c-2,2.6-5,2.69-7.93,3l-1.06.07a1.91,1.91,0,0,1-1.94,2.09l-2,.88c-.87,1.84-.21,3.27,1.72,2.79,4.11-1,2.35,1.58,2.28,3.21l2,0c1.44-4.49,6.46-2.51,9-5C176.2,106.39,174,104.69,172.26,102.94Z"/><path class="cls-2" d="M62.21,174.91h0l-2.1-3.05c-3.88,2.74-7.49,6.35-7.31,11,.14,3.65-1.1,4.64-3.85,5.32,1.09,2,1.88,4.11,4.23,4.74,1.25-1.27,2.83-2.37,3.65-3.87a6.83,6.83,0,0,0,.83-5.6c-1.13-3.68,2.74.13,2.43-1.22C59.41,179.25,62.5,177.61,62.21,174.91Z"/><path class="cls-11" d="M19.29,39l-.12,1.77L19.29,43l1,.17c2.23-1.61,5.46-2.44,4.93-6.24C22.89,36.61,21.19,38.08,19.29,39Z"/><path class="cls-6" d="M15.16,45.08a2.9,2.9,0,0,0,3.07,2.86,3.27,3.27,0,0,0,2-3q0-.9,0-1.79l-1-.17Z"/><path class="cls-6" d="M18.22,51.91a9.8,9.8,0,0,0-7,3.05l6.17,1.09L17.25,56l1-1.08a1.6,1.6,0,0,0,0-.89Q18.23,53,18.22,51.91Z"/><path class="cls-3" d="M15.16,45.08,19.29,43l-.12-2.26C16,40.51,14.44,41.74,15.16,45.08Z"/><path class="cls-11" d="M139.47,14.84c.07,1-1.37,1.93-.27,3.05h3C141.52,16.68,141.21,15.12,139.47,14.84Z"/><path class="cls-3" d="M22.24,51l-1.1,2.85c1.14.7,1,1.88,1,3,2.94,2.6,2.56-1.38,3.89-2q0-1.35,0-2.71Z"/><path class="cls-1" d="M149,240.19c-2.74,2-4.2,5.6-7.78,6.72v3h2c2.43.62,3.78-2,6-2a4.82,4.82,0,0,1,2.71-2.69,3.05,3.05,0,0,1,2.31.09c1,.67.1,1.33-.38,1.93a2.19,2.19,0,0,0,.22,3.12c1.64,1.5,1-1.13,2-1.3,1.71-.29,3.34-1.5,5.09-.15h0c-.32-2-1.42-3.89-1-6q0-.47,0-.95c-1.9-.68-.89,1.19-1.46,1.74a1.72,1.72,0,0,1-2.6.06c-.93-.73-.34-1.28.19-2,2.23-3.05,5.8-4,8.81-5.82a9,9,0,0,0,1.59-.84c-2-6.54,1.17-10.52,6.37-13.7a2.15,2.15,0,0,0,.92-2.26,118.33,118.33,0,0,1-22.43,14.41A6.7,6.7,0,0,1,149,240.19Z"/><path class="cls-1" d="M171.42,217.38c-1,.64-1.94-.59-2-1.54-.19-4.31-1.71-8.72.69-12.9l-.84-4.95c-1.56-1.61.82-3.92.26-4.27-4.34-2.68-1.46-4.74.15-7.15a3.84,3.84,0,0,0,.41-3.32c-2.81-4.46-.37-5.6,4.67-5.74-3.74-2.64-2-5.18-1.49-7.68l-.9-3-.08-.09c-1.39.13-2-.53-2-1.89l-.24-2.93-3.85,0q0,.47-.11.93c1.34,5.19-1.27,9.43-3.38,13.77a2.74,2.74,0,0,1-2.54,1.3q0,.49,0,1a2.18,2.18,0,0,1-1,2.05c-.23,4-3.72,6-5.53,9-.43.72-.86,2.13-2.14,1.11-.75-.6-1.55-1.86-.93-2.6,2.16-2.57,2.64-6.64,6.61-7.63l1-2q0-.49,0-1c-1.83-1.34-.55-2.63.06-3.93-1.36-2.27-.67-3.27,1.92-3.09h0a11.54,11.54,0,0,1-.65-3.33c.11-1.14.82-2.36-.54-3-1.72-.86-1.56,1.58-2.29,1.68-4.37.58-6.19,4.42-9.16,6.77-.91.72-1.87,2-3.36.91l-1.67,1c.46,4.55-2.9,7.4-4.84,10.88,1.92,2.37,3.88,4.73,1.35,7.86,3.64,3.49,1.44,5.06-2,6.2-.9.57-.54,1.42-.49,2.21,1.85,6.58-2.8,10.08-6.6,14l.57,1.87c.64.13,1.83.2,1.85.39.37,3.43,2.92,4.91,6,6.21-2.05,1.84-5.23.08-6.11,3,1.37,1.26.89,2.9.93,4.44h1l1,1c2.45-1,4.85-2.15,5.09-5.32.13-1.71,1.89-2.68,2.69-2.24,3.11,1.7,7.13,2.94,8.27,6.51a10.29,10.29,0,0,1,.38,1.66,118.33,118.33,0,0,0,22.43-14.41,3.84,3.84,0,0,0-.24-.88C173.35,217,172.89,216.46,171.42,217.38Zm-17.92,8.48c-1.6-.06-3-.51-3.05-2.37,0-1.57,1.34-1.57,2.5-1.55,1.59,0,3,.51,3.05,2.37C156,225.89,154.64,225.82,153.5,225.86Zm1.21-15.34c-1,.26-1.78,2-2.88.72s-.78-2.58.19-4c1.58-2.4,1.71-4.92-1.06-7.22a21.62,21.62,0,0,0,8.55-1.6l-3.3,5.52h0C159.35,206.94,159.55,209.21,154.71,210.53Z"/><path class="cls-9" d="M178.07,161c-3-2.68-2-7-4-10l-2.94,0c-1.09,2.54,3.32,5.79-1,7.9q0,1.52,0,3l.24,2.93a1.87,1.87,0,0,1,2,1.89l.08.09,5.86.09C177.76,165,177.31,163,178.07,161Z"/><path class="cls-2" d="M180.34,179.88c-.67,3.24-1.42-.34-2.12,0l0,0c-.89,5.11,2.74,2.92,4.94,3.06l1.08-1.07C183.5,180.15,182,179.86,180.34,179.88Z"/><path class="cls-11" d="M137.14,20.78c.69,1.28,1.91,1.11,3.07,1.14l1.24-.47L139.27,20A2.3,2.3,0,0,0,137.14,20.78Z"/><path class="cls-6" d="M130.23,38.92l.08,0-.11,0Z"/><path class="cls-6" d="M152.06,47.9c-3.43-1.14-1.37-3.19-.83-5l-1-1.06-2.14,1c-.62,2.26-1.38,4.49-1,7.06-3.36-3.89-8.72-6.1-8.74-12.18a1.46,1.46,0,0,1,0-.56q0-.64,0-1.28l0,0c-1-.31-.74-.6,0-.89L135.17,31c-1.39-.28-3,.48-4.16-.57-.59-.51-.14-2.8-1.81-1.16-1.08,1.06-1,2.3.95,2.75.76.18,2.1.48,1.19,1.92,2.08,2.18,1.3,3.74-1,5,3.94-.69,5,2,5.85,5,5.41,1.69,8.18,5.56,9.08,11a1.89,1.89,0,0,1,2,2l.38.52-.51-.39a1.9,1.9,0,0,1-2-2.05c-3.28-1.1-6.16-3.52-9.93-3-.36,1.38-2.53,2.68-1.54,3.75s2.93,3.16,5,.65c.25-.3,1.75-.08,1.75,0,.34,4.56,7.46,4.34,6.76,9.58h2c-1.43-4.11.9-4.45,4-4,1.85-3.64.78-7.33-.12-10.89C152.85,50,152.13,49,152.06,47.9Z"/><path class="cls-9" d="M140.94,37.8l-2.56-.12c0,6.08,5.39,8.3,8.74,12.18-.41-2.57.35-4.81,1-7.07l.08-1.85-3.55,1.2C143.94,37.52,143.94,37.52,140.94,37.8Z"/><path class="cls-9" d="M138.34,35.84q0,.64,0,1.28c.46-.2,1.27,0,1.12-.85C139.43,36.06,138.73,36,138.34,35.84Z"/><path class="cls-9" d="M138.29,35.81a2.56,2.56,0,0,0,0-.89C137.55,35.2,137.32,35.5,138.29,35.81Z"/><path class="cls-5" d="M28.08,28c-1.86,2.58-7.28.86-7,5.86,5.08.09,7.71-4.78,12.15-6l-2.05-1C30.12,27.21,28.62,27.24,28.08,28Z"/><path class="cls-10" d="M46.19,142.88q0,1.53,0,3.06C47.7,144.92,47.44,143.9,46.19,142.88Z"/><path class="cls-4" d="M78.93,29.09c-.44.28-.62,1.7-1.74.33-1.33-1.63-1.53-1.46-3,.59.3,1.63,3.27,3.55-1.46,4.25-3,.45-7,2.11-7.53,6.5l-1.06,3.9c1.5-.11,2.32-2.1,4.09-1.48.4-1.22-.3-4.33,2.4-2.06,2,1.66,3.66.63,5.49.71.81-1.06,2-.84,3.09-.9.64-2.38,5-3.67,3-6.31-1.41-1.86-1.12-2,.29-3a4.45,4.45,0,0,0,1.62-3.51A6.59,6.59,0,0,0,78.93,29.09Z"/><path class="cls-3" d="M163.37,96.86a75.58,75.58,0,0,0-3,7c-.54,1.69,1.18.7,1.79,1.07l1.06-.07c.61-3.9,2.2-6.65,6.82-5.88l-1.89-4A4.66,4.66,0,0,1,163.37,96.86Z"/><path class="cls-4" d="M163.24,104.86c2.91-.29,5.89-.39,7.93-3L170.06,99C165.44,98.22,163.84,101,163.24,104.86Z"/><path class="cls-11" d="M165.22,85.92c-1.65-.59-3.39-1-4-3-3-.57-3.18.71-2,2.94,1.44,2,3.65,2.62,5.89,3.13l.14-.12a2.63,2.63,0,0,0,0-2.88Z"/><path class="cls-11" d="M165.12,89a25.42,25.42,0,0,1-1.75,7.86,4.67,4.67,0,0,0,4.8-1.89,11.17,11.17,0,0,0-2.9-6.1Z"/><path class="cls-11" d="M166.23,82c1.43,1.77.13,2.85-1,4l.07.07,3.92-.08-1-4.06Z"/><path class="cls-10" d="M161.42,45.55l-3.15.41c.47,1.71,2,3,1.9,4.95,4.59,3,4.62,5.13.11,9.11,2,3,4.23,5.78,7.88,6.93a2.3,2.3,0,0,1,1-2c-3.37-3.29,1.32-3.35,2-5C168.87,54.49,166.56,49.06,161.42,45.55Z"/><path class="cls-4" d="M169.35,134.05c-2.25-.33-2.41,1.66-3.23,2.92-2.06,2.6-1.45,6.11-3,8.87.17,1.15-.17,2.48,1.17,3.2l1-1.09c.76-2.44,2.77-4.36,2.91-7C165.79,138.16,169.63,136.45,169.35,134.05Z"/><path class="cls-5" d="M166.19,156.93l0,0h0Z"/><path class="cls-5" d="M168.2,151.94c-.55,1.69-.64,3.57-2,4.94q0,2.51,0,5l3.85,0q0-1.52,0-3C168,157,170.49,153.81,168.2,151.94Z"/><path class="cls-6" d="M165.3,148l-1,1.09-1.08,3.78c0,2,1.4,2.12,2.89,2.13l1.18-5C167.19,148.76,166.67,147.95,165.3,148Z"/><path class="cls-3" d="M167.26,150l-1.18,5,.12,2c1.37-1.38,1.45-3.28,2-5C168.16,151.16,168.07,150.4,167.26,150Z"/><path class="cls-10" d="M158.19,72.92c3.35,1.77,3.2,4.88,3,8l5,0h0a1.94,1.94,0,0,1,1.16-2.13c2.47-1.7,1.39-3.29-.14-4.87C164.11,74.63,161.58,69.78,158.19,72.92Z"/><path class="cls-10" d="M166.2,80.92l0,1,2-.09-2-1Z"/><path class="cls-4" d="M158.21,72.94v0h0Z"/><path class="cls-4" d="M168.15,68.87q0-1,0-1.92c-3.65-1.15-5.87-3.91-7.88-6.93-1.79-.31-2.65,1.37-4.05,1.89-.22,3,1.47,5.84.85,8.88a2.13,2.13,0,0,1,1.12,2.11c3.38-3.1,5.9,1.72,9,1l1-4-1.3-.49Z"/><path class="cls-10" d="M166.9,69.44l1.3.49,0-1.06Z"/><path class="cls-1" d="M18.23,54.9l-1,1.08C18,56,18.18,55.51,18.23,54.9Z"/><path class="cls-14" d="M128.24,219.89c-1.07,2.41-2.68,1.52-3.91.39s-2.43-2.7-1.41-4.76c.88-1.77,1.45-3.87,4.18-2.54,0-2.09.8-3.32,3.1-3l0,0c-1.71-2.18-1.61-5.65-4.81-6.78-.37,2.95-3.16,4.84-3.42,7.86-.06.73-.67,1.41-1.43,2.9-.46-3.49-.1-6.71-4.74-5.22-2.56.82-3.3-1.43-1.91-3.3,2.72-3.67.65-4.76-2.46-5.94-1.48-.56-4,.26-4.23-2.49-3.9,1.54-8.1-.44-12,1-2,1.53-1.37,4.92-4.09,6q0,2.52,0,5l1.14.95c3.8-.36,3.42-4.1,4.79-6.28,2.65-4.21,11.56-4.93,14.37-.83a1.82,1.82,0,0,1-.27,2.64c-1.4,1.36-2.43,2.78-1.38,4.82a1.21,1.21,0,0,1,.06.46c-7.16,1.05-2.54,7.85-5.38,11-1,1.18-1.62,2.73.19,3.81s1.56,2.75,1.52,4.4a2.18,2.18,0,0,0,2,1c6-.48,8.37-4,6.57-9.54-1-3.2,2.65-3.1,3.19-5.37,2,1.79-1.46,4.3,1.49,5.24a17.1,17.1,0,0,0,1.35-2.63,47.94,47.94,0,0,0,2.56,6.27c2.39,4.11,3.13,4,5.88-.05.09-1,.37-1.81,1.47-2.06l-.17-2Z"/><path class="cls-13" d="M97,203.61c-1.37,2.18-1,5.92-4.79,6.28-.18,4.08.79,8.36-2,12,1.41,2.17-.45,5.74,3,7,1.63-2-.7-4,0-6.1.29-.87-.23-2.23,1.1-2.41A2.27,2.27,0,0,1,97,222.11c.8,5.34,5.92,5.48,9.18,7.85,0-1.65.3-3.31-1.52-4.4s-1.24-2.63-.19-3.81c2.83-3.2-1.79-10,5.38-11a1.21,1.21,0,0,0-.06-.46c-1-2,0-3.46,1.38-4.82a1.82,1.82,0,0,0,.27-2.64C108.6,198.68,99.69,199.4,97,203.61Z"/><path class="cls-13" d="M110.81,249.49c-.91,1.51.38,3.09,2.34,3.49l.07-.06a8.89,8.89,0,0,0,3-6.88,15,15,0,0,1,.22-2.53q-2.07.19-4.16.28A9.27,9.27,0,0,1,110.81,249.49Z"/><path class="cls-13" d="M122.11,238.86c1.5-1.33,2.47-3.61,5.13-2.92-1-2,1.25-3.56.65-5.86-.42-1.63,1.58-.13,2.49-.06l1.79-2.49L131.06,225l-1.84-.08c-2.76,4.1-3.5,4.17-5.88.05a47.94,47.94,0,0,1-2.56-6.27,17.1,17.1,0,0,1-1.35,2.63c-3-.94.5-3.45-1.49-5.24-.54,2.27-4.22,2.16-3.19,5.37,1.79,5.58-.58,9.05-6.57,9.54-.36,1.74-1.83,2.9.25,5.25,1.92,2.18,3.58,4.72,3.83,7.58q2.09-.1,4.16-.28C116.91,240.79,118.39,238.91,122.11,238.86Z"/><path class="cls-14" d="M87.58,243.42c-2.14.23-5.23-.21-5.41,3.44.92.22,1.2,2.29,2.67.94s3-.62,4.41.15c3-.36,4.25-2.63,4.78-5q-1.65-.23-3.28-.53A6.81,6.81,0,0,1,87.58,243.42Z"/><path class="cls-14" d="M93.22,228.92c-3.46-1.29-1.6-4.86-3-7l-3.93-1-.13.13.12,5.83,0,0c1.47,0,2.93,0,2.84,2.14l3,7.87c.57,2.73.08,4.52-1.4,5.55q1.63.29,3.28.53v0A25.18,25.18,0,0,0,93.22,228.92Z"/><path class="cls-2" d="M154.16,38.94c-2,.6-5-1.63-6,2q0,.92-.08,1.85l2.14-1c.29-.5.47-1.28.88-1.43.73-.27,1,.51,1.27,1.09.45,1.13-.32,1.32-1.17,1.4-.54,1.8-2.6,3.85.83,5,2.74.93,5,3.18,8.12,3,.1-1.93-1.43-3.24-1.9-4.95C157.38,43.34,154.27,42,154.16,38.94Z"/><path class="cls-3" d="M153.21,36.92h0l-.42-.23Z"/><path class="cls-15" d="M77,240.51c.93.18,1.14,1.43,1.12,2.44.41,2.25,1,4.27,4,3.92.18-3.65,3.28-3.21,5.41-3.44a6.81,6.81,0,0,0,3.16-1,99.58,99.58,0,0,1-16-4.24C74.7,239.23,75.13,240.12,77,240.51Z"/><path class="cls-15" d="M75.2,235.92h0Z"/><polygon class="cls-15" points="75.21 234.91 75.21 234.91 75.21 234.91 75.21 234.91"/><path class="cls-15" d="M92.14,236.85c-1.15.72-2.8.57-3.68,1.2-5.16,3.69-8.11-.47-10.19-3.51s2-4.56,3.81-6.33c.95-.93,2.76-1,4.18-1.41q-.06-2.92-.12-5.83c-.57-.29-1.42-.42-1.67-.88-1.09-2-2-3.62-4.82-2.05-2.66,1.46-2.9,3.34-2,5.73a5.18,5.18,0,0,1-.71,5.07,10.5,10.5,0,0,0-1.75,6.06c.68.34.67.67,0,1a14.59,14.59,0,0,0-.46,2.24,99.58,99.58,0,0,0,16,4.24C92.23,241.37,92.72,239.59,92.14,236.85Z"/><path class="cls-14" d="M68.21,226.91l.23-.41-.24.41Z"/><path class="cls-14" d="M68,227.33l.23-.42h0Z"/><path class="cls-16" d="M92.09,195.06c-5.92-2.28-5.34,4.2-8.32,6.65-.59-1.62-1.07-2.79-1.43-4-.32-1,0-2.61-1.68-2.55s-1.29,1.54-1.48,2.64c-.3,1.77-.72,3.53-1.08,5.29-.31,1.24.47,2,1.21,2.81,6.18-.59,5.57,4.54,6.83,8.1q.07,1.44.15,2.87c2.7.19,4-1,3.92-3.76,0-1.42-.47-3,.89-4.16q0-2.52,0-5C89,200.68,93.76,198.22,92.09,195.06Z"/><path class="cls-12" d="M79.31,205.9c1.06,2.2-.44,2.7-2.07,3.11,1.78,3.78,6.34,2.6,8.9,5C84.88,210.44,85.49,205.31,79.31,205.9Z"/><path class="cls-11" d="M59.82,195.68a2.43,2.43,0,0,0,1.54.72c1.36-2,2.46-4,1.18-7.14C61.7,191.77,58.36,192.55,59.82,195.68Z"/><path class="cls-2" d="M73.63,211.93c.13,1,1.06.88,1.81.92l-.6-2C74.22,211,73.54,211.22,73.63,211.93Z"/><polygon class="cls-2" points="62.21 174.91 62.21 174.91 62.21 174.91 62.21 174.91"/><path class="cls-2" d="M62.61,172.72l-.39,2.19A1.52,1.52,0,0,0,63,173C62.95,172.86,62.74,172.8,62.61,172.72Z"/><path class="cls-12" d="M92.24,209.89l-1.14-.95c-1.36,1.15-.91,2.74-.89,4.16,0,2.74-1.23,4-3.92,3.76q0,2,0,4l3.93,1C93,218.25,92.06,214,92.24,209.89Z"/><path class="cls-2" d="M75.05,214.84c.87.11,1.77.39,2.41-.53l-1.59-.88Z"/><polygon class="cls-15" points="75.21 234.91 75.21 234.91 75.21 234.91 75.21 234.91"/><path class="cls-15" d="M75.2,235.92l0,0h0Z"/><path class="cls-15" d="M75.2,235.9v-1C74.5,235.25,74.52,235.58,75.2,235.9Z"/><polygon class="cls-3" points="162.21 113.91 162.21 113.92 162.21 113.92 162.21 113.91"/><path class="cls-3" d="M159.93,110.7c-1.93.48-2.59-1-1.72-2.79-1.67-1.37-4-2-5.06-4.06a4.38,4.38,0,0,1-.34-.67s.23-.17.36-.26l4.1-2c1-4.43.43-8.93.55-13.4,0-1.09.76-1.29,1.41-1.69-1.22-2.23-1-3.51,2-2.94l0-2c.16-3.11.31-6.21-3-8l0,0-1.9,0h-5.45c3.42,3.14,4.25,5.43-.59,6h0l-1,1.08c.42,2.69-3.27,3.28-3,5.89l1,1c1,.37,2-3,3,0,4.28,2.06,4.9,11,1,15l-1,0v1c-.23,3.27-2.94,5.91-2.38,9.42.05.32-.83,1-1.36,1.15-.89.18-.91-.57-.88-1.27.17-3.91-2.41-4.38-5.42-4.27,1.18,1.77.16,2.47-1.37,3.18s-2.49.67-3.23-.77c-.58-1.12-1-2.33-1.46-3.5l-1.84.12c.24.61.73,1.26.67,1.84-.6,5.3.67,6.24,6.59,4.6,1.1,4.16-3.23,5.54-4.32,8.51l1.95,1,6.12-1-.06-2,1-1,2.9-.94.17-.17c4.37-.89,2.59,4,4.81,5.12,2.18-1.17,3.09-4.24,6.15-4.08.11-2,1.92-2.67,3-3.95l1-1C162.28,112.28,164,109.67,159.93,110.7ZM157.67,75a3.48,3.48,0,0,1,1.1.48c.15.76-.19,1.13-.71,1.05a1.68,1.68,0,0,1-1.09-.72C156.6,75.18,157.22,75,157.67,75Z"/><path class="cls-6" d="M91.61,139.43a21.8,21.8,0,0,1,7.5-4.52c.74-1.65-1.66-3.37.1-5,.14-1.55-1.42-1.95-2-3l-1,0a2.23,2.23,0,0,0-2,1c.26,1.63-1.35,2-2,3.09-.3.56-.62.62-1,0l-1.06-.06c-1.53,1.32-2.95,3.92-4.16-.47-.74-2.68-4.64-2.83-5.75-5.57l-.1.08c.25,5.38,2.4,10.53,2,16h0c1.52,1,.87,2.6,1,4,1.48-2,2.34-.92,2.84.68,1,3.18,3.32,5,6.15,6.32a6.57,6.57,0,0,1,4-1h0c-2.6-1-2.49-3.19-2.49-5.74,2.53.62,5.1,1.38,7.47-.25l0-2C98.56,140.62,95.1,140.62,91.61,139.43Z"/><path class="cls-3" d="M146.4,147.84c-1.33-.37-1.69-2.15-4.06-1.42-2.83.86-1.61-3.22-3.13-4.49a8.87,8.87,0,0,0-4.92-1.1c-.11,2.38,4.81,4.75,0,7.15,2.51,3.29.57,6.73.23,10.08a2.23,2.23,0,0,1-2.63,1.78c-1.93-.26-1.5-1.79-1.74-3a20.5,20.5,0,0,1,.07-6.86l-2.07-4c-1.81.47-4.39-1-5.19,2,4.36,2.23,4.4,2.28,3.09,3.88-1.5,1.83-6,3.23-.79,6a1.5,1.5,0,0,1,0,1.26c-2.06,1.07-4.1,2.4-6.31,2.88-1,.21-2.56-1.51-2.66.95-.09,2.22,1.37,1.39,2.74,1.3,8.29-.52,8.29-.46,9.23,4.85a9.83,9.83,0,0,0,5.9-2.1c-1.73-3.64,2.09-3.43,3.48-4.34s2.41-1,.35-2.21a1.62,1.62,0,0,1-.7-1.07c-.24-2.29,5.39-8.84,8-9.33h0l1.09-1C147,148.62,147.12,148.26,146.4,147.84Z"/><path class="cls-5" d="M100.23,117.94c-1.38-1.65-.74-4.92-4-5-1.89-.2-3.66-.58-4.23-2.79-2.66-.71-3.53,3.32-6.33,2.36s-5.76,1.58-8.42-.62c-2.18,5.46-3.89,10.62-.32,16.54,1.79,3,3.93,6.49,3.3,10.53l2,2c.4-5.46-1.75-10.61-2-16-1.62-1.48-.69-3.25.1-5q0,2.44,0,4.89c1.11,2.74,5,2.89,5.75,5.57,1.21,4.39,2.62,1.79,4.16.47-.71-1.28-3.17-.82-3-3,1.25-2.42-1.4-4.23-1-6.58.34-2-.58-4.62,2.4-5.26,3.17-.68,6.9-.42,8.92,1.66,2.23,2.29-2.46,1.43-2.7,3.25.82,1.53,2.29.7,3.47.91l2.05-3.06q-.05-.47-.12-.94Z"/><path class="cls-10" d="M113.17,176.78l-.1.1c-.11,1.22,1.45,2.34.38,3.51-.26.28-1.42-.27-2.17-.44.34,1-.7,1.86.07,3.19,1.29,2.22-.38,3.79-2.51,4-6.19.74-12.41,1.19-18.62,1.76-1.61,1.45-1.86.32-2-1h0c-5.39,1.78-8.52-.56-8-6h0L79.14,179l-3.66-1.23c-1,9.72,6.94,16.29,16.47,13.64a5.37,5.37,0,0,1,4.33.19c5.39,3,10.53,3.45,15-1.67.07-2.47,3-2,3.81-3.67.51-.62,1.6-1.5,1.45-1.83-1.92-4.36,1.7-2.11,3-2.58l.74-1.84.93-4.23,1.91-2.83-2.93-.12C119.48,177.07,116.51,177.26,113.17,176.78Z"/><path class="cls-2" d="M147.31,117.83l.39.57-.56-.4-2.91.94-1,1q0,1,.06,2c.29,3.26-.65,7.92-3.25,7.7-4.3-.36-5.14,3.16-7.82,4.29v5h0c1.07.23,1.53,1.11,2.06,1.92a8.86,8.86,0,0,1,4.92,1.1c-.4-4.1,2.62-1.45,4-2-2.79-3.43-2.33-5.87,2.38-6.66,4.27-.72,5-3.15,5.6-6.34a2.07,2.07,0,0,1,1-2q-.06-1-.12-1.95C149.9,121.82,151.68,116.94,147.31,117.83Z"/><path class="cls-3" d="M118.27,135.87c.3,3-.88,4.55-4.08,4-2.55-1.11-6.15-1-6.09-5.17a3.67,3.67,0,0,0,.06-.68L108,132c-2.78-4.47-2.14-6.1,2.62-6.82.26,0,.41-.78.62-1.2l0-1.06c-2.4-.75-1.53-3.55-3-4.86-1.17.45-.8,3.44-3.17,1.93.78,2.82,0,4.87-2.88,5.91l-1,1a2.82,2.82,0,0,1-1.94,3c-1.75,1.63.64,3.35-.1,5,3.17,1.05,4.05,4.79,7.09,6a2,2,0,0,1,1,1.94l2,.13c.08-1.23-.34-2.86,1.95-2.2,1.4.4,3,1.16,4.24.87,2.55-.59,6.28.14,7.19-2.82C123.18,136.86,120.09,136.43,118.27,135.87Z"/><path class="cls-2" d="M112.15,156c-1.42-.87-2.18-2.9-3.09-4.49-1.61-2.81-2.74-7.5-7.86-6.59-2.37,1.63-4.94.88-7.47.25,0,2.55-.12,4.78,2.49,5.74.88.16,2-.34,2.49.87a.82.82,0,0,1-.38.7c-1.23.24-1.64-.72-2.12-1.55a6.57,6.57,0,0,0-4,1c3.47,3,7.41,4.74,12.09,4.42,1-.07,2.07-1.83,2.84.07,1.1,2.7,4.08,3.44,5.15,5.65C115.37,159.75,115.37,158,112.15,156Zm-8.76-1.37a8,8,0,0,1-1-1.83c-.11-.51-.17-1.48.83-1,.44.19.73.94.88,1.5C104.16,153.53,103.77,153.93,103.39,154.63Z"/><path class="cls-3" d="M126.22,115.95c2.08-3.37-.44-6.71,0-10.07-4-.26,1.07-4.41-2.69-4.73-1.7,2.66,1.48,9.23-5.63,8.86-1.34,1.27-3.18.24-4.63,1q0,.4,0,.8c6.38,1.15,6.38,1.15,2.75,6.94.79,1.3,2.71,1.46,3.16,3.11,3.55-1.21,2.94-.93,4.28,2,.73,1.61.75,4,2.74,5,2.17,1.1,2.36-.93,3.09-2.08a5.87,5.87,0,0,1,0-1l-1.09-.05C125.41,123,126.53,119.32,126.22,115.95Z"/><path class="cls-6" d="M109.37,167c.06,3.73-.46,6.66-5.22,3.82l-2,1.1a29.75,29.75,0,0,1-13,1.44,17.82,17.82,0,0,1-8.85-.36l1,3.86L86.16,178c1.45-.23,2.89-.51,4.34-.69,2.07-.27,4.2-1.81,5.8,1.4.91,1.84,3.25.27,4.94.24.41-3.23,2.94-3.83,5.44-3.94a19.2,19.2,0,0,0,5.27-1.23l1.11-2.1C113.84,168.5,110.09,169,109.37,167Z"/><path class="cls-4" d="M118.12,124.89c-2.62,2-4.78.62-6.91-.93-.2.42-.36,1.16-.62,1.2-4.76.72-5.41,2.35-2.62,6.82a13.22,13.22,0,0,1,1.38-1.94c1.23-1.21,2.76-2.87,4.34-2.33s1.74,2.67,1.48,4.38c-.47,3.2-3,.62-4.42,1.47-.49,3,4.46,3.1,3.44,6.33,3.2.54,4.38-1,4.08-4,.45-1.25,1.61-2.84,1.2-3.69C118.35,129.8,122.47,126.51,118.12,124.89Z"/><path class="cls-3" d="M107.21,165c-4.78,2.8-10.28,1.88-15.4,2.54-3.06.4-6.46-1.83-9.62.53,1.26,3.47,5.26.85,7,3.16,3.95-1.29,7.94-.27,11.92-.22.95-1.26,1.94-1.44,3-.13,4.76,2.84,5.28-.1,5.22-3.82Z"/><path class="cls-5" d="M139.21,168.94l-10.79,1.73-2.19,1.07c1.69.3,2,1.65,2.24,3,2.32,3.6,6.31.91,9.19,2.44l3.51-2.69C141.65,172.23,138.51,171.26,139.21,168.94Z"/><path class="cls-4" d="M129.2,108l-3-2.08c-.4,3.36,2.13,6.7,0,10.07.41.26,1.12.47,1.18.8.6,3.7,3.33,5.83,5.82,8.15,1.52-.23,3.69.85,3.94-2l-1.95-1C129.8,118.74,129.82,113.21,129.2,108Z"/><path class="cls-2" d="M99.12,134.9a21.8,21.8,0,0,0-7.5,4.52c3.49,1.19,6.95,1.19,9.57,3.48l5-2C103.17,139.7,102.28,136,99.12,134.9Z"/><path class="cls-4" d="M132.23,138.9c-.34,1.17.33,3.64-.88,3.35-4-.92-2.11,2.5-3.18,3.63l2.07,4c1.81,0,1.69-1.63,2.4-2.62,1.07-1.48,1.43-.4,1.67.65,4.79-2.4-.14-4.76,0-7.14C133.76,140,133.3,139.13,132.23,138.9Z"/><path class="cls-4" d="M126.23,171.73a6.94,6.94,0,0,0-.09,1,1.71,1.71,0,0,1,.91,1.93c0,.17-.37.28-.56.41l-.43-2.22-2.9.15-1.91,2.83c1.86.87,5.45.09,4,4.15,1.9,1.32.67,3.51,1.37,5.2,1.29-.05,1.91-1,2.69-1.72q-.4-4.35-.8-8.71C128.2,173.38,127.92,172,126.23,171.73Z"/><path class="cls-10" d="M116,118.77c-1.55.35-1.72-1.46-2.83-1.8-1,1.86-.07,4.34-1.93,5.92l0,1.06c2.14,1.55,4.3,2.94,6.91.93-1.17-1.52.43-2.09,1-3C118.7,120.23,116.77,120.08,116,118.77Z"/><path class="cls-2" d="M133.22,124.89c-2.49-2.32-5.22-4.45-5.82-8.15-.05-.32-.77-.53-1.18-.8.31,3.37-.82,7,2,9.9.3-.53.64-1,1.32-.63a5.42,5.42,0,0,1-.24.68,6,6,0,0,0,0,1c1.57-.34,2,2.35,3.66,1.46S133,126,133.22,124.89Z"/><path class="cls-3" d="M117.14,171.26c-1.48,1.68-2.61,1.44-4.08.4l-1.11,2.1,1.21,3c3.34.48,6.31.3,7.05-3.91C120.12,170.54,119.73,168.3,117.14,171.26Z"/><path class="cls-2" d="M109.21,143l-2-.13c.14,2.1,1.63,3.55,2.46,5.31,2.07,4.41,3.74,4.13,5.65-.08C113,146.59,109.47,146.72,109.21,143Z"/><path class="cls-10" d="M139.13,166.91h-4.95a9.82,9.82,0,0,1-5.9,2.1l.14,1.66,10.79-1.73-.07-.25q0-.37.08-.75Z"/><path class="cls-4" d="M128.5,137.63c.25,2.05,2.41,1,3.73,1.26v-5C129.95,134.14,128.22,135.35,128.5,137.63Z"/><path class="cls-5" d="M82.18,140.94c.08,1.39-.48,3,1,4C83.05,143.54,83.7,142,82.18,140.94Z"/><path class="cls-15" d="M136.22,185.94l-1,1c0,1.74-1,2.59-2.63,3.09-1.43.44-1.9,1.88-.53,2.48,2.45,1.08.35,2,.15,2.86-.33,1.49-1.35,1.56-2.66,1.24s-2.89-.47-4.33-.69l-18,1c.25,2.75,2.75,1.93,4.23,2.49,3.12,1.18,5.18,2.28,2.46,5.94-1.39,1.87-.65,4.11,1.91,3.3,4.64-1.48,4.28,1.74,4.74,5.22.76-1.49,1.37-2.17,1.43-2.9.27-3,3.05-4.92,3.42-7.86,3.2,1.13,3.09,4.6,4.81,6.78l.42.24-.46-.2c-2.31-.28-3.12,1-3.1,3-.23,2.41.52,4.65,1.14,6.92l2.28.93,0-2.93L129.9,216c-.81-1-1.19-2.54-.26-3,4.22-2.25,5.08-6.16,5.74-10.3,0-.27.74-.44,1.13-.66,0-.78-.4-1.64.5-2.21a9,9,0,0,1,2-6.2c2.53-3.13.57-5.49-1.35-7.86Zm-5.29,19.8c-.31,0-.67-.34-1-.54.3-.32.55-.78.91-.9s.69.27,1.3.55C131.58,205.28,131.28,205.7,130.93,205.74Z"/><path class="cls-14" d="M128.23,188.74c.13-2.81,6.22-2.1,3.68-6.36l-2.65,1.06c-.78.7-1.4,1.67-2.69,1.72-.7-1.69.53-3.88-1.37-5.2l-1.89,2.81-.18.22a66.16,66.16,0,0,0,2.05,12.89c1.45.22,2.92.34,4.33.69s2.33.25,2.66-1.24c.2-.91,2.29-1.79-.15-2.86-1.36-.6-.89-2,.53-2.48,1.61-.5,2.59-1.35,2.63-3.09C132.74,186.93,130.95,189.5,128.23,188.74Z"/><path class="cls-11" d="M74.25,175s0-.08,0-.12h0Z"/><path class="cls-11" d="M75.43,172.83l-1.27,1.25a3.26,3.26,0,0,0,.07.77c1.35.59.72,2,1.25,3L79.14,179l2.11-2.15-1-3.86Z"/><path class="cls-7" d="M119.57,181.88c-1.3.47-4.92-1.78-3,2.58.15.33-.94,1.21-1.45,1.83l.1,1.63c1.59-1.86,5.35-.64,5.82-4.09l-.8-1.25Z"/><path class="cls-12" d="M92.09,195.06c1.67,3.16-3.06,5.63-1,8.84,2.72-1.07,2.05-4.45,4.09-6A5,5,0,0,0,92.09,195.06Z"/><path class="cls-14" d="M115.24,188.88l-.06.07c.46,1.11-1.67,3.06.1,3.13s4.74.83,5.94-3.24C118.81,190.1,117.06,189.27,115.24,188.88Z"/><path class="cls-14" d="M115.12,186.3c-.83,1.68-3.74,1.2-3.81,3.67,1.71,1.29,2.61-.55,3.87-1l.06-.07q0-.48,0-1Z"/><path class="cls-14" d="M120.31,180l-.74,1.84.67.7,1,.32,1.87.09.18-.22C123.8,180.22,121.63,180.6,120.31,180Z"/><path class="cls-10" d="M121,183.83a8.73,8.73,0,0,0,.22-.93l-1-.32Z"/><path class="cls-11" d="M94.22,102.94c-4.1-1.37-7.72,1.67-11.78,1.3a8.16,8.16,0,0,1-3.19-.64c-.9,1.61-1.92,1.65-3.06.24-1.08.15-2.26,0-3.1.93,0,1.43-1,3.28,1.85,3.31,1.48,0,2.16,1.22,2.2,2.69l.09,1.06c2.66,2.2,5.68-.32,8.42.62s3.67-3.06,6.33-2.36c-.66-2.32.24-3.87,2.38-4.77C96.65,104.39,94.47,103.73,94.22,102.94Z"/><path class="cls-1" d="M68.06,118c-3.19.3-3.66,2.82-4.23,5.27-.06.27-.45.46-.68.68q0,1.5.09,3a1.3,1.3,0,0,1,.12.69,7.58,7.58,0,0,0,7.08,2.24,19.27,19.27,0,0,1,1.42-2c2.19-2.42,1.48-4.88.1-7.29C71.12,119.07,70,117.8,68.06,118Z"/><path class="cls-3" d="M74.93,108.09c-2.8,0-1.83-1.88-1.85-3.31-1.22.07-2.57.4-2.94-1.36a1.13,1.13,0,0,1-.75-.22l-2.17,1.29c-.2,1.86-1.85,2.51-3,3.59,1.32,2.56,1.22,3.17-1,5.83,1.88.22,3.75.42,5.64.52,3.68.18,4.92-3.95,8.27-3.65C77.1,109.31,76.41,108.11,74.93,108.09Zm-5.78,2.59-.1-.53a1,1,0,0,1,.38.08c.07,0,.05.2.08.31Z"/><path class="cls-7" d="M63.35,127.62l-1.12.33.08,0c.77,2.78,2,5.05,5.4,5,2.09,0,2.82-1.18,2.72-3.09A7.58,7.58,0,0,1,63.35,127.62Z"/><path class="cls-15" d="M62.22,107.92l2,.16c1.13-1.08,2.78-1.74,3-3.59l.14-2.35c-1.49.77-2.34,2.5-4.18,2.74C62,105.61,62.13,106.78,62.22,107.92Z"/><path class="cls-11" d="M62.23,128l1.12-.33a1.3,1.3,0,0,0-.12-.69Z"/><path class="cls-7" d="M89.24,171.19l-.15,2.19a29.75,29.75,0,0,0,13-1.44l-1-1C97.18,170.93,93.19,169.9,89.24,171.19Z"/><path class="cls-3" d="M63.19,149.91h0l-.42-.21Z"/><path class="cls-4" d="M56.71,129.13a.46.46,0,0,0,.31.31c1.11.09,1.06-.8,1.23-1.49l-.08-.08C57.45,128,56.6,128,56.71,129.13Z"/><path class="cls-13" d="M73.6,174.9c0,.09.42,0,.65.07a3.26,3.26,0,0,1-.1-.89C73.61,174.11,73.41,174.42,73.6,174.9Z"/><path class="cls-5" d="M156.4,241.73c-.54.73-1.12,1.29-.19,2a1.72,1.72,0,0,0,2.6-.06c.57-.54-.44-2.42,1.46-1.74,4.41.25,5.68-2.07,4.94-6C162.2,237.73,158.62,238.67,156.4,241.73Z"/><path class="cls-5" d="M160.26,242.89c-.46,2.13.63,4,1,6a3.33,3.33,0,0,0,2-2C161.77,245.9,162.28,243.47,160.26,242.89Z"/><path class="cls-2" d="M185.24,235.89a2,2,0,0,0,1,2l1-.05q0-1,0-1.93Z"/><path class="cls-2" d="M175.53,238.7a1,1,0,0,0-.08.37l.52-.1-.14-.34C175.73,238.65,175.57,238.64,175.53,238.7Z"/><path class="cls-2" d="M178.2,179.92l0,0-.44-.22Z"/><path class="cls-2" d="M179.21,199.91l.22-.41-.23.41Z"/><path class="cls-4" d="M48.21,48.91l-4,1h0c-1.34,3.24,0,8-5.17,9.06l-.1.42q.77,2.71,3.41,1.74c2.58.06,3.6-2.73,5.88-3.2-.06-3,1-6,0-9Z"/><path class="cls-5" d="M25.21,36.92c.53,3.8-2.7,4.62-4.93,6.23q0,.89,0,1.79c2.91-.64,5.76-1.45,7.4-4.22a3.61,3.61,0,0,0,0-4.16C26.94,35.62,25.92,36,25.21,36.92Z"/><path class="cls-10" d="M39,59c5.12-1.08,3.83-5.82,5.17-9.06C40.74,52,40.32,55.71,39,59Z"/><path class="cls-10" d="M48.28,44l-1.35-1.28a8.54,8.54,0,0,0-2.71,7.23l4-1c-1-1.39,0-2.73.1-4.09A3.31,3.31,0,0,1,48.28,44Z"/><path class="cls-6" d="M24.65,48.55c-1.34-.22-2.4.8-2.42,2.4L26,52.09C26.2,50.65,26.59,48.88,24.65,48.55Z"/><path class="cls-6" d="M59.21,62.91s0,0,0,0v0Z"/><path class="cls-6" d="M65.67,80.7c-1-.36,2.31-1.11,1.53-2.81-1-.67-1-1.33,0-2,0-2.58.22-5.19-1.34-8.42-.41,3.4-2.76,3.37-4.7,3.92-1.61.46-3.06-.13-2.1-1.84,1.33-2.36,0-4.45.13-6.64-1,1.78-2,3.51-2.85,5.36-1.65,3.84-1.47-.48-2.24-.46-2.5.36-1.51,1.77-.91,3.05a12.24,12.24,0,0,0,2.15,2.6c3,2.07,2.77,4.33.71,6.85-3.35,5.25-7.16,2.11-10.87.58l-.92,0L46.18,85a27.16,27.16,0,0,0,15-3c-.93-.07-1.68-.3-1.12-1.48.13-.27.52-.69.6-.65,1,.45.44,1.36.57,2.08,1.18,1.56.82,3.86-1,6.13l0,1.87,0,0,5.12-.85h1.75C67,86.27,71.43,82.79,65.67,80.7Z"/><path class="cls-3" d="M46.18,85l-1.9-4.08L41.48,78l-.27-.13h-1l0,0q0,2,0,4c.64.39,1,.86.43,1.58a.5.5,0,0,1-.46.13c-.93-.56,0-1.13,0-1.7-1.59-.16-2,1.46-3.06,2.07.27,2.79,1.71,3.24,4,2,2.73-.9,2.73-.9,4.06,3.9a8.44,8.44,0,0,0,1,0C48.4,88.29,46,86.63,46.18,85Z"/><path class="cls-2" d="M54.81,87.14c-1-.61-3-.61-3.44.9-.59,2-2.43,3.56-2.14,5.86h0c.78,0,1.07,2.23,2.11.57.93-1.48,1.16-3.29,3.16-4.15C55.36,90,56.34,88,54.81,87.14Z"/><path class="cls-2" d="M63.24,94.95a3.27,3.27,0,0,0,2-3.09l0-1q.07-.9.14-1.8l-5.12.85C58.61,93.14,61.06,94,63.24,94.95Z"/><path class="cls-2" d="M58.74,88.68c-.24,1.1.75,1.07,1.49,1.2l0-1.87C59.73,88.23,58.81,88.37,58.74,88.68Z"/><polygon class="cls-6" points="59.22 62.92 59.21 62.91 59.21 62.91 59.22 62.92"/><path class="cls-6" d="M76.23,46.92c-.65,1.11-1.3,2.21-1.94,3.32s1,3.33-1.92,2.78c-1.91-.36-2.26-1.54-2.16-3.16,0-.65,0-1.3,0-1.95-.69-.34-.7-.67,0-1h0c-.93-1.11-2.47-1.9-2-3.75-1.77-.62-2.59,1.37-4.09,1.48a24.2,24.2,0,0,0-6.69,8.62C56.34,56,54.72,56.69,52.35,57c1,1.4,3.83,3.07-.38,3.84a2.82,2.82,0,0,0-2.58,2.94c-.08,2,2.09,1,2.89,2,.76-.73-1.9-4.25,2-2.43.66.31,1.41.56,1.25-.6-.22-1.61.62-3,1.89-3s1,2.17,1.81,3.13c1.77.16,2.65-1.44,4-2-.54-.71,1.39-3.86-1.94-2-.05,0-2.37-1.13-.49-2.89,3.31-3.11,6.68-2.48,8.5,2,1.81-1.45,4.36-.67,6.3-2.3.91-.76,1.41,1.18,1.57,2.26,1.54.14,2-1.38,3-2l0,0c0-2.14-2.14-2.23-3.31-3.35.8-2,4.68-.26,4.31-3.56C80.33,46.45,77.86,47.7,76.23,46.92Z"/><path class="cls-1" d="M55.36,73.49a12.24,12.24,0,0,1-2.15-2.6c-4.73-.37-9.2-.33-10.39,5.76-.1.53-.88.93-1.34,1.39l2.8,2.85.92,0c3.46-3.16,7.2-1.23,10.87-.59C58.13,77.82,58.37,75.56,55.36,73.49Z"/><path class="cls-1" d="M57.4,59.78c-1.27,0-2.11,1.35-1.89,3,.16,1.15-.59.91-1.25.6-3.89-1.82-1.23,1.7-2,2.43l1.84,2.07c.77,0,.59,4.3,2.24.46.8-1.86,1.9-3.59,2.86-5.38C58.37,62,58.76,59.83,57.4,59.78Z"/><path class="cls-7" d="M42.36,61.14c-.15,1.39-.11,2.65,1.77,2.74,1.62-1.95,3.28-3.85,6-4.2l.74-.83q0-.4,0-.8l-2.67-.11C46,58.41,44.93,61.2,42.36,61.14Z"/><path class="cls-11" d="M40.12,76.36c-.75.2,0,1,.1,1.54h1C41.08,77.2,41.17,76.08,40.12,76.36Z"/><path class="cls-10" d="M50.88,58.85l-.74.83C50.69,59.67,51,59.42,50.88,58.85Z"/><path class="cls-5" d="M75.37,79c-1.78-2.38-2.15-5.13-2.12-8-2.6.63-3.43,2.69-4,4.94a1.81,1.81,0,0,1-2,2c.77,1.69-2.52,2.44-1.53,2.8,5.76,2.09,1.31,5.56,1.45,8.36l1.07.79,4-3.93a4.72,4.72,0,0,1,3.46-2.09c0-.28,0-.56,0-.85C74.9,81.69,75.35,80.31,75.37,79Z"/><polygon class="cls-5" points="67.2 77.9 67.2 77.9 67.2 77.89 67.2 77.9"/><path class="cls-4" d="M72.22,85.92l-4,3.93c-.88,1.33,0,2.67,0,4l.49.41,5.85-5.16C73.16,88.46,74.17,86.13,72.22,85.92Z"/><path class="cls-10" d="M67.32,96.9l-1.21-.16a15.22,15.22,0,0,0-2.92,8.14c1.83-.24,2.69-2,4.18-2.74C69.88,100.37,69.51,98.63,67.32,96.9Z"/><path class="cls-4" d="M66.11,96.74l1.21.16,1.32-2.63-.49-.41C66.31,94,66.24,95.38,66.11,96.74Z"/><path class="cls-11" d="M58.3,100.13c-.3.1-.46.6-.68.92l.87.22.93-.85C59,100.31,58.61,100,58.3,100.13Z"/><path class="cls-6" d="M65.23,90.85l0,1C66,91.53,65.93,91.2,65.23,90.85Z"/><path class="cls-11" d="M41.14,86c1.18,1.48,1.39,4,4.06,3.9C43.86,85.08,43.86,85.08,41.14,86Z"/><path class="cls-3" d="M48.31,44.82l.91-.91-.93.05A3.31,3.31,0,0,0,48.31,44.82Z"/><path class="cls-2" d="M130.2,38.89l0,0h0Z"/><path class="cls-2" d="M131.11,43.74a2,2,0,0,1-2.93-.34c-.66-.84.16-2,1.11-2.19,1.89-.3,2.79-.65.94-2.29l-5-2h-1l-.37,1.3-.38-.25.74-1.06c-1.32-1.49-2-7.37-4.53-.63-.13.34-1,.36-1.24.7-3,3.8-7.45,2.19-11.26,2.95l-2,3q0,.48.09,1c.15-.07.32-.23.44-.2,4.21,1.24,8.41.07,12.59.09,2.82,0-1.06,2-.09,3.14V48.9c3.45.54,5.81,3.44,9.33,4.12,2.26.44.67,3,0,3.44-2.39,1.44-1.55,3.67-2.32,5.62,2.44.44,3.41-1.54,5-2.16-1-3.31,3-6.8-.4-10.19-.4-.4,1.52-.65,2.42-.83.79-1.29,3.59-1.57,2-4C133.24,42.34,133.16,42.24,131.11,43.74Z"/><path class="cls-6" d="M118.3,43.81c-4.18,0-8.38,1.15-12.59-.09-.12,0-.29.13-.44.2-.64-.26-.84-.56-.09-1l2-3-5.91-.88L101,42c-4-.37-4.52,3.45-6.59,5.67-1.42-1-1.84-3.46-4.17-2.75-.73,2.21,1.92,3.1,2,5,2.55-1,5-1.12,7,1,3.58-.24,2.67-3.52,3.52-6.46,3.53,4.71,4.25,10,8,13.64.63-1.83,2.88-2.79,2.49-5.11.41-3.06.11-6.69,5-6.09C117.24,45.8,121.12,43.83,118.3,43.81Z"/><path class="cls-9" d="M125.24,36.9l5,2c2.38-1.22,3.2-2.79,1.09-5C128.58,33.46,125.7,32.71,125.24,36.9Z"/><path class="cls-1" d="M130.2,59.92c-1.59.63-2.56,2.61-5,2.16.76-2-.07-4.19,2.32-5.62.69-.42,2.28-3,0-3.44-3.52-.68-5.88-3.58-9.33-4.12,1.56,5.26-3.12,3-5,4.14.39,2.32-1.86,3.28-2.49,5.11-3.72-3.61-4.44-8.93-8-13.64-.85,2.94.06,6.22-3.52,6.46-.42,5.2-5.08,3.65-7.93,5-1.75,2.47-.14,5.38-1,8l.32,2c2.51,3.32,5.81.1,8.61,1a5.2,5.2,0,0,1,.11-.94c-1.45-2-.39-3.16,1.57-4.28.43,1.62.77,3-.75,4.22l.08,2c2.25-1.08,4.06.27,6,1.07,2.89-1.74,4.24-.94,5,3,1.11,0,2.29.17,3-1l0-1c0-1.1-.22-2.27,1-3q0-.49,0-1c-1.57-2.35,1.65-3.24,1.32-5.22,1.35,3.75,5,4.36,7.62,6.18.2-.86-.24-2,.92-2.44a.8.8,0,0,1,.67.38c.18,1.15-.67,1.64-1.48,2.14-.06,1.1.12,2.28-1.07,3l-1,1h0a6.94,6.94,0,0,0,.91,4q.06.47.1.95c1.68.23,3.55-.49,5,1l6.91.17a15.63,15.63,0,0,0,10.09-7.12l1-3c-3.23-.57-4.88-3.54-7.27-5.28C135.95,59.48,133.42,59,130.2,59.92Zm.51,14.41c3.11-1.6,4.86-3.59,7.53-2.59.2.08.37.57.34.86C138.5,73.45,137,73.8,130.71,74.33Z"/><path class="cls-5" d="M83.22,48.92l-2,.07c.37,3.31-3.51,1.61-4.31,3.56,1.17,1.12,3.28,1.22,3.31,3.35l.42.25-.45-.22c-1,.62-1.46,2.15-3,2q0,.44,0,.89C77.77,59.9,79,60,79.87,60.65s1.86-2.41,2.28.16c.22,1.35-.66,2-2,2.16.88,3-2.77,4.82-2,7.79,2.56-1,5.47,1.11,7.92-.88a9.32,9.32,0,0,0,1.28-4.73c.3-5,1.25-10.06.71-15.14C86,51.79,84.94,48.87,83.22,48.92Z"/><path class="cls-2" d="M76.12,41.82c-1.83-.08-3.52,1-5.49-.71-2.7-2.27-2,.84-2.4,2.06-.47,1.85,1.07,2.64,2,3.75,2-.37,4-1.63,6,0,1.62.79,4.1-.47,5,2.07l2-.07a2.18,2.18,0,0,1,1-2.07C82.71,43.28,78.42,44.16,76.12,41.82Z"/><path class="cls-5" d="M92.22,49.92l-.9,6c2.85-1.32,7.51.22,7.93-5C97.17,48.8,94.77,48.9,92.22,49.92Z"/><path class="cls-15" d="M87.39,65.14a9.32,9.32,0,0,1-1.28,4.73l.84,1,3.25-1,.41-4-.32-2C89.06,63.71,88.23,64.43,87.39,65.14Z"/><path class="cls-6" d="M84.25,46.85a2.18,2.18,0,0,0-1,2.07C84.94,48.87,86,51.79,88.1,50,87.57,48,86.56,46.65,84.25,46.85Z"/><path class="cls-2" d="M85.47,43.06s.23.09.35.13a1.27,1.27,0,0,0,.13-.42s-.23-.09-.35-.13A1.27,1.27,0,0,0,85.47,43.06Z"/><path class="cls-4" d="M152.11,122.95q.06,1,.12,1.95c3,.13,3.3-3.71,6-4q0-1,0-2C155.21,118.71,154.29,121.78,152.11,122.95Z"/><path class="cls-3" d="M162.18,114.94l.51,2.2a3.69,3.69,0,0,0,1.53-3.24l-2,0Z"/><polygon class="cls-3" points="162.21 113.92 162.21 113.92 162.21 113.91 162.21 113.92"/><path class="cls-4" d="M160.13,121.88a3.63,3.63,0,0,0,3.14,2.23C163.18,122,161.71,121.87,160.13,121.88Z"/><path class="cls-4" d="M162.07,126.68l1.4-.81-1.21-.2Z"/><path class="cls-11" d="M162.18,114.94l0-1-1,1Z"/><path class="cls-3" d="M153.41,127.78c-.7.07-1.47-.57-2.21-.88-.62,3.2-1.33,5.63-5.6,6.34-4.71.79-5.17,3.23-2.38,6.66l1,0,2.94-.07,3-1.93c.36-.71.66-.74.9.07l1.08,1c.1-1.12.51-2.32,1.54-.78,1.38,2.06,1.68-.27,2.48-.37-1-2.22,1.12-2.82,2-4.06C159.63,129.41,158.21,127.31,153.41,127.78Z"/><path class="cls-6" d="M160.2,141.9l-.8,5.12c1.84,1.19,2.27-1.54,3.7-1.17,1.56-2.77,1-6.27,3-8.87L160.57,138Z"/><path class="cls-4" d="M158.26,133.82c-.91,1.24-3.08,1.85-2,4.06,2.07.6,2.84,2.49,4,4l.36-3.87C159.85,136.6,160.89,134.2,158.26,133.82Z"/><path class="cls-10" d="M159.23,85.87c-.66.4-1.38.6-1.41,1.69-.12,4.47.5,9-.55,13.4,1.06,2,.84,4.61,3,6.07a1.91,1.91,0,0,0,1.94-2.09c-.61-.37-2.34.63-1.79-1.07a75.89,75.89,0,0,1,3-7A25.46,25.46,0,0,0,165.12,89C162.88,88.48,160.67,87.9,159.23,85.87Z"/><path class="cls-4" d="M157.27,101l-4.1,2a5,5,0,0,1,0,.93c1.08,2.1,3.39,2.69,5.06,4.06l2-.89C158.11,105.56,158.33,102.95,157.27,101Z"/><path class="cls-6" d="M134.8,242a5.45,5.45,0,0,0-1.31-1.56c-2,.54-3.93,1-5.92,1.44l-.57,4,3.19,2.05c3.12-1.65,4.24-1.09,3.13,2.58A12.93,12.93,0,0,1,131.8,254a3.21,3.21,0,0,0,0,3.71c1.09,1.66,2.79.71,4.09.69,2,0,1.19-2,1.28-3.11.21-2.7.18-5.49,4-5.42v-3c-2.14-2.07-.12-3,1.08-4.27a3.74,3.74,0,0,0,.29-4.95,2.54,2.54,0,0,0-.19-.2q-3.53,1.33-7.13,2.39A2.62,2.62,0,0,1,134.8,242Z"/><path class="cls-6" d="M128.31,240q-.28.26-.54.53l-.19,1.36c2-.42,4-.9,5.92-1.44C132.08,239.29,130.28,239.31,128.31,240Z"/><path class="cls-6" d="M139.1,238.38c-1,1.13-3.55-2.22-3.87-5.48l-1-1c-.19,1.56.72,3.67-2,4,0,1.78,2.64,2.37,3.07,4q3.6-1.06,7.13-2.39C141.42,236.43,140.29,237,139.1,238.38Z"/><path class="cls-5" d="M142.61,237.7a3.74,3.74,0,0,1-.29,4.95c-1.21,1.28-3.22,2.2-1.08,4.27,3.57-1.12,5-4.68,7.78-6.72a6.7,6.7,0,0,0,2.65-6.68q-4.54,2.22-9.24,4A2.54,2.54,0,0,1,142.61,237.7Z"/><path class="cls-5" d="M143,225.34c-.8-.44-2.56.53-2.69,2.24-.24,3.17-2.64,4.27-5.09,5.32.32,3.27,2.9,6.62,3.87,5.48,1.18-1.38,2.32-1.95,3.33-.87q4.69-1.77,9.24-4a10.29,10.29,0,0,0-.38-1.66C150.14,228.28,146.12,227,143,225.34Zm4.54,9a1.37,1.37,0,0,1-1.32.2c-1.76-1.18-.74-3-.94-4.57-.38-.16-1.11-.45-1.1-.47.44-1.18,1.43-.35,2.15-.57.2.26.55.51.58.79C147.08,231.3,148.9,232.66,147.56,234.35Z"/><path class="cls-5" d="M166.19,156.93l0,0,0,0Z"/><path class="cls-5" d="M163.19,152.82l-3.91,2.25c-.58,4.22-4.35,5.55-7.09,7.8a5.65,5.65,0,0,0-2,3.89c-.35,1-1.16,1.12-2,1.14-3.63.47-3,3.76-3.94,6,1.49,1.08,2.44-.19,3.35-.91,3-2.35,4.79-6.18,9.16-6.77.73-.1.57-2.54,2.29-1.68,1.36.68.65,1.89.54,3a11.54,11.54,0,0,0,.65,3.33c1.68-1.15,3.73-1.92,2-4.78-.82-1.35,1.21-2.22,2.09-3.21-.14-2.25,0-4.41,1.91-6l-.12-2C164.59,154.95,163.23,154.78,163.19,152.82Z"/><path class="cls-11" d="M150.21,159.9c-1.11,1.25-3-.67-4,1-.72,3.91-3.23,5.71-7,6l.08,1,.37.63-.45.12.07.25c-.69,2.33,2.44,3.3,2,5.55l1.36.41,1.67-1c1-2.23.31-5.52,3.94-6a2.4,2.4,0,0,1,2-1.14,5.65,5.65,0,0,1,2-3.89C152.25,161.4,152.2,160,150.21,159.9Z"/><path class="cls-5" d="M159.51,198.39A21.62,21.62,0,0,1,151,200c2.77,2.3,2.64,4.81,1.06,7.22-1,1.47-1.2,2.87-.19,4s1.91-.46,2.88-.72c4.84-1.32,4.64-3.58,1.5-6.61l-.42-.23.43.22Z"/><path class="cls-2" d="M164.28,162.91c-.88,1-2.91,1.86-2.09,3.21,1.74,2.87-.31,3.63-2,4.78h0c.38,1.21,2,2.35,1.17,3.54s-2-.22-3.09-.45c-.61,1.3-1.89,2.59-.06,3.93h2a2.74,2.74,0,0,0,2.54-1.3c2.11-4.34,4.72-8.58,3.38-13.77Z"/><path class="cls-12" d="M141.17,174.49l-3.51,2.69-2.53,3.58a9.24,9.24,0,0,0,1.09,5.19l1.47-.17c1.95-3.48,5.3-6.33,4.84-10.88Z"/><path class="cls-5" d="M150.63,188.51c-.62.74.18,2,.93,2.6,1.28,1,1.71-.39,2.14-1.11,1.81-3,5.3-5,5.53-9l-2-.07C153.27,181.87,152.79,185.94,150.63,188.51Z"/><path class="cls-5" d="M132.32,218.29c0-.19-1.21-.27-1.85-.39l0,2.93.17,2,.38,2.14,1.11,2.56.06-.06c.88-2.89,4.06-1.13,6.11-3C135.24,223.2,132.69,221.71,132.32,218.29Z"/><path class="cls-5" d="M135.38,202.7c-.66,4.13-1.52,8-5.74,10.3-.93.49-.55,2.06.26,3,3.81-3.91,8.46-7.41,6.6-14C136.11,202.26,135.42,202.43,135.38,202.7Z"/><path class="cls-2" d="M149.21,247.91c-.84,3.18-.47,7.12-5,8h0l-1-6C145.65,250.54,147,248,149.21,247.91Z"/><path class="cls-2" d="M152.94,221.94c-1.16,0-2.52,0-2.5,1.55,0,1.87,1.46,2.32,3,2.38,1.15,0,2.52,0,2.51-1.56C156,222.44,154.54,222,152.94,221.94Z"/><path class="cls-5" d="M137,199.83c3.49-1.14,5.68-2.71,2-6.2A9,9,0,0,0,137,199.83Z"/><path class="cls-5" d="M133.16,231.9l-2.61.07.35,2.84,1.33,1.1c2.69-.33,1.78-2.44,2-4Z"/><path class="cls-5" d="M158.27,174c1.05.23,2.25,1.71,3.09.45s-.79-2.32-1.17-3.54C157.6,170.72,156.91,171.72,158.27,174Z"/><path class="cls-11" d="M132.17,227.52,130.38,230l.17,2,2.61-.07c0-1.53.45-3.18-.93-4.44Z"/><path class="cls-3" d="M164.28,162.91l1.85-.06q.06-.47.11-.93,0-2.52,0-5C164.28,158.47,164.14,160.64,164.28,162.91Z"/><path class="cls-2" d="M157.24,180.88l2,.07a2.18,2.18,0,0,0,1-2.05h-2Z"/><path class="cls-8" d="M170.33,164.86c0,1.36.58,2,2,1.89A1.87,1.87,0,0,0,170.33,164.86Z"/><path class="cls-5" d="M158.21,177.92q0,.49,0,1h2q0-.49,0-1Z"/><path class="cls-3" d="M160.18,50.91c-3.14.18-5.39-2.08-8.12-3,.08,1.14.79,2.13,1,3.11.9,3.56,2,7.25.12,10.89h3c1.4-.53,2.26-2.2,4.05-1.89C164.79,56,164.77,53.89,160.18,50.91Z"/><path class="cls-11" d="M140.43,56.34s-1.5-.28-1.75,0c-2,2.52-4,.44-5-.65s1.18-2.37,1.54-3.75l-3-3.07c-.89.18-2.82.43-2.42.83,3.43,3.39-.65,6.88.4,10.19,3.22-1,5.75-.44,8.74,1.73,2.39,1.74,4,4.71,7.27,5.28l1-1C147.88,60.68,140.77,60.9,140.43,56.34Z"/><polygon class="cls-2" points="146.21 85.91 146.21 85.91 146.21 85.91 146.21 85.91"/><path class="cls-2" d="M150.22,65.89l-1,0h-2l-1,1-1,3c1.94,2.72,0,4.12-1.94,5.4s-3.44,2.35,0,3.8,2.84,3.29-.15,4.8q0,.49,0,1v1c1,1.14,2-.33,3,0-.25-2.6,3.44-3.19,3-5.88l1-1.08h0A14.28,14.28,0,0,1,150.22,65.89Z"/><path class="cls-8" d="M136.16,43.91a2,2,0,0,0-1.94,1c1.59,2.46-1.22,2.75-2,4l3,3.07c3.77-.55,6.66,1.87,9.93,3l0,0C144.34,49.47,141.57,45.6,136.16,43.91Z"/><path class="cls-9" d="M130.2,38.89c1.88,1.65,1,2-.92,2.31-.94.15-1.77,1.35-1.11,2.19a2,2,0,0,0,2.93.34c2.06-1.5,2.13-1.4,3.11,1.13a2,2,0,0,1,1.94-1C135.33,40.87,134.23,38.13,130.2,38.89Z"/><path class="cls-5" d="M153.22,61.91h0c-3.11-.44-5.45-.09-4,4l1,0c1.12-3,2.54.4,4-.28C154.07,64.38,152.71,63.33,153.22,61.91Z"/><path class="cls-8" d="M151.12,40.43c-.41.15-.6.93-.88,1.43l1,1.06c.85-.09,1.62-.28,1.17-1.4C152.17,40.94,151.85,40.15,151.12,40.43Z"/><path class="cls-8" d="M145.24,54.89l0,0a1.9,1.9,0,0,0,2,2.05l.13-.13A1.89,1.89,0,0,0,145.24,54.89Z"/><path class="cls-8" d="M147.15,57l.51.39-.38-.52Z"/><path class="cls-2" d="M198.27,255.92q0-.52,0-1l1.23.54Z"/><path class="cls-4" d="M166.2,80.92l-5,0,0,2c.63,2,2.38,2.41,4,3,1.13-1.12,2.44-2.2,1-4Z"/><path class="cls-11" d="M163.11,145.85c-1.43-.37-1.86,2.36-3.7,1.17l.8-5.12c-1.13-1.53-1.9-3.42-4-4-.81.11-1.1,2.43-2.48.37-1-1.54-1.44-.34-1.54.78l1,2.9,1,.16c4-1.83,3.34,1.84,3.8,3.51.34,1.26-.51,2.85-.82,4.3,2.5,3.76-1.92,3.35-3,5l-.05,0c1,1.41,1.9.64,2.8-.13s1.7-.8,2.35.32l3.92-2.25,1.08-3.78C162.93,148.32,163.28,147,163.11,145.85Z"/><path class="cls-6" d="M156.24,61.91h-3c-.51,1.42.85,2.47,1,3.7-1.46.68-2.88-2.7-4,.28a14.28,14.28,0,0,0,0,13.06c4.85-.61,4-2.9.59-6h5.45l.78-2.12C157.7,67.75,156,64.92,156.24,61.91Z"/><path class="cls-10" d="M157.09,70.8l-.78,2.12,1.9,0A2.14,2.14,0,0,0,157.09,70.8Z"/><path class="cls-2" d="M127,245.86l3.19,2.05c3.32,5.64-2.34,5.27-4.74,7.08a2.25,2.25,0,0,0-.78-.06,9.9,9.9,0,0,1,.56-8l0,0Z"/><path class="cls-2" d="M183.15,256l-.37-.48.48.38Z"/><path class="cls-2" d="M144.21,255.91l-.42.41c0-.09,0-.21.08-.26a1.35,1.35,0,0,1,.34-.15Z"/><path class="cls-11" d="M123.2,259.94l-.71-.53.76-.42A2.31,2.31,0,0,1,123.2,259.94Z"/><path class="cls-13" d="M127.09,213c-2.72-1.33-3.3.77-4.18,2.54-1,2.07.1,3.56,1.41,4.76s2.84,2,3.91-.39C127.61,217.63,126.86,215.38,127.09,213Z"/><path class="cls-15" d="M129.22,224.88l1.84.08-.38-2.14C129.58,223.07,129.3,223.9,129.22,224.88Z"/><path class="cls-14" d="M122.11,238.86c-3.72.05-5.2,1.93-5.7,4.64,1.43-.13,2.86-.28,4.28-.47C121.27,241.66,122.18,240.38,122.11,238.86Z"/><path class="cls-15" d="M120.4,246.09a5.6,5.6,0,0,0,4.18-3.67q-1.94.34-3.89.6A4.18,4.18,0,0,0,120.4,246.09Z"/><path class="cls-15" d="M127.77,240.49c.18-.18.35-.36.54-.53l1.05-4-2.13-.06c-2.65-.68-3.62,1.59-5.12,2.92.07,1.52-.84,2.81-1.42,4.17q2-.26,3.89-.6a11.19,11.19,0,0,0,.41-1.13C125.62,239.17,126.52,239.64,127.77,240.49Z"/><path class="cls-14" d="M130.38,230c-.92-.07-2.91-1.57-2.49.06.6,2.3-1.69,3.85-.65,5.86l2.13.06,1.54-1.18-.35-2.84Z"/><path class="cls-7" d="M86.31,226.85l0,0c-1.42.44-3.23.48-4.18,1.41-1.81,1.77-5.79,3.43-3.81,6.33s5,7.2,10.19,3.51c.88-.63,2.53-.48,3.68-1.2l-3-7.87C87.7,228.95,86.21,228.95,86.31,226.85Z"/><path class="cls-15" d="M86.31,226.85c-.1,2.1,1.38,2.1,2.84,2.14C89.24,226.9,87.78,226.87,86.31,226.85Z"/><path class="cls-14" d="M75.21,234.91v1C75.88,235.59,75.89,235.25,75.21,234.91Z"/><path class="cls-2" d="M128.24,97.84c-.43-2.29-2.84-4.27-1.06-6.9-3-1.87-6-.83-8.94,0,2.76,2.07,1.29,5.35,2.08,8,.44,1.47-2,.67-3.1,1,0,1.33,1.2,1.85,1.76,2.78,1.55,2.55-.52,2.1-1.9,2.17-1.68.65-2.6,1.5-.54,2.8a2.75,2.75,0,0,1,1.32,2.34c7.11.37,3.92-6.21,5.63-8.86,3.76.31-1.28,4.47,2.69,4.73l3,2.08c.73-1.24,1.94-1,3.08-1l1.84-.12-.82-1C129.9,104.27,125.2,103.5,128.24,97.84Z"/><path class="cls-2" d="M150.19,86.88l-4.9,6.34-.06,1.68c1,3.15-1.56,5.89-1,9,.21,1.75,1,2.3,2.45,1.06,1.08-.91,2-2.1,3.59-2v-1c-.1-.23-.31-.66-.3-.67.71-.36,1,.1,1.32.65C155.08,97.88,154.47,88.93,150.19,86.88Z"/><path class="cls-11" d="M132.94,108.81c.07-.58-.43-1.22-.67-1.84-1.14,0-2.34-.25-3.08,1,.62,5.25.59,10.78,6,14,1.08-3,5.41-4.35,4.32-8.51C133.62,115,132.35,114.1,132.94,108.81Z"/><path class="cls-11" d="M146.63,104.95c-1.47,1.24-2.24.69-2.45-1.06-2.87,0-4.1,2.41-5.93,3.94l1.92.12c3-.1,5.59.36,5.42,4.27,0,.7,0,1.45.88,1.27.53-.11,1.41-.83,1.36-1.15-.56-3.51,2.15-6.15,2.38-9.42C148.6,102.85,147.71,104,146.63,104.95Z"/><path class="cls-10" d="M138.26,107.83c-2.11.5-1.49-5.87-5-2l.82,1c.48,1.17.88,2.38,1.46,3.5.74,1.43,1.83,1.41,3.23.77s2.55-1.41,1.37-3.18Z"/><path class="cls-4" d="M147.19,86.9l-1,.18-.82.88L144.2,89.9c0,1.24-.05,2.47,1.09,3.32l4.9-6.34C149.16,83.87,148.19,87.27,147.19,86.9Z"/><path class="cls-10" d="M157.67,75c-.45,0-1.07.15-.7.81a1.68,1.68,0,0,0,1.09.72c.52.08.86-.29.71-1.05A3.48,3.48,0,0,0,157.67,75Z"/><path class="cls-11" d="M149.9,101.25s.19.44.3.67l1,0C150.94,101.35,150.61,100.89,149.9,101.25Z"/><path class="cls-11" d="M144.23,118.94l-1,1Z"/><path class="cls-11" d="M152.81,103.18a4.37,4.37,0,0,0,.34.67,5,5,0,0,0,0-.93C153,103,152.8,103.14,152.81,103.18Z"/><path class="cls-6" d="M149.23,80l1-1.08Z"/><polygon class="cls-2" points="146.21 85.91 146.21 85.92 146.21 85.91 146.21 85.91"/><path class="cls-2" d="M146.24,87.08l1-.18-1-1Z"/><path class="cls-1" d="M98.25,121.89c-1.18-.21-2.65.62-3.47-.91.25-1.82,4.93-1,2.7-3.25-2-2.08-5.74-2.34-8.92-1.66-3,.64-2.07,3.24-2.4,5.26-.39,2.35,2.26,4.15,1,6.58,2.32-2.11,4.67-.8,7-.07a2.23,2.23,0,0,1,2-1c1.17-1.83,3.64-1.42,5-2.92l0-1q0-.48,0-1Z"/><path class="cls-2" d="M87.18,127.91c-.18,2.17,2.28,1.71,3,3l1.06.06a8.86,8.86,0,0,1,1,0c.65-1,2.25-1.46,2-3.09C91.84,127.1,89.49,125.8,87.18,127.91Z"/><path class="cls-5" d="M101.2,123.95c-1.36,1.51-3.83,1.09-5,2.92l1,0,4,0,1-1C102.19,125.06,102.07,124.32,101.2,123.95Z"/><path class="cls-2" d="M97.18,126.91c.61,1,2.18,1.43,2,3a2.82,2.82,0,0,0,1.94-3Z"/><path class="cls-5" d="M92.2,130.92a8.86,8.86,0,0,0-1,0C91.58,131.54,91.9,131.48,92.2,130.92Z"/><path class="cls-5" d="M153.16,141.93a9.26,9.26,0,0,1-6-2.07l-2.94.07c2.3,1.53,3.81,4.11,6.55,5a1.69,1.69,0,0,1,1.28,2.28c-.76,2-1.3-.33-2.07-.25-1.26.12-2.65-.5-3.62.83.72.42.61.78-.08,1.1l-1.09,1h0c-.05,1.11-.29,2.27.92,3,1.66-.78,3.67-1.91,4.54.57.59,1.68-1.39,1.23-2.39,1.46l.86,1c1.91.89,3.32-.55,4.93-1.06l.05,0,1-4.93a19,19,0,0,0-1-7.83Z"/><path class="cls-4" d="M145.39,154.89l.8-1.95c-1.22-.71-1-1.88-.92-3-2.56.49-8.19,7-8,9.33a1.62,1.62,0,0,0,.7,1.07c2.06,1.21,1.16,1.22-.35,2.21s-5.21.7-3.48,4.34h4.95c3.82-.26,6.32-2.07,7-6-1.63.47-3.48,2.86-4.66-.55C140.25,156.74,142,155.26,145.39,154.89Z"/><path class="cls-11" d="M150.81,145c-2.75-.93-4.25-3.51-6.55-5l-1,0c-1.39.58-4.41-2.07-4,2,1.52,1.27.31,5.35,3.13,4.49,2.37-.72,2.72,1.05,4.06,1.42,1-1.33,2.36-.71,3.62-.83.77-.08,1.31,2.22,2.07.25A1.69,1.69,0,0,0,150.81,145Z"/><path class="cls-10" d="M132.65,147.32c-.71,1-.59,2.65-2.4,2.62a20.5,20.5,0,0,0-.07,6.86c.24,1.25-.18,2.79,1.74,3a2.23,2.23,0,0,0,2.63-1.78c.33-3.35,2.27-6.79-.24-10.08C134.08,146.92,133.71,145.84,132.65,147.32Z"/><path class="cls-4" d="M146.32,148.94l-1.09,1Z"/><path class="cls-10" d="M100.3,117.87l-.1,0,0,0Z"/><path class="cls-10" d="M107.22,109.92c-3.49-.46-3.77-3.62-5-6L100,102.12l-.82-.68L97.66,100l-.25.25-6.2-.89a1.81,1.81,0,0,1-2.93-.45l-8.1.72-2.84,1.88,1.92,2.14a8.21,8.21,0,0,0,3.19.64c4.06.37,7.68-2.67,11.78-1.3,3.57-.74,5.07,1.74,6.08,4.32,1.46,3.71-3.53,3.15-4.1,5.63,3.27.12,2.66,3.33,4,5l.1,0,.78-.75.37.51-1.15.24-.07.07,0,0h0q.07.47.12.94c1.58.35,3.54-.85,4.73,1.14,2.37,1.51,2-1.48,3.16-1.93C110.44,115,105.43,112.88,107.22,109.92Z"/><path class="cls-3" d="M94.22,102.94c.25.79,2.44,1.44.14,2.4-2.15.89-3,2.45-2.38,4.77s2.34,2.58,4.23,2.79c.57-2.49,5.56-1.92,4.1-5.63C99.28,104.68,97.78,102.2,94.22,102.94Z"/><path class="cls-11" d="M100.31,118.83l-2.05,3.06,2.95.06c.81.31.72.64,0,1l0,1c.87.37,1,1.11,1,1.93,2.87-1,3.66-3.09,2.88-5.91C103.85,118,101.89,119.18,100.31,118.83Z"/><path class="cls-6" d="M80.17,124.94l.1-.08q0-2.44,0-4.89C79.48,121.69,78.54,123.46,80.17,124.94Z"/><path class="cls-11" d="M106.68,175c-2.5.11-5,.7-5.44,3.94-.74,8.84-1.55,9.28-11.06,6-2,.11-2,1.57-2,3h0a2,2,0,0,1,2,1c6.21-.57,12.43-1,18.62-1.76,2.14-.25,3.8-1.83,2.51-4-.77-1.33.26-2.17-.07-3.19a2.47,2.47,0,0,0-3,0,2.45,2.45,0,0,1-2.65,2.33c-.28,0-.88-.77-.8-1,.55-1.62,2.06-1.31,3.32-1.47.62-2.7,2.8-2.8,4.93-3l.1-.1-1.21-3A19.2,19.2,0,0,1,106.68,175Z"/><polygon class="cls-3" points="80.21 181.91 80.21 181.91 80.21 181.91 80.21 181.91"/><path class="cls-3" d="M86.16,178l-4.91-1.09L79.14,179l1.07,2.88h0l2.16.4c-.08.13-.14.34-.25.37a1.55,1.55,0,0,1-1.91-.77h0c-.51,5.43,2.62,7.77,8,6,0-1.43-.07-2.9,2-3A12.61,12.61,0,0,1,86.16,178Z"/><path class="cls-7" d="M121.24,175.81l-.93,4.23c1.32.56,3.49.18,3,2.73l1.89-2.81C126.69,175.9,123.1,176.68,121.24,175.81Z"/><path class="cls-3" d="M113.07,176.88c-2.14.16-4.31.26-4.93,3l.13.14a2.47,2.47,0,0,1,3,0c.75.17,1.91.72,2.17.44C114.52,179.22,113,178.1,113.07,176.88Z"/><path class="cls-3" d="M88.23,187.91c.13,1.36.39,2.49,2,1A2,2,0,0,0,88.23,187.91Z"/><path class="cls-3" d="M147.14,118l.56.4-.39-.57Z"/><path class="cls-10" d="M113.69,127.71c-1.58-.54-3.11,1.12-4.34,2.33A13.22,13.22,0,0,0,108,132l.18,2.05.38.57-.43.11c-.06,4.18,3.54,4.06,6.09,5.17,1-3.23-3.93-3.34-3.44-6.33,1.45-.85,4,1.73,4.42-1.47C115.43,130.38,115.21,128.22,113.69,127.71Z"/><path class="cls-4" d="M113.24,111.84q0-.4,0-.8c-1.83-1.31-3.68-2.5-6-1.11-1.79,3,3.22,5.1,1,8.11,1.5,1.32.62,4.11,3,4.86,1.85-1.58.92-4.07,1.93-5.92C113.37,115.26,109.11,113.48,113.24,111.84Z"/><path class="cls-4" d="M108.1,134.71l.43-.11-.38-.57A3.8,3.8,0,0,1,108.1,134.71Z"/><path class="cls-11" d="M103.21,151.76c-1-.44-.94.53-.83,1a8,8,0,0,0,1,1.83c.38-.7.77-1.1.69-1.37C103.93,152.71,103.65,152,103.21,151.76Z"/><path class="cls-6" d="M96.22,150.91h0c.48.83.89,1.79,2.12,1.55a.82.82,0,0,0,.38-.7C98.23,150.56,97.1,151.06,96.22,150.91Z"/><path class="cls-15" d="M116.54,107.67c-2.06-1.3-1.14-2.15.54-2.8a.82.82,0,0,1,0-.63l-5.73-1.64a2.15,2.15,0,0,1-.95.15c-2.23,3.81-5.47.67-8.18,1.2,1.24,2.35,1.52,5.51,5,6,2.33-1.39,4.18-.2,6,1.11,1.45-.78,3.29.25,4.63-1A2.75,2.75,0,0,0,116.54,107.67Z"/><path class="cls-7" d="M113.24,111.84c-4.13,1.64.13,3.43-.09,5.14,1.11.35,1.28,2.16,2.83,1.8C119.62,113,119.62,113,113.24,111.84Z"/><path class="cls-11" d="M128.19,125.85l1.09.05a5.42,5.42,0,0,0,.24-.68C128.83,124.89,128.48,125.32,128.19,125.85Z"/><path class="cls-2" d="M96.29,178.67c-1.59-3.21-3.72-1.67-5.8-1.4-1.45.19-2.9.46-4.34.69a12.61,12.61,0,0,0,4,6.93c9.51,3.29,10.32,2.86,11.06-6C99.54,178.95,97.21,180.51,96.29,178.67Z"/><path class="cls-4" d="M101.15,171l1,1,2-1.1C103.09,169.53,102.1,169.71,101.15,171Z"/><path class="cls-11" d="M128.47,174.74q.4,4.36.8,8.71l2.65-1.06a4.38,4.38,0,0,1,3.22-1.63l2.53-3.58C134.79,175.64,130.8,178.33,128.47,174.74Z"/><path class="cls-7" d="M126.14,172.71l-.09.12.43,2.22c.2-.14.52-.24.56-.41A1.71,1.71,0,0,0,126.14,172.71Z"/><path class="cls-4" d="M139.14,168.69l.45-.12-.37-.63C139.19,168.19,139.17,168.44,139.14,168.69Z"/><path class="cls-13" d="M131.91,182.38c2.54,4.26-3.55,3.55-3.68,6.36,2.72.76,4.51-1.81,7-1.84l1-1a9.24,9.24,0,0,1-1.09-5.19A4.38,4.38,0,0,0,131.91,182.38Z"/><path class="cls-14" d="M129.92,205.2c.34.19.7.57,1,.54s.65-.45,1.2-.88c-.61-.28-1-.64-1.3-.55S130.22,204.89,129.92,205.2Z"/><path class="cls-14" d="M130.2,209.93l.46.2-.42-.24Z"/><path class="cls-10" d="M76.37,100.8c-1.6,2-4.17,1.69-6.22,2.61.37,1.77,1.72,1.43,2.94,1.37.84-1,2-.78,3.1-.93l.58-2.59A.45.45,0,0,0,76.37,100.8Z"/><path class="cls-3" d="M76.77,101.26l-.58,2.59c1.14,1.41,2.16,1.37,3.06-.24l-1.92-2.14C76.88,102.18,76.93,101.42,76.77,101.26Z"/><path class="cls-12" d="M102.18,92.92l0-2c-2.22-1.23-5.4.17-7.05-2.59C92.23,86.67,90.5,84.52,92,81c-1.76-3.28-.56-7-1.56-10.4a.8.8,0,0,0-.27-.7l-3.25,1c-1.43,4.76-3.31,9.28-6.78,13,.94,2.45-1,2.79-2.52,3.37l-.09.08a2,2,0,0,1-2.36,1.38.77.77,0,0,1-.7.39l-5.86,5.16L67.32,96.9c2.18,1.73,2.55,3.48,0,5.25l-.14,2.35,2.17-1.29c1.42-3.42,3.67-4.44,7-2.39a.44.44,0,0,1,.4.45c.16.16.11.92.57.21l2.84-1.88c2.39-1.38-.45-5,3-6.28,4.32-1.62,8.52-2.64,13.06-1.38,1.52,0,3,0,3.06,2.08.06,1.65,1.19.92,2.07,1C103.8,95.11,100.7,93.1,102.18,92.92Z"/><path class="cls-15" d="M69.4,103.2a1.12,1.12,0,0,0,.75.22c2.05-.92,4.62-.61,6.22-2.6C73.07,98.76,70.82,99.77,69.4,103.2Z"/><path class="cls-4" d="M69.06,110.15l.1.53.35-.14c0-.11,0-.26-.08-.31A1,1,0,0,0,69.06,110.15Z"/><path class="cls-1" d="M80.18,63a28,28,0,0,1-3.81-2.1c-1.78-1.36-.35-1.71.81-2q0-.45,0-.89c-.17-1.08-.67-3-1.57-2.26-1.94,1.63-4.49.85-6.3,2.3-2,1-4.77.42-6.07,2.89-1.39.6-2.27,2.2-4,2-.11,2.2,1.2,4.3-.13,6.67-1,1.71.49,2.31,2.1,1.84,1.94-.56,4.29-.52,4.7-3.92,1.56,3.23,1.32,5.84,1.34,8.41h2c.61-2.25,1.44-4.32,4-4.94,1.18,0,2.4-.2,3,1.16l1.89-1.38C77.41,67.79,81.06,66,80.18,63Z"/><polygon class="cls-1" points="67.22 75.92 67.22 75.91 67.21 75.91 67.22 75.92"/><path class="cls-3" d="M45.2,80.92c3.72,1.53,7.52,4.66,10.87-.59C52.4,79.69,48.66,77.76,45.2,80.92Z"/><path class="cls-11" d="M60.67,79.81c-.09,0-.48.39-.6.65-.56,1.18.19,1.41,1.12,1.48l0,0C61.1,81.17,61.63,80.26,60.67,79.81Z"/><polygon class="cls-1" points="67.2 77.89 67.2 77.89 67.2 77.9 67.2 77.89"/><polygon class="cls-1" points="67.21 75.91 67.21 75.92 67.22 75.92 67.21 75.91"/><path class="cls-1" d="M67.2,77.89q0-1,0-2C66.2,76.57,66.19,77.23,67.2,77.89Z"/><path class="cls-11" d="M40.22,81.91h0c0,.57-.94,1.14,0,1.7a.5.5,0,0,0,.46-.13C41.25,82.77,40.85,82.3,40.22,81.91Z"/><path class="cls-11" d="M60.82,56c-1.87,1.76.44,2.92.49,2.89,3.32-1.87,1.4,1.28,1.94,2,1.3-2.48,4.05-1.91,6.07-2.89C67.5,53.51,64.13,52.87,60.82,56Z"/><path class="cls-11" d="M70.23,46.92h0q0,.49,0,1c0,.65,0,1.3,0,1.95-.09,1.62.25,2.81,2.16,3.16,2.93.54,1.36-1.81,1.92-2.78s1.29-2.22,1.94-3.32C74.23,45.29,72.23,46.55,70.23,46.92Z"/><path class="cls-2" d="M70.21,47.91q0-.49,0-1C69.51,47.25,69.52,47.58,70.21,47.91Z"/><path class="cls-3" d="M78.18,70.75l-1.89,1.38c-1,2.18.7,4.73-.92,6.83,0,1.35-.47,2.73.3,4a6.4,6.4,0,0,1,4.49.91c3.47-3.69,5.36-8.21,6.79-13l-.84-1C83.65,71.87,80.75,69.76,78.18,70.75Z"/><path class="cls-6" d="M73.25,71c0,2.86.34,5.61,2.12,8,1.62-2.1-.06-4.64.92-6.83C75.65,70.77,74.43,70.94,73.25,71Z"/><path class="cls-3" d="M75.68,83.83a4.72,4.72,0,0,0-3.46,2.09c1.95.21.93,2.54,2.27,3.18a.77.77,0,0,0,.7-.39c.22-1.43.95-2,2.36-1.38l.09-.07C77,86.12,77.45,84.33,75.68,83.83Z"/><path class="cls-4" d="M75.67,83c0,.28,0,.57,0,.85,1.77.5,1.3,2.29,2,3.43,1.57-.58,3.46-.92,2.52-3.37A6.4,6.4,0,0,0,75.67,83Z"/><path class="cls-6" d="M67.2,77.9a1.81,1.81,0,0,0,2-2h-2Z"/><path class="cls-11" d="M118.21,47c-4.87-.6-4.58,3-5,6.09,1.87-1.13,6.55,1.11,5-4.14Q118.2,47.92,118.21,47Z"/><path class="cls-8" d="M123.47,38l.38.25.37-1.3h0Z"/><path class="cls-1" d="M105.27,43.92q-.06-.48-.09-1C104.43,43.36,104.63,43.66,105.27,43.92Z"/><path class="cls-6" d="M127.3,87c.05-.34.1-.68.16-1-1.74-2-2.46-5-5.8-5.56-1.48-.25-1.44-2-1.49-3.38a5.21,5.21,0,0,0-.92-.17c-.33.9-1.38,1.16-1.6,2.34-.36,1.9-3.18,2.87-3.58,2.11-.84-1.58-2.59-2.77-2.14-5.46s2.31-2,3.39-2.79.81.85,1,1.42c.45,1.53,1.68,1.32,2.8,1.43.14-1.72.13-3.47,1.15-5-.74-1.21-1.94-1-3.06-1-.71,1.18-1.89.91-3,1-.72,1.18-1.9,1-3,1-1.83,0-3.49.22-2.57,2.72.56,1.51,0,2.14-1.43,2.29-.13,1.72,1.89,3.51-1.25,5.08-2.52,1.25-1.28,3.22,1.25,3.9,4.45,0,9-.17,11.05,5,3-.83,6-1.87,8.94,0l.23-.16-.12-1.9c-.46-.39-1.26-.73-1.32-1.17C125.85,86.81,126.73,87,127.3,87Z"/><path class="cls-2" d="M134.21,85.9c-.28-1-1.61-2,0-3a5,5,0,0,0,.38-.72s-.24-.18-.37-.28c-.66-.29-.77-.61,0-1a6,6,0,0,0,1-3.9l-6.91-.17c-.29.9.57,2.59-1.49,2.28s-4.43-.26-4.58-3.27l-2,1.16c0,1.35,0,3.13,1.49,3.38C125,81,125.72,84,127.46,86c2.48-1.76,4.3-1.2,4.6,1.83.23,2.33.13,4.93-2.78,6,.61,1.33,1.83,1,2.92,1.09l2,1.15c.71-2.4,2.48-1.27,3.94-1.18l.06-.07.05-1.87C136.39,90.87,133.09,89.64,134.21,85.9Z"/><path class="cls-11" d="M100.14,65.93q-.41,0-.82.06a5.33,5.33,0,0,0-.11.94C99,72,94.95,70.51,92.07,71l1.25,8.92c2.37-.28,3.6,1.29,4.77,3,1.31-.11,3.49.49,2.51-2-1.19-3.07.83-4.37,2.64-5.93l-3-7ZM96.23,78.65l-.1-.49a1,1,0,0,1,.37.07c.06,0,.05.19.08.29Z"/><path class="cls-6" d="M136.8,79.69l.4.23h0v0Z"/><path class="cls-6" d="M143.3,75.32c1.92-1.28,3.88-2.68,1.94-5.4A15.62,15.62,0,0,1,135.16,77a6,6,0,0,1-1,3.9q0,.48,0,1c.13.1.39.24.37.28a5,5,0,0,1-.38.72c2.14,1,2.14,1,3-3h0l-.4-.23.42.21v0c2.56.49,4.76,1.51,6,4,3-1.51,3.72-3.32.15-4.8S141.26,76.68,143.3,75.32Z"/><path class="cls-2" d="M122.26,70.94h0Z"/><path class="cls-2" d="M116.54,60.68c.33,2-2.89,2.87-1.32,5.22.76.15,1.9.16,1.44,1.29-.34.82-1,.29-1.45-.3-1.19.71-1,1.89-1,3l2.94.07c1.13,0,2.33-.21,3.06,1h2l1-1c1.18-.69,1-1.87,1.07-3l-.11-.09C121.52,65,117.89,64.43,116.54,60.68Z"/><path class="cls-6" d="M106.2,69c-1.91-.8-3.72-2.15-6-1.07l3,7c1.91-.71-.55,5.12,3,2C106.44,74.26,104.88,71.61,106.2,69Z"/><path class="cls-6" d="M90.61,65.88l-.41,4a.8.8,0,0,1,.27.7l1.6.38c2.88-.48,6.88,1,7.15-4.06C96.42,66,93.12,69.2,90.61,65.88Z"/><path class="cls-5" d="M111.2,71.93c-.76-3.9-2.11-4.7-5-3-1.32,2.65.24,5.29,0,7.94l1,0c1.46-.15,2-.78,1.43-2.29C107.7,72.15,109.37,71.92,111.2,71.93Z"/><path class="cls-3" d="M122.26,70.94h-2c-1,1.52-1,3.27-1.15,5a7,7,0,0,1,.16.95,5.32,5.32,0,0,1,.92.17l2-1.16h0l1-1A6.94,6.94,0,0,1,122.26,70.94Z"/><path class="cls-11" d="M123.27,75.85l-1.07,0h0c.15,3,2.52,3,4.58,3.27s1.2-1.38,1.49-2.28C126.83,75.37,125,76.08,123.27,75.85Z"/><path class="cls-11" d="M138.24,71.74c-2.67-1-4.43,1-7.53,2.59,6.26-.53,7.79-.88,7.87-1.73C138.61,72.32,138.44,71.82,138.24,71.74Z"/><path class="cls-6" d="M99.32,66q.41,0,.82-.06c1.52-1.19,1.18-2.6.75-4.22C98.94,62.83,97.88,64,99.32,66Z"/><path class="cls-2" d="M125.08,64.43c-1.16.46-.72,1.58-.92,2.44l.11.09c.81-.5,1.66-1,1.48-2.14A.8.8,0,0,0,125.08,64.43Z"/><path class="cls-5" d="M115.22,65.9q0,.49,0,1c.4.59,1.11,1.12,1.45.3C117.12,66.07,116,66.05,115.22,65.9Z"/><path class="cls-5" d="M114.21,70.91c1.08,0,2.26.22,3-1l-2.94-.07Z"/><path class="cls-2" d="M122.2,75.88l1.07,0q0-.48-.1-.95Z"/><path class="cls-3" d="M122.22,71l1-1Z"/><path class="cls-6" d="M79.87,60.65c-.89-.6-2.1-.75-2.69-1.82-1.17.34-2.59.69-.81,2A28,28,0,0,0,80.18,63c1.32-.12,2.19-.8,2-2.16C81.73,58.24,80.73,61.23,79.87,60.65Z"/><path class="cls-6" d="M80.2,55.93l.45.22-.42-.25Z"/><path class="cls-6" d="M151.13,138a8.07,8.07,0,0,0-.9-.07l-3,1.93a9.26,9.26,0,0,0,6,2.07l-1-2.9Z"/><path class="cls-11" d="M150.22,137.94a8.07,8.07,0,0,1,.9.07C150.89,137.2,150.58,137.23,150.22,137.94Z"/><path class="cls-7" d="M120.4,246.09c-2.86,4.39-1.72,7.82,2.94,8.83h1.34a9.9,9.9,0,0,1,.55-8h0l-.38-.2.41.17v0l1.78-1.07.57-4c-1,.21-2,.4-3,.58A5.6,5.6,0,0,1,120.4,246.09Z"/><path class="cls-7" d="M124.83,246.73l.38.2h0v0Z"/><path class="cls-7" d="M125,241.3a11.19,11.19,0,0,1-.41,1.13c1-.18,2-.37,3-.58l.19-1.36C126.52,239.64,125.62,239.17,125,241.3Z"/><path class="cls-11" d="M134.8,242a2.62,2.62,0,0,0,.5-2.08l-1.8.52A5.45,5.45,0,0,1,134.8,242Z"/><path class="cls-11" d="M132.23,235.91l-1.33-1.1L129.36,236l-1.05,4c2-.65,3.76-.67,5.18.46l1.8-.52C134.87,238.28,132.25,237.69,132.23,235.91Z"/><path class="cls-2" d="M146.35,229l-1.05,1c.2,1.56-.82,3.38.94,4.57a1.37,1.37,0,0,0,1.32-.2c1.34-1.7-.48-3.05-.63-4.61C146.9,229.46,146.55,229.22,146.35,229Z"/><path class="cls-1" d="M144.2,229.52s.72.31,1.1.47l1.05-1C145.63,229.17,144.64,228.34,144.2,229.52Z"/><path class="cls-2" d="M156.93,154.75c-.89.77-1.8,1.54-2.8.13-1.61.51-3,1.95-4.93,1.06l1,4c2,.1,2,1.49,2,3,2.75-2.25,6.51-3.57,7.09-7.8C158.63,154,157.83,154,156.93,154.75Z"/><path class="cls-1" d="M148.14,167.9c.89,0,1.7-.16,2-1.14A2.4,2.4,0,0,0,148.14,167.9Z"/><path class="cls-3" d="M148.34,155c-1-1.26-2,1.47-3-.08-3.36.37-5.14,1.85-3.87,5.5,1.19,3.41,3,1,4.66.55,1-1.7,2.92.22,4-1l-1-4Zm-5.48,3.56c-.2-.11-.25-.47-.37-.72.24-.06.56-.24.7-.15s.3.46.44.71C143.37,158.44,143,158.62,142.87,158.53Z"/><path class="cls-1" d="M156.2,203.92h0l-.43-.22Z"/><path class="cls-11" d="M143.21,85.92c-.67-.34-.73-.68,0-1q0-.49,0-1c-1.22-2.49-3.43-3.51-6-4-.85,4-.86,4-3,3-1.62,1-.28,2,0,3A21.67,21.67,0,0,0,136.91,87c4.31,1.15,3.67,3.34,1.31,5.93l-.05,1.87c2.35.37,4.72-.78,7.06.09,0-.56,0-1.12.06-1.68-1.15-.85-1.14-2.08-1.09-3.32-1.53-1.86,0-1.79,1.22-1.94l.82-.88,0-1.17C145.21,85.59,144.22,87.06,143.21,85.92Z"/><path class="cls-11" d="M137.21,79.92h0v0Z"/><path class="cls-6" d="M143.21,85.92v-1C142.48,85.24,142.54,85.58,143.21,85.92Z"/><path class="cls-6" d="M154.2,142.09a19,19,0,0,1,1,7.83l1.94,0c.32-1.44,1.17-3,.82-4.3C157.54,143.94,158.15,140.26,154.2,142.09Z"/><path class="cls-2" d="M155.23,149.92l-1,4.93c1.07-1.61,5.49-1.19,3-5Z"/><path class="cls-3" d="M145.23,94.9c-2.34-.86-4.71.28-7.06-.09l-.06.07c4.23,1.44-.13,5.06,1.87,7.18-2.05-2-5.22-2.76-5.81-6l-2-1.14-.12,3c-.4,1.27,2.17,3.16-.16,3.71s-2.63-1.79-2.66-3.68l-1-.06c-3,5.66,1.66,6.43,5.06,8,3.46-3.9,2.84,2.47,5,2,1.83-1.53,3.05-4,5.93-3.94C143.66,100.79,146.19,98,145.23,94.9Z"/><path class="cls-5" d="M118.24,90.93c-2.08-5.2-6.6-5-11.05-5l0,1.94A4.28,4.28,0,0,0,108,88c1.88,1,3.79,1.87,5.62,2.92s-.65,1.23-.46,2l0,0c2,2,4.27,3.72,4,7h0c1.11-.31,3.54.49,3.1-1C119.53,96.29,121,93,118.24,90.93Z"/><path class="cls-6" d="M129.28,93.82l-1.87-3-.22.16c-1.78,2.63.63,4.61,1.06,6.9l1,.06,2.82,0q.06-1.48.12-3C131.1,94.86,129.89,95.15,129.28,93.82Z"/><path class="cls-5" d="M117.22,99.92h0c-3.23,1.34.5,2.91-.14,4.34a.82.82,0,0,0,0,.63c1.38-.08,3.45.38,1.9-2.17C118.42,101.77,117.18,101.25,117.22,99.92Z"/><path class="cls-2" d="M144.2,89.9,145.41,88C144.21,88.11,142.66,88,144.2,89.9Z"/><path class="cls-5" d="M101.2,121.95q0,.48,0,1C101.93,122.58,102,122.26,101.2,121.95Z"/><path class="cls-2" d="M146.19,152.94l-.8,1.95c.94,1.55,2-1.18,3,.08,1-.23,3,.22,2.39-1.46C149.86,151,147.85,152.16,146.19,152.94Z"/><path class="cls-13" d="M96.21,91.93c-4.54-1.26-8.74-.24-13.06,1.38-3.43,1.29-.59,4.89-3,6.28l8.1-.72c1.07-.44,2.24-1.56,2.93.45l6.2.89C97.82,97.33,94.53,95,96.21,91.93Z"/><path class="cls-14" d="M102.18,92.92c-1.48.18,1.62,2.19-.83,2.05-.88,0-2,.68-2.07-1-.08-2.12-1.54-2.12-3.06-2.08-1.68,3.06,1.61,5.4,1.19,8.28l.25-.25a1.82,1.82,0,0,1,1.51,1.49l.82.68c.86-4.55,4.65-2.54,7.23-3.23C106.4,96.17,105.59,93.45,102.18,92.92Z"/><path class="cls-12" d="M107.22,98.89c-2.58.69-6.37-1.32-7.23,3.23l2.22,1.83c2.71-.53,6,2.61,8.18-1.2C109,101.71,109.34,99.3,107.22,98.89Z"/><path class="cls-15" d="M88.27,98.87a1.81,1.81,0,0,0,2.93.45C90.51,97.31,89.34,98.43,88.27,98.87Z"/><path class="cls-5" d="M100.23,117.94l.07-.07-.11,0Z"/><path class="cls-5" d="M101.07,117.12l-.78.75,1.15-.24Z"/><path class="cls-13" d="M97.66,100l1.51,1.49A1.82,1.82,0,0,0,97.66,100Z"/><path class="cls-3" d="M104.82,181.31c-.08.23.52,1,.8,1a2.45,2.45,0,0,0,2.65-2.33l-.13-.14C106.88,180,105.37,179.68,104.82,181.31Z"/><path class="cls-10" d="M82.12,182.69c.11,0,.17-.24.25-.37l-2.16-.4A1.55,1.55,0,0,0,82.12,182.69Z"/><polygon class="cls-10" points="80.21 181.91 80.21 181.91 80.21 181.91 80.21 181.91"/><path class="cls-4" d="M108,88a4.2,4.2,0,0,1-.79-.13c-3.54-.21-5.62-3.8-9.18-3.95a3.07,3.07,0,0,0-3.26,1.33c1.11,1.41,4.12-.27,4.48,2.32.31,1.67,3.4,1,2.87,3.36q0,1,0,2c3.41.53,4.23,3.25,5,6,2.12.42,1.81,2.83,3.17,3.86a2.15,2.15,0,0,0,.95-.15,20.74,20.74,0,0,0-6-13.56C105.86,88.48,107.5,89.39,108,88Z"/><path class="cls-2" d="M113.23,92.93c-.14.72-.1,1.59-1.22,1.51a.46.46,0,0,1-.31-.31c-.09-1.1.75-1.11,1.49-1.24-.19-.75,2.25-1,.46-2S109.9,89,108,88c-.53,1.4-2.17.49-2.65,1.06a20.74,20.74,0,0,1,6,13.56l5.73,1.64c.63-1.43-3.09-3,.14-4.34C117.5,96.66,115.2,94.89,113.23,92.93Z"/><path class="cls-10" d="M94.8,85.25a3.07,3.07,0,0,1,3.26-1.33q0-.53,0-1.06c-1.17-1.66-2.39-3.24-4.77-3L92,81c-1.53,3.52.2,5.66,3.08,7.33l4.18-.76C98.93,85,95.92,86.65,94.8,85.25Z"/><path class="cls-15" d="M90.47,70.61c1,3.39-.19,7.12,1.56,10.4l1.29-1.11L92.07,71Z"/><path class="cls-14" d="M99.29,87.57l-4.18.76c1.65,2.76,4.84,1.36,7.05,2.59C102.69,88.53,99.59,89.24,99.29,87.57Z"/><path class="cls-4" d="M75.19,88.72a2,2,0,0,0,2.36-1.38C76.14,86.73,75.41,87.29,75.19,88.72Z"/><path class="cls-2" d="M107.19,76.94l-1,0c-3.53,3.12-1.07-2.7-3-2-1.8,1.56-3.83,2.86-2.64,5.93,1,2.51-1.21,1.9-2.51,2q0,.53,0,1.06c3.56.15,5.64,3.74,9.18,3.95l0-1.94c-2.53-.68-3.76-2.64-1.25-3.9C109.09,80.45,107.06,78.65,107.19,76.94Z"/><path class="cls-5" d="M116.29,74.51c-.17-.58.15-2.23-1-1.42s-2.95.16-3.39,2.79,1.29,3.88,2.14,5.46c.4.75,3.23-.21,3.58-2.11.22-1.17,1.27-1.44,1.6-2.34a7,7,0,0,0-.16-.95C118,75.83,116.74,76,116.29,74.51Z"/><path class="cls-3" d="M127.46,86c-.05.34-.1.68-.16,1q0,.93,0,1.86t.12,1.9l1.87,3c2.92-1.06,3-3.67,2.78-6C131.77,84.79,129.95,84.23,127.46,86Z"/><path class="cls-2" d="M126,87.71c.05.44.85.78,1.32,1.17q0-.93,0-1.86C126.73,87,125.85,86.81,126,87.71Z"/><path class="cls-11" d="M138.1,94.88c-1.46-.1-3.22-1.23-3.93,1.17.59,3.25,3.75,4,5.81,6C138,99.94,142.33,96.32,138.1,94.88Z"/><path class="cls-6" d="M136.91,87a21.67,21.67,0,0,1-2.69-1.11c-1.12,3.74,2.18,5,4,7C140.58,90.34,141.21,88.16,136.91,87Z"/><path class="cls-11" d="M134.23,81.91q0-.49,0-1C133.46,81.3,133.57,81.62,134.23,81.91Z"/><path class="cls-10" d="M96.13,78.16l.1.49.35-.13c0-.1,0-.25-.08-.29A1,1,0,0,0,96.13,78.16Z"/><path class="cls-11" d="M137.21,79.92h0l-.42-.21Z"/><path class="cls-11" d="M125.24,246.9l-.41-.17.38.2Z"/><path class="cls-4" d="M143.2,157.66c-.15-.09-.46.09-.7.15.12.25.17.61.37.72s.5-.09.77-.16C143.5,158.12,143.41,157.79,143.2,157.66Z"/><path class="cls-2" d="M132.07,97.86l-2.82,0c0,1.89.19,4.26,2.66,3.68S131.67,99.14,132.07,97.86Z"/><path class="cls-5" d="M111.7,94.13a.46.46,0,0,0,.31.31c1.11.08,1.08-.79,1.22-1.51l0,0C112.45,93,111.61,93,111.7,94.13Z"/></g></g></svg>