<?xml version="1.0" encoding="utf-8"?>
<!-- Generator: Adobe Illustrator 20.0.0, SVG Export Plug-In . SVG Version: 6.00 Build 0)  -->
<svg version="1.1" id="Layer_1" xmlns="http://www.w3.org/2000/svg" xmlns:xlink="http://www.w3.org/1999/xlink" x="0px" y="0px"
	 viewBox="0 0 63.9 62.7" style="enable-background:new 0 0 63.9 62.7;" xml:space="preserve">
<style type="text/css">
	.st0{fill:none;stroke:#000000;stroke-width:2;stroke-miterlimit:10;}
</style>
<title>chipped-6</title>
<g id="Layer_2">
	<g id="Layer_1-2">
		<g id="Layer_2-2">
			<g id="Layer_1-2-2">
				<path d="M63.9,29v-2.3H53.4v-5.8h10.5v-2.3H53.4v-3.5c0-3.2-2.6-5.8-5.8-5.8h-1.2V0h-2.3v9.3h-7V0h-2.3v9.3h-7V0h-2.3v9.3h-7V0
					h-2.3v9.3h-1.2c-3.2,0-5.8,2.6-5.8,5.8v3.5H0v2.3h9.3v5.8H0V29h9.3v5.8H0v2.3h9.3v5.8H0v2.4h9.3v2.3c0,3.2,2.6,5.8,5.8,5.8h1.2
					v9.3h2.3v-9.3h7v9.3h2.3v-9.3h7v9.3h2.3v-9.3h7v9.3h2.3v-9.3h1.2c3.2,0,5.8-2.6,5.8-5.8l0,0v-2.3h10.4V43H53.4v-5.8h10.5v-2.4
					H53.4V29H63.9z M51.1,47.6L51.1,47.6c0,1.9-1.6,3.5-3.5,3.5H15.1c-1.9,0-3.5-1.6-3.5-3.5l0,0V15.1c0-1.9,1.6-3.5,3.5-3.5h32.6
					c1.9,0,3.5,1.6,3.5,3.5l0,0L51.1,47.6z"/>
				<path class="st0" d="M44,31.1c0-0.3-0.2-0.5-0.4-0.6l-5.9-2.4l-0.1-0.7c0-0.2-0.2-0.4-0.4-0.5l-4.6-2c0.1-1,0.1-2,0-2.9
					c-0.2-1.4-0.7-2.8-1.3-4.1c-0.2-0.3-0.6-0.5-0.9-0.3l0,0l-0.1,0.1c-0.6,0.4-1,0.9-1.5,1.5c-0.4-0.6-0.8-1.1-1.3-1.6
					c-0.3-0.2-0.7-0.2-0.9,0c0,0,0,0-0.1,0.1c-1,1.6-1.8,3.3-2.4,5.1c-0.7,2.3-0.7,4.7-0.1,7c-2.7,2.6-4.2,6.2-4.2,10
					c0,0.3,0.2,0.5,0.4,0.6l11,4.9c0.3,0.2,0.7,0,0.9-0.3l0,0c0.1-0.2,0.1-0.3,0-0.5c-0.5-1.3-1.5-5.2-0.4-6.7
					c0.4-0.5,1-0.7,1.6-0.7c1.1,0,2,0.8,2,1.8l0,0c0,0.3,0.3,0.6,0.7,0.6c0.9,0,1.7-0.1,2.5-0.3l0.3,0.7c0.1,0.3,0.5,0.5,0.9,0.4
					l0,0c1.7-0.7,3-2.3,3.2-4.1c0.1-0.8,0.1-1.6-0.1-2.4C43.6,33.1,44.1,32.1,44,31.1z M34.9,30c-0.2,0.2-0.4,0.3-0.6,0.3l0,0
					c-0.5,0-0.9-0.4-0.9-0.8s0.4-0.9,0.8-0.9c0.5,0,0.9,0.4,0.9,0.8c0,0,0,0,0,0l0,0C35.2,29.6,35.1,29.8,34.9,30L34.9,30z"/>
			</g>
		</g>
	</g>
</g>
</svg>
