<?xml version="1.0" encoding="utf-8"?>
<!-- Generator: Adobe Illustrator 20.0.0, SVG Export Plug-In . SVG Version: 6.00 Build 0)  -->
<svg version="1.1" id="Layer_1" xmlns="http://www.w3.org/2000/svg" xmlns:xlink="http://www.w3.org/1999/xlink" x="0px" y="0px"
	 viewBox="0 0 63.9 62.7" style="enable-background:new 0 0 63.9 62.7;" xml:space="preserve">
<style type="text/css">
	.st0{stroke:#000000;stroke-width:0.5;stroke-miterlimit:10;}
</style>
<title>chipped-6</title>
<g id="Layer_2">
	<g id="Layer_1-2">
		<g id="Layer_2-2">
			<g id="Layer_1-2-2">
				<path d="M63.8,28.6v-2.3H53.3v-5.8h10.5v-2.3H53.3v-3.5c0-3.2-2.6-5.8-5.8-5.8h-1.2v-9.3h-2.3v9.3h-7v-9.3h-2.3v9.3h-7v-9.3
					h-2.3v9.3h-7v-9.3h-2.3v9.3H15c-3.2,0-5.8,2.6-5.8,5.8v3.5h-9.3v2.3h9.3v5.8h-9.3v2.3h9.3v5.8h-9.3v2.3h9.3v5.8h-9.3v2.4h9.3
					v2.3c0,3.2,2.6,5.8,5.8,5.8h1.2v9.3h2.3V53h7v9.3h2.3V53h7v9.3h2.3V53h7v9.3h2.3V53h1.2c3.2,0,5.8-2.6,5.8-5.8l0,0v-2.3h10.4
					v-2.3H53.3v-5.8h10.5v-2.4H53.3v-5.8H63.8z M51,47.2L51,47.2c0,1.9-1.6,3.5-3.5,3.5H15c-1.9,0-3.5-1.6-3.5-3.5l0,0V14.6
					c0-1.9,1.6-3.5,3.5-3.5h32.6c1.9,0,3.5,1.6,3.5,3.5l0,0L51,47.2z"/>
				<path class="st0" d="M31.3,12.7c-0.2,0-0.4,0.1-0.5,0.2c-0.1,0-0.1,0.1-0.1,0.2c-0.1,0.1-0.1,0.1-0.1,0.2
					c-0.1,0.1-0.1,0.3-0.2,0.5c-0.2,0.4-0.4,1-0.7,1.6c-0.6,1.4-1.4,2.7-2.5,3.7l0,0c-1.1,1.1-1.7,2.5-1.8,4
					c-1.8,1.3-3.6,2.8-5.3,4.3l0,0c-2.2,1.9-4.4,4-6.4,6.1c-0.3,0.3-0.3,0.7-0.1,1c0.3,0.3,0.7,0.3,1,0.1l0,0l0.1-0.1
					c2-2.1,4.1-4.1,6.2-5.9h0c2.5-2.3,5.4-4.4,5.4-4.4c0.2-0.1,0.3-0.4,0.3-0.6c0.1-1.3,0.6-2.5,1.5-3.4c1.2-1.2,2.1-2.6,2.8-4.2
					c0.2-0.4,0.3-0.7,0.5-1.1c0.1,0.2,0.2,0.4,0.3,0.6c0.4,1,0.7,2.1,0.8,3.2c-0.1,0.2-0.1,0.5,0,0.7v0.2c0,1.2,0,2.4,0.2,3.6
					c0.1,0.3,0.3,0.5,0.6,0.6c1.9,0.5,3.8,1.2,5.6,2.1c0.7,0.4,1.2,1,1.5,1.7c0.1,0.3,0.2,0.6,0.3,0.9c0.1,0.4,0.4,0.7,0.7,0.9
					c2.1,1.1,4,2.6,5.6,4.4c0.1,0.1,0.2,0.2,0.3,0.2c0.4,0.2,0.9,0.4,1.2,0.7c0.2,0.2,0.3,0.3,0.3,0.4c0,0.1,0,0.2-0.2,0.4
					c-0.3,0.3-0.6,0.5-1,0.7c-0.1,0.1-0.2,0.1-0.2,0.2c-1,1.5-2.3,2.8-3.7,3.9l0,0c-0.3,0.3-0.8,0.5-1.2,0.5c-0.7,0-1.5-0.2-2.1-0.5
					l0,0c-2.3-1-5.3-2-7.8-2c-1.6,0-3,0.8-3.9,2.1c-0.9,1.3-1.4,2.8-1.4,4.4c0,0.9-0.1,3.6-0.1,3.6c0,0.4,0.3,0.7,0.7,0.7
					c0.4,0,0.7-0.3,0.7-0.7c0,0,0.1-2.7,0.1-3.7c0-1.2,0.4-2.4,1.1-3.4c0.6-0.9,1.6-1.5,2.7-1.5c2.2,0,5.1,0.9,7.3,1.9l0,0
					c0.9,0.4,1.9,0.6,2.8,0.6c0.7-0.1,1.4-0.4,2-0.8l0,0c1.5-1.1,2.9-2.5,3.9-4.1c0.5-0.2,0.9-0.6,1.2-0.9c0.4-0.4,0.6-0.9,0.5-1.5
					c-0.1-0.5-0.4-1-0.8-1.4c-0.4-0.3-0.9-0.6-1.5-0.8c-1.7-1.9-3.7-3.4-6-4.6c0-0.1-0.1-0.1-0.1-0.2c-0.1-0.2-0.2-0.5-0.3-0.9
					c-0.4-1.1-1.1-2-2.1-2.5c-0.8-0.4-1.7-0.8-2.6-1.1c0.4-0.9,0.7-1.8,0.8-2.8l0,0c0.1-1.5,0.1-2.9-0.1-4.4
					c-0.1-0.4-0.2-0.9-0.3-1.3c0-0.2-0.1-0.3-0.2-0.4c0-0.1-0.1-0.2-0.1-0.3C37,14.1,36.8,14,36.5,14c-0.2,0-0.3,0-0.4,0.1
					c0,0-0.1,0.1-0.1,0.1c-0.1,0.1-0.1,0.1-0.2,0.2c-0.1,0.1-0.2,0.3-0.4,0.5c-0.3,0.4-0.6,0.9-1,1.4L33.8,17
					c-0.2-0.7-0.4-1.5-0.7-2.2c-0.2-0.5-0.4-1-0.7-1.4c-0.1-0.2-0.2-0.3-0.3-0.4c-0.1-0.1-0.1-0.1-0.2-0.2
					C31.7,12.7,31.5,12.6,31.3,12.7z M36.2,16.2c0,0.1,0,0.1,0,0.2c0.2,1.3,0.2,2.7,0.1,4l0,0c-0.1,0.8-0.4,1.7-0.7,2.4
					c-0.6-0.2-1.2-0.3-1.5-0.4c-0.1-1-0.1-2-0.1-3c0-0.1,0-0.2,0-0.4l0,0c0.1-0.2,0.3-0.3,0.4-0.6c0.3-0.4,0.7-0.9,1.1-1.5
					L36.2,16.2L36.2,16.2z M37.8,28c-0.8,0-1.5,0.7-1.5,1.5s0.7,1.5,1.5,1.5c0.8,0,1.5-0.7,1.5-1.5S38.6,28,37.8,28z"/>
			</g>
		</g>
	</g>
</g>
</svg>
