<svg xmlns="http://www.w3.org/2000/svg" viewBox="0 0 445.64 445.64"><defs><style>.cls-1{fill:none;stroke:#fff;stroke-miterlimit:10;stroke-width:10px;}.cls-2{fill:#fff;}</style></defs><title>Asset 8</title><g id="Layer_2" data-name="Layer 2"><g id="Capa_1" data-name="Capa 1"><circle cx="222.82" cy="222.82" r="222.82"/><path class="cls-1" d="M360.32,212.82v-10h-45v-25h45v-10h-45v-15a25,25,0,0,0-25-25h-5v-40h-10v40h-30v-40h-10v40h-30v-40h-10v40h-30v-40h-10v40h-5a25,25,0,0,0-25,25v15h-40v10h40v25h-40v10h40v25h-40v10h40v25h-40v10h40v10a25,25,0,0,0,25,25h5v40h10v-40h30v40h10v-40h30v40h10v-40h30v40h10v-40h5a25,25,0,0,0,25-25v-10h45v-10h-45v-25h45v-10h-45v-25Zm-55,80h0a15,15,0,0,1-15,15H150.27a15,15,0,0,1-15-15V152.77a15,15,0,0,1,15-15h140.1a15,15,0,0,1,15,15Z"/><path class="cls-2" d="M274.93,221.65a2.86,2.86,0,0,0-1.77-2.53l-25.48-10.45-.57-2.94a2.86,2.86,0,0,0-1.65-2.07L225.79,195a45.77,45.77,0,0,0-.26-12.52A61.35,61.35,0,0,0,220,164.94a2.86,2.86,0,0,0-4.24-1,29.41,29.41,0,0,0-6.27,6.36,37.55,37.55,0,0,0-5.67-7,2.86,2.86,0,0,0-4.33.42,80.65,80.65,0,0,0-10.11,21.95c-3.15,11-3.24,21.23-.37,30.3a61.46,61.46,0,0,0-18.36,43,2.86,2.86,0,0,0,1.7,2.65l47.42,21.11a2.86,2.86,0,0,0,3.85-3.59c-2.09-5.77-6.47-22.21-1.73-29,1.41-2,3.63-3,6.78-3a8.37,8.37,0,0,1,8.76,7.8,2.86,2.86,0,0,0,2.85,2.65,38.08,38.08,0,0,0,10.83-1.42l1.25,2.94a2.86,2.86,0,0,0,3.82,1.48C266,256.27,269,248.62,269.88,243a29.29,29.29,0,0,0-.37-10.31C273.63,230.14,275.08,225.22,274.93,221.65Zm-39.29-4.84a3.66,3.66,0,0,1-2.56,1.18h-.15a3.68,3.68,0,1,1,2.71-1.18Z"/></g></g></svg>