<svg xmlns="http://www.w3.org/2000/svg" viewBox="0 0 408.73 401.48"><defs><style>.cls-1{stroke:#000;stroke-miterlimit:10;stroke-width:10px;}</style></defs><title>chipped-2</title><g id="Layer_2" data-name="Layer 2"><g id="Layer_1-2" data-name="Layer 1"><path class="cls-1" d="M403.73,186.24v-14.5H338.49V135.49h65.25V121H338.49V99.25A36.25,36.25,0,0,0,302.24,63H295V5h-14.5V63H237V5h-14.5V63H179V5h-14.5V63H121V5H106.5V63H99.25A36.25,36.25,0,0,0,63,99.25V121H5v14.5H63v36.25H5v14.5H63v36.25H5V237H63v36.25H5v14.5H63v14.5a36.25,36.25,0,0,0,36.25,36.25h7.25v58H121v-58h43.5v58H179v-58h43.5v58H237v-58h43.5v58H295v-58h7.25a36.25,36.25,0,0,0,36.25-36.25v-14.5h65.25v-14.5H338.49V237h65.25v-14.5H338.49V186.24ZM324,302.24h0A21.75,21.75,0,0,1,302.24,324H99.17a21.75,21.75,0,0,1-21.75-21.75h0V99.17A21.75,21.75,0,0,1,99.17,77.42H302.31a21.75,21.75,0,0,1,21.75,21.75h0Z"/><path d="M279.92,199a4.15,4.15,0,0,0-2.57-3.67l-36.94-15.15-.83-4.26a4.15,4.15,0,0,0-2.39-3L208.67,160.4a66.36,66.36,0,0,0-.38-18.15,89,89,0,0,0-8-25.43,4.15,4.15,0,0,0-6.15-1.45,42.64,42.64,0,0,0-9.09,9.22,54.44,54.44,0,0,0-8.22-10.15,4.15,4.15,0,0,0-6.28.61,116.94,116.94,0,0,0-14.66,31.83c-4.57,15.95-4.7,30.78-.54,43.93a89.11,89.11,0,0,0-26.62,62.35,4.15,4.15,0,0,0,2.46,3.84l68.76,30.61a4.15,4.15,0,0,0,5.58-5.21c-3-8.37-9.38-32.2-2.51-42,2-2.9,5.26-4.35,9.83-4.35a12.14,12.14,0,0,1,12.7,11.31,4.15,4.15,0,0,0,4.13,3.84,55.21,55.21,0,0,0,15.7-2.06l1.81,4.26a4.15,4.15,0,0,0,5.44,2.19l.1,0c14.24-6.26,18.59-17.36,19.86-25.5a42.47,42.47,0,0,0-.54-14.95C278,211.36,280.14,204.22,279.92,199Zm-57-7a5.31,5.31,0,0,1-3.71,1.71H219A5.34,5.34,0,1,1,223,192Z"/></g></g></svg>