<svg xmlns="http://www.w3.org/2000/svg" viewBox="0 0 445.64 445.64"><defs><style>.cls-1{fill:#fff;}.cls-2{fill:none;stroke:#fff;stroke-miterlimit:10;stroke-width:40px;}</style></defs><title>Asset 9</title><g id="Layer_2" data-name="Layer 2"><g id="Capa_1" data-name="Capa 1"><circle cx="222.82" cy="222.82" r="222.82"/><path class="cls-1" d="M211.64,282.14a95.57,95.57,0,0,0,16-8.45,109.77,109.77,0,0,1-43.07-25,56,56,0,0,1-30.59-107,56,56,0,0,1,77.15,49.15,57,57,0,0,1-.1,6.94l.12.13a41.34,41.34,0,0,0,38.68,10.5,95.76,95.76,0,1,0-107.33,80l1.66,35-6.89-6.28a17.23,17.23,0,1,0-23.18,25.49l38.62,35.12a17.21,17.21,0,0,0,24.33-1.15l33.37-36.69A17.22,17.22,0,1,0,205,316.72l-6.27,6.89-1.75-36.8A94.68,94.68,0,0,0,211.64,282.14Z"/><path class="cls-1" d="M391.51,219.41a17.22,17.22,0,0,0-24.35.31l-14.42,14.8-13.18-12.83a95.75,95.75,0,0,0-115.85-142,81.18,81.18,0,0,0-17.66,9.64c16.21,2.91,30.12,10.4,43.3,24.13,18.19-4,36.19,1.48,49.83,14.77a56,56,0,1,1-95,42.46c0-.56,0-1.12-.05-1.7a57.41,57.41,0,0,1,.63-8.74A55.26,55.26,0,0,0,168.55,149c-.78,0-1.52.22-2.28.29a95.83,95.83,0,0,0-1.91,20.17c0,.36,0,.7,0,1.06a95.51,95.51,0,0,0,151.11,75.77l13.2,12.85L314.25,274a17.22,17.22,0,1,0,24.66,24l14.42-14.8L366,295.51A17.22,17.22,0,0,0,390,270.85l-12.62-12.29,14.44-14.8A17.19,17.19,0,0,0,391.51,219.41Z"/><line class="cls-2" x1="35.77" y1="352.84" x2="409.88" y2="92.8"/></g></g></svg>