<svg xmlns="http://www.w3.org/2000/svg" viewBox="0 0 66.8 66.8"><defs><style>.cls-1{fill:none;stroke:#000;stroke-miterlimit:10;stroke-width:2px;}</style></defs><title>desex</title><g id="Layer_2" data-name="Layer 2"><g id="Layer_1-2" data-name="Layer 1"><line class="cls-1" x1="5.88" y1="14.43" x2="60.92" y2="52.39"/><circle class="cls-1" cx="33.4" cy="33.4" r="32.4"/><path d="M51,21.82h2.48l0-7.85-7.85,0v2.48h3.62l-4.85,4.85a12.17,12.17,0,0,0-7.75-2.76,12.33,12.33,0,0,0-5.52,1.3A12.26,12.26,0,1,0,24.35,43v3.94H20.91v2.48h3.44v3.42h2.48V49.39h3.44V46.91H26.83V43a12.13,12.13,0,0,0,4.25-1.24A12.28,12.28,0,0,0,36.6,43,12.26,12.26,0,0,0,46.1,23l4.85-4.85ZM25.6,40.59a9.78,9.78,0,1,1,3-19.06c-.24.2-.46.41-.67.63a12.26,12.26,0,0,0,0,17.34c.22.22.44.42.67.63A10,10,0,0,1,25.6,40.59Zm9.79-9.79a9.79,9.79,0,0,1-4.27,8.08,9,9,0,0,1-1.4-1.16,9.78,9.78,0,0,1,0-13.82,10.75,10.75,0,0,1,1.4-1.16A9.81,9.81,0,0,1,35.39,30.8Zm8.14,6.92a9.71,9.71,0,0,1-6.92,2.87,9.44,9.44,0,0,1-3-.49,12.25,12.25,0,0,0,0-18.61,9.89,9.89,0,0,1,3-.49,9.79,9.79,0,0,1,6.92,16.71Z"/></g></g></svg>