<svg xmlns="http://www.w3.org/2000/svg" viewBox="0 0 65.98 65.98"><defs><style>.cls-1{fill:none;stroke:#000;stroke-miterlimit:10;stroke-width:2px;}</style></defs><title>destr</title><g id="Layer_2" data-name="Layer 2"><g id="Layer_1-2" data-name="Layer 1"><g id="Layer_2-2" data-name="Layer 2"><g id="Layer_1-2-2" data-name="Layer 1-2"><line class="cls-1" x1="6.02" y1="14.26" x2="60.37" y2="51.74"/><circle class="cls-1" cx="32.99" cy="32.99" r="31.99"/><path d="M32.2,7.82a1,1,0,0,0-.7.29,1,1,0,0,0-.19.22,2.32,2.32,0,0,0-.19.31c-.1.2-.17.44-.29.73-.23.57-.53,1.33-.92,2.18a17.43,17.43,0,0,1-3.38,5.15s0,0,0,0a8.24,8.24,0,0,0-2.43,5.5,92.18,92.18,0,0,0-7.3,5.94l0,0A113.58,113.58,0,0,0,8,36.54a1,1,0,1,0,1.32,1.53l.13-.14a115.22,115.22,0,0,1,8.59-8.18l.06,0c3.48-3.19,7.49-6.11,7.49-6.11a1,1,0,0,0,.41-.82A7.4,7.4,0,0,1,28,18.14a18.88,18.88,0,0,0,3.79-5.78c.28-.61.44-1,.63-1.52a9.27,9.27,0,0,1,.44.82A14.06,14.06,0,0,1,34,16,1,1,0,0,0,34,17v.22a36.45,36.45,0,0,0,.22,5A1,1,0,0,0,35,23a46.11,46.11,0,0,1,7.65,2.84,4,4,0,0,1,2,2.37c.15.42.27.85.44,1.3a2.28,2.28,0,0,0,1,1.3,29.67,29.67,0,0,1,7.71,6,1,1,0,0,0,.41.29,6.1,6.1,0,0,1,1.7.95c.32.28.37.48.38.57s0,.22-.25.51a5,5,0,0,1-1.36,1,1,1,0,0,0-.31.31,19.65,19.65,0,0,1-5.15,5.34h0a3,3,0,0,1-1.67.73,6.69,6.69,0,0,1-2.94-.66h0c-3.11-1.35-7.3-2.72-10.8-2.72a6.66,6.66,0,0,0-5.37,2.88,10.29,10.29,0,0,0-1.89,6c0,1.26-.09,5-.09,5a1,1,0,0,0,2,.06s.09-3.72.09-5.09A8.36,8.36,0,0,1,30,47.27a4.57,4.57,0,0,1,3.76-2.05c3,0,7.06,1.28,10,2.56h0a8.4,8.4,0,0,0,3.92.79,5.19,5.19,0,0,0,2.75-1.14h0a23.15,23.15,0,0,0,5.4-5.65,6.61,6.61,0,0,0,1.7-1.3,2.73,2.73,0,0,0,.73-2,2.91,2.91,0,0,0-1.07-1.89,7.82,7.82,0,0,0-2-1.14A31.34,31.34,0,0,0,47,29.07a1,1,0,0,1-.13-.25c-.1-.27-.22-.73-.41-1.26a6.25,6.25,0,0,0-2.88-3.44,22.44,22.44,0,0,0-3.51-1.55,12.51,12.51,0,0,0,1.07-3.82v0a25.56,25.56,0,0,0-.15-6,12.38,12.38,0,0,0-.38-1.8,3.41,3.41,0,0,0-.25-.6A1.39,1.39,0,0,0,40.2,10a.94.94,0,0,0-.79-.38.93.93,0,0,0-.6.15,1.23,1.23,0,0,0-.19.15,2.56,2.56,0,0,0-.22.25c-.15.18-.34.4-.54.66-.4.52-.89,1.17-1.39,1.86l-.82,1.14a16.64,16.64,0,0,0-1-3,12.94,12.94,0,0,0-1-1.93,5.46,5.46,0,0,0-.44-.6,2,2,0,0,0-.25-.25A.86.86,0,0,0,32.2,7.82ZM39,12.75c0,.13,0,.18.06.31a23.91,23.91,0,0,1,.13,5.47v0a10.84,10.84,0,0,1-1,3.35c-.86-.26-1.62-.48-2-.57a27.86,27.86,0,0,1-.15-4.11c0-.17,0-.34,0-.51l.06-.06c.17-.21.35-.46.57-.76.43-.57,1-1.27,1.45-2l.88-1.2Zm2.12,16.2a2,2,0,1,0,2,2,2,2,0,0,0-2-2Z"/></g></g></g></g></svg>