<svg xmlns="http://www.w3.org/2000/svg" viewBox="0 0 445.64 445.64"><defs><style>.cls-1{fill:#fff;}</style></defs><title>Asset 1</title><g id="Layer_2" data-name="Layer 2"><g id="Capa_1" data-name="Capa 1"><circle cx="222.82" cy="222.82" r="222.82"/><path class="cls-1" d="M170.25,234.87a12.74,12.74,0,1,0-12.73-12.73A12.75,12.75,0,0,0,170.25,234.87Zm0-16.05a3.32,3.32,0,1,1-3.32,3.32A3.32,3.32,0,0,1,170.25,218.82Z"/><path class="cls-1" d="M222.14,157.51a12.74,12.74,0,1,0,12.74,12.74A12.75,12.75,0,0,0,222.14,157.51Zm0,16.05a3.32,3.32,0,1,1,3.32-3.32A3.32,3.32,0,0,1,222.14,173.56Z"/><path class="cls-1" d="M384.23,141.74a16.35,16.35,0,0,0-4.79-11.58A80.33,80.33,0,0,0,254,75.82l-.14.1a18,18,0,0,1-7.4,3l-38,6a21.49,21.49,0,0,0-18.25,21.33V137h-3.31a14.51,14.51,0,0,0-27.46,0H147.31A10.28,10.28,0,0,0,137,147.31v12.15a14.51,14.51,0,0,0,0,27.46v3.31H106.2a21.49,21.49,0,0,0-21.33,18.25l-6,38a18,18,0,0,1-3,7.39l-.11.15a80.18,80.18,0,0,0,54.35,125.41,16.38,16.38,0,0,0,23.14,0A80.35,80.35,0,0,0,222.08,300c0-18.85-9.1-39.28-18.69-52.32a10.84,10.84,0,0,0,.53-5.38l-5.3-33.77a21.49,21.49,0,0,0-21.33-18.25H146.45v-3.31a14.51,14.51,0,0,0,0-27.46V147.31a.85.85,0,0,1,.85-.85h12.15a14.51,14.51,0,0,0,27.46,0h3.31v30.83a21.49,21.49,0,0,0,18.25,21.33l33.78,5.3a11,11,0,0,0,1.7.13,10.79,10.79,0,0,0,3.69-.65c13,9.59,33.47,18.68,52.31,18.68a80.36,80.36,0,0,0,79.5-68.77A16.35,16.35,0,0,0,384.23,141.74ZM193.21,300a51.47,51.47,0,1,1-51.47-51.47A51.53,51.53,0,0,1,193.21,300Zm-51.47,74.86a7,7,0,1,1,7-7A7,7,0,0,1,141.75,374.81Zm16.36-5.87c0-.37,0-.74,0-1.12a16.3,16.3,0,0,0-2.45-8.62,60.84,60.84,0,0,0,23.66-107.08c3.67.63,7.32,1.37,10.78,2.23a11,11,0,0,0,3.05.44,10.77,10.77,0,0,0,3.36-.54c8.16,11.53,16.1,29.57,16.1,45.69A71,71,0,0,1,158.11,368.95Zm31.2-159,5.3,33.77a1.36,1.36,0,0,1-.35,1.18,1.41,1.41,0,0,1-1.51.42l-.22-.06c-16.91-4.25-49.24-6.18-50.78-6.18a60.88,60.88,0,0,0-14,120.14,16.3,16.3,0,0,0-2.45,8.62c0,.38,0,.76,0,1.14A70.93,70.93,0,0,1,83.49,259.5l.08-.11h0A27.48,27.48,0,0,0,88.21,248l6-38a12.12,12.12,0,0,1,12-10.29h71.09A12.12,12.12,0,0,1,189.31,209.94ZM141.75,178.3a5.11,5.11,0,1,1,5.11-5.11A5.12,5.12,0,0,1,141.75,178.3Zm31.45-31.45a5.11,5.11,0,1,1,5.11-5.11A5.12,5.12,0,0,1,173.19,146.85Zm201.62-5.11a7,7,0,1,1-7-7A7,7,0,0,1,374.81,141.74Zm-131.1,52.86-33.77-5.3a12.12,12.12,0,0,1-10.29-12V106.2a12.12,12.12,0,0,1,10.29-12l38-6a27.48,27.48,0,0,0,11.43-4.64h0l.1-.07A70.77,70.77,0,0,1,369,125.38c-.38,0-.76,0-1.14,0a16.3,16.3,0,0,0-8.62,2.46,60.88,60.88,0,0,0-120.14,14c0,1.54,1.94,33.88,6.18,50.78l.06.22a1.55,1.55,0,0,1,.07.45,1.45,1.45,0,0,1-.51,1.08A1.34,1.34,0,0,1,243.71,194.61Zm4.78-52.86A51.47,51.47,0,1,1,300,193.21,51.53,51.53,0,0,1,248.49,141.74ZM300,212.66c-16.12,0-34.16-7.94-45.69-16.1a10.77,10.77,0,0,0,.54-3.36,11,11,0,0,0-.44-3.06c-.87-3.46-1.6-7.11-2.24-10.78A60.84,60.84,0,0,0,359.21,155.7a16.31,16.31,0,0,0,8.62,2.45c.38,0,.75,0,1.12,0A70.94,70.94,0,0,1,300,212.66Z"/></g></g></svg>