<svg xmlns="http://www.w3.org/2000/svg" viewBox="0 0 59 59"><title>paid-this-year</title><g id="Layer_2" data-name="Layer 2"><g id="Capa_1" data-name="Capa 1"><path d="M52,34.48V5a1,1,0,0,0-1-1H46V1a1,1,0,0,0-1-1H38a1,1,0,0,0-1,1V4H15V1a1,1,0,0,0-1-1H7A1,1,0,0,0,6,1V4H1A1,1,0,0,0,0,5V56a1,1,0,0,0,1,1H39.1A13,13,0,1,0,52,34.48ZM39,2h5V8H39V2ZM8,2h5V8H8V2ZM2,6H6V9a1,1,0,0,0,1,1h7a1,1,0,0,0,1-1V6H37V9a1,1,0,0,0,1,1h7a1,1,0,0,0,1-1V6h4v8H2ZM2,55V16H50V33.64l-.6-.17-.56-.14-.51-.1-.74-.11-.41,0C46.8,33,46.4,33,46,33s-.67,0-1,.05V21H7V50H33.64l.1.26c.08.24.17.49.27.72s.12.26.18.39.23.51.36.75l.18.32c.15.26.3.51.46.76l.19.27c.18.25.36.5.55.74l.22.26c.15.18.3.36.47.54H2ZM40.31,34.33l-.32.16-.55.31-.47.29-.46.31-.51.38-.4.32c-.17.15-.34.31-.51.46l-.35.33c-.18.18-.35.38-.52.57L36,37.7V32h7v1.36h0A12.91,12.91,0,0,0,40.31,34.33ZM33.57,42.2c0,.12-.06.23-.09.35-.08.29-.16.58-.22.88s-.07.47-.11.7-.06.38-.08.57c0,.43-.07.87-.07,1.3s0,.73.05,1.09c0,.07,0,.13,0,.2s0,.32.07.48h0c0,.08,0,.15,0,.23H27V41h7l0,.07C33.82,41.44,33.69,41.82,33.57,42.2ZM9,41h7v7H9Zm0-9h7v7H9Zm34-2H36V23h7Zm-9,0H27V23h7Zm0,9H27V32h7ZM18,32h7v7H18Zm7-2H18V23h7Zm-9,0H9V23h7Zm2,11h7v7H18ZM46,57a10.93,10.93,0,0,1-6.11-1.86,11.06,11.06,0,0,1-1-.74l-.31-.29c-.2-.18-.39-.36-.57-.55l-.34-.37c-.16-.19-.32-.38-.47-.58l-.29-.38a11.15,11.15,0,0,1-.62-1L36.21,51c-.15-.29-.28-.58-.4-.87-.05-.13-.1-.26-.15-.4s-.18-.53-.26-.8l0-.19a11.45,11.45,0,0,1-.26-1.31v-.09A10.4,10.4,0,0,1,35,46a10.84,10.84,0,0,1,.06-1.13s0-.06,0-.09c0-.34.09-.68.16-1l0-.1c.07-.33.16-.66.26-1l0-.11c.1-.31.22-.62.35-.93s.26-.57.4-.84l.1-.17.13-.21q.26-.44.56-.85l.15-.2q.27-.36.57-.69l.21-.23c.2-.21.4-.4.61-.6l.22-.2c.25-.21.51-.41.77-.6l.12-.09a10.93,10.93,0,0,1,4.41-1.79h0A10.92,10.92,0,0,1,46,35a10.67,10.67,0,0,1,1.16.06l.18,0c.33,0,.65.09,1,.16l.12,0c.34.08.69.17,1,.28l.07,0q.52.18,1,.41A11,11,0,0,1,46,57Z"/><path d="M47.39,51.88v1.44a.27.27,0,0,1-.27.27H45a.27.27,0,0,1-.27-.27V51.83A5.75,5.75,0,0,1,42,50.27l-.4-.43a.27.27,0,0,1,0-.38L43.09,48a.27.27,0,0,1,.38,0l.4.43a3.28,3.28,0,0,0,2.26.9c.67,0,1.79-.18,1.79-.83s-.24-.8-2-1.33c-1.49-.45-4-1.21-4-4a3.46,3.46,0,0,1,2.81-3.31V38.36a.27.27,0,0,1,.27-.27h2.07a.27.27,0,0,1,.27.27v1.4a6.29,6.29,0,0,1,2.43.87l.49.32a.27.27,0,0,1,.08.37l-1.13,1.74a.27.27,0,0,1-.37.08l-.49-.32a4,4,0,0,0-1.95-.52c-.7,0-1.88.19-1.88.91s.28,1,2.13,1.51c1.54.47,3.86,1.17,3.84,3.84C50.54,50.25,49.34,51.51,47.39,51.88Z"/></g></g></svg>