<svg xmlns="http://www.w3.org/2000/svg" viewBox="0 0 445.64 445.64"><defs><style>.cls-1{fill:#fff;}</style></defs><title>Asset 7</title><g id="Layer_2" data-name="Layer 2"><g id="Capa_1" data-name="Capa 1"><circle cx="222.82" cy="222.82" r="222.82"/><path class="cls-1" d="M319.64,221.4v-1c12.73-9,20.17-20,20.17-32.06V154.24c0-29.9-46.83-52.45-108.92-52.45S122,124.34,122,154.24v9.16c-13.16,8.82-20.17,19.55-20.17,31.18v34.08c0,13.3,9,25.35,24.21,34.73v25.78c0,30.66,47.85,54.67,108.92,54.67s108.92-24,108.92-54.67V255.1C343.85,242.25,335.43,230.65,319.64,221.4Zm16.14,33.7c0,25.79-47.13,48.41-100.86,48.41-2.32,0-4.62-.06-6.91-.14l-2-.08q-3-.13-6-.36c-1.28-.1-2.55-.22-3.82-.35l-1.68-.17c-33.19-3.57-61.42-15.54-73.77-30.66-.16-.2-.33-.4-.49-.61s-.35-.48-.53-.72a141.38,141.38,0,0,0,18.48,6.35c17.91,11.78,45.77,18.53,76.73,18.53,54.68,0,92.79-21.19,92.79-40.2,0-5.6-3.4-11.18-9.88-16.27.1-.29.18-.58.27-.87s.28-.84.4-1.25.25-1,.36-1.47.2-.85.28-1.27.15-1,.22-1.49.12-.86.16-1.29c0-.13,0-.25,0-.38C327.91,236.45,335.78,244.57,335.78,255.1Zm-84.19,55.82.36,0c2.32-.19,4.59-.43,6.86-.69l1.75-.21c2.24-.28,4.46-.58,6.64-.94v24.17c-5.22.84-10.61,1.5-16.14,1.93V311Zm23.68-3.35.67-.15c2.17-.46,4.32-.94,6.41-1.47l.81-.22c1.42-.36,2.82-.74,4.2-1.13v24.16q-5.82,1.68-12.1,3V307.56ZM295.44,302l.65-.23.9-.33c1.67-.6,3.3-1.23,4.9-1.88l1.36-.55.27-.11V323q-3.86,1.68-8.07,3.17V302Zm16.14-6.85c.69-.36,1.36-.73,2-1.09l1.17-.63c1.56-.87,3.07-1.77,4.52-2.69l.34-.21v23.5a77.66,77.66,0,0,1-8.07,5V295.18Zm-161.37-4.62c2.51,1.61,5.24,3.12,8.07,4.58v23.94a78.35,78.35,0,0,1-8.07-5ZM130,175.58l.21.23q1.34,1.68,2.88,3.3l.71.71q1.37,1.39,2.87,2.73c.24.21.46.43.71.64l.69.59v22.47c-5.18-5.55-8.07-11.62-8.07-17.94Zm21,17,1.17.63c.67.37,1.34.73,2,1.09v23.89a78.35,78.35,0,0,1-8.07-5V189.7l.34.21C148,190.83,149.48,191.73,151,192.6Zm12.9,6.14q2.4,1,4.9,1.88l.9.33.65.23V225.3q-4.21-1.49-8.07-3.17V198.07l.27.11C163,198.37,163.48,198.56,163.93,198.74Zm19.53,6.34c2.1.53,4.24,1,6.41,1.47l.67.15v24.17q-6.28-1.31-12.1-3V203.72c1.38.4,2.78.77,4.2,1.13ZM207,209.34c2.26.26,4.55.5,6.86.69l.36,0,.53,0v24.19c-5.53-.43-10.92-1.08-16.14-1.93V208.19c2.18.35,4.41.66,6.64.94Zm23.89,1.38c2.53,0,5-.06,7.53-.15H239v24.11c-2.69.1-5.36.25-8.07.25s-5.4-.07-8.07-.17v-24.2h.54C225.85,210.66,228.36,210.72,230.89,210.72Zm17-.69c2.32-.19,4.59-.43,6.86-.69l1.75-.21c2.24-.28,4.46-.58,6.64-.94v24.12c-1.52.24-3,.52-4.54.73l-2.42.33c-3,.37-6.09.63-9.17.87V210.1l.53,0Zm30.41-5,.81-.22c1.42-.36,2.82-.74,4.2-1.13v24.16l-1.56.44h0c-.9.25-1.82.5-2.74.74q-3.33.86-6.78,1.59l-1,.21V206.7l.67-.15C274.08,206.09,276.22,205.6,278.32,205.08ZM293,200.62c1.67-.6,3.3-1.23,4.9-1.88l1.36-.55.27-.11v24.06q-3.86,1.68-8.07,3.17V201.18l.65-.23Zm17.79-8c1.56-.87,3.07-1.77,4.52-2.69l.34-.21v23.5a77.66,77.66,0,0,1-8.07,5V194.32c.69-.36,1.36-.73,2-1.09ZM142.4,238.53l1.36.55q2.4,1,4.9,1.88l.9.33.65.23v24.13q-4.21-1.49-8.07-3.17V238.41Zm20.89,6.89c2.1.53,4.24,1,6.41,1.47l.67.15v24.17l-.69-.15q-3.25-.68-6.39-1.48c-1.71-.43-3.38-.89-5-1.36V244.07c1.38.4,2.78.77,4.2,1.13Zm23.54,4.26c2.26.26,4.55.5,6.86.69l.36,0,.53,0v24.14c-2.78-.21-5.54-.45-8.26-.77-1.32-.15-2.61-.34-3.91-.52s-2.64-.42-4-.63V248.53c2.18.35,4.41.66,6.64.94Zm23.89,1.38c2.71,0,5.39-.09,8.07-.2V275.1h-.25c-2.59.1-5.19.16-7.81.16s-5.38-.15-8.07-.25V250.9h.54C205.68,251,208.19,251.06,210.72,251.06Zm27.61,22.34c-1,.13-1.9.27-2.86.38q-3.13.38-6.32.65l-2.12.18h-.17V250.37c1.32-.1,2.66-.17,4-.29s2.63-.33,3.95-.49c1.94-.23,3.91-.44,5.82-.73.81-.12,1.59-.29,2.39-.42v24.26l-1,.17C240.76,273.06,239.55,273.23,238.33,273.4Zm15.89-27.17c1.69-.39,3.4-.75,5.05-1.18,1.32-.35,2.59-.76,3.88-1.13v24.31q-5.82,1.68-12.1,3V247C252.13,246.74,253.17,246.47,254.22,246.23Zm17-4.89.77-.28c1.48-.53,3-1,4.43-1.6,1-.39,1.9-.83,2.87-1.24v24.24q-3.86,1.68-8.07,3.17V241.35Zm16.14,17.21V235.3c2.78-.83,5.46-1.73,8.07-2.67v20.91A78.35,78.35,0,0,1,287.37,258.56Zm24.21-29.89a22.08,22.08,0,0,1-2,9l-.37.76a33.12,33.12,0,0,1-4.86,7.2c-.24.28-.47.56-.73.83l-.13.13v-17.2c2.82-1.25,5.52-2.58,8.07-4ZM126,230l.34.21q2.18,1.38,4.52,2.69l1.17.63c.67.37,1.34.73,2,1.09V255.1h-5.8q-1.17-.77-2.27-1.55Zm40.34,68.88q3.89,1.64,8.07,3.09v24.14q-4.21-1.49-8.07-3.17Zm16.14,5.63c3.91,1.12,7.92,2.14,12.1,3v24.17q-6.28-1.31-12.1-3ZM202.65,309c.63.1,1.28.18,1.92.27l2.91.41c1.52.21,3,.4,4.59.57s3.08.33,4.64.47l2.08.19v24.2c-5.53-.43-10.92-1.08-16.14-1.93Zm129.1-133.46v12.75c0,6.31-2.88,12.39-8.07,17.94V183.79l.69-.59.71-.64q1.51-1.34,2.87-2.73l.71-.71q1.54-1.62,2.88-3.3ZM230.89,109.86c56.56,0,100.86,19.49,100.86,44.38,0,25.79-47.13,48.41-100.86,48.41S130,180,130,154.24C130,129.36,174.33,109.86,230.89,109.86Zm-121,118.8V215.92l.21.23q1.34,1.68,2.88,3.3l.71.71q1.37,1.39,2.87,2.73c.24.21.46.43.71.64l.69.6V246.6C112.75,241,109.86,235,109.86,228.66Zm24.21,60.51V276.43a57,57,0,0,0,8.07,8.17v22.51C137,301.56,134.07,295.49,134.07,289.18Zm92.79,46.43v-24.2h.58c2.48.09,5,.15,7.48.15s5-.06,7.53-.15H243v24.2c-2.67.1-5.35.17-8.07.17S229.52,335.71,226.86,335.61Zm108.92-59.18v12.75c0,6.31-2.88,12.39-8.07,17.94V284.64l.69-.59.71-.64q1.51-1.34,2.87-2.73l.71-.71q1.54-1.62,2.88-3.3Z"/><path class="cls-1" d="M180.88,187.71l30.07-10.85,0-.42c-8.08-3.5-11.51-8.89-12.87-13.6a9.11,9.11,0,0,1-4.29-3.63,7.1,7.1,0,0,1-.67-5.74l.76-2.49c.81-2.61,3.13-4.84,6.36-6.18a24.2,24.2,0,0,1,4.12-5.58c.73-.73,1.32-1.27,1.8-1.71l.19-.17,0-.18a16.68,16.68,0,0,1-.23-2.72,4.55,4.55,0,0,1,4.78-4.41,4.81,4.81,0,0,1,2.89.92,10.7,10.7,0,0,0,2.5,1.16,31.46,31.46,0,0,0,11.51,1.36c.69,0,1.38,0,2.09,0,9.94,0,23.57,1.21,29.52,11.33,3.28,1.34,5.64,3.58,6.45,6.22l.76,2.49a7.1,7.1,0,0,1-.67,5.74,9.1,9.1,0,0,1-4.29,3.63c-1.36,4.72-4.79,10.1-12.87,13.6l0,.42,30.31,11.35c27.51-7.69,44.52-21.3,44.52-34,0-17.85-34.71-36.31-92.79-36.31s-92.79,18.46-92.79,36.31C138.1,166.65,154.4,179.95,180.88,187.71Z"/></g></g></svg>