<?xml version="1.0" encoding="utf-8"?>
<!-- Generator: Adobe Illustrator 20.0.0, SVG Export Plug-In . SVG Version: 6.00 Build 0)  -->
<svg version="1.1" id="Capa_1" xmlns="http://www.w3.org/2000/svg" xmlns:xlink="http://www.w3.org/1999/xlink" x="0px" y="0px"
	 viewBox="0 0 58.1 58.1" style="enable-background:new 0 0 58.1 58.1;" xml:space="preserve">
<g>
	<path d="M58.1,47.2l0-0.3l0,0c0-0.2,0-0.4,0-0.6l0,0l0-0.3c0-0.4-0.1-0.8-0.1-1.3c0-0.1,0-0.2,0-0.2c0-0.3-0.1-0.6-0.2-0.9
		c0-0.1,0-0.2-0.1-0.3c-0.1-0.3-0.2-0.5-0.3-0.8c0-0.1-0.1-0.2-0.1-0.3c-0.1-0.4-0.3-0.7-0.4-1.1C55,37.1,55,31.6,55,31.5v-2v-2.8
		v-4.7v-10h-2v-12H34v12h-2v8.7v1.3v1.5v6.7c0,1.6-1,3-2.4,3.5L26.2,35l0,0l-14.8,5.4l0,0L10,40.8v2.2l-5.8,0c-0.3,0-2.5,0-3.7,1.5
		c-0.4,0.6-0.9,1.7-0.3,3.3c0.8,2.3,4.4,5.8,9.7,7.7v1.7l0.7,0.2c1.2,0.4,2.4,0.6,3.7,0.6c2.6,0,5.3-0.6,8.1-1.3l0.9-0.2
		c0.5-0.1,1-0.2,1.6-0.3l0.1,0c0.1,0,0.2,0,0.4-0.1c2.8-0.6,5.3-0.9,7.7-1c0,0,0,0,0,0c0.8,0,1.5-0.1,2.2-0.1c0,0,0,0,0.1,0
		c0.7,0,1.4,0,2.1,0c0,0,0.1,0,0.1,0c0.7,0,1.3,0,2,0.1c0,0,0,0,0,0c1.3,0.1,2.6,0.1,3.8,0.2l3.2,0.2l0,0c0.4,0,0.8,0,1.2,0
		c0.2,0,0.5,0,0.7,0c0.1,0,0.2,0,0.3,0c0.1,0,0.3,0,0.4,0c0.3,0,0.5,0,0.7,0c0.1,0,0.2,0,0.3,0c0.3,0,0.5-0.1,0.8-0.1
		c0.1,0,0.1,0,0.2,0c0.3,0,0.5-0.1,0.7-0.1c0,0,0.1,0,0.1,0c0.2-0.1,0.5-0.1,0.7-0.2c0,0,0,0,0.1,0c0.2-0.1,0.4-0.1,0.6-0.2
		c0,0,0,0,0.1,0c0.2-0.1,0.4-0.2,0.6-0.2c0,0,0,0,0,0c0.2-0.1,0.3-0.2,0.5-0.3c0,0,0,0,0,0c0.2-0.1,0.3-0.2,0.4-0.3c0,0,0,0,0,0
		c0.1-0.1,0.2-0.2,0.4-0.3c0,0,0,0,0,0c0.1-0.1,0.2-0.2,0.3-0.3c0,0,0,0,0,0c0.1-0.1,0.2-0.2,0.2-0.2c0,0,0,0,0,0
		c0.1-0.1,0.1-0.2,0.2-0.2c0,0,0,0,0,0c0.1-0.1,0.1-0.1,0.1-0.2c0,0,0,0,0,0c0-0.1,0.1-0.1,0.1-0.2c0,0,0,0,0,0
		c0-0.1,0.1-0.1,0.1-0.2l0.1-0.1c0-0.1,0.1-0.2,0.1-0.3c0,0,0,0,0,0C57.4,51.1,58,49.4,58.1,47.2z M55.6,43.2c0,0.1,0,0.1,0.1,0.2
		c0.1,0.4,0.2,0.8,0.3,1.3l-1-1l-7.1-7.1l5.1-5.1c0,0,0,0,0,0.1c0,0,0,0,0,0c0,0,0,0.1,0,0.1c0,0,0,0.1,0,0.1c0,0.1,0,0.1,0,0.2
		c0,0,0,0.1,0,0.1c0,0.1,0,0.2,0,0.2c0,0.1,0,0.1,0,0.2c0,0.1,0,0.2,0,0.3c0,0.1,0,0.2,0,0.2c0,0.1,0,0.2,0,0.3c0,0.1,0,0.2,0,0.3
		c0,0.1,0,0.2,0,0.4c0,0.1,0,0.2,0,0.3c0,0.1,0,0.3,0,0.4c0,0.1,0,0.2,0,0.3c0,0.1,0,0.3,0.1,0.4c0,0.1,0,0.2,0.1,0.3
		c0,0.1,0,0.3,0.1,0.5c0,0.1,0,0.2,0.1,0.4c0,0.2,0.1,0.3,0.1,0.5c0,0.1,0,0.2,0.1,0.4c0,0.2,0.1,0.3,0.1,0.5c0,0.1,0.1,0.2,0.1,0.4
		c0,0.2,0.1,0.3,0.1,0.5c0,0.1,0.1,0.2,0.1,0.4c0.1,0.2,0.1,0.4,0.2,0.5c0,0.1,0.1,0.2,0.1,0.3c0.1,0.2,0.1,0.4,0.2,0.6
		c0,0.1,0.1,0.2,0.1,0.3c0.1,0.3,0.2,0.6,0.4,0.8C55.3,42.4,55.4,42.8,55.6,43.2z M46.5,35.2L35.3,24.1H53v4.7L46.5,35.2z M36,5.5
		V2.1h15v10H36V7.5 M53,14.1v8H34v-8H53z M34,30.3v-4.7l22.1,22.1c-0.1,0.9-0.3,1.7-0.5,2.2c-0.2,0.6-0.4,0.9-0.4,1.1c0,0,0,0,0,0
		c0,0-0.1,0.1-0.1,0.2c-0.6,1.1-1.8,1.8-3.5,2.1c0,0-0.1,0-0.1,0c-0.3,0.1-0.6,0.1-1,0.2c-0.8,0.1-1.6,0.1-2.5,0.1
		c-0.7,0-1.4-0.1-2.1-0.1c0,0-0.1,0-0.1,0c-0.3,0-0.6,0-1-0.1L27.9,36.5l2.3-0.8C32.5,34.8,34,32.6,34,30.3z M39.9,53.1
		C39.9,53.1,39.9,53.1,39.9,53.1c-3-0.1-6.1-0.1-9.8,0.3c0,0,0,0,0,0c-1.4,0.2-2.9,0.4-4.5,0.7c0,0-0.1,0-0.1,0L13.2,41.8l7.5-2.7
		l5-1.8l15.9,15.9C41,53.1,40.5,53.1,39.9,53.1z M2.2,47.2c-0.2-0.7-0.2-1.2,0-1.5c0.4-0.6,1.5-0.7,2-0.7c0,0,0,0,0.1,0H10v8.4
		C5.4,51.6,2.7,48.7,2.2,47.2z M22.1,54.8c-3.7,0.9-7.2,1.7-10.1,1V43.4l11.2,11.2c-0.1,0-0.1,0-0.2,0L22.1,54.8z"/>
</g>
</svg>
