<?xml version="1.0" encoding="iso-8859-1"?>
<!-- Generator: Adobe Illustrator 18.0.0, SVG Export Plug-In . SVG Version: 6.00 Build 0)  -->
<!DOCTYPE svg PUBLIC "-//W3C//DTD SVG 1.1//EN" "http://www.w3.org/Graphics/SVG/1.1/DTD/svg11.dtd">
<svg version="1.1" id="Capa_1" xmlns="http://www.w3.org/2000/svg" xmlns:xlink="http://www.w3.org/1999/xlink" x="0px" y="0px"
	 viewBox="0 0 60 60" style="enable-background:new 0 0 60 60;" xml:space="preserve">
<g>
	<path d="M38.666,26.923c-0.386,0.376-0.6,0.88-0.604,1.419c-0.003,0.539,0.205,1.046,0.586,1.427l1.246,1.246
		c0.317,0.317,0.712,0.527,1.142,0.612c0.084,0.417,0.285,0.815,0.608,1.138l1.078,1.078c0.422,0.423,0.984,0.655,1.583,0.655
		c0.598,0,1.16-0.232,1.582-0.655l8.856-8.856c0.873-0.872,0.873-2.292,0-3.164l-1.078-1.078c-0.313-0.314-0.714-0.51-1.136-0.591
		c-0.083-0.437-0.293-0.839-0.614-1.159l-1.247-1.248c-0.759-0.757-2.084-0.76-2.828,0.001l-9.917-9.882
		c0.386-0.376,0.6-0.88,0.604-1.419s-0.205-1.046-0.586-1.427l-1.246-1.246c-0.313-0.314-0.714-0.51-1.137-0.591
		c-0.081-0.425-0.285-0.831-0.613-1.159l-1.078-1.078c-0.844-0.845-2.319-0.847-3.165,0l-8.856,8.855
		c-0.873,0.873-0.873,2.292,0,3.165l1.078,1.078c0.317,0.317,0.712,0.527,1.142,0.612c0.084,0.417,0.286,0.815,0.609,1.138
		l1.246,1.246c0.754,0.756,2.093,0.756,2.829,0l1.596,1.597c0.29,0.289,0.29,0.761,0,1.05l-7.253,7.253l-0.708-0.708
		c-1.135-1.132-3.11-1.132-4.243,0.001c-1.169,1.17-1.169,3.073,0,4.243l0.707,0.707l-9.068,9.068
		c-0.527,0.527-1.189,0.902-1.914,1.084l-2.906,0.726c-1.075,0.27-2.059,0.826-2.843,1.61l-0.326,0.325
		C0.637,45.154,0,46.69,0,48.324s0.637,3.173,1.793,4.329l1.243,1.242c1.157,1.156,2.694,1.793,4.328,1.793
		c1.635,0,3.172-0.637,4.329-1.793l0.325-0.325c0.784-0.783,1.341-1.767,1.61-2.844l0.726-2.905
		c0.181-0.724,0.556-1.386,1.084-1.914l9.068-9.068l0.707,0.707c1.134,1.133,3.11,1.132,4.242,0.001
		c0.567-0.566,0.879-1.32,0.879-2.122c0-0.801-0.312-1.555-0.879-2.121l-0.707-0.707l7.253-7.253c0.282-0.281,0.771-0.28,1.05-0.001
		L38.666,26.923z M43.059,31.015l8.856-8.856c0.058-0.058,0.123-0.069,0.168-0.069c0.045,0,0.11,0.012,0.168,0.069l1.078,1.078
		c0.092,0.093,0.092,0.243,0,0.336l-8.856,8.856c-0.115,0.115-0.221,0.115-0.336,0l-1.078-1.078
		C42.966,31.258,42.966,31.108,43.059,31.015z M33.531,3.774l-8.856,8.856c-0.116,0.116-0.222,0.114-0.336,0l-1.078-1.078
		c-0.093-0.093-0.093-0.244,0-0.337l8.856-8.855c0.058-0.058,0.123-0.069,0.168-0.069s0.11,0.012,0.168,0.069l1.078,1.078
		C33.623,3.531,33.623,3.681,33.531,3.774z"/>
	<path d="M53,51.689h-9c-3.86,0-7,3.141-7,7v1h23v-1C60,54.829,56.86,51.689,53,51.689z"/>
	<path d="M42,48.689c-0.552,0-1,0.447-1,1s0.448,1,1,1h13c0.552,0,1-0.447,1-1s-0.448-1-1-1H42z"/>
</g>
<g>
</g>
<g>
</g>
<g>
</g>
<g>
</g>
<g>
</g>
<g>
</g>
<g>
</g>
<g>
</g>
<g>
</g>
<g>
</g>
<g>
</g>
<g>
</g>
<g>
</g>
<g>
</g>
<g>
</g>
</svg>
