<?xml version="1.0" encoding="utf-8"?>
<!-- Generator: Adobe Illustrator 20.0.0, SVG Export Plug-In . SVG Version: 6.00 Build 0)  -->
<svg version="1.1" id="Layer_1" xmlns="http://www.w3.org/2000/svg" xmlns:xlink="http://www.w3.org/1999/xlink" x="0px" y="0px"
	 viewBox="0 0 100 92.3" style="enable-background:new 0 0 100 92.3;" xml:space="preserve">
<style type="text/css">
	.st0{fill:#FFFFFF;}
</style>
<rect x="0.2" width="99.6" height="92.3"/>
<path class="st0" d="M0.1,42.7l0.1,49.6h38.1l24.6-21l25.9,3.4l5.2-7.8l-5.9-2v-8.4l-6.9,6.1l-5.4-1.9v-5.5h-14l7.6-11.4l5,2.9
	l3.1-5.9h0.1l5.3,7.3l3.3-9.9l0,0l6.4,5.3v-7.3c4.1-1.3,7.2-2.2,7.2-2.2V16.6l-33.3,7.5l-4.8-7.4H38.2L19.1,1.6l-6.2,11.9l13.6,23.1
	l-3.1,1.8l-4.9-8.3L0.1,42.7z M53.7,27.7c0-1.8,1.5-3.3,3.3-3.3s3.3,1.5,3.3,3.3S58.8,31,57,31S53.7,29.5,53.7,27.7z M33.5,25.7
	l-6.1-5.6l1.7-1.9l8.2,7.5l-6.9,6.2L28.7,30L33.5,25.7z"/>
</svg>
