<svg xmlns="http://www.w3.org/2000/svg" xmlns:xlink="http://www.w3.org/1999/xlink" style="position: absolute; width: 0; height: 0;" width="0" height="0" version="1.1">
<defs>
  <symbol id="icon-dog-destruction" viewBox="0 0 65.98 65.98">
    <title>dog destruction lined</title>
    <line fill="none" stroke-width="3" x1="6.02" y1="14.26" x2="60.37" y2="51.74"/>
    <circle fill="none" stroke-width="3" cx="32.99" cy="32.99" r="31.99"/>
    <path d="M32.2,7.82a1,1,0,0,0-.7.29,1,1,0,0,0-.19.22,2.32,2.32,0,0,0-.19.31c-.1.2-.17.44-.29.73-.23.57-.53,1.33-.92,2.18a17.43,17.43,0,0,1-3.38,5.15s0,0,0,0a8.24,8.24,0,0,0-2.43,5.5,92.18,92.18,0,0,0-7.3,5.94l0,0A113.58,113.58,0,0,0,8,36.54a1,1,0,1,0,1.32,1.53l.13-.14a115.22,115.22,0,0,1,8.59-8.18l.06,0c3.48-3.19,7.49-6.11,7.49-6.11a1,1,0,0,0,.41-.82A7.4,7.4,0,0,1,28,18.14a18.88,18.88,0,0,0,3.79-5.78c.28-.61.44-1,.63-1.52a9.27,9.27,0,0,1,.44.82A14.06,14.06,0,0,1,34,16,1,1,0,0,0,34,17v.22a36.45,36.45,0,0,0,.22,5A1,1,0,0,0,35,23a46.11,46.11,0,0,1,7.65,2.84,4,4,0,0,1,2,2.37c.15.42.27.85.44,1.3a2.28,2.28,0,0,0,1,1.3,29.67,29.67,0,0,1,7.71,6,1,1,0,0,0,.41.29,6.1,6.1,0,0,1,1.7.95c.32.28.37.48.38.57s0,.22-.25.51a5,5,0,0,1-1.36,1,1,1,0,0,0-.31.31,19.65,19.65,0,0,1-5.15,5.34h0a3,3,0,0,1-1.67.73,6.69,6.69,0,0,1-2.94-.66h0c-3.11-1.35-7.3-2.72-10.8-2.72a6.66,6.66,0,0,0-5.37,2.88,10.29,10.29,0,0,0-1.89,6c0,1.26-.09,5-.09,5a1,1,0,0,0,2,.06s.09-3.72.09-5.09A8.36,8.36,0,0,1,30,47.27a4.57,4.57,0,0,1,3.76-2.05c3,0,7.06,1.28,10,2.56h0a8.4,8.4,0,0,0,3.92.79,5.19,5.19,0,0,0,2.75-1.14h0a23.15,23.15,0,0,0,5.4-5.65,6.61,6.61,0,0,0,1.7-1.3,2.73,2.73,0,0,0,.73-2,2.91,2.91,0,0,0-1.07-1.89,7.82,7.82,0,0,0-2-1.14A31.34,31.34,0,0,0,47,29.07a1,1,0,0,1-.13-.25c-.1-.27-.22-.73-.41-1.26a6.25,6.25,0,0,0-2.88-3.44,22.44,22.44,0,0,0-3.51-1.55,12.51,12.51,0,0,0,1.07-3.82v0a25.56,25.56,0,0,0-.15-6,12.38,12.38,0,0,0-.38-1.8,3.41,3.41,0,0,0-.25-.6A1.39,1.39,0,0,0,40.2,10a.94.94,0,0,0-.79-.38.93.93,0,0,0-.6.15,1.23,1.23,0,0,0-.19.15,2.56,2.56,0,0,0-.22.25c-.15.18-.34.4-.54.66-.4.52-.89,1.17-1.39,1.86l-.82,1.14a16.64,16.64,0,0,0-1-3,12.94,12.94,0,0,0-1-1.93,5.46,5.46,0,0,0-.44-.6,2,2,0,0,0-.25-.25A.86.86,0,0,0,32.2,7.82ZM39,12.75c0,.13,0,.18.06.31a23.91,23.91,0,0,1,.13,5.47v0a10.84,10.84,0,0,1-1,3.35c-.86-.26-1.62-.48-2-.57a27.86,27.86,0,0,1-.15-4.11c0-.17,0-.34,0-.51l.06-.06c.17-.21.35-.46.57-.76.43-.57,1-1.27,1.45-2l.88-1.2Zm2.12,16.2a2,2,0,1,0,2,2,2,2,0,0,0-2-2Z"/>
  </symbol>
  <symbol id="icon-dog-chipped" viewBox="0 0 63.89 62.72">
    <title>dog chipped lined</title>
    <path d="M63.89,29V26.71H53.43V20.9H63.89V18.58H53.43V15.1a5.8,5.8,0,0,0-5.8-5.8H46.48V0H44.16V9.3h-7V0H34.85V9.3h-7V0H25.56V9.3h-7V0H16.26V9.3H15.1a5.8,5.8,0,0,0-5.8,5.8v3.48H0V20.9H9.3v5.8H0V29H9.3v5.8H0v2.32H9.3v5.8H0v2.38H9.3v2.32a5.8,5.8,0,0,0,5.8,5.8h1.16v9.28h2.32v-9.3h7v9.3h2.32v-9.3h7v9.3h2.34v-9.3h7v9.3h2.32v-9.3h1.16a5.8,5.8,0,0,0,5.8-5.8h0v-2.3H63.89V43H53.43v-5.8H63.89V34.84H53.43V29ZM51.11,47.63h0a3.48,3.48,0,0,1-3.48,3.48H15.06a3.48,3.48,0,0,1-3.48-3.48h0V15.09a3.48,3.48,0,0,1,3.48-3.48H47.62a3.48,3.48,0,0,1,3.48,3.48h0Z"/>
    <path fill="none" stroke-width="2" d="M44,31.11a.68.68,0,0,0-.42-.59l-5.92-2.43-.13-.69a.69.69,0,0,0-.39-.48l-4.57-2A10.49,10.49,0,0,0,32.56,22a14.52,14.52,0,0,0-1.29-4.07.68.68,0,0,0-.91-.3h0l-.09.06a7.07,7.07,0,0,0-1.46,1.47,8.55,8.55,0,0,0-1.31-1.62.68.68,0,0,0-.92,0,.28.28,0,0,0-.06.08,18.67,18.67,0,0,0-2.36,5.1,12,12,0,0,0-.08,7,14.32,14.32,0,0,0-4.25,10,.63.63,0,0,0,.4.61l11,4.9a.68.68,0,0,0,.91-.3l0,0a.67.67,0,0,0,0-.5c-.48-1.35-1.51-5.16-.4-6.73A1.78,1.78,0,0,1,33.3,37a1.94,1.94,0,0,1,2,1.85h0a.67.67,0,0,0,.66.61,8.32,8.32,0,0,0,2.52-.33l.29.69a.66.66,0,0,0,.86.36h0a5.2,5.2,0,0,0,3.21-4.1,7,7,0,0,0-.08-2.39A2.9,2.9,0,0,0,44,31.11ZM34.91,30a.86.86,0,0,1-.59.27h0a.85.85,0,1,1,.85-.85h0a.81.81,0,0,1-.22.57Z"/>
  </symbol>
  <symbol id="icon-dog-desexed" viewBox="0 0 66.8 66.8">
    <title>dog desexed lined</title>
    <line fill="none" stroke-width="3" x1="5.88" y1="14.43" x2="60.92" y2="52.39"/>
    <circle fill="none" stroke-width="3" cx="33.4" cy="33.4" r="32.4"/>
    <path d="M51,21.82h2.48l0-7.85-7.85,0v2.48h3.62l-4.85,4.85a12.17,12.17,0,0,0-7.75-2.76,12.33,12.33,0,0,0-5.52,1.3A12.26,12.26,0,1,0,24.35,43v3.94H20.91v2.48h3.44v3.42h2.48V49.39h3.44V46.91H26.83V43a12.13,12.13,0,0,0,4.25-1.24A12.28,12.28,0,0,0,36.6,43,12.26,12.26,0,0,0,46.1,23l4.85-4.85ZM25.6,40.59a9.78,9.78,0,1,1,3-19.06c-.24.2-.46.41-.67.63a12.26,12.26,0,0,0,0,17.34c.22.22.44.42.67.63A10,10,0,0,1,25.6,40.59Zm9.79-9.79a9.79,9.79,0,0,1-4.27,8.08,9,9,0,0,1-1.4-1.16,9.78,9.78,0,0,1,0-13.82,10.75,10.75,0,0,1,1.4-1.16A9.81,9.81,0,0,1,35.39,30.8Zm8.14,6.92a9.71,9.71,0,0,1-6.92,2.87,9.44,9.44,0,0,1-3-.49,12.25,12.25,0,0,0,0-18.61,9.89,9.89,0,0,1,3-.49,9.79,9.79,0,0,1,6.92,16.71Z"/>
  </symbol>
  <symbol id="icon-dog-profile" viewBox="0 0 476.419 476.419">
    <title>dog profile</title>
    <path d="M171.044,179.964c0.656,0,1.317-0.04,1.98-0.12c6.044-0.733,11.128-4.73,13.269-10.432l2.236-5.962
  		c1.3-3.465,0.346-7.373-2.405-9.849c-2.75-2.476-6.734-3.017-10.047-1.361l-15.028,7.514c-2.326,1.163-4.035,3.276-4.688,5.794
  		c-0.651,2.518-0.183,5.195,1.287,7.341C160.712,177.361,165.717,179.964,171.044,179.964z"/>
  	<path d="M315.37,159.753l-15.029-7.514c-3.309-1.656-7.297-1.115-10.047,1.362c-2.75,2.477-3.704,6.385-2.403,9.85l2.236,5.961
  		c2.139,5.701,7.223,9.698,13.267,10.432c0.664,0.081,1.325,0.12,1.982,0.12c5.326,0,10.332-2.603,13.396-7.075
  		c1.47-2.146,1.938-4.823,1.287-7.341C319.406,163.029,317.697,160.916,315.37,159.753z"/>
  	<path d="M466.978,238.656L383.756,90.844c-8.266-14.681-25.446-22.048-41.778-17.911l-17.655,4.47
  		c-5.703-5.39-11.974-10.308-18.794-14.648c-20.15-12.827-43.431-19.606-67.325-19.606c-23.876,0-47.152,6.779-67.313,19.606
  		c-6.806,4.333-13.098,9.24-18.831,14.638l-17.617-4.46c-16.329-4.134-33.512,3.23-41.778,17.911L9.441,238.656
  		c-11.897,21.132-12.59,46.755-1.853,68.542c14.914,30.263,42.162,76.22,87.279,123.299c1.7,1.774,4.049,2.773,6.498,2.773
  		c0.104,0,0.208-0.002,0.313-0.005c2.561-0.089,4.961-1.265,6.602-3.233c16.222-19.466,33.476-46.469,43.746-63.3
  		c2.887,2.889,6.458,5.179,10.59,6.631c11.568,4.065,23.85,0.39,31.28-9.372l12.282-16.146c7.835,8.699,19.494,14.022,32.035,14.022
  		c12.535,0,24.192-5.321,32.03-14.017l12.28,16.143c5.42,7.12,13.42,11.001,21.846,11.001c3.122,0,6.305-0.534,9.434-1.633
  		c4.132-1.452,7.704-3.743,10.59-6.631c10.27,16.831,27.524,43.834,43.747,63.301c1.641,1.968,4.041,3.144,6.602,3.233
  		c0.104,0.003,0.209,0.005,0.313,0.005c2.449,0,4.798-0.999,6.498-2.773c45.117-47.079,72.365-93.036,87.279-123.299
  		C479.568,285.411,478.876,259.788,466.978,238.656z M100.819,410.542c-39.345-42.756-63.522-83.78-77.084-111.301
  		c-8.11-16.455-7.59-35.803,1.392-51.754l83.221-147.812c4.289-7.617,13.201-11.437,21.676-9.293l8.406,2.128
  		c-16.426,21.498-25.617,48.031-25.617,76.073c0,15.916,2.992,31.499,8.893,46.313l4.923,12.371
  		c12.76,32.081,18.79,65.838,17.924,100.339l-0.428,17.263C138.68,354.156,119.517,386.265,100.819,410.542z M238.214,343.868
  		c-7.517,0-14.431-3.174-18.891-8.312c0.377-0.15,0.755-0.3,1.142-0.429c6.996-2.332,13.081-6.509,17.733-12.14
  		c4.554,5.492,10.63,9.761,17.743,12.136c0.394,0.132,0.778,0.283,1.161,0.437C252.639,340.696,245.726,343.868,238.214,343.868z
  		 M238.21,288.809c-13.228,0-23.989-9.691-23.989-21.604c0-4.934,1.563-5.49,3.54-6.194c4.347-1.547,11.738-1.574,19.605-1.574
  		c0.138,0,0.276,0,0.414,0h0.859c8.004,0.003,15.596-0.001,20.019,1.574c1.979,0.704,3.541,1.26,3.541,6.194
  		C262.199,279.118,251.437,288.809,238.21,288.809z M307.835,356.381c-1.57,0.552-7.002,1.946-10.987-3.287l-16.46-21.638
  		c-2.396-3.134-5.211-5.865-8.349-8.107c-3.155-2.264-6.649-4.045-10.391-5.297c-6.13-2.047-10.82-6.699-13.035-12.474
  		c18.137-4.377,31.586-19.92,31.586-38.372c0-14.573-8.431-20.634-15.504-23.151c-7.352-2.617-16.455-2.621-26.057-2.616h-0.857
  		c-9.584-0.018-18.705-0.001-26.057,2.616c-7.073,2.518-15.504,8.578-15.504,23.151c0,18.449,13.444,33.991,31.578,38.37
  		c-0.648,1.684-1.504,3.294-2.584,4.788c-2.605,3.62-6.216,6.278-10.446,7.688c-7.491,2.502-13.976,7.144-18.752,13.423
  		l-16.443,21.616c-3.985,5.234-9.419,3.841-10.989,3.29c-1.567-0.551-6.671-2.859-6.506-9.432l0.469-18.893
  		c0.104-4.119,0.34-13.855,0.34-14.667c0-29.093,16.896-65.477,31.803-97.577c8.904-19.172,17.313-37.282,21.413-52.296
  		c1.99-7.291,8.049-29.477-8.374-40.712c-17.791-12.173-37.571-8.962-55.694,9.042c-3.526,3.503-3.545,9.201-0.042,12.728
  		c3.502,3.526,9.202,3.545,12.728,0.042c17.543-17.427,29.06-9.546,32.845-6.957c10.3,7.047-5.373,40.795-19.2,70.571
  		c-7.801,16.798-16.119,34.71-22.512,52.541c-3.108-13.61-7.271-27.016-12.498-40.157l-4.924-12.375
  		c-5.054-12.688-7.616-26.031-7.616-39.656c0-36.93,18.596-70.815,49.741-90.643c17.267-10.985,37.202-16.792,57.649-16.792
  		c20.464,0,40.402,5.806,57.66,16.792c43.447,27.65,61.163,82.45,42.124,130.302l-4.924,12.373
  		c-5.226,13.14-9.389,26.544-12.496,40.153c-6.394-17.829-14.711-35.741-22.512-52.539c-13.827-29.775-29.499-63.523-19.2-70.57
  		c3.785-2.59,15.304-10.47,32.846,6.957c3.527,3.501,9.225,3.486,12.728-0.042c3.503-3.526,3.484-9.225-0.042-12.728
  		c-18.124-18.004-37.904-21.215-55.695-9.042c-16.422,11.236-10.364,33.422-8.374,40.712c4.101,15.015,12.51,33.124,21.413,52.295
  		c14.907,32.101,31.804,68.484,31.804,97.578c0,0.81,0.234,10.544,0.338,14.664l0.468,18.899
  		C314.505,353.521,309.402,355.829,307.835,356.381z M452.684,299.241c-13.562,27.521-37.739,68.544-77.084,111.3
  		c-18.691-24.27-37.867-56.397-43.307-65.678l-0.427-17.26c-0.867-34.495,5.163-68.252,17.923-100.335l4.923-12.372
  		c16.634-41.808,9.237-88.156-16.793-122.368l8.477-2.146c8.476-2.144,17.387,1.676,21.675,9.292l83.223,147.812
  		C460.274,263.439,460.795,282.786,452.684,299.241z"/>
  </symbol>
  <symbol id="icon-owner-profile" viewBox="0 0 463 463">
    <title>owner profile lined</title>
    <path d="m372.96,335.135l-36.099-9.025c4.349-1.738 9.005-3.676 13.685-5.756 28.356-12.603 40.454-22.428 40.454-32.854 0-106.094-13.963-180.089-42.686-226.214-25.68-41.239-63.891-61.286-116.814-61.286s-91.134,20.047-116.814,61.286c-28.723,46.125-42.686,120.12-42.686,226.214 0,10.426 12.098,20.251 40.454,32.854 4.68,2.08 9.336,4.018 13.685,5.756l-36.099,9.025c-24.753,6.187-42.04,28.328-42.04,53.842v50.523c0,12.958 10.542,23.5 23.5,23.5h320c12.958,0 23.5-10.542 23.5-23.5v-50.523c0-25.514-17.287-47.655-42.04-53.842zm-205.82-3.814c14.049-3.512 23.86-16.079 23.86-30.56v-7.016c12.56,5.971 26.22,9.255 40.5,9.255 13.988,0 27.707-3.19 40.5-9.25v7.012c0,14.481 9.812,27.048 23.86,30.56l9.428,2.357c-18.438,22.597-45.948,47.976-73.788,57.899-27.84-9.924-55.35-35.303-73.788-57.899l9.428-2.358zm64.36-43.321c-53.21,0-96.5-54.056-96.5-120.5v-4.767c41.692-38.04 122.957-43.197 154.875-43.688 6.15,20.354 17.184,47.203 36.407,70.288-3.991,27.088-15.388,51.782-32.284,69.828-17.413,18.597-39.608,28.839-62.498,28.839zm-144.5-.795c0.026-103.045 13.248-174.357 40.419-217.99 23.033-36.988 56.105-54.215 104.081-54.215s81.048,17.227 104.081,54.214c27.171,43.633 40.393,114.945 40.419,217.99-0.447,0.984-4.403,7.605-33.535,20.318-13.31,5.808-26.386,10.463-31.296,12.164l-11.671-2.918c-7.358-1.84-12.498-8.422-12.498-16.008v-15.74c6.354-4.439 12.371-9.654 17.948-15.61 19.716-21.058 32.735-49.988 36.66-81.463 0.264-2.117-0.386-4.246-1.788-5.854-20.616-23.662-31.549-52.536-37.091-72.592-0.898-3.251-3.856-5.502-7.229-5.502-16.794,0-50.154,1.118-84.892,8.606-39.016,8.41-68.741,22.382-88.348,41.528-1.445,1.412-2.26,3.346-2.26,5.366v8c0,50.177 22.56,94.071 56,117.49v15.771c0,7.585-5.14,14.168-12.498,16.008l-11.671,2.918c-4.895-1.695-17.909-6.328-31.208-12.126-29.212-12.736-33.175-19.371-33.623-20.355zm313,152.295c0,4.687-3.813,8.5-8.5,8.5h-40.5v-36.915c0-4.142-3.358-7.5-7.5-7.5s-7.5,3.358-7.5,7.5v36.915h-209v-36.915c0-4.142-3.358-7.5-7.5-7.5s-7.5,3.358-7.5,7.5v36.915h-40.5c-4.687,0-8.5-3.813-8.5-8.5v-50.523c0-18.618 12.615-34.775 30.677-39.291l48.045-12.011c30.193,39.583 64.629,61.538 87.459,68.958 0.753,0.245 1.536,0.367 2.318,0.367s1.565-0.123 2.318-0.367c22.83-7.42 57.266-29.375 87.459-68.958l48.045,12.011c18.064,4.516 30.679,20.673 30.679,39.291v50.523z"/>
  </symbol>
  <symbol id="icon-prosecution" viewBox="0 0 65.82 66.06">
    <title>prosecution</title>
    <path d="M1.68,51.27A5.73,5.73,0,0,1,1,43.95l-.11-.11L24,22.72q-.89-1.17-1.64-2.34a4.6,4.6,0,0,1-5.81-.47,4.5,4.5,0,0,1,0-6.36L28.83,1.27a4.61,4.61,0,0,1,6.36,0,4.5,4.5,0,0,1,.47,5.81,43.15,43.15,0,0,1,7,5.7A44.16,44.16,0,0,1,46.36,17a4.6,4.6,0,0,1,5.32.78,4.5,4.5,0,0,1,0,6.36L39.4,36.4a4.6,4.6,0,0,1-6.36,0,4.5,4.5,0,0,1-.78-5.32c-.76-.59-1.51-1.22-2.26-1.88L10,51.06,9.12,52,9,51.91a5.7,5.7,0,0,1-3.3,1h0A5.71,5.71,0,0,1,1.68,51.27ZM9,48.39l20.86-22.8.94.88a41.13,41.13,0,0,0,4,3.33l1.2.87-1.16,1.16a2,2,0,0,0,0,2.77,2,2,0,0,0,2.76,0L49.88,22.33a2,2,0,0,0,0-2.76,2,2,0,0,0-2.76,0L46,20.72l-.87-1.2a41.44,41.44,0,0,0-4.22-4.94A39.25,39.25,0,0,0,33,8.45L31.6,7.62l1.79-1.79a2,2,0,0,0,0-2.76,2,2,0,0,0-2.76,0L18.35,15.35a2,2,0,0,0,0,2.77,2,2,0,0,0,2.77,0l1.78-1.78.83,1.43a35.82,35.82,0,0,0,3,4.32l.74.93L4.59,43.92l0,0-1,.9L3.48,45a3.2,3.2,0,0,0,0,4.52A3.29,3.29,0,0,0,8,49.5l1-1.11ZM28.55,66.06V64.79A6.79,6.79,0,0,1,34.92,58a4.94,4.94,0,0,1,4.49-2.92H55A4.94,4.94,0,0,1,59.44,58a6.79,6.79,0,0,1,6.38,6.77v1.27H28.55ZM59,60.55H57.48l-.21-1A2.38,2.38,0,0,0,55,57.65H39.42a2.38,2.38,0,0,0-2.33,1.89l-.21,1H35.33a4.24,4.24,0,0,0-4,3h31.8A4.24,4.24,0,0,0,59,60.55Z"/>
  </symbol>
  <symbol id="icon-owner-infringments" viewBox="0 0 445.517 445.517">
    <title>prosecution</title>
    <path d="M150.203,239.389c9.691,0,17.576-7.884,17.576-17.575s-7.884-17.576-17.576-17.576c-9.691,0-17.575,7.885-17.575,17.576
  		S140.512,239.389,150.203,239.389z M150.203,217.238c2.523,0,4.576,2.053,4.576,4.576s-2.053,4.575-4.576,4.575
  		s-4.575-2.052-4.575-4.575S147.68,217.238,150.203,217.238z"/>
  	<path d="M221.814,132.628c-9.691,0-17.575,7.885-17.575,17.576s7.884,17.575,17.575,17.575c9.691,0,17.576-7.884,17.576-17.575
  		S231.505,132.628,221.814,132.628z M221.814,154.779c-2.523,0-4.575-2.052-4.575-4.575s2.052-4.576,4.575-4.576
  		s4.576,2.053,4.576,4.576S224.336,154.779,221.814,154.779z"/>
  	<path d="M445.517,110.867c0-6.229-2.529-11.878-6.614-15.976c-3.608-25.257-15.815-48.544-34.597-65.794
  		c-19.539-17.944-45.021-28.26-71.755-29.047c-24.031-0.706-47.095,6.155-66.718,19.839c-0.064,0.045-0.128,0.092-0.192,0.139
  		c-3.069,2.127-6.599,3.551-10.211,4.121l-52.467,8.229c-14.592,2.294-25.183,14.674-25.183,29.436v42.554h-4.562
  		c-2.709-7.872-10.17-13.552-18.95-13.552s-16.241,5.68-18.949,13.552h-16.774c-7.818,0-14.178,6.36-14.178,14.178v16.774
  		c-7.872,2.709-13.552,10.17-13.552,18.95s5.68,16.241,13.552,18.949v4.562H61.813c-14.762,0-27.142,10.591-29.436,25.185
  		l-8.229,52.459c-0.569,3.613-1.99,7.137-4.112,10.204c-0.051,0.067-0.1,0.135-0.148,0.204
  		C6.204,285.457-0.656,308.528,0.049,332.551c0.787,26.734,11.103,52.217,29.047,71.755c17.25,18.783,40.537,30.989,65.794,34.597
  		c4.098,4.085,9.747,6.614,15.976,6.614c6.222,0,11.865-2.524,15.962-6.6c54.278-7.819,94.902-54.55,94.902-109.713
  		c0-26.014-12.552-54.214-25.795-72.207c0.848-2.338,1.127-4.877,0.73-7.425l-7.311-46.608
  		c-2.294-14.592-14.673-25.183-29.436-25.183h-42.553v-4.562c7.872-2.709,13.552-10.17,13.552-18.949s-5.68-16.241-13.552-18.95
  		v-16.774c0-0.65,0.528-1.178,1.178-1.178h16.774c2.709,7.872,10.17,13.552,18.949,13.552s16.241-5.68,18.95-13.552h4.562v42.553
  		c0,14.762,10.591,27.142,25.185,29.436l46.613,7.311c0.783,0.122,1.566,0.182,2.344,0.182c1.752,0,3.471-0.314,5.089-0.902
  		c17.994,13.238,46.185,25.784,72.192,25.784c55.163,0,101.894-40.624,109.714-94.902
  		C442.993,122.732,445.517,117.089,445.517,110.867z M181.895,329.205c0,39.165-31.863,71.029-71.028,71.029
  		s-71.028-31.863-71.028-71.029c0-39.165,31.863-71.028,71.028-71.028S181.895,290.04,181.895,329.205z M110.867,432.517
  		c-5.316,0-9.642-4.325-9.642-9.642s4.325-9.642,9.642-9.642s9.642,4.325,9.642,9.642S116.183,432.517,110.867,432.517z
  		 M133.45,424.421c0.035-0.511,0.059-1.026,0.059-1.546c0-4.36-1.239-8.436-3.383-11.894c37.079-8.732,64.77-42.07,64.77-81.776
  		c0-26.75-12.58-50.602-32.117-66.002c5.07,0.872,10.104,1.888,14.878,3.083c1.382,0.401,2.8,0.605,4.216,0.605
  		c1.587,0,3.15-0.256,4.634-0.743c11.262,15.909,22.226,40.812,22.226,63.055C208.731,374.977,177.04,414.151,133.45,424.421z
  		 M176.513,204.98l7.309,46.599c0.097,0.623-0.059,1.164-0.485,1.634c-0.527,0.587-1.28,0.824-2.086,0.581
  		c-0.099-0.03-0.199-0.058-0.299-0.083c-23.338-5.863-67.957-8.534-70.086-8.534c-46.333,0-84.028,37.695-84.028,84.028
  		c0,39.708,27.694,73.047,64.774,81.777c-2.145,3.459-3.388,7.533-3.388,11.893c0,0.53,0.025,1.054,0.061,1.575
  		c-19.005-4.446-36.339-14.482-49.615-28.937c-15.831-17.238-24.932-39.733-25.627-63.344c-0.621-21.169,5.406-41.495,17.431-58.79
  		c0.037-0.05,0.074-0.101,0.109-0.152l0.001,0.001c3.306-4.711,5.52-10.167,6.406-15.784l8.229-52.462
  		c1.294-8.229,8.272-14.202,16.594-14.202h98.107C168.241,190.781,175.22,196.753,176.513,204.98z M110.867,161.321
  		c-3.889,0-7.052-3.163-7.052-7.052s3.164-7.052,7.052-7.052c3.888,0,7.052,3.164,7.052,7.052S114.755,161.321,110.867,161.321z
  		 M154.269,117.919c-3.888,0-7.052-3.163-7.052-7.052s3.164-7.052,7.052-7.052c3.889,0,7.052,3.164,7.052,7.052
  		S158.157,117.919,154.269,117.919z M432.517,110.867c0,5.316-4.325,9.642-9.642,9.642s-9.642-4.325-9.642-9.642
  		s4.325-9.642,9.642-9.642S432.517,105.551,432.517,110.867z M251.585,183.823l-46.603-7.31
  		c-8.229-1.294-14.202-8.272-14.202-16.594V61.813c0-8.321,5.973-15.3,14.2-16.594l52.47-8.23
  		c5.612-0.885,11.068-3.099,15.779-6.405l-0.001-0.002c0.047-0.033,0.095-0.067,0.141-0.101c17.297-12.03,37.636-18.059,58.8-17.438
  		c23.611,0.695,46.107,9.797,63.344,25.627c14.456,13.276,24.491,30.611,28.937,49.615c-0.521-0.036-1.045-0.061-1.575-0.061
  		c-4.361,0-8.434,1.245-11.893,3.39c-8.73-37.082-42.069-64.777-81.778-64.777c-46.333,0-84.028,37.695-84.028,84.029
  		c0,2.128,2.671,46.75,8.534,70.085c0.025,0.101,0.053,0.201,0.083,0.3c0.065,0.214,0.098,0.422,0.098,0.62
  		c0,0.544-0.247,1.079-0.703,1.488C252.743,183.764,252.201,183.92,251.585,183.823z M258.177,110.867
  		c0-39.165,31.863-71.029,71.028-71.029c39.166,0,71.029,31.863,71.029,71.029c0,39.165-31.863,71.028-71.029,71.028
  		C290.04,181.895,258.177,150.032,258.177,110.867z M329.203,208.731c-22.243,0-47.147-10.964-63.056-22.226
  		c0.487-1.484,0.744-3.047,0.744-4.633c0-1.417-0.204-2.834-0.605-4.217c-1.195-4.774-2.213-9.809-3.085-14.88
  		c15.4,19.539,39.253,32.12,66.004,32.12c39.707,0,73.046-27.693,81.777-64.773c3.459,2.144,7.533,3.386,11.894,3.386
  		c0.52,0,1.034-0.024,1.546-0.059C414.151,177.041,374.977,208.731,329.203,208.731z"/>
  </symbol>
  <symbol id="icon-injuries" viewBox="0 0 58.1 58.1">
    <title>injuries</title>
    <path d="M58.1,47.2l0-0.3l0,0c0-0.2,0-0.4,0-0.6l0,0l0-0.3c0-0.4-0.1-0.8-0.1-1.3c0-0.1,0-0.2,0-0.2c0-0.3-0.1-0.6-0.2-0.9
      c0-0.1,0-0.2-0.1-0.3c-0.1-0.3-0.2-0.5-0.3-0.8c0-0.1-0.1-0.2-0.1-0.3c-0.1-0.4-0.3-0.7-0.4-1.1C55,37.1,55,31.6,55,31.5v-2v-2.8
      v-4.7v-10h-2v-12H34v12h-2v8.7v1.3v1.5v6.7c0,1.6-1,3-2.4,3.5L26.2,35l0,0l-14.8,5.4l0,0L10,40.8v2.2l-5.8,0c-0.3,0-2.5,0-3.7,1.5
      c-0.4,0.6-0.9,1.7-0.3,3.3c0.8,2.3,4.4,5.8,9.7,7.7v1.7l0.7,0.2c1.2,0.4,2.4,0.6,3.7,0.6c2.6,0,5.3-0.6,8.1-1.3l0.9-0.2
      c0.5-0.1,1-0.2,1.6-0.3l0.1,0c0.1,0,0.2,0,0.4-0.1c2.8-0.6,5.3-0.9,7.7-1c0,0,0,0,0,0c0.8,0,1.5-0.1,2.2-0.1c0,0,0,0,0.1,0
      c0.7,0,1.4,0,2.1,0c0,0,0.1,0,0.1,0c0.7,0,1.3,0,2,0.1c0,0,0,0,0,0c1.3,0.1,2.6,0.1,3.8,0.2l3.2,0.2l0,0c0.4,0,0.8,0,1.2,0
      c0.2,0,0.5,0,0.7,0c0.1,0,0.2,0,0.3,0c0.1,0,0.3,0,0.4,0c0.3,0,0.5,0,0.7,0c0.1,0,0.2,0,0.3,0c0.3,0,0.5-0.1,0.8-0.1
      c0.1,0,0.1,0,0.2,0c0.3,0,0.5-0.1,0.7-0.1c0,0,0.1,0,0.1,0c0.2-0.1,0.5-0.1,0.7-0.2c0,0,0,0,0.1,0c0.2-0.1,0.4-0.1,0.6-0.2
      c0,0,0,0,0.1,0c0.2-0.1,0.4-0.2,0.6-0.2c0,0,0,0,0,0c0.2-0.1,0.3-0.2,0.5-0.3c0,0,0,0,0,0c0.2-0.1,0.3-0.2,0.4-0.3c0,0,0,0,0,0
      c0.1-0.1,0.2-0.2,0.4-0.3c0,0,0,0,0,0c0.1-0.1,0.2-0.2,0.3-0.3c0,0,0,0,0,0c0.1-0.1,0.2-0.2,0.2-0.2c0,0,0,0,0,0
      c0.1-0.1,0.1-0.2,0.2-0.2c0,0,0,0,0,0c0.1-0.1,0.1-0.1,0.1-0.2c0,0,0,0,0,0c0-0.1,0.1-0.1,0.1-0.2c0,0,0,0,0,0
      c0-0.1,0.1-0.1,0.1-0.2l0.1-0.1c0-0.1,0.1-0.2,0.1-0.3c0,0,0,0,0,0C57.4,51.1,58,49.4,58.1,47.2z M55.6,43.2c0,0.1,0,0.1,0.1,0.2
      c0.1,0.4,0.2,0.8,0.3,1.3l-1-1l-7.1-7.1l5.1-5.1c0,0,0,0,0,0.1c0,0,0,0,0,0c0,0,0,0.1,0,0.1c0,0,0,0.1,0,0.1c0,0.1,0,0.1,0,0.2
      c0,0,0,0.1,0,0.1c0,0.1,0,0.2,0,0.2c0,0.1,0,0.1,0,0.2c0,0.1,0,0.2,0,0.3c0,0.1,0,0.2,0,0.2c0,0.1,0,0.2,0,0.3c0,0.1,0,0.2,0,0.3
      c0,0.1,0,0.2,0,0.4c0,0.1,0,0.2,0,0.3c0,0.1,0,0.3,0,0.4c0,0.1,0,0.2,0,0.3c0,0.1,0,0.3,0.1,0.4c0,0.1,0,0.2,0.1,0.3
      c0,0.1,0,0.3,0.1,0.5c0,0.1,0,0.2,0.1,0.4c0,0.2,0.1,0.3,0.1,0.5c0,0.1,0,0.2,0.1,0.4c0,0.2,0.1,0.3,0.1,0.5c0,0.1,0.1,0.2,0.1,0.4
      c0,0.2,0.1,0.3,0.1,0.5c0,0.1,0.1,0.2,0.1,0.4c0.1,0.2,0.1,0.4,0.2,0.5c0,0.1,0.1,0.2,0.1,0.3c0.1,0.2,0.1,0.4,0.2,0.6
      c0,0.1,0.1,0.2,0.1,0.3c0.1,0.3,0.2,0.6,0.4,0.8C55.3,42.4,55.4,42.8,55.6,43.2z M46.5,35.2L35.3,24.1H53v4.7L46.5,35.2z M36,5.5
      V2.1h15v10H36V7.5 M53,14.1v8H34v-8H53z M34,30.3v-4.7l22.1,22.1c-0.1,0.9-0.3,1.7-0.5,2.2c-0.2,0.6-0.4,0.9-0.4,1.1c0,0,0,0,0,0
      c0,0-0.1,0.1-0.1,0.2c-0.6,1.1-1.8,1.8-3.5,2.1c0,0-0.1,0-0.1,0c-0.3,0.1-0.6,0.1-1,0.2c-0.8,0.1-1.6,0.1-2.5,0.1
      c-0.7,0-1.4-0.1-2.1-0.1c0,0-0.1,0-0.1,0c-0.3,0-0.6,0-1-0.1L27.9,36.5l2.3-0.8C32.5,34.8,34,32.6,34,30.3z M39.9,53.1
      C39.9,53.1,39.9,53.1,39.9,53.1c-3-0.1-6.1-0.1-9.8,0.3c0,0,0,0,0,0c-1.4,0.2-2.9,0.4-4.5,0.7c0,0-0.1,0-0.1,0L13.2,41.8l7.5-2.7
      l5-1.8l15.9,15.9C41,53.1,40.5,53.1,39.9,53.1z M2.2,47.2c-0.2-0.7-0.2-1.2,0-1.5c0.4-0.6,1.5-0.7,2-0.7c0,0,0,0,0.1,0H10v8.4
      C5.4,51.6,2.7,48.7,2.2,47.2z M22.1,54.8c-3.7,0.9-7.2,1.7-10.1,1V43.4l11.2,11.2c-0.1,0-0.1,0-0.2,0L22.1,54.8z"/>
  </symbol>
  <symbol id="icon-paid-this-year" viewBox="0 0 59 59">
    <title>paid this year</title>
    <path d="M52,34.48V5a1,1,0,0,0-1-1H46V1a1,1,0,0,0-1-1H38a1,1,0,0,0-1,1V4H15V1a1,1,0,0,0-1-1H7A1,1,0,0,0,6,1V4H1A1,1,0,0,0,0,5V56a1,1,0,0,0,1,1H39.1A13,13,0,1,0,52,34.48ZM39,2h5V8H39V2ZM8,2h5V8H8V2ZM2,6H6V9a1,1,0,0,0,1,1h7a1,1,0,0,0,1-1V6H37V9a1,1,0,0,0,1,1h7a1,1,0,0,0,1-1V6h4v8H2ZM2,55V16H50V33.64l-.6-.17-.56-.14-.51-.1-.74-.11-.41,0C46.8,33,46.4,33,46,33s-.67,0-1,.05V21H7V50H33.64l.1.26c.08.24.17.49.27.72s.12.26.18.39.23.51.36.75l.18.32c.15.26.3.51.46.76l.19.27c.18.25.36.5.55.74l.22.26c.15.18.3.36.47.54H2ZM40.31,34.33l-.32.16-.55.31-.47.29-.46.31-.51.38-.4.32c-.17.15-.34.31-.51.46l-.35.33c-.18.18-.35.38-.52.57L36,37.7V32h7v1.36h0A12.91,12.91,0,0,0,40.31,34.33ZM33.57,42.2c0,.12-.06.23-.09.35-.08.29-.16.58-.22.88s-.07.47-.11.7-.06.38-.08.57c0,.43-.07.87-.07,1.3s0,.73.05,1.09c0,.07,0,.13,0,.2s0,.32.07.48h0c0,.08,0,.15,0,.23H27V41h7l0,.07C33.82,41.44,33.69,41.82,33.57,42.2ZM9,41h7v7H9Zm0-9h7v7H9Zm34-2H36V23h7Zm-9,0H27V23h7Zm0,9H27V32h7ZM18,32h7v7H18Zm7-2H18V23h7Zm-9,0H9V23h7Zm2,11h7v7H18ZM46,57a10.93,10.93,0,0,1-6.11-1.86,11.06,11.06,0,0,1-1-.74l-.31-.29c-.2-.18-.39-.36-.57-.55l-.34-.37c-.16-.19-.32-.38-.47-.58l-.29-.38a11.15,11.15,0,0,1-.62-1L36.21,51c-.15-.29-.28-.58-.4-.87-.05-.13-.1-.26-.15-.4s-.18-.53-.26-.8l0-.19a11.45,11.45,0,0,1-.26-1.31v-.09A10.4,10.4,0,0,1,35,46a10.84,10.84,0,0,1,.06-1.13s0-.06,0-.09c0-.34.09-.68.16-1l0-.1c.07-.33.16-.66.26-1l0-.11c.1-.31.22-.62.35-.93s.26-.57.4-.84l.1-.17.13-.21q.26-.44.56-.85l.15-.2q.27-.36.57-.69l.21-.23c.2-.21.4-.4.61-.6l.22-.2c.25-.21.51-.41.77-.6l.12-.09a10.93,10.93,0,0,1,4.41-1.79h0A10.92,10.92,0,0,1,46,35a10.67,10.67,0,0,1,1.16.06l.18,0c.33,0,.65.09,1,.16l.12,0c.34.08.69.17,1,.28l.07,0q.52.18,1,.41A11,11,0,0,1,46,57Z"/>
    <path d="M47.39,51.88v1.44a.27.27,0,0,1-.27.27H45a.27.27,0,0,1-.27-.27V51.83A5.75,5.75,0,0,1,42,50.27l-.4-.43a.27.27,0,0,1,0-.38L43.09,48a.27.27,0,0,1,.38,0l.4.43a3.28,3.28,0,0,0,2.26.9c.67,0,1.79-.18,1.79-.83s-.24-.8-2-1.33c-1.49-.45-4-1.21-4-4a3.46,3.46,0,0,1,2.81-3.31V38.36a.27.27,0,0,1,.27-.27h2.07a.27.27,0,0,1,.27.27v1.4a6.29,6.29,0,0,1,2.43.87l.49.32a.27.27,0,0,1,.08.37l-1.13,1.74a.27.27,0,0,1-.37.08l-.49-.32a4,4,0,0,0-1.95-.52c-.7,0-1.88.19-1.88.91s.28,1,2.13,1.51c1.54.47,3.86,1.17,3.84,3.84C50.54,50.25,49.34,51.51,47.39,51.88Z"/>
  </symbol>
</defs>
</svg>
