<svg xmlns="http://www.w3.org/2000/svg" version="1" viewBox="0 0 50 50" enable-background="new 0 0 50 50">
    <path style="text-indent:0;text-align:start;line-height:normal;text-transform:none;block-progression:tb;-inkscape-font-specification:Bitstream Vera Sans" d="M 0.90625 -0.03125 A 1.0001 1.0001 0 0 0 0.78125 0 A 1.0001 1.0001 0 0 0 0.28125 1.71875 L 48.28125 49.71875 A 1.016466 1.016466 0 1 0 49.71875 48.28125 L 41.25 39.8125 C 41.536689 39.665111 41.810188 39.533048 42.09375 39.3125 C 42.29375 39.2125 42.39375 39.00625 42.59375 38.90625 C 43.79375 38.00625 45.20625 36.9125 47.40625 33.8125 C 49.10625 32.8125 49.9125 31.7 49.8125 30.5 C 49.8125 29.2 48.7125 28.1125 46.8125 27.3125 C 45.0125 25.2125 42.0125 22.9 38.8125 21 C 38.7125 20.9 38.6 20.4875 38.5 20.1875 C 38.2 19.0875 37.60625 17.39375 35.40625 16.09375 C 34.504901 15.535772 33.273926 15.038502 32.0625 14.59375 C 32.397864 13.858888 32.937149 12.472264 33.09375 10.90625 A 1.0001 1.0001 0 0 0 33.09375 10.875 C 33.301145 8.4899551 33.162208 6.4491815 32.9375 4.96875 C 32.825146 4.2285342 32.705503 3.6406537 32.5625 3.1875 C 32.491 2.9609232 32.413101 2.783733 32.3125 2.59375 C 32.2622 2.498759 32.207858 2.4068782 32.09375 2.28125 C 31.979642 2.1556218 31.789583 1.90625 31.3125 1.90625 C 30.942014 1.90625 30.809197 2.004771 30.71875 2.0625 C 30.6283 2.120229 30.577944 2.1765338 30.53125 2.21875 C 30.43786 2.303182 30.389372 2.3811178 30.3125 2.46875 C 30.158755 2.6440144 29.977765 2.8686414 29.78125 3.125 C 29.388221 3.6377172 28.900734 4.2864872 28.40625 4.96875 C 28.064096 5.4408354 27.753773 5.8775736 27.4375 6.3125 C 26.705965 2.9762081 25.06397 0 23.90625 0 C 23.10625 0 22.90625 0.5125 22.40625 1.8125 C 21.70625 3.5125 20.4125 6.7125 18.3125 8.8125 C 16.3125 10.7125 15.90625 13.2125 15.90625 14.3125 C 15.888641 14.32424 15.832116 14.361254 15.8125 14.375 L 1.71875 0.28125 A 1.0001 1.0001 0 0 0 0.90625 -0.03125 z M 24.1875 2.90625 C 24.8875 4.20625 25.8125 6.6125 25.8125 9.3125 C 25.8125 12.9125 26.09375 14.2125 26.09375 14.3125 C 26.19375 14.7125 26.5125 14.99375 26.8125 15.09375 C 26.9125 15.09375 31.90625 16.4125 34.40625 17.8125 C 36.00625 18.7125 36.29375 19.8125 36.59375 20.8125 C 36.79375 21.6125 37.1125 22.3125 37.8125 22.8125 C 40.9125 24.5125 43.90625 26.9125 45.40625 28.8125 C 45.50625 28.9125 45.6125 28.99375 45.8125 29.09375 C 47.4125 29.69375 47.90625 30.39375 47.90625 30.59375 C 47.90625 30.79375 47.6125 31.39375 46.3125 32.09375 C 46.2125 32.19375 46 32.30625 46 32.40625 C 43.9 35.40625 42.5 36.4125 41.5 37.3125 C 41.3 37.5125 41.10625 37.5875 40.90625 37.6875 C 40.571344 37.938679 40.191419 38.160498 39.71875 38.28125 L 17.25 15.8125 C 17.289204 15.782175 17.484487 15.609263 17.5 15.59375 C 17.8 15.39375 17.90625 15.1125 17.90625 14.8125 C 17.90625 14.8125 17.9125 12.0875 19.8125 10.1875 C 22.1125 7.9875 23.3875 4.80625 24.1875 2.90625 z M 30.90625 4.96875 C 30.92855 5.0930732 30.94792 5.1440237 30.96875 5.28125 C 31.167891 6.5932388 31.28166 8.4888311 31.09375 10.6875 C 31.09265 10.7002 31.09485 10.70603 31.09375 10.71875 C 30.935956 12.220019 30.306548 13.564239 30.125 13.9375 C 29.273577 13.671285 28.494643 13.444405 28 13.3125 C 27.9 12.6125 27.8125 11.4125 27.8125 9.3125 C 27.811075 9.2512394 27.783559 9.1865283 27.78125 9.125 C 27.863649 9.036 27.942286 8.9537392 28.03125 8.84375 C 28.198779 8.6366274 28.381009 8.3782008 28.59375 8.09375 C 29.019231 7.5248484 29.538234 6.8364872 30.03125 6.15625 C 30.353559 5.7115447 30.622475 5.3516763 30.90625 4.96875 z M 12.6875 16.6875 C 11.3875 17.6875 9.99375 18.8875 8.59375 20.1875 C 5.09375 23.3875 0.2875 28.5 0.1875 28.5 C -0.2125 28.9 -0.2125 29.50625 0.1875 29.90625 C 0.5875 30.30625 1.19375 30.30625 1.59375 29.90625 C 1.59375 29.90625 6.4125 24.7875 9.8125 21.6875 C 11.2125 20.3875 12.7 19.1875 14 18.1875 L 12.6875 16.6875 z M 33 21 C 31.895431 21 31 21.895431 31 23 C 31 24.104569 31.895431 25 33 25 C 34.104569 25 35 24.104569 35 23 C 35 21.895431 34.104569 21 33 21 z M 25.59375 35.09375 C 21.09375 35.09375 18.40625 39.60625 18.40625 43.90625 C 18.40625 45.20625 18.3125 48.90625 18.3125 48.90625 L 20.3125 48.90625 C 20.3125 48.90625 20.40625 45.2125 20.40625 43.8125 C 20.40625 40.5125 22.29375 37 25.59375 37 C 29.09375 37 33.7 38.7 35.5 39.5 L 35.59375 39.5 L 32.3125 36.3125 C 30.2125 35.6125 27.79375 35.09375 25.59375 35.09375 z" color="#000" overflow="visible" enable-background="accumulate" font-family="Bitstream Vera Sans"></path>
</svg>