<svg xmlns="http://www.w3.org/2000/svg" viewBox="0 0 445.64 445.64"><defs><style>.cls-1{fill:#fff;}</style></defs><title>Asset 6</title><g id="Layer_2" data-name="Layer 2"><g id="Capa_1" data-name="Capa 1"><circle cx="222.82" cy="222.82" r="222.82"/><circle class="cls-1" cx="175.22" cy="94.24" r="26.97"/><path class="cls-1" d="M270.57,145.76a13,13,0,0,0-8.83-7.73l-44.18-11.28a44,44,0,0,0-17.13-.93l-25.48,3.64a18.22,18.22,0,0,0-15.59,17.67l37-10.35L153.62,161.7l-40.41-19.84h0a13,13,0,0,0-11.47,23.36l47.61,23.36a13.06,13.06,0,0,0,12.28-.43h0l46.19-27.78-40.87,40,3.95,27.94,21.54-3.46-51.06,37.84a15.62,15.62,0,0,0-4.74,5.7L104.17,333.1a15.62,15.62,0,1,0,28.08,13.69l30.82-61.28,65.69-48.26A24.51,24.51,0,0,0,238.5,214l-.72-4.93,31.8-51.6A13,13,0,0,0,270.57,145.76Zm-38.63,23.18-1.77-12.14,8,2Z"/><path class="cls-1" d="M350.84,290a2.18,2.18,0,0,0-4.34.27,41.4,41.4,0,0,1-.9,6.39,39.16,39.16,0,0,1-5.15,12.89,27.64,27.64,0,0,1-8,8.25c-1.63-1.88-6.19-5.52-18.06-8-1.65-.47,2.29.18-51.23-7.74,0,0-2.65-3.59-5.66-7.62-.52.7-1,1.36-1.54,2-3.7,4.5-8.7,9-14.22,7-6.34-2.24-6.56-10.83-6.63-13.66a52.4,52.4,0,0,1,.39-7.59l-.14,0a14.56,14.56,0,0,0-10.76,10.63l-6,3.66a4.44,4.44,0,0,0-1.4,6.2c-5.63,1.37-12,3-17,4.21l-.81-6.74,8.54-38.55-38.27,28.36c-1.4,6.33-2,8-1.59,11.27l7.61,63.27a15.62,15.62,0,1,0,31-3.73l-2.94-24.49,18.41-27.63a10.5,10.5,0,0,0,11,1.93,7.23,7.23,0,0,1,9.57,4.41c2.41,7.23,6.3,18.19,9.84,25.22l-15.83,29.18a6,6,0,1,0,10.54,5.72L263,346.32c7.13-.8,19.33-2.28,31.27-3.8.41-7.11,4.13-14.51,10.85-19.92a3.22,3.22,0,0,1,4,5,23.9,23.9,0,0,0-6.31,7.66c-2.23,5.34-3.29,14.36-.35,20l-7.71,14.21a6,6,0,1,0,10.54,5.72l9.71-17.9c7.52-2.29,11.66-6.25,15.4-14.57a22.88,22.88,0,0,0,1.66-11.3,36.41,36.41,0,0,0,15.81-18.14,48.38,48.38,0,0,0,3-23.3Z"/><path class="cls-1" d="M250.33,279.12c-4-1.4-8-.28-8.7,1.76s-1.95,15.76,2,17.16S255.28,288,256,286,254.3,280.52,250.33,279.12Z"/></g></g></svg>