<svg id="Layer_1" data-name="Layer 1" xmlns="http://www.w3.org/2000/svg" viewBox="0 0 595.28 515"><defs><style>.cls-1{fill:#b1529f;}.cls-2{fill:#fff;}</style></defs><title>menacing-5</title><rect class="cls-1" width="595.28" height="515"/><path class="cls-2" d="M147.26,220.54,51,359a170.54,170.54,0,0,0-33.67,1c20.93-15.71,42-28.77,57.85-50.13a190.69,190.69,0,0,0-60.76-4.13C44,285,82.1,294.77,109.91,277.85A96.31,96.31,0,0,0,59,258.58C73,254,166.75,257.83,170.3,252.07c-21.51-30.88-82.13-79.3-74.77-123.44,46.2,10.27,75.14,24,115.61,42.71,24.1,11.11,57.86,9.72,31.91,4.53,7.81-4.34,74.28,10.37,86.58,11.07s59.85,3.35,58,2.74c26,2.17,33.86,26.29,57.41,32.7,12.82,3.49,46.56-4.82,58.79-7,44.19-7.79,39.14-26.12,58.07,13.06,1.58,3.28-1.33,72.17-.59,70.94q-4.15-12.87-9.45,8c-1.79-8.94-10.89-13.8-18.17-15.26,0,6.88,2.64,29.77-5.81,33.79-6.61-13.21,1.53-1.24-11.26-.73a70.8,70.8,0,0,0-6.63-26c-1.06,2.16-15.66,10.4-19.53,13.31-8.59-8.59-26.9,2.34-33.07,11.74-41.23,62.86,42.37-.36,52.46,39.92-2.52-10-47.66,12.56-55.37,7.94,14.85,24.82,43.52,22.34,62.13,2,5.51,3.49,6.66,19.5,11.08,1.84-3.57-4.36,24.69,48.76,26.12,40.2-5.62,33.7-52.6,20.49-62.27,47.55A57.19,57.19,0,0,1,493,446.93q-10.44-1.4-16.71,7.27a57,57,0,0,0,1.45-15.26c-3.87-5.16-36.58,12.35-43.51,13,12.87-4.69-14.66-8.1-31.34,3-6.4-44.87-100.31,43.74-103.69,46.33-28.75,21.93-20.28,25.11-61,7.38-25.66-11.17-38.8-31.91-71.47-31.91,26.22-18.27-58.14-40.33-72.67-34.88,23.1-49.35.85-21.94-53.78-35.12C58.08,402.16,81.56,364.09,51,359Zm452.68,6.4Zm1.49.08-.3,0ZM518,396.42s4.58,4.54,10.67,2.54c.73-3.63.82-13.81-1.36-16-1.64,4.18-3.54,4.63-6.45,7.54-2.91-3.63-.71-7.25-3.62-10.15-1.41,1.83-6,6.25-10.37,7.7C507.13,390.52,513.3,397.51,518,396.42Zm24.66-98.65c2.72-1.89,4.91-14.9,4.91-14.9s6.09,5.63,6.72,13.26c3.44-2.35-1.48-20.34-2.9-25.27a11.69,11.69,0,0,1-2.18-1.43c-4.06,2.17-9,3.27-14,4l-2.44,10.61a2.55,2.55,0,0,0,.81.41C536.83,285.42,541.73,292.87,542.64,297.77ZM519.93,319c9-9.88,7.81-35.92,7.81-35.92-5.81-.73-9.27,4.91-9.27,4.91s-10.9-4.72-10.9,1.45C515,292.14,517.39,313.34,519.93,319Zm-23.25-20.3c3.49,1.75,5.58-2.09,8.52-4.81a9,9,0,0,1-.16-8.27c1.68-3.25,5.45-4.36,12.64-2,2.13-2.4,6.43-4.33,9.54-5.5l-1.83-3.29a71.7,71.7,0,0,0-7.38,1.34c-8,2.18-15,7.45-22.22,11.08l-.38.14L493.85,295C494.49,296.47,495.21,297.95,496.68,298.68Zm-12.42,4c1,.32,4.63-3.48,6.62-9L488,288.89c-3.68.29-7.49.1-11.29.14l-1.53,6.62C478.47,299.26,481.55,301.82,484.27,302.68Zm-21.5,8.72c2.79,0,7.59-11,9.66-15.69l-4.15-5.89a59.24,59.24,0,0,0-15.69,4.42l1.2,13.46C456.47,309.59,459.7,311.4,462.77,311.4Zm-20.59,8.36c1.1-1.1,5.56-9.33,8.28-12.27l-6.84-7.1a38.36,38.36,0,0,0-7.25,9.92,77.72,77.72,0,0,0-4.16,9.2C435.12,323.44,437.84,324.64,442.18,319.75ZM253.6,198.27" transform="translate(0 -61)"/></svg>