<?xml version="1.0" encoding="utf-8"?>
<!-- Generator: Adobe Illustrator 20.0.0, SVG Export Plug-In . SVG Version: 6.00 Build 0)  -->
<svg version="1.1" id="Layer_1" xmlns="http://www.w3.org/2000/svg" xmlns:xlink="http://www.w3.org/1999/xlink" x="0px" y="0px"
	 viewBox="0 0 595.3 515" style="enable-background:new 0 0 595.3 515;" xml:space="preserve">
<style type="text/css">
	.st0{fill:#724315;}
</style>
<title>menacing-6</title>
<path class="st0" d="M51,298c-11.2-0.8-22.5-0.4-33.7,1c20.9-15.7,42-28.8,57.8-50.1c-19.9-4.6-40.4-6-60.8-4.1
	c29.6-20.7,67.7-11,95.5-27.9C95.1,205.7,77.5,199,59,197.6c14-4.6,107.8-0.8,111.3-6.5c-21.5-30.9-82.1-79.3-74.8-123.4
	c46.2,10.3,75.1,24,115.6,42.7c24.1,11.1,57.9,9.7,31.9,4.5c7.8-4.3,74.3,10.4,86.6,11.1s59.9,3.4,58,2.7
	c26,2.2,33.9,26.3,57.4,32.7c12.8,3.5,46.6-4.8,58.8-7c44.2-7.8,39.1-26.1,58.1,13.1c1.6,3.3-1.3,72.2-0.6,70.9
	c-2.8-8.6-5.9-5.9-9.5,8c-1.8-8.9-10.9-13.8-18.2-15.3c0,6.9,2.6,29.8-5.8,33.8c-6.6-13.2,1.5-1.2-11.3-0.7c-0.5-9-2.8-17.8-6.6-26
	c-1.1,2.2-15.7,10.4-19.5,13.3c-8.6-8.6-26.9,2.3-33.1,11.7c-41.2,62.9,42.4-0.4,52.5,39.9c-2.5-10-47.7,12.6-55.4,7.9
	c14.9,24.8,43.5,22.3,62.1,2c5.5,3.5,6.7,19.5,11.1,1.8c-3.6-4.4,24.7,48.8,26.1,40.2c-5.6,33.7-52.6,20.5-62.3,47.5
	c-0.3-5.6,0.2-11.3,1.5-16.7c-7-0.9-12.5,1.5-16.7,7.3c1.2-5,1.7-10.1,1.5-15.3c-3.9-5.2-36.6,12.4-43.5,13
	c12.9-4.7-14.7-8.1-31.3,3c-6.4-44.9-100.3,43.7-103.7,46.3c-28.8,21.9-20.3,25.1-61,7.4c-25.7-11.2-38.8-31.9-71.5-31.9
	c26.2-18.3-58.1-40.3-72.7-34.9c23.1-49.4,0.8-21.9-53.8-35.1C58.1,341.2,81.6,303.1,51,298 M601.4,166h-0.3H601.4z M518,335.4
	c0,0,4.6,4.5,10.7,2.5c0.7-3.6,0.8-13.8-1.4-16c-1.6,4.2-3.5,4.6-6.5,7.5c-2.9-3.6-0.7-7.2-3.6-10.1c-1.4,1.8-6,6.2-10.4,7.7
	C507.1,329.5,513.3,336.5,518,335.4z M542.7,236.8c2.7-1.9,4.9-14.9,4.9-14.9s6.1,5.6,6.7,13.3c3.4-2.4-1.5-20.3-2.9-25.3
	c-0.8-0.4-1.5-0.9-2.2-1.4c-4.1,2.2-9,3.3-14,4l-2.4,10.6c0.2,0.2,0.5,0.3,0.8,0.4C536.8,224.4,541.7,231.9,542.7,236.8L542.7,236.8
	z M519.9,258c9-9.9,7.8-35.9,7.8-35.9c-5.8-0.7-9.3,4.9-9.3,4.9s-10.9-4.7-10.9,1.4C515,231.1,517.4,252.3,519.9,258z M496.7,237.7
	c3.5,1.8,5.6-2.1,8.5-4.8c-1.4-2.6-1.5-5.7-0.2-8.3c1.7-3.2,5.5-4.4,12.6-2c2.1-2.4,6.4-4.3,9.5-5.5l-1.8-3.3
	c-2.5,0.3-4.9,0.8-7.4,1.3c-8,2.2-15,7.4-22.2,11.1l-0.4,0.1l-1.6,7.6C494.5,235.5,495.2,236.9,496.7,237.7L496.7,237.7z
	 M484.3,241.7c1,0.3,4.6-3.5,6.6-9l-2.9-4.8c-3.7,0.3-7.5,0.1-11.3,0.1l-1.5,6.6C478.5,238.3,481.5,240.8,484.3,241.7L484.3,241.7z
	 M462.8,250.4c2.8,0,7.6-11,9.7-15.7l-4.1-5.9c-5.4,0.7-10.7,2.2-15.7,4.4l1.2,13.5C456.5,248.6,459.7,250.4,462.8,250.4
	L462.8,250.4z M442.2,258.8c1.1-1.1,5.6-9.3,8.3-12.3l-6.8-7.1c-2.9,2.9-5.4,6.2-7.2,9.9c-1.6,3-3,6-4.2,9.2
	C435.1,262.4,437.8,263.6,442.2,258.8L442.2,258.8z"/>
</svg>
