<?xml version="1.0" encoding="iso-8859-1"?>
<!-- Generator: Adobe Illustrator 18.0.0, SVG Export Plug-In . SVG Version: 6.00 Build 0)  -->
<!DOCTYPE svg PUBLIC "-//W3C//DTD SVG 1.1//EN" "http://www.w3.org/Graphics/SVG/1.1/DTD/svg11.dtd">
<svg version="1.1" id="Capa_1" xmlns="http://www.w3.org/2000/svg" xmlns:xlink="http://www.w3.org/1999/xlink" x="0px" y="0px"
	 viewBox="0 0 329 329" style="enable-background:new 0 0 329 329;" xml:space="preserve">
<path d="M164.5,0C73.794,0,0,73.794,0,164.5S73.794,329,164.5,329S329,255.206,329,164.5S255.206,0,164.5,0z M179,231.519V247.5
	c0,1.657-1.343,3-3,3h-23c-1.657,0-3-1.343-3-3v-16.568c-12.122-2.911-23.325-9.124-31.031-17.265l-4.469-4.721
	c-0.547-0.578-0.842-1.35-0.82-2.145c0.022-0.795,0.359-1.549,0.937-2.097l16.706-15.81c1.205-1.139,3.105-1.084,4.241,0.117
	l4.468,4.721c5.681,6.003,15.768,10.036,25.101,10.036c7.379,0,19.867-1.949,19.867-9.256c0.053-6.313-2.682-8.848-22.011-14.702
	c-16.529-5.006-44.191-13.385-44.191-44.53c0-17.444,11.89-31.319,31.203-36.664V81.5c0-1.657,1.343-3,3-3h23c1.657,0,3,1.343,3,3
	v15.528c9.989,1.473,19.686,4.914,26.941,9.601l5.459,3.528c1.392,0.899,1.791,2.756,0.892,4.147l-12.48,19.319
	c-0.898,1.391-2.755,1.792-4.148,0.892l-5.46-3.527c-5.163-3.335-14.242-5.756-21.588-5.756c-7.733,0-20.82,2.116-20.82,10.047
	c0,7.46,3.097,10.566,23.598,16.775c17.063,5.168,42.85,12.977,42.604,42.577C213.999,213.425,200.662,227.389,179,231.519z"/>
<g>
</g>
<g>
</g>
<g>
</g>
<g>
</g>
<g>
</g>
<g>
</g>
<g>
</g>
<g>
</g>
<g>
</g>
<g>
</g>
<g>
</g>
<g>
</g>
<g>
</g>
<g>
</g>
<g>
</g>
</svg>
