<?xml version="1.0" encoding="iso-8859-1"?>
<!-- Generator: Adobe Illustrator 19.1.0, SVG Export Plug-In . SVG Version: 6.00 Build 0)  -->
<svg version="1.1" id="Capa_1" xmlns="http://www.w3.org/2000/svg" xmlns:xlink="http://www.w3.org/1999/xlink" x="0px" y="0px"
	 viewBox="0 0 334.15 334.15" style="enable-background:new 0 0 334.15 334.15;" xml:space="preserve">
<g>
	<path d="M304.51,267.825L304.51,267.825c-6.067,0-11.851-1.851-16.71-5.283l-0.418,0.398l-4.473-4.698L181.738,147.689
		c-3.766,3.355-7.584,6.536-11.408,9.512c1.787,3.291,2.744,6.999,2.744,10.848c0,6.08-2.365,11.787-6.671,16.08
		c-8.573,8.586-23.561,8.593-32.153-0.006l-62.109-62.115c-8.856-8.869-8.856-23.291,0-32.153
		c7.018-7.025,18.445-8.535,26.922-3.927c5.784-7.481,12.063-14.615,18.734-21.286c11.118-11.118,23.233-20.971,35.393-28.824
		c-6.408-8.882-5.617-21.382,2.365-29.371c8.599-8.593,23.574-8.593,32.16-0.013l62.115,62.115c8.869,8.869,8.869,23.304,0,32.173
		c-7.719,7.725-20.714,8.644-29.377,2.365c-2.545,3.927-5.309,7.873-8.297,11.819l116.737,106.833l-0.533,0.54
		c3.374,4.852,5.174,10.559,5.174,16.53c0,7.751-3.021,15.039-8.496,20.514S312.261,267.825,304.51,267.825z M288.038,244.74
		l5.174,5.63c5.836,5.848,16.626,5.977,22.725-0.129c3.059-3.053,4.73-7.108,4.73-11.427c0-4.319-1.677-8.374-4.73-11.427
		l-0.784-0.617l-4.936-4.537l0.077-0.077L194.662,116.326l3.753-4.692c5.855-7.32,10.938-14.66,15.109-21.826l4.197-7.211
		l9.023,9.023c3.734,3.74,10.257,3.747,13.991,0.006c3.863-3.856,3.863-10.135,0-13.991l-62.115-62.109
		c-3.74-3.728-10.244-3.734-13.985,0.006c-3.843,3.85-3.843,10.122,0.006,13.978l9.043,9.03l-7.217,4.203
		c-13.477,7.847-27.166,18.561-39.589,30.99c-7.744,7.738-14.93,16.151-21.363,25.007l-4.422,6.086l-5.887-5.887
		c-3.734-3.734-10.251-3.734-13.985,0c-3.85,3.856-3.85,10.129,0,13.985l62.109,62.109c3.74,3.74,10.257,3.74,13.978,0.006
		c1.877-1.87,2.905-4.351,2.905-6.992c0-2.641-1.028-5.129-2.898-6.999l-5.881-5.881l6.093-4.422
		c6.793-4.936,13.593-10.591,20.206-16.819l4.743-4.467l105.522,115.31L288.038,244.74z M189.135,334.15H0.617v-6.427
		c0-18.226,14.293-33.175,32.263-34.236c3.927-8.785,12.783-14.75,22.712-14.75h78.574c9.936,0,18.792,5.964,22.719,14.75
		c17.963,1.06,32.256,16.009,32.256,34.236v6.427H189.135z M14.454,321.297h160.838c-2.738-8.696-10.868-15.013-20.45-15.013h-7.873
		l-1.054-5.135c-1.138-5.534-6.086-9.557-11.761-9.557H55.586c-5.668,0-10.617,4.023-11.755,9.557l-1.054,5.135h-7.866
		C25.322,306.284,17.192,312.601,14.454,321.297z"/>
</g>
<g>
</g>
<g>
</g>
<g>
</g>
<g>
</g>
<g>
</g>
<g>
</g>
<g>
</g>
<g>
</g>
<g>
</g>
<g>
</g>
<g>
</g>
<g>
</g>
<g>
</g>
<g>
</g>
<g>
</g>
</svg>
