<svg xmlns="http://www.w3.org/2000/svg" viewBox="0 0 65.82 66.06"><title>prosecution-2</title><g id="Layer_2" data-name="Layer 2"><g id="Capa_1" data-name="Capa 1"><path d="M1.68,51.27A5.73,5.73,0,0,1,1,43.95l-.11-.11L24,22.72q-.89-1.17-1.64-2.34a4.6,4.6,0,0,1-5.81-.47,4.5,4.5,0,0,1,0-6.36L28.83,1.27a4.61,4.61,0,0,1,6.36,0,4.5,4.5,0,0,1,.47,5.81,43.15,43.15,0,0,1,7,5.7A44.16,44.16,0,0,1,46.36,17a4.6,4.6,0,0,1,5.32.78,4.5,4.5,0,0,1,0,6.36L39.4,36.4a4.6,4.6,0,0,1-6.36,0,4.5,4.5,0,0,1-.78-5.32c-.76-.59-1.51-1.22-2.26-1.88L10,51.06,9.12,52,9,51.91a5.7,5.7,0,0,1-3.3,1h0A5.71,5.71,0,0,1,1.68,51.27ZM9,48.39l20.86-22.8.94.88a41.13,41.13,0,0,0,4,3.33l1.2.87-1.16,1.16a2,2,0,0,0,0,2.77,2,2,0,0,0,2.76,0L49.88,22.33a2,2,0,0,0,0-2.76,2,2,0,0,0-2.76,0L46,20.72l-.87-1.2a41.44,41.44,0,0,0-4.22-4.94A39.25,39.25,0,0,0,33,8.45L31.6,7.62l1.79-1.79a2,2,0,0,0,0-2.76,2,2,0,0,0-2.76,0L18.35,15.35a2,2,0,0,0,0,2.77,2,2,0,0,0,2.77,0l1.78-1.78.83,1.43a35.82,35.82,0,0,0,3,4.32l.74.93L4.59,43.92l0,0-1,.9L3.48,45a3.2,3.2,0,0,0,0,4.52A3.29,3.29,0,0,0,8,49.5l1-1.11ZM28.55,66.06V64.79A6.79,6.79,0,0,1,34.92,58a4.94,4.94,0,0,1,4.49-2.92H55A4.94,4.94,0,0,1,59.44,58a6.79,6.79,0,0,1,6.38,6.77v1.27H28.55ZM59,60.55H57.48l-.21-1A2.38,2.38,0,0,0,55,57.65H39.42a2.38,2.38,0,0,0-2.33,1.89l-.21,1H35.33a4.24,4.24,0,0,0-4,3h31.8A4.24,4.24,0,0,0,59,60.55Z"/></g></g></svg>