<svg xmlns="http://www.w3.org/2000/svg" viewBox="0 0 445.64 445.64"><defs><style>.cls-1{fill:#fff;}</style></defs><title>Asset 2</title><g id="Layer_2" data-name="Layer 2"><g id="Capa_1" data-name="Capa 1"><circle cx="222.82" cy="222.82" r="222.82"/><path class="cls-1" d="M295.19,142.23l8.69-10.87a34.48,34.48,0,0,0-5.41-48.49l-.55-.45a34.48,34.48,0,0,0-48.49,5.41l-8.65,10.84Z"/><path class="cls-1" d="M242.33,233.63a10.37,10.37,0,0,0,18.4,5.34l59.68-74.64a10.36,10.36,0,0,0-1.83-14.74,10.55,10.55,0,0,0-14.51,2l-5.82,7.27-10-8,0,0-54.37-43.6L94.81,281.12l54.41,43.56L275.37,167l10,8-40.8,51A10.29,10.29,0,0,0,242.33,233.63Z"/><path class="cls-1" d="M140.18,332.73,88.92,291.67A52,52,0,0,0,87.67,297L75.93,353.29a5.05,5.05,0,0,0,7,5.63l52.31-23.81S137.57,334.14,140.18,332.73Z"/><path class="cls-1" d="M362.37,342.8a9.11,9.11,0,0,0-1.32.1L282,353.13a4.85,4.85,0,0,1-4.7-7.4c1.19-1.83,2.35-3.7,3.51-5.57,3.06-5-1-11.55-6.69-11.55a7.74,7.74,0,0,0-1.19.1l-103.6,15.57-12.39,1.87-33.78,5.08a7.06,7.06,0,0,0-6.08,7.72,7.66,7.66,0,0,0,2,4.6,6.89,6.89,0,0,0,5.15,2.25,7.78,7.78,0,0,0,1.19-.1l123.48-18.56a4.83,4.83,0,0,1,4.63,7.59c-.8,1.09-1.61,2.22-2.41,3.31a8.86,8.86,0,0,0,.87,10.68,6.59,6.59,0,0,0,4.76,2.06,3.85,3.85,0,0,0,.61,0h.06L364,357.18H364a6.57,6.57,0,0,0,4.5-3,7.72,7.72,0,0,0,1.06-6A7.18,7.18,0,0,0,362.37,342.8Z"/></g></g></svg>