<svg xmlns="http://www.w3.org/2000/svg" viewBox="0 0 185.89 209.05"><defs><style>.cls-1{fill:#2c2726;}.cls-2{fill:#524239;}.cls-3{fill:#66584f;}.cls-4{fill:#d1c4ba;}.cls-5{fill:#afa094;}.cls-6{fill:#e4dcd1;}.cls-7{fill:#c4b4a8;}.cls-8{fill:#ede7de;}.cls-9{fill:#857568;}.cls-10{fill:#dbd1c7;}.cls-11{fill:#80634c;}.cls-12{fill:#958376;}.cls-13{fill:#a57a55;}.cls-14{fill:#b48f6c;}.cls-15{fill:#c9a27f;}</style></defs><title>coll</title><g id="Layer_2" data-name="Layer 2"><g id="Layer_1-2" data-name="Layer 1"><path class="cls-1" d="M77.57,26.66c-1.25,0-2.85.56-3.38-1.16a2.08,2.08,0,0,1,1.65-2.63c1.18-.37,2-.76.58-1.83-1.69-1.3-3-2.52-1.36-4.87.53-.79-.81-1.41-1.54-1.34-1.7.16-3.77-1.11-5,.81-2,3.13-5.49,5-7.66,7.61s-3.8,3.08-4.36-1.13c-.12-.86-1-1.62-1.6-2.42a3.9,3.9,0,0,1-5-.79c-4.09-5-9.83-4.71-15.2-4.79-2.48-.06-4.68-1.23-7-1.06-1.9,1.82,2.77,1.38.91,3.26-1.18,1.19-2.27.77-3.61.5-4.49-.86-8.72.31-12.84,2-5.57,4.66-10.1,9.86-9.22,17.86.38,3.48,2.19,4.52,5.48,3.65,3-.79,5.16-2.8,7.42-4.7C17,33.81,19.31,33.14,20.09,31c1.13-6,6.13-9.2,11.51-7.2,3.64,1.38,6.51,3.66,7.46,7.72l1.09,1.12c1.07.19,2.73-.1,2.36,1.67a3.87,3.87,0,0,1-2.7,3.31c-1.6.39-3.27,1-4.84.91-3.4-.31-5.85,1.17-8.09,3.38l.29,1.69L28,44a2,2,0,0,0,.82,0c4-4,9.11-3.23,14.35-3.15-1.77,1.62-3.84.36-5.32,1.43-1.26.91-3.75.82-3.49,2.91.21,1.67,1.91,2.6,3.79,2.6A14.07,14.07,0,0,1,40,48c1.53,2.07-2.89,1.58-1.21,3.3,1,1,2.39.52,3.8.11s3.1-1.59,3.88.33-1.3,3.1-2.58,3.66c-9.19,4-10.46,12.87-12.86,20.93-.54,1.9-.44,3.6-3,3.41l-1,5q1.4,1.07-.09,2l-.09,2c1.16,1.71,1.26,3.16-1,4,0,8.7,0,17.42-1.88,26,1.46,4.45-1.32,8.09-3.2,11.28-3.48,5.92-.63,12-1.77,17.8a1.4,1.4,0,0,0,1.24,1.75c2-.24,4-1.37,5.34,1.63.4.91,2.49-.59,2.54-1.47.24-3.92,4.09-3.73,6-5.67,1-1,1.75-1,3-.09,2,1.45,4.3,2.32,7,1.32,2.52-.88,2.91,2.29,4.72,3C51.22,142,56,136.19,53,128.64c-.52-1.32-.63-3.47,1.81-3.93l.16-5-.18-3a4.71,4.71,0,0,1-.38-.68s.22-.18.33-.28q.07-1.53.13-3.06a7.52,7.52,0,0,1,0-.89l-.24-1L54,109.66v-3.89C53.45,100.26,50.37,96.12,47,92c-1.89-2.37-2.93-5.4-4.36-8.14l-.12-2c-2.16-.09-3.46-.67-2.07-3.09l2.22-2.23c1.52-2.28,3.52-4.16,4.2-7.08s3.42-2.53,5.61-2.92l2.4-2.78c-.6-.44-.92-1.41-.34-1.55,4-1,7.39-4.07,11.84-3.49l.73-2.79c-3.51-4.83-2.78-6.67,3.31-8.36,1.18-2.28,1.51-5,3.38-6.93.82-5.2.27-11.06,6.91-13.65C79.57,25.48,78.51,26.66,77.57,26.66Z"/><path class="cls-2" d="M82.74,3.53h0Z"/><path class="cls-2" d="M99.87,15.67c-1.5,1-3.18,1.5-4.71,2.5-2,1.28-3.32-1.23-4.2-2.37-1.91-2.49,1.45-3.25,2.45-4.38,2.84-3.18,2.47-8-1.35-10.26a3.07,3.07,0,0,0-3.1.5c-.63,1.15-1.57,1.14-2.63.73l-1.44.35a1.72,1.72,0,0,1-2.1.8c-1.09,2-3,1-4.6,1.3L77.95,5c-.63,1-1.57.87-2.57.87-2.17.67-4.25,1.52-5.55,3.52a.62.62,0,0,1-.69.39c-2.4.68-4.16,2.41-6.16,3.74-2.83,3.73-7,3.2-11,3.28.15,1.93,2.45,1.52,2.92,2.93.6.81,1.49,1.56,1.6,2.42.55,4.21,2.07,3.94,4.36,1.13s5.66-4.49,7.66-7.61c1.25-1.92,3.32-.65,5-.81.73-.07,2.07.55,1.54,1.34-1.64,2.35-.33,3.58,1.36,4.87,1.42,1.07.6,1.47-.58,1.83l-.23.05a2.08,2.08,0,0,0-1.42,2.58c.52,1.73,2.13,1.16,3.38,1.16.93,0,2-1.18,3.18.28-6.64,2.58-6.09,8.44-6.91,13.65,2.44-1.14,2.9-3.27,3.12-5.7s1.43-3.94,4-4.1l2.94-.15c.68-1,.74-2.73,2.37-2.54,1.22.14,1.62,1.36,1.69,2.55l1.66.51c3.13-2.81,2.47-6.41,1.34-10.67,3.32,2.23,2.56,4.84,2.91,7.14.24,1.27-1.21,2.87,2,3.71,2.49.66,2.75,5.41,4,8.35.17-2.84-1.2-7.34,2.29-7.72,5.13-.56,4.71-5.46,7.71-7.33v-3.9C102.51,22.16,102.39,22.09,99.87,15.67Zm-40.44,5c-.67-.18-1.07-.5-.71-1a1.59,1.59,0,0,1,1.18-.56c.21,0,.41.65.61,1Z"/><path class="cls-3" d="M176.8,28.6c-.65-3-4.93-4.34-3.56-8.17-3.53-.63-6.9.72-10.35.87-4.53.19-8.72-1.37-13.72-.14-4,1-9.43-1.41-13.87-3.6-5.91-2.92-9.71-9-16.28-10.86a3.09,3.09,0,0,0-.06,1v1l1.1,1.09c3.51.85,6.64,2.21,7.94,6,.73.32,1.8.45,2.1,1,.47.82-.64,1.06-1.15,1-3.16-.35-6.81,3.06-9.54-1.35-.85-1.36-2.81-.5-4.23-.82-.9,2.57-3,4-5.22,5.19v3.9c1.33,4.16,1.33,4.16,7.16-.84-2.9,3.41,2,5.76.79,8.94.76,1.09,1.89.95,3,.95-.58-6.71,5.27-3.9,8.27-5.53-.71-2.13-3.34-1.22-4.29-2.83,3-3.37,7.55-1.86,13.1,4.33,1.31.09,2,.74,1.9,2.09,1.51-.29,4.11-.11,2.3-2.67-1.21-1.71-.91-2.8.25-3.8,1.85-1.54,2.37.88,3.53,1.46,2.58-3.5,6.37-4.11,10.37-4.5,3.38-.33,3.45,3.5,6.11,4.37,1.07.35-1.41,2.74-2.49,4.08l-1.4,4.12h10.55c1.7-.45,4.26.88,4.38-2.71,0-1.49,2.06-2.33,3.72-2.7A4.34,4.34,0,0,1,176.8,28.6Z"/><path class="cls-4" d="M178.35,104.77c-1.19-1.42-2.78-3-2.29-4.77,1-3.58-.59-6-2.65-8.53-.19-.24,0-.86,0-1.24,1.61-.69,2.72,1.4,4.24.57A5.78,5.78,0,0,0,176,86.64a32.9,32.9,0,0,1-6.9-13.54c-.58-2.41-.06-6.41-3.92-7.41-.94,5.18.36,9.94,1.9,14.93,1.65,5.26,1.87,11,2.76,16.48.41,2.53-3.45,1.3-3.16,3.68l.75,1.9c1.06,4.55,2,9.26,5.82,12.55,2-1.91,1.36-4.06-.18-6.58a10.38,10.38,0,0,1,2.56.42c1.54.83,3.19.68,4.09-.55C180.83,107,179.26,105.85,178.35,104.77Z"/><path class="cls-3" d="M169.88,97.1c-.88-5.48-1.11-11.21-2.76-16.48-1.56-5-2.86-9.74-1.92-14.93l-.66-1.37c-1.91-2.75-5.34-5.43-.4-8.51l-.2-2c-1.69-1-1.37-2.73-1.37-4.31l-1.26.15L161,50.76c-.26.76-.58.78-1,.13-2.48-.3-4.36-2.47-7-2.07.4,3.54,4.26,6,3,10,3.08-.4,3.08,1.75,3.08,3.83l1,1.1c2,1.33,2.74,2.92,1,5l.91,6c1.77,1.81.76,4.06.87,6.06l2,17.51c.14,1.21.37,2.31,1.87,2.46C166.43,98.4,170.29,99.63,169.88,97.1Z"/><path class="cls-1" d="M179.39,33.83a3.58,3.58,0,0,1-2.26-4.28v-.07c-1.66.37-3.72,1.21-3.72,2.7-.11,3.59-2.67,2.26-4.38,2.71L168,37.69l2.56.33c1.44-.37,2.85-.21,2.92,1.51s-1.6,1.06-2.6,1.16a1.79,1.79,0,0,0-.1,1c.64.35,1.12,1.06.57,1.51s-1.52.38-2.31.54a30.91,30.91,0,0,0,7.45,11C177.89,56.1,179,56.55,180,54,182.66,47.11,183,40.44,179.39,33.83Z"/><path class="cls-5" d="M23.55,87l-2-.36c-1.23,1,0,3.11-1.77,3.84L16,94.74a3,3,0,0,1-.31.92c2.46,3.48-1.25,5.36-2,8,3.73,2.33,2,6.13,1.86,9-.3,6.42-1.64,12.8-2.55,19.19l1.83-.21a4.47,4.47,0,0,1,.17-.9.92.92,0,0,1,.88-1.08l1-.94a2.15,2.15,0,0,1,1.79-2.34l.44-1.61c-.39-1.35.46-2,1.46-2.51l.79-2.44c-1.73-2.63-1.42-5.68-1.42-8.63,0-3.47,1.48-7.16-1.52-10.16-.26-.26,0-1.36.29-1.8C21.55,95.61,21.35,90.86,23.55,87Z"/><path class="cls-3" d="M51.49,15.31c-10.54-4.14-22.07-2.18-33.54-6.52,5.16,4.26.85,5.27-1.2,6.6-1.63,1.06-3.75,1.37-4.53,3.51,4.12-1.72,8.35-2.89,12.84-2,1.34.26,2.44.68,3.61-.5,1.87-1.88-2.81-1.44-.91-3.26,2.29-.16,4.49,1.06,7,1.06C40.12,14.28,45.87,14,50,19a3.9,3.9,0,0,0,4.92.75c-.47-1.42-2.76-1-2.92-2.93,4-.08,8.16.44,11-3.28C59.15,14.43,55,16.6,51.49,15.31Z"/><path class="cls-5" d="M184.69,133.71a2.06,2.06,0,0,0-1.78-2l-.5.07-.48-.14c-1.47-.75-.86-1.35.14-1.91l-1.11-3c-.67-4.74-4.06-7.66-7.21-10.74-.06,3.47-.63,7,2,9.95-1.61.83-2.44-.58-3.56-.47l-.66.65.39,2.67c.86,2.71,4,5,1.35,8.41-.45.59.79,2.42,2.35,2.71.78-3.08,2.5-1.55,4-.79,1.26.64,2.62,2.78,3.39-.41C183.13,136.9,181.38,134.46,184.69,133.71Z"/><path class="cls-6" d="M182.94,152.7l-.08.07a22.57,22.57,0,0,0-.47,3q1-1.5,2-3Z"/><path class="cls-3" d="M105.74,1.21a19.89,19.89,0,0,0-13.67,0c3.82,2.21,4.19,7.08,1.35,10.26-1,1.13-4.36,1.9-2.45,4.38.88,1.15,2.2,3.65,4.2,2.37,1.53-1,3.22-1.5,4.71-2.5-2.21-4.18.63-6.61,3.14-9.15C101.39,3.49,102.25,1.68,105.74,1.21Z"/><path class="cls-2" d="M127.9,15.77c-4.25-.12-8.37-3.24-7.94-6l-1-1c-.55.12-1.33.86-1.55.12-.31-1,.84-1,1.52-1.16a3.09,3.09,0,0,1,.06-1l0,0-1,.06c-1.45-.13-2.37-1.23-3.45-2l-5.6-.06a6.07,6.07,0,0,1-1.09,4c1,1.8,3.47,2.35,3.12,5.45-.3,2.6,3.17-.58,4.17,1.42,1.43.32,3.39-.54,4.23.82,2.72,4.4,6.37,1,9.54,1.35.5.08,1.61-.16,1.15-1C129.7,16.22,128.63,16.09,127.9,15.77Z"/><path class="cls-3" d="M173.75,116a3.44,3.44,0,0,1-.46-.78c-3.82-3.29-4.76-8-5.82-12.55-2.68,1.7-1.39,4.05-.93,6.19,1.27,5.88,3.08,11.75,1.39,17.88,1.46,1.48,1.26,2.51-.85,3v1.88l2.45.22c.15-1.54,1.55-2.1,2.4-3.1l-.39-2.67c-.37-.35-.58-.74-.06-1.06.1-.06.46.28.71.44,1.12-.11,2,1.3,3.56.47C173.12,123,173.69,119.48,173.75,116Z"/><path class="cls-7" d="M22.52,62.56c-.56-.23-3.3-3,.44-3.81l2.4-4.56-.6-.59C16.49,55.26,17.19,64,12.83,68.75c3,0,7.13-3.25,8,2.72a39.8,39.8,0,0,1,.21,4.41c1.64-.65,1.74-3,3.64-3.41l.65-1.66C25.08,67.87,26.52,64.39,22.52,62.56Z"/><path class="cls-7" d="M28,44c-.17.54-.55.69-1,.33-.08-.07.12-.5.19-.77l-.3-1.69-1.4-1.57a5.65,5.65,0,0,1-2.83-6.46C21.37,33.27,22.3,30.67,20,31c-.78,2.12-3.14,2.8-4.25,4.62,4.93,2.62,10,12.78,8.93,18l.6.59c3.84-2.51,3.89-6.3,3.49-10.24A2,2,0,0,1,28,44Z"/><path class="cls-8" d="M12.83,68.75c-2.2-.1-3.79.49-3.82,3.85,3.41-3,5.92.11,8.11,1s-.35,3.29-1,5a1.79,1.79,0,0,0,.72,2.16l3.52-4,.68-.87a39.71,39.71,0,0,0-.21-4.41C19.95,65.5,15.83,68.75,12.83,68.75Z"/><path class="cls-9" d="M170.88,40.72q-.16-1.34-.33-2.68L168,37.68c-4.41-.57-8.89-1.7-13,1.18l.13,1.75h1.75c1.08-1.07,2.08-1.08,3.08.11,3.08-.1,4.35,1.25,3.45,4.33,1.73,1.25,1.24-1.71,2.51-1.31.61-1.43,1.79-.74,2.79-.74a2.75,2.75,0,0,1,2.11-1.28A1.78,1.78,0,0,1,170.88,40.72Z"/><path class="cls-4" d="M20.39,76.75l-3.52,4v7c-.61,2.59,3.18.61,2.93,2.82,1.77-.72.54-2.84,1.77-3.84l1.92-6C24.61,77.69,23.6,76.36,20.39,76.75Z"/><path class="cls-2" d="M105.75,1.19c-3.5.47-4.36,2.28-2.72,5.36,1,1.21,1.93,2.63,3.93,2.19.18-1.59-.67-3.66,2-4l-1.12-3.19Z"/><path class="cls-4" d="M165.13,56.8c-.57-.16-1.12-.33-1.2-1-4.8,3-1.41,5.72.48,8.45C164.91,61.76,169.13,59.65,165.13,56.8Z"/><path class="cls-4" d="M163.91,55.71s0,0,0,.06l.08-.06Z"/><path class="cls-4" d="M165.87,43.68c-1.27-.4-.78,2.56-2.5,1.31l0,1.08a5.12,5.12,0,0,1-.92,3.3c0,1.58-.32,3.31,1.37,4.31C166.87,50.86,165.52,47.1,165.87,43.68Z"/><path class="cls-8" d="M16.87,87.74c-3.5,2-2.12,4.51-.81,7l3.74-4.22C20,88.35,16.25,90.33,16.87,87.74Z"/><path class="cls-3" d="M107.88,1.54,109,4.74l5.6.06C112.88,2.54,110.21,2.42,107.88,1.54Z"/><path class="cls-3" d="M177.17,29.54a3.58,3.58,0,0,0,2.26,4.28C179.12,32.16,179,30.44,177.17,29.54Z"/><path class="cls-2" d="M170.78,41.71c-1,0-1.54.63-2.11,1.28a.78.78,0,0,0,.37.77c.79-.16,1.73,0,2.31-.54S171.42,42.06,170.78,41.71Z"/><path class="cls-8" d="M183.47,127.56c-.41-1.13-1.6-.74-2.51-.81l1.11,3C182.88,129.23,183.88,128.69,183.47,127.56Z"/><path class="cls-3" d="M82.81,3.55c-1.51.54-3.36-.16-4.61,1.31C79.81,4.55,81.72,5.55,82.81,3.55Z"/><path class="cls-3" d="M82.75,3.58a1.72,1.72,0,0,0,2.15-.79A1.36,1.36,0,0,0,82.75,3.58Z"/><path class="cls-3" d="M86.33,2.44c1.06.42,2,.42,2.63-.73A2.29,2.29,0,0,0,86.33,2.44Z"/><path class="cls-3" d="M75.39,5.86c1,0,1.94.13,2.57-.87A3.13,3.13,0,0,0,75.39,5.86Z"/><path class="cls-3" d="M118,6.77l1-.06C118.59,6.07,118.28,6.34,118,6.77Z"/><path class="cls-3" d="M163.91,55.67c.06.75.64.92,1.22,1.09C164.89,56.21,165,55.36,163.91,55.67Z"/><path class="cls-3" d="M69.16,9.8a.62.62,0,0,0,.69-.39.47.47,0,0,0-.69.39Z"/><path class="cls-8" d="M181.92,131.66l.48.14.5-.07C182.63,131,182.31,130.92,181.92,131.66Z"/><path class="cls-10" d="M80.1,188.61c-.17-2.69-.14-5.14,1.61-7.55,1.46-2,2.33-2.37,4.15-.53,2.88,2.92,5.47,2.71,7.38-1.19a3.18,3.18,0,0,1,2.88-1.67l.79-3.87a4.32,4.32,0,0,1-3-1.63c-2.42-2.61-4.11-3.23-4,1.39,0,.84-.2,1.69-1.2,1.91-.74.15-1.12-.33-1.6-.85-4.9-5.28-12.47-4.31-15.75,2.15a22.53,22.53,0,0,0-2.66,13.41c1.64-2.25,1.94-5.14,4.48-7.4,2.45,7.6,4,14.9,3.78,22.53a7.62,7.62,0,0,1-.65,2.5q2.84.49,5.71.8C83.23,201.75,80.44,195.3,80.1,188.61Z"/><path class="cls-6" d="M87.58,201.46c.12-4.19,3.9-6.34,4.12-10.25.09-1.59.09-4.5,3.18-3.86,2.57.53,3.19,2.59,3,5a7.07,7.07,0,0,0,.13,3c.64,1.64.13,5,4,2.64,1-.59,4-1.68,4.55,2.24a8.55,8.55,0,0,0,5.45,6.52v-2c-.54-1.32-1.78-2.61-.14-4v-1.94c-1.89-.22-1.89-1.67-1.89-3.06-1.91-3.25,0-6.07,1-9v-6c-3-5.6-4,.91-6,1-.26,2.35.69,4.86-1,7.48-1.63-1.21-1.38-5.71-5.19-3.21-.45.29.6-2.11.23-3.29-1.21-1.55-.76-4.06-2.9-5.06a3.18,3.18,0,0,0-2.88,1.67c-1.91,3.9-4.5,4.1-7.38,1.19-1.81-1.84-2.69-1.47-4.15.53-1.75,2.41-1.78,4.86-1.61,7.55.43,6.69,3.22,13.14,2,20q2.94.32,5.92.44A49.51,49.51,0,0,1,87.58,201.46Z"/><path class="cls-6" d="M140.32,196.6a1.77,1.77,0,0,0,1.59-1.75q-1.41.85-2.84,1.65A2,2,0,0,0,140.32,196.6Z"/><path class="cls-6" d="M125.95,202.73l0,0h0S126,202.73,125.95,202.73Z"/><path class="cls-6" d="M141.88,193.42a12.08,12.08,0,0,1,2.47-7.88,13.12,13.12,0,0,0,2.47-9c-2.37-.39-3.71,2.19-6,2.06l-1.94,3.06c-.78,3.92-4,6.21-6.27,9.78-1.08-2.19.33-3.39.71-4.75.51-1.72,1.45-3.62-1.49-4.09a3,3,0,0,1-.38.84c1.2,3.36-2.31,5.85-1.67,9.1-.05,1.67-.27,3.52-2.17,3.8-2.88.43-1.88,2.86-2.68,4.34a2.16,2.16,0,0,1,1,2h0c2.69-2.61,5.63-5.05,8-8,1.72-2.13,2.74-2.33,3.84.11a3,3,0,0,0,1.29,1.66q1.43-.8,2.84-1.65A9.46,9.46,0,0,0,141.88,193.42Z"/><path class="cls-7" d="M144.95,166.76,145,168c-.34,4-4.5,6.42-4.2,10.64,2.29.11,3.63-2.48,6-2.09l2-2.13,1.12-3.59c0-1.34.59-2.13,2-2.13l-3-8.07C146.62,162.09,147.7,165.66,144.95,166.76Z"/><path class="cls-10" d="M125,200.74c-2.9-.54-2.06-2.4-1.44-4.22s.21-3.64-1.38-4.24c-1.91-.71-2.26,1.58-3,2.69-1.29,1.94-1.5,5.15-5.17,3.75q-.09,1-.09,2h2c.45.21,1,.69,1.34.57,3.64-1.26,5.07-.14,4.93,2.8,1.28-.44,2.55-.89,3.81-1.38A2.16,2.16,0,0,0,125,200.74Z"/><path class="cls-10" d="M115.9,202.76c-1.9-.4-2.88.95-4,2v2c0,.07,0,.13,0,.2q2.07-.46,4.12-1A8.4,8.4,0,0,0,115.9,202.76Z"/><path class="cls-4" d="M111.74,200.72c-1.65,1.39-.4,2.68.13,4,1.17-1,2.14-2.37,4-2q0-1,0-2Z"/><path class="cls-2" d="M57.16,131.7l-.24-4c-2.05,0-1.9-1.6-2-3-2.44.46-2.33,2.61-1.81,3.93,3,7.55-1.76,13.31-4.18,19.64-1.82-.72-2.2-3.89-4.72-3a7.24,7.24,0,0,1-7-1.32c-1.28-.91-2-.91-3,.09-1.92,1.94-5.77,1.75-6,5.67,0,.87-2.14,2.38-2.54,1.47-1.34-3-3.34-1.86-5.34-1.63A1.4,1.4,0,0,1,19,147.82c1.14-5.8-1.71-11.89,1.77-17.8,1.88-3.19,4.65-6.84,3.2-11.28l-2.55,1.1-.79,2.44c.4,1.36,0,2.26-1.46,2.51l-.44,1.61c.27,1.44-.26,2.27-1.8,2.4l-1,.94L15,130.82a4.48,4.48,0,0,0-.17.9c.62,1.36,4.46,2.64.12,4.14-.28,2.18.63,4.81-2.28,6v1.54c1.6,3.49-.14,8.17,4.51,10.79,1.4.82,2.27,4.37.5,6.82a2.41,2.41,0,0,0,2.27.84c0-2.13,1.48-2.12,3-2a2.19,2.19,0,0,1,.91,0c.19-3,2.75-3.25,5-4.72A16.65,16.65,0,0,1,26,163.35c2-.2,3.93.14,3.49-2.32s1-3.21,2.56-4.63c2.76-2.54,3.06-7.78,8.89-6.69,3.9.73,7.93.64,11.33,3.11L52.09,151c.28-1.44.6-2.82.8-4.33s.19-3.15,2-3.59c2-.48,1.76,1.35,2.29,2.46,1.12,2.29,4,.39,5.56,3L63,143.7l-.12-4C59.24,138.31,56.4,136.28,57.16,131.7Z"/><path class="cls-2" d="M42.53,51.4c-1.29.39-2.8.89-3.8-.11C37.06,49.57,41.47,50.06,40,48a14.06,14.06,0,0,0-1.76-.21c-1.89,0-3.58-.93-3.79-2.6-.26-2.1,2.23-2,3.49-2.91,1.48-1.07,3.54.19,5.32-1.43C38,40.76,32.9,40,28.86,44c.4,4,.34,7.74-3.49,10.24L23,58.75c5.26,4.48,6,8.37,2.4,12.06l-.64,1.66c2.51,1.79-1.31,6.44,3.29,7.29,2.53.2,2.43-1.5,3-3.41,2.4-8.06,3.67-16.93,12.86-20.93,1.28-.56,3.32-1.84,2.58-3.66S43.82,51,42.53,51.4Z"/><path class="cls-11" d="M68,108.78c-1.26-.78-1-1.93-.78-3.1l-.35-1c-2.22.6-4.46,1.86-6.22-1.21-.88-1.55-2.85-2-4.75-1.55v1.63c.87.29,2.08-.15,2.55,1,.21.57-.26.9-.79,1-1.36.12-1.52-1-1.86-1.88l-1.75,2.11v3.89l.63,1.14.23,1c.78.27.75.57,0,.89l-.13,3.06H55a4.19,4.19,0,0,1,.34.69c0,.06-.21.19-.32.29h-.2l.18,3c3.23,2.06,2,5.16,1.86,8l.24,4,4,1.14c.43-3.64.18-7.14,4.08-9.89,1.39-1,3.51-5.15,2.51-8.44a4,4,0,0,1,.42-3.72Z"/><path class="cls-2" d="M75,76.73l-.09-2c-4-1.26-4.2-4.85-4.94-8.1-2.49-2.06-2.58-5.21-3.58-7.93-4.45-.59-7.84,2.49-11.84,3.49-.58.14-.25,1.11.34,1.55,4.84.51,6.52,3.12,5.17,8.08v1.89c1.26,1.21.8,2.75.65,4.21L61,81.68,64,84.75l2.8,0,0-5.13c-.56-1.33-2.1-2.2-1.85-3.91V73.69c-.23-.79-.48-1.57-.68-2.36C64,70,63.49,68.5,65.14,68s1.6,1.22,2.08,2.16l1.73,3.48c3.09,2,3.2,5.78,4.81,8.78C76.24,80.73,72.35,78.11,75,76.73Z"/><path class="cls-3" d="M24.72,72.47c-1.9.4-2,2.76-3.57,3.43l-.68.87c3.2-.39,4.21,1,3.09,4,3,2.1-.35,4.25,0,6.37-2.2,3.82-2,8.57-4.8,12.18-.34.44-.55,1.54-.29,1.8,3,3,1.52,6.69,1.52,10.16,0,3-.31,6,1.42,8.63l2.55-1.1c1.88-8.57,1.83-17.29,1.88-26-1.85-1.89-.6-3,1-4q.09-1,.09-2c-1.09-.72-1-1.38.08-2l1-5C23.41,78.91,27.23,74.26,24.72,72.47Z"/><path class="cls-2" d="M31.6,23.81c-5.38-2-10.38,1.2-11.51,7.2,2.26-.31,1.32,2.29,2.61,2.86,3.26-1,5.37-5,9.53-3.77l5.67,1.67,1.16-.24C38.11,27.47,35.24,25.19,31.6,23.81Z"/><path class="cls-9" d="M57.94,69.24c-1.17-1.88-3.23-2.63-5.45-2.78-2.19.39-4.94,0-5.61,2.92s-2.68,4.8-4.2,7.08l.08,2.4,1,.2c.55-1.36,2-1.64,3-2.36a15.82,15.82,0,0,0,7.12-2c1.55-3.42,4.08-1,6.21-1V71.81l-4.23-1.45C56.06,69.09,58.3,69.82,57.94,69.24Z"/><path class="cls-11" d="M47.79,80.93c-3.32-.67-.44-2.86-1-4.21-1,.72-2.45,1-3,2.36,0,1.11.1,2.23-1.21,2.76q0,1,.11,2c1.09,0,2.48-.3,3.09,1,2.15,4.58,5.78,7.83,9.47,11.09.59.53.49,1.8.71,2.8,3.75.31,2.9-4.72,6-5.16L62,91.93C52.12,91.42,49.58,89.45,47.79,80.93Z"/><path class="cls-2" d="M45.76,84.81c-.61-1.26-2-.94-3.09-1C44.1,86.55,45.15,89.58,47,92c3.33,4.17,6.42,8.31,7,13.82l1.74-2.14.1-.1V101.9l.14-3.2c-.22-1-.11-2.27-.71-2.8C51.54,92.64,47.91,89.39,45.76,84.81Z"/><path class="cls-2" d="M40.17,32.62a2.25,2.25,0,0,1-2.25,1.1l-6,.91c-2.38,1.69-6.8.94-6.38,5.69l1.34,1.56c2.24-2.21,4.69-3.69,8.11-3.37a17.35,17.35,0,0,0,4.84-.91,3.87,3.87,0,0,0,2.7-3.31C42.9,32.52,41.24,32.81,40.17,32.62Z"/><path class="cls-11" d="M76.95,34.93c-.23,2.34-.67,4.56-3.11,5.69-1.88,1.94-2.2,4.64-3.37,6.9.75,1.58-.77,2.87-.57,4.38a7.46,7.46,0,0,0,4-2c-.49-3.07.65-4.89,3.91-5.07-2-5.34,1.71-9.41,3.14-14C78.39,31,77.18,32.59,76.95,34.93Z"/><path class="cls-11" d="M54.9,63.75l-2.38,2.74c2.22.15,4.29.9,5.45,2.78.36.58-1.88-.16-2.08,1.12l4.2,1.42C61.43,66.86,59.75,64.25,54.9,63.75Z"/><path class="cls-2" d="M70.46,47.55c-6.09,1.68-6.82,3.52-3.31,8.38l1.68,1c.06-1.75.06-3.5,1.06-5C69.69,50.42,71.21,49.13,70.46,47.55Z"/><path class="cls-12" d="M71.27,61.25c-.44-1.67-2.59-2.34-2.44-4.34l-1.68-1-.77,2.78c1,2.72,1.09,5.87,3.58,7.93l2.1.91C72.9,65.25,68.41,63.73,71.27,61.25Z"/><path class="cls-3" d="M55,119.74q-.07,2.47-.14,5c.07,1.35-.08,2.92,2,3C57,124.9,58.27,121.8,55,119.74Z"/><path class="cls-2" d="M42.8,78.88l-2.3-.16c-1.39,2.42-.09,3.09,2.07,3.09,1.32-.5,1.22-1.62,1.22-2.73Z"/><path class="cls-2" d="M25.82,92.73c2.27-.84,2.14-2.29,1-4C25.25,89.73,24,90.84,25.82,92.73Z"/><path class="cls-2" d="M27,84.74c-1.08.63-1.16,1.29-.08,2Q28.44,85.8,27,84.74Z"/><path class="cls-3" d="M37.9,31.72v2a2.26,2.26,0,0,0,2.25-1.1l-1.09-1.14Z"/><path class="cls-11" d="M40.5,78.72l2.3.16-.08-2.39Z"/><path class="cls-2" d="M54.8,115.76l-.33.28a4.71,4.71,0,0,0,.38.68l.18,0a3,3,0,0,1,0-1Z"/><path class="cls-2" d="M54.89,111.82a7.57,7.57,0,0,0,0,.89C55.67,112.39,55.7,112.09,54.89,111.82Z"/><path class="cls-2" d="M54,109.66l.63,1.14Z"/><path class="cls-5" d="M7.17,156.77c-1-1.54,0-4.23,2.25-5.42.72-2.78.12-6.14,3.25-8v-1.54c-1.71.12-2.63,1.69-4.31,2.69l.56-5.75-1.8.06-.33,1.79c.28,1.49.28,2.91-1.72,3.18l-.18,1.9a29.84,29.84,0,0,0-1.57,12.59Q6,162.05,8.91,165.6C8.64,162.61,9,159.57,7.17,156.77Z"/><path class="cls-5" d="M28.82,172.56c-2.78.43-5.3.81-6.68-2.79-.66-1.73-1.83-3.24-4.92-1.52-5.31,3-3.09-2.81-4.31-4.66a4.52,4.52,0,0,0-.92.2,3.05,3.05,0,0,1-2.1,3q2.87,3.46,5.89,6.68a7.34,7.34,0,0,1,3,1.2C21.82,176.49,26.29,177.09,28.82,172.56Z"/><path class="cls-7" d="M26.45,178.81c2.3-3.19,2.78-1.47,3.3.81.25,1.1-.08,2.33,1.06,3.1.06-1.09-.16-2.27,1-3,4.4-6.54,7.62-14.34,16.62-16.06,3.73-.76,5.28,1.37,3.73,5-.49,1.15-2.11,2.3-.67,3.43,1.71,1.34,2-.66,2.71-1.66,1.11-1.57,4.34.37,4.62-2.71-3.23-1.74-4.48-4.7-5-8.11l-1.92-1-1.07-1a3.7,3.7,0,0,0-.91-.25c-1,3.24-3.41.9-5.13,1.32a3.93,3.93,0,0,0-.91.18c.11,2.26-.88,4.09-3,4.61-4,1-6.9,4.42-11,5.23l-.27-.1c.57,1.56-.14,2.78-.88,4-2.49,4.53-7,3.92-10,2.1a7.81,7.81,0,0,0-2.92-1.21q3.47,3.69,7.14,7.05A4.32,4.32,0,0,0,26.45,178.81Z"/><path class="cls-7" d="M4.84,145.68A10.33,10.33,0,0,0,0,153.47q1.6,2.41,3.26,4.72A29.84,29.84,0,0,1,4.84,145.68Z"/><path class="cls-11" d="M111,14.18c.36-3.1-2.12-3.65-3.12-5.45H107c-1.93.45-2.93-1-3.93-2.18-2.52,2.56-5.36,5-3.12,9.15,2.49,6.42,2.61,6.48,10,5.09,2.22-1.19,4.32-2.62,5.22-5.19C114.16,13.63,110.66,16.78,111,14.18Z"/><path class="cls-11" d="M117.13,23.86c-5.81,5-5.81,5-7.17.85-3,1.87-2.61,6.77-7.73,7.3-3.5.38-2.12,4.88-2.29,7.72l2.29,2.19c3.37-1.62,3.44-6.62,7.6-7.44,1.89-4.43,4.79-4,8.09-1.68C119.13,29.62,114.23,27.26,117.13,23.86Z"/><path class="cls-11" d="M99.93,39.77c-1.21-2.94-1.47-7.69-4-8.35-3.26-.84-1.81-2.44-2-3.71-.35-2.31.41-4.92-2.91-7.14,1.13,4.26,1.79,7.85-1.34,10.67,0,1.61.92,3.49-1.26,4.5,1,1.18,1.65,3.07,3.65,1,.59-.6.5.72.79,1.12a5.43,5.43,0,0,1,2.88,5l1,5.93,1,.11a2.36,2.36,0,0,1,2.06-1.12c1.2-.66,1.13-1.8,1.13-2.94C99.34,43.41,100.23,41.47,99.93,39.77Z"/><path class="cls-13" d="M88,30.65c-1.35.59-2.71,2-4.06,0l-3,.15c-1.43,4.56-5.14,8.63-3.14,14-.56,2,1.68,4.06.07,6.11,1.09,1.3,3.6.5,4.09,2.72h2c-.13-2.57-1.65-5-.91-7.65-1.58-2.4-4.52-4.78-.09-7.26-.11-2,.48-4.3,2.09-5.14s2.1,1.59,3.37,2.16c2.17-1,1.25-2.89,1.25-4.5Z"/><path class="cls-11" d="M86.27,28.14c-1.64-.19-1.69,1.54-2.37,2.54,1.35,2,2.71.58,4.06,0C87.9,29.49,87.5,28.27,86.27,28.14Z"/><path class="cls-3" d="M59.9,19.11a1.59,1.59,0,0,0-1.18.56c-.37.5,0,.82.71,1l1.08-.56C60.31,19.75,60.12,19.11,59.9,19.11Z"/><path class="cls-1" d="M168.7,135.84c-2.49-.64-1.63-2.57-1.63-4.19v-1.88a6.15,6.15,0,0,1-1.82-5.51c2.11-.19,1.4,2.12,2.68,2.49,1.69-6.13-.11-12-1.39-17.88-.46-2.14-1.75-4.49.93-6.19l-.86-1.94c-1.5-.15-1.73-1.25-1.87-2.46l-2-17.51c-3.21-1.6-2.1-3.82-.87-6.06l-.91-6c-1.85-1.36-.89-3.28-1-5l-1-1.1a4.22,4.22,0,0,1-3.16-3.88c-.94-.19-2.71-.33-2.71-.58-.34-5.66-6.3-3.66-9.63-7.36,4.46,1.9,5.69-3.57,9.38-2,2.69-.4,4.57,1.77,7,2.07a7.23,7.23,0,0,1,1-.13l.33-1.12a4.34,4.34,0,0,1-.19-.89L159.34,48c2-3-.85-3.18-2.4-4.18h-1a13.21,13.21,0,0,0-2.88.48c-2,.81-3.29-.7-4.19-1.78-1.41-1.67,1.06-1.82,1.66-2.75,1.51-2.31,3-4.62,4.65-6.84,1.15-1.56,3.05-1.69,4.77-2.09,1.08-1.33,3.56-3.73,2.49-4.08-2.66-.87-2.73-4.7-6.11-4.37-4,.39-7.79,1-10.37,4.5-.28,2.39.93,5.31-2.52,6.58-.83.31-.44,2.57-2.2,1.8-1.43-.62-1.37-2.06-1.37-3.37a1.79,1.79,0,0,1-1.9-2.09c-5.54-6.2-10.1-7.71-13.1-4.33.95,1.61,3.58.7,4.29,2.83-3,1.62-8.85-1.18-8.27,5.53l1,1.06c.86.29.85.6,0,.91v1q.1.47.24.93c7.39,2.16,7,8.15,6.81,14,2.38,1.1,2.26,2.83,1.13,4.74-1,1.61-1.39,3.22-.22,4.91,2.55.34,4.18,3.13,7,2.62a5.18,5.18,0,0,1,5.76,1.58c5.09,5.16,9,10.9,10.28,18.16,3.6,3.64,2.65,9.84-1.71,11.19-5.08,1.57-7.48,8-9.08,13.18-2.09,6.81-1.19,14.4-5.45,20.61-1,1.44-1.24,3.38-1.83,5.08a20.83,20.83,0,0,1-.69,6.86c-.59,2-.8,4,2.41,4.2s2,2.76,2.29,4.53c.23,1.62-.83,3.83.71,4.62,2.06,1,2.07-2,3.46-2.64a11.45,11.45,0,0,1,1.88-.5c0-1.4.42-2.6,2-2.72a1.73,1.73,0,0,1,1.34,1c.15.89-.66,1.33-1.42,1.64-.25,2.63.44,4.78,3,6H150a2,2,0,0,1,.87-2.18c.67-6.36,3.74-8.77,10.27-8.36,2.18.14,3.66-1.67,4.43-3.27s1.56-2.39,3.28-2.22v-3.12Z"/><path class="cls-13" d="M122.1,37.68q-.14-.46-.24-.93c-.45-.13-1.23.16-1.11-.73,0-.14.74-.2,1.14-.3a2.33,2.33,0,0,1,0-.91l-1-1.06c-1.12,0-2.25.14-3-1-3.3-2.32-6.2-2.75-8.09,1.68,4.82-.91,4.82-.91,7.75,1.76-4.61,1.06-8.13,3.12-7.61,8.48,2.82,2.32,4.42,0,6.13-1.68,2.43-2.39,4.55-3.82,5.24,1.23.39,2.8,4.91,5.26.65,8.42l3.2,2.81c3.2.8.26,2.85.86,4.18h1.89c.24-2.67-.57-5.48,1-8A19.8,19.8,0,0,1,122.1,37.68Z"/><path class="cls-2" d="M158.6,34.89,160,30.76c-1.77.41-3.62.53-4.77,2.09-1.65,2.22-3.15,4.53-4.65,6.84-.6.92-3.07,1.07-1.66,2.75.9,1.08,2.19,2.6,4.19,1.78a13.21,13.21,0,0,1,2.88-.48c.33-.75.67-.6,1,.07,1.54,1,4.4,1.18,2.4,4.18l1.67.72c.91-.75.42-2.77,2.36-2.57V45c.9-3.08-.37-4.43-3.45-4.33-1.08,1.67-2.08.29-3.08-.11H155.1c-1.08-.36-2.38-.74-1.57-2.22.37-.67,1.08-.09,1.43.5,4.1-2.88,8.57-1.75,13-1.18l1.1-2.8Z"/><path class="cls-2" d="M142.42,25.35c-1.16,1-1.45,2.1-.25,3.8,1.81,2.56-.79,2.38-2.3,2.67,0,1.3-.06,2.75,1.37,3.37,1.76.76,1.37-1.49,2.2-1.8,3.46-1.27,2.24-4.18,2.52-6.58C144.8,26.22,144.27,23.77,142.42,25.35Z"/><path class="cls-11" d="M120,9.77c-.44,2.75,3.68,5.87,7.94,6C126.66,12,123.52,10.63,120,9.77Z"/><path class="cls-2" d="M137.95,29.7a1.79,1.79,0,0,0,1.9,2.09C140,30.44,139.26,29.79,137.95,29.7Z"/><path class="cls-11" d="M117.41,8.82c.22.74,1,0,1.55-.12l0-1C118.26,7.82,117.11,7.82,117.41,8.82Z"/><path class="cls-2" d="M143.55,50.8c3.34,3.7,9.3,1.7,9.63,7.36,0,.25,1.77.39,2.71.58,1.26-4-2.61-6.46-3-9.94C149.23,47.2,148,52.67,143.55,50.8Z"/><path class="cls-2" d="M161.93,74.75c-1.23,2.24-2.34,4.46.87,6.06C162.7,78.77,163.71,76.56,161.93,74.75Z"/><path class="cls-2" d="M160,63.73c.12,1.7-.83,3.62,1,5C162.76,66.65,162,65.06,160,63.73Z"/><path class="cls-2" d="M156,58.77a4.22,4.22,0,0,0,3,3.84C159,60.53,159,58.38,156,58.77Z"/><path class="cls-9" d="M161,48.7a4.54,4.54,0,0,0,.19.89l1.26-.15a5.1,5.1,0,0,0,.91-3.31C161.38,45.93,161.87,48,161,48.7Z"/><path class="cls-2" d="M160.88,50.71a7.24,7.24,0,0,0-1,.13C160.3,51.49,160.63,51.47,160.88,50.71Z"/><path class="cls-2" d="M170.56,38.05l.32,2.67c1-.09,2.66.45,2.6-1.16S172,37.68,170.56,38.05Z"/><path class="cls-7" d="M5,143.77c2-.27,2-1.68,1.72-3.18C5,141,4.81,142.29,5,143.77Z"/><path class="cls-3" d="M14.79,131.65l-1.83.21-3.25,6.79c3.78,2.76,3-2.86,5.2-2.86C19.25,134.29,15.41,133,14.79,131.65Z"/><path class="cls-9" d="M23.49,80.7l-2,6,2,.36C23.18,85,26.49,82.8,23.49,80.7Z"/><path class="cls-3" d="M16.9,128.74c1.52-.07,2.06-.9,1.79-2.34A2.15,2.15,0,0,0,16.9,128.74Z"/><path class="cls-3" d="M19.14,124.79c1.46-.25,1.86-1.16,1.46-2.51C19.61,122.83,18.75,123.45,19.14,124.79Z"/><path class="cls-3" d="M15,130.75l.88-1.08h-.13A.92.92,0,0,0,15,130.75Z"/><path class="cls-4" d="M73.16,182.85c-2.55,2.26-2.84,5.15-4.48,7.4a22.53,22.53,0,0,1,2.66-13.41c3.28-6.46,10.85-7.43,15.75-2.15.48.52.87,1,1.6.85,1-.21,1.2-1.07,1.2-1.91-.08-4.62,1.6-4,4-1.39a4.32,4.32,0,0,0,3,1.63c-.24-2.43.5-4.28,3-5.09l1.09-7c-1.74-.16-2.2,2.07-3.85,2.07-.16,1.19-.56,2.51-1.83,2.56-1.68.07-1.2-1.57-1.41-2.57a14.65,14.65,0,0,0-2.89.49c-3,1.14-5.91,3.49-8.66-.93-.43-.67-5.26-4.22-6.74,1.33-.44,1.59-2.38,1.32-3.64,0-2.21-.68-3.11,1.88-5,2-.13,1-.42,2-1.76,1.79-1-.15-1.12-1-1.21-1.84-.29-1.29-.89-2.64-1.89-.64a3,3,0,0,1-3.13,1.7c-.27,3.08-3.5,1.14-4.62,2.71-.71,1-1,3-2.71,1.66-1.43-1.13.18-2.28.67-3.43,1.54-3.59,0-5.72-3.73-5-9,1.72-12.22,9.52-16.62,16.06,1.81-.29,3.81-1.59,5.19.86,1.25,2.18-.83,2.89-1.75,4.08a9.29,9.29,0,0,0-2,4.41,112.87,112.87,0,0,0,11,7.12,5.25,5.25,0,0,0,.69-.85c.47-.74,1.54-.22,1.84.78.52,1.73,1.94,1.48,3.25,1.58,1.65.12,3.5-.71,3.26,2.68,0,.13,0,.24,0,.37a98.56,98.56,0,0,0,11.44,4.29c.39-.12.79-.24,1.18-.32l.23-.42-.23.42a2.73,2.73,0,0,1,0,.65,94,94,0,0,0,10.48,2.43,7.62,7.62,0,0,0,.54-2.44C77.16,197.75,75.61,190.45,73.16,182.85Z"/><path class="cls-4" d="M185.89,152.74c-.11-.55-.26-1.11-.41-1.66l-1.08,1.66Z"/><path class="cls-4" d="M182.78,152.81a5.43,5.43,0,0,1-1.89-4.44c2.59,1,1.76,2.89,2,4.37h1.52l1.08-1.66c-.82-3-1.89-6-.26-9.16,1.1-2.16-.44-2.89-2.26-3.23-.72,3.19-2.08,1-3.44.38-1.51-.76-3.23-2.29-4,.79.06,4.79-3.14,7.43-6.47,10l.12,2.66c3.38,2.57,2.67,7,4.67,10.22l.94,2,.9,0q3.43-4.28,6.61-8.9A22.47,22.47,0,0,1,182.78,152.81Z"/><path class="cls-12" d="M173.29,137.2c2.65-3.41-.49-5.71-1.35-8.41-.85,1-2.25,1.57-2.4,3.1l.11,2.9c2,1.58,1.45,2.46-.8,2.86v3.12l.31,9.12c3.33-2.59,6.53-5.24,6.47-10C174.07,139.6,172.82,137.77,173.29,137.2Z"/><path class="cls-7" d="M174.85,164.69a1.77,1.77,0,0,1-.83-1.93c-1.53.09-2.25-1.41-3.39-1.81-3.12-1.1-7.4,1.16-9.35-3.33a5,5,0,0,1-4.16,2.31,7.53,7.53,0,0,1-.2.78A5.36,5.36,0,0,1,153,164v3.8c3.28-2.37,6-4.58,11-3.8,3.22.5,4,1.5,4.94,3.73,1.66-.17,2.61.39,2.91,1.6q2-2.26,3.86-4.62Z"/><path class="cls-3" d="M106.95,8.75h.88a6.07,6.07,0,0,0,1.12-4C106.24,5.09,107.09,7.17,106.95,8.75Z"/><path class="cls-2" d="M167.94,126.75c-1.28-.37-.57-2.67-2.68-2.49a6.15,6.15,0,0,0,1.82,5.51C169.19,129.28,169.39,128.25,167.94,126.75Z"/><path class="cls-2" d="M169.53,131.87l-2.45-.23c0,1.62-.87,3.56,1.63,4.19l.93-1.06Q169.58,133.32,169.53,131.87Z"/><path class="cls-5" d="M171.48,125c-.54.34-.3.74.06,1.09l.65-.65C171.95,125.29,171.58,124.94,171.48,125Z"/><path class="cls-3" d="M23,58.75c-3.75.86-1,3.58-.45,3.81,4,1.83,2.56,5.31,2.86,8.25C29,67.12,28.23,63.23,23,58.75Z"/><path class="cls-3" d="M22.75,33.87a5.64,5.64,0,0,0,2.83,6.45c-.41-4.75,4-4,6.38-5.69-3.54-1.76-.29-3.06.31-4.53C28.12,28.87,26,32.92,22.75,33.87Z"/><path class="cls-2" d="M27,44.32c.41.37.79.21,1-.33l-.81-.44C27.15,43.82,26.94,44.25,27,44.32Z"/><path class="cls-3" d="M156.88,40.59c1,.4,2,1.79,3.08.11A1.82,1.82,0,0,0,156.88,40.59Z"/><path class="cls-3" d="M153.52,38.37c-.81,1.48.49,1.85,1.57,2.22l-.14-1.72C154.6,38.28,153.89,37.7,153.52,38.37Z"/><path class="cls-7" d="M104.88,164.78c-1.16,2-2.58,3.63-5.06,3.92-2.48.81-3.22,2.67-3,5.09l-.8,4c2.15,1.06,1.69,3.51,2.9,5.06,2.31-.35,2.32-2.35,3-4,1-2.33,0-5.47,2.89-7,.1-1.89-.23-3.93,1.89-5.06l.1-2a7.38,7.38,0,0,1-.92,0Z"/><path class="cls-10" d="M113.89,164.59c-.07,2.64-1.73,3.28-4,3.15l-1,1c-.16,2.41-2.36,3.82-3,6l-1,7c2.07-.08,3-6.59,6-1,2.89.46,3.25-1.82,3.66-3.71a40.39,40.39,0,0,0,.61-5.44C114.47,169.33,115.89,166.65,113.89,164.59Z"/><path class="cls-4" d="M104.89,171.73c-2.89,1.53-1.89,4.67-2.89,7-.64,1.7-.64,3.7-3,4,.38,1.18-.68,3.58-.23,3.29,3.82-2.5,3.57,2,5.19,3.21,1.64-2.62.69-5.13,1-7.48l1-7C104.71,174.06,105,172.86,104.89,171.73Z"/><path class="cls-5" d="M112.94,186.76c.4,3.39-1,6.58-1.11,9.91v4.07H114l0-2c-.55-6.58,2.91-12.53,3-19C116.34,182.5,113.32,183.87,112.94,186.76Z"/><path class="cls-7" d="M115.27,171.63a39.89,39.89,0,0,1-.61,5.44c-.45,1.86-.81,4.13-3.7,3.68v6h2c.36-2.88,3.39-4.25,4-7C116.2,177.07,118.6,173.73,115.27,171.63Z"/><path class="cls-10" d="M110.91,186.75c-1,2.92-3,5.74-1,9l1.91.93c.1-3.34,1.51-6.53,1.1-9.92Z"/><path class="cls-4" d="M111.8,198.8v-2.13l-1.91-.93C110,197.14,109.86,198.58,111.8,198.8Z"/><path class="cls-10" d="M164,164c-5-.77-7.75,1.43-11,3.8l-1,.93v1a42.07,42.07,0,0,1,16.93-2C168,165.5,167.18,164.5,164,164Z"/><path class="cls-5" d="M150,170.88l2-1.12v-1C150.54,168.77,150,169.54,150,170.88Z"/><path class="cls-5" d="M131.48,183.57c-1.63.51-4.21,2.53-2.71-1.8.54-1.62-.46-3.59,1-5.06a19.38,19.38,0,0,1,1.79-6.77,2.72,2.72,0,0,0-2.49-1c-.9,2.2-1.51,4.57-4.1,7.34v-6.55c-.77-.12-1.81,0-1.58-1.22.07-.34,1-.51,1.58-.75v-2c-1.06-3.65-3.4-7-3.06-11-2,.24-3.81-.1-5-2l-4,7-.2,2.82a2.08,2.08,0,0,1,1.26,2.05c2,2,.58,4.7,1.27,7,3.4,2.12,1,5.44,1.72,8.12l0,.1c2-.69,2.73-3.39,5.44-3.69.87,3.71-2.32,6.4-2.51,10.06,1.94-.13,2.43-1.77,3.43-2.68a12.64,12.64,0,0,1,2.09,8.23c-.34,4.44,3-.19,4.38.9C129.17,189.42,132.68,186.93,131.48,183.57Z"/><path class="cls-4" d="M125.41,191.7a12.64,12.64,0,0,0-2.09-8.23c-1,.92-1.49,2.55-3.43,2.68.2-3.65,3.39-6.34,2.51-10.06-2.71.3-3.44,3-5.44,3.69-.08,6.47-3.55,12.41-3,19,3.67,1.4,3.88-1.81,5.17-3.75.79-1.12,1.14-3.4,3-2.69,1.58.61,1.93,2.51,1.38,4.24s-1.45,3.62,1.45,4.17c.8-1.49-.2-3.92,2.68-4.34,1.9-.28,2.17-2.13,2.17-3.79C128.41,191.51,125.08,196.14,125.41,191.7Z"/><path class="cls-12" d="M145,166.79l-1-7.09h-2L140,162.78a2.13,2.13,0,0,1-1.87,2.21l-1,.88c0,3.58-3.86,5.83-3.49,9.58,3,.17,4-2.44,5.83-4.7.68,3.25-.48,5.37-1.6,7.46-.83,1.56-1.84,3,1,3.48l1.94-3.06c-.31-4.22,3.86-6.64,4.2-10.64C144.61,167.63,143.82,167.24,145,166.79Z"/><path class="cls-5" d="M139.51,170.78c-1.83,2.27-2.83,4.88-5.83,4.7l-.82,2.24-1,4.94c2.94.47,2,2.37,1.49,4.09-.39,1.36-1.79,2.56-.71,4.75,2.27-3.57,5.49-5.87,6.27-9.78-2.84-.48-1.84-1.92-1-3.48C139,176.15,140.19,174,139.51,170.78Z"/><path class="cls-9" d="M129.8,176.65c-1.43,1.47-.44,3.44-1,5.06-1.5,4.33,1.08,2.31,2.71,1.8a3,3,0,0,0,.38-.84l1-4.94C131.73,177.76,130.55,177.82,129.8,176.65Z"/><path class="cls-3" d="M146.84,150.82h-1.9c.41,3.45-3.61,5.4-3,8.93h2v0l0,0,.32-1.26c.86.69.16.95-.32,1.26v0h0l1,7c2.74-1.1,1.67-4.67,3.88-6,.59-1.29,1.38-2.5,1-4C147.28,155.6,146.59,153.44,146.84,150.82Z"/><path class="cls-3" d="M144,159.7l0,0v0h0Z"/><path class="cls-5" d="M151.9,156.6l-1.89.1h-.13c.39,1.54-.41,2.74-1,4l3,8,1.06-1v-3.79C152.83,161.45,153.3,158.89,151.9,156.6Z"/><path class="cls-3" d="M145,168l-.07-1.28C143.82,167.2,144.61,167.59,145,168Z"/><path class="cls-9" d="M95.89,139.51c-2.22-1-4.68-1.4-6.61-3-4-4.22-5.63-10.07-9.91-14.14-1.5-1.42-1.35-.23-1.69.58-.43,2.66,1.95,4.38,2.28,6.78l1,.89c3.15,3.22,2.8,4.4-2.11,7.07v2c2,.28,3.25,1.76,2.37,3.36a4.84,4.84,0,0,1-4.55,2.19c-5.44-.1-10.34-.92-13.85-5.56l.12,4c1.51.66,2.09,2.08,2.57,3.45s1.08,3.25-.39,4c-1,.52-2.6,1.23-4.19-.22-2.76-2.52-5.88-.5-8.88,0l.14,1.85,1,1.24c1.29-.35,2.42.54,3.84.26,3.47-.68,6.13.31,5.94,4.52,1.6.36.22-4.88,3.09-1.35l.89-1.6,1.39-5.76c3.46,3.9,8.43.2,12,3.12a1.32,1.32,0,0,0,1.21-.35c2.47-5.56,7.83-7.1,12.76-9.15C96.57,142.75,95.69,141,95.89,139.51Z"/><path class="cls-3" d="M40.95,149.65c-5.83-1.09-6.14,4.15-8.89,6.69-1.56,1.42-3,2.19-2.56,4.63S28,163.15,26,163.35a16.65,16.65,0,0,0,2.94-8.24c-2.3,1.47-4.85,1.77-5,4.72-.12.67,0,1.53-1.12,1.53L23,159.8c-1.49-.1-2.93-.1-3,2,.46.84.89,1.71,1.39,2.53,1.9,3.15,4.08,5.77,8.36,4.32l.27.1c1-5.08,4.49-8,8.88-10.08,1.62-2.87,3.84-4.12,7.07-2.6l1.31-1.13c-.22-.8-.42-1.65.66-1.8s1.58.72,1.93,1.62l.1-.06,3.28.23V154l-1-1.23C48.84,150.3,44.8,150.38,40.95,149.65Z"/><path class="cls-3" d="M78.9,139.74a6.26,6.26,0,0,0-1.5,0c-6.8,1.9-6.85,1.92-9.08-4.36-.8-2.25-1.89-3.84-4.18-1.84-1.81,1.58-2.18-.39-3.18-.83l-3.82-1c-.76,4.54,2.07,6.56,5.73,8,3.51,4.63,8.41,5.45,13.85,5.56a4.84,4.84,0,0,0,4.55-2.19C82.16,141.5,80.9,140,78.9,139.74Z"/><path class="cls-3" d="M17.17,154.18c-4.65-2.63-2.91-7.3-4.51-10.79-3.13,1.81-2.52,5.17-3.25,8,3.47,3.61,0,8.66,2.57,12.45a4.58,4.58,0,0,1,.92-.2c-.36-4.37,2.39-3.21,4.78-2.64C19.44,158.55,18.57,155,17.17,154.18Z"/><path class="cls-9" d="M21.34,164.34c-.5-.83-.93-1.69-1.39-2.54a2.4,2.4,0,0,1-2.27-.85c-2.39-.51-5.14-1.67-4.78,2.69,1.22,1.85-1,7.64,4.32,4.71,3.08-1.72,4.26-.21,4.92,1.52,1.38,3.6,3.9,3.22,6.68,2.79.74-1.27,1.45-2.49.88-4C25.43,170.11,23.24,167.49,21.34,164.34Zm-4.89.3h0c-.65-.18-1-.48-.67-1a1.63,1.63,0,0,1,1.15-.55c.19,0,.39.66.58,1Z"/><path class="cls-3" d="M63,143.7l-.24,4.77c-1.56-2.57-4.44-.67-5.56-3-.53-1.11-.29-2.94-2.29-2.46s-1.85,2.13-2,3.59-.52,2.89-.8,4.33c3-.5,6.12-2.51,8.88,0,1.59,1.45,3.19.74,4.19.22,1.48-.76.88-2.63.39-4S64.47,144.35,63,143.7Z"/><path class="cls-9" d="M9.71,138.65a1.65,1.65,0,0,0-.84.06l-.56,5.75c1.73-1,2.64-2.55,4.36-2.68,2.91-1.17,2-3.8,2.28-6C12.71,135.78,13.49,141.41,9.71,138.65Z"/><path class="cls-9" d="M23,159.82l-.21,1.56c1.12,0,1-.86,1.12-1.53A2.21,2.21,0,0,0,23,159.82Z"/><path class="cls-2" d="M78.14,84c-.55-.51-4.34,6.79-3.66,8.06.57,1.1,2.27,2.1.57,3.27-1.51,1-2.55-.28-3.85-1.26s-1-3.39-3.24-3.39c1.43,5.27,3.27,10.39,3.49,15.93.11,2.72-.61,4.16-3.47,4.06a4,4,0,0,0-.42,3.72c1,3.29-1.12,7.44-2.51,8.44-3.9,2.75-3.65,6.25-4.08,9.89,1,.44,1.37,2.41,3.18.83,2.29-2,3.38-.41,4.18,1.84,2.23,6.28,2.28,6.26,9.08,4.36a6.26,6.26,0,0,1,1.49,0v-2c-.91-1-5-1.28-.64-3.28A4.48,4.48,0,0,0,81,130.68l-1.08-.94c-2.69-.41-5.76,2.1-8-1.41-2.58-4-2.33-8.48-1.85-12.82.31-2.88,3.16-1.36,4.87-1.83,1.6-3.35,2.77-.58,4,.33s1.6,3.63,4,1.72c-1.55-9.75-3.29-19.48,1-29v-4C82.06,83.12,80.95,86.63,78.14,84Z"/><path class="cls-1" d="M66.78,84.81,64,84.75l.28,1.82c3.68,3.5,1.08,8.31,2.55,12.31.46,1.14,0,2.6,0,3.91v1.82l.35,1c1.91.62,2.4,1.59.78,3.1q.07,1,.07,2c2.86.1,3.58-1.34,3.47-4.06C71.24,101.1,69.4,96,68,90.72,68.2,88.63,67.29,86.75,66.78,84.81Z"/><path class="cls-13" d="M63.89,96.67c.22-1.45-.76-2.4-1.93-3.11-3.1.44-2.25,5.47-6,5.16q-.06,1.6-.13,3.2c1.9-.45,3.87,0,4.75,1.55,1.76,3.07,4,1.81,6.22,1.21v-1.81C65,101.22,63.46,99.45,63.89,96.67Z"/><path class="cls-13" d="M55.83,103.56l-.1.07c.34.88.5,2,1.86,1.88.54,0,1-.38.79-.95C57.91,103.44,56.7,103.88,55.83,103.56Z"/><path class="cls-2" d="M67.13,105.64c-.26,1.16-.47,2.35.78,3.1C69.53,107.24,69,106.26,67.13,105.64Z"/><path class="cls-3" d="M55,116.74c.11-.1.33-.23.34-.31a4.14,4.14,0,0,0-.34-.69A3,3,0,0,0,55,116.74Z"/><path class="cls-11" d="M81.88,69.63a4.2,4.2,0,0,1-.14,1c.52,5-2.25,6.48-6.66,6.15-2.68,1.38,1.22,4-1.26,5.71-1.61-3-1.71-6.78-4.81-8.78H65v2.05c2.14-.14,4.06.59,4.41,2.75.25,1.6-1.56,1-2.56,1.16q0,2.56-.05,5.13c.49,1.92,1.4,3.82,1.15,5.92,2.24,0,2.06,2.48,3.29,3.42s2.34,2.26,3.85,1.26c1.7-1.18,0-2.18-.57-3.27-.68-1.27,3.11-8.57,3.66-8.06,2.83,2.59,3.92-.92,5.83-1.31C84.45,78.19,86.65,73.34,81.88,69.63ZM80.15,80.27a.83.83,0,0,1-.77-.34c-.08-.21.2-.54.32-.82l.83.36C80.41,79.75,80.35,80.18,80.15,80.27Z"/><path class="cls-13" d="M61.08,81.65c-3,.36-6,.64-9,1.09C50.2,83,50.69,78,47.79,80.91c1.78,8.56,4.33,10.52,14.23,11,2.31-1.08,1.58-3.47,2.25-5.25q-.16-.91-.31-1.91ZM58.51,86a6.7,6.7,0,0,1-4.4,1.41,1,1,0,0,1-.89-1.47,3.25,3.25,0,0,1,4-1.94l.15,0A1.61,1.61,0,0,1,58.51,86Z"/><path class="cls-14" d="M53.91,74.72a15.82,15.82,0,0,1-7.12,2c.54,1.35-2.34,3.53,1,4.21C50.69,78,50.2,83,52.08,82.76c3-.45,6-.73,9-1.09l-.31-3.79C58.51,76.72,57.07,73.87,53.91,74.72Z"/><path class="cls-13" d="M77.94,71.74l-2.81-.08-.2,3.08q.08,1,.08,2c4.42.33,7.19-1.15,6.66-6.15Z"/><path class="cls-11" d="M72.08,67.51,70,66.63c.74,3.25.94,6.84,4.94,8.1l.17-3.08q-.06-1.48,0-3Z"/><path class="cls-3" d="M65.14,68c-1.77.52-1.17,2-.86,3.31.19.79.45,1.57.68,2.36h4c-.59-1.16-1.16-2.32-1.74-3.51C66.74,69.22,66.91,67.48,65.14,68Z"/><path class="cls-11" d="M53.9,74.75c3.17-.84,4.6,2,6.86,3.16.2-1.46.61-2.92-.66-4.16C58,73.75,55.44,71.28,53.9,74.75Z"/><path class="cls-3" d="M65,75.76c-.21,1.71,1.34,2.58,1.85,3.91,1-.16,2.82.44,2.56-1.16C69,76.35,67.1,75.62,65,75.76Z"/><path class="cls-12" d="M32,34.63l6-.86v-2L32.27,30.1C31.72,31.58,28.47,32.87,32,34.63Z"/><path class="cls-2" d="M64.29,86.65c-.67,1.78.06,4.17-2.25,5.25l0,1.69c1.17.71,2.15,1.66,1.93,3.11-.42,2.78,1.07,4.55,2.93,6.2,0-1.31.42-2.77,0-3.91C65.37,95,68,90.15,64.29,86.65Z"/><path class="cls-1" d="M77.89,51l-4-1.11a7.44,7.44,0,0,1-4,2c-1.06,1.55-1,3.29-1.06,5-.14,2,2,2.67,2.44,4.34L77,64.76l2.67.42c4-3.16,4.75-7,2.35-11.47C81.49,51.48,79,52.29,77.89,51Z"/><path class="cls-15" d="M77.8,44.92c-3.26.18-4.4,2-3.91,5.07l4,1C79.49,48.9,77.26,46.89,77.8,44.92Z"/><path class="cls-15" d="M72,67.51l3,1.19,1.8-.08L77,64.76l-5.69-3.54C68.4,63.71,72.89,65.27,72,67.51Z"/><path class="cls-9" d="M9.09,167.11a6.51,6.51,0,0,0,.83-.29l-1-1.25C8.94,166.09,9,166.6,9.09,167.11Z"/><path class="cls-9" d="M12,163.84c-2.57-3.8.9-8.84-2.57-12.45-2.29,1.2-3.24,3.89-2.25,5.43,1.77,2.8,1.47,5.79,1.73,8.76l1,1.25A3,3,0,0,0,12,163.84Z"/><path class="cls-5" d="M96.88,147.82c-1.58-3.27-3.52-3-5.65-.55-.42.5-.63,1.43-1.12,1.59-4.54,1.41-4.32,3.41-.87,6,.25.19.12.89.2,1.64-7.57-.86-15-1.78-22.46-.66l-.89,1.6c-2.87-3.53-1.49,1.71-3.09,1.35.19-4.21-2.46-5.2-5.94-4.52-1.42.27-2.55-.62-3.84-.27v.94c.59,1.52,2.68,2.82.67,4.76.53,3.41,1.77,6.37,5,8.11,1.33,0,2.35-.18,3.13-1.7,1-2,1.6-.65,1.89.64l3,0c1.9-.1,2.79-2.66,5-2,1.46-4.93,7.9-7.62,12.23-4.62,2.66,1.87,4.68,4.1,8.14,2,.13-.08,1,1.09,1.56,1.68.21,1-.27,2.64,1.41,2.57,1.27-.06,1.67-1.37,1.83-2.56a39.35,39.35,0,0,1-3.93-6.14C89.88,151.42,90,150.75,96.88,147.82Z"/><path class="cls-5" d="M30,168.75c4.11-.76,7-4.24,11-5.22,2.1-.52,3.09-2.35,3-4.61l-5.15-.25C34.45,160.75,31,163.68,30,168.75Z"/><path class="cls-12" d="M38.81,158.66l5.15.25a3.94,3.94,0,0,1,.92-.18l1-2.67C42.64,154.54,40.43,155.79,38.81,158.66Z"/><path class="cls-9" d="M50,154.71q0,1.36,0,2.72a3.56,3.56,0,0,1,.91.24l1.07,1,1.92,1c2-1.91-.12-3.21-.72-4.73Z"/><path class="cls-5" d="M49.85,154.75l-2.59.18-1.38,1.13-1,2.67c1.71-.42,4.13,1.93,5.13-1.31q0-1.36,0-2.72Z"/><path class="cls-5" d="M51,157.66l1.07,1Z"/><path class="cls-14" d="M109.79,34.48c-4.15.82-4.22,5.82-7.6,7.46l-.54,1.72-.71,1.13c0,1.14.07,2.28-1.13,2.94l-.17,2.87.35,1.16c.6,0,1.43,1.18,1.66-.54.64-4.78,3.28-7.15,8.28-6.5-.53-5.36,2.95-7.42,7.61-8.48C114.61,33.57,114.61,33.57,109.79,34.48Z"/><path class="cls-2" d="M101,44.77l.7-1.13.53-1.72L100,39.7C100.22,41.4,99.33,43.34,101,44.77Z"/><path class="cls-15" d="M94.32,56.74c.92-2.62-2.16-6.6,2.41-8l-1-5.93c-3.83,0-2.59-3-2.88-5-.28-.4-.2-1.72-.79-1.12-2,2-2.64.15-3.64-1-1.27-.56-1.63-3.11-3.37-2.16s-2.2,3.08-2.09,5.14c3.82,2.6,3.85,4.54.09,7.26-.74,2.65.79,5.08.91,7.65l1.16,2c2.18.06,3.16,1.07,2.65,3.29,0,1.55-2.33,2.11-1.74,3.94l.83.93,1.92.1c2.82,0,3.15,1.92,3.08,4.09-.09,3,.82,5.5,3.82,6.77l1-5.91A4.47,4.47,0,0,1,96.4,68c0-.06.25-.18.38-.27,1-1.93.66-3.93.54-5.93C93.53,61.84,94,57.59,94.32,56.74Z"/><path class="cls-14" d="M97.91,50.74q-.09-.94-.09-1.88l-1-.11c-4.56,1.36-1.49,5.34-2.41,7.95-.34.85-.83,5.08,3,5.08l.41-9C97,52.06,97,51.38,97.91,50.74Z"/><path class="cls-14" d="M92.86,37.82c.29,2.06-1,5,2.88,5A5.43,5.43,0,0,0,92.86,37.82Z"/><path class="cls-2" d="M97.76,48.86q.09.94.09,1.88l1.8-.13q.08-1.44.17-2.87A2.36,2.36,0,0,0,97.76,48.86Z"/><path class="cls-3" d="M85.18,55.57,84,53.63,82,53.69c2.4,4.47,1.65,8.31-2.35,11.47C80,66.35,81,66.7,82,67q0-.08,0-.15a2,2,0,0,1,1.74-2.23,2,2,0,0,1,2.41-1.82c-.59-1.83,1.69-2.39,1.74-3.94C85.94,58.57,85.49,57.13,85.18,55.57Z"/><path class="cls-11" d="M83,38.72C78.54,41.2,81.48,43.58,83,46,86.81,43.26,86.78,41.32,83,38.72Z"/><path class="cls-3" d="M147,90.69c-3.11,2.79-2.7,9.2-9.22,8.66-1.3-.11-2,2.13-1.54,3.65,1.32,4.22.43,8.5.65,12.75a35.12,35.12,0,0,1-3.13,12.59c-1.23,2.53-3.32,4.8-6.62,3.53-1.5-.56-1.45.93-2.3,1,0,.66-.11,1.41-.15,2s-.1,1.19-.1,1.78a3.64,3.64,0,0,1-.44,3.29c-2.58,3.27-3.19,6.68-.46,10.27.29.38-.08,1.25-.14,1.9v1.44c3.92,3.67,2.49,8,1.43,12.21v2c1,.65,1,1.31.06,2v6.55c2.59-2.77,3.2-5.13,4.1-7.34.23-4.41,3-7.33,5.92-10.2,1.17-1.91,2.29-3.84,1.38-6.74-2,2-2.53,4.69-5.12,5.69-2.16.81-3.32,1.16-3.42-1.84-.24-7.33,2.1-14.06,4.52-20.78a2.46,2.46,0,0,1,2.51-1.31c.59-1.71.83-3.64,1.83-5.08,4.25-6.21,3.35-13.8,5.45-20.61,1.6-5.18,4-11.61,9.08-13.18,4.36-1.35,5.31-7.55,1.71-11.19C151.21,86.25,151.91,90.89,147,90.69Z"/><path class="cls-2" d="M144.95,150.82a11.45,11.45,0,0,0-1.88.5c-1.4.64-1.41,3.64-3.46,2.64-1.54-.79-.47-3-.71-4.62-.29-1.77.78-4.33-2.29-4.53s-3-2.2-2.41-4.2a20.84,20.84,0,0,0,.69-6.86c-1,0-2.15.31-2.51,1.31-2.42,6.72-4.76,13.45-4.52,20.78.1,3,1.26,2.65,3.42,1.84,2.59-1,3.12-3.69,5.12-5.69.91,2.9-.21,4.83-1.38,6.74l0,2c3,.72,1.1,2.43.55,3.56-1.12,2.3.2,1.92,1.57,1.66l1-.88c-.25-1.48.34-2.21,1.87-2.21l1.9-3.08C141.29,156.22,145.31,154.27,144.95,150.82Z"/><path class="cls-2" d="M169.16,149.87l-.31-9.12c-1.72-.17-2.48.59-3.28,2.24s-2.25,3.41-4.43,3.27c-6.53-.4-9.6,2-10.27,8.36l1.07.24c.77-1.89,2.67-2.72,3.94-4.13.09-.8.19-1.8,1.28-1.46.77.24.58,1,0,1.5L157,154.7c.84.5,1.64,1.13,2.72.8.68-2.58,2.27-2.15,3.62-.82,3.64,3.59,5.23,2.14,5.89-2.15Z"/><path class="cls-9" d="M136.86,64a5.1,5.1,0,0,0-.07.84l3.11,2.89a10.94,10.94,0,0,1,6.11,7c2.28,3,2.28,3,.87,4,.67,3,1.7,6,0,9q.08,1.52.08,3c5,.17,4.25-4.47,6-7-1.28-7.26-5.18-13-10.31-18.24A5.18,5.18,0,0,0,136.86,64Z"/><path class="cls-13" d="M129.9,61.43c-.1,1-.79,1.18-1.63,1.12-1.49,2.36-2.41,5.09-4.49,7.09.23,2-.89,2.94-2.77,3.16q0,.46-.11.91c.23,1.44-.49,3.15,1.16,4.2l4.9-6.16c.11-5.77,4.34-4.93,8-5l1.87-1.92a5.1,5.1,0,0,0,.07-.84C134,64.55,132.4,61.76,129.9,61.43Z"/><path class="cls-2" d="M122.1,37.72a19.8,19.8,0,0,0,6.81,14C129,45.87,129.49,39.87,122.1,37.72Z"/><path class="cls-2" d="M129,51.77c-1.57,2.5-.76,5.32-1,8l.25,2.76c.84.06,1.53-.12,1.64-1.12-1.17-1.69-.74-3.3.24-4.9C131.22,54.59,131.34,52.87,129,51.77Z"/><path class="cls-2" d="M147,148c-1.6.13-2,1.33-2,2.72h1.9c.76-.32,1.56-.76,1.44-1.72A1.73,1.73,0,0,0,147,148Z"/><path class="cls-3" d="M169.64,134.77l-.93,1.06.13,1.8C171.09,137.23,171.64,136.34,169.64,134.77Z"/><path class="cls-9" d="M150.06,156.78l1.89-.1v-1.84l-1.07-.24A2,2,0,0,0,150.06,156.78Z"/><path class="cls-3" d="M120.75,36c-.11.87.66.57,1.11.71l0-1C121.49,35.83,120.75,35.89,120.75,36Z"/><path class="cls-3" d="M122,34.8a2.33,2.33,0,0,0,0,.91C122.76,35.4,122.78,35.09,122,34.8Z"/><path class="cls-3" d="M156,43.74h1C156.66,43.14,156.32,43,156,43.74Z"/><path class="cls-15" d="M126.06,59.8a13,13,0,0,1-7.2,6,1.14,1.14,0,0,1-1.94.48,1.34,1.34,0,0,1-.88-.22l-2.42-.53c-4.21-1-6.72-7.93-3.44-10.54,1.94-1.55,3.53-7.06,7.66-2.36l4.11.08c4.25-3.16-.27-5.62-.65-8.42-.69-5-2.81-3.62-5.24-1.23-1.71,1.68-3.31,4-6.13,1.68-5-.65-7.64,1.73-8.28,6.5-.23,1.71-1.06.54-1.66.54l-.51,1.12c.41,6.14,1,12.24-.36,18.38a20.22,20.22,0,0,0,.35,10.38c2.39,1.46,2.22,4.26,3.12,6.46,1.35,3.3,3.2,5.35,7,4.57-.5-2.3,1.53-4.55.14-6.87-1.45-.19-2.44-1.47-1.71-2.37,2.2-2.68,3.66-5.09,1.43-8.68-.56-.9,2.11-1.33,2.6-.59,2.74,4.13,5,4.27,7.31-.31.12-.24.94-.17,1.44-.17a3.9,3.9,0,0,0,.11-.91c0-1.91,1-2.8,2.79-3.17,2.07-2,3-4.73,4.48-7.09L128,59.77Z"/><path class="cls-1" d="M117.87,52.62,116.19,54c-2.15,2.6-2.26,5.83-2.57,9v2.49L116,66c3.87-2.71,7.44-5.73,9.18-10.38L122,52.7Z"/><path class="cls-3" d="M125.19,55.55c-1.7,4.67-5.28,7.68-9.15,10.44a1.34,1.34,0,0,0,.87.22l1.94-.48a13,13,0,0,0,7.2-6C125.45,58.4,128.39,56.35,125.19,55.55Z"/><path class="cls-7" d="M98.51,153.5c.92-1.68-.63-3.09-.63-4.68l-1-1.05c-6.84,2.91-7,3.61-3.73,9.91a39.35,39.35,0,0,0,3.93,6.14c1.66,0,2.11-2.23,3.88-2.08h1.94v-2C99.22,159.21,95.8,158.5,98.51,153.5Z"/><path class="cls-7" d="M92.33,162.12c-3.47,2.09-5.48-.14-8.14-2-4.34-3-10.77-.31-12.23,4.62,1.22,1.32,3.16,1.6,3.64,0,1.48-5.54,6.31-2,6.74-1.33,2.75,4.42,5.66,2.07,8.66.93a14.69,14.69,0,0,1,2.89-.49C93.33,163.21,92.46,162,92.33,162.12Z"/><path class="cls-10" d="M65.95,204.73c-.39.08-.79.2-1.19.32l1.16.34a2.73,2.73,0,0,0,0-.65Z"/><path class="cls-5" d="M101,161.75l-1.1,6.92c2.48-.29,3.9-1.92,5.06-3.92l-2.06-3Z"/><path class="cls-7" d="M65.2,168.55c1.34.21,1.62-.79,1.76-1.79l-3-.05C64,167.54,64.11,168.41,65.2,168.55Z"/><path class="cls-10" d="M66,204.74l.23-.42Z"/><path class="cls-12" d="M169.28,152.53c-.66,4.29-2.26,5.74-5.89,2.15-1.34-1.33-2.94-1.76-3.62.82L157,159.92a5,5,0,0,0,4.16-2.31c1.94,4.49,6.23,2.23,9.35,3.33,1.15.4,1.87,1.9,3.39,1.81C172,159.53,172.66,155.11,169.28,152.53Z"/><path class="cls-6" d="M181,148.33a5.43,5.43,0,0,0,1.89,4.44l.11-.07C182.72,151.22,183.55,149.33,181,148.33Z"/><path class="cls-12" d="M173.91,162.69c.07.79.13,1.57.94,2Z"/><path class="cls-12" d="M151.9,154.85v1.84c1.4,2.3.93,4.85,1.06,7.3a5.36,5.36,0,0,0,3.85-3.33,4.42,4.42,0,0,1,.2-6q0-1.94.11-3.94h-1.28C154.57,152.14,152.67,153,151.9,154.85Z"/><path class="cls-9" d="M157,154.7c-1.69,1.94-1.64,3.95-.2,6a7.32,7.32,0,0,0,.2-.78l2.72-4.42C158.68,155.84,157.89,155.2,157,154.7Z"/><path class="cls-14" d="M102.84,153.79c-.68,2,2.39,4,0,6v2l2.06,3,1.11-.06c.35-.71.66-.71.92.05l-.1,2,2.13,2,1-1V165c-.21-1.11,0-2.63-.71-3.27-2.87-2.75-1.19-4.76.75-6.85-.5-2,.53-3.68,1.84-5.61C107.7,149.51,106.18,153.4,102.84,153.79Z"/><path class="cls-5" d="M104.84,171.72c0,1.11-.15,2.31,1,3,.67-2.16,2.86-3.57,3-6l-2.13-2C104.63,167.84,105,169.89,104.84,171.72Z"/><path class="cls-5" d="M106,164.7a7.39,7.39,0,0,0,.92,0C106.62,164,106.31,164,106,164.7Z"/><path class="cls-7" d="M112.67,162.53c0,1.83-1.43,2-2.71,2.38v2.82c2.22.14,3.88-.5,4-3.15A2.08,2.08,0,0,0,112.67,162.53Z"/><path class="cls-9" d="M116.91,144.72c1.81.21,2.2,1.08,1.59,2.8s-1.08,3.47-1.61,5.21c1.16,1.9,3,2.24,5,2v0c.2-1.12-.35-2.7,1.65-2.7.06-.64.43-1.52.14-1.9-2.72-3.59-2.11-7,.46-10.27a3.63,3.63,0,0,0,.44-3.29C120.07,137.46,116.39,139.09,116.91,144.72Z"/><path class="cls-3" d="M135.59,164.25c.55-1.13,2.45-2.84-.55-3.56-2.56,2.53-.78,6.7-3.46,9.2a19.44,19.44,0,0,0-1.79,6.77c.75,1.17,1.93,1.08,3.1,1.08l.78-2.25c-.36-3.75,3.49-6,3.49-9.58C135.79,166.17,134.47,166.55,135.59,164.25Z"/><path class="cls-11" d="M117,144.71c-.5,4-3.23,6.77-5,10,.38,1.68-.61,3.6,1,5l4-7c.53-1.74,1.06-3.62,1.61-5.21S118.77,144.92,117,144.71Z"/><path class="cls-9" d="M111.89,154.74l-1.88.08c-1.94,2.09-3.62,4.1-.75,6.85.71.64.5,2.16.71,3.27,1.29-.38,2.72-.55,2.72-2.38l.2-2.82C111.25,158.31,112.25,156.39,111.89,154.74Z"/><path class="cls-9" d="M121.94,154.78v0c-.34,4,2,7.35,3.06,11,1.05-4.21,2.48-8.54-1.43-12.21Z"/><path class="cls-9" d="M129.1,168.89a2.71,2.71,0,0,1,2.49,1c2.67-2.49.89-6.66,3.45-9.2q0-1,0-2C132.1,161.55,129.34,164.48,129.1,168.89Z"/><path class="cls-9" d="M125,167.76c-.52.23-1.48.41-1.58.78-.23,1.17.81,1.1,1.58,1.22C126,169.07,126,168.42,125,167.76Z"/><path class="cls-3" d="M138.15,165a2.13,2.13,0,0,0,1.87-2.21C138.48,162.75,137.89,163.51,138.15,165Z"/><path class="cls-12" d="M144,159.76v0l0,0Z"/><path class="cls-12" d="M144.29,158.45l-.32,1.27C144.45,159.44,145.15,159.14,144.29,158.45Z"/><path class="cls-3" d="M100.44,132.14c-3.56,3-5.18.89-6.49-2.29-6.93-.25-9.14-3.48-9.07-13.2l-.12-1-1.8.07c-2.44,1.9-2.77-.78-4-1.72s-2.38-3.68-4-.33c.15,3.32-.24,6.78,2.7,9.28.34-.8.19-2,1.69-.58,4.28,4.07,5.91,9.92,9.91,14.14a28.18,28.18,0,0,1,11.62-1.77c.71-1,2.29-1.4,1.93-3C102,131.82,101,131.69,100.44,132.14Z"/><path class="cls-12" d="M98,142.46v-3H95.86c-.2,1.51.68,3.24-1.57,4.18-4.92,2.06-10.29,3.59-12.76,9.15a1.32,1.32,0,0,1-1.21.35c-3.59-2.92-8.56.78-12-3.12L67,155.79c7.46-1.12,14.89-.2,22.46.66-.08-.75.05-1.45-.2-1.64-3.46-2.54-3.68-4.55.87-6,.49-.16.69-1.09,1.12-1.59,2.13-2.45,4.07-2.72,5.65.55l1,1.05c2.39-.31,1.22-1.66.71-2.8S96.1,144,98,142.46Z"/><path class="cls-1" d="M77.63,123c-2.92-2.51-2.53-6-2.67-9.28-1.7.47-4.55-1-4.9,1.83-.48,4.34-.74,8.82,1.85,12.82,2.27,3.51,5.34,1,8,1.41C79.58,127.33,77.19,125.61,77.63,123Z"/><path class="cls-1" d="M105.68,137.67h.2a2.83,2.83,0,0,0-.35-.21A1.4,1.4,0,0,0,105.68,137.67Z"/><path class="cls-1" d="M105.68,134.78h-4.83a28.18,28.18,0,0,0-11.62,1.77c1.93,1.62,4.39,2,6.61,3H98c1-.44,1.88-1.07,3-.68,1.7.21,2.7-2.41,4.59-1.41C105,136.58,105.77,135.71,105.68,134.78Z"/><path class="cls-3" d="M78.24,134.46c-4.36,2-.27,2.28.64,3.28,4.91-2.67,5.26-3.85,2.08-7.07A4.48,4.48,0,0,1,78.24,134.46Z"/><path class="cls-12" d="M48,153.15c-1.07.14-.88,1-.67,1.79l2.59-.18C49.54,153.86,49,153,48,153.15Z"/><path class="cls-3" d="M16.93,163.08a1.63,1.63,0,0,0-1.15.55c-.33.52,0,.83.67,1l1.06-.55C17.31,163.7,17.12,163.08,16.93,163.08Z"/><path class="cls-13" d="M94,84.75c-.09-.64,0-1.52-.32-1.9-5.82-6-5.93-6.47-4.82-15.56a27.43,27.43,0,0,0,0-3.45L87,63.74c-.5,2.41-1.61,2.57-3.24.89l-.17,0A2,2,0,0,0,82,67q-.09,1.3-.13,2.69C86.6,73.39,84.4,78.24,84,82.8v4c2.52.31,2.1,2.26,2,3.8-.32,4.87-.72,9.74-1.27,14.58-.13,1.16-.75,2.23.49,3.07a2.1,2.1,0,0,0,2.33.15c1.26-.75,1.23-1.74.81-3-1.16-3.5,1.59-5.84,2.71-8.66-.59-.39-1-1.43-.59-1.57C96.37,93.27,93.63,88.48,94,84.75Z"/><path class="cls-11" d="M91,96.68c-1.12,2.83-3.87,5.17-2.71,8.66.41,1.3.45,2.29-.81,3a2.1,2.1,0,0,1-2.33-.15c-1.24-.85-.62-1.91-.49-3.07.56-4.85,1-9.71,1.27-14.58.07-1.54.49-3.49-2-3.8-4.31,9.52-2.57,19.25-1,29l1.8-.07a7.06,7.06,0,0,0,.13-1A1.84,1.84,0,0,1,87,112.69l.94-1,4-7,2.23-5.9C94,96.68,93.59,95.14,91,96.68Z"/><path class="cls-14" d="M79.66,65.14,77,64.76l-.13,3.86c1.2.74,1.07,2,1.13,3.11l3.76-1.1a4.26,4.26,0,0,0,.15-1Q82,68.31,82,67C80.9,66.68,80,66.32,79.66,65.14Z"/><path class="cls-2" d="M79.37,79.92a.83.83,0,0,0,.77.34c.21-.08.27-.51.39-.79l-.84-.37C79.57,79.38,79.3,79.71,79.37,79.92Z"/><path class="cls-14" d="M57.18,84.05a3.25,3.25,0,0,0-4,1.94,1,1,0,0,0,.88,1.46A6.7,6.7,0,0,0,58.51,86l0-.11A1.61,1.61,0,0,0,57.18,84.05Z"/><path class="cls-12" d="M76.81,68.62l-1.79,0q.06,1.52.11,3l2.81.08C77.87,70.62,78,69.36,76.81,68.62Z"/><path class="cls-11" d="M97.82,50.77c-.91.61-.9,1.29-.09,2l1.72.11.51-1.12-.35-1.13Z"/><path class="cls-11" d="M101,44.77l.71-1.13Z"/><path class="cls-2" d="M99.48,81.65a20.25,20.25,0,0,1-.35-10.38c1.36-6.15.77-12.25.36-18.38l-1.72-.11-.38,9c.12,2,.46,4-.54,5.93l-.1,1.06-1,5.91L96,86.88c.34,2.48-.77,5.28,1.84,7.57,1.49-1.21,1.53-3.08,2.18-4.62C100.16,87.08,98.78,84.43,99.48,81.65Z"/><path class="cls-14" d="M91.9,67.9c.07-2.17-.26-4.09-3.08-4.09a27.43,27.43,0,0,1,0,3.45c-1.11,9.09-.95,9.56,4.82,15.56.32.39.23,1.26.32,1.91l2,2.13-.22-12.18C92.72,73.41,91.83,71,91.9,67.9Zm0,11.45c-.22-.34-.71-.64-.6-1s.6-.62.92-.93L93,78.51Z"/><path class="cls-14" d="M85.85,62.75a2,2,0,0,0-2.13,1.86c1.62,1.68,2.74,1.52,3.24-.89l-.83-.93Z"/><path class="cls-13" d="M85.19,55.57c.31,1.56.76,3,2.65,3.28C88.34,56.63,87.36,55.61,85.19,55.57Z"/><path class="cls-14" d="M96.49,68a4.42,4.42,0,0,0,.28.79l.1-1.06C96.74,67.8,96.48,67.92,96.49,68Z"/><path class="cls-13" d="M138.65,87.15c2.3,4.61,1.42,5.75-5.79,7.53l-.07.08c-.39,4-3.86,3.43-6.39,4-3.42.72-6.49,1.68-6.49,6l.11.11c1.6-.19,3-1.42,4.69-1,.6-3.5,3.26-3.07,5.76-3.07,1.42,0,2.83.35,3.17,1.83a6,6,0,0,1-2,6.22c-1.48,1.25-2.75,2.89-4.88,3.25.67,1.65,3.08,1.35,3.67,3.49-4.86,0-7.22-2-6.53-6.88-2.58,4.87-2.06,10.88-5.74,15.39-.7.86,0,2.22,1.38,2.67,2.64.84,5.31,2,8,.16a12.57,12.57,0,0,0,5.43-7.66c.48-1.89,2.74-2.17,3.91-3.51-.23-4.25.67-8.53-.65-12.75-.46-1.52.24-3.76,1.54-3.65,6.52.54,6.11-5.87,9.22-8.66q-.08-1.52-.08-3C144.11,88.36,141.52,85.84,138.65,87.15Z"/><path class="cls-12" d="M121.83,133c-4.13-.86-8.78.37-12.13-3.29-.64-.08-1.47-.16-1.26-1,.1-.39,1-.58,1.51-.86-.1-1.33-.61-2.18-2.1-2.07-3.23.15-2.92,3.7-4.92,5.07a1.35,1.35,0,0,1-.14.89c.36,1.65-1.22,2-1.93,3h4.83c.91.22,2,.22,2,1.44s-1,1.39-2,1.44h.2c-2.64,1.84-2.51,4.66-2,7.14a15.84,15.84,0,0,1-1.08,9c3.38-.4,4.9-4.28,9-4.56-1.31,1.93-2.34,3.61-1.85,5.61l1.9,0c1.8-3.24,4.53-6,5-10-.54-5.62,3.14-7.25,7.66-8.09a17.68,17.68,0,0,0,.09-1.78C123.29,134.87,122,134.79,121.83,133Zm-8.48,8.87a8.41,8.41,0,0,1-3.94,4.39c-.35-.56-1.08-1.25-1-1.62a63.14,63.14,0,0,1,2.64-7.25,1.39,1.39,0,0,1,2.16-.13C114.43,138.66,114,140.3,113.35,141.85Z"/><path class="cls-11" d="M132.95,119.13a12.57,12.57,0,0,1-5.43,7.66c-2.66,1.79-5.33.68-8-.16-1.38-.45-2.08-1.81-1.38-2.67,3.68-4.52,3.16-10.52,5.74-15.39a7.33,7.33,0,0,0,.83-4.83c-1.69-.42-3.1.82-4.69,1l-2,5c3.67,1.39,1.74,4.46,1.67,6.69-.06,1.76-1.7.56-2.7.3l-1,2.89c1.75,2.65-1.2,2.17-2.06,3.08-.08,2.65-.94,4.66-3.94,5.06l-.24,1.85c3.35,3.66,8,2.43,12.13,3.29l2.93-.16c.85-.08.8-1.58,2.3-1,3.3,1.27,5.39-1,6.62-3.53a35.13,35.13,0,0,0,3.13-12.59C135.7,117,133.43,117.24,132.95,119.13Z"/><path class="cls-9" d="M124.72,134.83l.16-2-3,.07C122,134.71,123.33,134.79,124.72,134.83Z"/><path class="cls-5" d="M121.89,154.78l1.68-1.26,0-1.44C121.5,152.06,122.09,153.66,121.89,154.78Z"/><path class="cls-9" d="M157.17,149.3c-1.09-.34-1.18.66-1.28,1.46h1.28C157.75,150.25,158,149.5,157.17,149.3Z"/><path class="cls-15" d="M140,67.76l-3.09-2.89L135,66.75c-1.64,4-3.45,8-3.07,12.49l0,.09a2.18,2.18,0,0,1-1.73,2.55c0,3.08-1.6,5.47-3.27,7.85a15.65,15.65,0,0,1-.42,1.87c-.55,1.53-1.24,3.32.09,4.53,1.51,1.37,2.94-.38,4.39-.85l1.83-.57.07-.08c-.26-5.65,2.25-10.73,3.66-16,.41-1.47,1.59-5.85,5.41-2.22,1.19,1.14,4,0,5,2.35,1.42-1,1.42-1-.87-4C141.42,73.86,138.84,70.92,140,67.76Z"/><path class="cls-14" d="M141.92,76.38c-3.82-3.63-5,.75-5.41,2.22-1.42,5.26-3.93,10.34-3.66,16,7.2-1.78,8.11-2.92,5.8-7.5,2.88-1.22,5.47,1.29,8.27.63,1.68-3,.66-6,0-9C145.92,76.38,143.12,77.52,141.92,76.38Z"/><path class="cls-14" d="M139.94,67.72c-1.12,3.21,1.46,6.14,6.11,7A10.94,10.94,0,0,0,139.94,67.72Z"/><path class="cls-14" d="M120.86,73.69c-.5,0-1.32-.07-1.44.17-2.31,4.58-4.57,4.44-7.31.31-.5-.75-3.16-.32-2.6.59,2.23,3.59.77,6-1.43,8.68-.73.89.26,2.18,1.71,2.37.67-2.89,2.91-2.24,4.7-1.86,2,.43,1.26,2.33,1.42,3.7.22,1.72-.65,3.64,1,5.08,3.85-4.2,4.51-9.51,5.11-14.84C120.38,76.84,121.09,75.13,120.86,73.69Z"/><path class="cls-15" d="M126.91,71.74,122,77.9c-.6,5.32-1.26,10.63-5.11,14.84l0,4.1c4.73.45,6.92-1.87,7-6.48A2.63,2.63,0,0,1,125,87.81c-.41-3,2.19-5.14,2-8C126.07,77.13,129.8,74.4,126.91,71.74Z"/><path class="cls-14" d="M126.89,71.74c2.89,2.67-.85,5.39.07,8.07,1.66-.22,2.9.18,3.16,2l.09,0a2.18,2.18,0,0,0,1.62-2.62c-.36-4.46,1.46-8.46,3.06-12.46C131.24,66.83,127,66,126.89,71.74Z"/><path class="cls-14" d="M121,72.79c1.88-.22,3-1.14,2.77-3.16C122,70,120.91,70.88,121,72.79Z"/><path class="cls-13" d="M116.9,96.74v-4c-1.64-1.44-.78-3.36-.91-5.09-.16-1.37.58-3.27-1.42-3.7-1.81-.39-4.06-1-4.72,1.85,1.39,2.32-.64,4.57-.14,6.87,2.7,3.06-.75,4.84-1.5,7.18,0,.8-.25,2.11.12,2.33,3.81,2.29,2.76,6.33,3.66,9.65q.17.9.35,1.79l4.29.15c1.42-.58,1.24-1.85,1.31-3-1.16-.23-2.23-.52-1.7-2.11l1.77,1.13,2-5-.11-.11C114.84,103.59,115.83,100.18,116.9,96.74Z"/><path class="cls-14" d="M102.59,88.11c-.9-2.19-.73-5-3.12-6.46-.7,2.78.68,5.43.51,8.18,1.72,0,2.87,1.71,2.24,2.49-3.49,4.32.22,5.6,2.79,7.43,1.07-.5,2.14-1.39,3.14.11.75-2.34,4.2-4.12,1.5-7.18C105.8,93.45,104,91.41,102.59,88.11Z"/><path class="cls-13" d="M110.14,55c-3.28,2.61-.78,9.54,3.44,10.54V63c-2.41-.15-3.13-1.7-2.57-3.7.73-2.61,1.35-5.58,5.14-5.35l1.69-1.37C113.7,47.91,112.12,53.43,110.14,55Z"/><path class="cls-13" d="M117.51,66.59a1.14,1.14,0,0,0,1.39-.81l-1.94.48A1.14,1.14,0,0,0,117.51,66.59Z"/><path class="cls-3" d="M111,59.29c-.57,2,.16,3.55,2.57,3.7.31-3.15.38-6.37,2.57-9C112.36,53.72,111.74,56.68,111,59.29Z"/><path class="cls-5" d="M101,138.9c.91,2.74.72,4.67-3,3.74-1.89,1.55.11,2.48.6,3.55s1.67,2.36-.72,2.67c0,1.6,1.55,3,.63,4.68-2.71,5,.72,5.71,4.39,6.24,2.41-2-.66-4,0-6a15.84,15.84,0,0,0,1.08-9c-.47-2.48-.6-5.3,2-7.14C103.8,136.1,102.78,139.07,101,138.9Z"/><path class="cls-1" d="M106.84,115v-.2h-1c-1,.69-3,.82-2.44,2.54.6,1.91.45,3.12-1.55,3.91a5.88,5.88,0,0,1-6-1.08c-3.08-3.15,1.6-3.79,3.21-6.31l-12,1c-.11,1.65-.21,3.27-.32,5-1.38-.76-.43-2.68-1.88-3.23-.07,9.71,2.15,12.94,9.07,13.2.35-5,3.55-3.28,6-2.28,1.25.51,2,2.11,3,3.22,2-1.37,1.69-4.92,4.92-5.07l.41-2.82C105.75,120.65,107.59,117.61,106.84,115Zm-2.4,8.58c-.25,0-.5-.23-.75-.36l.73-.44.75.41C104.93,123.36,104.69,123.6,104.44,123.61Z"/><path class="cls-2" d="M100,127.58c-2.42-1-5.63-2.72-6,2.28,1.28,3.13,2.9,5.31,6.49,2.28.53-.45,1.57-.31,2.37-.45a1.35,1.35,0,0,0,.14-.89C102,129.69,101.18,128.09,100,127.58Z"/><path class="cls-2" d="M84.88,114.68a7.44,7.44,0,0,1-.13,1l.12,1c1.45.55.5,2.47,1.88,3.23l.32-5-.19-.23Z"/><path class="cls-9" d="M98,139.59v3c3.74.93,3.92-1,3-3.74C99.84,138.48,99,139.11,98,139.59Z"/><path class="cls-5" d="M105.69,134.77c.1,1-.86,1.94,0,2.9,1,0,2-.19,2-1.44S106.59,135,105.69,134.77Z"/><path class="cls-9" d="M102.2,92.31c.63-.78-.52-2.49-2.24-2.49-.62,1.54-.67,3.42-2.15,4.59-2.61-2.29-1.5-5.1-1.84-7.58L94,84.7c-.4,3.73,2.33,8.52-3.59,10.42-.41.15,0,1.18.59,1.57,2.55-1.54,3,0,3.13,2.11,4.8-.64,4.29,3,4.8,5.89l2.08,1-.66-4.12c1.67-.66,3.14,0,4.67.27v-2.1C102.42,97.91,98.71,96.63,102.2,92.31Z"/><path class="cls-2" d="M105.79,114.82c-3.06-2.43-5.1-7.28-10.64-3.4-1.64,1.19-4.82.29-7.3.29l-.94,1,0,2,.15.17,12-1c-1.61,2.52-6.29,3.16-3.21,6.31a5.88,5.88,0,0,0,6,1.08c1.95-.79,2.15-2,1.55-3.91C102.79,115.64,104.79,115.51,105.79,114.82Z"/><path class="cls-3" d="M103.93,108.78c-1.63-.35-1.76-2.19-2.94-3l-2.08-1c-2.31,4.27-4.65,4.12-7,0l-4,7c2.47,0,5.65.9,7.3-.29,5.47-4,7.51.9,10.58,3.33l1,0a4.06,4.06,0,0,0-.89-3.36C103.66,111.78,104,110.1,103.93,108.78Z"/><path class="cls-12" d="M94.14,98.83l-2.23,5.9c2.32,4.12,4.66,4.27,7,0C98.39,101.88,98.9,98.2,94.14,98.83Z"/><path class="cls-3" d="M84.91,114.77h2l0-2a1.84,1.84,0,0,0-2,2Z"/><path class="cls-13" d="M91.29,78.35c-.07.26.38.66.6,1L93,78.51l-.81-1.09C91.88,77.72,91.36,78.09,91.29,78.35Z"/><path class="cls-14" d="M130.46,100.76c-2.5,0-5.16-.43-5.76,3.07a7.33,7.33,0,0,1-.83,4.83c-.69,4.88,1.67,6.83,6.55,6.89-.59-2.15-3-1.85-3.67-3.49,2.12-.37,3.39-2,4.88-3.25a6,6,0,0,0,2-6.22C133.29,101.11,131.88,100.76,130.46,100.76Z"/><path class="cls-14" d="M126.52,96.16c-1.33-1.21-.64-3-.09-4.53a15.66,15.66,0,0,0,.42-1.87l-1.89-2a2.63,2.63,0,0,0-1.06,2.54c-.06,4.61-2.25,6.94-7,6.48-1.1,3.44-2.09,6.85,3,7.94.06-4.32,3.06-5.27,6.45-6,2.53-.58,6,0,6.39-4l-1.83.57C129.46,95.77,128,97.52,126.52,96.16Z"/><path class="cls-14" d="M113,137a1.39,1.39,0,0,0-1.94.33,63.14,63.14,0,0,0-2.64,7.25c-.08.4.65,1,1,1.62a8.41,8.41,0,0,0,3.89-4.39c.66-1.55,1.08-3.18-.09-4.61A1.39,1.39,0,0,0,113,137Z"/><path class="cls-5" d="M108.69,122.93l-.49,0-.35,2.85c1.5-.11,2,.75,2.1,2.07,2.94-.41,3.86-2.41,3.94-5.06l-4.71.1Z"/><path class="cls-5" d="M108.45,128.62c-.21.85.62.94,1.27,1l.24-1.85C109.46,128.05,108.58,128.24,108.45,128.62Z"/><path class="cls-14" d="M112.28,113.62A5.48,5.48,0,0,0,111,117.8c.19,4.58,3.5.76,5,1.86l1-2.89q-.19-1.5-.39-3Z"/><path class="cls-12" d="M111,117.81l-2.08-1q.16,3.07.31,6.07l4.71-.1c.86-.91,3.81-.43,2.06-3.08C114.49,118.57,111.17,122.38,111,117.81Z"/><path class="cls-3" d="M118,109.77a7.74,7.74,0,0,1-.08,1c-.07,1.18.11,2.44-1.31,3q.2,1.5.39,3c1,.22,2.64,1.46,2.68-.31C119.71,114.22,121.66,111.16,118,109.77Z"/><path class="cls-13" d="M127,79.71c.17,2.91-2.43,5.08-2,8l1.89,2c1.67-2.38,3.3-4.72,3.28-7.95C129.88,79.9,128.64,79.5,127,79.71Z"/><path class="cls-15" d="M108.22,102.19c-.37-.22-.12-1.53-.12-2.33-1-1.5-2.08-.61-3.14-.11v2.1l0,4.89,1,2c2.32.4,3.39,3.23,6,3.1C111,108.52,112,104.48,108.22,102.19Z"/><path class="cls-5" d="M112,111.83c-2.6.14-3.67-2.69-6-3.1q0,1.36,0,2.75a4.06,4.06,0,0,1,.89,3.36v.2c1.22,0,1.3,1.29,2.09,1.77l2.06,1a5.49,5.49,0,0,1,1.35-4.19Q112.13,112.72,112,111.83Z"/><path class="cls-11" d="M117.88,110.82a7.74,7.74,0,0,0,.08-1l-1.78-1.11C115.65,110.3,116.72,110.59,117.88,110.82Z"/><path class="cls-2" d="M106.78,115c.75,2.59-1.08,5.63,1.41,7.88l.49,0,.49-.09q-.15-3.07-.3-6.07C108.08,116.28,108,115,106.78,115Z"/><path class="cls-2" d="M103.69,123.26c.25.13.51.36.75.36s.49-.25.73-.39l-.75-.42Z"/><path class="cls-14" d="M100.3,101.63l.66,4.12c1.18.78,1.31,2.62,2.94,3l.12-.12a1.77,1.77,0,0,1,.94-1.9v-4.88C103.46,101.55,102,100.92,100.3,101.63Z"/><path class="cls-14" d="M104,108.73c.1,1.33-.25,3,2,2.71v-2.69l-1.88-.13Z"/><path class="cls-5" d="M104.08,108.62l1.88.13-.94-2A1.77,1.77,0,0,0,104.08,108.62Z"/></g></g></svg>