<?xml version="1.0" encoding="utf-8"?>
<!-- Generator: Adobe Illustrator 20.0.0, SVG Export Plug-In . SVG Version: 6.00 Build 0)  -->
<svg version="1.1" id="Layer_1" xmlns="http://www.w3.org/2000/svg" xmlns:xlink="http://www.w3.org/1999/xlink" x="0px" y="0px"
	 viewBox="0 0 133.4 158.2" style="enable-background:new 0 0 133.4 158.2;" xml:space="preserve">
<style type="text/css">
	.st0{fill:#E7E3DE;}
	.st1{fill:#CBBEAC;}
	.st2{fill:#BDB2A6;}
	.st3{fill:#E1DAD0;}
	.st4{fill:#9C8F86;}
	.st5{fill:#70645B;}
	.st6{fill:#675649;}
	.st7{fill:#7E7268;}
	.st8{fill:#4B3B2E;}
	.st9{fill:#D9D0C6;}
	.st10{fill:#CEC4B7;}
	.st11{fill:#ADA295;}
	.st12{fill:#2A1E16;}
	.st13{fill:#8C7E73;}
	.st14{fill:#B69F85;}
</style>
<title>beard</title>
<g id="Layer_2">
	<g id="Layer_1-2">
		<path class="st0" d="M26,12.2c-2.8,5.3-8.9,9.2-7.4,16.4l2.9-1.2c0-0.7,0-1.4,0-2.1c-1-4,3.3-4,4.7-6.1c4.1-6.4,4.5-6.7,11.6-4.5
			c1.5,0.4,3.9-0.2,4.4,2.4c0.5,2.8-3,1.6-3.6,4.3c3.9,0,7.6-0.1,11.3,0c2.3,0.1,4.8-0.1,5.3,3.1c0.5,0.8,0.9,1.7,1.2,2.6
			c0.6,3.3,1.2,7.1-2,9c-4.1,2.3-7.6,4.9-10.1,8.9c-1.3,2.1-2.6,4.8-5.9,4.4l-1.4,2.6c0.6,4.4-1.9,6.8-5.4,8.6l-7.3,10.8
			c-1.4,5.3,0.6,10.7,0,16h1c0.7,0,1.3,0,2,0c5.9,0.9,5.8,0.9,6-5.2c0.2-5.4,1.8-10.7,4.7-15.4c1.1-1.8,0.7-5,4.2-4.5
			c0.6-4.7,4.9-5.2,8-7c3.4-5,5.8-5.2,9-0.8c2.5,0.7,3-4.2,6-2.2c3.6,2.2,7.4,3.6,11.7,3c1.3-0.2,2.1,0.7,2.3,2l2,1
			c2.6-0.5,5-1.5,7.1-3.1c-0.4-1.2-1.9-1.8-1.6-3.3c1.3-1,2.4,0.6,3.6,0.3l0,0c0-0.7,0-1.3,0-2c-1.3-1.7-3-3.1-4.9-4
			c-2.4,0.1-3.7-1.9-5.7-2.7c-8.5-3.5-8.6-4-5.5-13.2l0.2-4c-0.6-0.4-0.9-1.2-0.7-1.9l-0.4-1.1c-2.1-0.7-1.7,2.7-3.8,2.3
			c-1.5-5.9,1.5-12.1-1.8-17.9c3.9,2.4,5.5,6.1,7.4,9.6c1.5-3.6,4.7-1.4,7.1-1.9l2.9-5.1c0.7-4,3.7-2.9,6.2-2.7
			c5.9,0.4,11.4,2.4,16.8,4.8c-1.5-3.7-4.9-4.4-8.1-5.7c-5.2-2.1-10.7-3.2-16-4.8c-9.8-2.9-19.4-1.3-29.1-1.5
			c-3.8-0.1-6.8,1.4-10,3.4C40,6.8,34.1,8.8,28.6,11.2C27.7,11.6,26.3,11.6,26,12.2z"/>
		<path class="st1" d="M10.4,71.2h1c0.5-2.4,1.8-4.7,3.6-6.4l-0.2-1.6c-1.2-0.9-3.4-1.7-2.1-3.7c2.1-3.2,2.1-7,3.5-10.4l10.1-11.9
			c-1.2-0.7-1.1-1.9-1.1-3c-2.2,0.6-4.6,0.5-4.3,4.1c0.2,2.6-3,2-4.4,3.2c0,0-0.1,0.1-0.1,0.1c-0.6,0.3-1.3,0.1-1.6-0.5
			c-1.2-1.8,1.1-2.5,1.3-3.9c0.1-0.3,0.1-0.7,0.2-1c-3-2.4,1.5-3.8,0.9-6c-3.3,0.8-7.8,8.9-7.3,13.1c0.7,5.4,1.2,10.7-0.4,16.1
			C8.4,63.4,11.8,67.2,10.4,71.2z"/>
		<path class="st2" d="M107.3,17.1c-2.7,3-2.4,6.1-0.1,9.1c3.3,0.4,6.2,2.5,10.1,1.2c2.7-0.9,4.9,2.6,5.1,4.3
			c0.2,2.5,5.2,4.5,1.1,7.5c0.1,1.5,0.5,2.9,1.3,4.1c2.2,4,3.2,8.6,2.9,13.1l0.8,2.7l1.2,0.1l1.6-0.1c-0.1-0.7-0.1-1.3-0.1-2
			c-1.4-1.8-1.4-4-1.8-6.1c-0.4-1.6-1.3-3.3-1-4.7c1-3.9,0.4-8-1.5-11.6c-2-4.2-4.1-7.8-7.7-10.6c-2.2-0.6-4.9-1.8-5.4-3.6
			C112.7,16.9,110.1,17.1,107.3,17.1z"/>
		<path class="st3" d="M85.2,10c0.3,0.4,0.9,0.9,0.8,1.1c-1.6,5.9,0.9,6.7,5.8,5c0.6-0.2,1.5,0.2,1.9-0.1c2.9-1.7,6.3,1.5,8.9-1
			c3.3-3.1,3.9-0.6,4.6,2c2.8,0,5.3-0.3,6.4,3.6c0.5,1.9,3.2,3,5.4,3.6c-1.9-3.4-3.3-7.4-7.7-8.6c-1.9-0.5-1.9-2.5-3.2-3.5
			c-5.4-2.4-10.9-4.4-16.8-4.8C88.9,7.3,85.9,6.1,85.2,10z"/>
		<path class="st4" d="M14.8,41.1c0,0,0,0.1,0.1,0.1c0.4,0.5,1.1,0.7,1.7,0.3c1.4-1.2,4.7-0.6,4.4-3.2c-0.3-3.6,2.1-3.5,4.3-4.1
			c3.2-1.4,4.4-5,7.5-6.7c1.5-0.8,2-3.2-1.3-3.4c-1.8-0.1-3.7,0.5-5.2-0.8l-2.7,1c-0.3,1.4-0.3,2.8-2.1,3l-2.8,1.2l-0.3,1.6
			c2.2,2.9,0.8,4.7-1.8,6.1c-0.1,0.3-0.2,0.7-0.2,1C15.9,38.6,13.6,39.3,14.8,41.1z"/>
		<path class="st2" d="M0.7,103.1c0,0.3,0.6,0.7,0.9,1.1l1.7-2c1.8-7.3,1.4-15.4,7.8-21c-2.3-3.4-0.1-6.6,0.2-9.9h-1
			C3.6,80.8,1.5,91.8,0.7,103.1z"/>
		<path class="st5" d="M130.7,118.3c-0.8,1.2-1.7,2.3-2.6,3.5c0.4,1.3,1.2,2.6,2.2,3.6l1.1-0.1C131.6,122.9,131.3,120.5,130.7,118.3
			z"/>
		<path class="st5" d="M126.2,113.2c1,2.7,0.9,5.8,1.9,8.5c0.9-1.1,1.7-2.3,2.6-3.5c0-0.1-0.1-0.2-0.1-0.3
			c-1.8-5.4-1.5-10.9-0.5-16.5c0.4-2.3,0.8-4.9-0.6-7.2c-2.1,0.2-3.7,1.4-3,3.5c1.3,3.8-0.4,7.1-1.2,10.6
			C126.1,109.7,126.4,111.5,126.2,113.2z"/>
		<path class="st6" d="M115.3,65.4l1,2.8c1.8-3.6,4.3-3.9,7.3-1.6c1,0.8,1.9,1.7,2.8,2.7l3.6-1l0.1-1.9c-2.4-0.8-2.6-1.8-0.3-3.1
			l-0.1-3.9l-1.2-0.1c-3.5,0.3-6.3,4.2-10.3,2C115.7,61.6,115.5,63.5,115.3,65.4z"/>
		<path class="st7" d="M0,112.8c1.1,1.8,2.2,3.5,3.4,5.1c-0.7-4.6,0.2-9,1.2-13.4c0.3-1.4,0.3-2.3-1.3-2.4l-1.7,2
			C1.4,107.1,1.2,110.1,0,112.8z"/>
		<path class="st5" d="M126.4,69.3c-1.2,4.1-1.5,8.4-0.9,12.7c1.2,1.6,0.6,3.5,1,5.2l2.5,1.2l1-9.1c-0.7-0.5-0.5-1.2-0.3-1.9
			c-0.4-1.1-0.5-2.2,0.6-3.1l0.3-3l-0.4-1.1l0.2-1l-0.4-1L126.4,69.3z"/>
		<path class="st8" d="M125.1,95.1c-0.1,4.4-1.1,8.8,0.2,13.2c0.8-3.5,2.6-6.7,1.2-10.6c-0.8-2.1,0.8-3.3,3-3.5l-0.6-5.9l-2.5-1.2
			C124,89.4,125.1,92.6,125.1,95.1z"/>
		<path class="st2" d="M16.4,36.3c2.7-1.4,4-3.2,1.8-6.1c-0.3-0.1-0.7-0.1-1,0C17.8,32.4,13.4,33.8,16.4,36.3z"/>
		<path class="st3" d="M131.2,59.2l-1.6,0.1l0.1,3.9l0.8,2.1C133,63.5,135.1,61.7,131.2,59.2z"/>
		<path class="st3" d="M129.4,51.2c0.4,2.1,0.4,4.3,1.8,6.1C133.3,54.4,132.1,52.6,129.4,51.2z"/>
		<path class="st2" d="M129.7,77.3l1.8-0.1c-0.2-1.1,0-2.3-1.2-3C129.2,75.1,129.3,76.2,129.7,77.3z"/>
		<path class="st5" d="M130.1,66.3l0.4-1l-0.8-2.1C127.5,64.4,127.7,65.5,130.1,66.3z"/>
		<path class="st3" d="M129.7,77.4c-0.2,0.7-0.3,1.4,0.3,1.9h2.2l0.1-0.1c0.1-0.8-0.2-1.5-0.8-1.9L129.7,77.4z"/>
		<path class="st3" d="M131.4,69.2l-1.2,1l0.4,1.1c0.9-0.1,2.1,0.2,2.2-1.1C132.8,69.9,131.8,69.5,131.4,69.2z"/>
		<path class="st3" d="M132.3,79.2L132.3,79.2l0.4,1.4c0.1-0.1,0.2-0.2,0.4-0.3C132.8,79.9,132.5,79.6,132.3,79.2z"/>
		<path class="st2" d="M130.4,69.2l-0.2,1l1.2-1H130.4z"/>
		<path class="st4" d="M73.8,24.4c-0.2,0.7,0,1.4,0.6,1.9c3.4,3.4,4,8.4,7,11.9l0,0c6.2,2.3,8.9,7.9,11.9,13.1l3.1,1.9
			c0.8-3.1-2.1-4.6-2.7-7.1c-2.5-4.5-6.5-7.6-10.2-10.9c-3.1-0.2-2.1-2.5-2-4.1c0.1-1.8,1.7-1.7,3-1.8c2.2-0.2,3,1,2.9,3
			c2.5-1.6,3.8,0,5,1.9c2.8-0.2,4.9,1.2,6.9,2.9c2.7,2.3,1.7-0.7,2.2-1.6l-7.3-5.6c5.4-0.7,9.8-0.7,14.3,1.9
			c3.2,1.9,2.9,2.8,0.7,4.8c0.9,1.6,2.6,1.9,4.2,2.3l0.1-1.2c-1.7-1.6-0.5-2,1-2.3c-0.7-1.5-0.5-2.2,1.3-2c3.4,0.2,6.2,2.7,6.7,6
			l0,0h1.2c4.1-3-0.8-5-1.1-7.5c-0.2-1.7-2.4-5.2-5-4.3c-3.8,1.3-6.7-0.8-10.1-1.2h-4c-0.7,0.8-1.7,1.1-2.7,1
			c-4.4,0.2-8.7-1.1-13.3-0.3c-2.9,0.5-5.6-1.8-5-5.8l-0.1-2.9l-4,4c-0.7,1.2-1.9,1-3,1c-0.3,0.1-0.6,0.2-0.9,0.3L73.8,24.4z"/>
		<path class="st9" d="M79.3,57.2l-3,3c1.3,2.8,3.4,5.3,6,7l0,0c0.3-0.8,0.7-0.7,1,0c1.7,1.4,0.8,3.3,1.1,4.9
			c1.8,2.1,2.9,12.8,1.4,15.8l-2.6-7c-0.5,2.6,1.6,14.3,2.4,15.6c1.4-1.4-0.2-3.6,1.7-5.8c-0.9,4.8,3,5.9,4.9,8.4l2.1-11
			c-1-0.8-1.7-2-0.1-2.5s1.9,1.2,1.9,2.5l0.1,0.1c2-3.1,6.5-5.8,2.2-10.2c-0.5,0.6-1.3,1.3-1.6,0.2c-0.3-0.9,0.8-1,1.6-1.1
			c0-0.3,0-0.5,0-0.8c-2.5-1.3-4.5-4.1-7.9-2.4c-0.2,0.1-0.3,0.1-0.5,0.1c-0.7,0.1-1.3-0.5-1.4-1.2c0-6.1-5.5-9.5-7.2-14.7
			L79.3,57.2z"/>
		<path class="st3" d="M88.3,55.2c-2.1,1.6-4.5,2.6-7.1,3.1c1.7,5.2,7.2,8.6,7.2,14.7c0,0.2,0.1,0.3,0.1,0.5
			c0.3,0.6,1.1,0.9,1.8,0.5c3.5-1.7,5.4,1.2,7.9,2.4c3,0.2,4,2.2,4,4.8c2.9,0.2,1.1-4.2,4-4c-1.2-3.6-4.3-6.2-5-10
			c-1.7,0-2.3-1.3-3.3-2.5C95,61.4,92,57.9,88.3,55.2z"/>
		<path class="st10" d="M82.3,15.4c-0.1,1-0.1,2-0.1,3c0.1,1,0.1,1.9,0.1,2.9h1.9c2.7-0.6,5.4-1.4,8.2-1.9c0.9-0.2,2.2,0.2,2.2,1.5
			c0,1.1-1.1,2.1-1.9,1.8c-2.6-1-4.9,0.7-7.3,0.7c1.8,1.6,4.1,0.8,6.1,0.8c4,0.1,8.1-0.2,11.8,2h4c-2.3-3-2.6-6,0.1-9
			c-0.7-2.7-1.3-5.2-4.6-2c-2.6,2.5-6.1-0.7-8.9,1c-0.5,0.3-1.3-0.1-1.9,0.1c-4.8,1.6-7.4,0.8-5.8-5c0.1-0.3-0.5-0.8-0.8-1.1
			L82.3,15.4z"/>
		<path class="st3" d="M25.3,87.2c0,0.7,0,1.3,0,2c0.8-0.1,1.6,0,2.5,0.1c6.4,1.8,7.9,1.1,11-4.7c0.2-0.4,0.6-0.8,1-1
			c3-1.3,2.4-3.9,2.5-6.3c0-0.3-0.1-0.7-0.1-1c-2-0.3-1.7-1.8-2-3.3c-0.9-3.9,1.5-7.1,2-10.7C38.7,61.8,39,65,38,66.8
			c-2.9,4.6-4.5,9.9-4.7,15.4c-0.2,6.1,0,6.1-6,5.2C26.6,87.2,25.9,87.2,25.3,87.2z"/>
		<path class="st3" d="M21.4,25.3l2.2-0.9l2.7-1c1.1-1.8,3-1.3,4.5-1.1c6.4,0.9,12.8,2.1,19.4,1c0.7-0.1,1.4,0.6,2.2,0.9l2.9,0.1
			c-0.5-3.2-3-3-5.3-3.1c-3.7-0.1-7.4,0-11.3,0c0.6-2.7,4.1-1.5,3.6-4.3c-0.5-2.6-2.9-1.9-4.4-2.4c-7.2-2.1-7.5-1.9-11.6,4.5
			C24.7,21.3,20.4,21.3,21.4,25.3z"/>
		<path class="st1" d="M40.1,44.2c-0.2,1.8-2,3.1-1.7,5.1c3.3,0.4,4.6-2.4,5.9-4.4c2.5-4,6-6.5,10.1-8.9c3.2-1.9,2.6-5.7,2-9
			c-0.3-0.9-0.7-1.8-1.3-2.6l-2.9-0.1c-0.9,0.5-1,1.4-1.1,2.3c3.7,3.1,2.9,5.6-0.9,7.7c-2.9,1.4-4.1,4.6-6.8,6.2L40.1,44.2z"/>
		<path class="st9" d="M42.2,62.2c-0.5,3.6-2.8,6.8-2,10.7c0.3,1.4-0.1,3,2,3.3c0.5-1.7-1.1-4.3,2-5c1.2-2.2,0-5.5,3-6.9
			c0.8-1.2,1.1-2.9,3-3.1c0-2.7,2.6-3.3,4-4.9c-1-1.6-2.6-0.9-4-1.1C47.1,57.1,42.8,57.5,42.2,62.2z"/>
		<path class="st9" d="M86.7,52c-0.3,1.5,1.3,2.1,1.6,3.3c3.7,2.7,6.6,6.1,9.6,9.5c1,1.1,1.6,2.5,3.3,2.5c3.2-0.6,1.2-2.4,0.6-3.5
			c-0.9-1.6-2.2-2.8-1.2-4.8l-0.1-0.2c-3.1,0.5-2.9-1.8-3.2-3.7l0,0c-0.6-0.1-0.9-0.7-0.8-1.3c0-0.3-0.1-0.5-0.2-0.7l-3.1-1.9l-3-1
			v2c0.7,0.1,1.6,0.1,1.5,1.2c0,0.1-0.2,0.3-0.3,0.3c-1.1,0.1-1.1-0.8-1.2-1.5C89,52.5,87.9,51,86.7,52z"/>
		<path class="st5" d="M28,54.8c1.9-0.8,3.5,0,4.6,1.8c2.3-0.8,1-4.9,4.3-4.8l1.4-2.6c-0.3-2,1.5-3.3,1.7-5.1
			c-1.2-0.1-2.3,0.3-3.2,1c-0.9,0.7-2,1.7-3,0.5c-0.7-0.8,0.3-1.8,0.6-2.7c0.3-0.6,0.6-1.2,0.9-1.7l-4.3,0.1
			c1.1,2.8-1.1,3.8-2.8,5.1c0,1-0.1,1.9-0.1,2.9C33.5,51.6,27.1,52.7,28,54.8z"/>
		<path class="st2" d="M50.2,61.2c0,1.4-0.2,2.8,1.8,3c3.2-5.5,8.7-5.4,14-5.7c0.8-2.2-0.5-4.2-0.7-6.2c-3-2.1-3.5,2.8-6,2.2
			c-0.4,0.6-1.1,1-1.9,0.9l-1.1,0.9l-2,0.1C52.9,57.9,50.3,58.5,50.2,61.2z"/>
		<path class="st9" d="M67.8,7.6c3.3,5.8,0.3,12,1.8,17.9c2.1,0.4,1.7-3,3.8-2.3l1,0.3c0.3-0.1,0.6-0.1,0.9-0.3c0-0.7,0-1.4,0-2.1
			v-3.9l-0.1,0C73.3,13.7,71.7,10,67.8,7.6z"/>
		<path class="st9" d="M74.1,30.2c-3.1,9.2-3,9.7,5.5,13.2c2,0.8,3.4,2.8,5.7,2.7c0.3-3.5-5.2-4.1-4-8l0,0c-3.9,0.8-5.5-1.3-6-4.8
			C75.1,32.2,75.4,30.9,74.1,30.2z"/>
		<path class="st9" d="M22.2,71.8c-0.1,1-1,1.6-1.9,1.5l-1.3,3.9l1.3,10.1h4c0.6-5.3-1.3-10.7,0-16l-2.1-0.1l0,0
			C22.2,71.3,22.2,71.6,22.2,71.8z"/>
		<path class="st3" d="M65.3,52.2c0.2,2.1,1.5,4,0.7,6.2v0.1c2.9-0.3,6-1.6,8.2,1.7h2l3-3c-0.2-1.4-0.9-2.2-2.3-2
			C72.6,55.9,68.8,54.5,65.3,52.2z"/>
		<path class="st2" d="M81.4,38.1c-1.1,3.9,4.3,4.5,4,8c1.9,0.9,3.6,2.3,4.9,4.1l3,1C90.2,46,87.6,40.4,81.4,38.1z"/>
		<path class="st2" d="M24.4,65.5c-0.5,2-2.6,3.3-2.3,5.6l2.1,0.1l7.3-10.8l-0.4-0.2C28.4,61.1,26,63,24.4,65.5z"/>
		<path class="st2" d="M74.4,26.2c-0.1,1.3-0.1,2.7-0.2,4c1.2,0.7,1,2,1.2,3.1c0.5,3.5,2.1,5.6,6,4.8C78.3,34.5,77.7,29.5,74.4,26.2
			z"/>
		<path class="st9" d="M75.2,17.3L75.2,17.3c2.7,0.3,1.8,2.4,2,4l1,1.1l4-4c0-1,0.1-2,0-3C79.9,15.8,76.8,13.6,75.2,17.3z"/>
		<path class="st3" d="M50.3,55.2c1.4,0.2,3-0.5,4,1.1l2-0.1l1.1-0.9c0.8,0.1,1.5-0.3,1.9-0.9C56.1,50,53.6,50.3,50.3,55.2z"/>
		<path class="st1" d="M32.6,56.6l-1.4,3.6l0.4,0.2c3.5-1.8,6-4.2,5.4-8.6C33.6,51.7,34.9,55.8,32.6,56.6z"/>
		<path class="st10" d="M20.2,87.2L20.2,87.2c2.5,1.3,0.6,6.3,5,6v-4c0-0.7,0-1.3,0-2h-1H20.2z"/>
		<path class="st10" d="M23.5,24.4l-2.2,0.9c0,0.7,0,1.4,0,2.1C23.2,27.2,23.3,25.7,23.5,24.4z"/>
		<path class="st2" d="M74.4,23.5l-1-0.3l0.3,1.1L74.4,23.5z"/>
		<path class="st4" d="M26.3,37.3L16.1,49.2c1.6,1.9,2.7,0.4,4.1-0.4c1.2-0.6,2.5-2.5,4.1-0.5c1.3-0.1,2.4-0.8,3-1.9l-0.5-0.6
			l0.6,0.5c0.3,0,0.6,0,0.9,0.1c1.6-1.3,3.9-2.3,2.8-5.1c-1.4-1.7-0.7-2.6,1.2-3c3-2.4,5.9-4.9,10.1-4c2.6,0.4,5.2-4.9,7.9-0.1
			c3.8-2.2,4.6-4.7,0.9-7.7c-2.6,0.3-5.4-1.9-7.7-0.1C38.1,30.6,31.3,32.5,26.3,37.3z"/>
		<path class="st10" d="M25.2,34.3c0,1.2-0.2,2.3,1.1,3c5-4.8,11.8-6.7,17.1-10.9c2.3-1.8,5.1,0.4,7.7,0.1c0.1-0.9,0.2-1.8,1.1-2.3
			c-0.7-0.3-1.5-1-2.2-0.9c-6.5,1.1-12.9-0.1-19.4-1c-1.5-0.2-3.4-0.6-4.5,1.1c1.6,1.4,3.5,0.8,5.2,0.8c3.3,0.1,2.8,2.5,1.3,3.4
			C29.7,29.4,28.4,32.9,25.2,34.3z"/>
		<path class="st7" d="M11.1,81.2l4.2-1c1.5-3,1.9-6.5,1.1-9.8c-2-1.4-0.8-3.7-1.5-5.5c-1.8,1.7-3.1,4-3.6,6.4
			C11.1,74.5,8.8,77.8,11.1,81.2z"/>
		<path class="st11" d="M14.8,63.2c1.5-0.6,1.1-1.9,1.3-3c-1.2-1.8,0-1.8,1.3-1.8l0.1-0.1c-0.3-1.5,0.1-2.9,0.9-4.2
			c0.9-3.1,4.1-3.8,6-5.8c-1.6-2.1-2.9-0.2-4.1,0.5c-1.4,0.7-2.5,2.2-4.1,0.4c-1.4,3.4-1.4,7.2-3.5,10.4
			C11.4,61.5,13.5,62.3,14.8,63.2z"/>
		<path class="st5" d="M15,64.9c0.7,1.8-0.5,4.1,1.5,5.5c0.5-4.3,2.6-8.3,5.9-11.1c-1.4-1.6-3.2-0.9-4.8-0.9l-0.1,0.1
			c0,0.8-0.6,1.5-1.3,1.8c-0.1,1.1,0.2,2.4-1.3,3L15,64.9z"/>
		<path class="st8" d="M128.1,121.7c-2.8,3.6-5.8,7.1-9,10.3v0.1c0.2,1.9-0.4,4.5,3,4c1.6-2.3,4.6-3.4,5.3-6.6
			c0.3-1.3,1.7-0.2,2.6-0.3l0.4-3.9C129.4,124.3,128.6,123,128.1,121.7z"/>
		<path class="st8" d="M119.1,126.3v5.8c3.2-3.2,6.2-6.7,9-10.3c-0.9-2.7-0.9-5.8-1.9-8.5c-0.5,0.1-0.9,0.3-1.4,0.4
			c-1,0.5-1.1,3-2.9,1.5c-1.2-1.1-0.6-2.3,0.3-3.5c0.9-1.2,1.5-2.5-0.2-4.3c-2,3.5-3.9,6.8-5.7,10.2c-0.3,0.6-0.5,1.4-1,0.1
			c-0.1-0.5-0.1-1-0.1-1.5c-0.9-2.9-2.7-5.8,1.1-8c-2.1-5.1-2.9-10.6-2.2-16c0.3-3.6,1.4-7.6-1-11c-1.2,1.8-1.9,3.9-1.9,6
			c-0.2,2.7,0.5,5.7-1.9,7.9c2.4,5,2.5,10.3,2,15.7c-0.2,2-3,2.4-1.8,5.2c1.3,3-2.3,8.2-5.4,7.8c-4.9-0.7-1.4,2.2-1.9,3.4
			c1.6,2.1,2.8,2.6,4.9,0.1c1.9-2.2,4.8-3.7,6.1,1c1-1.2,0.6-3.2,2.2-4.2C116.8,128,116.8,128,119.1,126.3z"/>
		<path class="st8" d="M116,50.2c1.5,3.5,2.8,7.1,2.2,11c4,2.3,6.8-1.7,10.3-2l-0.8-2.7c-2.8-0.7-2.7-4.4-5.3-5.3
			C120.3,50.3,117.9,51.8,116,50.2z"/>
		<path class="st5" d="M115.2,42.3c0,0.6,0,1.2,0,1.9c2.2,0.1,4.5,0.1,6.1,2.1c1.6,1.4,0.7,3.3,1,4.9c2.7,0.9,2.5,4.6,5.3,5.3
			c0.3-4.6-0.7-9.1-2.9-13.1c-0.8-1.2-1.2-2.6-1.3-4.1h-1.2c0.1,0.8-0.3,1.6-1,2c0.1,0.8,1.1,2.2-0.9,1.5
			C118.7,42.3,116.9,42.1,115.2,42.3z"/>
		<path class="st6" d="M3.4,118.4l0.2-0.1l-0.2-0.3C3.4,118.1,3.4,118.2,3.4,118.4z"/>
		<path class="st6" d="M3.4,118l0.2,0.3l2.6-1.1C6,111.5,7.7,105.8,7,100.1c-0.6,0-1.3-0.1-1.3-0.8c0-1.1,1-0.9,1.7-1.1l1.9-6
			c-0.4-2.3,0.9-4,2-5.5c3.6,0.9,0.2,6.3,4.6,6.6l0.6-1.1L16,86.4c-1.8-0.3-1.7-1.8-1.8-3.2L13,82.6l1.3-0.4l1-2.1l-4.2,1
			c-6.4,5.6-6,13.7-7.8,21c1.6,0.1,1.7,1,1.3,2.4C3.7,109,2.8,113.4,3.4,118z"/>
		<path class="st12" d="M105,56.5l-0.2,6c0.1,0.3,0.3,0.5,0.4,0.7c2.2,0.9,2.7,3.4,4.2,4.9c5.3,2,3.3,6.6,3.7,10.4l0.1,2.7
			c2.4,3.5,1.3,7.4,1,11c-0.7,5.4,0.1,10.9,2.2,16c2.8,3.1-0.7,5.3-1.1,8c0,0.5,0,1,0.1,1.5c0.5,1.3,0.7,0.5,1-0.1
			c1.8-3.3,3.7-6.7,5.7-10.2c1.8,1.8,1.1,3.2,0.2,4.3s-1.6,2.5-0.3,3.5c1.8,1.5,1.9-1,2.9-1.5c0.5-0.2,0.9-0.3,1.4-0.4
			c0.2-1.7-0.1-3.5-1-5c-1.3-4.3-0.3-8.8-0.2-13.2c0.1-2.5-1.1-5.7,1.4-7.9c-0.4-1.7,0.2-3.6-1-5.2c-3.1,4-4.9,2.1-6-1.4
			c-1.2-4-3.3-7.8-3.2-12.2l-1-2.8c-3-2.2-3.6-6-5.9-8.6c-1.3,0.4-2.8,0.1-3.8-0.9L105,56.5z"/>
		<path class="st7" d="M92.1,38.3L92.1,38.3c2.5-0.1,3.4,1.8,4.4,3.5c0.5,0.9,0.9,2.4,2.5,1.6c3.5-1.8,4.4,0.2,5.3,3.1
			c0.6,2.2,4.6,3.4,1.9,6.6c2.3,0.1,3.1,1.6,3.1,3.7c2.3,2.6,2.9,6.5,5.9,8.6c0.3-1.9,0.5-3.8,2.9-4.2c0.6-3.9-0.7-7.5-2.2-11
			c-1.9-0.1-1.7-1.5-1.6-2.9c-0.8-0.2-1.7-0.9-2.2-0.7c-1.5,0.8-2.5,2.2-4.4,0.1s0.2-3.2,0.4-4.7c-2.7-1.9-3.5-5.6-6.9-6.8
			c-0.5,0.8,0.5,3.8-2.2,1.6c-2-1.7-4.1-3.1-6.9-2.9L92.1,38.3z M111.1,49.8c1.5,2.2,2.7,3.6,1.3,6.7
			C111.5,54.1,110.4,52.7,111.1,49.8z"/>
		<path class="st8" d="M116.3,68.2c-0.1,4.4,2.1,8.2,3.2,12.2c1.1,3.6,2.9,5.5,6,1.5c-0.7-4.2-0.4-8.6,0.8-12.7
			c-0.9-1-1.8-1.9-2.8-2.7C120.6,64.3,118,64.6,116.3,68.2z"/>
		<path class="st8" d="M3.5,118.4c-0.6,2.4,0.8,4.5,0.8,6.9h1.2c1.2,0,2.3,0,3.5-0.2c-1.8-2.2-3.6-4.5-5.2-6.8L3.5,118.4z"/>
		<polygon class="st8" points="10.2,122.2 10.2,122.2 10.2,122.2 		"/>
		<path class="st8" d="M3.7,118.3c1.7,2.4,3.4,4.6,5.2,6.8c0.9-0.3,1.5-1,1.4-2.9c-2.9-0.4-2.7-3.3-4-5L3.7,118.3z"/>
		<path class="st11" d="M94.2,29.7l7.2,5.7c3.4,1.1,4.2,4.9,6.9,6.8c1-1.8,3.1,1,4.1-1c-1.6-1.1-3-2.3-4.4-3.6
			c-0.9-1,0.3-1.1,1.1-1.2c2.3-1.9,2.5-2.9-0.7-4.8C103.9,29,99.6,29,94.2,29.7z"/>
		<path class="st5" d="M93.6,46c0.6,2.5,3.5,4.1,2.7,7.1c0.1,0.2,0.2,0.5,0.2,0.7l0.8,1.3l0,0c2.1,0.3,2.9,1.8,3.2,3.7l0.1,0.2
			l4,3.6c0.1-2,0.1-4,0.2-6c-0.3-0.3-0.7-0.6-0.1-1c0.1-0.1,0.5,0.3,0.7,0.4c1,0.9,2.5,1.2,3.8,0.8c0-2.1-0.8-3.5-3.1-3.7
			c-2.1,0.4-2-3-3.1-2.4c-3.2,1.7-3.3-0.5-4.2-2.5c-0.4-0.9-1.7-1.3-2.7-2L93.6,46z"/>
		<path class="st8" d="M83.4,35.1c3.8,3.3,7.7,6.4,10.3,10.9l2.7,0.2c0-3.4-3.6-4.8-4.2-7.9l0,0l-5.1-4.8
			C86.4,35.4,82.2,29.1,83.4,35.1z"/>
		<path class="st2" d="M82.3,21.1c-0.6,4,2.1,6.3,5,5.8c4.6-0.9,8.9,0.5,13.3,0.3c1,0.1,2-0.2,2.7-1c-3.7-2.2-7.8-1.9-11.8-2
			c-2.1,0-4.3,0.8-6.1-0.8c-0.7-0.4-1.2-1.3-1.1-2.1L82.3,21.1z"/>
		<path class="st6" d="M108,37.5c1.3,1.3,2.8,2.5,4.3,3.6l2.8,1.1c1.8-0.2,3.5,0,5.2,0.5c1.9,0.7,1-0.8,0.9-1.5
			c-2.8-0.4-5.7-0.5-8-2.6c-1.6-0.4-3.2-0.7-4.2-2.3C108.3,36.4,107.1,36.5,108,37.5z"/>
		<path class="st13" d="M122.3,39.2L122.3,39.2z"/>
		<path class="st13" d="M113.4,37.5l-0.1,1.1c2.3,2.1,5.2,2.2,8,2.6c0.7-0.4,1.1-1.2,1-2c-3.3,0.8-3.5-3.6-6.2-3.8
			C116.2,37.4,114.6,37.2,113.4,37.5z"/>
		<path class="st7" d="M81.4,31c-0.1,1.6-1.1,3.9,2,4.1c-1.2-6,3,0.3,3.7-1.6l0.2-1.3c0.1-2-0.6-3.2-2.9-3
			C83,29.3,81.5,29.2,81.4,31z"/>
		<path class="st7" d="M114.4,35.2l1.7,0.2c2.7,0.3,2.9,4.6,6.2,3.8c-0.5-3.3-3.3-5.8-6.7-6C113.9,33,113.6,33.7,114.4,35.2z"/>
		<path class="st13" d="M87.3,32.2l-0.2,1.3l5.1,4.8l0.1-4.2C91,32.2,89.8,30.6,87.3,32.2z"/>
		<path class="st11" d="M113.4,37.5c1.2-0.3,2.8-0.1,2.7-2.1l-1.7-0.2C112.8,35.4,111.7,35.8,113.4,37.5z"/>
		<path class="st2" d="M77.2,21.2h-2c0,0.7,0,1.4,0,2.1c1.1,0,2.3,0.2,3-1L77.2,21.2z"/>
		<path class="st1" d="M80.6,74.3c-1.1,0.5-1.7,1.7-1.2,2.8c1.4,4.8-0.5,9.5,0,14.2c2.6,0.4,1.7,2.4,1.8,4l0.8,4.2
			c1.1-0.1,2.2,0.2,2.1,1.4c-0.4,2.9,1.7,4.8,2.2,7.3l1.6-0.2c0.1-0.3,0.2-0.6,0.4-0.8c-0.4-3.5,5-3.1,4.4-6.6l-0.4-1.3
			c-1.9-2.5-5.8-3.6-4.9-8.4c-1.8,2.1-0.3,4.3-1.7,5.8c-0.8-1.3-2.9-13-2.4-15.6l2.6,7c1.5-2.9,0.4-13.8-1.4-15.8c0,2,0,4.1,0,6.6
			c-2-1.5-3-2.7-3.2-4.6C80.9,74.2,80.8,74.2,80.6,74.3z"/>
		<path class="st2" d="M96.2,88.3c-0.2,2.4,0.4,4.2,3.3,4.1c0.3-0.1,0.5-0.2,0.7-0.4c0.3-1.5-0.8-3.8,1.1-4.2
			c2.2-0.6,1.5,2.4,2.8,3.3l0.4,0.3c2.5-4.2,5.5-8.2,6.1-13.4l-1.3-6.9c-2.6-2-3.7-4.7-4.2-7.8c-0.2-0.2-0.3-0.5-0.4-0.7l-4-3.6
			c-1,2,0.3,3.3,1.2,4.8c0.6,1.1,2.6,2.9-0.6,3.5c0.7,3.8,3.8,6.4,5,10c-0.2,2.8,0.7,5.7-1.4,8.4l-2.5-4.4c-0.1-2.6-1-4.6-4-4.8
			c0,0.3,0,0.5,0,0.8c0,0.3,0,0.6,0,0.9C102.7,82.6,98.2,85.2,96.2,88.3z"/>
		<path class="st1" d="M74.2,60.3c0.9,3.6,3,7.1,1,10.9l5.9,1.1c-1.8-2.1,1.2-3.3,1.1-5.1c-2.6-1.7-4.7-4.2-6-7L74.2,60.3z"/>
		<path class="st11" d="M94.3,88.2l-2.1,11l0.4,1.3c2.7-2.4,5.7-4.5,6.9-8.1c-2.9,0.1-3.5-1.6-3.3-4.1l-0.1-0.1L94.3,88.2z"/>
		<path class="st2" d="M82.2,67.2c0.1,1.8-2.8,3-1.1,5.1c0,0.6,0,1.2,0,1.8c0.2,1.9,1.2,3.1,3.2,4.6c0-2.6,0-4.6,0-6.6
			c-0.3-1.7,0.6-3.6-1.1-4.9L82.2,67.2L82.2,67.2z"/>
		<path class="st2" d="M94.3,88.2l1.8,0.1c0-1.4-0.4-2.9-1.9-2.5C92.7,86.2,93.3,87.4,94.3,88.2z"/>
		<path class="st3" d="M96.7,78.3c0.4,1.1,1.1,0.4,1.6-0.2c0-0.3,0-0.6,0-0.9C97.6,77.3,96.4,77.4,96.7,78.3z"/>
		<path class="st1" d="M82.3,67.2h1C82.9,66.6,82.6,66.4,82.3,67.2z"/>
		<path class="st9" d="M102.3,81.2l2.6,4.4c2.1-2.7,1.2-5.6,1.4-8.4C103.4,77,105.1,81.4,102.3,81.2z"/>
		<path class="st11" d="M92.4,19.3c-2.7,0.5-5.4,1.2-8.2,1.9c-0.1,0.9,0.3,1.7,1.1,2.1c2.4,0,4.7-1.7,7.3-0.7
			c0.9,0.3,1.9-0.8,1.9-1.8C94.6,19.5,93.4,19.1,92.4,19.3z"/>
		<path class="st9" d="M25.3,89.2c0,1.3,0,2.7,0,4c5.7,0.6,10.4,3.7,15.4,6.1c0.9-1.7,1.7-3.5,2.4-5.3c1.4-4.6,3.5-3.4,5.8-0.9
			l0.8-1.2l0.3-1.2c0,0-0.1,0-0.1,0c-0.3,0-0.5-0.2-0.6-0.5c-1.4-0.7-1.1-1.9-1.1-3.1c-2,0.1-3.1-0.7-3-2.9c0-2.7-1.1-5.3-3-7.2
			c-0.1,2.4,0.5,5.1-2.5,6.3c-0.4,0.2-0.8,0.6-1,1c-3.1,5.9-4.6,6.5-11,4.7C26.9,89.2,26.1,89.2,25.3,89.2z"/>
		<path class="st1" d="M42.2,76.2c0,0.3,0.1,0.7,0.1,1c1.9,1.9,3,4.5,3,7.2c-0.1,2.2,1,3,3,2.9c1.3-0.6,0.7-3.3,3-2.9
			c1.3-0.7,2.8-1.2,2.8-3.1c-1.1-2.3,0.8-4.6,0.1-7L53,72.3l-4.8-0.1c-1.2,1.3-0.4,4.8-3,4.3c-2-0.4-0.6-3.2-1-4.8
			c0-0.2,0-0.3,0-0.5C41.1,71.9,42.7,74.5,42.2,76.2z"/>
		<path class="st8" d="M34.4,43c-0.4,0.9-1.4,1.8-0.6,2.7c1,1.2,2.1,0.1,3-0.5c0.9-0.7,2.1-1.1,3.2-1l3.4-3.7l-1.2-2.5
			c-1.7,1.5-3.8,1.3-5.8,1.7l-1,1.6C35,41.8,34.7,42.4,34.4,43z"/>
		<path class="st6" d="M42.2,37.9l1.2,2.5c2.8-1.6,4-4.8,6.9-6.2c-2.7-4.8-5.2,0.5-7.9,0.1C44.7,35.6,42.2,36.7,42.2,37.9z"/>
		<path class="st14" d="M48.2,72.2l4.8,0.1l-0.5-3.1c-0.1,0-0.1-0.1-0.2-0.1c-0.9-0.7-1.1-2-0.4-3l0.1-1.9c-2-0.2-1.8-1.7-1.8-3
			c-1.9,0.1-2.2,1.8-3,3C47.4,66.9,46.7,69.7,48.2,72.2z"/>
		<path class="st2" d="M45.2,76.5c2.6,0.5,1.7-3,3-4.3c-1.6-2.5-0.8-5.3-1-7.9c-2.9,1.4-1.7,4.7-3,6.9c0,0.2,0,0.3,0,0.5
			C44.7,73.3,43.2,76.1,45.2,76.5z"/>
		<path class="st2" d="M97.4,55.1c0.3,1.9,0.1,4.2,3.2,3.7C100.3,56.8,99.5,55.4,97.4,55.1z"/>
		<path class="st0" d="M90.2,52.2L90.2,52.2c0.1,0.7,0.1,1.6,1.2,1.5c0.1,0,0.3-0.2,0.3-0.3C91.8,52.3,91,52.4,90.2,52.2z"/>
		<path class="st2" d="M97.4,55.1l-0.8-1.3C96.4,54.4,96.8,55,97.4,55.1z"/>
		<path class="st13" d="M18.3,54.2c-0.8,1.2-1.2,2.7-0.9,4.2c1.7,0,3.5-0.7,4.8,0.9c2.2,0.2,2.1,1.7,1.7,3.2c-0.3,1.2-0.8,2.2,0.5,3
			c1.6-2.5,4-4.4,6.8-5.3l1.4-3.6c-1.1-1.7-2.7-2.6-4.6-1.8c-0.8-2.2,5.6-3.3,0.3-5.5C25.5,52,22.1,53.7,18.3,54.2z M25.9,59.5
			c-0.4,0-0.5-0.2-0.2-0.5c0,0,0.2,0.1,0.4,0.1L25.9,59.5L25.9,59.5z"/>
		<path class="st7" d="M18.4,54.2c3.7-0.5,7.2-2.2,9.9-4.8c0-1,0.1-1.9,0.1-2.9c-0.3-0.1-0.6-0.1-0.9-0.1l-0.1,0.1
			c-0.6,1.1-1.7,1.8-3,1.9C22.4,50.4,19.2,51.1,18.4,54.2z"/>
		<path class="st6" d="M31.1,41.3l4.3-0.1l1-1.6c-1.3-0.7-3.1,0.1-4.1-1.3C30.4,38.7,29.6,39.6,31.1,41.3z"/>
		<path class="st8" d="M52,64.2c0,0.6-0.1,1.3-0.1,1.9c2,1.2,3.3-1.6,5.6-0.8c5.3,1.8,10.7,1.3,16.1-0.2c-0.7-4.3-5.8-3.5-7.6-6.5
			v-0.1C60.7,58.8,55.2,58.7,52,64.2z"/>
		<path class="st9" d="M56.3,56.2l1.1-0.9L56.3,56.2z"/>
		<path class="st10" d="M75.3,17.2c0,1.3,0,2.6,0,3.9h2C77,19.6,77.9,17.6,75.3,17.2z"/>
		<path class="st4" d="M14.1,83.3c0.1,1.3,0,2.8,1.8,3.2l1.2-4.2c-0.1-1.9,0.5-3.7,1.8-5.1l1.3-3.9c0-0.1,0-0.2,0-0.3
			c0-1,0.8-1.9,1.9-1.9l0,0c-0.3-2.3,1.8-3.6,2.3-5.6c-1.3-0.8-0.8-1.9-0.5-3c0.4-1.5,0.5-3-1.7-3.2c-3.3,2.8-5.4,6.8-5.9,11.1
			c0.8,3.3,0.4,6.8-1.1,9.8l-1,2.1L14.1,83.3z"/>
		<path class="st10" d="M18.9,77.1c-1.2,1.4-1.9,3.2-1.8,5.1c1.7,1.3,0.9,3.6,2,5.2l0,0l1.1-0.1l0,0L18.9,77.1z"/>
		<path class="st2" d="M21.9,71.2c-1,0.1-1.7,1.1-1.6,2.1c0.2,0,0.4,0,0.5,0c0.9-0.2,1.5-1.1,1.3-2.1C22,71.1,21.9,71.1,21.9,71.2z"
			/>
		<path class="st11" d="M66,58.6c1.7,3.1,6.9,2.2,7.6,6.5c2.4,3.6-1.3,5.5-2.2,8.2c1.4,0.2,2.9,0.5,3.8-1.2c0-0.3,0-0.6,0.1-0.9
			c2-3.9-0.1-7.3-1-10.9C72,57,68.9,58.3,66,58.6z"/>
		<path class="st1" d="M20.3,87.2l-1.1,0.1c0.7,5,3.7,9.2,5.1,13.9c3,0.9,6-1.8,9,0c3.4,0,4.9,2.9,7.3,4.6c1.9-2.8,3.2-6,6.4-7.6
			c0.2-0.9,0.4-1.7,1.4-2.1l0.9-0.8l-0.3-2.1c-2.4-2.5-4.4-3.8-5.8,0.9c-0.7,1.8-1.5,3.6-2.4,5.3c-5-2.5-9.7-5.5-15.4-6.1
			C20.8,93.5,22.7,88.5,20.3,87.2z"/>
		<path class="st7" d="M32.2,38.3c1.1,1.4,2.8,0.6,4.1,1.3c2-0.4,4.2-0.2,5.8-1.7c0-1.2,2.5-2.3,0.2-3.6
			C38.1,33.5,35.2,36,32.2,38.3z"/>
		<path class="st11" d="M27.5,46.3l-0.6-0.5l0.5,0.6L27.5,46.3z"/>
		<path class="st13" d="M16.1,60.2c0.8-0.3,1.3-1,1.3-1.8C16.1,58.4,14.9,58.4,16.1,60.2z"/>
		<path class="st12" d="M101.1,117.3l-2.3,8.2c0.1,1.3,0.6,2.6,1.5,3.6c0.9-0.3,1.6-1.1,1.8-2c0.5-1.2-3-4.1,1.9-3.4
			c3.1,0.4,6.6-4.8,5.4-7.8c-1.2-2.8,1.7-3.3,1.8-5.2c0.5-5.4,0.4-10.7-2-15.7c-0.2-0.7,0.2-1.7-0.9-2c-0.9,3.6-6.1,5.3-4.4,10
			c0.7,2.9-1.5,4.4-3.1,6.1c-0.7,0.8-1.7,1.1-0.7,2.2C102,113.1,101,115.3,101.1,117.3z"/>
		<path class="st6" d="M112.1,138.4c-1.7,1.4-3.4,2.7-5.2,3.9c0.2,0.6,0.4,1.2,0.6,1.8c3.1,0.8,1.2,2.6,0.8,4.2
			c3.3,0.6,4.3-1.5,4.8-4.1c0.6-2.8,1.3-4.4,3.7-1.2c0.6,0.8,1.5,1.3,2.5,1.2c0.6-2.8,3.2-4.9,2.9-8c-3.4,0.5-2.8-2.1-3-4H119
			c-0.5,0.5-1.1,1-1.6,1.5c0,0.8-0.1,1.5-0.3,2.3c-0.6,1.6-1.4,2.9-3.5,2.8C113,138.9,112.5,138.7,112.1,138.4z"/>
		<path class="st6" d="M119,132.2c-0.8,0.1-1.5,0.7-1.6,1.5C117.9,133.2,118.4,132.7,119,132.2z"/>
		<path class="st6" d="M106.8,142.3c1.8-1.2,3.5-2.5,5.2-3.9c-0.5-0.6-0.9-1.4-1.1-2.3c-0.9-2.6-2.8-5.1,1.7-6.1
			c0.3-0.1,0.4-1.2,0.6-1.8c-1.3-4.7-4.3-3.2-6.1-1c-2.1,2.5-3.3,2-4.9-0.1c-0.3,0.9-0.9,1.6-1.8,1.9l0.7,2.2
			C105.8,133.6,105.8,138.2,106.8,142.3z"/>
		<path class="st7" d="M88.2,107.2l3,1c2.1-2.2,2-6.4,6-7c1.3-0.8,1.7-3.3,3.7-2.8s1.1,2.4,1.3,3.8c0.4,0.6,1.1,1,1.8,0.7
			c-1.6-4.7,3.5-6.4,4.4-9.9c1.1,0.3,0.7,1.3,0.9,2c2.4-2.2,1.7-5.2,1.9-7.9c0-2.1,0.7-4.2,1.9-6c-0.1-0.9-0.1-1.8-0.1-2.7l-2.4-0.5
			c-0.6,5.2-3.6,9.2-6.1,13.4c-0.4,1.3-0.7,3-1.9,3.3c-1.8,0.5-1-2.2-2.3-2.6c-0.2,0.1-0.5,0.3-0.7,0.4c-1.2,3.7-4.2,5.7-6.9,8.1
			C93.2,104.1,87.8,103.7,88.2,107.2z"/>
		<path class="st5" d="M119.1,132l-0.2,0.2h0.2V132z"/>
		<path class="st5" d="M117.4,133.7c-1.7,1.6-3.5,3.2-5.3,4.6c0.4,0.3,1,0.5,1.5,0.5c2.1,0.1,3-1.2,3.5-2.8
			C117.2,135.3,117.3,134.5,117.4,133.7z"/>
		<path class="st5" d="M112.1,138.4c1.8-1.5,3.6-3,5.3-4.6c0.1-0.8,0.8-1.5,1.6-1.6l0.2-0.2c0-1.9,0-3.8,0-5.8
			c-2.3,1.7-2.3,1.7-3.7-2.3c-1.6,1-1.2,3-2.2,4.2c-0.2,0.6-0.2,1.7-0.6,1.8c-4.5,1-2.6,3.5-1.7,6.1
			C111.2,137,111.5,137.8,112.1,138.4z"/>
		<path class="st6" d="M115.2,116.2c0.4-2.7,3.8-4.9,1.1-8C112.5,110.4,114.2,113.3,115.2,116.2z"/>
		<path class="st6" d="M116.3,47.2L116.3,47.2L116.3,47.2z"/>
		<path class="st6" d="M114.4,47.4c-0.1,1.3-0.3,2.7,1.6,2.9c1.9,1.5,4.3,0.1,6.3,0.9c-0.3-1.7,0.7-3.6-1-4.9
			c-1.1,1.4-2.7,0.8-4.1,1c-0.4,0.7-0.7,0.7-1,0L114.4,47.4z"/>
		<path class="st13" d="M108.2,42.1c-0.2,1.5-2.3,2.6-0.4,4.7s2.9,0.6,4.4-0.1c0.5-0.2,1.5,0.4,2.2,0.7l1.9-0.1
			c0.2-1.2-2.5-1.4-1.1-3.1c0-0.6,0-1.2,0-1.9l-2.8-1.1C111.4,43.2,109.3,40.3,108.2,42.1z"/>
		<path class="st8" d="M116.3,47.2L116.3,47.2L116.3,47.2L116.3,47.2z"/>
		<path class="st8" d="M115.2,44.1c-1.3,1.6,1.2,1.8,1.1,3c0.3,0,0.6,0,0.9,0.1c1.4-0.1,3,0.4,4.1-1
			C119.7,44.3,117.4,44.2,115.2,44.1z"/>
		<path class="st12" d="M5.5,125.3c0,0.6-0.1,1.3-0.1,1.9c4.2,0,2.7,3,2.8,5.2l0.2,1.8c1.3,0.5,3.1-2.2,4,0.7
			c0.4,1.4,1.5,3.3,2.9,2.7c2-0.8,0.6-2.7,0.2-4.2c-0.1-0.4-0.2-0.9-0.2-1.4c-0.5-0.4-0.9-0.9-1.4-1.4c-0.4,0-0.8,0.1-1.2,0.2
			c-1.1,0.4-1.4-1.1-0.7-1.6c0.1-0.1,0.2-0.2,0.3-0.3c-1.1-1.2-2.2-2.5-3.3-3.8C7.8,125.2,6.6,125.3,5.5,125.3z"/>
		<path class="st12" d="M13.8,130.6c0.5,0.4,0.9,1,1.4,1.4C15,131.2,14.8,130.6,13.8,130.6z"/>
		<path class="st12" d="M8.9,125.1c1.1,1.3,2.2,2.6,3.3,3.8c3-2.9,2.3-7.3,4.2-10.7c0.1-1,0.1-2,0.1-3c-0.6-0.3-1.2-0.8-0.7-1.3
			c0.3-0.4,1.1-0.4,1.6-0.5c2.6-1.2,3.6-3.2,2.5-5.9c-0.7-1.5-0.8-3.2-0.1-4.7l-0.5-1.6l-2-0.1c-1.5,2-3.4,2.3-4.3-0.1
			c-0.6-1.7-5.3-3.4-0.7-5.8c0-0.1,0-0.2,0-0.4c-0.1-1.6-1.5-2.8-3.1-2.7l-1.9,6l-0.4,1.9c0.7,5.8-1,11.4-0.7,17.2
			c1.3,1.7,1.1,4.6,4,5l0,0l0.7-1.6l0.6,0.4l-1.3,1.2l0,0C10.4,124.1,9.8,124.8,8.9,125.1z"/>
		<circle class="st12" cx="10.2" cy="122.2" r="0"/>
		<path class="st4" d="M19.2,87.4L19.2,87.4L19.2,87.4z"/>
		<path class="st4" d="M15.5,95.1l0.8,1.1c5.7-1,2.1,3.3,3,5.1l0.5,1.6l3.3,1.6l1.2-3.2c-1.4-4.7-4.4-8.8-5.1-13.8
			c-1.8,1.1,0.4,4.5-2.8,4.8l-0.7,1.1L15.5,95.1z"/>
		<path class="st8" d="M12.2,95.2L12.2,95.2L12.2,95.2z"/>
		<path class="st8" d="M9.2,92.2c0.1,0,0.2,0,0.3,0c1.6,0.1,2.8,1.4,2.7,3l3.2-0.1l0.3-1.8c-4.4-0.3-1-5.8-4.6-6.6
			C10,88.2,8.7,89.9,9.2,92.2z"/>
		<path class="st2" d="M17.2,82.2L16,86.5c0.1,1.9,0.2,3.8,0.3,5.7c3.2-0.3,1-3.7,2.8-4.8C18.1,85.8,18.9,83.6,17.2,82.2z"/>
		<path class="st7" d="M5.7,99.2c0,0.7,0.7,0.8,1.3,0.8l0.4-1.9C6.6,98.3,5.7,98.2,5.7,99.2z"/>
		<path class="st7" d="M13,82.6l1.2,0.6l0.2-1L13,82.6z"/>
		<path class="st8" d="M109.3,68.2c0,1,0,1.9,0,2.9l1.2,6.9l2.4,0.6C112.7,74.8,114.6,70.2,109.3,68.2z"/>
		<path class="st5" d="M105.1,63.3c0.4,3.1,1.6,5.8,4.2,7.8c0-1,0-1.9,0-2.9C107.8,66.7,107.4,64.2,105.1,63.3z"/>
		<path class="st13" d="M92.2,38.3c0.5,3.1,4.2,4.6,4.2,7.9c0.9,0.7,2.3,1.1,2.7,2c0.9,2,0.9,4.2,4.2,2.5c1.1-0.6,1,2.9,3.1,2.4
			c2.6-3.2-1.3-4.4-1.9-6.6c-0.8-2.9-1.8-4.9-5.3-3.1c-1.6,0.8-1.9-0.7-2.5-1.6C95.5,40,94.6,38.2,92.2,38.3z M100.7,45.5
			c-0.1-0.2,0.1-0.5,0.2-0.8l0.9,0.5l-0.4,0.7C101.1,45.8,100.8,45.7,100.7,45.5L100.7,45.5z"/>
		<path class="st13" d="M111.1,49.8c-0.7,2.9,0.4,4.3,1.3,6.7C113.8,53.4,112.6,52,111.1,49.8z"/>
		<path class="st8" d="M13.8,130.6c-0.5-0.6-1.1-1.1-1.6-1.7c-0.1,0.1-0.2,0.2-0.3,0.3c-0.6,0.5-0.4,1.9,0.7,1.6
			C13,130.7,13.4,130.6,13.8,130.6z"/>
		<path class="st8" d="M18.5,135.1L18.5,135.1l0.2-2.8c-1.3-0.4-1.6-1.1-0.3-2l-0.3-4.1c-1.1-1.5-1.2-2.8,0.4-4v-2l-2-2
			c-1.9,3.3-1.2,7.7-4.2,10.7c0.5,0.6,1.1,1.1,1.6,1.7c1,0,1.3,0.6,1.4,1.4C16.3,133.1,17.4,134.1,18.5,135.1z"/>
		<path class="st8" d="M8.1,132.4c-0.1-2.2,1.4-5.2-2.8-5.2C5.4,129.4,4.2,132.2,8.1,132.4z"/>
		<path class="st12" d="M104.9,56.5l0.6-0.6c-0.2-0.1-0.6-0.5-0.7-0.4C104.2,55.9,104.6,56.2,104.9,56.5z"/>
		<path class="st14" d="M42.6,107.8c2,2.5,2.7,7.8,7.9,4.3c0.9-0.6,1.5-0.2,2.2,0.3c3.3,2.5,7.4,2.9,11.2,3.9c1.8,0.4,3.1,0.9,3.3,3
			c1.1-0.1,2.4,0.2,2.9-1.2c1-2.5,2.6-2,3.7-0.3c2,3.1,4.7,2.5,7.4,1.6c2.3-1.1,4-0.5,5,1.9c0.3,0,0.7,0,1,0c2.2,0,4,1.8,4,4
			c0.4,0.7,1.2,1.1,2,1c0.4-2-1.7-4,0-6c-4.6-1.7-7.2-6.1-7-12c-0.5-2.5-2.6-4.5-2.2-7.3c0.2-1.2-1-1.5-2.1-1.4
			c-0.7,2.8,2.2,6.4-1.7,8.6l-3,1.2c-0.1,1-0.5,1.8-1.7,1.6c-1-0.2-1.1-0.9-1.1-1.7l-0.2-0.2c-1.7-0.4-2.8,1.3-4.4,1.6
			c-0.6-1.5-1-3.1-1.3-4.7c-0.3-2.1-0.2-4.2-0.3-6.3l-4-0.4c-1.1,1.5-2.7,0.7-4.1,1.1c0.5,3-2,3-3.4,2.7c-2.7-0.7-1.4-2.7-0.7-4.3
			c-0.6-1.5-2.1-1.3-3.2-1.9l-0.3,0.1l-0.3-0.1c-1.4,0.7-3.8,0.3-2.3,3.3s-0.2,3.5-2.8,3c-1,0.8-1.5,2.1-3.2,2.2
			C42.5,105.3,41.8,106.6,42.6,107.8z"/>
		<path class="st13" d="M87.8,108l-1.5,0.2c-0.2,5.9,2.4,10.3,7,12c1.4,2.3,1.4,4.9,2.1,7.4s1.7,5.6,5.6,3.7l-0.7-2.2
			c-0.9-1-1.4-2.3-1.5-3.6c-2.2-0.8-1.6-2.6-1.6-4.2c-0.1,0-0.2,0-0.3,0c-0.9-0.1-1.6-1-1.5-1.9c-0.7-3.4-3.9-5.1-5.2-8
			c-0.1-0.3-0.2-0.6-0.3-0.9C88.5,110.2,88.3,109.1,87.8,108z"/>
		<path class="st9" d="M77.1,79.3c-1.2,3.5,0.2,6.8,0.9,10.1l0.2,3.9c0.3,0,0.7,0,1,0l0.1-1.9c-0.5-4.7,1.4-9.4,0-14.2
			c-0.1-0.2-0.1-0.4-0.2-0.6c-0.1-1.2,0.8-2.3,2-2.4c0-0.6,0-1.2,0-1.8l-5.9-1.1c-0.1,0.3-0.1,0.6-0.1,0.9
			C74.7,74.8,77.8,76.5,77.1,79.3z"/>
		<path class="st14" d="M76.3,97.2v3c1.3,0.1,2.9-0.1,2.7,2.1l1.3,0.2c0.5-2.4-0.9-5,0.9-7.2c-0.1-1.5,0.8-3.6-1.8-4l-0.1,1.9
			c-0.2,0.9-0.3,1.8-0.5,2.6C78.2,96.7,77.3,97.2,76.3,97.2z"/>
		<path class="st13" d="M80.3,102.5c0,1.9,0,3.8,0,5.7c3.9-2.2,1-5.8,1.7-8.6l-0.8-4.2C79.4,97.5,80.8,100.1,80.3,102.5z"/>
		<path class="st6" d="M88.2,107.2c-0.1,0.3-0.3,0.5-0.4,0.8c0.4,1,0.7,2.2,2.1,2.4l1.3-2.2L88.2,107.2z"/>
		<path class="st11" d="M100.2,92.1c1.3,0.4,0.5,3.1,2.3,2.6c1.3-0.3,1.6-2,1.9-3.3l-0.4-0.3c-1.3-0.8-0.6-3.8-2.8-3.3
			C99.4,88.3,100.5,90.6,100.2,92.1z"/>
		<path class="st13" d="M51.4,84.4c-0.1,2.2-0.3,4.3-2,6c0,0,0,0.1,0,0.1c0.1,0.3,0.4,0.4,0.7,0.3l2.1,0.4c1.5-0.4,2.8,0.4,4.4,1.2
			c-1.1-3.6-0.8-7.4,1-10.8l-3.4-0.3C54.1,83.1,52.6,83.6,51.4,84.4z"/>
		<path class="st13" d="M46.9,98.2c0.5,1.6,0.6,3.3,0.3,4.9c2.6,0.5,4.3-0.1,2.8-3s0.9-2.6,2.3-3.3L52,95.5l-0.3-1
			c-1.4-0.2-1.5-1.6-2.1-2.5l-0.8,1.2l0.3,2.1c-0.1,0.6-0.3,0.9-0.9,0.9C47.3,96.5,47.1,97.3,46.9,98.2z"/>
		<path class="st2" d="M48.2,87.2c0,1.2-0.3,2.4,1.1,3.1c1.7-1.6,2-3.8,2-6C49,84,49.6,86.6,48.2,87.2z"/>
		<path class="st6" d="M50,90.8L49.7,92c0.6,0.9,0.7,2.2,2.1,2.4l0.4-3.3L50,90.8z"/>
		<path class="st14" d="M54.1,81.3l3.4,0.3c1.2-1.4,1.8-3.3,1.4-5.2l-2.6-1.3l-2-0.9C55,76.6,53,78.9,54.1,81.3z"/>
		<path class="st8" d="M52.5,69.2l0.5,3.1l1.3,1.9l2,0.9C56.3,72.5,54.8,70.2,52.5,69.2z"/>
		<path class="st12" d="M51.9,66c0,0-0.1,0.1-0.1,0.2c-0.6,1-0.3,2.3,0.7,2.9c2.3,1.1,3.8,3.4,3.8,5.9l2.6,1.3
			c3.6,1.4,6.9-1.1,10.3-1.1l0,0c0-0.1,0-0.2,0-0.4c0-1,0.9-1.8,1.8-1.7l0.2,0.1c0.9-2.7,4.6-4.6,2.2-8.2c-5.4,1.5-10.8,2-16.1,0.2
			C55.2,64.5,53.9,67.2,51.9,66z M66.9,72.9c0-0.1,0-0.3,0.1-0.3c0.1-0.1,0.3-0.1,0.4-0.1L67.3,73L66.9,72.9z"/>
		<path class="st4" d="M25.6,58.9c-0.3,0.4-0.2,0.5,0.2,0.5L26,59C25.9,59,25.6,58.9,25.6,58.9z"/>
		<path class="st10" d="M71.4,73.2l-0.2-0.1v2c1.2,2.6-1.1,5.7,1.1,8.1c2.8,0.1,2.2-4.1,5-4c0.6-2.7-2.5-4.4-2.1-7.1
			C74.3,73.8,72.8,73.5,71.4,73.2z"/>
		<path class="st2" d="M33.3,101.2c2.8,3.3,3.3,6.7,0,10.1c1.7,0.6,3.2,2.2,4.9,1.7s3.1-0.8,4,1.2c4.6,1.8,9.6,0.2,14.3,1.9
			c3.4,1.2,6.5,4.2,10.7,3c-0.1-2-1.5-2.5-3.3-3c-3.8-1-7.9-1.4-11.2-3.9c-0.7-0.5-1.3-0.9-2.2-0.3c-5.2,3.5-5.9-1.8-7.9-4.3
			c-0.9-1.1-0.3-2.3,1.3-2.4s2.2-1.4,3.2-2.2c0.3-1.6,0.2-3.3-0.3-4.9c-3.1,1.6-4.4,4.8-6.4,7.6C38.2,104.1,36.6,101.2,33.3,101.2z"
			/>
		<path class="st14" d="M24.2,101.2l-1.2,3.2c0,1.3,0.1,2.5,0.1,3.8l2.3,1.1c1.3-2.2,2.5-1.4,3.4,0.3c1,2.1,2.3,3,4.5,1.7
			c3.3-3.4,2.9-6.7,0-10.1C30.2,99.4,27.2,102.2,24.2,101.2z"/>
		<path class="st2" d="M49.2,95.3l-0.9,0.9C48.9,96.2,49.1,95.8,49.2,95.3z"/>
		<path class="st8" d="M91.2,108.2l-1.3,2.2c0.1,0.3,0.2,0.6,0.3,0.9c2.3,0,4.5-4.5,6.4-1.5c1.7,2.7,2.4,6.7-1.2,9.5
			c0,0.1,0,0.2,0,0.3c0.1,0.9,0.9,1.7,1.8,1.6c1.2-1.4,0.6-4.6,3.9-3.9c-0.1-2.1,0.8-4.2-0.8-6.1c-1-1.1-0.1-1.4,0.7-2.2
			c1.6-1.7,3.7-3.2,3.1-6.1c-0.7,0.2-1.5-0.1-1.8-0.7c-1.6-0.8-3.8,1.8-5-1C93.2,101.8,93.4,106,91.2,108.2z"/>
		<path class="st6" d="M98.8,125.5l2.3-8.2c-3.3-0.7-2.8,2.5-3.9,3.9C97.3,122.8,96.7,124.7,98.8,125.5z"/>
		<path class="st4" d="M92.4,150.2l-0.2,0.2c-0.1,0.3-0.1,0.6-0.1,0.9l0.9,1c2.6,1.8,5.8-1.7,8.2,1v-7.4c-1,0.6-2.1,1.2-3.1,1.7
			C97.8,150.4,94.8,150.2,92.4,150.2z"/>
		<path class="st4" d="M106.8,142.3c-1.2,0.8-2.4,1.6-3.7,2.4l3,3.6c1.5-1.1,0.9-2.8,1.2-4.2C107.2,143.5,107,142.9,106.8,142.3z"/>
		<path class="st4" d="M92.2,150.2L92.2,150.2h0.2H92.2z"/>
		<path class="st4" d="M98.2,147.6c1-0.5,2.1-1.1,3.1-1.7v-3.5l1.9,2.3c1.2-0.8,2.5-1.5,3.7-2.4c-1.1-4.1-1.1-8.7-5.8-11
			c-3.9,1.9-4.9-1.3-5.6-3.7s-0.8-5.1-2.1-7.4c-1.7,2,0.3,4-0.1,6c-0.1,0.7-0.1,1.3-0.1,2l0.3,4.8c2.4,0.1,2.3,3.1,3.6,3.6
			c7,2.7,1.1,6.9,1.2,10.2C98.2,147.1,98.2,147.3,98.2,147.6z"/>
		<path class="st7" d="M106.2,148.3c0.1,1.3-0.4,2.9,1,3.9c4.4-0.2-0.6-2.9,1.1-3.9c0.4-1.5,2.2-3.3-0.9-4.2
			C107.1,145.5,107.7,147.2,106.2,148.3z"/>
		<path class="st6" d="M97.2,101.2c1.2,2.8,3.4,0.2,5,1c-0.2-1.4,0.7-3.3-1.3-3.8C98.8,97.9,98.6,100.4,97.2,101.2z"/>
		<path class="st6" d="M103.2,144.6c-0.6,0.4-1.3,0.8-1.9,1.1c0,2.8,0,5.1,0,7.4v2c2.2,0.1,3.5,1.6,4.8,3c1.9-1.7,0.8-4,1.1-6
			c-1.3-1-0.8-2.5-1-3.9L103.2,144.6z"/>
		<path class="st6" d="M101.3,142.3v3.5c0.6-0.4,1.3-0.8,1.9-1.1L101.3,142.3z"/>
		<path class="st13" d="M117.2,47.3c-0.3-0.1-0.7-0.1-1-0.1C116.5,47.9,116.8,47.9,117.2,47.3z"/>
		<path class="st10" d="M47.6,152.3c1.9,0.6,3.7,1.1,5.6,1.5c-0.2-1.5-0.6-3-1-4.5c-3.8-0.9-3.7-3.2-2-6v-3
			c-4.1-2.6-4.6,3.2-7.6,3.5c0.1-5.7-5.7-9.9-2.7-16.2c-3.6,2.4-4.3,7.8-9.6,6.7c-0.9,2.3,1.6,3.3,2,5.1l0.1,1.9
			c2,0.9,2.8-4.4,4.3-1.4c1,2,2,4.2,2.9,6.4c-0.2,0.8,0.1,1.6,0.7,2.1c2.4,0.4,4.3-1,6.5-1.8C47.1,148.4,47.2,150.5,47.6,152.3z"/>
		<path class="st6" d="M16.5,115.2c-0.1,1-0.1,2-0.1,3l2,2l2.4-1.4c0.4-1.9-0.1-4,1.2-5.7c0.4-1.6-0.2-3.5,1.1-4.9
			c0-1.3-0.1-2.5-0.1-3.8l-3.3-1.6c-0.7,1.5-0.6,3.2,0.1,4.7c1.1,2.7,0.1,4.7-2.5,5.9L16.5,115.2z"/>
		<path class="st8" d="M12.3,95.2L12.3,95.2L12.3,95.2z"/>
		<path class="st8" d="M13,101.1c0.9,2.5,2.8,2.1,4.3,0.1c0.1-1.5-0.4-2.9-1.3-4.1c-2.5,1.9-3.6,0.9-3.8-1.8
			C7.7,97.7,12.3,99.3,13,101.1z"/>
		<path class="st6" d="M16.2,96.2c-0.1,0.3-0.2,0.6-0.3,0.9c0.9,1.2,1.4,2.6,1.3,4.1l2,0.1C18.3,99.5,21.9,95.2,16.2,96.2z"/>
		<path class="st8" d="M16.5,115.2l0.9-1.9c-0.6,0.2-1.4,0.1-1.6,0.5C15.4,114.5,15.9,115,16.5,115.2z"/>
		<path class="st8" d="M11,120.6l-0.7,1.6l1.3-1.2L11,120.6z"/>
		<polygon class="st8" points="10.2,122.2 10.2,122.2 10.2,122.2 		"/>
		<path class="st12" d="M12.2,95.2c0.2,2.8,1.2,3.8,3.8,1.9c0.1-0.3,0.1-0.6,0.3-0.9l-0.8-1.1L12.2,95.2z"/>
		<path class="st7" d="M100.9,44.7c-0.1,0.3-0.3,0.6-0.2,0.8s0.5,0.3,0.7,0.4l0.4-0.7L100.9,44.7z"/>
		<path class="st4" d="M21.1,137.5c3.7,3.1,7.7,5.9,11.9,8.3c-1.1-1.2-2.2-2.7-0.7-4.6l-0.1-1.9c-2.4,1.3-4.1,1.3-5-2
			c-0.8-2.4-1.8-4.7-2.9-7c-0.5,0.7-0.6,1.8-1.7,2l-0.4-3.1c-2-3.3-0.3-7-1.4-10.4l-2.4,1.4c0,0.7,0,1.3,0,2c1.2,1.5,1.5,2.8-0.4,4
			l0.3,4.1c1,0.5,1.2,1.2,0.3,2c-0.1,0.9-0.1,1.9-0.2,2.8C19.6,135.5,20.5,136.4,21.1,137.5z"/>
		<path class="st5" d="M18.4,135.1L18.4,135.1c0.9,0.8,1.8,1.6,2.7,2.4C20.6,136.4,19.6,135.5,18.4,135.1z"/>
		<path class="st6" d="M18,126.2c1.9-1.2,1.6-2.6,0.4-4C16.8,123.4,16.9,124.7,18,126.2z"/>
		<path class="st6" d="M18.6,132.2c0.9-0.8,0.7-1.4-0.3-2C17,131.1,17.3,131.8,18.6,132.2z"/>
		<path class="st1" d="M42.3,114.1L42.3,114.1c0.2,3.8,4.4,2.8,6,5c2.2-0.9,3.8-0.4,5.3,1.7c1.2,1.7,2.6,4,5.2,3
			c4-1.5,8.3,0.3,12.3-1.4c0,0,0,0,0,0c1.2-0.4,2.5,0.2,2.9,1.4c2.2,4.4,4.8,6.3,8.8,1.8c0.4-0.5,1.6-0.3,2.4-0.4l7.9,3l0.1-2
			c-0.8,0.1-1.6-0.3-2-1c-2.2-0.1-3.9-1.8-4-4c-0.3,0-0.7,0-1,0c-1.8-0.4-4.3,1.2-5-1.9c-2.8,0.9-5.4,1.5-7.4-1.6
			c-1.1-1.7-2.7-2.2-3.7,0.3c-0.6,1.4-1.8,1.2-2.9,1.2c-4.2,1.3-7.2-1.8-10.7-3C51.9,114.4,46.8,116.1,42.3,114.1z"/>
		<path class="st8" d="M52.1,91.2l-0.4,3.3l0.3,1c0.1,0,0.1,0,0.2,0c0.5,0.1,0.8,0.7,0.7,1.2c1.1,0.6,2.6,0.4,3.2,1.9l4,0.9l1.4-1.1
			c0-1.2-0.9-2.1-2.1-2.2c-2.8-0.4,0.2-1.3-0.1-1.9c-1.9-0.3-2.5-1.3-1.7-3.1c0.6-1.3,1-2.2,3.1-2.1c3.3,0.2,7.6,1.5,8.8-3.8
			c-5.7-4.7-5.7-5.6-0.2-10c-3.5,0-6.7,2.5-10.3,1.1c0.4,1.8-0.1,3.8-1.4,5.2c-1.8,3.3-2.1,7.2-1,10.8C55,91.5,53.7,90.7,52.1,91.2z
			"/>
		<path class="st13" d="M71.4,99.1l-3.2,0.6c0.1,2.1,0,4.2,0.3,6.3c0.3,1.6,0.8,3.2,1.3,4.7c1.6-0.3,2.7-2,4.4-1.6
			c0.8-2.8,1.4-5.8,4.8-6.8c0.2-2.2-1.3-2-2.7-2.1c-0.8,2.4-3.2,2.6-4.9,4.2V99.1z"/>
		<path class="st8" d="M63.1,98.2l1,1l4,0.4l3.2-0.6c3.4-0.5,2.5-3.7,3.4-5.7c0.9-2.5-0.2-3.4-2.5-3.5c-1.4,1.4-2.1,3.5-4.1,4.4
			c-0.2,1.7-1.4,1.9-2.8,1.9C64.1,96.2,63.3,96.8,63.1,98.2z"/>
		<path class="st7" d="M74.2,109.1l0.2,0.2l2.8,0.1l3-1.2c0-1.9,0-3.8,0-5.7l-1.3-0.2C75.6,103.3,75,106.3,74.2,109.1z"/>
		<path class="st2" d="M56.1,98.6c-0.7,1.6-2,3.6,0.7,4.3c1.4,0.3,3.9,0.3,3.4-2.7c-0.1-0.2-0.1-0.5-0.1-0.7L56.1,98.6z"/>
		<path class="st2" d="M81.3,119.3c0.7,3.2,3.2,1.5,5,1.9C85.3,118.7,83.6,118.2,81.3,119.3z"/>
		<path class="st2" d="M87.2,121.2c0.1,2.2,1.8,3.9,4,4C91.2,123,89.4,121.3,87.2,121.2z"/>
		<path class="st13" d="M61.5,98.5l-1.4,1.1c0,0.2,0,0.5,0.1,0.7c1.3-0.4,3.1,0.4,4.1-1.1l-1-1L61.5,98.5z"/>
		<path class="st13" d="M77.2,109.4l-2.8-0.1c0,0.8,0.1,1.6,1.1,1.7C76.7,111.2,77.1,110.4,77.2,109.4z"/>
		<path class="st6" d="M52.9,96.6c0-0.6-0.4-1-0.9-1.1l0.2,1.3l0.3,0.1l0.3-0.1C52.9,96.7,52.9,96.6,52.9,96.6z"/>
		<path class="st6" d="M90.2,111.3c1.3,2.9,4.6,4.6,5.2,8c3.6-2.7,2.9-6.8,1.2-9.5C94.7,106.8,92.5,111.3,90.2,111.3z"/>
		<path class="st14" d="M69.5,85.3c2.7,0.5,1.8,3.1,2.8,4.7c2.3,0.1,3.4,1,2.5,3.5c1.2,0.1,1.3,1,1.3,1.9l1.7,0.2l0.4-2.2
			c-0.1-1.3-0.1-2.6-0.2-3.9c-2.4-1.6-5.3-2.8-5.9-6.1c-2.2-2.5,0.1-5.5-1.1-8.1l-1.9,0.1l0,0C63.8,79.7,63.8,80.5,69.5,85.3z"/>
		<path class="st1" d="M72.2,83.2c0.6,3.3,3.5,4.5,5.9,6.1c-0.6-3.3-2.1-6.6-0.9-10.1C74.4,79.1,75,83.3,72.2,83.2z"/>
		<path class="st1" d="M78.3,93.2c-0.1,0.8-0.3,1.5-0.4,2.2c0.3,0,0.7,0.2,0.9,0.4l0.5-2.7C78.9,93.2,78.6,93.2,78.3,93.2z"/>
		<path class="st6" d="M71.4,99.1c0,1.7,0,3.3,0,5.4c1.6-1.6,4.1-1.8,4.9-4.2c0-1,0-2,0-3c-1-0.6-1.2-1.3-0.2-2
			c-0.1-0.9-0.1-1.8-1.3-1.9C73.9,95.4,74.8,98.5,71.4,99.1z"/>
		<path class="st13" d="M76.3,97.2c1,0,1.9-0.5,2.5-1.3c-0.2-0.3-0.5-0.4-0.9-0.4l-1.7-0.2C75.2,96,75.3,96.6,76.3,97.2z"/>
		<path class="st8" d="M70.6,73.2c-1,0.2-1.6,1.1-1.4,2.1l1.9-0.1c0-0.7,0-1.3,0-2C70.9,73.2,70.8,73.2,70.6,73.2z"/>
		<path class="st8" d="M67,72.5c-0.1,0.1-0.1,0.2-0.1,0.3l0.4,0.1l0.1-0.5C67.2,72.5,67.1,72.5,67,72.5z"/>
		<path class="st1" d="M24.9,118c-2,3.4-0.8,4.6,2.3,5.3c1.7-1.5,3.4-3.3,6-3.1c0-0.3,0-0.7,0-1c1.5-4.4,5.2-4.8,9-5l0,0
			c-0.8-2-2.1-1.7-4-1.2s-3.3-1.2-4.9-1.7c-2.2,1.3-3.5,0.4-4.5-1.7c-0.8-1.7-2.1-2.5-3.4-0.3c0,1-0.1,1.9-0.1,2.9
			C27.4,114.3,25.6,116.6,24.9,118z"/>
		<path class="st4" d="M23.2,108.2c-1.3,1.4-0.8,3.2-1.1,4.9l3.2-0.9c0-1,0.1-1.9,0.1-2.9L23.2,108.2z"/>
		<path class="st3" d="M86.7,152.3c-1.5,0.5-3.1,0.9-4.7,1.3c2.1,2.5,3.4,0.6,4.6-1.1L86.7,152.3z"/>
		<path class="st3" d="M67.2,155.2c0.7,0,1.3,0,2,0c0.1-0.3,0.3-0.5,0.5-0.8c2.5-3,2.3-6.5,3.8-10c0.3,3,3.8,3.8,3.8,6.8l0.1,1.9
			c1.5,0.1,3.1-1.7,4.5,0.1l0.2,0.2c1.6-0.4,3.1-0.8,4.7-1.3c3.6-5.1,5.6-10.6,4.6-17c0.1-0.8-0.3-1.6-1-2c-1,0.1-2,0.1-3-0.1
			c-2.6-0.8-5.3-3.1-7.5,0.7c-1.7-1.2-4.6,1.7-5.8-2.4c-1.3-4.5-13.9-6.3-14.9-2.4c-1.4,5.5-6.5,7-8.8,11.2c0,1,0,2,0,3
			c2.2,1.5,4.3,3,2,6c0.4,1.5,0.8,3,1,4.5C57.8,154.7,62.5,155.2,67.2,155.2z"/>
		<path class="st9" d="M86.7,152.3c1.9-0.6,3.7-1.3,5.5-2v-0.1c2.6-4.9,4.7-9.7,1-15h-2C92.2,141.6,90.2,147.1,86.7,152.3z"/>
		<path class="st9" d="M69.6,154.5c-0.2,0.2-0.3,0.5-0.5,0.8c1.3,0,2.6-0.1,3.9-0.2c0.6-1.9,2.1-3.3,4.1-3.7c0-3-3.5-3.8-3.8-6.8
			C71.9,147.9,72.1,151.4,69.6,154.5z"/>
		<path class="st2" d="M98.1,147.5c-1.9,1-3.8,1.9-5.8,2.6C94.8,150.2,97.8,150.4,98.1,147.5z"/>
		<path class="st2" d="M92.2,150.2h0.2c2-0.8,3.9-1.7,5.8-2.7c0-0.2,0-0.5,0-0.7c-0.1-3.3,5.8-7.5-1.2-10.2
			c-1.3-0.5-1.2-3.5-3.6-3.6c-0.1,0.7-0.1,1.4-0.2,2.1C97,140.5,94.9,145.4,92.2,150.2z"/>
		<path class="st10" d="M85.3,125.2c-1.6,4.8,3.2,5.4,5,8c0.7,0.4,1.1,1.2,1,2h2c0.1-0.7,0.1-1.4,0.2-2.1c-0.1-1.6-0.2-3.2-0.2-4.8
			L85.3,125.2z"/>
		<path class="st7" d="M93,152.3l0.2,3l2,1c2.1,0.4,4.1-0.7,6.1-1c0-0.7,0-1.3,0-2C98.8,150.6,95.6,154.1,93,152.3z"/>
		<path class="st9" d="M30.2,134.2c5.3,1.1,6-4.3,9.6-6.7c-3,6.2,2.9,10.5,2.7,16.2c3-0.2,3.5-6.1,7.6-3.5c2.2-4.2,7.4-5.7,8.8-11.2
			c1-3.9,13.6-2.1,14.9,2.4c1.2,4.1,4.1,1.2,5.8,2.4c2.2-3.8,4.9-1.5,7.5-0.7c1,0.2,2,0.2,3,0.1c-1.8-2.6-6.6-3.3-5-8
			c-0.8,0.1-2-0.1-2.4,0.4c-4,4.5-6.6,2.6-8.8-1.8c0,0,0,0,0,0c-0.4-1.2-1.7-1.8-2.9-1.3c-4,1.7-8.3-0.1-12.3,1.4
			c-2.7,1-4.1-1.4-5.2-3c-1.5-2.1-3.1-2.6-5.3-1.7c-0.2,1.4-1,2.5-2.2,1.7c-4-2.8-8.5-1.2-12.8-1.7c0,0.3,0,0.7,0,1l-3.9,6
			C29.4,128.9,28.7,131.7,30.2,134.2z"/>
		<path class="st2" d="M24.3,127.2L24.3,127.2v3.1c1.1,2.3,2.1,4.6,2.9,7c0.8,3.3,2.5,3.4,5,2c-0.5-1.8-2.9-2.8-2-5.1
			c-1.6-2.5-0.8-5.3-1-8l-3,0.1C25.8,126.9,25.1,127.3,24.3,127.2z"/>
		<path class="st2" d="M35.8,147.3c-0.9-0.5-1.9-1-2.8-1.5l0.5,0.5C34.1,147,34.9,147.4,35.8,147.3z"/>
		<path class="st2" d="M33,145.8c0.9,0.5,1.9,1,2.8,1.5c1.3-0.2,2.5-0.6,3.6-1.2c-0.9-2.2-1.9-4.4-2.9-6.4c-1.5-3-2.3,2.4-4.3,1.4
			C30.8,143.1,31.8,144.6,33,145.8z"/>
		<path class="st9" d="M50.2,143.2c-1.7,2.8-1.8,5.1,2,6C54.5,146.2,52.5,144.7,50.2,143.2z"/>
		<path class="st11" d="M20.8,118.8c1.1,3.4-0.6,7.2,1.4,10.4l2-2l0,0c0-0.1,0-0.2,0-0.3c0.1-1,1-1.8,2-1.7l1-1.9
			c-3.1-0.7-4.3-1.9-2.3-5.3c0.8-1.3,2.5-3.7,0.4-5.7l-3.2,0.9C20.8,114.8,21.2,116.9,20.8,118.8z"/>
		<path class="st1" d="M24.2,127.2l-2,2l0.4,3.1c1.1-0.2,1.2-1.3,1.7-2C24.3,129.3,24.2,128.2,24.2,127.2z"/>
		<path class="st10" d="M33.2,119.2c4.3,0.4,8.8-1.2,12.8,1.7c1.2,0.8,2.1-0.3,2.2-1.7c-1.5-2.2-5.7-1.2-6-5
			C38.4,114.5,34.7,114.8,33.2,119.2z"/>
		<path class="st13" d="M57.6,91.1c-0.8,1.8-0.3,2.8,1.7,3.1h8.9c2-0.9,2.7-3,4.1-4.4c-1-1.5-0.1-4.1-2.8-4.7
			c-1.2,5.3-5.5,3.9-8.8,3.8C58.6,88.9,58.2,89.8,57.6,91.1z"/>
		<path class="st6" d="M59.4,96.2c1.2,0.1,2.1,1.1,2.1,2.2l1.8-0.2c0-1.4,0.8-2.1,2.2-2s2.6-0.2,2.8-1.9h-8.9
			C59.6,94.9,56.5,95.8,59.4,96.2z"/>
		<path class="st10" d="M27.3,123.3l-1,1.9v1.1l3-0.1l3.9-6C30.6,120,28.9,121.7,27.3,123.3z"/>
		<path class="st1" d="M25.9,125.2c-1,0.1-1.8,1-1.7,2.1c0.8,0.1,1.6-0.3,2-1v-1.1C26.1,125.2,26,125.2,25.9,125.2z"/>
	</g>
</g>
</svg>
