<?xml version="1.0" encoding="utf-8"?>
<!-- Generator: Adobe Illustrator 20.0.0, SVG Export Plug-In . SVG Version: 6.00 Build 0)  -->
<svg version="1.1" id="Layer_1" xmlns="http://www.w3.org/2000/svg" xmlns:xlink="http://www.w3.org/1999/xlink" x="0px" y="0px"
	 viewBox="0 0 108.2 156.9" style="enable-background:new 0 0 108.2 156.9;" xml:space="preserve">
<style type="text/css">
	.st0{fill:#201B19;}
	.st1{fill:#292522;}
	.st2{fill:#524A46;}
	.st3{fill:#B9B5B0;}
	.st4{fill:#35302C;}
	.st5{fill:#57504B;}
	.st6{fill:#928375;}
	.st7{fill:#47423E;}
	.st8{fill:#A79E96;}
	.st9{fill:#695E56;}
	.st10{fill:#DCD3C9;}
	.st11{fill:#E3DBD2;}
	.st12{fill:#EDE7DD;}
	.st13{fill:#FDFCFC;}
	.st14{fill:#D7CBBD;}
</style>
<title>border</title>
<g id="Layer_2">
	<g id="Layer_1-2">
		<path class="st0" d="M94.4,71.8v0.1h0.1L94.4,71.8z"/>
		<path class="st0" d="M68.5,101l-2.1,3c1.1,1.3,2.7,1.2,4.1,0.8c5.3-1.4,7.8-0.3,11,5.1l2,0.2v-1c0.5-2.6-1.6-6.2,3-7l0,0
			c2.7-2.6,4-5.7,3.2-9.5c-0.1-0.4,0.6-1,1-1.5c1.7-5.5,1.4-11.5,3.8-16.9l-0.2-2c-0.9,0.2-1.5-0.3-1.4-1.2c0-0.3,1-0.4,1.5-0.7
			c0.1-1.3,0.1-2.7,0-4c-0.7-5,2.7-9.1,2.7-13.9c0-3.1,4.6-5.8,1.3-9.1c-3.3-3.2-1.4-6.7,0.2-8.7c2.2-2.9,3-5.4,1.9-8.5
			c-1.5-4.2-1.2-6.9,4.1-7l-0.2-2.9c-5.1-8.8-10.2-1-16-0.3c1.7,1.3,3.4,2.2,1.7,4.1c-1,1.1-1.9,2.9-3.3,2.7
			c-2.1-0.3-0.9-2.4-1.2-3.7c-0.1-0.7-0.1-1.3-0.1-2c-2.2,1.8-4.2,4-7,5.2c-0.2,2.3-1.6,3.7-3.1,5.3c-2.3,2.4-4.9,5.7-4.2,8.9
			c0.7,3.5,3.5,6.2,7.1,6.7c1.6,0.2,3.1,0.3,3.3-1.8c-0.3-4.1,1.6-7,5-9c0.7-1.1,1.9-1,3-1l0.4-0.2L89.5,31c-0.4,3.1,2.3,6.8-2,8.9
			c-0.8-0.1-1.6,0.3-2,1c0.1,2.3-1.6,3.1-3.3,3.6c-2.4,0.7-2.9,1.6-1.2,3.6c0.6,0.6,0.4,1.8,0.6,2.8c1.9,3.2,1.9,3.4-1.2,3.4
			c-2.3,0-1.6,1.5-1.8,2.6c0,1.5,0,2.9-2,3c-1.1,1.7-4,0.4-4.5,2.5c-0.7,2.6,0,6.1-4.6,5.5c-0.6-0.1-1.1,1.5-0.6,2.1
			c1.9,2.4,3.5,4.5,1.2,7.8c-0.7,1,1.2,3.1,3.2,2.6c1.6-0.4,3-0.8,3.2,1.5c0.1,1.4-0.7,2.3-1.3,3.5c-1.2,2.4-3.5,5.4-2.1,7.6
			C73.7,97.4,71,98.9,68.5,101z"/>
		<path class="st1" d="M2.5,16.9L2.5,16.9c0,1.6,0.1,3.2,0.2,4.9c3.3,0.6,6.9-2.1,10,0.8c0.6,0.5,1.8,0.8,1.2,1.7
			c-0.3,0.5-1.5,0.4-2.2,0.6c0.8,1.1,1.4,2.2,1.9,3.4c1.3,4.9,4,7.4,9.3,6.7c1.4-0.2,2.7,0.2,2.8,2c1.2,0.3,2.6-1.6,3.6-0.1
			c0.8,1.1-0.3,2.1-1,3.1C28.1,40,28,40.2,28,40.3c-0.3,0.7,0,1.5,0.6,1.8c1.6-0.7,3.2-1.5,4.9-2.1c2.5-0.9,4.8-0.9,6,2.1l1,0.1
			l1-0.1c1.4-0.6,0.5-3.3,2.9-3l0.8-1.3l-3.7-4.3l-3-0.2c-0.4,0.8-1.2,0.8-1.9,0.8c-2.1,0.2-4.8,1.4-6.1,0.5c-1.5-1-3.6-3.4-2.6-5.8
			c0.9-2.2-0.3-3.8-0.3-5.7L23.5,14c-3.9-0.2-7.8-1.2-11.2-3.1c-3.1-1.7-5.9-0.7-6.6,2.9C5.2,15.8,5,17.3,2.5,16.9z"/>
		<path class="st2" d="M11.7,124.7c-2.3-1.7-4.6-3.6-6.7-5.6c1.2,2.8,3.1,5.2,5.5,7.1C10.7,125.6,11.2,125,11.7,124.7z"/>
		<path class="st2" d="M1.3,66.8L1.3,66.8L1.3,66.8z"/>
		<path class="st2" d="M5,119.1c2.1,2,4.4,3.8,6.7,5.6c1.6-1.2,3.7-2.2,1.9-4.1c-4.4-4.7-4.4-10-4.1-15.6c-0.3-2.7,0.6-5.6-2.4-7.6
			c-1.1-0.7-0.8-2.4-0.2-3.7c3.5-7.4,3.8-15.4,3.5-23.4c0-0.4-0.1-0.9-0.3-1.3c-4.8,0.1-3.3-3.6-3.8-6.1c-1.9,1-2.7,3.4-5.1,3.9
			l1.2,2c1.3,0.4,3.2-0.1,3.3,2.2h1.7c2.2,3.7,0.6,7.7-1.1,10.2c-2.3,3.6-1.1,6.7-1.4,10c-0.4,4.3,0.7,8.6-0.5,12.8
			c1.5,1.3,0.9,3.3,0.5,4.5C3.7,111.9,3.7,115.7,5,119.1z"/>
		<path class="st3" d="M79.4,133.3c-1.1,0.5-2.3,1-3.4,1.4c0.5,2.1,0.7,4.3,0.7,6.5l3.6-0.4c3.8-3.3,5-8.6,8.3-12.2
			c-2,1.2-4,2.3-6,3.4c-0.1,0.9-0.1,1.7-1.2,2C80.7,134.1,79.9,133.9,79.4,133.3z"/>
		<path class="st3" d="M82.7,131.9c2-1,4-2.1,6-3.4c0.4-0.4,0.8-0.8,1.2-1.2c1.3-1.1,1.2-4.1,3.2-3.9c0.7,0,1.4,0.3,1.9,0.8
			c0.6-0.4,1.1-0.9,1.7-1.3c-1.4-2.8-1.3-5.7-0.4-9.1c0.4-1.5,0.2-3-0.4-4.4c-2.7,1.1-4.8,4.5-8.3,1.8l-1.9-0.5
			c-0.8,0.3-1.6,0-2.1-0.7l-2-0.2c-2.7,2.3-4.9,0.5-7.1-0.8c-2.2-1.2-4.3-2.4-6.9-1.2c1.6,1.3,3.5,2.3,5.5,2.9
			c4.8,1.4,8.5,6.8,14.6,3.7c2.3-1.2,2.7,1,2.6,3.2c-0.3,5.8-4.9,8.9-7.5,13.3C82.7,131.4,82.7,131.6,82.7,131.9z"/>
		<path class="st3" d="M73.6,130.8c1.1,1.1,2,2.4,2.4,3.9c1.2-0.4,2.3-0.9,3.4-1.4c-0.4-0.4-0.7-0.8-1-1.2
			C76.8,132.4,76,129.9,73.6,130.8z"/>
		<path class="st4" d="M48,50l-0.6,3c2,2.5,2,6.2,4.9,8c2.2,1.5,1.7,3.1,1.2,5l1.5,2.7c1.1,0.5,1.7,1.3,1.1,2.5
			c0.2,0.2,0.4,0.5,0.5,0.9l1-0.1c4.2,1,0.4,5.3,3,7c5.7-6.2,6-7.5,2-11l-3-1c-1.3-0.2-2.5-0.4-1-2c-2-6.2-7-11.8-4-19
			c-2.2-2.8-0.8-4.8,1.2-6.8c1.6-1.6,3.8-2.6,4.4-5.1l-1-0.1c-0.9,0.8-1.8,1-2.7,0l-2,0.3c-0.2,1.4-0.8,2.1-2,0.7l-2.1,0.2
			c-0.3,0.7-1,1-1.8,0.8l-0.6,2.1l0.7,4.9c0.7,0,1.3,0.3,1.3,1s-0.6,1-1.3,1.1l-0.5,2.9C49.9,49,49.5,49.6,48,50z"/>
		<path class="st1" d="M94.5,71.8L94.5,71.8v0.1V71.8z"/>
		<path class="st1" d="M94.5,70v1.7l1.1,0.1c4.2,0.2,2.6-3.2,3.2-5.2l-0.1-1.7c-0.2-3.6-1.1-8.1,2.7-9.9c4.9-2.3,3.7-4.8,1.6-8
			c-1-1.5-2.7-3,0.3-4.1c0.2-0.2,0.3-0.5,0.3-0.8c-1.5-3.6-1.6-7.1,0.4-10.5c2.5-4.2,1.9-8.4,0.5-12.8c-5.2,0.1-5.6,2.8-4.1,7
			c1.1,3.1,0.3,5.7-1.9,8.5c-1.5,2-3.4,5.6-0.2,8.7c3.2,3.1-1.2,6-1.2,9.1c0,4.8-3.4,8.9-2.7,13.9C94.6,67.4,94.6,68.7,94.5,70z"/>
		<path class="st5" d="M55.8,39.2c-2,2-3.5,4-1.2,6.8c1.3-0.1,2.4-0.9,2.9-2c0.1-4.7,3.7-2.9,5.8-2.9c3.4,0,5.2-0.7,5.2-4.7
			c0-6.9,3.9-11.5,9.9-14.5c2.8-1.2,4.8-3.3,7-5.2c0.1-1.5,1.2-2.1,2.2-3c3.2-3,7.2-5.4,8.8-9.8c-5.4,3.1-9.4,7.7-13.9,11.8
			c-2.6,2.3-5,4.6-8.5,5.7c-3.2,1.1-5.1,4.1-5.7,7.1c-1,5.1-3.7,6.3-8.2,5.6C59.7,36.6,57.4,37.6,55.8,39.2z"/>
		<path class="st6" d="M2.8,117c0.7,0.7,1.5,1.4,2.2,2.1c-1.3-3.4-1.3-7.2,0-10.6c0.4-1.2,1-3.1-0.5-4.5c-2.5,3.4-2.7,7.3-1.9,11.1
			C2.7,115.7,2.8,116.4,2.8,117z"/>
		<path class="st4" d="M86.8,22.5c1.4,0.2,2.3-1.6,3.3-2.7c1.7-1.9,0-2.7-1.7-4.1c5.7-0.7,10.9-8.5,16,0.3h1.1l-0.2-7
			c-2.3-0.9-2-2.4-0.8-4c0-0.8-0.1-1.6-0.9-2l-7,1l0,0c-1.6,4.4-5.6,6.8-8.8,9.8c-1,0.9-2.2,1.5-2.2,3c0,0.7,0,1.3,0.1,2
			C85.8,20.1,84.7,22.2,86.8,22.5z"/>
		<path class="st7" d="M3.1,7.6C3.5,8,3.4,8.6,2.9,9c-0.7,2.6-0.8,5.3-0.4,8c2.5,0.3,2.7-1.1,3.2-3.2c0.7-3.6,3.5-4.6,6.6-2.9
			c3.4,1.9,7.3,3,11.2,3.2l0.1-1.4l-1-0.7c-1.1,0.1-1.9-0.3-2.1-1.5c-2.4-2.7-5.2-5-8.3-6.7C9.1,4.2,6.8,1.2,3.7,2
			C2.3,3.7,3.1,5.6,3,7.4C3,7.5,3.1,7.5,3.1,7.6z"/>
		<path class="st7" d="M87.6,110.8c-0.1,0.1-0.1,0.3-0.2,0.4c3.5,2.7,5.7-0.7,8.3-1.8c0.8-5,2-10-1.1-14.7c-0.9,4.5-1.9,8.8-8.1,7.2
			l0,0C91.5,104.3,91.4,107.3,87.6,110.8z"/>
		<path class="st5" d="M23.6,12.6L23.5,14l4.1,8.9c6,1.2,6.9,6.6,9,11.1c0.7,0,1.5,0,1.9-0.8c-1-1.1-0.9-2.4-0.8-3.8
			c0.1-1.9-0.1-4.2-1.7-5C30.6,21.8,28.3,16,23.6,12.6z"/>
		<path class="st2" d="M98.7,65c1.7-1,3.4-2,3.9-4.1c-0.5-1.8-1.4-3.4,1.1-4.9c5.6-3.3,5.4-3.4,1.8-8.8c-0.8-1.4-1.6-2.8-2.3-4.2
			c-3.1,1.1-1.3,2.6-0.3,4.1c2.1,3.2,3.2,5.7-1.6,8C97.6,56.9,98.5,61.4,98.7,65z"/>
		<path class="st5" d="M94.5,74c-2.4,5.4-2.1,11.4-3.8,16.9l2.5,1.1C96.3,86.2,97.2,80.2,94.5,74z"/>
		<path class="st2" d="M104,31.7c-2,3.4-1.9,6.9-0.4,10.5c1.3,0,2.8-0.7,2.7-1.7c-1.2-8.1,3.9-16.5-0.8-24.5h-1.1
			c0.1,1,0.1,1.9,0.2,2.9C105.9,23.2,106.6,27.5,104,31.7z"/>
		<path class="st7" d="M89.8,127.4l0.3,0.2c1.7-1.1,3.3-2.2,4.9-3.4c-0.5-0.5-1.2-0.7-1.9-0.8C91,123.3,91.2,126.2,89.8,127.4z"/>
		<path class="st1" d="M86.5,102c6.2,1.5,7.3-2.8,8.1-7.2c0.2-1.3-0.8-1.9-1.4-2.7l-2.5-1.1c-0.3,0.5-1.1,1.1-1,1.5
			C90.5,96.3,89.3,99.4,86.5,102z"/>
		<path class="st5" d="M95.6,72c2.1,3.3,5.1,2,8.1,1.8c-0.2-2.1-1.1-4.1-2.7-5.5l-2.2-1.6C98.2,68.7,99.9,72.2,95.6,72z"/>
		<path class="st5" d="M41.4,33.4l3.7,4.3l1.3-1c0.5-1.2,1.5-0.6,2.3-0.7c0.7,0.2,1.5-0.1,1.8-0.8C47.7,33.6,44.6,33,41.4,33.4z"/>
		<path class="st8" d="M98.7,65l0.1,1.7l2.2,1.6l0.4-2.2l-0.3-0.7l0.7,0.3L104,66c-0.9-1.6,2-4.1-1.3-5.1C102.1,63,100.4,64,98.7,65
			z"/>
		<path class="st2" d="M3.6,2c3.1-0.8,5.5,2.2,8.5,1.8C9.6,2,7.6-2.6,3.6,2z"/>
		<path class="st5" d="M96.5,4l6.9-1C100.6-0.4,98.7,2.5,96.5,4z"/>
		<path class="st5" d="M104.4,5c-1.2,1.6-1.5,3.1,0.8,4C105.6,7.7,105.3,6.2,104.4,5z"/>
		<path class="st9" d="M0.1,68.5c0.4,1,1.6,0.4,2.4,0.3l-1.2-2C0.5,67.1-0.2,67.7,0.1,68.5z"/>
		<path class="st5" d="M52.6,35c1.2,1.4,1.7,0.7,2-0.7C53.8,34.1,53,34.4,52.6,35z"/>
		<path class="st5" d="M56.5,34.1c0.9,1,1.8,0.8,2.7,0C58.5,33.4,57.3,33.4,56.5,34.1z"/>
		<path class="st5" d="M20.5,10.5c0.2,1.2,1,1.6,2.1,1.5C22.4,10.8,21.4,10.7,20.5,10.5z"/>
		<path class="st9" d="M7.5,70.9H5.8l0.1,1.7L7.5,70.9z"/>
		<path class="st9" d="M3.1,8.9c0.4-0.4,0.3-1-0.1-1.4C3,8,2.9,8.5,2.9,9C3,9,3,8.9,3.1,8.9z"/>
		<path class="st1" d="M58.8,57.3c0.4,3.4,2.9,6.7,7.5,6.4c0.9-0.1,1.8-0.5,2,0.7c0.2,1.3-0.8,1.6-1.9,1.7c-1.5,0.2-3.5-0.5-3.9,2
			c4,3.5,3.7,4.8-2,11l2.1,5c3.4-0.1,7.3,2.4,10-1.9c0.2-0.3,1.3-0.1,1.9-0.1c-0.2-2.3-1.6-1.9-3.2-1.5C69.2,81,67.3,79,68,78
			c2.2-3.3,0.6-5.4-1.2-7.8c-0.5-0.6-0.1-2.2,0.6-2.1c4.6,0.6,3.9-2.9,4.6-5.5c0.5-2.2,3.5-0.8,4.5-2.5l-7-9c-1,1.3-2.4,0.9-3.7,1
			C62.3,52.2,58.3,53.1,58.8,57.3z"/>
		<path class="st4" d="M57.5,43.9c4.4,0.2,8.8,0.3,9.9,6.1c0.1,0.5,1.4,0.7,2.1,1l7,9c2-0.1,2-1.5,2-3c-1.9-0.3-3.8-1.3-3.5-3.3
			s2.1-2.8,4.1-2.8c0.8,0,1.6,0,2.5,0c-0.2-0.9,0-2.1-0.6-2.8c-1.6-2-1.2-2.9,1.2-3.6c1.7-0.5,3.4-1.4,3.3-3.6h-3.9
			c-0.2,2.2-1.7,2-3.3,1.8c-3.6-0.4-6.4-3.1-7.1-6.7c-0.7-3.2,1.8-6.5,4.2-8.9c1.6-1.6,2.9-3.1,3.1-5.3c-6,3-9.9,7.5-9.9,14.5
			c0,3.9-1.9,4.7-5.2,4.7C61.2,41,57.5,39.3,57.5,43.9z"/>
		<path class="st4" d="M60.9,93l0.2,2c2.2,0.8,2.1-2.4,4-2.4c0.2,5.7,0.3,6,3.4,8.5c2.5-2,5.2-3.6,2.6-7.8c-1.4-2.2,0.8-5.3,2.1-7.6
			c0.6-1.2,1.4-2.1,1.3-3.5c-0.7,0-1.7-0.2-1.9,0.1c-2.7,4.3-6.6,1.8-10,1.9l3.3,5.6C64.2,91.1,61.7,90.8,60.9,93z"/>
		<path class="st2" d="M54.6,105l0.3,2c0.2,0,0.5,0,0.7,0.1c2.9,1.9,5.8,0.6,8.7,0.1c0-1.4,0.8-2.6,2-3.2l2.1-3
			c-3.2-2.5-3.3-2.7-3.4-8.5c-1.8,0-1.8,3.2-4,2.4c-0.9,2.6-3,4-5.4,5.1C55.2,101.7,58.4,104,54.6,105z"/>
		<path class="st7" d="M64.4,107.2c0.1,0.2,0.1,0.5,0.1,0.7h3c2.6-1.2,4.7-0.1,6.9,1.2s4.5,3.1,7.1,0.8c-3.2-5.3-5.7-6.4-11-5.1
			c-1.4,0.4-3,0.5-4.1-0.8C65.1,104.6,64.3,105.8,64.4,107.2z"/>
		<path class="st1" d="M83.5,109c1.1,0.1,2,0.5,2.1,1.8l1.9,0.5c0.1-0.1,0.1-0.3,0.2-0.4c3.8-3.5,3.9-6.4-1.1-8.8
			C81.9,102.8,84.1,106.4,83.5,109z"/>
		<path class="st7" d="M81.6,40.9h4c0.4-0.7,1.2-1.1,2-1c-0.2-2.7,0.5-5.4-1-7.9C83.2,34,81.2,36.9,81.6,40.9z"/>
		<path class="st1" d="M75,53.8c-0.2,2.1,1.6,3,3.5,3.3c0.2-1.1-0.5-2.6,1.8-2.6c3.1,0,3.1-0.2,1.2-3.4c-0.8,0-1.6,0-2.5,0
			C77,51,75.2,51.7,75,53.8z"/>
		<path class="st4" d="M86.5,32c1.6,2.5,0.9,5.3,1,7.9c4.4-2.1,1.7-5.9,2.1-9l0,0C88.4,31,87.2,30.8,86.5,32z"/>
		<path class="st5" d="M93,70.8c-0.1,0.9,0.5,1.4,1.5,1.2v-1.8C94,70.3,93,70.5,93,70.8z"/>
		<path class="st7" d="M83.5,108.9c0,0.4,0,0.7,0,1.1c0.4,0.7,1.3,1,2.1,0.7C85.5,109.4,84.6,109.1,83.5,108.9z"/>
		<path class="st4" d="M90,30.8L89.5,31l0,0L90,30.8z"/>
		<path class="st0" d="M7.3,34.6c-0.1,1-0.9,1.2-1.7,1.3l-0.3,2c3,2.1,3.8,5.4,4.1,8.7s-0.6,6.6,0.7,9.8c0.4,1-0.3,2.7,1.2,3
			s2.3-1.1,3.1-2.1c2.5-3,2.2-7.1,4-10.3l1-2c-1-1.2-3.3-1.9-2.7-3.8s2.9-1.7,4.7-2.2c0.7-0.1,1.3-0.1,2,0l0,0c0-0.1,0-0.3,0-0.4
			c0.1-1,1-1.7,2-1.6l0,0c-0.2-1.8-1.4-2.2-2.8-2c-5.3,0.7-8-1.8-9.3-6.7c-0.5-1.2-1.1-2.4-1.9-3.4C7.9,24,5.8,25.9,4.4,29l1.2,4
			C6.5,33.1,7.5,33.4,7.3,34.6z"/>
		<path class="st4" d="M21.1,53.8c-0.5,0.9-0.9,2,0.1,2.6s2.1-0.4,2.3-1.2c0.8-2.9,3.4-4.2,5-6.3V42c-0.1-0.1-0.2-0.1-0.3-0.2
			c-0.5-0.5-0.6-1.3-0.1-1.9c0.7-0.9,1.8-1.9,1-3.1c-1.1-1.5-2.4,0.4-3.6,0.1l0,0c0,0.1,0,0.3,0,0.4c-0.1,1-1,1.7-2,1.6l0,0
			c0,2.8-3.1,3.7-4,6l-1,2C21.7,48.4,23,50.5,21.1,53.8z"/>
		<path class="st7" d="M28.5,42.1c0,2.3,0,4.6,0,6.9c3.6-3.4,7.4-4.9,12-2c0.7-1.9-3.1-2.8-1-5c-1.2-3.1-3.5-3-6-2.1
			C31.8,40.5,30.2,41.3,28.5,42.1z"/>
		<path class="st4" d="M27.6,22.9c0,1.9,1.2,3.6,0.3,5.7c-1,2.4,1.1,4.8,2.6,5.8c1.3,0.9,4-0.2,6.1-0.5
			C34.5,29.5,33.6,24.1,27.6,22.9z"/>
		<path class="st2" d="M2.7,21.8c-0.6,2.7-1,5.3,1.7,7.2c1.4-3.1,3.5-5,7.2-4.1c0.8-0.2,1.9-0.1,2.2-0.6c0.6-1-0.6-1.2-1.2-1.7
			C9.5,19.7,6,22.4,2.7,21.8z"/>
		<path class="st5" d="M40.5,47c1.5,1.5,0.7,3.3,0.9,5l-0.2,3.1h0.4c3.4-1.6,2.9-4.6,2.5-7.5c-0.2-1.9-1.5-3.8,0.3-5.5l-0.1-3
			c-2.4-0.4-1.5,2.4-2.9,3c-0.3,0.7-0.6,0.8-1,0.1l-1-0.1C37.4,44.1,41.3,45.1,40.5,47z"/>
		<path class="st10" d="M45.2,37.7L44.4,39l0.1,3l3.1,6.1c0.2-0.2,0.5-0.3,0.8-0.2l0.5-2.9l-0.1-2.1l-0.6-4.9
			c-0.8,0-1.5-0.6-1.7-1.4L45.2,37.7z"/>
		<path class="st7" d="M41.5,42l-1,0.1C40.9,42.8,41.2,42.7,41.5,42z"/>
		<path class="st0" d="M11.7,124.7c6.2,4.6,13,8.3,20.2,10.8c-0.9-2.1-0.1-5-0.6-7.3l-0.1-0.1c-2.2-1.6-5.4-3.1-4.5-6.2
			s0.1-6.2,0.3-9.2l-0.2-0.2c-3.1,0.2-5.2-1-5.4-4.4l-1.7-2.8c-1.5,0-2.8-0.9-3.4-2.2c-2.6-0.4-4.4,1.8-6.9,2
			c-0.3,5.6-0.3,10.9,4.1,15.6C15.5,122.5,13.3,123.5,11.7,124.7z"/>
		<path class="st1" d="M4.7,43.8c-1.2,2.3-1,5.1,0.4,7.3c2.2,3.6-0.3,8,1.2,11.8c0.5,2.5-1,6.2,3.8,6.1c0.2,0.4,0.3,0.8,0.3,1.2
			c0.2,8,0,16-3.5,23.4c-0.6,1.3-0.9,3,0.2,3.7c3.1,1.9,2.2,4.9,2.4,7.6c2.4-0.2,4.3-2.3,6.9-2l5.1-1c1.1-1.4,2-3.1,3.1,0l2.9-0.1
			C25.7,97,26,90.9,21.9,87.5c-2.4-2.1-2.4-3.3-1.4-5.5c-2.4-0.2-4.4,0.2-4.1,3.4c0.1,1.3-0.1,3.2-1.7,3.1c-2.2-0.2-1.5-2.5-1.2-3.6
			c0.9-3.2,0.8-6.5,0.9-9.8c0.1-0.9-0.3-2.2,1-2.5c1-0.3,2.1,0.2,2.5,1.2c1.3,5.2,3.1,3.2,5.3,0.6c1-0.9,2.1-1.7,3.2-2.3l1.1-3
			c-1.7-1.7-0.4-1.8,1-2c3.6,0.3,2.6-5.1,6.1-5c2.4-2.3,5.2-4.1,7-7h-0.3c-0.8-0.2-1.5-0.4-1.6-1.4c-0.1-1.2,0.8-1.5,1.8-1.7
			c-0.2-1.7,0.6-3.6-0.9-5c-4.6-2.9-8.4-1.3-12,2c-1.7,2.1-4.2,3.5-5,6.3c-0.2,0.8-1.3,1.8-2.3,1.2s-0.6-1.8-0.1-2.6
			c1.9-3.3,0.6-5.4-2.6-6.8c-1.8,3.3-1.6,7.3-4,10.3c-0.8,1-1.6,2.5-3.1,2.1s-0.8-2-1.2-3c-1.4-3.2-0.4-6.4-0.7-9.8S8.4,40.1,5.4,38
			C5.4,40,5.5,42,4.7,43.8z M25.7,57.9c0.3-2.4,1.4-3.9,4.1-3.9c1,0,2.5,0.6,2.3,1.2c-0.5,1.8,0.3,4.4-2.6,5c-0.2,2-3.6,1.8-3.2,4.4
			c0.1,0.9-1.7,1-1.7,0.4C24.6,62.7,22.5,59.8,25.7,57.9z"/>
		<polygon class="st11" points="58.5,140 58.5,140 58.5,140 		"/>
		<path class="st11" d="M72.4,136c1.2-0.4,2.4-0.8,3.6-1.2c-0.4-1.5-1.3-2.9-2.4-3.9c2.4-0.9,3.2,1.6,4.8,1.3c0-2.4-1.5-5.2,2.1-6.8
			c0.7-0.3,1.3-1.6,2.3-0.9c0.8,0.6,1,1.8,0.4,2.7c-0.7,1.3-2.7,2.4-0.5,4c2.5-4.4,7.3-7.6,7.5-13.3c0.1-2.2-0.3-4.4-2.6-3.2
			c-6.1,3.1-9.9-2.3-14.6-3.7c-2-0.6-3.8-1.6-5.5-2.9h-3c-3,1.1-5.7,3.3-9.2,1.9c-0.2,0-0.5,0.1-0.7,0.2c-0.7,2.7-4.4,2-5.1,4.7
			c0.2,1.4,0.9,3.5,2,2.8c3-1.9,6.2,0.7,9.5-1.8s9.5,0.5,10.5,4.4c0.5,1.7,1.6,1.9,3,2c1.4,0.1,3.9-0.9,3.7,1.7
			c-0.2,2-2.4,1-3.8,1.2c-0.7,0.1-1.3,0.1-2,0.1c-0.2,1,1.3,1.9,0.2,2.9c-0.1,0.3-0.1,0.8-0.3,0.9c-2.8,2.5-6.8,1.8-10.1,4.6
			c-2.2,1.9-5,2.2-4.1,5.2c4.2-0.3,8.3-1.1,12.4-2.2c-0.2-1.2-0.3-2.4-0.6-3.7C71.2,133.5,72.1,134.6,72.4,136z"/>
		<path class="st7" d="M88.6,128.5l1.5-0.9l-0.3-0.2C89.4,127.7,89,128.1,88.6,128.5z"/>
		<path class="st12" d="M82.6,131.9c-1.1,0.5-2.1,1-3.2,1.5c0.5,0.5,1.3,0.7,2,0.5C82.5,133.6,82.6,132.7,82.6,131.9z"/>
		<path class="st12" d="M79.4,133.4c1.1-0.5,2.1-1,3.2-1.5c0-0.3,0-0.5,0.1-0.8c-2.3-1.6-0.3-2.7,0.5-4c0.6-0.9,0.4-2-0.4-2.7
			c-1-0.7-1.5,0.6-2.3,0.9c-3.6,1.6-2.1,4.3-2.1,6.8C78.7,132.6,79,133,79.4,133.4z"/>
		<path class="st3" d="M47.6,48L47.6,48L47.6,48L47.6,48z"/>
		<path class="st3" d="M34.7,62.1L31.6,69l1.2,1.3c3.9-4.5,9.2-4.5,14-2.9c4.6,1.5,6.3,5.7,4.7,10.6c1.6,1.4,0,5.3,3.9,5l0.4-7.8
			c-0.5-1.2,0.1-2.2,0.7-3.1c-0.1-0.3-0.2-0.6-0.5-0.9c-1.4-0.4-1.5-1.3-1.1-2.5L53.5,66c-1.1-1.4-2.3-2.7-3.6-3.8
			c-3.5-2.4-4.1-5.5-2.6-9.2l0.6-3c-0.2,0-0.4,0-0.5,0c-0.9-0.8-0.9-1.4,0.2-2l-3.1-6c-1.8,1.7-0.6,3.7-0.3,5.5
			c0.4,2.9,0.9,5.9-2.5,7.5C39.9,58,37,59.8,34.7,62.1z"/>
		<path class="st0" d="M54.6,46c-2.9,7.3,2,12.8,4,19c0.7,0.4,1.1,1.2,1,2l3,1c0.3-2.5,2.3-1.8,3.9-2c1.1-0.1,2.1-0.4,1.9-1.7
			c-0.2-1.2-1.2-0.7-2-0.7c-4.5,0.3-7.1-3-7.5-6.4c-0.5-4.1,3.5-5,7-5.2c1.3-0.1,2.7,0.3,3.7-1c-0.7-0.4-2.1-0.6-2.1-1
			c-1.1-5.8-5.5-5.9-9.9-6.1C57,45.2,55.9,45.9,54.6,46z"/>
		<path class="st2" d="M55.4,83c1.6,3.3,2.2,7,1.7,10.7c0.3,0.2,0.6,0.3,0.9,0.3c0.6-1.1,1.7-1.1,2.8-1c0.9-2.2,3.3-1.9,5-3.4
			L62.6,84l-2.1-5c-2.6-1.7,1.1-6-3-7c-0.2,1.2,0.1,2.8-1.7,3.1L55.4,83z"/>
		<path class="st5" d="M47.4,53c-1.5,3.7-0.9,6.8,2.6,9.2c1.3,1.1,2.5,2.4,3.6,3.8c0.5-1.9,1-3.6-1.2-5C49.4,59.2,49.3,55.5,47.4,53
			z"/>
		<path class="st6" d="M56.5,72.1c-0.6,0.9-1.2,1.9-0.7,3.1c1.9-0.3,1.5-1.9,1.7-3.1L56.5,72.1z"/>
		<path class="st6" d="M54.9,68.7c-0.4,1.2-0.3,2.1,1.1,2.5C56.6,70,56.1,69.2,54.9,68.7z"/>
		<path class="st1" d="M58.5,65c-1.5,1.6-0.3,1.8,1,2C59.6,66.2,59.2,65.4,58.5,65z"/>
		<path class="st5" d="M47.7,47.9l-0.2,2c0.2,0,0.4,0,0.5,0c1.6-0.3,1.9-1,0.4-2c-0.3-0.1-0.6,0-0.8,0.2L47.7,47.9z"/>
		<path class="st5" d="M48.8,43l0.1,2.1c0.7-0.1,1.2-0.4,1.2-1.1C50.1,43.2,49.5,43,48.8,43z"/>
		<path class="st3" d="M46.4,36.7c0.2,0.8,0.9,1.4,1.8,1.4l0.5-2.1C47.9,36.1,46.9,35.5,46.4,36.7z"/>
		<path class="st1" d="M5.6,33l0.2,3c0.8-0.2,1.6-0.3,1.7-1.3C7.5,33.4,6.5,33.1,5.6,33z"/>
		<path class="st13" d="M101.8,65.8l-0.7-0.3l0.3,0.7L101.8,65.8z"/>
		<path class="st8" d="M32.4,105.2l2.7,2.7c4.5,0.9,9.2,2.7,13.4,0c2.3-1.5,4.2-1.2,6.4-0.9l-0.3-2c-1.7-2-2.1-3.8,0.9-4.9
			c2.5-1,4.5-2.5,5.5-5.1l-0.2-2c-1.1-0.1-2.1-0.1-2.8,1c0,1-0.9,1.4-1.5,2c-3.6,3.4-8.5,2.6-12.8,3.4c-2.1,0.4-6.8-0.4-6.5-5.2
			c-0.8,0.3-0.8,1.1-0.9,1.8c0.1,1.4,0.1,2.8-1.9,3C32.4,100.5,34.4,103.5,32.4,105.2z"/>
		<path class="st9" d="M35.1,107.9l0.1,2.1l1.3,1l1.2,0.8l1.6,0.5c5.4,1.1,10.2-1.4,15.3-2.3c0.2-0.1,0.5-0.2,0.7-0.2l0.4-2.8
			c-0.2-0.1-0.5-0.1-0.7-0.1c-2.2-0.3-4.1-0.6-6.4,0.9C44.4,110.6,39.6,108.8,35.1,107.9z"/>
		<path class="st3" d="M55.7,107.1l-0.4,2.8c3.5,1.4,6.2-0.8,9.2-1.9c0-0.2,0-0.5-0.1-0.7C61.5,107.7,58.6,109,55.7,107.1z"/>
		<path class="st9" d="M54.6,105c3.8-1,0.5-3.3,0.9-4.9C52.6,101.2,52.9,103,54.6,105z"/>
		<path class="st1" d="M16.9,41.1c-0.6,1.8,1.6,2.5,2.6,3.8c0.9-2.3,3.9-3.1,4-6c-0.7-0.1-1.3,0-2,0C19.8,39.4,17.5,39.3,16.9,41.1z
			"/>
		<path class="st1" d="M25.1,37c-1,0.1-1.7,1-1.6,2c0.1,0,0.3,0,0.4,0c1-0.1,1.7-1,1.6-2C25.4,37,25.3,37,25.1,37z"/>
		<path class="st7" d="M39.7,53.6c0.1,1,0.8,1.2,1.6,1.4c0.1-1,0.1-2.1,0.2-3.1C40.5,52.1,39.6,52.4,39.7,53.6z"/>
		<path class="st8" d="M21.5,103l-1.7,2.2l1.7,2.8c1.6,1.7,4.4,1.9,5.4,4.4l0.2,0.2c2.4,1.3,3.2,3.6,3.4,6.2
			c0.2,3.1,0.6,6.2,0.9,9.3l0.1,0.1h1.9l0.2-2.2c-1.5-1.1-1-2.6-0.8-4c-1-2.6,1.5-5.3-0.3-7.9c-1.1-2.2-2.3-4.1-5.1-4.7
			c-3.2-0.7-4.4-3.1-3.8-6.3L21.5,103z"/>
		<path class="st2" d="M26.8,121.9c-0.9,3.2,2.3,4.6,4.5,6.2c-0.3-3.1-0.6-6.2-0.9-9.3c-0.2-2.6-1-4.8-3.4-6.2
			C26.9,115.7,27.7,118.6,26.8,121.9z"/>
		<path class="st2" d="M35.7,136.7c-1.3-0.3-2.5-0.7-3.8-1.2c0.6,1.3,1.8,2.2,3.2,2.5c0.3,0,0.6,0.1,0.8,0.1
			C36,137.6,35.9,137.1,35.7,136.7z"/>
		<path class="st2" d="M32,135.5c1.3,0.4,2.5,0.8,3.8,1.2c-0.8-2.8-2.7-5.3-2.4-8.4h-1.9C31.9,130.5,31,133.3,32,135.5z"/>
		<path class="st2" d="M21.5,108c0.2,3.4,2.2,4.6,5.4,4.4C26,109.9,23.2,109.6,21.5,108z"/>
		<path class="st2" d="M21.5,102l-5.1,1c0.6,1.3,1.9,2.2,3.4,2.2l1.7-2.2L21.5,102z"/>
		<path class="st5" d="M20.5,81.9c-1,2.2-1.1,3.4,1.4,5.5c4.1,3.5,3.7,9.5,5.5,14.3c2.7-0.3,3.4,2.2,5,3.4c1.9-1.6-0.1-4.6,2.2-6.2
			l-0.1-0.2L33.9,98c-1-1.8,0.1-4.2-1.4-5.9c-2.2,1.3-3.7,0-4.7-1.7c-1.4-2.2-1.9-4.9-1.3-7.5c-0.5-1.6,0.8-2.7,1.3-4
			c0.4-3.6,2.1-6.8,3.8-9.9l3.2-7c-3.4,0-2.4,5.3-6.1,5l-1,2l-1.1,3c2.2,3.7-1.1,5.2-3.1,6.7C22.2,79.7,20.6,80,20.5,81.9z"/>
		<path class="st4" d="M13.7,84.8c-0.3,1.1-1,3.4,1.2,3.6c1.5,0.1,1.8-1.8,1.7-3.1c-0.3-3.2,1.7-3.5,4.1-3.3c0-2,1.7-2.3,2.9-3.3
			c2-1.5,5.3-3,3.1-6.7c-1.1,0.6-2.2,1.4-3.2,2.3c-2.2,2.5-4,4.5-5.3-0.6c-0.4-1-1.5-1.5-2.5-1.2c-1.3,0.3-1,1.6-1,2.5
			C14.5,78.3,14.6,81.6,13.7,84.8z"/>
		<path class="st11" d="M23.5,103c-0.7,3.2,0.5,5.6,3.8,6.3c2.8,0.6,4,2.5,5.1,4.7c1.9-0.6-1.2-4.8,2.8-4v-2.1l-2.7-2.7
			c-1.6-1.2-2.3-3.7-5-3.4l-2.9,0.1L23.5,103z"/>
		<path class="st6" d="M25.7,57.9c0.7,1.4,2.2,2.3,3.8,2.4c2.9-0.5,2.1-3.2,2.6-5c0.2-0.7-1.3-1.2-2.3-1.2
			C27.2,54,26.1,55.6,25.7,57.9z"/>
		<path class="st4" d="M24.6,65.2c0,0.6,1.8,0.5,1.7-0.4c-0.3-2.7,3-2.4,3.2-4.4c-1.6,0-3.1-0.9-3.8-2.4
			C22.5,59.8,24.6,62.7,24.6,65.2z"/>
		<path class="st5" d="M21.6,101.9v1.1l2,0.1l1-1.2C23.5,98.8,22.5,100.5,21.6,101.9z"/>
		<path class="st4" d="M27.6,69l1-2C27.3,67.2,25.9,67.4,27.6,69z"/>
		<circle class="st12" cx="58.5" cy="140" r="0"/>
		<path class="st12" d="M53,139c-3.7,0-7.5-0.3-11.2-1c-0.4,0.5-0.6,1.3-0.3,1.9c2.6,3.7,2.5,8.7,6,12c3,0.1,5.6-0.2,8.2,2.6
			c3.4,3.6,4.6,2.8,6.8-1.7c2-4.1-0.2-7.8-0.4-11.6c-0.1-2-2.4-1.2-3.7-1.4l0,0c0,0.7,0,1.3,0.2,2c0.3,0.9,0.8,1.8,1.1,2.7
			c0.8,2.3,0,3.7-1.2,2.6c-1.8-1.7-1-4-0.9-6.1c0-0.4,0.5-0.8,0.8-1.2l0,0c-0.2-0.4-0.3-0.8-0.5-1.2C56.4,138.9,54.7,139,53,139z"/>
		<path class="st12" d="M41.9,138.1c3.7,0.7,7.4,1,11.2,1c1.7,0,3.3-0.1,5-0.2c-0.9-3.1,1.9-3.3,4.1-5.2c3.3-2.8,7.3-2.1,10.1-4.6
			c0.2-0.2,0.2-0.6,0.3-0.9c-1.4-0.3-3.4-0.5-3.3-2c0.1-1.7,2-0.6,3.1-0.9c0.7,0,1.3,0,2-0.1c1.3-0.2,3.6,0.8,3.8-1.2
			c0.2-2.7-2.2-1.6-3.7-1.7s-2.5-0.3-3-2c-1.1-3.8-7.4-6.8-10.5-4.4c-3.1,2.4-6.5-0.1-9.5,1.8c-1.1,0.7-1.9-1.4-2-2.8
			c-3.4-0.6-7.6,2-10.2-2.4l-1.6-0.5c-0.5,0.1-1.1-0.2-1.2-0.8l-1.3-1c-4-0.8-0.9,3.3-2.8,4c1.8,2.6-0.7,5.3,0.3,7.9
			c1,0.1,2.3-0.2,2.8,0.3c3.4,3.5,4.9,8.2,7.3,12.3C43.6,136,42.5,137,41.9,138.1z"/>
		<path class="st8" d="M39.3,112.3c2.5,4.4,6.7,1.9,10.2,2.4c0.6-2.7,4.4-2,5.1-4.7C49.5,110.9,44.7,113.4,39.3,112.3z"/>
		<path class="st10" d="M72.4,136c-0.7,0.2-1.3,0.4-2,0.6c0.3,1.6,1,3.1,2,4.3C72.3,139.1,72.7,137.4,72.4,136z"/>
		<path class="st10" d="M69.9,132.9c0.2,1.3,0.3,2.5,0.6,3.7c0.7-0.2,1.3-0.4,2-0.6C72.1,134.6,71.2,133.4,69.9,132.9z"/>
		<path class="st3" d="M69.2,126c-0.1,1.5,1.9,1.7,3.3,2c1.1-1-0.3-1.9-0.2-2.9C71.3,125.4,69.3,124.4,69.2,126z"/>
		<path class="st14" d="M71.8,144.9c0-0.1,0.2-0.1,0.3-0.1c0.1,0.1,0.1,0.3,0.1,0.4c0,0.1-0.2,0.1-0.3,0.1
			C71.9,145.1,71.8,145,71.8,144.9z"/>
		<path class="st7" d="M32.5,77c0.8-0.2,1.5-0.4,1.8-1.3s-0.1-2.6,1.8-2.1c0.8,0.3,1.4,1.1,1.3,2c0.1,1.3-0.2,2.3-1.7,2.5
			c-0.8,0.1-1.6,0.1-2.4,0.1c0,1.7,0.9,2.9,1.8,4.1c3.1-0.4,4.7,1.8,6.4,3.8l0,0c0-2.8,1.8-3.2,4-3c2.7-0.9,3.2-4.3,5.9-5.1
			c1.5-5-0.1-9.1-4.8-10.7c-4.8-1.6-10.1-1.6-14,2.9C33.2,72.5,30.2,74.7,32.5,77z M42.6,76c0.1-1.6,0.7-2.8,2.3-2.8
			c2.1,0,1.8,2.5,2.9,3.6c0.4,0.4-0.4,2.1-1.6,1.8C44.7,78.2,42.6,78.2,42.6,76z"/>
		<path class="st8" d="M45.5,86L45.5,86L45.5,86l0.3,0.3L45.5,86z"/>
		<path class="st8" d="M41.5,86L41.5,86l0.9,1.4c4.4,1.9,8.8,3.7,12.6,6.5l0.3-0.2h1.8c0.5-3.7-0.2-7.4-1.7-10.8
			c-3.9,0.4-2.3-3.6-3.9-5c-2.8,0.8-3.3,4.2-5.9,5.1l0,3l0,0l0.2,0.4L45.5,86l0,0H41.5z"/>
		<path class="st10" d="M31.6,69c-1.7,3.2-3.4,6.3-3.8,9.9c1.6,0.2,3.2-0.1,4.6-0.9l0.2-1c-2.3-2.3,0.7-4.5,0.2-6.7L31.6,69z"/>
		<path class="st10" d="M47.4,50l0.2-2C46.5,48.5,46.5,49.2,47.4,50z"/>
		<path class="st7" d="M57.2,93.7h-1.8c0.8,0.5,1.2,1.3,1.2,2.2c0.6-0.5,1.5-0.9,1.5-1.9C57.8,94,57.5,93.9,57.2,93.7z"/>
		<path class="st11" d="M41.9,138c-0.9-0.1-1.8-0.3-2.7-0.5c-0.1,0.9-0.4,1.7-0.6,2.5l0.9,3c2.1-0.1,2.1-1.6,2.1-3.1
			C41.3,139.3,41.4,138.6,41.9,138z"/>
		<path class="st11" d="M39.2,137.5c0.9,0.2,1.8,0.4,2.7,0.5c0.7-1,1.8-2,1-3.4c-2.4-4.1-3.9-8.8-7.3-12.3c-0.5-0.5-1.8-0.2-2.8-0.3
			c-0.2,1.4-0.6,2.9,0.8,4C37.9,127.9,40,132.4,39.2,137.5z"/>
		<path class="st10" d="M39.2,137.5c-1.2-0.3-2.3-0.5-3.4-0.9c0.1,0.5,0.2,1,0.3,1.4c1.5-0.2,1.5,1.6,2.5,1.9
			C38.8,139.2,39.1,138.3,39.2,137.5z"/>
		<path class="st10" d="M35.7,136.6c1.1,0.3,2.3,0.6,3.4,0.9c0.8-5-1.3-9.6-5.7-11.5l-0.2,2.2C33,131.3,35,133.8,35.7,136.6z"/>
		<path class="st6" d="M37.8,93.7c-0.1,0.2-0.3,0.4-0.4,0.6c-0.3,4.8,4.4,5.6,6.5,5.2c4.3-0.8,9.1-0.1,12.8-3.4
			c0-0.9-0.5-1.7-1.2-2.2L55.1,94C49.2,97.1,43.5,98.1,37.8,93.7z"/>
		<path class="st3" d="M32.7,90.8L32.5,92c1.5,1.7,0.4,4.1,1.4,5.9c0.3,0.1,0.6,0.4,0.5,0.7l0.1,0.2c2-0.1,2-1.5,1.9-3
			c-1.3-0.7-1.1-1.9-0.9-3.1L35.2,91L32.7,90.8z"/>
		<path class="st6" d="M35.6,92.9c-0.2,1.2-0.4,2.3,0.9,3.1c0.1-0.7,0.1-1.4,0.9-1.8c0.1-0.2,0.3-0.4,0.4-0.6L35.6,92.9z"/>
		<path class="st8" d="M37.7,111.8l-1.2-0.8C36.6,111.5,37.2,111.9,37.7,111.8z"/>
		<path class="st10" d="M26.4,83c-0.5,2.6,0,5.2,1.4,7.4c1,1.7,2.5,2.9,4.7,1.7l0.2-1.2c0-0.6-0.1-1.3-0.1-1.9
			c-2.3-1-2.1-2.4-0.8-4.1c0-0.3,0-0.6,0-0.9l-1.2-0.1c-1.1,0-2.3,0.2-3-0.9H26.4z"/>
		<path class="st3" d="M27.8,79.1c-0.5,1.3-1.9,2.3-1.3,4h1.1c1.3-0.5,2.7-1.6,3,0.9h1.2h3.4l-0.1-1.8c-0.9-1.2-1.8-2.5-1.8-4.1
			L32.9,78h-0.5C31,78.8,29.4,79.2,27.8,79.1z"/>
		<path class="st8" d="M33.9,98l0.5,0.7C34.5,98.4,34.3,98.1,33.9,98z"/>
		<path class="st11" d="M58.5,139.9c0,0.7,0,1.3,0.2,2c0.3,0.9,0.8,1.8,1.1,2.7c0.8,2.3,0,3.7-1.2,2.6c-1.8-1.7-1-4-0.9-6.1
			C57.7,140.8,58.2,140.4,58.5,139.9L58.5,139.9z"/>
		<path class="st0" d="M42.6,76c0.1,2.3,2.1,2.2,3.6,2.6c1.2,0.3,2-1.4,1.6-1.8c-1.1-1.1-0.8-3.6-2.9-3.6
			C43.3,73.1,42.6,74.4,42.6,76z"/>
		<path class="st9" d="M35.1,82.3c0,0.6,0.1,1.2,0.1,1.8l4.4,4l2.9-0.6L41.5,86C39.9,84,38.3,81.8,35.1,82.3z"/>
		<path class="st0" d="M32.5,77l-0.2,1h0.5l0.5,0.1c0.8,0,1.6,0,2.4-0.1c1.5-0.2,1.8-1.2,1.7-2.5c0-0.8-0.5-1.6-1.3-1.9
			c-1.9-0.5-1.5,1.1-1.8,2.1C34.1,76.6,33.4,76.8,32.5,77z"/>
		<path class="st9" d="M45.5,86L45.5,86L45.5,86z"/>
		<path class="st9" d="M41.5,86h4l0.1-3C43.4,82.9,41.6,83.2,41.5,86z"/>
		<path class="st7" d="M35.2,91l0.4,1.9l2.2,0.7c5.7,4.5,11.4,3.4,17.2,0.3c-3.8-2.9-8.2-4.7-12.6-6.5L39.6,88
			C38.5,89.6,36.8,90.2,35.2,91z"/>
		<path class="st9" d="M45.5,86L45.5,86l0.3,0.3L45.5,86z"/>
		<path class="st8" d="M31.8,84c0,0.3,0,0.6,0,0.9c0.7,1.3,2.4,2.4,0.7,4.1c0,0.6,0.1,1.3,0.1,1.9l2.5,0.1c1.6-0.8,3.3-1.4,4.4-3
			l-4.4-4L31.8,84z"/>
		<path class="st3" d="M31.8,84.9c-1.4,1.6-1.6,3.1,0.7,4.1C34.2,87.3,32.5,86.2,31.8,84.9z"/>
		<path class="st14" d="M27.5,83.1c0.7,1.2,1.9,0.9,3,0.9C30.2,81.4,28.8,82.5,27.5,83.1z"/>
		<path class="st6" d="M66.7,57.3c-0.7,1.4-2.2,2.3-3.8,2.4c-2.9-0.5-2.1-3.2-2.6-5c-0.2-0.7,1.3-1.2,2.3-1.2
			C65.3,53.3,66.4,54.9,66.7,57.3z"/>
	</g>
</g>
</svg>
