<svg xmlns="http://www.w3.org/2000/svg" viewBox="0 0 123.21 139.5"><defs><style>.cls-1{fill:#e3baae;}.cls-2{fill:#e8c0b8;}.cls-3{fill:#d8aa9a;}.cls-4{fill:#c99b8b;}.cls-5{fill:#726164;}.cls-6{fill:#e8c4c2;}.cls-7{fill:#bf8f7a;}.cls-8{fill:#ac8b8b;}.cls-9{fill:#c79982;}.cls-10{fill:#4f3f44;}.cls-11{fill:#d1a491;}.cls-12{fill:#e0b4a3;}.cls-13{fill:#aa797a;}.cls-14{fill:#b9886f;}</style></defs><title>grey</title><g id="Layer_2" data-name="Layer 2"><g id="Layer_1-2" data-name="Layer 1"><path class="cls-1" d="M114.47,47.85c-3.73-1.4-1.05-4.58-1.89-6.78-.57-.42-.62-.8.08-1.12h0q0-.48,0-1l-.12-4-1.85-1c-1,.64-.91,1.66-1,2.65-.37,3-2.08,3-3.46,1s-3.87-3.67-3.64-6.82a4.55,4.55,0,0,0-1.43-3.56c-4.8-3.21-4.08-8.56-5.47-13.08-3.89-1.71-8-1.27-12-1,.49,1.88.88,3.8,1.51,5.64.46,1.35.74,2.63-.55,3.53s-2.73,1.08-3.9-.38L74.74,22,73.63,27.9c7.15-2.68,12.49.6,13.05,8,1.76.22,2.64-1.38,4-2,.21-2.28,3.59-3.1,2.38-6.4-.68-1.86,1.83-1.74,3.22-1.11a3.57,3.57,0,0,1,2.06,3.21c-.33,4.15,0,7.93,4.26,10.76-4.1-.72-7.07-3.54-10.93-2.48l-4.2,5,2.47.19C95,42,99.11,43,101.64,48a.93.93,0,0,1,.37,1.38l.22,3.26,1.33,2.43c1.89-2.38,3.62-2.26,4.43.7s1.92,5.85-1.35,8.85c-1.72,1.58-4.76,5.14-1,8.35-.05-2.23.09-4.4,2-6,2-2.07,2.08,1.27,3.37,1.18C109.56,60.93,111.18,54.25,114.47,47.85Z"/><path class="cls-2" d="M73.63,27.9,70.7,28c-.16,1.8-1.6,2.94-2.9,2.49A5.23,5.23,0,0,1,64.66,26c-2-.13-2-1.54-2-3-8.67.63-6.15-5.4-6-10V11l-3,1-5,8.95c.95,3,0,6,0,8.93l3,2c1.33-.41,3,2.17,4.13-.62.58-1.41,1.52-.19,1.55.43.12,2.78,2.79,5.52.14,8.39-1.09,1.18-1.51,3.37-.22,3.9,1.76.73,3.28-.43,3.53-2.82a4.31,4.31,0,0,1,5.87-3.59c2.11.74,2.23,3.65.34,5.81A12.63,12.63,0,0,0,65.69,46l0,2c4.88,1.29,3.71,3.53.94,6l0,2c2.32.3,4-.39,4.93-2.75.56-1.41,1-3.17,3.08-3.25,1.83-1.87,1.79-6,6-5-2.5-4.62-1.3-7,4.08-7.95a2.09,2.09,0,0,0,1.91-1.09C86.12,28.5,80.78,25.22,73.63,27.9Z"/><path class="cls-2" d="M85.8,112.93c-1.3-3.56-3.57-5.59-7.53-4.26-2.79.93-4.77-.41-6.8-1.89l-3.65.25c-3.83,4.07-7.92,4.18-11.3.32-2.72.49-4.27-2.35-6.81-2.39a3.78,3.78,0,0,0,2.84,3.7c3.54.92,3.77,3.59,4.2,6.46,1.24,8.17,2.32,16.37,4.46,24.37,1-.05,2-.13,3-.25a53,53,0,0,1-2.49-17.55c0-1.25-.51-2.86,1.19-3.45,1.28-.45,2.14.66,3.06,1.33,4.66,3.37,4.66,3.38,5.5-2.38a19.05,19.05,0,0,0,.22-3c0-3.07.7-2.14,3.33-1.82,7,.87,8.63,7,12.44,10.83a8.14,8.14,0,0,1,2.18,5.5q1.8-1.34,3.54-2.82c-.28-2.61-2.43-4.68-3.78-6.7A29.59,29.59,0,0,1,85.8,112.93Z"/><path class="cls-1" d="M51.7,36c-4.5-1.34-5.38-3.15-3-6.13,0-3,.93-6,0-8.93-2.84.4-2.89-1.73-3.35-3.59s-1.06-3.67-1.6-5.51l-1.63-.15c-1.48,2.58,1.54,6.4-2.32,8.32-1.25,3.35,0,7.71-4,10a52.75,52.75,0,0,1-1.52,5.61c-.48,1.24-.8,3.3-2.71,2.79-1.56-.41-.67-2.26-.94-3.45l-6.3,1.18c6.09,3.34,7.55,8.75,7.36,15.26-.3,10.3,5.37,19,8.06,28.57a19.54,19.54,0,0,0,9-12l0-12-2,4a17.17,17.17,0,0,1-1.14,3.22c-2.46,4.16-4.43,4.3-6.41-.09C37.71,60,34.52,57.78,34.66,54c-1.42-1.05-.82-2.6-1-4-.65-2.22-2.6-5,2-5l-.08-2.91c-.69,0-1.22-.12-1.2-1,3.31-5.52,6.35-5.8,11.22-1.06a3,3,0,0,1,1.86,4l1.14,1,1.67.07c1.27-.47,1.7-2.27,3.35-2.15C52.58,40.79,51.29,38.66,51.7,36Z"/><path class="cls-3" d="M113.48,91.29a6.13,6.13,0,0,0-1.8,3.85c.46,2,2.42,3.76.95,6.06v.08q1.67-3,3.18-6.27A6.67,6.67,0,0,1,113.48,91.29Z"/><path class="cls-4" d="M113.15,87.81a3.49,3.49,0,0,1,0-3.68A6.15,6.15,0,0,0,113,80c-1.57-.76-1.69-1.77-.5-3l-.17-2.13c-.82-.79-.67-1.82-.72-2.8l-.25-.08c-2.8-.2-2.33,1.46-2.47,3.48-.32,4.36-.5,9.16-6.21,10.47-3.75,2.65-6.19,6.5-9,10,.18,5.49,2.11,10.67,3,16l0,.07a3.07,3.07,0,0,0,1-3.11c-.4-3.77,1.64-5,5-5l5-.06q0-.49.06-1c-2-4.32,0-6.67,4-8a6.13,6.13,0,0,1,1.75-3.87Z"/><path class="cls-4" d="M29.77,3.55C28.2-.79,24.56,1.72,21.85,1.16,15.34,3.23,10.45,7.4,6.56,12.89c4.43-2.11,5.34,1,6.22,4.18,4.38-1.43,7.41-5.78,12.45-5.79.49,0,1-.06,1.47-.1l4.09-1.53C30.81,7.56,29.28,5.73,29.77,3.55Z"/><path class="cls-2" d="M107.48,24.18c-1.44-2.72-.07-3.22,2.21-3.23,2.27-6.44-4-4.16-6.2-6.11-2.81,2-5.3.36-7.83-.7,1.39,4.52.67,9.88,5.47,13.08a4.55,4.55,0,0,1,1.43,3.56c-.23,3.15,2.2,4.75,3.64,6.82s3.09,2,3.46-1c.12-1,.07-2,1-2.65C110.89,30.29,109.1,27.24,107.48,24.18Z"/><path class="cls-3" d="M83.64,13.14c-1.09-.23-2.36.07-3.18-1a6.73,6.73,0,0,1-.77-.15l-3-.12c-1.37,1.57-2.71,1.65-4-.09l-1.8-.05L56.7,13c-.18,4.63-2.7,10.67,6,10l2,0c-.84-2.6-1.52-5.35,1.08-7.25s5.21-.48,7.42.89A6.24,6.24,0,0,0,77.26,18c3.13-.35,3.66,1.47,3.43,4,1.17,1.46,2.6,1.28,3.9.38s1-2.18.55-3.53C84.52,16.94,84.13,15,83.64,13.14Z"/><path class="cls-5" d="M65.29,101.88c1.54-1.32,2.89-2.24.87-4.12-1.58-.42-2.31,3.32-4.42.78s-4.18-5.2-.95-8.42c-2.46,0-5-.72-7.19,1.09.11,3.29.58,6.83-4.49,6.56-1.28,3.73,2.62,2.83,4.12,4.06-1,1.7-3.11.75-3.73,2.34a6.93,6.93,0,0,0,.23.8c2.54,0,4.09,2.88,6.81,2.4l7-.48,1.15-.75h2l-.21-2C65,103.94,62.87,103.94,65.29,101.88Z"/><path class="cls-2" d="M32.17,18.67c1.59-1.72-.38-3.75-.43-5.66l0-1-1-2.32-4.09,1.53-.08,1.62c.22.24.58.45.64.72,1.08,4.9-1.25,9.23-2.4,13.75-.69,2.7-2.3,2.6-4,.69-2.61,2.61-3,5.27-.17,8l3.66.17,6.3-1.18,1.05-.13.87-.85L33,30.05C27.89,26.59,28.28,22.88,32.17,18.67Z"/><path class="cls-6" d="M48.73,68a19.53,19.53,0,0,1-9,12c.18,2.52-1,4.75-1.47,7.12-.87,4.24-.6,8.16,4.34,10,1.37-1.68-.67-2.5-1-3.74-.75-2.82-.13-4.41,3.06-4.3a.78.78,0,0,0,.13-.86c-1.56-2.94-1-4.8,2.58-5.19q.19-.45.39-.89c-1.29-3.33,2.3-4.45,3.1-6.83C50,70,55.45,68.07,56.69,64,52.74,62.74,52.05,68,48.73,68Z"/><path class="cls-2" d="M121.57,18.94h-.95c0,2-1.75,2.89-3,3.51-5.89,2.84-5.2,7.52-3.91,12.48,1.08,1.18,1.94,2.81,3.28,3.45,2.33,1.11,2.29,2.7,1.83,4.67,2.89-.76,4.3-1.8,4.4-5.6C123.38,31.14,119.44,25.3,121.57,18.94Z"/><path class="cls-3" d="M115.59,11.36c-9.35-2.64-9.35-2.64-12.1,3.48,2.15,2,8.47-.32,6.2,6.11,3.93,2.39,6.07,0,8-3C114.58,16.54,115.21,13.91,115.59,11.36Z"/><path class="cls-7" d="M6.56,12.89C2.65,15.06,1.71,19,0,23.62c3.84-2.84,6.7-1,9.62-.09.63-2.07-1.49-5.65,3.06-5.57q.07-.45.1-.9C11.91,13.89,11,10.77,6.56,12.89Z"/><path class="cls-8" d="M111.09,70c-2.41.38-2.14-2.23-3.43-3.09-1.88,1.6-2,3.77-2,6-.1,1.4.44,2.94-.91,4.07-.24,1.35.39,2.94-1.08,4l-1,5c5.71-1.31,5.89-6.1,6.21-10.47.15-2-.32-3.67,2.47-3.48Z"/><path class="cls-6" d="M21.85,1.16c2.71.56,6.35-1.95,7.92,2.39,3.7.17,6,2.54,8.06,5.23l3.91,1.15C39.37,2.1,29.57-2.22,21.85,1.16Z"/><path class="cls-6" d="M43.73,11.88c.54,1.84,1.15,3.65,1.6,5.51s.51,4,3.35,3.59l5-8.95A16.35,16.35,0,0,1,43.73,11.88Z"/><path class="cls-3" d="M16.51,23.06l-2.92,0L13,24.78c1.43,2.73,4.24,4.67,3.92,8.44-.11,1.24.9,4.12,3.81,2.73-2.83-2.72-2.44-5.38.17-8C21.12,24.81,18,24.7,16.51,23.06Z"/><path class="cls-1" d="M118,11a11.82,11.82,0,0,1-2.44.34c-.38,2.55-1,5.18,2.12,6.61,1.07,0,2.23-.19,2.92,1h.95c.24-1.13.5-2.25.7-3.39C122.88,12.17,123,9.27,118,11Z"/><path class="cls-9" d="M117,38.38c-1.34-.64-2.2-2.27-3.28-3.45l-1.15.06q.06,2,.12,4c.7.33.73.64,0,1h0q0,.56-.08,1.12c.84,2.2-1.83,5.39,1.89,6.78.24-1.46,1.69-1.77,2.53-2.67-.3-1.46.28-2.18,1.79-2.11l0,0C119.26,41.08,119.31,39.49,117,38.38Z"/><path class="cls-1" d="M44.69,89c-3.2-.11-3.81,1.48-3.06,4.3.33,1.24,2.36,2.06,1,3.74.16,1.92,1.45,3,2.92,4a8.25,8.25,0,0,1,1.36-5.27C45.47,93.71,45.48,91.22,44.69,89Z"/><path class="cls-6" d="M56.7,11q0,1,0,2l14.18-1.26C66.3,8.56,61.5,9.77,56.7,11Z"/><path class="cls-8" d="M49.1,97.77l-2.2-2A8.25,8.25,0,0,0,45.55,101c1.1,1.31,1.64,3.33,3.93,3.16.62-1.59,2.77-.63,3.73-2.34C51.72,100.61,47.82,101.5,49.1,97.77Z"/><path class="cls-4" d="M41.74,9.93,37.84,8.78l-.11,2.14c2.7.62,3.24,2.73,2.77,4.9-.39,1.79-1.84.39-2.83.28.13,1.63-.48,3.65,2.13,3.95,3.86-1.91.84-5.74,2.31-8.32Z"/><path class="cls-4" d="M9.62,23.52l1.13.34,1.06-1L12.68,18C8.13,17.87,10.25,21.45,9.62,23.52Z"/><path class="cls-4" d="M111,68.13c-1.29.09-1.39-3.25-3.37-1.18,1.3.86,1,3.47,3.43,3.09C111.07,69.41,111,68.77,111,68.13Z"/><path class="cls-6" d="M72.69,11.76c1.3,1.74,2.63,1.66,4,.09A2.72,2.72,0,0,0,72.69,11.76Z"/><path class="cls-3" d="M112.5,77c-1.18,1.22-1.06,2.23.5,3A2.11,2.11,0,0,0,112.5,77Z"/><path class="cls-2" d="M117,45.18a2.1,2.1,0,0,0,1.79-2.11C117.28,43,116.69,43.72,117,45.18Z"/><path class="cls-3" d="M113.14,84.14a3.49,3.49,0,0,0,0,3.68A4.57,4.57,0,0,0,113.14,84.14Z"/><path class="cls-7" d="M10.75,23.86l2.21.92.64-1.7-1.79-.21Z"/><path class="cls-3" d="M111.61,72.11c.05,1-.09,2,.72,2.8C112.59,73.84,112.71,72.82,111.61,72.11Z"/><path class="cls-6" d="M79.69,12a6.73,6.73,0,0,0,.77.15C80.34,11.37,80.06,11.43,79.69,12Z"/><path class="cls-3" d="M103.72,114.83a2.67,2.67,0,0,1-2-2.9q0-1.48,0-3c-1.57-1.53-.35-1.8.93-2q0-1.47,0-2.93c-3.36-.05-5.39,1.18-5,5a3.07,3.07,0,0,1-1,3.12c-.37,3.26.37,6.4,1.11,9.55A82.32,82.32,0,0,0,103.72,114.83Z"/><path class="cls-3" d="M108,55.76c-.81-3-2.54-3.08-4.43-.7-1,1.64-2,3.24-4.37,2.54a.59.59,0,0,0-.56.22c-1.87,4.1-5.58,2.91-8.82,3.07-3.89,5-4.4-.64-6.27-2H81.92A31,31,0,0,0,78.73,67c1.54-.17,1.93,1.39,3,2a6.31,6.31,0,0,1,3.88-1,5,5,0,0,1,3.85-2c2.26,0,5-1.07,6.66.66S94.33,70,94.69,72s1.35,3.86,1,6c3.14.76,5.81-3,9.09-.94,1.34-1.12.8-2.67.91-4.07-3.81-3.21-.76-6.77,1-8.35C109.91,61.6,108.81,58.76,108,55.76Z"/><path class="cls-10" d="M102,49.36,101.64,48C99.11,43,95,42,90,43.19l-2.28,2.75c2.56.79,3.31,4.42,2.9,5-1.65,2.21-4,1-6-.17-2,3.44,1.07,4.34,3,5.46,3.43,2,7.29,1.87,11.12,1.62a.59.59,0,0,1,.56-.22l3-5Q102.12,51,102,49.36Z"/><path class="cls-11" d="M77.26,18a6.24,6.24,0,0,1-4.08-1.33c-2.21-1.37-4.88-2.75-7.42-.89S63.84,20.37,64.68,23h0c2.05.07,2,1.53,2,3,.72,1.17,1.9,1,3,1,1.6-1.74,2.34-4.36,5.05-5l5.95-.09C80.92,19.42,80.39,17.6,77.26,18Z"/><path class="cls-8" d="M87.52,56.2c-1.93-1.12-5-2-3-5.46a10.35,10.35,0,0,1,3.15-4.8L90,43.19,87.48,43l-1.62,0L83.68,46c.16,2.35-3.35,2.57-2.94,5.07a5.61,5.61,0,0,1,1,3.91l0,2.08q.07.94.15,1.88h1.63c2.42-.38,4.23,1.15,6.27,2,3.24-.16,7,1,8.82-3.07C94.81,58.08,90.94,58.18,87.52,56.2Z"/><path class="cls-12" d="M98.36,29.68a3.57,3.57,0,0,0-2.06-3.21c-1.38-.62-3.9-.75-3.22,1.11,1.21,3.3-2.17,4.12-2.38,6.4,3.47.55.47,2.7,1,4,3.86-1.06,6.84,1.76,10.93,2.48C98.32,37.61,98,33.83,98.36,29.68Z"/><path class="cls-11" d="M117.7,18c-1.94,3-4.09,5.37-8,3-2.29,0-3.66.51-2.21,3.23,1.62,3.06,3.41,6.1,3.22,9.78l1.85,1,1.15-.06c-1.29-5-2-9.64,3.91-12.48,1.27-.61,3-1.46,3-3.51C119.93,17.78,118.78,18,117.7,18Z"/><path class="cls-11" d="M90.7,34c-1.38.58-2.26,2.17-4,2A2.1,2.1,0,0,1,84.77,37L82.71,41c1.54-.06,2.89.17,3.16,2.07l1.62,0,4.2-5C91.17,36.68,94.17,34.53,90.7,34Z"/><path class="cls-11" d="M82.7,41h0Z"/><path class="cls-3" d="M69.69,27l1,1,2.92-.09L74.74,22C72,22.63,71.29,25.25,69.69,27Z"/><path class="cls-8" d="M102.24,52.63l-3,5c2.35.7,3.37-.9,4.37-2.54Z"/><path class="cls-11" d="M112.67,39q0,.48,0,1C113.39,39.62,113.37,39.31,112.67,39Z"/><path class="cls-11" d="M112.57,41.06q0-.56.08-1.12C112,40.27,112,40.65,112.57,41.06Z"/><path class="cls-8" d="M101.64,48l.37,1.38A.93.93,0,0,0,101.64,48Z"/><path class="cls-1" d="M73.5,65c2.5-2,2.83,2.88,5.2,2l0,0a31.12,31.12,0,0,1,3.19-8.08Q81.84,58,81.77,57c-1.3-.24-3.05-.47-2.53-2.2.39-1.31,1.66.07,2.55.12a5.61,5.61,0,0,0-1-3.91c-2.38-.63-4,.77-5.34,2.41-1.06-1.18-.57-2.37-.7-3.47-2.07.09-2.52,1.84-3.08,3.25C70.69,55.57,69,56.26,66.7,56a84.87,84.87,0,0,0-3.63,8.49c-1.14,3.65.26,6.36,4.06,7.49,1.16.34,3-.45,3.28,1.33.36,2-2.34,1.42-2.9,2.81l.12,2c.91.37,3.84-1.27,1.9,1.92.44,3.53,3.85,6.11,3.17,10,2.66-.47,3.78,4.54,7,2,1-1.93-2.48-5.25,1.94-6.07l-1-1c-.87-.09-2.07.33-2.44-.74s.76-1.05,1.44-1.27a2,2,0,0,0-1-2c-1.37-4-5.69-6-6.83-10A5.54,5.54,0,0,1,73.5,65Z"/><path class="cls-12" d="M66.72,37.64a4.31,4.31,0,0,0-5.87,3.59c-.25,2.39-1.77,3.55-3.53,2.82-1.29-.53-.87-2.73.22-3.9,2.66-2.88,0-5.61-.14-8.39,0-.62-1-1.85-1.55-.43-1.15,2.79-2.81.22-4.13.62l0,4.09c-.41,2.62.88,4.75,2,6.93,1.38,2.81,2.28,6,5.69,7.19,1.91.69,1.1,2.47,1.34,3.83a1.9,1.9,0,0,0,1.83-2.73c-1.11-3.16.62-4.4,3.14-5.28a12.64,12.64,0,0,1,1.36-2.52C68.94,41.29,68.83,38.38,66.72,37.64Z"/><path class="cls-3" d="M67.13,71.94c-3.81-1.13-5.2-3.83-4.06-7.49A84.88,84.88,0,0,1,66.7,56l0-2c-1.75-1.78-.66-4-.94-6q0-1,0-2c-2.52.88-4.26,2.12-3.14,5.28A1.9,1.9,0,0,1,60.72,54h0c0,1.09.16,2.26-1,3,.64,2.43-2.65,3.55-2,6,1.36.17,2.29.81,1.21,2.13A6.21,6.21,0,0,0,57.8,70c4,.75,5.59,5.46,9.71,6.06.56-1.39,3.26-.78,2.9-2.81C70.09,71.49,68.3,72.28,67.13,71.94Z"/><path class="cls-6" d="M80.69,45c-4.2-1-4.16,3.12-6,5,.13,1.1-.36,2.29.7,3.47,1.39-1.64,3-3,5.34-2.41-.41-2.5,3.09-2.72,2.94-5.07C82.57,46,81.42,46.12,80.69,45Z"/><path class="cls-1" d="M82.47,41.39,82.7,41h0Z"/><path class="cls-1" d="M82.71,41h0l-.23.42.22-.43h0L84.77,37c-5.39,1-6.58,3.33-4.08,7.95.73,1.15,1.88,1,3,1L85.87,43C85.6,41.13,84.25,40.9,82.71,41Z"/><path class="cls-4" d="M51.7,36l0-4.09-3-2C46.32,32.89,47.2,34.7,51.7,36Z"/><path class="cls-1" d="M66.69,26h-2l0,0a5.23,5.23,0,0,0,3.13,4.49c1.31.45,2.75-.69,2.9-2.49l-1-1C68.59,27,67.41,27.14,66.69,26Z"/><path class="cls-12" d="M65.71,47.94c.28,2-.81,4.24.94,6C69.42,51.47,70.59,49.23,65.71,47.94Z"/><path class="cls-1" d="M64.68,23l-2,0c0,1.45,0,2.86,2,3l0,0,0-3Z"/><path class="cls-6" d="M75,112.4c-2.63-.33-3.37-1.25-3.33,1.82a19.05,19.05,0,0,1-.22,3c-.83,5.76-.84,5.75-5.5,2.38-.92-.67-1.78-1.77-3.06-1.33-1.7.59-1.15,2.2-1.19,3.45a53,53,0,0,0,2.49,17.55,52.8,52.8,0,0,0,25.43-10.52,8.14,8.14,0,0,0-2.18-5.5C83.64,119.44,82,113.26,75,112.4Z"/><path class="cls-1" d="M96.65,112.06l0-.07-14-8.91a9,9,0,0,1-5.92-.11l-.1,1-1,.89a7,7,0,0,0-4.21,1.91c2,1.48,4,2.82,6.8,1.88,4-1.33,6.24.7,7.53,4.26a29.59,29.59,0,0,0,3.58,6.27c1.35,2,3.5,4.09,3.78,6.7q2.36-2,4.6-4.29C97,118.47,96.28,115.32,96.65,112.06Z"/><path class="cls-13" d="M71.77,102.91c-1.58,1.15-3.44,1-5.24,1.19q.1,1,.21,2l1.07.91,3.65-.25a7,7,0,0,1,4.21-1.91l1-.89.1-1q-.09-.43-.14-.86C74.87,101.67,73,100.51,71.77,102.91Z"/><path class="cls-8" d="M64.72,106.13l-1.15.75-7,.48c3.38,3.86,7.47,3.74,11.3-.32l-1.07-.91Z"/><path class="cls-2" d="M59.39,50.16C56,48.92,55.07,45.77,53.69,43c-1.66-.12-2.08,1.67-3.35,2.15L50.47,47c1.5.75,3.37,1.56,2.71,3.54S50.41,51.87,48.8,52l-.22,1,.11,3q0,6,0,12c3.32,0,4-5.25,8-4l1-1c-.66-2.44,2.62-3.56,2-6-1.66-1.66-1.16-2.59,1-3h0C60.49,52.63,61.29,50.85,59.39,50.16Z"/><path class="cls-10" d="M47.53,44c-2.82-.29-1.47-2.54-1.86-4-4.88-4.74-7.92-4.46-11.22,1.06l1.2,1L35.73,45c3.23,2.67-1,3.42-1.34,5.18,3.21,3.32,6.74,3.22,11.49-.29.91-.67,1.87-1.27,2.81-1.9l0-2.92Z"/><path class="cls-11" d="M37.66,16.09a2.06,2.06,0,0,1-2-2.1l-2.89-1.14-1,.15c0,1.91,2,3.94.43,5.66-3.89,4.21-4.28,7.92.79,11.39L35.81,30c4-2.24,2.73-6.61,4-10C37.18,19.75,37.8,17.72,37.66,16.09Z"/><path class="cls-11" d="M40.61,55.91,34.66,54c-.14,3.81,3,6,4.45,9.14,2,4.39,4,4.25,6.41.09A17.14,17.14,0,0,0,46.66,60C43.8,59.88,40.7,60.13,40.61,55.91Z"/><path class="cls-8" d="M48.69,48c-.94.63-1.9,1.23-2.81,1.9-4.75,3.51-8.28,3.61-11.49.29a3.51,3.51,0,0,0-.71-.15c.16,1.36-.44,2.91,1,4l5.95,1.94c2.66-1,5-2.74,8-3l.22-1,0-2.37Z"/><path class="cls-3" d="M40.61,55.91c.08,4.22,3.19,4,6,4.08l2-4q-.06-1.51-.11-3C45.64,53.17,43.27,54.93,40.61,55.91Z"/><path class="cls-9" d="M32.57,34l-.87.85-1.05.12c.26,1.19-.62,3,.94,3.45,1.91.51,2.23-1.55,2.71-2.79A52.41,52.41,0,0,0,35.81,30L33,30.05Z"/><path class="cls-5" d="M35.73,45c-4.65.06-2.7,2.81-2,5a3.51,3.51,0,0,1,.71.15C34.7,48.4,39,47.65,35.73,45Z"/><path class="cls-5" d="M48.67,45l0,2.92.06,1.63L50.47,47q-.07-.93-.13-1.86Z"/><path class="cls-5" d="M45.67,40c.39,1.43-1,3.67,1.86,4A3,3,0,0,0,45.67,40Z"/><path class="cls-5" d="M35.65,42.07l-1.2-1C34.43,41.95,35,42.11,35.65,42.07Z"/><path class="cls-7" d="M107.65,103.94l-5,.05q0,1.47,0,2.93a2,2,0,0,1-.93,2q0,1.48,0,3c1.71-.13,2.7.42,2.92,1.7q1.56-2,3-4.24C107.62,107.51,107.84,105.7,107.65,103.94Zm-2.73,6.1.13-.34c.1,0,.25,0,.3,0a.93.93,0,0,1,.08.36Z"/><path class="cls-14" d="M107.68,109.39a12.09,12.09,0,0,0,.59,3.5c4.35-4.88,4.35-4.88,4.52-10l0-1.79Q110.36,105.43,107.68,109.39Z"/><path class="cls-14" d="M112.74,101c-2.11-.42-3.46,1.06-5,2q0,.49-.06,1c.18,1.76,0,3.57,0,5.46q2.68-4,5.06-8.33Z"/><path class="cls-7" d="M111.72,94.93c-4,1.37-6,3.72-4,8,1.57-.93,2.92-2.41,5-2C114.19,98.66,112.2,96.92,111.72,94.93Z"/><path class="cls-3" d="M91.72,96c0,3.39-1.67,5.11-5.09,5-1.74,0-3.23.3-4,2.1L96.61,112c-.85-5.37-2.78-10.54-3-16Z"/><path class="cls-12" d="M100.25,82.8c-2.71,5.06-10.53,6-10.53,13.14l2,0h1.93c2.84-3.48,5.28-7.32,9-10l1-5C101.27,79,100.54,82.27,100.25,82.8Z"/><path class="cls-1" d="M12.78,17.06q0,.45-.1.9l-.88,4.91,1.79.21,2.92,0c2-4.79,6.06-7.52,10.11-10.26l.08-1.63c-.49,0-1,.1-1.47.1C20.19,11.28,17.16,15.63,12.78,17.06Z"/><path class="cls-7" d="M29.77,3.55c-.49,2.17,1,4,1,6.09l1,2.32,1,.89L35.64,14a3.18,3.18,0,0,0,2.08-3.07q.06-1.07.11-2.14C35.76,6.09,33.48,3.73,29.77,3.55Z"/><path class="cls-8" d="M72.71,90c.67-3.88-2.73-6.46-3.17-10a1.8,1.8,0,0,1-1.9-1.92q-.06-1-.12-2c-4.12-.61-5.68-5.32-9.71-6.06l-.05,0c-.17,3.22-1.36,5.18-5,4L50.9,75.22c-.8,2.38-4.39,3.5-3.1,6.83l2.58-.1c.16-.29.23-.7.48-.85,6-3.75,17.07.89,18.81,7.88.37,3.54-1.2,6.31-3.5,8.78,2,1.88.67,2.8-.87,4.12-2.42,2.06-.24,2.06,1.24,2.21,1.8-.17,3.67,0,5.25-1.19C70.72,98.51,74.32,94.44,72.71,90Z"/><path class="cls-10" d="M62.69,89l-1.9,1.17c-3.23,3.21-1.27,5.74.95,8.42s2.84-1.19,4.42-.78c2.31-2.47,3.87-5.24,3.5-8.78A9.64,9.64,0,0,0,62.69,89Z"/><path class="cls-10" d="M50.55,88l-3.87-2.21a2.87,2.87,0,0,1-1.85,2.3.77.77,0,0,1-.13.86c.79,2.23.78,4.73,2.21,6.75l2.2,2c5.08.26,4.6-3.28,4.49-6.56C52.11,90.61,51.47,89.18,50.55,88Z"/><path class="cls-8" d="M56.66,86c-1.63,1.9-5.29-2.35-6.12,2,.92,1.15,1.56,2.57,3,3.17,2.18-1.8,4.74-1.12,7.19-1.09L62.69,89C61.75,85.79,59,86.28,56.66,86Z"/><path class="cls-13" d="M64.72,106.13l-1.15.75Z"/><path class="cls-6" d="M26.62,12.8c-4.06,2.75-8.13,5.47-10.11,10.26C18,24.7,21.12,24.81,20.85,28c1.71,1.91,3.33,2,4-.69,1.15-4.51,3.48-8.85,2.4-13.75C27.21,13.25,26.84,13,26.62,12.8Z"/><path class="cls-1" d="M32.57,34l-.87.85Z"/><path class="cls-4" d="M31.75,13l1-.15-1-.89Q31.76,12.48,31.75,13Z"/><path class="cls-1" d="M57.72,63l-1,1C55.45,68.07,50,70,50.9,75.22l1.81-1.13c.6-2.68,2.66-3.56,5-4l.05,0a6.21,6.21,0,0,1,1.14-4.93C60,63.76,59.09,63.13,57.72,63Z"/><path class="cls-13" d="M47.8,82.05q-.2.44-.39.89l-.73,2.88L50.55,88c.83-4.36,4.48-.11,6.12-2L50.38,82Z"/><path class="cls-1" d="M44.82,88.13a2.87,2.87,0,0,0,1.85-2.3l.73-2.88C43.84,83.32,43.26,85.19,44.82,88.13Z"/><path class="cls-11" d="M104.78,77c-3.28-2.06-5.95,1.7-9.09.94-.84,5.61-5,9.43-7.76,14-1.25,2.08-.41,2.85.76,4l1,0c0-7.11,7.82-8.08,10.53-13.14.29-.54,1-3.83,3.45-1.83C105.18,80,104.55,78.37,104.78,77Z"/><path class="cls-14" d="M37.73,10.92A3.18,3.18,0,0,1,35.64,14a2.06,2.06,0,0,0,2,2.1c1,.11,2.44,1.51,2.83-.28C41,13.65,40.43,11.54,37.73,10.92Z"/><path class="cls-4" d="M103.72,114.83a4.69,4.69,0,0,0,.93.17,4.34,4.34,0,0,0,0-1.37Z"/><path class="cls-4" d="M101.73,111.93a2.67,2.67,0,0,0,2,2.9l.93-1.2C104.42,112.35,103.44,111.8,101.73,111.93Z"/><path class="cls-4" d="M102.65,106.93c-1.28.25-2.5.52-.93,2A2,2,0,0,0,102.65,106.93Z"/><path class="cls-12" d="M85.57,68a6.31,6.31,0,0,0-3.89,1c-.08,1.65-1.39,3.27.27,5a3.07,3.07,0,0,1,.33,4c-1.42,1.6-2.11-1.52-3.59-1q0,2,0,4a2,2,0,0,1,1,2,2.05,2.05,0,0,1,1,2l1,1h4c0,1.72-1.76.56-2,1.8l4.11.67c-3.53.75-4.3,3.93-7,4.58l0,2c2.57,1,5,3,8,1.07-1.17-1.16-2-1.93-.76-4,2.74-4.56,6.92-8.37,7.76-14,.35-2.1-.67-4-1-6C91.35,71.36,86.56,74,85.57,68Z"/><path class="cls-9" d="M96.08,66.7C94.42,65,91.68,66,89.43,66a5,5,0,0,0-3.85,2c1,6,5.78,3.36,9.12,4C94.33,70,97.84,68.54,96.08,66.7Z"/><path class="cls-11" d="M81.69,69c-1-.59-1.42-2.15-3-2l0,0c-1.9,3.31.13,6.61,0,9.92,1.48-.49,2.17,2.63,3.59,1a3.07,3.07,0,0,0-.33-4C80.29,72.24,81.61,70.62,81.69,69Z"/><path class="cls-1" d="M83.55,58.9c1.87,1.35,2.38,7,6.27,2C87.78,60.05,86,58.51,83.55,58.9Z"/><path class="cls-5" d="M87.67,45.94a10.35,10.35,0,0,0-3.15,4.8c2,1.18,4.4,2.38,6,.17C91,50.36,90.24,46.73,87.67,45.94Z"/><path class="cls-3" d="M64.69,23l0,3h2C66.7,24.51,66.74,23,64.69,23Z"/><path class="cls-6" d="M79.24,54.82c-.52,1.73,1.23,2,2.53,2.2q0-1,0-2.08C80.9,54.89,79.63,53.51,79.24,54.82Z"/><path class="cls-3" d="M79.93,97.37c-1.84-.84-1.71-1.13.8-2.48q0-1,0-2l-1-1c-3.25,2.57-4.37-2.43-7-2,1.61,4.44-2,8.51-.93,12.91,1.25-2.4,3.09-1.24,4.81-.8,1.7,0,2.36-1.65,3.58-2.42S81.81,98.23,79.93,97.37Z"/><path class="cls-3" d="M73.5,65a5.54,5.54,0,0,0-1.64,5.91C73,75,77.32,77,78.69,81q0-2,0-4c.13-3.31-1.9-6.61,0-9.92C76.34,67.88,76,63,73.5,65Z"/><path class="cls-11" d="M85.63,85.89h-4c-4.42.82-1,4.15-1.94,6.07l1,1c2.69-.65,3.46-3.83,7-4.58l-4.11-.67C83.87,86.45,85.65,87.62,85.63,85.89Z"/><path class="cls-3" d="M67.63,78.08A1.8,1.8,0,0,0,69.53,80C71.47,76.82,68.54,78.46,67.63,78.08Z"/><path class="cls-3" d="M79.68,82.93c-.68.22-1.83.17-1.44,1.27s1.57.65,2.44.74A2.05,2.05,0,0,0,79.68,82.93Z"/><path class="cls-12" d="M59.71,57c1.16-.71,1-1.88,1-3C58.55,54.37,58.05,55.31,59.71,57Z"/><path class="cls-11" d="M82.47,41.39,82.7,41h0Z"/><path class="cls-4" d="M88.69,96c-3,1.91-5.4-.07-8-1.07-2.5,1.36-2.63,1.65-.8,2.48s1.41,1.57.24,2.31-1.88,2.37-3.58,2.42q.06.43.14.86a9,9,0,0,0,5.92.11c.75-1.8,2.24-2.15,4-2.1,3.42.1,5.09-1.62,5.09-5l-2,0Z"/><path class="cls-4" d="M75.68,104.87l1-.89Z"/><path class="cls-1" d="M50.47,47,48.76,49.6q0,1.18,0,2.37c1.61-.09,3.73.49,4.38-1.46S52,47.72,50.47,47Z"/><path class="cls-4" d="M105.35,109.74c0-.06-.19,0-.3,0l-.13.34.51.05A.93.93,0,0,0,105.35,109.74Z"/><path class="cls-5" d="M50.86,81.1c-.24.15-.32.56-.47.85L56.66,86c2.36.25,5.09-.24,6,2.93a9.65,9.65,0,0,1,7,0C67.93,82,56.88,77.35,50.86,81.1Z"/><path class="cls-3" d="M52.71,74.09c3.67,1.15,4.86-.81,5-4C55.37,70.53,53.31,71.4,52.71,74.09Z"/></g></g></svg>