<svg xmlns="http://www.w3.org/2000/svg" viewBox="0 0 264.96 268.37"><defs><style>.cls-1{fill:#292c39;}.cls-2{fill:#1c1d29;}.cls-3{fill:#343749;}.cls-4{fill:#5e6175;}.cls-5{fill:#3d4256;}.cls-6{fill:#7c7f9b;}.cls-7{fill:#9da4c4;}.cls-8{fill:#9d8d85;}.cls-9{fill:#514848;}.cls-10{fill:#6e7186;}.cls-11{fill:#6a5a55;}.cls-12{fill:#484f65;}.cls-13{fill:#957969;}.cls-14{fill:#913b56;}.cls-15{fill:#bbaea5;}</style></defs><title>huntaway</title><g id="Layer_2" data-name="Layer 2"><g id="Layer_1-2" data-name="Layer 1"><path class="cls-1" d="M212.48,237.6a2.79,2.79,0,0,0-.25.57q1.59-1.37,3.15-2.79A5.44,5.44,0,0,0,212.48,237.6Z"/><path class="cls-2" d="M130.1,268.37H131l-.91,0Z"/><path class="cls-2" d="M250.07,193.36q0-.49.05-1a7.19,7.19,0,0,1,0-2.77q-1,1.94-2.08,3.84A9.56,9.56,0,0,1,250.07,193.36Z"/><path class="cls-2" d="M252.91,184.19a5.64,5.64,0,0,1,1.08-.86q0-.69,0-1.38C253.64,182.7,253.27,183.45,252.91,184.19Z"/><path class="cls-2" d="M254,181.33c-1.09-1.06-2-2.25-1.41-3.85,1.14-3.09,2.1-6.09.74-9.43-.45-1.09.8-1.58,1.85-1.69l0-2.93c-1.12-1.13-2.52-2.12-2.09-4.05-.35-2-1.39-3.9-1-6q0-.5,0-1c-1.3-.18-2.52-.4-1-2q0-.5,0-1a1.83,1.83,0,0,1-2-2h0l-1-1h0l-7.85-1.95-.1,1q0,.45,0,.89l.08,1c1,.14,2.05.47,1.72,1.65-.49,1.75-1.83,0-2.7.42l-.2,2.12c1,2.79,4.89,4.07,4,7.82q0,1,0,2a35.51,35.51,0,0,1,0,4.37c-.15,1.26-.41,2.89-1.78,3.19-1.54.34-2.74-.65-3.25-2.25a6.62,6.62,0,0,1-3.88-3.26c-2.08,0-2,1.38-2,2.83,5.68,5.32,5.82,5.63,2.69,12.8-7.81,17.85-19.49,33-33,46.83a25.2,25.2,0,0,1-3.63,2.61c-2.86,4.85-8.18,7-12,10.72-3,3-6.46,5.7-11,6.19a3.3,3.3,0,0,1-2.83,3.08c-5.64,1.09-9.46,5.27-14.07,8-3.3,2-5.24,2.15-7-1.44a1.81,1.81,0,0,0-2.46-1.1c-1,1.8,2.22,3.52.57,4.87-1.9,1.56-4,0-6-.84a21.1,21.1,0,0,1-4.76-2.52c-1.16-.89-2.35-3.19-4.83-.49-1.07,1.16-3.41-2.7-5.59-3.65l-3,0c1.18,1.67,4.17,3.32,0,5,.31,1-1.36,2.62.45,2.9,5.95.93,5.23,4.94,4.55,9l.91,0h7.58c27.2-.94,52.46-11.93,73.63-30.21a2.79,2.79,0,0,1,.25-.57,5.44,5.44,0,0,1,2.89-2.22,160.32,160.32,0,0,0,23.52-27.16c-3.37-.67-1-3.3.27-4,3.25-1.79,4.48-4.88,5.61-7.76.79-2,1.89-2.78,3.31-3q1.06-1.9,2.08-3.84a10.83,10.83,0,0,1,2.74-5.41c.36-.74.73-1.49,1.08-2.24Q254,181.64,254,181.33Z"/><path class="cls-3" d="M113.12,266.36l0,2h5l-.06-1.23c-1.63-.25-3.26-.54-4.88-.86Z"/><path class="cls-3" d="M117.29,256.29c-1.26-.53-1.28-1.18-.18-1.93-.33-2.26-.74-4.5-.95-6.77-.09-1-.58-2.7.89-2.83s.94,1.69,1.31,2.64c2.6.71,2.91,5.3,6.71,4l3,0c-.12-2,.8-4.33-2.27-5.3-1.93-.61-2-2.56-1.33-4.23a14.61,14.61,0,0,0,.62-5.41c-1.19.3-1.87,2.16-3.2,1.51s0-1.6.2-2.43c-.24-2,2-3,2-4.9a4.2,4.2,0,0,0-1-.18c-3.47.49-6.1-1.53-6.3-4.72a21.3,21.3,0,0,0-.71-3.25c-1.44,0-2-1.28-2.9-2.07l-1,0-4,1,0,0a5.49,5.49,0,0,0,2.42,5.4c2.12,1.53,3.1,4-.34,5.61l-.07,1.92.12,0c1.14.11,2.22.45,2.48,1.69.22,1-.7,1.19-1.46,1.35a5.07,5.07,0,0,0-.07,1c.84.14,1.71.46,1.79,1.38a43.59,43.59,0,0,1-.9,13.64l.06,2c2.18,3.47,3,7.06,1,10.9,1.62.33,3.24.61,4.88.86l-.58-11Z"/><path class="cls-4" d="M108.1,268.37h5l0-2-.06-.1c-1.41-.28-2.81-.6-4.2-.94A4.16,4.16,0,0,1,108.1,268.37Z"/><path class="cls-4" d="M112.12,255.38l-.06-2c-3-.63-1.58-3.07-1.94-4.78-.41-2,1.27-4.82-2.51-5.32-1.29-.17-.7-1.18-.1-1.74,1.18-1.1,2.44-2.12,3.67-3.18a5.13,5.13,0,0,1,.07-1c-.52-1-1.25-1.84-1-3l-.12,0c-1.31,0-2-.62-1.89-2l-2.06-.2c-3.92-1.7-4.23-4.11-1-7.77l0-3-3-6-.44,0h-.45c.65,16.32.16,32.8,7.06,48.22a6.12,6.12,0,0,1,.5,1.71c1.39.34,2.79.66,4.2.94A10.5,10.5,0,0,1,112.12,255.38Z"/><path class="cls-1" d="M118.1,268.37h12v0A109.5,109.5,0,0,1,118,267.14Z"/><path class="cls-1" d="M125.56,259.29c-1.81-.28-.14-1.94-.45-2.9l0,0-4,1c.17.76.73,1.89.43,2.21-.81.85-1.42-.18-1.92-.74-.76-.85-1.43-1.79-2.13-2.69l.58,11a109.5,109.5,0,0,0,12.07,1.19C130.79,264.23,131.51,260.22,125.56,259.29Z"/><path class="cls-3" d="M252.37,47.83c-1-1.32-2.63-2.58-2.75-4-.28-3.36-2.5-6.1-2.55-9.45a2.27,2.27,0,0,1-.06-.86l-3.77-1.72a1.53,1.53,0,0,1-1.06,1.66c-.07,2.26,3.34,2.44,2.93,4.9-.49,1.46-.38,3.87-3,1.91l-2,0,5.33,8.21c1.27-.91,0-2.91,1.41-3.62,2,2.93,1.94,6.6-.64,17.79a55.67,55.67,0,0,1-3.12-12.82c-.14-1.55-.28-3.43-2.3-3.06s-1.85,2.06-1.15,3.63a4.07,4.07,0,0,0,.19.46c4.81,8-.37,13.54-4.73,19.26a4.62,4.62,0,0,1-6.17,1.56c-1.19-.57-2.57-1.05-2.65-2.67s1.93-1.23,2.32-1.9c.94-1.59,5.09-1.92,2.18-5.3-1.27-1.48,1.11-2.47,1.48-3.85s1.93-3.43-.38-4.1a2.87,2.87,0,0,0-3.8,2.81c0,.76.15,1.71-1.3,2.15-.93-1.88-.92-4.28-2.71-5.87-1.13-1-.29-2.1.33-3.42,1.63-3.5,4.65-7.11.53-11.17-1.15-1.14-1.26-3.34-1.85-5.05-3.42-2.72-6.58,2-10.08.41-.48-.22-.3,1.29-.25,2.08.25,3.95.65,7.85,2.34,11.49,1.37,1.47,1.6,2.83-.41,4-.28.16-.6.25-.89.4a32.13,32.13,0,0,0-6.52,4.05c-2.33,2,2.86,4,1,7.68-1.52-4.2-6.79-5.32-5.58-10.73.37-1.64-1.53-1.2-2.57-1.37-1.51,5.45-.19,11.64-4.16,16.52,1.09-8.69-1.37-17.08-1.71-25.59-1.41-1.78-1.06-3.95-1.33-6-3.56,1.06-8.14,1.15-5.07,7.22.93,1.85.23,4.52.28,6.82a12.09,12.09,0,0,1,4,9.6c-.07,4.8,0,9.61,0,14.41,1.3,2.56,2.31,5.09-.92,7.06q0,1.94,0,3.88c2.08-.09,3.12.86,2.91,3a4.1,4.1,0,0,0,1.83,3.85c1.37,1,2.25,3.78,4.17,2.76,2.21-1.18.53-3.11-.42-4.63-.68-1.08.05-1.82.66-2.63,2-2.74,5.11-4.27,7.88-5.92,3.29-2,7.32,2.09,6.71,6.5-.43,3.15-3.14,7,3.61,6.75,1.8-.08,3.6,4,2.16,5.18-4.68,3.85-1.78,8-.66,11.49,1.3,4-1,6.35-2.39,9s-4.13,1.12-6.24.36c-2.37-.85-4.79-.91-7.09-2.88s-2.59,1.63-3.25,3.29c0,2.73,2.06,4.72,3.64,6.13,2,1.79,2.66,2.57,1.1,5-1.26,2,1.36,2,2.33,2.85,2.72-1.12,2.26-6.66,7-5,2.7,0,5.21-1.49,8-1a2.15,2.15,0,0,1,1.93-1c1.34-3.17,4-5.31,6.08-7.93l1.07-2.9c-.85-2.48-4.19-1.4-5.36-4.63-1.75-4.82.18-8.13,2.15-12.55,1.4,4,4.69,4.31,7.76,5.05,2.18-3,4.45-5.88,6.52-8.92,4.61-6.77,9.07-13.62,9.87-22.1a1,1,0,0,1,.36-.86l.18-3.08c-4-1.25-3.79-5.2-4.65-8.15-.26-.89,2.1-3.9,4.62-1.6.71.65,1.11,1.63,2.24,1.71l3.33-9.88.28-1,.55-2.11C257.44,49,255.49,45.48,252.37,47.83Zm-6.83,29.44c-1.61,3.38-1.84,7.27-4.69,10.26a6.41,6.41,0,0,0-1.22,7c.65,1.47.38,2.69-1.5,2.79-1.23.06-2.95.44-2.54-1.82.48-2.68-1.52-1.95-2.83-2.08-7.3-.75-9.64-4.17-7.65-11.09.33-1.15.81-2,2-1.34,6.11,3.66,5.13-2.16,6.52-4.9,2.44,1.1,4.79,2.76,5.93-1.68.52-2,3.18-2.5,5.13-1.76C247,73.51,246.29,75.7,245.55,77.27Z"/><path class="cls-5" d="M30.27,119.49h0l0,.06Z"/><path class="cls-5" d="M33.11,83.38c-.11,1.09.24,2.45-1.31,2.8-.67.15-1.42-.24-1.28-1,.23-1.36,1.36-1.7,2.58-1.78,1.09-3.08.21-5.16-3-6.05l-1,.95c1.53,4.39-2.72,5.46-4.22,8.35-1.81-1.47-.11-3.19-1.22-4.4-.72-.79-.33-2.62-1.84-2.62-2,0-.83,1.56-1,2.53-.43,2-2.47,1.16-3.73,1.68-1.76.73-1.75-.82-1.85-2-.12-1.33-.14-3-1.9-2.9s-.86,1.83-1.17,2.83c-1.34,4.37-5.21,6.81-8.93,5.61-.23,2.74.52,5.71-1.82,8l0,2,1.75,0A7,7,0,0,0,4,97.16c-.58-5.4,3.5-6.23,7.15-8.2,2.82-1.52,5-1.46,7.36-.19,2.6,1.41,1.74,4.17,1.41,6.31-.46,2.94-2.79,5.85.61,8.49.18.14.24.8.12.89-.63.46-1.33,1.12-2,1.14-4.37.16-4.58,8.91-10.79,5.2a5.81,5.81,0,0,0-1.93-.36c1,4.2,2.13,8.29,6.05,10.83,4.49.81,8.86,1.5,13.06-1.52,1.19-.86,3.45-.22,5.22-.26.68-3.22,3.16-5.5,4.46-8.4C37.24,105.4,39.41,99.6,40,93.34L37,94.95C36.05,90.95,35.61,86.8,33.11,83.38Z"/><path class="cls-6" d="M163.3,4.88A2.68,2.68,0,0,1,160.75,7c-6.44-.47-8.87,4.42-11.88,8.58-.29.4-.62,1.16-.88,1.13-4.19-.4-9,1-12.37-.39-3.54-1.45-5.91-1.7-9.37-.6-3.63,1.15-7.62.53-11.49,1.53-5.94,1.55-12.38,1.29-17.63,5.21a1.59,1.59,0,0,1-2,.79c-.12,0-.18-.25-.27-.38L97,22.31c-.58-3.39,3.47-3.61,4.23-6.28-1.93-2.08-6.86,1.73-7.28-3.46l-3.84-.07L90,15c.6,1.44-1.71,2.95.11,4.35,3.06,2.07,3.17,4.08-.14,6l-.1,1.89c.36,1.72,1.19,3.62,3.1,2.88,3.48-1.35,2.43.72,2,2.25a19,19,0,0,1-1.8,3.86c-1.72,3,.9,1.79,2,2.11,4-5.51,10.1-6.87,16.12-8.55,2.69-.75,4.8-.86,5.29,2.84.71-1.8,1.29-3.32,1.92-4.81s1.42-2.58,2.78-.92c2,2.38,3.27,0,4.85-.4l9.06-.17.43-.4-.4.44-2,4.91h3c.43-3.74,3.85-4.43,6.35-5.64,3.15-1.53,5.46-5.19,9.69-4.23l2-.1c.18-3.8,2.14-6.8,4.44-9.6,1.25-1.53,1.4-.19,1.6.77l3.93-2.28c.14-2.16,3.28-2.23,3.18-4.55L167,4.49Z"/><path class="cls-7" d="M151.4,2.47c-10.1.23-20.26-.57-30,3.14-5.77,2.19-11.87,2.78-18.05,2.88A14.1,14.1,0,0,0,94,12.57c.42,5.19,5.35,1.38,7.28,3.46-.76,2.66-4.81,2.88-4.23,6.28l.1.12c5.25-3.92,11.68-3.67,17.63-5.21,3.86-1,7.86-.38,11.49-1.53,3.46-1.1,5.83-.84,9.37.6,3.36,1.38,8.18,0,12.37.39.25,0,.59-.74.88-1.13,3-4.16,5.44-9,11.88-8.58a2.68,2.68,0,0,0,2.55-2.08C159.72,2.12,155.6,2.37,151.4,2.47Z"/><path class="cls-6" d="M85.09,12.68c-2,1.93-4.54,1.64-7,1.7-1.93.05-4-.45-5.58,1.31-2.28,2.55-3.56,1.31-4.42-1.27C55.82,15.87,45.67,21,38,31c-3.73,4.88-7.95,9.39-12,14A116.44,116.44,0,0,0,9.24,71.49l5.7-1.16c.85-1.23,1.29-2.85,3.08-3.18,1.31-3.93.79-8.45,4-11.81.93-1,1.63-2,3.11-2,1.43-6.54,7.39-8.44,12.12-12.8a9.65,9.65,0,0,1-1.44,6.4c-.87,1.45.82.32,1.32.47l2-4c2-7.35,7.41-11.15,14-9.85l1.46-.29c1.36-2.83,3.21-5.1,6.51-5.71L65,26.17C67,24,70.5,24,72,21.21c1.38-5.13,5.32-3.49,8.86-3.68,2.55-.14,7.12,3.32,7.29-3l-.2-1.8Z"/><path class="cls-4" d="M206.65,12.56c-1.52-.57-2.85-1.24-4.49-1.05-.36,2.4-1.7,3.53-4.09,4.28-1.52.48-2.69,1.2-3.91-.08-1.49-1.56.92-2.14,1-3.34-5.3-.29-9.89-3.12-15-4.2l-4-.75c-.47,2.09.64,3.93,1,5.89,2.05,1.12,3.09,3,4,5.09,2.34-.06,2.1,3.77,4.8,3.17,3.06-2.46,3.73,2.42,6.13,2-1.09,3.15,4.28,5.72.83,9.08q0,1.84,0,3.68c.27,2-.08,4.2,1.33,6,3.74-1.45,1.14-4.63,1.85-6.91.27-.88-.26-2.22,1-2.49s1.7.81,1.94,1.81c.56,2.31,2.25,3,4.72,3.49-.52-2.69-4.12-3-3.43-6.05,1,.48,2.17.73,2.76,1.46.9,1.11,1.63,1.54,2.9.74,1-.65.6-1.71.88-2.56,1.56-4.76-2.18-8.14-3-12.28C203,15,205.8,15.58,208,16.44a59.48,59.48,0,0,0,6.07,1.89l.06-3L212.25,14C209.78,16.2,208.35,13.2,206.65,12.56Z"/><path class="cls-1" d="M66.22,56.21c-1,2.29-1.28,5.1-4.12,6.17a9.43,9.43,0,0,0-3.18,6.42c-.34,2.57-.62,6-4.8,5.57.4,3.74,3.09,6.69,3.5,10.56.14,1.32,1.91,4.5,4,4.22,5.82-.77,7.51,2.63,8.54,7.17l2-2c-1.5-6.16-.78-12.53-1.87-18.73a27.2,27.2,0,0,0-1-12.36c-.62-2.05-.35-4,2.61-4,.35-1.5-.42-3.52,1.9-4.1l.25-2.84C69.76,50.21,67.75,52.54,66.22,56.21Z"/><path class="cls-8" d="M94.41,122.58c.54-3.76-2.1-6.65-1.3-10.15l-.07-.06-.41,0h-.41l-1,.24c-1.62,4.6-4.3,8.79-5.18,13.67-.84,3.76.55,8.17-3.2,11.1-.39,3.31,2.06,7.07-1.56,9.86l-.89,13.22c2.1.24,1.88,2,1.86,3.31,0,.76-1.33.52-2.11.54l-.1,2.06c1.51,0,2,.89,2,2.23s.27,2.66,2,2.79q0-6.56,0-13.12c-.65-7,2.09-12.25,7.95-16-.32-4,2.2-6.91,4-10.09l2-1.87.18-1c.28-.66-2.79-1.3-.06-1.9,1.36-.3,2.42-.73,3-2.06C100.38,120.52,93.33,130,94.41,122.58Zm-3.8,11.76c-.62,1.68-1.16,3.39-2,5.84-.89-2.69-2.21-4.57-1-6.77.45-.81.75-2,2.08-1.5C90.81,132.34,91,133.24,90.6,134.34Z"/><path class="cls-3" d="M19.91,95.08c.33-2.14,1.2-4.9-1.41-6.31C16.17,87.5,14,87.44,11.15,89c-3.64,2-7.73,2.8-7.15,8.2a7,7,0,0,1-.92.22l0,2c1.34.14,2.75.43,2.67,2.1s-1.53,1.84-2.85,2l3,7a5.81,5.81,0,0,1,1.93.36c6.21,3.71,6.42-5,10.79-5.2.7,0,1.39-.68,2-1.14.12-.09.06-.75-.12-.89C17.12,100.93,19.46,98,19.91,95.08Z"/><path class="cls-1" d="M51.1,62.38c-3.37,0-5.5-1.18-5-5h0a2.51,2.51,0,0,0-2.92,0l-1.13,6c.63,6.71-1,13.3-1.11,20,.08,3.38.83,6.81-.91,10-.64,6.26-2.8,12.05-5.35,17.74-1.31,2.93-3.82,5.21-4.48,8.47,5-2.73,9.38-6.54,10.66-12,2-8.65,3.91-17.38,4.45-26.38.18-3-1.08-7.6,3.78-9.05C48.5,68.6,51.83,65.9,51.1,62.38Z"/><path class="cls-4" d="M92.06,152.64c-.63.51-1.47,1.59-1.85,1.45-3.41-1.29-3.2.73-3.16,3,0,2.64-1.53,1.89-3,1.15q0,6.56,0,13.12c.25,1.6-.49,2.93-1.17,4.28l1,.7c.77-.58,1.92-1.81,2.25-1.63,3.6,2.07,5.52,1.1,6-3,4.17,2,4.22-2.63,4.51-3.84.7-2.84,3-4.77,3.4-7.6l-1.66-1.06C94.41,158.87,93.09,155.89,92.06,152.64Z"/><path class="cls-6" d="M202.46,7.7c-4-.5-8.74-.56-11.86-2.7-4.44-3-10.09-1.49-14.06-5l-.62,1.28,4.26,6.89c5.08,1.08,9.67,3.9,15,4.19,2.55,1.48,4.51-1.86,7-.86,1.65-.18,3,.49,4.49,1.06,1.7.64,3.13,3.64,5.6,1.47C210.39,9.73,206.87,8.25,202.46,7.7Z"/><path class="cls-2" d="M60.09,50.28l-1,.1c-.67,3.14-2.51,4.93-5.82,5,.62,2.74-2.4,4.35-2.16,7,.73,3.53-2.6,6.23-2,9.73l3.12.24.92.82.08.17.86,1,0,0c4.18.4,4.46-3,4.8-5.57a9.43,9.43,0,0,1,3.18-6.42c-.88-3.34,1.6-5.94,2-9C61.66,53.77,60.82,52.1,60.09,50.28Z"/><path class="cls-9" d="M107.21,169c-3.53-3.28-3.58-3.4-3.1-7.6a6.93,6.93,0,0,0-4-1.05c-.35,2.84-2.7,4.77-3.4,7.6-.3,1.21-.34,5.85-4.51,3.84-.5,4.06-2.41,5-6,3-.33-.19-1.48,1-2.25,1.63.39,2.39,2.13,3.77,3.85,5.15l3.27-.12c4-2.21,6.85-6.7,12.22-6.47.27,0,.58-1,.88-1.57h0v0c-1-.12-2-.37-1.77-1.7,0-.31.71-.84.9-.77,1.17.46.76,1.57.87,2.46h0v0a8.27,8.27,0,0,0,5-1A4.64,4.64,0,0,0,107.21,169Z"/><path class="cls-9" d="M104.09,173.36v0h0v0Z"/><path class="cls-4" d="M76,87.39c-2.37-4.51.53-9.37-.95-13.93-3.48-3.45-2.57,2.85-4.8,2.16,1.09,6.2.36,12.58,1.87,18.73l-.1,7.58,0,2.3,1.8-.86.45-3.27c4.15,0,2,6.57,6.58,6-2.58-4.91-2-10.44-3.07-15.66C75.89,90.24,76.15,88.7,76,87.39Z"/><path class="cls-10" d="M242.62,31.08c-4.51,1.2-6.79-2.14-9.49-4.64a.75.75,0,0,0-.67-.33l-1.26-.76a131,131,0,0,0-17.07-10l-.06,3,.06.07a1.7,1.7,0,0,1,2,1.91q.12.48.19,1a5.72,5.72,0,0,1,3.84,4c4.46,3.89,10.84,4.05,15.35,7.93.76.65,1.58,1,1.65,2.1l1.94,0c.16-2.11,1.56-2.07,3.1-1.81a1.53,1.53,0,0,0,1.06-1.66Z"/><path class="cls-11" d="M88.11,107.35h-2c-2,1.57.07,4.48-2,6-.71,1.91-.31,4.5-3.14,5.12-.59,2.22-2.06,2.5-4,1.81l1.57,6c2.47-.32,2.41,2.2,3.85,4,.81-2.12,1-4.53,3.65-4,.88-4.88,3.56-9.07,5.18-13.67l-.09-5.26Z"/><path class="cls-11" d="M101.16,204.4a2.19,2.19,0,0,1,.83-2.09,4.43,4.43,0,0,0,0-.84l-.88-1.09c-3.88-1-.56-3.35-.93-5a3.78,3.78,0,0,1,.05-5L100,188.5c-5.28.53-7.95-2.26-9-7.09l-3.27.12c2,3.77,4.51,7.2,6.22,11.2,2.47,5.77,4.11,11.81,6.46,17.6,1.37,0,1.6-.93,1.74-2q-.07-.48-.11-1C101,206.61,99.36,206,101.16,204.4Z"/><path class="cls-5" d="M229,100.31c-2,4.42-3.91,7.73-2.15,12.55,1.18,3.23,4.51,2.15,5.36,4.63,2.35-3.73,2.75-8.19,4.55-12.12C233.65,104.61,230.36,104.28,229,100.31Z"/><path class="cls-4" d="M9.24,71.49c-2.39,2.6-2.26,6.58-5.11,9C-.8,84.6-.73,89.8,1.29,95.32c2.34-2.26,1.59-5.22,1.82-8,3.24-2.29,5.67-5,6.07-9.27a5,5,0,0,1,3.72-4.63c1.95-.43,2.34-1.45,2-3.13Z"/><path class="cls-12" d="M259,42.41c-5.82.39-8.65-2.43-7.45-7.42l-.07,0c-1.57.76-2.86-.69-4.36-.55,0,3.35,2.27,6.09,2.55,9.45.12,1.39,1.78,2.65,2.75,4,3.11-2.35,5.07,1.15,7.65,1.52C262.1,46.66,258.41,44.86,259,42.41Z"/><path class="cls-7" d="M68.09,14.43c.86,2.58,2.14,3.81,4.42,1.27,1.58-1.76,3.65-1.26,5.58-1.31,2.47-.07,5,.23,7-1.7C78.15,8.27,75.22,8.57,68.09,14.43Z"/><path class="cls-10" d="M169.45,4.22c-.37,1.05-1.31,1.22-2.21,1.44.1,2.33-3,2.4-3.18,4.55l2,.15a17.08,17.08,0,0,1,10.13-3l4,.75-4.26-6.89C174.5,3.9,171.65,3.34,169.45,4.22Z"/><path class="cls-13" d="M82.43,130.27c-1.44-1.78-1.37-4.3-3.85-4-.16,3.18.88,6.13,1.71,9.12,1.48-.15,1.72,1.33,2.59,2,3.75-2.92,2.36-7.33,3.2-11.09C83.41,125.73,83.25,128.15,82.43,130.27Z"/><path class="cls-8" d="M72.1,104.24a17.65,17.65,0,0,0,3.37,12.22c1-.1,2-.15,2.63-1.08l.17-1.07a56.39,56.39,0,0,0-4.37-10.93Z"/><path class="cls-5" d="M253.62,60.65c-2.52-2.3-4.88.71-4.62,1.6.86,3,.64,6.9,4.65,8.15.87-2.64.54-5.62,2.21-8C254.73,62.27,254.33,61.29,253.62,60.65Z"/><path class="cls-3" d="M100.42,210.34l.41,1.93c1.82.45,2.07,1.58,1.36,3.12l3,6,2.91,0,0,0c-2-4.31-2.7-9.24-6-13C102,209.41,101.79,210.38,100.42,210.34Z"/><path class="cls-1" d="M25,119.75c-4.2,3-8.56,2.33-13.06,1.52,6.66,3.92,13.51,3.26,18.31-1.78C28.49,119.54,26.21,118.89,25,119.75Z"/><path class="cls-4" d="M251.51,35c-1.2,5,1.63,7.81,7.45,7.42A26.05,26.05,0,0,0,251.51,35Z"/><path class="cls-11" d="M82.88,137.39c-.87-.65-1.11-2.13-2.59-2l1,11.85C84.94,144.46,82.49,140.7,82.88,137.39Z"/><path class="cls-13" d="M82,168.62c0-1.34-.45-2.24-2-2.23-.18,3.44-.79,7,2.83,9.3.69-1.34,1.42-2.67,1.17-4.28C82.31,171.28,82,170,82,168.62Z"/><path class="cls-6" d="M233.13,26.45c2.7,2.49,5,5.84,9.49,4.64C240.09,28.24,236.75,27.07,233.13,26.45Z"/><path class="cls-13" d="M78.1,115.38c-.64.93-1.65,1-2.63,1.08A6.75,6.75,0,0,0,77,120.32c1.91.69,3.38.41,4-1.81l-.07-1.93Z"/><path class="cls-5" d="M3,99.36l-1.48.1a4.68,4.68,0,0,0,1.29,4c1.32-.14,2.77-.36,2.85-2S4.38,99.5,3,99.36Z"/><path class="cls-9" d="M72.05,101.94l.1-7.58-2,2A7.36,7.36,0,0,0,72.05,101.94Z"/><path class="cls-13" d="M80.43,160.47l-.25,3.85c.78,0,2.1.22,2.11-.54C82.31,162.52,82.52,160.72,80.43,160.47Z"/><path class="cls-11" d="M100.83,212.28a4.36,4.36,0,0,0,.47,3.1h.45l.44,0C102.89,213.86,102.65,212.72,100.83,212.28Z"/><path class="cls-4" d="M247,33.55a2.26,2.26,0,0,0,.06.86c1.49-.14,2.79,1.31,4.36.55A4.32,4.32,0,0,0,247,33.55Z"/><path class="cls-7" d="M167,4.49l.24,1.18c.9-.23,1.85-.39,2.21-1.44A1.67,1.67,0,0,0,167,4.49Z"/><path class="cls-7" d="M88.13,14.54,90,15l.14-2.51-2.22.24Z"/><path class="cls-4" d="M1.57,99.46,3,99.36q0-1,0-2l-1.75,0Z"/><path class="cls-5" d="M253.47,73.48a1,1,0,0,0-.36.86c.13-.06.35-.1.37-.19A2.82,2.82,0,0,0,253.47,73.48Z"/><path class="cls-6" d="M232.46,26.12l-1.26-.76Z"/><path class="cls-1" d="M54.1,74.34l-.86-1C53.19,74,53.53,74.25,54.1,74.34Z"/><path class="cls-1" d="M52.23,72.34l.92.82Z"/><path class="cls-12" d="M259.19,52.48l.28-1Z"/><path class="cls-1" d="M165.73,223.33c5.65-2,6.64-7.66,8.47-12,3.31-7.87,7.19-16.44,3.73-25-2.45-6-4.28-12.37-7.29-18.18-.23-.44-1.13-.53-1.72-.78-2.09,3.87.95,6.77,2.16,9.87.68,1.73.38,2.32-.8,3.14l-.26,2c2.13,5.63,2.78,11.59,3.5,17.47.2,1.65-.37,4.59-3.6,4.31a3.68,3.68,0,0,0-1.92,2.24c.58.91,1.57.7,1.49,3-.2,5.42-5.27,4.88-6.77,8l.54.83c.46.15,1.24,0,1,.83,0,.17-.74.19-1.14.28a4.5,4.5,0,0,1-3,1.26c-.59,1.57-.39,3.71-3.27,3.22-4.15-.72-4.89,2.24-4.32,5.18.6,3.14.48,6.18.43,10.55l-2.63-8.4c-1.2,4.39-2.49,3.91-4.57,1.44-1.3-1.55-3.53-2.32-4.65-4.23l-4,1a6.67,6.67,0,0,0-1,4c2.36-.56,4.95-1.63,3.22,2.8-1.34,3.43-.89,7.44-3.33,11.3-1.49-2.61-.67-4.93-.93-7.08-2.18-.09-4.44.51-5.64-2.45-.58-1.44-2.66-1.64-4.35-1.57l0,0a14.61,14.61,0,0,1-.62,5.41c-.67,1.67-.6,3.62,1.33,4.23,3.07,1,2.15,3.28,2.27,5.3,2.18,1,4.52,4.81,5.59,3.65,2.48-2.69,3.67-.4,4.83.49a21.1,21.1,0,0,0,4.76,2.52c2,.85,4.11,2.4,6,.84,1.65-1.35-1.58-3.07-.57-4.87a1.81,1.81,0,0,1,2.46,1.1c1.78,3.6,3.73,3.41,7,1.44,4.61-2.75,8.43-6.94,14.07-8a3.3,3.3,0,0,0,2.82-3.08c-4.42-3.83,1.24-6.38,1.31-9.66,0-.77,1.13-1.52,1.74-2.28-2.49-2.23-3.36-.15-4.36,1.63-.71,1.25-.71,2.86-2.34,3.65-1.89.92-4.59,3.47-5.27,3-2.27-1.63-4.72-2.95-7-4.5-1.74-1.18.06-2.72,0-4.11C159.1,231.42,164.17,223.89,165.73,223.33Z"/><path class="cls-14" d="M232.08,166.25c-3.09-.74-7.54,2.09-8,5.09-.2,1.4.37,3-1.29,3.94-1.19,5.47-4.88,9.58-7.8,14.08-3.73,5.76-7.77,11.33-12.91,16l-3.19,5c.06,4.32-3.9,6.22-6.24,8.42-3.88,3.66-2,7.29-.86,10.19,1.44,3.65,4-1.14,6.3-.49a25.09,25.09,0,0,0,3.63-2.61c13.51-13.84,25.19-29,33-46.83C237.9,171.88,237.76,171.56,232.08,166.25Z"/><path class="cls-9" d="M198.94,210.37c-5.1,3.28-9.85,6.89-11.86,13,2.38,1.28,2.49,2.61.07,4l-3,2.13c.1,2.82-1.71,3.61-4.06,3.83l-2,.14c-.61.76-1.73,1.51-1.74,2.28-.07,3.29-5.73,5.83-1.31,9.66,4.55-.49,8-3.23,11-6.19,3.86-3.77,9.18-5.87,12-10.72-2.26-.65-4.86,4.14-6.3.49-1.15-2.9-3-6.53.86-10.19C195,216.59,199,214.69,198.94,210.37Z"/><path class="cls-5" d="M257.11,171.37a8.92,8.92,0,0,0-1,6q1.1-2.49,2.13-5A8.33,8.33,0,0,0,257.11,171.37Z"/><path class="cls-5" d="M254,181.33q0,.31,0,.62l.22-.46Z"/><path class="cls-12" d="M245.09,137.41c-1.58-.37-3.32-1.37-4.7-1-4.59,1.24-5.83-1.88-7.31-4.93a21.57,21.57,0,0,0-2.24-4.33c-1-1.26-1.56-.18-1.8.89a15.54,15.54,0,0,0,2.55,6.37c2.16,2.89,4.62,5.94.44,9.25-1,.81-.21,1.44.49,1.88,1.91,1.21,1.5,3.17,1.66,4.94l2.84.91,2,.13.2-2.12,1-2.07-.08-1c-.76-.31-.76-.61,0-.89l.11-1c1-2.86,3.24-3.25,5.83-3,.85-.1,1.67-.26,2.06-1.17C247.32,139.1,245.55,139,245.09,137.41Z"/><path class="cls-12" d="M234.77,159.35l-.78-7.06-3.81,1-.05,4,.4.42-.44-.39-1,0-.24,2.23h-.57l-.34-2.31-1.73.07a42.54,42.54,0,0,0-4.87,16.88c0,.32,1,.69,1.48,1,1.66-.91,1.09-2.55,1.29-3.94.42-3,4.87-5.83,8-5.09-.07-1.45-.11-2.88,2-2.83C234.74,162.14,231.62,160.2,234.77,159.35Z"/><path class="cls-12" d="M261.09,164.36s0,0,0,0h0Z"/><path class="cls-12" d="M261.09,164.38c-2-.29-3.79-1.42-5.88-.94q0,1.47,0,2.93c1.35,1.4,1.46,3.27,1.93,5a8.32,8.32,0,0,1,1.12.93q1.5-3.67,2.87-7.44A2,2,0,0,1,261.09,164.38Z"/><path class="cls-3" d="M257.79,153.22c-3.53-3.64-4.24-8.65-6.71-12.77l-3-.18c-.39.91-1.2,1.07-2.06,1.17-.61,2.17,2,3,2,4.94h0l1,1h0a1.78,1.78,0,0,1,2,2q0,.5,0,1a2,2,0,0,1,1,2q0,.5,0,1c2,.11,3.13,1.48,4,3.08C258.2,156.11,259.55,155,257.79,153.22Z"/><path class="cls-1" d="M248.08,193.44q-4.3,7.71-9.19,14.78a8.17,8.17,0,0,0,1.25.15c5.94-3.26,6.42-10.14,9.93-15A9.56,9.56,0,0,0,248.08,193.44Z"/><path class="cls-1" d="M244.77,196.46c-1.13,2.88-2.36,6-5.61,7.76-1.25.69-3.65,3.32-.27,4q4.89-7.07,9.19-14.78C246.66,193.68,245.56,194.44,244.77,196.46Z"/><path class="cls-1" d="M256.09,177.34q-.92,2.09-1.88,4.15c.72.53,1.55,1.39,2.06,1.24,1.25-.39.47-1.55.31-2.46S256.21,178.31,256.09,177.34Z"/><path class="cls-1" d="M257.11,171.37c-.47-1.74-.58-3.61-1.93-5-1.05.11-2.3.6-1.85,1.69,1.37,3.34.41,6.35-.74,9.43-.59,1.59.31,2.79,1.41,3.85l.22.15q1-2.06,1.88-4.15A8.92,8.92,0,0,1,257.11,171.37Z"/><path class="cls-1" d="M118.37,247.41l1.67,7c1.78.43,3.66.6,5,2l0,0c4.13-1.7,1.15-3.36,0-5C121.28,252.7,121,248.11,118.37,247.41Z"/><path class="cls-3" d="M256.19,158.36l-3.07,1c-.43,1.93,1,2.92,2.09,4.05,2.1-.49,3.93.66,5.9.95C261.59,160.65,259.62,158.9,256.19,158.36Z"/><path class="cls-12" d="M243,161.35l-1.65,2-3.13.25c.64,1.08,1.25,2.15-.25,3,.51,1.59,1.71,2.59,3.25,2.25,1.37-.31,1.64-1.94,1.78-3.19A35.34,35.34,0,0,0,243,161.35Z"/><path class="cls-1" d="M254,183.33a5.64,5.64,0,0,0-1.08.86q-1.34,2.74-2.74,5.41a7.19,7.19,0,0,0,0,2.77c1-.61,1.41-2.17,3-2q.5,0,1,0h0Q254,186.83,254,183.33Z"/><path class="cls-1" d="M250.17,189.6q1.41-2.67,2.74-5.41A10.83,10.83,0,0,0,250.17,189.6Z"/><path class="cls-15" d="M239,151.54l-2-.13q.23,2,.47,4c1.93,1.19,2.85,3.76,5.48,4C243.91,155.61,240,154.33,239,151.54Z"/><path class="cls-1" d="M246.07,141.43c-2.58-.25-4.84.13-5.83,3l7.85,1.95C248.07,144.46,245.46,143.61,246.07,141.43Z"/><path class="cls-10" d="M238.19,163.62l-3.42-4.27c-3.15.85,0,2.79-.71,4.06a6.61,6.61,0,0,0,3.88,3.25C239.44,165.77,238.83,164.7,238.19,163.62Z"/><path class="cls-8" d="M237.5,155.37c-2.22,1.13-.54,2.07.21,2.93,1.37,1.58,3.32,2.72,3.61,5.07l1.66-2q0-1,0-2C240.35,159.13,239.43,156.56,237.5,155.37Z"/><path class="cls-1" d="M256.16,156.44c-.9-1.61-2-3-4-3.08-.39,2.13.65,4,1,6l3.07-1Q256.17,157.4,256.16,156.44Z"/><path class="cls-1" d="M240.2,147.35l-1,2.07c.88-.42,2.21,1.33,2.7-.42C242.26,147.82,241.18,147.49,240.2,147.35Z"/><path class="cls-1" d="M251.11,150.37c-1.53,1.59-.3,1.81,1,2A2,2,0,0,0,251.11,150.37Z"/><path class="cls-1" d="M249.1,147.38a1.83,1.83,0,0,0,2,2A1.78,1.78,0,0,0,249.1,147.38Z"/><path class="cls-1" d="M240.12,146.33q0-.45,0-.89C239.36,145.72,239.36,146,240.12,146.33Z"/><path class="cls-1" d="M248.1,146.38l1,1Z"/><path class="cls-5" d="M253.76,191.49c.14,0,.21-.74.32-1.14q-.5,0-1,0C253.23,190.79,252.91,191.56,253.76,191.49Z"/><path class="cls-13" d="M133.19,203.34a7.79,7.79,0,0,1-2-6l-.48-1.7c-1.47-.49-1.75-1.68-1.77-3l-.09-.12c-3.23-.75-5.2-3.61-7.33-5.55-3.56-3.25-7.31-3.59-11.47-3.8l-3.16,3.24L108,188.5c.21-1.55.68-2.8,2.41-1.29,2.24,2,4.39,4,4.77,7.26,2,0,2,1.4,1.83,2.86l.15.17a7,7,0,0,0,2.4.45c5.2-1,5.19-1,5.67,5,0,.14.2.26.33.42,1.07-.87.39-2.08.61-3.11s.51-1.67,1.5-1.63,1.37.86,1.36,1.74a15.54,15.54,0,0,1-.24,4.43c-.9,2.89-.82,5.26,1.22,7.83,1.52,1.9.43,3.75-.62,6.24-1.74,4.12-5.7,4.68-7.79,7.62-.19.27-.33.57-.5.86,2,.13,2,1.58,2,3.06a4.21,4.21,0,0,1,1,.18,2.15,2.15,0,0,1,2-1.17c1.63-2.5,3.62-2.89,6-1l0,0c2.68-.63,1.28-3.82,3.12-5l-1.15-14C133.17,207.49,133.27,205.4,133.19,203.34Z"/><path class="cls-15" d="M117.14,197.49l-.15-.17c-2-.08-1.91-1.47-1.83-2.86-.38-3.21-2.52-5.29-4.76-7.25-1.73-1.51-2.2-.25-2.41,1.29-2.62,3.26,2.13,5.76.92,8.88,2.11,5.81,2.35,12,3.17,18,1.67,1.36,2.42,2.94,1.12,5,.9.79,1.46,2,2.9,2.07L118,221.1c.55-1,1.12-2,1.64-3,4.36-8.49,4.36-8.66-1-17.64C118,199.53,117,198.78,117.14,197.49Z"/><path class="cls-1" d="M112.07,215.37c-.82-6-1.05-12.18-3.17-18-1.44-.37-4.32,1-3.08-2.57.8-2.3-2-3.4-1.8-5.47l-3.84,1.05a3.79,3.79,0,0,0,0,5c2,.06,3.67.19,1.42,2.64-.47.51-.34,1.56-.49,2.37l.88,1.09c.85.25.88.53,0,.84a2.19,2.19,0,0,0-.83,2.09c1.12.76.89,1.91.89,3q0,.48.11,1c3.27,3.74,3.95,8.67,6,13l4-1C112.4,218.7,109.8,217.08,112.07,215.37Z"/><path class="cls-5" d="M111.17,238.37c-1.23,1.06-2.49,2.08-3.67,3.18-.6.56-1.19,1.57.1,1.74,3.78.5,2.1,3.36,2.51,5.32.36,1.71-1.08,4.15,1.94,4.78a43.59,43.59,0,0,0,.9-13.64C112.88,238.83,112,238.51,111.17,238.37Z"/><path class="cls-5" d="M110.52,226.78a5.49,5.49,0,0,1-2.42-5.4l-2.91,0,0,3c2,2.38.53,5.21,1,7.78l2.06.2,2,0C113.62,230.73,112.63,228.31,110.52,226.78Z"/><path class="cls-8" d="M120,254.36l-1.67-7c-.37-.95.3-2.77-1.31-2.64s-1,1.81-.89,2.83c.21,2.27.62,4.51.95,6.77q.09,1,.18,1.93l.17-.13c.71.9,1.37,1.84,2.13,2.69.5.56,1.11,1.59,1.92.74.3-.31-.26-1.45-.43-2.21A3.48,3.48,0,0,1,120,254.36Z"/><path class="cls-11" d="M121.09,227.33c-2,0-2.94-.6-2.18-2.89.35-1.05,1.47-2.83-.93-3.34l-1.89,1.31a21.3,21.3,0,0,1,.71,3.25c.21,3.19,2.84,5.21,6.3,4.72C123.13,228.91,123.11,227.46,121.09,227.33Z"/><path class="cls-5" d="M113.12,266.36l0-.08-.1,0Z"/><path class="cls-5" d="M112.12,255.38a10.5,10.5,0,0,0,.94,10.88l.1,0C115.08,262.44,114.29,258.84,112.12,255.38Z"/><path class="cls-9" d="M126.1,229.39a2.15,2.15,0,0,0-2,1.17c0,1.91-2.23,2.9-2,4.9l4-1.13c.69-1.11,1.78-.93,2.83-.86C129.33,231.2,126.48,231.16,126.1,229.39Z"/><path class="cls-9" d="M112.07,215.37c-2.27,1.71.33,3.33.09,5l1,0C114.49,218.3,113.74,216.73,112.07,215.37Z"/><path class="cls-1" d="M121.88,237.9c1.34.65,2-1.21,3.21-1.51l0,0,1-2-4,1.12C121.9,236.29,120.66,237.3,121.88,237.9Z"/><path class="cls-5" d="M110.22,234.35c-.23,1.21.5,2.09,1,3,.76-.16,1.69-.3,1.46-1.35C112.44,234.8,111.37,234.45,110.22,234.35Z"/><path class="cls-12" d="M110.1,234.32q0-1,.07-1.92l-2,0C108.14,233.7,108.79,234.32,110.1,234.32Z"/><path class="cls-1" d="M117.29,256.29q-.09-1-.18-1.93C116,255.12,116,255.76,117.29,256.29Z"/><path class="cls-12" d="M105.14,224.39c-3.22,3.67-2.9,6.07,1,7.78C105.67,229.59,107.1,226.77,105.14,224.39Z"/><path class="cls-2" d="M121.08,257.39l4-1c-1.39-1.41-3.27-1.57-5-2A3.48,3.48,0,0,0,121.08,257.39Z"/><path class="cls-2" d="M205.81,132.53c1.57-2.44.9-3.22-1.1-5-1.58-1.41-3.62-3.4-3.64-6.13-3.07.22-2.91-4.34-6-4.07l-.95.06c.58,3.3-1.75,5.56-2.9,8.26-.88,2.08-2.64,3.89-2.18,6.47.14.82-.18,2-1.1,2-6.49,0-4.28,4.35-3.77,7.59.44,2.8,1.15,5.38-1.73,7.41-.69.49-.6,2-1.27,2.61-2,1.81.45,6.37-3.93,6.58-2.71.13-4.89-1.74-7.77-2.78-.29,3.51,3.92,7.12-.48,10q0,1,0,1.93c.59.25,1.49.34,1.71.78,3,5.82,4.85,12.14,7.29,18.18,3.46,8.54-.43,17.12-3.73,25-1.83,4.35-2.82,10-8.47,12-1.57.56-6.63,8.09-6.57,9.77,0,1.39-1.76,2.94,0,4.11,2.3,1.55,4.75,2.87,7,4.5.68.49,3.38-2.06,5.27-3,1.62-.79,1.63-2.4,2.34-3.65,1-1.78,1.87-3.86,4.36-1.63l2-.14a4.83,4.83,0,0,1,4.06-3.84l3-2.13c-.56-1.31-1.84-2.62-.07-4,2-6.11,6.75-9.72,11.86-13l3.19-5c-.07-3.15,3-5.61,2-9-1.67-1.62-1.18-2.57.94-3q0-1,0-2c-2.3-.38-3-2.25-2.86-4,.27-4.46-1.57-8.84.65-13.47,1.78-3.71,0-8.67,4-12.05,1.07-.92,0-3.4-.44-5.19-.72-2.77-1.86-5.73.72-8.28q0-1,0-2c-1.87-2-1.1-3.6.76-5a6,6,0,0,0,.16-.94q0-2.51.09-5C207.17,134.54,204.55,134.49,205.81,132.53Z"/><path class="cls-1" d="M218.55,95c-6.74.29-4-3.6-3.61-6.75.6-4.41-3.43-8.46-6.71-6.5-2.77,1.65-5.84,3.18-7.88,5.92-.61.81-1.34,1.56-.66,2.63,1,1.52,2.63,3.45.42,4.63-1.92,1-2.8-1.72-4.17-2.76a4.1,4.1,0,0,1-1.83-3.85c.22-2.12-.82-3.07-2.9-3-.63,4.15,0,8.47-1.76,12.46a1.94,1.94,0,0,0,.67,2.61c3,.41,1.73,3.07,2.31,4.68,1.42,4,3,7.92,2.65,12.26,3.1-.27,2.95,4.29,6,4.07.66-1.66,1-5.2,3.25-3.29s4.72,2,7.09,2.88c2.11.76,4.85,2.3,6.24-.36s3.69-5,2.39-9c-1.12-3.45-4-7.64.66-11.49C222.15,98.94,220.35,94.88,218.55,95Z"/><path class="cls-12" d="M237.14,35.35c-.07-1.1-.89-1.45-1.65-2.1-4.51-3.88-10.89-4-15.35-7.93-2.37-.3-6.87,1.42-3.85-4,0-.33-.11-.65-.19-1a1.67,1.67,0,0,1-2-1.91l-.06-.07A59.48,59.48,0,0,1,208,16.44c-2.2-.86-5-1.41-4.11,3.06.8,4.13,4.53,7.52,3,12.28-.28.84.16,1.91-.88,2.56-1.27.79-2,.37-2.9-.74-.59-.73-1.79-1-2.76-1.46-.69,3,2.91,3.37,3.43,6.05-2.48-.51-4.17-1.18-4.72-3.49-.24-1-.75-2.06-1.94-1.81s-.75,1.61-1,2.49c-.71,2.28,1.89,5.46-1.85,6.91.34,8.52,2.8,16.9,1.71,25.59,4-4.88,2.64-11.07,4.16-16.52,1.42-3.87,1.89-2,5-2.8,3.44-.88,7.57,4.2,10.06-1.2-1.69-3.65-2.09-7.55-2.34-11.49-.05-.79-.23-2.3.25-2.08,3.5,1.58,6.65-3.14,10.08-.41,3.88,1.16,7.39,2.72,7.73,7.51.28,4,5.27.12,5.49,4.54C238.19,41.49,233.6,38.21,237.14,35.35Z"/><path class="cls-5" d="M246.86,44.93c-1.39.71-.13,2.72-1.41,3.62l-5.33-8.21v0c-1.07-.67-1-1.34,0-2l-1-3-1.94,0c-3.54,2.86,1.05,6.14-.82,10.09-.23-4.42-5.21-.59-5.49-4.54-.34-4.79-3.85-6.35-7.73-7.51.59,1.71.7,3.91,1.85,5.05,4.12,4.07,1.1,7.67-.53,11.17-.62,1.33-1.47,2.42-.33,3.42,1.8,1.59,1.78,4,2.71,5.87,1.45-.44,1.29-1.39,1.3-2.15a2.87,2.87,0,0,1,3.8-2.81c2.31.67.79,2.6.38,4.1s-2.75,2.36-1.48,3.85c2.9,3.38-1.24,3.71-2.18,5.3-.39.66-2.41.17-2.32,1.9s1.46,2.1,2.65,2.67a4.62,4.62,0,0,0,6.17-1.56c4.36-5.72,9.54-11.27,4.73-19.26a4.07,4.07,0,0,1-.19-.46c-.7-1.57-.72-3.3,1.15-3.63s2.15,1.52,2.3,3.06a55.67,55.67,0,0,0,3.12,12.82C248.8,51.53,248.89,47.86,246.86,44.93Z"/><path class="cls-1" d="M192.9,36.32q0-1.84,0-3.68l-7-11.08c-2.7.6-2.46-3.23-4.8-3.17-8.77,4.5-9.39,8.21-2.76,16.46,3.89,4.84,5.31,10.68,6.76,16.51l3-1c0-2.3.66-5-.28-6.82C184.76,37.47,189.34,37.38,192.9,36.32Z"/><path class="cls-5" d="M225,133.33c-2.67-.33-1.7-2.45-2-4-2.76-.49-5.28,1-8,1,.87,5.39-.53,10.31-3,15l-2,2q0,3.5,0,7c1.7-.11,4.09-1.9,4.23,1.79,0,.25,1,.7,1,.68,4.69-6.34,1.52,4.71,5,1.24,2.57-4.2,5.68-9.2-.52-13.86,1.33-2.22,3,1.43,4.24-1.36C227,136.48,227.19,136.58,225,133.33Z"/><path class="cls-1" d="M244.67,72.62c-1.95-.74-4.61-.26-5.13,1.76-1.14,4.44-3.49,2.78-5.93,1.68-1.39,2.74-.42,8.56-6.52,4.9-1.16-.7-1.64.2-2,1.34-2,6.91.35,10.34,7.65,11.09,1.31.14,3.31-.59,2.83,2.08-.4,2.26,1.32,1.88,2.54,1.82,1.88-.1,2.14-1.32,1.5-2.79a6.41,6.41,0,0,1,1.22-7c2.86-3,3.08-6.88,4.69-10.26C246.29,75.7,247,73.51,244.67,72.62Z"/><path class="cls-2" d="M188.11,50.36l-3,1v2c4.36,6.76,2.42,13.64.34,20.5-.08.28-.88.34-1.35.5.72,3.65,1.68,7.29.08,11,1,.19,1.93.47,1.76,1.78-.14,1-1,1.13-1.78,1.28v2c2.94,2,1.2,5,1.41,7.49.27,3.28.79,5.89,4.55,6.52l0-4a1.94,1.94,0,0,1-.67-2.61c1.77-4,1.13-8.31,1.76-12.46q0-1.94,0-3.88a17.14,17.14,0,0,1,.92-7.06c0-4.8-.06-9.61,0-14.41A12.09,12.09,0,0,0,188.11,50.36Z"/><path class="cls-5" d="M205,48.57c-3.06.78-3.53-1.07-5,2.8,1,.17,2.94-.27,2.57,1.37-1.22,5.41,4.05,6.53,5.58,10.73,1.89-3.72-3.3-5.64-1-7.68a32.13,32.13,0,0,1,6.52-4.05c.29-.15.61-.24.89-.4,2-1.12,1.78-2.48.41-4C212.61,52.76,208.49,47.69,205,48.57Z"/><path class="cls-12" d="M208.14,135.38q0,2.51-.09,5c2.15-.09,4.39-.32,4,3q0,1,0,2c2.51-4.7,3.91-9.63,3-15C210.4,128.71,210.86,134.25,208.14,135.38Z"/><path class="cls-12" d="M240.13,40.37v0h0Z"/><path class="cls-12" d="M242.18,33.49c-1.54-.26-2.95-.29-3.1,1.82l1,3q0,1,0,2l2,0c.13-2,1.59-2,3-1.91C245.52,35.93,242.12,35.75,242.18,33.49Z"/><path class="cls-1" d="M191.2,81.43c3.23-2,2.22-4.5.92-7.06A17.14,17.14,0,0,0,191.2,81.43Z"/><path class="cls-12" d="M225.12,129.32l-.1-1a2.15,2.15,0,0,0-1.93,1c.25,1.52-.72,3.64,2,4C225,132,224.19,130.64,225.12,129.32Z"/><path class="cls-5" d="M242.09,40.31c2.64,2,2.54-.46,3-1.91C243.68,38.35,242.22,38.28,242.09,40.31Z"/><path class="cls-4" d="M39.14,43.41l-2,4c2.6,5.2-2.57,7.83-3.4,11.9-1.54-1.94.48-3.51-.21-5.58-2.59.35-3.92,2.73-6,3.81-1.12.59-2,2.35-3.36,1.5-1.85-1.2.52-2.12.67-3.26.11-.82.19-1.64.28-2.46-1.48,0-2.18,1-3.11,2-3.19,3.36-2.67,7.88-4,11.81,2.86,2.76,5.3,6,10.31,3.84,2.28-1,1.5,1.72,1.73,3,.29,1.59-2.83,2.36-1,4.31l1-.95c.59-1.8,1.7-2.48,3.7-2.3,2.31.21,1.09,2,1.66,3a8.53,8.53,0,0,1,1.31,3.72C36.89,85.9,39,84.31,41,83.32c.11-6.67,1.74-13.26,1.11-20-3.88-3.53-1.92-7.57-.89-11.46a18.69,18.69,0,0,1,1.66-3C45.13,44.17,44.68,43.52,39.14,43.41Z"/><path class="cls-12" d="M30.06,74c-.23-1.26.55-4-1.73-3-5,2.17-7.45-1.07-10.31-3.84-1.78.33-2.23,2-3.07,3.18.32,1.69-.08,2.7-2,3.13a5,5,0,0,0-3.72,4.63c-.4,4.26-2.84,7-6.07,9.27,3.72,1.19,7.6-1.24,8.93-5.61.31-1-.47-2.74,1.17-2.83s1.79,1.57,1.9,2.9c.1,1.16.09,2.7,1.85,2,1.26-.52,3.31.35,3.73-1.68.2-1-1-2.53,1-2.53,1.51,0,1.12,1.84,1.84,2.62,1.1,1.21-.59,2.93,1.22,4.4,1.5-2.89,5.75-4,4.22-8.35C27.22,76.31,30.34,75.54,30.06,74Z"/><path class="cls-12" d="M36.73,81.74A8.53,8.53,0,0,0,35.41,78c-.57-1,.65-2.8-1.66-3-2-.18-3.11.5-3.7,2.3,3.25.9,4.13,3,3,6.05h0c2.5,3.43,2.94,7.57,3.87,11.57L40,93.34c1.74-3.21,1-6.65.91-10C39,84.31,36.89,85.9,36.73,81.74Z"/><path class="cls-12" d="M30.52,85.15c-.13.79.61,1.18,1.28,1,1.55-.35,1.19-1.71,1.31-2.8h0C31.88,83.45,30.75,83.78,30.52,85.15Z"/><path class="cls-4" d="M164.06,10.22l-3.93,2.28c-.57,3-3.42,5.74-1.2,9.16.16.25-.22.91-.44,1.33-1.66,3.31-5.19,3.5-8.07,4.26-2.68.71-3.28,6.53-7.52,3a1.7,1.7,0,0,0-1.23-.07c-1.15,4.11-3.54,1.76-5.6,1.1h-3c-3.38-.08-7.33.67-7.1-4.77-1.58.41-2.9,2.79-4.85.4-1.35-1.65-2.21-.43-2.78.92s-1.2,3-1.92,4.81c-.48-3.7-2.59-3.59-5.29-2.84-6,1.67-12.15,3-16.12,8.55.7,3.24,3.26,1.63,5.07,1.95-.92-4,2.77-2.28,4.12-2.9,5.78-2.68,9.41.33,8.85,6.92h1.93c-.49-4.4,2-7,5.51-8.89,2.48-1.36,6,.6,6.29,1.17,2.19,3.8,5.27,2,7.78,1.56a9.72,9.72,0,0,1,6.73,1.21c3.2,1.59,6.6,1.83,9.85-.44,1-.7,1.75-2.15,3.33-1.8,2.83.64,3.64-.27,2.72-3.08-.49-1.48.4-2.18,2-2.76,4.72-1.72,5.64-4,3.33-8.68-1.75-3.52-1.27-5.87,2.54-7.26q0-.45.08-.9c.49-1.32,1.16-2.6.88-4.08Z"/><path class="cls-10" d="M95.09,38.36c-1.05-.32-3.67.85-2-2.11a19,19,0,0,0,1.8-3.86c.47-1.53,1.53-3.6-2-2.25-1.91.74-2.74-1.16-3.1-2.88-2.53.3-1.12,3.22-2.74,4.12q0,.5,0,1c2.18,2.25,1.73,4.52-.12,6.62-3.15,3.58-4.48,8.89-9.82,10.4a2.93,2.93,0,0,0-.22.8,1.74,1.74,0,0,1-1.65,2.25l-.1.13c.65,2.88,2.14,1.64,3.54.7a26.29,26.29,0,0,1,9.38-3.9c1.74-1.24,3.51-2.39,5.8-2.19.55-1.83,2.42-1.93,3.64-2.88s4.18-1.11,2.62-4C98.34,40,95.78,41.59,95.09,38.36Z"/><path class="cls-10" d="M158.52,11.73c-2.3,2.8-4.25,5.8-4.44,9.6-.21.93.5,2.54-1.16,2.44-1-.06-.69-1.48-.8-2.35-4.23-1-6.54,2.7-9.69,4.23-2.5,1.21-5.92,1.9-6.35,5.64,2.06.66,4.44,3,5.6-1.1a1.7,1.7,0,0,1,1.23.07c4.24,3.51,4.84-2.3,7.52-3,2.87-.76,6.41-.95,8.07-4.26.21-.43.6-1.09.44-1.33-2.22-3.42.63-6.14,1.2-9.16C159.92,11.54,159.78,10.2,158.52,11.73Z"/><path class="cls-4" d="M90,15l-1.89-.47c-.17,6.31-4.73,2.85-7.29,3-3.54.19-7.48-1.45-8.86,3.68l4.1-.8c3.22-.59,5.33,2.22,8.24,2.71,1.43.24,1.47,1.21.54,2.57-1.91,2.79-.52,4.61,2.28,5.69,1.62-.9.21-3.82,2.74-4.12l.1-1.89c-2.63-2.06-.82-4,.14-6C88.3,18,90.61,16.44,90,15Z"/><path class="cls-10" d="M126,26.52c-.23,5.45,3.72,4.69,7.1,4.77l2-4.91,0,0Z"/><path class="cls-10" d="M90.13,19.36c-1,2-2.77,3.94-.14,6C93.3,23.44,93.18,21.43,90.13,19.36Z"/><path class="cls-4" d="M152.12,21.43c.11.86-.24,2.28.8,2.35,1.66.1,1-1.51,1.16-2.44Z"/><path class="cls-7" d="M94.86,22.82c.09.13.15.35.27.38a1.59,1.59,0,0,0,2-.79l-.1-.12Z"/><path class="cls-10" d="M135.12,26.39l.4-.44-.43.4Z"/><path class="cls-3" d="M76.11,29.36c-1.81-1.34.41-2.66,0-4a16.26,16.26,0,0,0-7.22,1.18C67.54,27,66.15,28,65,26.18l-3.88,1.39,0,2.81c1.6-.29,3.31-1.09,4.78-.76,2.32.52,5.55.6,6.43,3,1.28,3.56-.55,6.8-2.72,9.79-2.41,3.32-4.92,6.65-5.48,10.93-.4,3.06-2.88,5.66-2,9,2.84-1.07,3.17-3.87,4.12-6.17,1.53-3.66,3.54-6,7.84-3.84l1.13.2.11-.13A1.81,1.81,0,0,1,77,50.19a2.86,2.86,0,0,1,.21-.8l0-4c-1.57-3.22-1-6.22,1-9.05C75,34.77,74.6,32.35,76.11,29.36Z"/><path class="cls-11" d="M58.09,35.37l-.06-2-3.41-.15-1.46.29c.66,1.65,2.28,3.41-1.17,4.08a4,4,0,0,0-2.94,3.67c1.48,4.27-1.47,7.85-1.92,11.84-.15,1.37-1.13,2.68-1,4.2h0c2.66-.74,3.78-4.18,7-4l0,0c0-1.38.69-2,2.08-1.87L58,50.24c-.48-3.59-.75-7.23-1.51-10.76C56.1,37.53,56.29,36.26,58.09,35.37Z"/><path class="cls-10" d="M39.14,43.41c5.54.11,6,.76,3.69,5.49a18.69,18.69,0,0,0-1.66,3c-1,3.9-3,7.93.89,11.46l1.13-6a30.66,30.66,0,0,1,5.86-16.06A4,4,0,0,1,52,37.64c3.45-.67,1.83-2.44,1.17-4.08C46.56,32.26,41.15,36.05,39.14,43.41Z"/><path class="cls-10" d="M35.78,46.91a9.65,9.65,0,0,0,1.44-6.4c-4.73,4.36-10.7,6.26-12.12,12.8-.09.82-.17,1.64-.28,2.46-.15,1.13-2.52,2.06-.67,3.26,1.32.85,2.24-.91,3.36-1.5,2.07-1.09,3.39-3.47,6-3.81.69,2.07-1.33,3.63.21,5.58.83-4.08,6-6.7,3.4-11.9C36.6,47.23,34.91,48.36,35.78,46.91Z"/><path class="cls-5" d="M76.08,20.41l-4.1.8c-1.48,2.84-5,2.77-7,5,1.13,1.83,2.52.86,3.89.37a16.26,16.26,0,0,1,7.22-1.18C78.24,23.69,75.87,22.06,76.08,20.41Z"/><path class="cls-5" d="M54.63,33.27l3.41.15a2.94,2.94,0,0,1,3.07-3l0-2.81C57.83,28.17,56,30.44,54.63,33.27Z"/><path class="cls-3" d="M181.1,18.39c-.86-2.05-1.9-4-4-5.09-4.4-3.86-7.95,1.2-12,1.15q0,.45-.08.9c2.51.93,5.17,1.58,5.25,5.14,0,.76.62,1.65-.23,2.1-4.28,2.32-2.09,4.36.1,6.61s2.18,5.22,1.88,8.16c4.13,1.23,5.52,4.86,7,8.28,1.15,2.7,2,5.51,4.05,7.72h2q0-1,0-2c-1.44-5.84-2.87-11.68-6.76-16.51C171.71,26.6,172.34,22.89,181.1,18.39Z"/><path class="cls-12" d="M176.18,7.42a17.08,17.08,0,0,0-10.13,3c.28,1.48-.39,2.77-.88,4.08,4,.05,7.58-5,12-1.15C176.82,11.35,175.71,9.51,176.18,7.42Z"/><path class="cls-10" d="M192,23.55c-2.4.43-3.07-4.45-6.13-2l7,11.08C196.31,29.27,190.94,26.7,192,23.55Z"/><path class="cls-10" d="M195.15,12.36c-.08,1.2-2.49,1.78-1,3.34,1.22,1.28,2.39.56,3.91.08,2.39-.75,3.73-1.88,4.09-4.28C199.66,10.5,197.7,13.85,195.15,12.36Z"/><path class="cls-12" d="M88.11,49.37c-.36,1.74,1.27,4.57-2.52,4.47-.41,0-1,.83-1.22,1.39-.62,1.63.32,4.5-2.86,4.08-3-.39-6.31-.52-7.69-4.1-2.33.58-1.55,2.6-1.9,4.1-1.16,6.16-1.16,6.16,6.13,6,3-1.93,6.29-3.53,8.92-5.88a17.46,17.46,0,0,0,5-8.31c.36-1.29.35-2.66,2.12-2.8q0-.47,0-.95l-.19-.18C91.62,47,89.84,48.14,88.11,49.37Z"/><path class="cls-4" d="M88.11,49.37a26.29,26.29,0,0,0-9.38,3.9c-1.39.94-2.89,2.17-3.54-.71l-1.13-.2q-.13,1.42-.25,2.84c1.37,3.58,4.7,3.71,7.69,4.1,3.18.42,2.23-2.45,2.86-4.08.21-.56.82-1.4,1.22-1.39C89.37,53.95,87.75,51.12,88.11,49.37Z"/><path class="cls-3" d="M71.91,59.3c-3-.06-3.23,1.91-2.61,4a27.17,27.17,0,0,1,1,12.36c2.23.69,1.33-5.61,4.8-2.16l1-1.1c-.46-2.65,2-4.52,1.92-7.06C70.75,65.46,70.75,65.46,71.91,59.3Z"/><path class="cls-12" d="M258.14,148.31c-1.61-.56-2.56-4-3.32-6-1.08-2.92-.39-3.18-3.74-1.83,2.47,4.13,3.17,9.13,6.71,12.77,1.77,1.82.41,2.89-1.63,3.22q0,1,0,1.92c3.42.55,5.39,2.28,4.93,6h.16q2-5.48,3.68-11.15C262.95,151.34,261,149.31,258.14,148.31Z"/><path class="cls-12" d="M261.11,164.38v0h0Z"/><path class="cls-10" d="M124.77,118.19c-1.73-1-3.46-1.81-2-4.08,4.6-7.08,2-15.18,3.35-22.7-2.37,1.67-3.6,3.94-4.86,6.63-1.53,3.28-1.42,6.3-1.65,9.57-.07,1-.37,5.05-4.13,3-1.27-.71-3.16.2-3.91,1.51-2.39,4.2-5.33,1.64-7.24.15s-5.14-4-1.44-7.26a3.39,3.39,0,0,0,1.12-2.61c-1-5.05,2.95-9.58,1.19-14.79-1.13-3.34,2.17-4.6,4.37-5.73,2-1,4.56-3.34,6.71.18a2.47,2.47,0,0,0,2.1,1.09c7.08.36,7.07.38,7.76,8.28,4.8-1.22,1.84-5.16,2.42-7.71.54-2.4-3.36-4.89-.63-7.86a1.74,1.74,0,0,0-.76-1,1.47,1.47,0,0,0-1.27.47c-1,1.36-1.35,4.5-3.65,1-.09-.14-.9,0-1.22.21-4.49,3.08-6.39.44-7.78-4.52-1.34,3.82-3.64,5.72-6.11,7.46-.93,1.07-1,3.08-3.12,2.85l-4,4.09c-.13,2.67-3,4.24-2.83,7,1.59,1.32,4.14,2.28,1.84,5l-.91,2c.37,3-.77,5.84-1,8.77-.21,2.65-1.81,3.25-4,3.25-.8,3.5,1.84,6.39,1.3,10.15-1.07,7.45,6-2.06,6.67,2.77l3,.06,5.08-.33-.06-2.67c-1.27-2.69-.75-6.12,1.72-6.31s3.07,3.48,3.17,6.12c1,1.44,3.95-1.22,4,2a1.32,1.32,0,0,0,.49,0c6.89-2.32,7.31,2.28,7.55,7.06,1.82.72,2.56,3.05,4.77,3.17.1-1.85-.56-3.5.62-5.59C133.55,125.29,131,121.61,124.77,118.19Z"/><path class="cls-6" d="M131,134.56l-.15-.07c-2.22-.11-3-2.45-4.78-3.17l-11-.16a30,30,0,0,1-8.8,2.3c-3.15,3.32-6.24,2.89-9.3-.14l-1-1.1c-1.81,3.17-4.33,6.07-4,10.09l.19.16.69-.15a23.14,23.14,0,0,1,12.55-4.13c4.63-.14,9.36-1,14.23-.11,4.41.84,7.29,2.69,9.47,6.26a6.14,6.14,0,0,0,.69.25c2.33-1-.19-4.84,3.09-5.31l.2-1.86C132.56,136.38,131,136.08,131,134.56Z"/><path class="cls-13" d="M92.76,143.34l-.55-.87-.19-.16c-5.85,3.74-8.6,9-7.95,16,1.43.74,3,1.48,3-1.15,0-2.32-.25-4.33,3.16-3,.38.14,1.22-.93,1.85-1.44l.4-3.46a1.17,1.17,0,0,1,0-.85c-1-1.85.59-3.28.83-4.94Z"/><path class="cls-15" d="M107.33,130l-.24.39h0Z"/><path class="cls-15" d="M107.88,127.36c-1.54,0-3.43.47-3.77-1.94l-3-.06c-.54,1.33-1.61,1.76-3,2.06-2.73.6.34,1.24.06,1.9l8.92,1.07h0l.24-.39-.22.41h0l-.77,3.09a29.94,29.94,0,0,0,8.81-2.3A9.45,9.45,0,0,0,107.88,127.36Z"/><path class="cls-4" d="M95.18,102.71c.49,3.28-2,3.69-4,4.66q0,2.63.09,5.26l1-.24c.26-.64.54-.61.83,0l.07.06c2.21,0,3.82-.6,4-3.25.23-2.93,1.37-5.76,1-8.77C96.48,100.32,94.87,100.62,95.18,102.71Z"/><path class="cls-7" d="M98,130.35c.08,1.12.25,2.27-1,3,3.05,3,6.15,3.46,9.29.14l.77-3.09-8.92-1.07Z"/><path class="cls-7" d="M107.09,130.36h0Z"/><path class="cls-15" d="M89.72,131.91c-1.33-.53-1.63.69-2.08,1.5-1.24,2.2.07,4.09,1,6.77.83-2.45,1.38-4.16,2-5.84C91,133.24,90.81,132.34,89.72,131.91Z"/><path class="cls-15" d="M96,132.22l1,1.11c1.22-.7,1-1.85,1-3Z"/><path class="cls-10" d="M92.22,112.39h.41l.41,0C92.75,111.78,92.48,111.75,92.22,112.39Z"/><path class="cls-9" d="M43.19,57.37a2.51,2.51,0,0,1,2.92,0c-.11-1.52.87-2.83,1-4.2.44-4,3.4-7.57,1.92-11.84A30.66,30.66,0,0,0,43.19,57.37Z"/><path class="cls-9" d="M53.26,55.41l-.15-2c-3.2-.22-4.32,3.22-7,4-.54,3.84,1.6,5,5,5C50.85,59.75,53.88,58.15,53.26,55.41Z"/><path class="cls-1" d="M129.85,144.59a6,6,0,0,1-.69-.25c-11.94-1.74-23.86-3.76-35.92-.94-.23,1.65-1.8,3.08-.83,4.94,1.27.21,2.76-.33,3.7,1a6.32,6.32,0,0,0,2.16-.94c1.3-1.36,1-4.86,4.07-3.72,2.82,1,4.2,3.5,3.76,6.68,1.55,1.63.87,2.4-1,3.12a14.81,14.81,0,0,1-7.26.66q.26,2.06.52,4.12l1.66,1.06a6.92,6.92,0,0,1,4,1.05c5.67,1.52,11.35.63,17,0,1.35-.59,2.15-2.22,3.9-2l.5-3a50.29,50.29,0,0,1-6.55-1.36c-.7-.24-4-.81-.85-2.73-1-2.17-3.68-4.57.19-6.38,3-1.41,5.42-.82,6,3.12.22,1.5,1.71,1.21,2.82,1.3,1.23-.83,1.48-2.67,3.14-3.07q0-.49,0-1Z"/><path class="cls-10" d="M96.32,151.25l-.11-.12c-2,.84-2.86-.62-3.76-1.94q-.19,1.73-.39,3.45c1,3.25,2.35,6.23,6.35,6.65l-.52-4.12C99.07,153.19,95.69,153,96.32,151.25Z"/><path class="cls-3" d="M232.53,145.55c-.7-.44-1.51-1.08-.49-1.88,4.18-3.31,1.72-6.36-.44-9.25a15.54,15.54,0,0,1-2.55-6.37l-3.93,1.27c-.93,1.32-.12,2.67-.08,4,2.15,3.25,1.93,3.15-.92,9.52-1.25,2.79-2.91-.86-4.24,1.36,6.2,4.66,3.09,9.66.52,13.86-3.53,3.47-.36-7.58-5-1.24,0,0-1-.43-1-.68-.14-3.68-2.54-1.9-4.23-1.79-.27,5,.7,10.1-1.71,14.88-.52,1,.32,1.78,1.48,2.09,3.5.94,2.79,3.52.88,4.67-6.18,3.73-6.75,9.16-5.67,15.38q0,1,0,2c0,1.11.22,2.27-.94,3,1,3.36-2.07,5.82-2,9,5.14-4.65,9.17-10.23,12.91-16,2.91-4.49,6.61-8.61,7.8-14.07-.52-.35-1.5-.72-1.48-1a42.54,42.54,0,0,1,4.87-16.88,8.64,8.64,0,0,0-.42-2.44,3.35,3.35,0,0,1,1.75-4.6c1.58-.62,1.71,1.94,2.63,3l3.81-1,.21-1.8C234,148.72,234.44,146.76,232.53,145.55ZM227.32,133l-.84-.37.37-.84c.28.12.72.19.79.38S227.44,132.73,227.32,133Z"/><path class="cls-1" d="M65.88,29.6c-1.46-.32-3.18.47-4.78.76a2.94,2.94,0,0,0-3.07,3l.06,2c.22,2.83,2.38,4.53,3.82,6.66s3.72,4.42-.94,5.66c-1,.28-.84,1.63-.88,2.59.73,1.82,1.58,3.49,4,3.09.56-4.28,3.07-7.61,5.48-10.93,2.17-3,4-6.23,2.72-9.79C71.43,30.21,68.2,30.12,65.88,29.6Z"/><path class="cls-9" d="M58.09,35.37c-1.81.89-2,2.16-1.57,4.12.76,3.53,1,7.16,1.51,10.76l1,.14,1-.09c0-1-.16-2.31.88-2.59,4.66-1.25,2.35-3.58.94-5.66S58.31,38.2,58.09,35.37Z"/><path class="cls-1" d="M55.21,51.49a1.85,1.85,0,0,1-2.08,1.87l0,0q.08,1,.15,2c3.3-.1,5.14-1.89,5.82-5l-1-.14Z"/><path class="cls-1" d="M104.09,173.38h0v0Z"/><path class="cls-1" d="M132,176.38c-4.72.33-8.93-1.9-13.13-3.3-3.44-1.15-6.5-1-9.79-.72a8.27,8.27,0,0,1-5,1c-.29.56-.61,1.58-.88,1.57-5.36-.23-8.19,4.26-12.21,6.47,1.06,4.83,3.73,7.62,9,7.09l4.06-1.09.09-.08c.28-.54.58-.55.9,0l1.82-.88,3.15-3.24c1.39-2.69,3.55-2.67,6.09-1.92,3.24,1,6.35,2.56,9.89,2.13,2.65-3.32,5.32.15,8,0C139.48,179.33,134.13,178.31,132,176.38Z"/><path class="cls-3" d="M132.37,161.43c-1.24-1.7-2.72-.36-3.9.35-2.58,1.55-5.06,3.36-7.33-.36-5.67.62-11.35,1.51-17,0-.48,4.21-.43,4.33,3.1,7.6a4.64,4.64,0,0,1,1.91,3.35c3.29-.27,6.35-.43,9.79.72,4.21,1.41,8.42,3.64,13.13,3.3a3.35,3.35,0,0,0,2-2c-1.13-1.28-3-2.29-.77-4.37.83-.78.76-2.44,1.3-3.61C135.78,163.83,133.42,162.87,132.37,161.43Z"/><path class="cls-1" d="M104.09,173.38l0,0h0Z"/><path class="cls-1" d="M103.22,170.89c-.19-.07-.85.46-.9.77-.21,1.33.75,1.57,1.77,1.7C104,172.46,104.39,171.35,103.22,170.89Z"/><path class="cls-12" d="M100,86.34,97.3,86.2c-.91,2.26-1.05,6.34-4.26,5.18-2.33-.85-1.95-4.54-.15-7,.32-.45.14-1.26.2-1.91l-1-.07c-2.9-1.26-6.19,1-9-1-3.75-1.12-4.36-3-2-6.11-.33-3.31-2.2-3.92-5-2.89l-1,1.1c1.48,4.57-1.42,9.43.94,13.93,3.08-1.73,6.43-.81,9.66-1,1.65-.1,2.14,1,2.68,2.32,1.68,4.07,2.56,8.14.66,12.37a13.44,13.44,0,0,0-.93,6.26l3.07,0c2-1,4.5-1.38,4-4.66-.31-2.08,1.29-2.38,2.95-2.3l.91-2c-2.36-1-3.85-2.39-1.84-5C97.06,90.58,99.9,89,100,86.34Z"/><path class="cls-3" d="M84.58,89c-1.46-1.4-3-.37-4.42.63a8.64,8.64,0,0,1-2.29.79c1,5.22.49,10.75,3.07,15.66,1.46,2.25-1.08,6.26,3.18,7.29,2-1.56,0-4.47,2-6,.33-4.4-.62-8.86.84-13.23C87.67,91.93,85.95,90.33,84.58,89Z"/><path class="cls-5" d="M85.69,86.39c-3.24.19-6.59-.73-9.66,1,.12,1.31-.14,2.85,1.83,3.05a8.64,8.64,0,0,0,2.29-.79c1.42-1,3-2,4.42-.63s3.09,2.91,2.36,5.1c-1.46,4.37-.51,8.82-.84,13.23h2a13.44,13.44,0,0,1,.93-6.26c1.9-4.24,1-8.3-.66-12.37C87.83,87.4,87.34,86.29,85.69,86.39Z"/><path class="cls-9" d="M80.93,106.1c-4.59.58-2.43-6-6.58-6l-.45,3.27a56.39,56.39,0,0,1,4.37,10.93c1.48.06,3,.12,2.64,2.27q0,1,.07,1.93c2.82-.62,2.42-3.21,3.14-5.12C79.85,112.36,82.4,108.35,80.93,106.1Z"/><path class="cls-4" d="M216.29,21.29c-3,5.46,1.47,3.73,3.85,4A5.72,5.72,0,0,0,216.29,21.29Z"/><path class="cls-4" d="M214.14,18.4a1.67,1.67,0,0,0,2,1.91A1.71,1.71,0,0,0,214.14,18.4Z"/><path class="cls-3" d="M100.15,195.37c.37,1.66-2.94,4,.93,5,.15-.8,0-1.86.49-2.37C103.82,195.56,102.14,195.43,100.15,195.37Z"/><path class="cls-3" d="M100.2,190.39l3.84-1.05,0-1.92L100,188.5Z"/><path class="cls-3" d="M101.16,204.4c-1.8,1.62-.12,2.21.89,3C102.05,206.31,102.28,205.16,101.16,204.4Z"/><path class="cls-3" d="M102,201.46a4.55,4.55,0,0,1,0,.84C102.84,202,102.81,201.71,102,201.46Z"/><path class="cls-11" d="M78.27,114.31l-.17,1.07,2.82,1.2C81.23,114.43,79.75,114.37,78.27,114.31Z"/><path class="cls-8" d="M169.14,195.57c1-.7.73-1.75-.08-2.55-2.37-2.34-1.65-5-.85-7.69-3.37-1.1-2.32-3-.9-5-.2-2.38.14-4.87-1.46-7l-2.8,1c.56,3.31,3.41,7-1.4,9.51-.27.14-.38.93-.28,1.35,1.22,5,1.24,5-4.36,7.61.87,2.76,3.74,2.09,5.7,3.07-.77,2.69-4.08.32-4.84,3a30.35,30.35,0,0,1,4.14,1c1.35.51,4,0,1.64,3.35-.74,1.06-.23,3.91-2.79,3.87-3.29-.06-5.66-1.74-7.46-4.85-2.83-4.9-7.08-9-8.27-14.83-3.74,1.21-4.45,5.95-2.23,10.3,3.86,7.53,9,14.23,13.31,21.45,1.68-.56,3.1-.41,3.9,1.43a4.49,4.49,0,0,0,3-1.26l.1-1.11-.53-.83c-1.69-.13-2-1.62-2.49-2.75-.6-1.46-3.74-1.76-2.44-3.63s2.32.87,3.6,1.23c3.66,1,3.49-2.63,4.92-4.14.5-.53.48-1.67,1.68-1.69a3.68,3.68,0,0,1,1.92-2.24c0-1.45.82-3.27-.49-4.24C167.37,198.42,166.63,197.3,169.14,195.57Z"/><path class="cls-11" d="M156.22,219.18c-3.24,1-5.55.82-7.88-2.62s-4.32-7.1-7.94-9.38c-3.66,5.09-1.24,10.54-.46,15.69.26,1.71,1.11,3.57,1.16,5.49,1.12,1.91,3.35,2.68,4.65,4.23,2.08,2.47,3.38,3,4.57-1.44l2.63,8.4c.05-4.38.18-7.42-.43-10.55-.57-2.94.17-5.9,4.32-5.18,2.88.5,2.68-1.65,3.27-3.22C159.32,218.77,157.9,218.62,156.22,219.18Z"/><path class="cls-9" d="M140.4,207.17l-1-1.8c-3.42-.82-2.58,3.95-5.3,4.05l1.15,14c1.92,1.59-.24,4.47,1.89,6l4-1c-.05-1.93-.9-3.78-1.16-5.49C139.16,217.71,136.74,212.26,140.4,207.17Z"/><path class="cls-12" d="M170,182.4l-1.82,2.93c-.8,2.68-1.52,5.34.85,7.69.81.8,1.1,1.85.08,2.55-2.51,1.73-1.77,2.85.3,4.37,1.32,1,.5,2.79.49,4.24,3.23.28,3.81-2.66,3.6-4.31C172.81,194,172.17,188,170,182.4Z"/><path class="cls-11" d="M135.23,223.4c-1.84,1.16-.44,4.35-3.12,5l-.41.42c0-.09,0-.21.06-.26a1.32,1.32,0,0,1,.33-.17c-2.37-1.86-4.36-1.47-6,1,.37,1.77,3.22,1.81,2.85,4.09q.08.47.12.94l1.09,0a6.68,6.68,0,0,1,5-1,4.78,4.78,0,0,1,1-.14,6.68,6.68,0,0,1,1-4C135,227.86,137.15,225,135.23,223.4Z"/><path class="cls-13" d="M168,206.42c-1.2,0-1.17,1.16-1.68,1.69-1.44,1.51-1.26,5.17-4.92,4.14-1.29-.36-2.33-3.07-3.6-1.23s1.84,2.17,2.44,3.63c.47,1.14.8,2.63,2.49,2.75,1.5-3.11,6.57-2.56,6.77-8C169.59,207.12,168.59,207.32,168,206.42Z"/><path class="cls-12" d="M168.93,167.36q0-1,0-1.93l-4.72-.12c-.53,2.91,1.95,5.22,1.61,8.09,1.59,2.09,1.26,4.58,1.46,7l3,0c1.18-.82,1.48-1.41.8-3.14C169.87,174.14,166.84,171.23,168.93,167.36Z"/><path class="cls-3" d="M135.19,233.51a6.68,6.68,0,0,0-5,1c-.39.64-.75.64-1.09,0q0-.47-.12-.94c-1.05-.07-2.14-.25-2.83.86l-1,2c1.69-.07,3.77.13,4.35,1.57,1.2,3,3.46,2.37,5.64,2.45C135.63,238.1,138.34,235.84,135.19,233.51Z"/><path class="cls-2" d="M136.15,233.37a4.88,4.88,0,0,0-1,.14c3.15,2.33.44,4.59-.08,6.87.26,2.15-.56,4.47.93,7.08,2.44-3.86,2-7.86,3.33-11.3C141.09,231.74,138.5,232.81,136.15,233.37Z"/><path class="cls-10" d="M168.22,185.33,170,182.4q.13-1,.26-2l-3,0C165.9,182.32,164.84,184.23,168.22,185.33Z"/><path class="cls-13" d="M163.27,218.23l-.1,1.11c.4-.09,1.1-.1,1.14-.28C164.51,218.24,163.74,218.39,163.27,218.23Z"/><path class="cls-1" d="M180.13,233.31c2.35-.22,4.16-1,4.06-3.84A4.83,4.83,0,0,0,180.13,233.31Z"/><path class="cls-1" d="M187.08,223.37c-1.78,1.35-.5,2.66.07,4C189.57,226,189.47,224.66,187.08,223.37Z"/><path class="cls-14" d="M237.71,158.3c-.75-.86-2.43-1.8-.21-2.93q-.24-2-.47-4l-2.84-.91-.21,1.8q.39,3.53.79,7.06l3.42,4.27,3.13-.25C241,161,239.08,159.88,237.71,158.3Z"/><path class="cls-4" d="M227.55,150.32a3.35,3.35,0,0,0-1.75,4.6,8.64,8.64,0,0,1,.42,2.44l1.73-.07,1.16.08,1,0,0,0q0-2,.05-4C229.25,152.26,229.13,149.7,227.55,150.32Z"/><path class="cls-3" d="M228,157.29l.34,2.31h.57l.24-2.23Z"/><path class="cls-4" d="M230.12,157.35l0,0,.44.39Z"/><path class="cls-3" d="M261.28,164.37l-.18.49c.18,1.17,1.46,1.57,2,2.46l1-1A3.09,3.09,0,0,0,261.28,164.37Z"/><path class="cls-8" d="M128.77,204.79a15.54,15.54,0,0,0,.24-4.43c0-.88-.37-1.71-1.36-1.74s-1.31.74-1.5,1.63.46,2.24-.61,3.11c-.13-.16-.32-.29-.33-.42-.48-6-.47-5.94-5.67-5a7,7,0,0,1-2.4-.45c-.11,1.29.85,2,1.43,3,5.4,9,5.4,9.15,1,17.64-.51,1-1.09,2-1.64,3,2.4.51,1.28,2.29.93,3.34-.76,2.29.17,2.89,2.18,2.89.16-.29.31-.59.5-.86,2.09-2.94,6-3.5,7.79-7.62,1.05-2.48,2.14-4.33.62-6.24C127.94,210,127.87,207.67,128.77,204.79Z"/><path class="cls-2" d="M134,183.37c-2.66.17-5.33-3.3-8,0,.07,3.31,3.43,5.61,2.81,9.14l.08.12c2.59-.17,2.2,1.41,1.77,3l.48,1.7c2.89,1.24,2.53,3.59,2,6,.07,2.06,0,4.14.89,6.08,2.72-.11,1.88-4.87,5.3-4.05-1-4.69-3.23-9.06-3.56-13.92C132.6,189.35,134.74,186,134,183.37Z"/><path class="cls-9" d="M116.13,181.26c-2.55-.75-4.71-.77-6.09,1.92,4.16.2,7.91.55,11.47,3.8,2.12,1.93,4.09,4.8,7.33,5.55.62-3.53-2.73-5.83-2.81-9.14C122.48,183.82,119.36,182.21,116.13,181.26Z"/><path class="cls-2" d="M108,188.5l-1.11-2.08-1.82.88-.45,0h-.45l-.09.08,0,1.92c-.17,2.07,2.6,3.18,1.8,5.47-1.24,3.55,1.64,2.21,3.08,2.57C110.11,194.26,105.37,191.76,108,188.5Z"/><path class="cls-9" d="M131.16,197.37a7.79,7.79,0,0,0,2,6C133.69,201,134.05,198.61,131.16,197.37Z"/><path class="cls-8" d="M115.16,194.46c-.08,1.39-.15,2.78,1.83,2.86C117.17,195.87,117.19,194.51,115.16,194.46Z"/><path class="cls-9" d="M128.91,192.65c0,1.34.29,2.53,1.77,3C131.12,194.07,131.5,192.49,128.91,192.65Z"/><path class="cls-1" d="M189.23,108.16a8,8,0,0,0,.86-3.8c-3.76-.62-4.28-3.23-4.55-6.52-.21-2.48,1.53-5.49-1.41-7.49a7,7,0,0,1-1,4l-.33,3.37,1.5,8.62c1.9,4.46.63,8.42-1.92,12.18.17,3.71-2.44,6.11-4.2,8.9-1.79,4.89-2.69,10.44-9,11.95l0,0-.7,1c-.11,5.91-1.17,11.51-5.22,16.16l1,8.74,4.72.12c4.4-2.84.19-6.45.48-10,2.88,1,5.06,2.91,7.77,2.78,4.38-.21,1.89-4.76,3.93-6.58.67-.6.58-2.12,1.27-2.61,2.88-2,2.17-4.61,1.73-7.41-.51-3.25-2.73-7.63,3.77-7.59.92,0,1.24-1.15,1.1-2-.45-2.58,1.3-4.39,2.18-6.47,1.15-2.7,3.48-5,2.9-8.26C188.41,115.67,187.11,113.29,189.23,108.16Z"/><path class="cls-1" d="M209.86,171.34c-1.16-.31-2-1.05-1.48-2.09,2.41-4.78,1.43-9.89,1.71-14.88q0-3.5,0-7l-3,1c-2.57,2.55-1.44,5.51-.72,8.28.47,1.79,1.52,4.28.44,5.19-4,3.38-2.2,8.34-4,12.05-2.22,4.63-.39,9-.65,13.47-.11,1.78.55,3.65,2.86,4-1.08-6.21-.51-11.64,5.67-15.38C212.65,174.86,213.36,172.28,209.86,171.34Z"/><path class="cls-3" d="M190.11,100.37q0,2,0,4a8,8,0,0,1-.86,3.8c-2.12,5.12-.82,7.51,4.88,9.22l.95-.06c.32-4.34-1.22-8.31-2.65-12.26C191.83,103.44,193.15,100.78,190.11,100.37Z"/><path class="cls-1" d="M207.89,141.34c-1.87,1.43-2.63,3-.77,5l1.86-1C209,143.93,209.59,142.32,207.89,141.34Z"/><path class="cls-3" d="M209,145.36l-1.86,1q0,1,0,2l3-1,2-2q0-1,0-2C210.51,143.18,210.14,144.88,209,145.36Z"/><path class="cls-5" d="M208,140.4a6.29,6.29,0,0,1-.16.94c1.7,1,1.06,2.59,1.1,4,1.15-.48,1.53-2.18,3.11-2C212.44,140.08,210.19,140.31,208,140.4Z"/><path class="cls-1" d="M204.13,196.37c1.16-.74,1-1.91.94-3C203,193.8,202.46,194.75,204.13,196.37Z"/><path class="cls-3" d="M240.12,38.35c-1,.68-1.06,1.35,0,2Q240.12,39.36,240.12,38.35Z"/><path class="cls-3" d="M182.12,74.36c-3.75,6.59-2.72,14-4.33,21.23,2.26-.17,3.55-1.67,5.3-1.21a7,7,0,0,0,1-4v-2q0-1.53,0-3.07c1.61-3.66.64-7.31-.08-11Z"/><path class="cls-1" d="M183.13,53.38v2c3.37,1.89,2.93,5.39,2.56,8.13-.32,2.35-2.62,4.15-5.59,3.88q0,.49,0,1l1,5,1,1h2c.47-.16,1.27-.22,1.35-.5,2.08-6.86,4-13.74-.34-20.5Z"/><path class="cls-1" d="M184.16,85.33q0,1.53,0,3.07c.79-.15,1.64-.27,1.78-1.28C186.09,85.8,185.16,85.52,184.16,85.33Z"/><path class="cls-12" d="M176.1,53.56C176,55,178,57,175.58,57.87c-1.8.65-2.73-1.53-4.19-2.17-4.8-2.08-8.31-7-14.36-6.39-1.79.18-2.89-1.25-4.07-2.4,8.63-2.21,16.58-.79,24.07,3.52,1.31-3.59-2.19-5.35-3.08-8.1-.54-1.68-1.23-3.31-1.86-5,.3-2.94.34-5.87-1.88-8.16s-4.38-4.29-.1-6.61c.84-.46.25-1.34.23-2.1-.09-3.56-2.75-4.22-5.25-5.14-3.8,1.39-4.29,3.73-2.54,7.26,2.31,4.64,1.39,7-3.33,8.68-1.57.57-2.45,1.28-2,2.76.92,2.81.11,3.72-2.72,3.08-1.58-.36-2.32,1.09-3.33,1.8-3.25,2.27-6.66,2-9.85.44a9.72,9.72,0,0,0-6.73-1.21c-2.51.49-5.59,2.24-7.78-1.56-.33-.58-3.81-2.53-6.29-1.17-3.53,1.93-6,4.49-5.51,8.89,1.12.35,2.49,1.75,3-.65.3-1.49-.18-4,2.51-2.83,1.85.79,4.22,2.37,3.18,4.88-1.69,4.05-2.3,8.59-4.35,12.27-1.49,2.68.4,5.23-1.22,7.44L130,67.48l.12-3.11q0-.49,0-1c-5-1.73-4.44-6.82-4.24-10,.22-3.47,2.66.61,4.57.68.57-1.58-.52-4,2.18-4.62,1.73-.43,2.29-2.28,2.49-4,.24-2,1.2-3.76,3.22-3.83,2.69-.09,1.5,2.35,1.84,3.77.54,2.28,1.37,3.9,4,2,.1-2-.13-4.18,3.09-3.5,2.86.6,3.53,2,1.91,4.45.38,1.8,3.06,1.83,3,3.94,1,4.18,5.76,3.47,7.85,6.2,4.1-1,7.69,2.18,11.82,1.47.83-.14,1.23,1.34,1.34,2.34a7,7,0,0,1,3,3.06c4.71-3.25,5.07-8.82.91-14A2.52,2.52,0,0,0,176.1,53.56Z"/><path class="cls-5" d="M120.55,40.84c-2.69-1.16-2.21,1.34-2.51,2.83-.49,2.4-1.86,1-3,.65h-1.93c-.94,1.12-1.66.9-2-.43-.47-1.91-2-3-3.27-4.21-1.55-1.52-3.26-.62-4.36.41-1.5,1.4-1.79,3.18.63,4.28l2,0c1.11-3.28,2.08-1.39,3.05.09,1.68,2.55,1.94,6.12,5.35,7.44a1,1,0,0,1,.4.84c-1.51,5.51-.94,11.72-5.34,16.26-.29.3-.94.25-1.42.37q0,.48,0,1,.06,1.07.12,2.14c2.78-3.11,7.77-3.12,9.95-7.07,1.63-2.2-.27-4.76,1.22-7.44,2.05-3.69,2.66-8.22,4.35-12.27C124.77,43.21,122.39,41.63,120.55,40.84Z"/><path class="cls-12" d="M104.28,37.41c-1.35.62-5-1.13-4.12,2.9,1.57,2.88-1.41,3-2.62,4s-3.09,1-3.64,2.88l.19.18c2.61.54,5.07-1,7.76-.39,1.64.37,2.09-1.2,2.27-2.59-2.42-1.1-2.13-2.88-.63-4.28,1.1-1,2.82-1.93,4.36-.41,1.27,1.25,2.8,2.29,3.27,4.21.33,1.33,1.05,1.55,2,.43C113.69,37.74,110.06,34.73,104.28,37.41Z"/><path class="cls-12" d="M84.87,25.68c.93-1.36.89-2.33-.54-2.57-2.91-.49-5-3.29-8.24-2.71-.21,1.66,2.16,3.29,0,5,.39,1.33-1.82,2.66,0,4,2.83,1.7,3.83,3.95,2.07,7-2,2.83-2.56,5.83-1,9.05,4.87.07,4.5-4.65,6.3-7.24,1.27-1.82,1.9-4.16,3.6-5.81q0-.5,0-1C84.34,30.29,83,28.47,84.87,25.68Z"/><path class="cls-4" d="M83.5,38.18c-1.81,2.59-1.44,7.31-6.3,7.24q0,2,0,4C82.5,47.88,83.83,42.57,87,39c1.85-2.1,2.3-4.37.12-6.62C85.4,34,84.78,36.36,83.5,38.18Z"/><path class="cls-4" d="M75.29,52.44A1.74,1.74,0,0,0,77,50.19,1.81,1.81,0,0,0,75.29,52.44Z"/><path class="cls-5" d="M76.11,29.36c-1.51,3-1.11,5.41,2.07,7C79.94,33.31,78.94,31.06,76.11,29.36Z"/><path class="cls-9" d="M53.13,53.37a1.85,1.85,0,0,0,2.08-1.87C53.81,51.34,53.14,52,53.13,53.37Z"/><path class="cls-5" d="M183.13,53.38c-2-2.21-2.91-5-4.05-7.72-1.45-3.42-2.85-7-7-8.28.62,1.65,1.31,3.28,1.86,5,.89,2.76,4.39,4.52,3.08,8.1a5.46,5.46,0,0,1,0,.94c4.16,5.15,3.8,10.72-.91,14,.11,2.58,1.77,3.13,3.94,3q0-.49,0-1c1-4,3.73-7.57,3-12Q183.12,54.37,183.13,53.38Z"/><path class="cls-1" d="M106.11,49.37l-3,1c.26.79.53,1.57.77,2.36.91,3-.44,5.56-2,7.86-.73,1.06-2.07.33-3.14-.31C96,58.68,93.81,56.77,94.3,53.2a21.89,21.89,0,0,1,.78-2.87l-1-2c-1.77.14-1.76,1.51-2.12,2.8a17.46,17.46,0,0,1-5,8.31c-2.63,2.35-5.92,4-8.92,5.88,0,2.54-2.38,4.41-1.92,7.06,2.82-1,4.7-.42,5,2.89,2.27,1.66,4.85,1.46,7.43,1.21,1.6-.16,3.35-.7,3.69,1.76l-.1.08,2,.18-.06-.19c.56-3.34,1.58-6.61.79-11.18,4.09,5.74,4,8.19.37,11.28l1.13,3.77c1.07.45,2.33.83.83,2.23q.06.91.13,1.82l2.73.14,4-4.09.21-3.73c.38-3.15.11-6.59,3.83-8.17q0-.48,0-1a5.27,5.27,0,0,1,.79-3.31c2.78-4.06,2.42-7.92-.68-11.74A8.89,8.89,0,0,1,106.11,49.37ZM84.65,69.71l6.26-1C88.32,73.18,88,73.23,84.65,69.71Z"/><path class="cls-9" d="M104.13,44.38c-.18,1.39-.64,3-2.27,2.59-2.69-.6-5.15.93-7.76.39q0,.47,0,.95l1,2c2.7-3.23,5.37-1.9,8,.05l3-1q0-2.48,0-5Z"/><path class="cls-4" d="M151,114.4c-4.32-2.33-9.59-3.73-10-10l-2-2.07c-5.46-4.38-7.69-9.86-6.51-16.93.43-2.56-1.41-5.38.4-8a5.86,5.86,0,0,1,0-.92c-1.06-.81-.92-2-.91-3.1l-.12-4.79L130,67.48l-11.83-2.06c-2.18,4-7.17,4-9.95,7.07L107,78.3l.16,1.1c2.46-1.74,4.76-3.63,6.11-7.46,1.39,5,3.29,7.6,7.78,4.52.32-.22,1.13-.35,1.22-.21,2.29,3.54,2.68.39,3.65-1a1.47,1.47,0,0,1,1.27-.47,1.74,1.74,0,0,1,.76,1c-2.73,3,1.16,5.45.63,7.86-.57,2.56,2.38,6.49-2.41,7.71h0c-1.38,7.52,1.25,15.63-3.35,22.7-1.47,2.27.26,3.13,2,4.08,6.21,3.42,8.77,7.09,6.73,10.71-1.18,2.08-.52,3.73-.62,5.59l.15.08,3.06.83c1.39-1.22,1.1-2.45.21-3.88-1.65-2.64.6-1.89,1.84-2,0-2.05,1.43-2.2,3-2.13l-1.21-4c-3.08-1.3-2.15-4.11-1.42-5.87a6.68,6.68,0,0,1,4.49-3.36c1.66-.27,3.55,1.81,3.55,3.44,0,2.77,4.71.32,3.5,3.67l1,.15,2.19-.07q0-2,0-4Z"/><path class="cls-6" d="M118.39,83.12a2.47,2.47,0,0,1-2.1-1.09c-2.15-3.52-4.68-1.23-6.71-.18-2.2,1.14-5.5,2.39-4.37,5.73C107,92.79,103,97.32,104,102.37A3.39,3.39,0,0,1,102.9,105c-3.7,3.28-.58,5.68,1.44,7.26s4.85,4,7.24-.15c.75-1.32,2.64-2.22,3.91-1.51,3.77,2.1,4.07-2,4.13-3,.23-3.28.12-6.29,1.65-9.57,1.26-2.7,2.48-5,4.86-6.63h0C125.47,83.5,125.47,83.48,118.39,83.12Z"/><path class="cls-8" d="M118.55,124.26a1.29,1.29,0,0,1-.49,0l-8.86.87-5.08.32c.34,2.42,2.22,1.9,3.77,1.94a9.45,9.45,0,0,1,7.24,3.81l11,.16C125.86,126.54,125.44,121.95,118.55,124.26Z"/><path class="cls-6" d="M110.86,116.11c-2.47.19-3,3.63-1.72,6.31l4.89-.19C113.94,119.59,113.2,115.93,110.86,116.11Z"/><path class="cls-4" d="M114,122.23l-4.89.19q0,1.33.06,2.67l8.86-.87C118,121,115,123.67,114,122.23Z"/><path class="cls-4" d="M97.2,93.36c-2,2.63-.52,4,1.84,5C101.34,95.65,98.79,94.68,97.2,93.36Z"/><path class="cls-12" d="M104.25,78.52q-.1,1.87-.21,3.73c2.12.23,2.19-1.78,3.12-2.85L107,78.3Z"/><path class="cls-5" d="M119.69,138.07c-4.86-.92-9.59,0-14.23.11a23.14,23.14,0,0,0-12.55,4.13l-.14,1,.48.06c12.05-2.82,24-.8,35.92.94C127,140.77,124.1,138.91,119.69,138.07Z"/><path class="cls-11" d="M138.35,137.35l-.35-5c-1.91-.1-1.86-1.48-1.86-2.83-1.24.1-3.48-.65-1.84,2,.89,1.43,1.18,2.66-.21,3.88a2,2,0,0,1-.95,2l-.2,1.86c1.86,3.4,1.58,6-2.7,7q0,.49,0,1a1.72,1.72,0,0,1,1.77,2c3.47.53.53,2.81,1.12,4.12l1.94,0,1-1c-.19-3.11,3.5-4.81,2.93-8.06Z"/><path class="cls-10" d="M129.85,144.59l.39,1.74c4.28-1.05,4.55-3.64,2.7-7C129.67,139.74,132.18,143.57,129.85,144.59Z"/><path class="cls-10" d="M133.14,137.42a2,2,0,0,0,.95-2l-3.06-.83C131,136.08,132.56,136.38,133.14,137.42Z"/><path class="cls-8" d="M92.76,143.34l.14-1-.7.15Z"/><path class="cls-5" d="M92.41,148.34a1.18,1.18,0,0,0,0,.86c.91,1.32,1.74,2.79,3.76,1.94l-.09-1.76C95.17,148,93.69,148.55,92.41,148.34Z"/><path class="cls-7" d="M107.11,130.38l.22-.41-.24.39Z"/><path class="cls-5" d="M144,159.35c-4.44.24-7.91-1-8.91-5.92l-1.94,0c-2.38,2.42-3.89,6-8.12,5.92-1.75-.18-2.55,1.45-3.91,2,2.27,3.72,4.76,1.91,7.33.36,1.18-.71,2.67-2.05,3.9-.35,1,1.44,3.41,2.41,2.25,5-.53,1.17-.47,2.84-1.3,3.61-2.22,2.08-.37,3.08.77,4.37l6,0c1.07-.84,1.46-2.15.57-3-.64-.59-1,1.64-2.29,1.18-.57-5.8,4-8.14,7.55-11.2C146.05,160,145.25,159.45,144,159.35Z"/><path class="cls-2" d="M124.32,149.07c-.58-3.94-3-4.53-6-3.12-3.86,1.81-1.14,4.21-.19,6.38,3.3.73,6.53,1.13,9-2C126,150.28,124.54,150.57,124.32,149.07Z"/><path class="cls-2" d="M102.35,144.71c-3.1-1.14-2.77,2.36-4.07,3.72a6.32,6.32,0,0,1-2.16.94l.09,1.76.11.12c3.26.29,6.5,1.85,9.79.14C106.55,148.21,105.17,145.74,102.35,144.71Z"/><path class="cls-3" d="M130.27,147.3c-1.65.4-1.9,2.24-3.14,3.07-2.47,3.09-5.7,2.7-9,2-3.11,1.92.15,2.49.85,2.73a50.29,50.29,0,0,0,6.55,1.36c1.88-2.62,5.15-4,6.5-7.08A1.72,1.72,0,0,0,130.27,147.3Z"/><path class="cls-10" d="M132,149.33c-1.35,3.11-4.62,4.46-6.5,7.08l-.5,3c4.23.11,5.74-3.5,8.12-5.92C132.57,152.14,135.51,149.87,132,149.33Z"/><path class="cls-5" d="M96.32,151.25c-.62,1.76,2.75,1.93,1.57,3.92a14.81,14.81,0,0,0,7.26-.66c1.84-.72,2.52-1.49,1-3.12C102.82,153.11,99.58,151.54,96.32,151.25Z"/><path class="cls-5" d="M226.85,131.8l-.37.84.84.37c.12-.28.4-.62.32-.82S227.13,131.92,226.85,131.8Z"/><path class="cls-9" d="M140.56,175.65a8.1,8.1,0,0,1-.42-1.31l-6,0a3.35,3.35,0,0,1-2,2c2.08,1.93,7.43,3,2,7,.74,2.66-1.4,6,1.83,8.08a11.44,11.44,0,0,0,.28-2.46c-.45-4.42,1.59-5.32,5.34-3.88,1.22.47,2.7.17,3.69,1.29,4.7-.2,6.66-3.91,9-7.07l-.28-.93C148.85,180.47,145.36,174.88,140.56,175.65Z"/><path class="cls-3" d="M104.16,187.33h.45l.45,0C104.75,186.78,104.44,186.79,104.16,187.33Z"/><path class="cls-4" d="M96.34,82.15l-1.13-3.77-1.16-.1.06.19-1,4c-.05.65.13,1.46-.2,1.91-1.79,2.5-2.18,6.19.15,7,3.21,1.17,3.35-2.91,4.26-5.17q-.07-.91-.13-1.82A1.7,1.7,0,0,1,96.34,82.15Z"/><path class="cls-10" d="M88.57,76.45c-2.58.25-5.16.45-7.43-1.21-2.41,3.1-1.8,5,2,6.11,1.85-4.56,6-2.32,9.17-3.14C91.92,75.75,90.17,76.3,88.57,76.45Z"/><path class="cls-4" d="M83.09,81.36c2.82,2,6.11-.26,9,1l.05-4.07.1-.08C89.13,79,84.94,76.8,83.09,81.36Z"/><path class="cls-10" d="M92.11,82.36l1,.07,1-4-2-.18Z"/><path class="cls-15" d="M162,199.88a30.35,30.35,0,0,0-4.14-1c.76-2.66,4.07-.28,4.84-3-2-1-4.84-.31-5.7-3.07,5.59-2.57,5.58-2.56,4.36-7.61-.1-.42,0-1.21.28-1.35,4.82-2.56,2-6.2,1.4-9.51l-1,0-.62.11a5.13,5.13,0,0,1-4.11,2,4.43,4.43,0,0,1-3.15,2.75c-2.38,3.16-4.34,6.86-9,7.07q0,.51,0,1c1.19,5.83,5.44,9.93,8.27,14.83,1.8,3.11,4.17,4.79,7.46,4.85,2.56,0,2-2.81,2.79-3.87C166,199.9,163.37,200.39,162,199.88Z"/><path class="cls-13" d="M145.14,187.43q0-.51,0-1c-1-1.12-2.47-.83-3.69-1.29-3.75-1.44-5.79-.54-5.34,3.88a11.58,11.58,0,0,1-.28,2.46c.33,4.86,2.56,9.24,3.55,13.92l1,1.8c3.62,2.28,5.69,6.07,7.94,9.38s4.65,3.59,7.88,2.62c-4.3-7.23-9.45-13.92-13.31-21.45C140.68,193.37,141.4,188.63,145.14,187.43Z"/><path class="cls-10" d="M164.25,165.31l-1-8.74-1.15-.21a2.26,2.26,0,0,0-1,2.19,5.55,5.55,0,0,1,1,3.74c-.23,1.53.84,3.54-1,4.46-.75.38-2.37-.14-3.16-.79-1.66-1.36-.56-3,.13-4.45l-2.44,0a38.47,38.47,0,0,1-.67,4.35c-.37,1.42-.8,3.18-2.91,1.55l-1.06.2c1,5.92,6.54,4.09,10,5.78l0,0c.27-.49.6-.58,1-.12q0,.62,0,1.24l1,0,2.81-1C166.2,170.53,163.72,168.22,164.25,165.31Z"/><path class="cls-9" d="M130.16,234.48l-1.09,0C129.4,235.11,129.76,235.12,130.16,234.48Z"/><path class="cls-13" d="M131.76,228.53c-.05.05,0,.17-.06.26l.41-.42,0,0A1.32,1.32,0,0,0,131.76,228.53Z"/><polygon class="cls-5" points="147.1 86.37 147.1 86.37 147.1 86.37 147.1 86.37"/><path class="cls-5" d="M177.79,95.59c1.6-7.21.58-14.64,4.33-21.23l-1-1c-4.32,3-8-1.73-12.06-1.07-1.18.08-1.93.62-2,1.89,0,2.56-.45,5-3.17,6-4.48,1.73-7.2-1-9.78-4l-1-.92c-1.71.23-3.06,3.52-5.22.38-.8-1.16-1.13.52-1.38,1-1.18,2.3.15,4.47.52,6.68l.05,3c.5,0,1.1-.14,1.48.09,2.68,1.59,5.85,5.28,5.87-1.87,0-1.41,1.79-1.16,2.91-1.2,4.86-.15,10,1.09,13.69-3.76a3.46,3.46,0,0,1,3.22-.65c1.4.62.23,2,.12,3.05-.45,4.21-1.19,8.45-1.11,12.66.12,6.39-3.77,10.93-6.72,15.86-1,1.6-3.41,1.85-5.46,1.82h0c-.36,4.67,3.78,6.47,6.57,7.22,2.24.6,5.35-1.86,5.92-5.79.65-4.5,2.48-8.82,3.51-13.28.49-2.12,1.7-2.14,3.28-2l2.38-.81q.16-1.68.33-3.37C181.34,93.92,180,95.42,177.79,95.59Z"/><path class="cls-8" d="M165.15,130.35c-1.95,1.25.94,3.17-.63,4.48-1.57.5-1.46-1.64-2.76-1.71-1,1.18,1.39,2.87-.39,3.85-1.53.85-2.49-.24-3.22-1.42-2-3.24-3.29,2.57-5.41.51-.17-.17-.22,1.61-.05,2.53.57,3.13,1.19,6.21-2.61,8.07-1.7.83-1.83,2.17,0,3.35s2.11,3.24,2,5.3l3,1.07c1.76-.31-.23-3.84,3.17-3.26,2.34.4,3.39,1.14,3.79,3.25l1.15.21c4-4.64,5.1-10.25,5.22-16.16-.17-.61.1-.91.7-1l0,0,1.94-11C168.65,127.63,167.39,130.46,165.15,130.35Z"/><path class="cls-9" d="M177.09,100.52c-1,4.46-2.86,8.78-3.51,13.28-.56,3.92-3.68,6.39-5.92,5.79-2.79-.75-6.93-2.55-6.57-7.22a5.77,5.77,0,0,1-.94-.23c-1.38-.59-1.21-3.34-3.53-2.61s-1.45,2.66-1.48,4.13c-.05,2.7-1.31,3.87-3.94,3.69q0,2,0,4c3.25,1.44,4.24-1,5.49-3.39a9.25,9.25,0,0,0,3.09,4.58l1.11,1c3.35-4.53,5.9.88,8.88.64.51,0,.47-1.58,1.84-1.29.06,1.82.67,3.71-.52,5.49l-1.94,11c6.28-1.51,7.18-7.06,9-11.95-1.47-.18-3.22,0-2.69-2.44,1.47-6.61,2.67-13.29,4.55-19.78a12.36,12.36,0,0,0,.37-6.69C178.79,98.38,177.58,98.4,177.09,100.52Z"/><path class="cls-13" d="M180.37,98.55a12.36,12.36,0,0,1-.37,6.69c-1.88,6.49-3.08,13.17-4.55,19.78-.53,2.39,1.22,2.26,2.69,2.44,1.76-2.8,4.38-5.19,4.2-8.9.11-3.41-2.82-6.75-.13-10.25.6-.78,1.07-1.6,2-1.93q-.75-4.31-1.5-8.63Z"/><path class="cls-11" d="M182.21,108.3c-2.69,3.5.24,6.84.13,10.25,2.54-3.76,3.82-7.72,1.92-12.18C183.27,106.7,182.81,107.52,182.21,108.3Z"/><path class="cls-9" d="M168.43,140.41l.7-1C168.53,139.5,168.26,139.8,168.43,140.41Z"/><path class="cls-3" d="M176.12,65.35a7,7,0,0,0-3-3.06c-1.48,1-1,3.56-3.09,4.1l-1,5.91c4.11-.66,7.74,4.07,12.06,1.07l-1-5C177.89,68.48,176.23,67.93,176.12,65.35Z"/><path class="cls-3" d="M183.12,55.36c.7,4.43-2,8-3,12,3,.28,5.27-1.53,5.59-3.88C186.05,60.75,186.49,57.24,183.12,55.36Z"/><path class="cls-5" d="M149.11,48.34l-5-.94c-2.6,1.93-3.44.32-4-2-.33-1.41.85-3.86-1.84-3.77-2,.07-3,1.8-3.22,3.83-.2,1.71-.75,3.56-2.49,4-2.7.66-1.61,3-2.18,4.62-1.91-.07-4.35-4.15-4.57-.68-.2,3.15-.76,8.24,4.24,10,.45-6,6.19-12.31,11.91-13.05,3.25-1.47,5.46,1.27,8.16,2l2-.08C152.16,50.17,149.49,50.14,149.11,48.34Z"/><path class="cls-4" d="M153,46.92c1.18,1.15,2.29,2.58,4.07,2.4,6-.61,9.56,4.3,14.36,6.39,1.46.63,2.39,2.82,4.19,2.17,2.47-.89.46-2.84.52-4.31a2.52,2.52,0,0,1,.93-2.18,5.46,5.46,0,0,0,0-.94C169.54,46.12,161.6,44.7,153,46.92Z"/><path class="cls-3" d="M130.08,63.39q0,.49,0,1c1.92.85,2.17,2.41,1.82,4.23Q132,71,132,73.4c2.85.28,1.5,1.8.91,3.1a5.85,5.85,0,0,0,0,.93l.14-.07,1,.09c1.92,1.07-.37,4.71,3,4.9-.64-4-.78-8-2.4-11.89-1.69-4-.19-10.06,2.63-12.14-.07-3.58,3.34-5.15,4.61-8C136.27,51.09,130.53,57.38,130.08,63.39Z"/><path class="cls-5" d="M171.81,60c-4.13.71-7.71-2.48-11.82-1.47.35,2.4,2.53,4.25,2.09,6.89h0c1.31.48,1.64-1.69,3-1.09l5,2.1c2.12-.54,1.61-3.07,3.09-4.1C173,61.29,172.64,59.81,171.81,60Z"/><path class="cls-1" d="M152.14,52.28l-2,.08c-.13,1.67-1.55,3.32-.07,5,3.91.76,7.31,2.46,9,6.25.71,1.63,1.7,1.73,3,1.75.44-2.64-1.74-4.49-2.09-6.89C157.91,55.74,153.09,56.45,152.14,52.28Z"/><path class="cls-4" d="M147.19,43.89c-3.22-.68-3,1.52-3.09,3.5l5,.94C150.72,45.89,150,44.49,147.19,43.89Z"/><path class="cls-5" d="M130.1,64.37q-.06,1.55-.12,3.11l1.94,1.12C132.27,66.78,132,65.22,130.1,64.37Z"/><path class="cls-3" d="M114.5,51.92c-3.41-1.32-3.67-4.89-5.35-7.44-1-1.48-1.94-3.37-3.05-.09q0,2.48,0,5a8.89,8.89,0,0,0,2.14,5c3.1,3.82,3.46,7.68.68,11.74a5.27,5.27,0,0,0-.79,3.31c.48-.11,1.13-.07,1.42-.37,4.4-4.55,3.83-10.75,5.34-16.26A1,1,0,0,0,114.5,51.92Z"/><path class="cls-3" d="M104.25,78.52,107,78.3l1.2-5.81q-.06-1.07-.12-2.14C104.36,71.93,104.63,75.38,104.25,78.52Z"/><path class="cls-13" d="M103.12,50.38c-2.67-2-5.34-3.28-8-.05a21.89,21.89,0,0,0-.78,2.87c-.49,3.56,1.69,5.48,4.43,7.09,1.07.63,2.41,1.36,3.14.31,1.59-2.3,2.94-4.84,2-7.86C103.66,51.95,103.38,51.17,103.12,50.38Z"/><path class="cls-12" d="M94.06,78.28l1.16.1c3.61-3.1,3.72-5.54-.37-11.28C95.64,71.67,94.62,74.94,94.06,78.28Z"/><path class="cls-11" d="M90.91,68.75l-6.26,1C88,73.23,88.32,73.18,90.91,68.75Z"/><path class="cls-12" d="M96.34,82.15a1.7,1.7,0,0,0,.83,2.23C98.67,83,97.41,82.6,96.34,82.15Z"/><path class="cls-13" d="M153.08,128.39l0,0h0Z"/><path class="cls-13" d="M165.15,130.35c-1.08-1.85-4.13.94-4.77-2,0-.1-.26-.15-.4-.22-2.08,5.66-4.62-1.29-6.85.24-.19,1.32-.41,2.87-2.17,2.5a2.24,2.24,0,0,1-1.46-2.76c.79-2.36-.85-4.44-.46-6.69l-1-.15-3.95.12c-.19,3.4,1.06,7.09-.71,10.14s1.15,6.69-2.26,9.31c-1.94,0-.33-3.63-2.77-3.5q.36,3.5.72,7c2,.11,2.61,1.47,3.29,3.15s1.48,3.31,3.52,3.87c2.48.68,3.5,1.54.05,2.46-.21.06-.48.7-.44.74,2.72,2.34,1.26,6.85,4.61,8.84,2.33-2.29-.29-5.79,2-8.1.14-2.07,0-4.07-2-5.3s-1.72-2.52,0-3.35c3.81-1.85,3.18-4.93,2.61-8.07-.17-.92-.12-2.7.05-2.53,2.12,2.06,3.39-3.75,5.41-.51.73,1.18,1.69,2.27,3.22,1.42,1.78-1-.61-2.67.39-3.85,1.3.07,1.19,2.21,2.76,1.71C166.09,133.52,163.2,131.6,165.15,130.35Z"/><polygon class="cls-5" points="147.1 86.37 147.1 86.37 147.1 86.37 147.1 86.37"/><path class="cls-5" d="M153.35,98.08c-3.1-2.75-4.24-7.72-6.25-11.71-1.36.21-3.49-.65-3.76,1.3-.53,3.89-2.3-.1-3.21.68-1.86,4.55-.44,9.35-1,14l2,2.07c2.63,1.92,7.45.59,8.11,5.46,0,.17.36.39.58.44,2.7.58,2.69.57,1.48,3.13a4.05,4.05,0,0,0-.19,1l.16,3c2.63.18,3.89-1,3.94-3.69,0-1.47-.76-3.43,1.48-4.13s2.15,2,3.53,2.61a5.77,5.77,0,0,0,.94.23h0C159.42,107.13,157.92,102.13,153.35,98.08Z"/><path class="cls-11" d="M169.78,124.17c-3,.24-5.54-5.17-8.88-.64l-1.11-1A9.25,9.25,0,0,1,156.7,118c-1.25,2.34-2.24,4.82-5.49,3.39l-2.18.07c-.39,2.25,1.25,4.33.46,6.69a2.24,2.24,0,0,0,1.46,2.76c1.76.38,2-1.18,2.17-2.5l0,0a.33.33,0,0,1,0-.14l-.67-.93c1.05-.24.61.51.67.93l.08.11h0c2.23-1.53,4.78,5.42,6.85-.24.14.07.38.12.4.22.64,2.94,3.69.14,4.77,2,2.24.11,3.5-2.73,6-2,1.19-1.78.58-3.67.52-5.49C170.25,122.59,170.29,124.13,169.78,124.17Z"/><path class="cls-11" d="M153,128.25a.33.33,0,0,0,0,.14l0,0h0Z"/><path class="cls-12" d="M140,84.48l-2.88-2.14c-3.37-.18-1.08-3.83-3-4.9-.38.53-.72.51-1-.09l-.14.07c-1.8,2.61,0,5.43-.4,8-1.18,7.07,1,12.55,6.51,16.93.59-4.65-.83-9.44,1-14Q140.07,86.41,140,84.48Z"/><path class="cls-8" d="M144.08,121.4c-1,.45-1.52,2.65-3.33.48-2.39-2.88-2.52-.19-2.84,1.54l1.21,4c-1,1.52.36,3.55-1.12,5q.17,2.5.34,5c2.43-.13.83,3.48,2.77,3.5,3.41-2.62.51-6.3,2.26-9.31S143.9,124.8,144.08,121.4Z"/><path class="cls-10" d="M144.53,117.61c0-1.63-1.88-3.71-3.55-3.44a6.68,6.68,0,0,0-4.49,3.36c-.73,1.77-1.67,4.58,1.42,5.87.32-1.72.45-4.42,2.84-1.54,1.81,2.17,2.29,0,3.33-.48l3.95-.12C149.24,117.93,144.52,120.38,144.53,117.61Z"/><path class="cls-12" d="M149.75,110.32c-.22,0-.56-.27-.58-.44-.66-4.87-5.48-3.54-8.11-5.46.39,6.26,5.66,7.65,10,10a4.05,4.05,0,0,1,.19-1C152.44,110.88,152.45,110.89,149.75,110.32Z"/><path class="cls-13" d="M136.14,129.53c0,1.35,0,2.73,1.86,2.83,1.48-1.4.15-3.44,1.12-5C137.57,127.33,136.18,127.48,136.14,129.53Z"/><path class="cls-5" d="M132,73.4c0,1.13-.15,2.29.91,3.1C133.54,75.2,134.89,73.68,132,73.4Z"/><path class="cls-4" d="M151,167.57a2.17,2.17,0,0,1-.66-2.57l-.29-1.61c-3.35-2-1.89-6.51-4.61-8.84,0,0,.23-.68.44-.74,3.44-.91,2.43-1.77-.05-2.46-2-.56-2.88-2.28-3.52-3.87s-1.28-3-3.29-3.15c.57,3.25-3.12,5-2.93,8.06,2.44,2.52,5.83,4,7.87,6.94,1.24.1,2,.62,1.95,2a25.57,25.57,0,0,1-.07,4c-.26,1.55-2.34,2.54-1.45,4.5,1,2.19,2.65,0,3.59.5,2,1,.47,3.4,1.31,4.9,2.72.37,6.17-4.21,8,1.34a5.13,5.13,0,0,0,4.11-2l-.38-1.2C157.58,171.66,152.07,173.49,151,167.57Z"/><path class="cls-12" d="M136.14,152.4l-1,1c1,4.94,4.47,6.16,8.91,5.92C142,156.37,138.58,154.92,136.14,152.4Z"/><path class="cls-12" d="M149.34,175.24c-.84-1.51.69-3.92-1.31-4.9-.94-.46-2.59,1.69-3.59-.5-.89-2,1.19-3,1.45-4.5a25.57,25.57,0,0,0,.07-4c-3.51,3.06-8.12,5.4-7.55,11.2,1.34.46,1.65-1.77,2.29-1.18.9.82.5,2.13-.57,3a8.1,8.1,0,0,0,.42,1.31c4.8-.77,8.29,4.82,13.34,2.75l.28.93a4.43,4.43,0,0,0,3.15-2.75C155.5,171,152.05,175.61,149.34,175.24Z"/><path class="cls-8" d="M161.05,173.35l.38,1.2.62-.11q0-.62,0-1.24a4.14,4.14,0,0,1-1,.12Z"/><path class="cls-15" d="M152.06,155.3c-2.25,2.31.37,5.81-2,8.1l.29,1.61a2.44,2.44,0,0,1,1.71,2.36c2.1,1.63,2.54-.13,2.91-1.55a39.77,39.77,0,0,0,.67-4.35l-.57-5.1Z"/><path class="cls-4" d="M162.09,162.29a5.55,5.55,0,0,0-1-3.74c-4.51-2.55-2.58,1.39-3,3-.69,1.48-1.79,3.09-.13,4.45.79.64,2.41,1.17,3.16.79C162.93,165.83,161.86,163.83,162.09,162.29Z"/><path class="cls-13" d="M158.28,153.11c-3.4-.58-1.41,3-3.17,3.26q.28,2.55.56,5.1l2.44,0c.41-1.58-1.52-5.52,3-3a2.26,2.26,0,0,1,1-2.19C161.67,154.25,160.61,153.51,158.28,153.11Z"/><path class="cls-13" d="M150.39,165a2.17,2.17,0,0,0,.66,2.57l1.06-.2A2.44,2.44,0,0,0,150.39,165Z"/><path class="cls-4" d="M161.1,173.32a4.14,4.14,0,0,0,1-.12C161.7,172.74,161.37,172.83,161.1,173.32Z"/><path class="cls-3" d="M174.28,79a3.46,3.46,0,0,0-3.22.65c-3.66,4.85-8.84,3.61-13.69,3.76-1.12,0-2.91-.21-2.91,1.2,0,7.16-3.19,3.47-5.87,1.87-.38-.22-1-.07-1.48-.09,2,4,3.15,9,6.25,11.71,4.57,4.05,6.07,9.05,7.76,14.29,2.05,0,4.51-.22,5.46-1.82,2.94-4.93,6.84-9.47,6.72-15.86-.08-4.21.65-8.44,1.11-12.66C174.51,81,175.68,79.6,174.28,79Z"/><path class="cls-2" d="M164.08,70.36c-3.75,1.44-7,1.41-8.76-3.41l6.75.37,0-1.93h0c-1.33,0-2.32-.12-3-1.75-1.66-3.79-5-5.49-9-6.25-.18,1.59-.63,3-2.59,2.92a3.9,3.9,0,0,0-3.73,2c-1.27,2.09-3,2.57-5,1.5-2.23-1.21-2.29-3.28-1.43-5.45-2.83,2.08-4.32,8.11-2.63,12.14,1.61,3.84,1.75,7.89,2.4,11.89L140,84.48l3-1.16c-1-3.94,1.29-10.62,4.75-11.89,2.73-1,3.84,2.1,5.33,3.83l1,.92c4.56,1,8.71-.79,13-2,0-1.27.77-1.81,2-1.89l1-5.91-5-2.1C165.82,66.5,167.87,68.92,164.08,70.36Z"/><path class="cls-1" d="M147.81,71.42c-3.46,1.27-5.72,8-4.75,11.89h4c-.37-2.22-1.7-4.38-.52-6.69.25-.49.58-2.17,1.38-1,2.17,3.15,3.52-.15,5.22-.37C151.64,73.53,150.54,70.42,147.81,71.42Z"/><path class="cls-12" d="M154.12,76.18c2.58,3,5.3,5.76,9.78,4,2.72-1,3.15-3.46,3.17-6C162.83,75.39,158.68,77.15,154.12,76.18Z"/><path class="cls-3" d="M143.06,83.31l-3,1.16q.06,1.94.12,3.87c.92-.78,2.68,3.21,3.21-.68.27-2,2.4-1.09,3.76-1.3q0-1.52-.05-3Z"/><path class="cls-13" d="M142,50.34c-1.27,2.81-4.68,4.38-4.62,8-.86,2.17-.8,4.24,1.43,5.45,2,1.07,3.7.59,5-1.5a3.9,3.9,0,0,1,3.73-2c2,.11,2.41-1.34,2.59-2.92-1.49-1.69-.07-3.34.06-5C147.45,51.61,145.24,48.87,142,50.34Z"/><path class="cls-5" d="M134.14,77.44l-1-.09C133.42,77.95,133.76,78,134.14,77.44Z"/><path class="cls-1" d="M162.1,65.39l0,1.93a3.08,3.08,0,0,1,2,3c3.79-1.45,1.74-3.87,1-6.07C163.74,63.69,163.4,65.87,162.1,65.39Z"/><path class="cls-13" d="M153.08,128.39l0,0-.08-.11A.33.33,0,0,0,153.08,128.39Z"/><path class="cls-13" d="M152.37,127.32l.67.93C153,127.83,153.43,127.08,152.37,127.32Z"/><path class="cls-9" d="M162.07,67.32,155.32,67c1.8,4.81,5,4.85,8.76,3.41A3.08,3.08,0,0,0,162.07,67.32Z"/></g></g></svg>