<svg xmlns="http://www.w3.org/2000/svg" viewBox="0 0 147.75 177.03"><defs><style>.cls-1{fill:#dacdbd;}.cls-2{fill:#d0bda8;}.cls-3{fill:#896c4f;}.cls-4{fill:#a4815f;}.cls-5{fill:#b5906c;}.cls-6{fill:#c5a788;}.cls-7{fill:#604e3c;}.cls-8{fill:#9b846c;}.cls-9{fill:#c6b39b;}.cls-10{fill:#7e6348;}.cls-11{fill:#aa9c8c;}.cls-12{fill:#322921;}.cls-13{fill:#ab9176;}.cls-14{fill:#987858;}.cls-15{fill:#b79c7e;}</style></defs><title>lab</title><g id="Layer_2" data-name="Layer 2"><g id="Layer_1-2" data-name="Layer 1"><g id="Layer_2-2" data-name="Layer 2"><g id="Layer_1-2-2" data-name="Layer 1-2"><path class="cls-1" d="M128.13,135.1c-2.15-6.4-7.82-11.34-13.59-15.46-2.48,4.47,2,7.19,2.69,10.76.8,4.32,5.8,8.63.19,13a3.6,3.6,0,0,1,.47,2.22A100.84,100.84,0,0,0,128.13,135.1Z"/><path class="cls-1" d="M90,0Q65.69,3.8,41.39,7.7c-1.63.26-3.29.7-3.78,2.7,1.58.31,1.67,1.16.83,2.41l-2.72,3.84a2.24,2.24,0,0,0,2,1c3.67-1.17,4.76-5.94,9-6.17l.94-1.63c2.08,1.6,4.08,2.23,6.84,1.11,1.19-.5,1.23,1.38.44,2.5-2.37,3.31-.09,4.26,2.54,4,4-.39,8.26-.26,11.17-3.91,1.81-2.27,4.59-2.34,7.13-2.9h1.85c1.44,0,3-.62,4.09.93l2.9.09c3.49-.31,5.11,1.42,5.11,4.79l.07.07c4.58,2,9.87,2.75,12.48,8,1.42,2.85,3.29,4,4.63-1.25-.12,4.49,4.33,5,4.88,8.2,1.31-1.39,2.86,3,4.09-.18-1.69-7.25-7.07-12.38-10.69-18.52C100.09,8.56,93.48,6.14,90,0Z"/><path class="cls-2" d="M99.48,162.89c-.43.37-.49,1.18-.72,1.78,1.06,1.51,2.12,2.93,3-.13h0l-.41-.23.42.23c3.06-.27,3.27,3.76,6,4,0-1.18.09-2.44-.85-3.28-2.94-2.62-3.31-5.88-3.24-9.26q-2.12,1.23-4.29,2.32C100.79,159.38,101.44,161.24,99.48,162.89Z"/><polygon class="cls-2" points="101.75 164.54 101.76 164.54 101.34 164.31 101.75 164.54"/><path class="cls-2" d="M94,161.49c.55-.32,1.36-.53,1.55-1l.19-.47q-.94.41-1.88.8A6.06,6.06,0,0,0,94,161.49Z"/><path class="cls-2" d="M113.82,149.07a2.44,2.44,0,0,1-.48,2.64c-4.81,5.3-2.27,11.12-1.72,16.83,2.9-1.45,7.07-11.46,5.23-14.54s.85-5.66,1-8.34Q115.9,147.44,113.82,149.07Z"/><path class="cls-2" d="M117.43,143.55c5.61-4.42.61-8.73-.19-13-.7-3.66-5.17-6.39-2.7-10.86l.15-9.13c-4.34,1.06-6.3,4.47-5.43,9.14.63,3.37,1.34,6.74-1.21,9.83-.9,1-1.2,2.49-2.9,1.61-1.42-.73-1.35-2-1.09-3.4.65-3.71,1.22-7.44,1.56-11.18.2-1.7.71-3.68-1-5.08l-3.75,1.5c-.46,1.85-2,3.39-1.46,5.51,2.24,1.28,1,2.87.24,4.22-3.24,5.94-1.3,12.82-3.73,19-1.31,3.33-5.86,5.31-4.22,9.83.7,2.38-1.62,4.8.1,7.16,1.75-.13,1.87,1.06,2.06,2.17q.95-.38,1.88-.8c.67-1.65,1.43-3.27,3.54-1.77l.09.07q2.17-1.09,4.29-2.32c0-.89.06-1.79.1-2.69-.33-1.69-1.15-1.74-2.45-.84-2.26,1.56-4.1.45-5.59-1.23s-.38-3.09.51-4.87c2.41-4.79,5.61-6.3,10.47-3.79,1.38-1.06,3.13-2.39,4.56-1.06,1.14,1.07.39,3-.7,4.31s.29,1.5,1.19,1.76a2.43,2.43,0,0,1,2.07,1.48q2.07-1.64,4.08-3.42A3.61,3.61,0,0,0,117.43,143.55Z"/><path class="cls-3" d="M132.89,58.45l-.27-1.92c-4.8-.2-2.34-3.78-2.8-6l-1.19-2c-3.5,1.92-3.78-.57-4.1-3-1.22-.1-1.85-.71-1.64-2l-.18-4a18.27,18.27,0,0,0-2-3.26c-3.55-3.82,1.53-4.64,2.66-6.13s4-.7,4.2,2.38c3.27,1,5,3.82,7.11,6.12,3.62-6.5,2-12.53-1.76-18.3-.66-1-1.34-1.86-1.11-3.11l-3-1.78-1.16.1c-.94-.32-1.83-.67-2.81-.94s-2.19-1.63-2.92.11c-.61,1.46,0,2.59,1.7,2.93,3.76.24,10.92,7.25,10.67,10.5-.13,1.77-1.63,1.39-2.63,1.32-3.74-.22-4.94-3.32-6.5-6-.73-1.26,0-3.08-1.57-4-1.54,1.93-3.28,3.38-4.7.11a4.35,4.35,0,0,0-5.1-2.71c-3.37.85-3.6-1.08-4-3.28l-.1-.1-.79-1.06c-1.6-3.71-2.64-1.54-3.7.35,3.62,6.14,9,11.27,10.69,18.52,2,2.87.37,6.18,1.18,9.16l1.64.08c.15-.9-.22-2.27,1-2.42,1-.14.94,1.06,1,1.86q.49,6.31,1,12.62a6.61,6.61,0,0,1,0,.93v1l4.09,5.82c1.25,1.73,2.13,3.83,4.44,4.51a7.71,7.71,0,0,1,4.62-1.34l-.24-2.94C133.37,60.45,132.65,59.82,132.89,58.45Z"/><path class="cls-4" d="M39.74,24.61c-3.25,1.58-5.31,4.11-4.94,7.77s-3.31,4.91-3.52,7.55c-3.89.66,3.49-5.13-2.62-3-.71.24-.42-1-.34-1.57.22-1.64.38-3.27.57-4.91l3.78-9.91a3.5,3.5,0,0,1,.21-.93C31,18.54,30.55,18.4,30,20.4c-.71,2.71-2.16,2.79-4.27,2.17l-8.1,7.95c1.18,3.48-1.45,12-4.31,14.27-.92.72-1.52.23-2.14-.28C9.81,43.37,8.46,42.18,7.09,41a3.15,3.15,0,0,0-2.33,1.68v1.43c2,1.34,6,1.24,4,5.52v2c2.78.06,1.84,4.54,5,4.06,3.64-.43,5.38-2.45,5.14-6.13V47.79c.6-2.72-1-5.93,1.8-8.16l.18-1.86A1.77,1.77,0,0,1,22,35.67a2.09,2.09,0,0,1,.84-2c0-.82.07-1.65,1.14-1.82,3.12.85,1.57,3.13,1.2,4.72-.7,3-2,5.83-1.35,9,2.67-.74,1.14-4,3.14-5.27,1.42.7.37,3.61,2.87,3.23.38-.56.68-.39.94.1l1.08,2.8h1.88c.85-1,.81-2.78,2.61-2.91l.19-1.94c-1.66-2.32-.89-4.27.82-6.17,1.3-1.45,3.14-2.49,3.59-4.6-1.54-.24-2.16-.84-.76-2.11C41.94,27.11,42.12,25.73,39.74,24.61Z"/><path class="cls-5" d="M145.1,25.88c-.91,4.21.4,8.86-2.49,12.69-.92,5.74-4.16,10.49-7,15.49-.42-5.61,2.09-10.5,4.09-15.5,2.27-3.3,2-7,2-10.79,0-1.64-.73-3.8,2-4.2-2.86-4.21-7.55-4.86-11.86-6.3-.22,1.25.46,2.11,1.11,3.11,3.76,5.77,5.38,11.8,1.76,18.3-2.26,2-4.46.43-6.7-.5a24.42,24.42,0,0,0,.63,10.39l1.19,2c2.32,1.35,2.28,3.81,2.79,6l.27,1.92.3,0a1.76,1.76,0,0,1,1.39,2.07l.24,2.94c1.7,2-1.3,2.08-1.3,3.38,3.63,1.63,4.78-.31,4.05-3.37-1.12-4.71.76-8.3,3.12-12.07a47.65,47.65,0,0,0,6.3-14C148,33.45,148.6,29.27,145.1,25.88Z"/><path class="cls-6" d="M113.74,89.56c-2.93.69-4.51,0-4-3.49.26-1.75.2-3.69-2.08-4.41-.08,5,.34,10.14-1.52,15-3.29,4.65.63,10-1.51,14.81,1.67,1.4,1.15,3.38,1,5.08-.33,3.75-.9,7.48-1.56,11.18-.25,1.4-.33,2.67,1.09,3.4,1.7.88,2-.61,2.9-1.61,2.55-3.1,1.84-6.46,1.21-9.83-.88-4.67,1.09-8.08,5.43-9.14v-.07l.76-1,.28-6.92c.43-3-.1-6.07,1-9v-2C115.32,91.56,113.85,91.56,113.74,89.56Z"/><path class="cls-7" d="M15.54,57.74h-.8c-6.63,2.48-4.81-3.32-6-6.18v-2c-1.32.2-2.63-2.45-4,0v2c1.24,3.79,2,7.56-.46,11.2,2.3,5.33,7.24,8.14,11.24,11.91C19,70.61,16.8,66,16.74,61.61,15.22,60.67,15.81,59.07,15.54,57.74Z"/><path class="cls-8" d="M34.08,86.69c-1-2.74-3.79-3.88-5.22-6.18-.32-1.64.54-3.53-1.07-4.89-3.09,7.34-.2,14.67-.09,22,1.18,2.22-.17,4.07-1,6,0,2.63,3.81,1.51,3.91,4.06a15.09,15.09,0,0,0,3.14,6c0-4.72,1.91-9.65-2.25-13.84-2.24-2.29-.24-9,2.76-9.15,5.84-.36,2.22-3,1.44-5C35.33,86.35,34.36,87.42,34.08,86.69Z"/><path class="cls-3" d="M19.63,80a68,68,0,0,0,1.42-14.23c-.13-5.15-.37-10.48-.91-15.7,0-.26-.84-.43-1.29-.64.24,3.68-1.5,5.7-5.14,6.13a2.22,2.22,0,0,0,1.08,2.12h.8c3.1.45,2.42,2.07,1.2,3.87.06,4.41,2.28,9-1.23,13.1,2,2.67-.2,5.36.12,8.15s1,3.49,3.67,1.86c2.18-1.3,2.6-3.65,4.11-5.3,0-2,1.82-3.68,1.29-5.84Z"/><path class="cls-6" d="M112.9,8.5C105.68,4.66,97.73,2.6,90,0c3.48,6.14,10.09,8.56,15.19,12.78,1.07-1.89,2.1-4.06,3.7-.35l.81,1.07.1.1c1.5-1.56,3.26-2,5-.49,2.7,2.33,3.73.11,5-1.61C118.42,8.5,115.16,9.7,112.9,8.5Z"/><path class="cls-3" d="M26.7,103.62l-1.92,2.19c-.7,3-1.34,6.14-3.28,8.73.2,1.34-.48,2-1.8,2.1q-.07.46-.17.92c-.83,4.41-3.21,8.45-3.15,13.08l.29,2.91c1.9.82,5-1.61,5.9,2.06a3,3,0,0,0,3.09,1.94c.8-3.36-2.92-5.66-2-9q0-.51,0-1c-2-.06-4-.2-2-3,.95-5.64,3.35-10.72,5.95-15.72.7-1.28,1.82-1.29,3-1.21C30.5,105.13,26.7,106.24,26.7,103.62Z"/><path class="cls-9" d="M125.8,60.36l-4.09-5.82a71.75,71.75,0,0,1,.94,17.54,7.82,7.82,0,0,1-.92,2c-1.8-2.15-1.17-5-3-6.62-1.84,1.76-.71,4-1,6,3.47,3.55,1.22,8.06,2,12.06.17,2.59-.5,4.76-3,6v2l2.56-.11c3.23-8.9,5.64-18,5.3-27.57C124.52,64,123.8,61.84,125.8,60.36Z"/><path class="cls-4" d="M119.78,11.48c-1.3,1.72-2.33,3.94-5,1.61-1.69-1.51-3.45-1.07-5,.49.4,2.2.62,4.12,4,3.29a4.35,4.35,0,0,1,5.16,2.72c1.42,3.27,3.17,1.82,4.7-.11V17.69c-1.7-.34-2.31-1.48-1.7-2.93.74-1.75,2-.38,2.92-.11s1.87.62,2.81.94q0-.47,0-.93C125.25,13.08,123.22,10.48,119.78,11.48Z"/><path class="cls-5" d="M7.09,41c1.37,1.17,2.72,2.37,4.12,3.51.62.51,1.22,1,2.14.28,2.86-2.27,5.49-10.79,4.31-14.27Z"/><path class="cls-9" d="M14.42,123.6h-2.6a25.63,25.63,0,0,0-5.37,11.86Q8,137.33,9.68,139.1a24.46,24.46,0,0,1,3.84-11.64Z"/><path class="cls-1" d="M27.56,68.84l.18-.33c-.69.43-1.36-1.27-2.06,0,.19,1.54.34,3.06-.81,4.34a.68.68,0,0,1-.11.66c.53,2.16-1.29,3.79-1.29,5.84,2.53,2.51.8,5.65,1.19,8.48.58,3.4-.23,7.18,3,9.76-.11-7.35-2.91-14.69.09-22Z"/><path class="cls-10" d="M1.5,48.41l-.89,2L0,51.51c.53,4.1,1.32,8.1,4.32,11.23,2.46-3.64,1.7-7.41.46-11.2C2.42,51.8,3,49,1.5,48.41Z"/><path class="cls-11" d="M14.42,123.62c2.34-1.52,1.33-5.89,5.21-6.07q.09-.46.17-.92a1.73,1.73,0,0,1,1.8-2.1c1.94-2.59,2.58-5.67,3.28-8.73-5.21,5.31-9.18,11.53-13.06,17.82Z"/><path class="cls-6" d="M37.61,10.4A35.85,35.85,0,0,0,25.77,22.56c2.1.63,3.56.55,4.27-2.17.52-2,1-1.85,2.85-.79l2.84-3,2.72-3.84C39.28,11.56,39.19,10.71,37.61,10.4Z"/><path class="cls-4" d="M143.72,23.56c-2.74.41-2,2.57-2,4.2,0,3.74.28,7.49-2,10.79h3c2.89-3.83,1.58-8.48,2.49-12.69A2.8,2.8,0,0,0,143.72,23.56Z"/><path class="cls-2" d="M115.74,102.61c2.9-2.38,2.85-5.9,3.56-9.12l-2.57.08C115.63,96.49,116.16,99.6,115.74,102.61Z"/><path class="cls-4" d="M4.11,44.31a1.25,1.25,0,0,1-.28-.55,6.48,6.48,0,0,0-2.33,4.6c1.5.63.92,3.44,3.28,3.18v-2C3,48,4,46.11,4.11,44.31Z"/><path class="cls-4" d="M134.89,63.55a7.71,7.71,0,0,0-4.62,1.34l1,.89,1.42.78a1.23,1.23,0,0,0,.85.37C133.56,65.63,136.61,65.55,134.89,63.55Z"/><path class="cls-2" d="M114.71,110.54c.57-.11.9-.39.76-1Z"/><path class="cls-4" d="M.61,50.41,0,51.51Z"/><path class="cls-5" d="M131.31,65.78l1.42.78Z"/><path class="cls-5" d="M4.11,44.3A.53.53,0,0,1,4.74,44V42.68l-.91,1.07A1.25,1.25,0,0,0,4.11,44.3Z"/><path class="cls-5" d="M127.69,14.65v.93l1.15-.1Z"/><path class="cls-6" d="M106.87,165.3c1,.84.85,2.1.85,3.28s-.1,2.61-.15,3.94c.56,2,1.52,2.73,3.26,1l-.12-2,.89-1.06v-1.94c-.55-5.7-3.09-11.52,1.72-16.83a2.44,2.44,0,0,0,.66-1.49,2.41,2.41,0,0,0-.19-1.11A85.56,85.56,0,0,1,103.63,156C103.57,159.4,103.92,162.68,106.87,165.3Z"/><path class="cls-6" d="M111.73,147.59c-.35,2.35-2.56,2.78-4,4-1.12,1.08-2.07,2.52-4,1.76,0,.89-.08,1.78-.1,2.67a85.56,85.56,0,0,0,10.16-6.92A2.43,2.43,0,0,0,111.73,147.59Z"/><path class="cls-2" d="M110.75,171.56l.89-1.06Z"/><path class="cls-2" d="M77.43,35.59C75.86,34.19,74,33,73.59,30.7q-.45-.08-.89-.2c-2.73-.73-4.51,3.32-7.34,1.59s.26-4.85-1.33-6.8c-3.36-4.12-.58-5.46,2.74-7,3.68-1.69,6-5.12,9-7.69-2.54.57-5.32.63-7.13,2.9-2.91,3.65-7.17,3.52-11.17,3.91-2.63.29-4.91-.66-2.54-4,.79-1.12.75-3-.44-2.5-2.77,1.12-4.76.49-6.84-1.11l-.94,1.63c0,2.79,2.06,4.83,1.34,8.14s5,3.33,6.2,6.58c.13.39,1.23-.83.79-2s-.53-2.58.84-2.93c1.82-.48,2.33,1.58,2.33,2.52-.08,2.76,3.58,4.76,1.42,7.76l0,2.88c1.71,2.22,1.57,5.95,4.85,6.79,3.85,1,7.85-.56,11.85,0,1.89.27,1.16-2.24,1.38-3.58Z"/><path class="cls-6" d="M89.75,16.44c-2.26-1-4.58-1.94-5.11-4.79l-2.9-.09c-1.74,1.36-3.23,1.59-4.09-.93H75.8c-3,2.57-5.34,6-9,7.69-3.32,1.55-6.1,2.88-2.74,7,1.59,1.94-1.53,5,1.33,6.8S70,29.8,72.73,30.53c-1.11-3.07-3.6-5.77-2.07-9.57.49-1.17.21-3,1.88-3,2.7.05,1,2.14,1.21,3.36a20,20,0,0,0,.58,2c2-1.15,2-2.39,1.85-4.26s.59-4.16,3.59-2.63l3.83.2c2-.08,3,.92,3,2.92l.1.07,1.12,0c3,.45,2.08-1.57,2-3.06Z"/><path class="cls-6" d="M55.9,21.37c-1.37.34-1.23,1.93-.84,2.93s-.66,2.34-.79,2c-1.2-3.25-6.93-3.23-6.2-6.58s-1.36-5.5-1.36-8.29c-4.24.23-5.33,5-8.92,6.2l-1.13,3.81c1,.64,1.38,2.27,3,2.1,1.8-1.24,2.73-1.61,5.54-.39,4.3,1.89,6.61,5.07,9.45,8,1.76,1.78,3.33.59,5,.5,2.16-3-1.5-5-1.42-7.76C58.25,23,57.72,20.91,55.9,21.37Z"/><path class="cls-2" d="M107,23.3c-1.34,5.25-3.21,4.1-4.63,1.25-2.62-5.28-7.91-6-12.49-8,0,1.49,1,3.51-2,3.06l-.1,1.08c1.72,2.31,5,1.16,6.91,3,3.58,1,5.22,3.59,5.93,7L102,32.27l1,1.09.21,0,1.6.21c1.35-4.11,4.44-2.13,7-2l.1-.12C111.34,28.3,106.86,27.79,107,23.3Z"/><path class="cls-2" d="M115.89,31.3c-1.23,3.2-2.79-1.21-4.06.18l-.1.12c1.14,1.75,1.07,3.75,1,5.75-.1,2.88,1,4.79,4,5.21l.26-2.07C116.27,37.48,117.89,34.17,115.89,31.3Z"/><path class="cls-2" d="M35.73,16.6l-2.85,3a3.52,3.52,0,0,0-.21.93,2.51,2.51,0,0,0,1.13,2.16l2.83-1.28,1.13-3.81A2.24,2.24,0,0,1,35.73,16.6Z"/><path class="cls-2" d="M84.63,11.69c.53,2.85,2.85,3.79,5.11,4.79C89.7,13.1,88.12,11.38,84.63,11.69Z"/><path class="cls-2" d="M77.63,10.67c.86,2.52,2.35,2.29,4.09.93C80.64,10.06,79.07,10.65,77.63,10.67Z"/><path class="cls-12" d="M103.76,87.8l-6.64,3.13-1.27,3.6.37,3c4.44,4.69,4.67,5.86,1.67,8.35,0,2.78,2.72,4.43,3,7.12l3.7-1.53c2.14-4.81-1.78-10.16,1.51-14.81C105.89,93.54,105.71,90.41,103.76,87.8Z"/><path class="cls-6" d="M99.38,118.48c-1.13,1.52-3.49.42-4.49,2.12a.45.45,0,0,0-.21.57c2.6,6.39,2.24,7.71-2.89,10.54-.49,3,1.32,6.77-3.28,8.39-1.39.5-.39,1.9.61,2.7,2.15,1.73,2.22,4,.22,5.49-3.26,2.43-4,5.74-4.51,9.34,3.32-.87,2.84-6,6.84-6.09C90,147,94.58,145,95.89,141.7c2.43-6.2.49-13.08,3.73-19C100.38,121.35,101.67,119.75,99.38,118.48Z"/><path class="cls-9" d="M95.51,160.5c-.19.46-1,.67-1.55,1,0,.65-.1,1.3-.16,2-.16,1.42.12,3.37-2.16,2.86-1.91-.42-1.88-1.92-1.06-3.47a7.49,7.49,0,0,0,.53-1q-2.44.88-4.92,1.58a1.6,1.6,0,0,1,1.27,2.2l.09,3.89,1.19,1c1.69.83,3.36,1.63,2.89,4a2.29,2.29,0,0,0,2,1.12q.1-1.08.1-2.08c-1.23-2.28-1.65-4.16,2-4,.22-2.11.1-4.43,3-4.89.23-.61.29-1.41.72-1.78a2.69,2.69,0,0,0-.1-4.56q-1.8.9-3.65,1.71Z"/><path class="cls-9" d="M95.69,160q1.84-.8,3.65-1.71l-.1-.08C97.13,156.76,96.35,158.39,95.69,160Z"/><path class="cls-9" d="M91.76,158.67c-1.72-2.36.6-4.78-.09-7.16-4,.09-3.52,5.22-6.84,6.09l-.29-.07.31,3.94,1,1.88.33.09q2.49-.7,4.92-1.58A7.49,7.49,0,0,0,91.76,158.67Z"/><path class="cls-1" d="M101.71,164.56c-.87,3.06-1.93,1.64-3,.12-2.89.46-2.77,2.77-3,4.87h0l.4.23-.41-.21v0c-3.65-.15-3.22,1.72-2,4,6.08,4.21,6.08,4.21,12.43-.63a4.24,4.24,0,0,1,1.41-.42q.08-1.94.15-3.94C105,168.31,104.79,164.27,101.71,164.56Z"/><path class="cls-1" d="M96.12,169.78l-.4-.23h0v0Z"/><path class="cls-1" d="M106.68,142.59c-4.86-2.51-8.06-1-10.47,3.79-.89,1.78-2,3.18-.51,4.87s3.34,2.79,5.59,1.23c1.29-.9,2.12-.85,2.45.84,1.93.76,2.88-.68,4-1.76A24.69,24.69,0,0,1,106.68,142.59Z"/><path class="cls-7" d="M97.81,105.83c-1.25-1.38-.33-4.6-3.61-4.26l-.3.14-.29-.15c-1.87,2.56-2.22,4.8-.3,7.86,2,3.24,1,7.43,1.58,11.16,1-1.68,3.36-.62,4.49-2.1-.57-2.12,1-3.66,1.43-5.53C100.56,110.27,97.86,108.61,97.81,105.83Z"/><path class="cls-9" d="M111.25,141.5c-1.42-1.34-3.17,0-4.56,1.06a24.69,24.69,0,0,0,1.05,9c1.43-1.21,3.65-1.65,4-4-.9-.26-2.4-.34-1.19-1.76S112.4,142.57,111.25,141.5Z"/><path class="cls-13" d="M90.58,162.85c-.82,1.55-.85,3,1.06,3.47,2.29.5,2-1.45,2.16-2.86.06-.65.11-1.3.16-1.95a6.06,6.06,0,0,1-.14-.68q-1.34.54-2.71,1A7.49,7.49,0,0,1,90.58,162.85Z"/><path class="cls-13" d="M91.76,158.68a7.49,7.49,0,0,1-.65,3.18q1.36-.49,2.71-1C93.63,159.73,93.52,158.57,91.76,158.68Z"/><polygon class="cls-1" points="101.72 164.56 101.73 164.56 101.31 164.33 101.72 164.56"/><path class="cls-4" d="M134.72,38.67c-2.15-2.29-3.83-5.12-7.11-6.11-4.46.35-3.16,4.73-4.88,7l.18,4c1.23.09,1.84.72,1.64,2,.32,2.44.6,4.93,4.1,3A24.42,24.42,0,0,1,128,38.17C130.26,39.1,132.45,40.67,134.72,38.67Z"/><path class="cls-10" d="M123.62,17.68v1.79c1.56.92.84,2.73,1.54,4,1.56,2.64,2.76,5.73,6.5,6,1,.08,2.49.45,2.63-1.32C134.54,24.93,127.38,17.92,123.62,17.68Z"/><path class="cls-14" d="M123.39,30.17c-1.13,1.49-6.21,2.31-2.66,6.13a18.25,18.25,0,0,1,2,3.26c1.72-2.26.42-6.63,4.88-7C127.4,29.48,124.66,28.54,123.39,30.17Z"/><path class="cls-14" d="M117,40.49l-.26,2.07c1.94,4.16.58,8.58,1,12.87l2.94-.86,1-1a6.61,6.61,0,0,0,0-.93c-2.13-3.74-2.07-8.07-3.07-12.07Z"/><path class="cls-4" d="M119.68,38.15c-1.2.15-.83,1.52-1,2.42,1,4.07.93,8.33,3.07,12.07q-.51-6.31-1.07-12.63C120.68,39.21,120.68,38,119.68,38.15Z"/><path class="cls-14" d="M129.83,50.57c.47,2.22-1.94,5.8,2.81,6C132.1,54.38,132.15,51.92,129.83,50.57Z"/><path class="cls-4" d="M132.89,58.49c-.22,1.37.5,2,1.73,2.12a1.76,1.76,0,0,0-1.73-2.12Z"/><path class="cls-14" d="M122.89,43.55c-.2,1.29.44,1.9,1.64,2C124.74,44.3,124.13,43.67,122.89,43.55Z"/><path class="cls-9" d="M121.76,54.56v-1l-1,1Q121.24,54.54,121.76,54.56Z"/><path class="cls-4" d="M108.89,12.43l.79,1.06Z"/><path class="cls-10" d="M54.64,83.58c-1.14-.24-3,.76-3.14-1.24-.16-2.45-.31-5.11.45-7.37.9-2.66,3.47-9.15,3.8-12.15-5.57-1.71-.16-3.47,0-5.21l-.89-3c-.77-1.18-2-1-3.13-1a5.57,5.57,0,0,1-.86.13c-.21.84.06,2.29-1,2.29-1.65,0-.93-1.54-1.14-2.47l-1-1.09h-1L44.66,53c-.39,3,2.83,3.2,4.06,5.09,3.92,6,0,11.88,1.26,19.26-3.11-2.92-5.41-3.78-8.11-4.06-2.15-.22-3.34-2.68-3.52-4.38-.24-2.23,2.21-1.13,3.48-1.36,1.72-.32,2.79-1,2.8-2.89S43.53,62.45,42,63c-1.14.38-2.14.2-2.14-1.13-.09-1.75-.88-3.77.91-5.11,1.26-1,2.14-2,2-3.71-4.77-5,1.66-3.19,2.8-4.6v-1a6.67,6.67,0,0,1-4.71-1l-1.09-.87c-1.62.09-3-.27-3.43-2.1-1.81.13-1.77,1.91-2.62,2.91.21,3.25,2.27,6.64-.94,9.82-2.4-2.5-1.92-5.61-2-8.61h-3c-.11,7,2.74,14,0,21l-.18.33c3.17-.44,1.86,2.25,2.53,3.56,2.56-.32,1.09-2.75,2.09-4.17,3,3.06-.58,6.33.57,9.26l1.19,4c1.93.27,1.8,1.69,1.73,3.08,3-.68,3.7,2,5.27,3.52,1.4,1.42,1.78,3.6,3.78,4.42v-4c-2.55-7.44-2.72-9.09,2.73-9.7-1.71,2.62-4.37,5.14-.71,7.76,1.6-1.8,3.44-2.9,3.77.61a5.38,5.38,0,0,0,3.12,4.64c3.53,1.88,1.92,6.68,5.09,8.68l1.9-.2c-.51-5.4-3.43-10-4.64-15.22C55.74,84.15,55.58,83.78,54.64,83.58ZM38.28,53.85c-.07.19-.45.26-.71.39l-.45-.67.94-.49C38.14,53.34,38.35,53.66,38.28,53.85Z"/><path class="cls-7" d="M25,51.27c-2.05-1.78-1-3.91-1.24-5.78-.65-3.15.66-6,1.35-9,.37-1.59,1.92-3.87-1.2-4.72l-1.08,1.79a2.09,2.09,0,0,0-.84,2c1.32,1.61,0,1.81-1.12,2.1l-.18,1.86c.32,1.58.74,3.15,1,4.74.35,2.15-.42,3.49-2.83,3.42v1.78c.45.21,1.29.39,1.29.64.55,5.22.79,10.55.91,15.7A68,68,0,0,1,19.63,80l5.14-6.46a.68.68,0,0,0,.11-.66c-.19-1.54-.62-3.11.81-4.34.7-1.29,1.37.4,2.06,0,2.71-7-.13-14,0-21C25.89,48,25.89,48,25,51.27Z"/><path class="cls-12" d="M50.54,36.71c-2.46-1.3-3.34-3.93-4.91-6H43.86C44.48,33,44.8,35,41.74,36c-2.61.86-3,4.08-5.25,5.49q-.1.93-.19,1.93c.43,1.83,1.81,2.18,3.43,2.1l1.09.82a6.67,6.67,0,0,0,4.71,1,4.31,4.31,0,0,1,3.18-.69c.19-.6.23-1.64.58-1.75,4.1-1.34,2.49-4,1.6-6.49Z"/><path class="cls-5" d="M54.64,31.09c-2.84-3-5.14-6.13-9.45-8-2.81-1.22-3.74-.86-5.54.39v1c2.38,1.09,2.2,2.5.45,4.09-1.39,1.27-.77,1.87.76,2.11h4.77l2.1-1.3c2.41-1.34,2.68.4,3,2.07l1.14,1.1c3.46,1.21,1.22,4.11,1.77,6.11.24,1.74,1.82,2.17,3,3,1.07-2.36-2.25-6.52,3-7.19q0-1.44,0-2.88C58,31.68,56.38,32.88,54.64,31.09Z"/><path class="cls-13" d="M36.6,21.32,33.77,22.6c-.57,3.28-.64,6.87-4.94,7.76-.18,1.63-.35,3.27-.57,4.9-.08.62-.37,1.82.34,1.57,6.11-2.08-1.26,3.71,2.62,3,.21-2.64,3.9-3.78,3.52-7.55s1.69-6.2,4.94-7.77v-1C38.06,23.69,37.69,22,36.6,21.32Z"/><path class="cls-10" d="M40.89,30.75c-.44,2.11-2.28,3.15-3.55,4.65-1.7,1.89-2.48,3.85-.82,6.17,2.25-1.41,2.63-4.64,5.25-5.49,3.06-1,2.75-3,2.12-5.33Z"/><path class="cls-3" d="M29.78,43.47c-2.5.37-1.45-2.54-2.87-3.23-2,1.27-.47,4.53-3.14,5.27.24,1.86-.76,4,1.24,5.78.84-3.28.84-3.28,2.74-3.75l3,0,1.1-1.18-1.08-2.81A4.21,4.21,0,0,1,29.78,43.47Z"/><path class="cls-7" d="M31.8,46.37l-1.1,1.18c.09,3-.39,6.11,2,8.62,3.27-3.15,1.22-6.55,1-9.8Z"/><path class="cls-10" d="M4.73,44a.53.53,0,0,0-.63.27C4,46.11,3,48,4.73,49.57c1.37-2.46,2.68.2,4,0C10.73,45.29,6.73,45.38,4.73,44Z"/><path class="cls-6" d="M32.67,20.53l-3.81,9.92c4.3-.9,4.37-4.49,4.94-7.76A2.51,2.51,0,0,1,32.67,20.53Z"/><path class="cls-10" d="M13.71,55.58c-3.15.48-2.22-4-4.92-4.06,1.16,2.86-.66,8.66,6,6.18A2.22,2.22,0,0,1,13.71,55.58Z"/><path class="cls-3" d="M20.64,39.51c-2.85,2.23-1.2,5.49-1.83,8.16,2.41.08,3.18-1.27,2.83-3.42C21.41,42.66,21,41.09,20.64,39.51Z"/><path class="cls-3" d="M20.82,37.65c1.12-.29,2.44-.5,1.12-2.1C20.89,35.91,20.74,36.71,20.82,37.65Z"/><path class="cls-3" d="M22.75,33.59l1.14-1.82C22.89,31.94,22.78,32.73,22.75,33.59Z"/><path class="cls-13" d="M29.79,43.46a4.21,4.21,0,0,0,.94.1C30.46,43.07,30.16,42.9,29.79,43.46Z"/><path class="cls-14" d="M139.72,38.55c-2,5-4.51,9.89-4.05,15.49,2.84-5,6.05-9.75,7.05-15.49Z"/><path class="cls-14" d="M106.32,79.65a7.91,7.91,0,0,1-2.93-4c-1.23.25-2.4-1.78-3.65-.08.3,2,3.32,3.56,1,6L101,84.5l.27,0a2.86,2.86,0,0,1,2.4,3.25c2,2.63,2.2,5.76,2.41,8.88,1.86-4.86,1.44-10,1.55-15V81.6C106.62,81.35,106.61,80.4,106.32,79.65Z"/><path class="cls-15" d="M117.76,73.53a3.4,3.4,0,0,0-2,2c1.27,3.25,4.76,6.81-1.24,9.07-1.66,2.37-3.19,3-3.66-.63a10.8,10.8,0,0,0-1.36-4.46h-1.81l-.09.09v2.06c2.28.71,2.34,2.65,2.08,4.41-.53,3.49,1,4.18,4,3.49,1.32-2.4,3.51-3.46,6-4C119,81.59,121.24,77.08,117.76,73.53Z"/><path class="cls-13" d="M113.71,89.57c.11,2,1.58,2,3,2,2.48-1.25,3.14-3.42,3-6C117.23,86.13,115,87.19,113.71,89.57Z"/><path class="cls-10" d="M15.59,57.68c.3,1.32-.32,2.92,1.2,3.87C18,59.76,18.69,58.13,15.59,57.68Z"/><path class="cls-7" d="M40.8,161a3.43,3.43,0,0,1-.84,2.67,1.9,1.9,0,0,0,.9,1.92c4.31-.28,4.39,3.61,6,6,3.48,1.14,5.79,4.08,9.62,5.14,3.36.93,4.54-.1,5.09-2.26,1.18-4.68,4.53-6,8.42-5.68,3.17.25,3.15-1.14,2.72-2.89-1.84.15-3.7.23-5.57.23A70.76,70.76,0,0,1,40.8,161Z"/><path class="cls-7" d="M68.15,157.74c-1.32-1.19-3-2.09-3.38-4.09H62.9c-.25,1.61-1.11,2.35-2.65,1.55-1.1-.6-1.76-1.47-.47-2.6,1.32-3.87-2.28-4.91-4-7-4-.89-5.62-5.1-6.71-7.59-2.44-5.55-7.29-9.21-9.69-14.55a14,14,0,0,1-.63-2.86c-2.6-1.66-3-4.89-5-7a15.06,15.06,0,0,1-3.14-6c-1.22-.08-2.34-.07-3,1.21-2.6,5-5,10.09-6,15.72a2.84,2.84,0,0,1,2.09,3q0,.51,0,1c2.5-.25,3.61.48,4.3,3.32.44,1.8,0,7.26,5.58,4.54.59-.29,4.75,2.9,5.75,5.71,1.68,5,4.81,10.18-.52,15-.26.24-.13,1-.13,1.46a3.65,3.65,0,0,1,2,2.33,70.76,70.76,0,0,0,26.34,5.13c1.87,0,3.73-.08,5.57-.23l-.14-.54A15.15,15.15,0,0,0,68.15,157.74Zm-7.65,4.43c-.41,1.63-1.64,1.17-2.81.87-1.75-.45-3.53-.74-5.29-1.16-2.38-.56-4.33-1.52-4.66-4.39-.36-3.18,1.39-5.32,3.32-7.39.29-.32.91-.33,1.14-.41h0c2.08-.17,2.19,1.13,2.68,2.48.87,2.61,1.42,5.5,4.61,6.61C61.12,159.35,60.82,160.91,60.5,162.17Z"/><path class="cls-3" d="M59.8,120.45c-2.24-5.91-3.75-12.12-7.3-17.48-1-1.44-.9-3.1-.85-4.74-.89-2.35-.49-5.34-3.66-6.84-.42,3.42,1.19,6.35,1.85,9.35.24,1.13,1.77,2.6-.14,3.31-1.37.51-1.74-1.1-2.09-2.18a2,2,0,0,0-1.89-1.29c-1.15,0-2.32-.06-3,1.18-.86,1.48-1.58,3.71-3.86,1.42s-4-5-3-8.16c.3-.93,3-4,5.61-1,.57.65,2.18.4,3.31.56v-2c-2-.83-2.37-3.05-3.78-4.42-1.56-1.52-2.27-4.2-5.27-3.52v1c.78,2,4.4,4.64-1.44,5-3,.15-5,6.86-2.76,9.15,4.16,4.19,2.2,9.13,2.25,13.84,2,2.06,2.42,5.29,5,7,1.43,1,3.63.67,4.27,3,.33,1.17,1.55,1.16,2.48.53,1.23-.83.4-1.58-.15-2.45-1.27-2-3.73-3.46-3.09-6.32a1.94,1.94,0,0,1,1.71-.45c3.14,1.74,7.77,2.74,8.36,6.44,1.21,7.57,7.84,7.47,12.45,10.28-.21-2.94-2.37-5.19-3-8A2.78,2.78,0,0,1,59.8,120.45Z"/><path class="cls-13" d="M34,81.44l-1.19-4-2-1c-.39,1.49.75,3.71-2,4C30.24,82.73,33,83.87,34,86.62c.27.77,1.25-.31,1.62-1v-1l.08-.1A2.8,2.8,0,0,1,34,81.44Z"/><path class="cls-11" d="M30,72.43c-.67-1.31.64-4-2.53-3.56l.19,6.75c1.61,1.35.75,3.25,1.07,4.89,2.79-.31,1.65-2.52,2-4A5.4,5.4,0,0,1,30,72.43Z"/><path class="cls-13" d="M9.66,139.45l.42.07-.39-.42C9.68,139.22,9.67,139.33,9.66,139.45Z"/><path class="cls-13" d="M24.41,152.81c-2.54-1.32-4.77-3.52-7.68-1.18,1.46,1-.78,3,1,4,2.6-.23,4.07,1.83,6,2.94,2.11,3.46,6.52,5.35,7,10,4.73.4,5-3.83,4.4-6-.46-1.58-.92-3.22-1.42-4.86a82.68,82.68,0,0,1-9.42-5.77A1.91,1.91,0,0,0,24.41,152.81Z"/><path class="cls-13" d="M12,141.53c.21.66.34,1.37.57,2a7.44,7.44,0,0,0,3.12,4.18c.24-.78-.14-1.81.06-2.58Q13.85,143.38,12,141.53Z"/><path class="cls-13" d="M24.32,143.89c-4.68-2.31-4.42-4.85-4.74-8.31-1.45,0-2.81-.11-2.81-2.11l-.29-2.91c-2.11,0-1.43-2.58-3-3.11a24.44,24.44,0,0,0-3.84,11.66l.39.42a2.62,2.62,0,0,1,1.94,2q1.84,1.85,3.75,3.58a1.28,1.28,0,0,1,.94-.94c1.71-.57,1.84,1.43,2.61,2.43.38.47,1,1.3,1.28,1.21,6.44-2.48,3.8,1.72,3.69,4.13a82.68,82.68,0,0,0,9.42,5.77C32,152,29.63,146.47,24.32,143.89Z"/><path class="cls-14" d="M35.12,162.58c.6,2.2.33,6.43-4.4,6v3c2.21-.58,3.15,1.94,5.07,2.07h3c.78-1,2.22-6.74,2-8.12a1.9,1.9,0,0,1-.89-1.92c-1.39-.92-1.27-2.21-1.17-3.48-1.7-.74-3.38-1.53-5-2.4C34.19,159.34,34.65,161,35.12,162.58Z"/><path class="cls-14" d="M38.71,158.58c-.56-.27-1.51-.43-1.63-.84-1.59-5.43-5.65-9.75-6.65-15.54-.32-1.92-1.44-4.83-4.69-4.67a3,3,0,0,1-3.09-1.94,3.06,3.06,0,0,1-3.08,0c.32,3.46.06,6,4.74,8.31,5.28,2.57,7.62,8.14,9.38,13.8,1.65.86,3.33,1.66,5,2.4A6.65,6.65,0,0,0,38.71,158.58Z"/><path class="cls-10" d="M33.63,136.37c-5.58,2.72-5.14-2.74-5.58-4.54-.69-2.84-1.8-3.57-4.3-3.32-.92,3.38,2.8,5.69,2,9,3.24-.16,4.37,2.75,4.69,4.67,1,5.79,5,10.11,6.65,15.54.12.4,1.07.57,1.63.84,0-.5-.13-1.22.14-1.48,5.33-4.84,2.2-10,.52-15C38.43,139.26,34.23,136.08,33.63,136.37Z"/><path class="cls-8" d="M14.42,123.61l-.9,3.87c1.52.53.84,3.11,3,3.11-.06-4.59,2.32-8.67,3.15-13.09C15.75,117.71,16.75,122.09,14.42,123.61Z"/><path class="cls-8" d="M16.76,133.45c0,2,1.36,2.11,2.81,2.11a3.06,3.06,0,0,0,3.08,0C21.73,131.89,18.68,134.32,16.76,133.45Z"/><path class="cls-10" d="M21.66,124.58c-2,2.8,0,2.94,2,3A2.84,2.84,0,0,0,21.66,124.58Z"/><path class="cls-8" d="M21.12,114.53a1.73,1.73,0,0,0-1.32,2.06,1.68,1.68,0,0,0,1.8-2.1A1.73,1.73,0,0,0,21.12,114.53Z"/><path class="cls-6" d="M117.78,55.49c-.42-4.28.94-8.7-1-12.86-3.05-.42-4.15-2.33-4.05-5.21.09-2,.17-4-1-5.75-2.57-.13-5.66-2.11-7,2,6.09.71,7.66,3,6.66,9.86-.23,1.67-1.94,2.67-2.69,1.67-1.43-1.82-4.84-1.54-4.43-5.54.42-4.24-3.7-1.29-5.58-2.15v0l-1,1.26c3.28,1.28,3.76,3,.58,4.93a6.83,6.83,0,0,0-3.49,3.94,4.86,4.86,0,0,1,1-.07c1.91,0,3.15-3.43,5.15-1.43,1.8,1.87,2.3,4.72,2.68,7.32.44,3.06-2.62.66-3.45,2a2.37,2.37,0,0,0,3.09,1.69c3.38-1.4,4.08,1,3.82,3s.47,5.66-3.66,5c-1.61-.26-3.22-.78-3.29,1.42-.06,1.82,1.09,3.08,3.24,2.92s3.62.43,3.24,3l1.2,1,1.94,0a7.34,7.34,0,0,0-.17-2c-1-2.6-.49-5.81,1.75-6.24s1.86,3.14,2.44,4.93-.31,4.17,2,5.3a3.4,3.4,0,0,1,2-2c.29-2-.87-4.24,1-5.92C116.78,63.69,118.78,59.49,117.78,55.49Z"/><path class="cls-15" d="M121.76,54.56h-1l-2.94.86c1,4-1,8.2.93,12.12,1.83,1.65,1.2,4.46,3,6.61a7.82,7.82,0,0,0,.92-2.05A71.75,71.75,0,0,0,121.76,54.56Z"/><path class="cls-3" d="M10.09,139.54q.9,1,1.82,1.88A2.54,2.54,0,0,0,10.09,139.54Z"/><path class="cls-3" d="M24.89,72.85c1.12-1.28,1-2.85.81-4.34C24.27,69.74,24.68,71.31,24.89,72.85Z"/><path class="cls-6" d="M82.59,42.43c-1.82-.08-2-1.75-2.82-2.82l-2.09-1.93c-.22,1.35.51,3.85-1.38,3.59-4-.59-8,1-11.85,0-3.28-.79-3.14-4.57-4.85-6.79-5.21.67-1.89,4.83-3,7.19l.12,1.82,1,1,1.88-.06c.43-1.71,1.39-2.3,2.83-1.09,5.35,4.5,12.74,2.4,18.44,5.78,1.18.7,2.3-.14,3.12-.92,1.1-1.09.34-2.09-.29-3.09A19.13,19.13,0,0,1,82.59,42.43Z"/><path class="cls-5" d="M77.84,22.91a65.32,65.32,0,0,1,2-6.42c-3-1.53-3.74.8-3.59,2.63s.15,3.11-1.85,4.26a20,20,0,0,1-.58-2C73.61,20.16,75.3,18,72.61,18c-1.67,0-1.39,1.82-1.88,3-1.6,3.74.89,6.44,2,9.51l.91.25,5.21-1.15a3,3,0,0,0,1.89-3C77.91,26.85,77.4,25.06,77.84,22.91Z"/><path class="cls-6" d="M73.61,30.73c.38,2.34,2.28,3.49,3.84,4.89l1.43-.12.36-1.73-.42-4.19Z"/><path class="cls-5" d="M78.89,35.5l-1.44.12.24,2,2.09,1.93C79.67,38.18,80.1,36.66,78.89,35.5Z"/><path class="cls-14" d="M87.74,20.59l-1-.94-.1-.07a3,3,0,0,1-3-2.92l-3.83-.2a65.3,65.3,0,0,0-2,6.42c-.45,2.15.07,3.94,2.9,3.72,2.57-2.18,5.66-2.08,8.78-2.15,1.73,0,3.66.68,5.16-.86C92.74,21.78,89.46,22.93,87.74,20.59Z"/><path class="cls-5" d="M83.62,16.67a3,3,0,0,0,3,2.92C86.63,17.58,85.66,16.57,83.62,16.67Z"/><polygon class="cls-5" points="87.74 20.6 87.86 19.61 86.74 19.66 87.74 20.6"/><path class="cls-5" d="M104.71,33.6l-1.6-.21c-.24,2.71-3.8,1.78-4.44,4.06,1.89.86,6-2.09,5.58,2.14-.41,4,3,3.71,4.43,5.54.74,1,2.45,0,2.69-1.67C112.34,36.6,110.81,34.31,104.71,33.6Z"/><path class="cls-4" d="M94.65,23.63c-1.5,1.54-3.43.86-5.16.86-3.12,0-6.21-.07-8.78,2.11a3,3,0,0,1-1.84,3l.42,4.19,3.38-.27c-.1-2.93,2-4.44,4-6,5.06-3.11,8.6-.1,12.11,3l1.8.14C99.87,27.25,98.23,24.63,94.65,23.63Z"/><path class="cls-10" d="M101.89,32.25l-1.32-1.58-1.8-.14c.52,2.47-1.37,3.24-3.06,4.13v2.85l.18.28,1.07.39a6.18,6.18,0,0,0,.62-.12l1.08-.57v0c.63-2.28,4.2-1.36,4.44-4.06l-.21,0Z"/><path class="cls-4" d="M102.89,33.34l-1-1.08Z"/><path class="cls-8" d="M93.64,83.56l-.16-1.91-1.89-.07c-2-.84-7,2-5-4l-2-1.06c-1,.6-1.21,2.12-2.63,2.21q.53,3.3,1,6.6c1.94.8,6-.23,3.66,4.24l.12,2c.47.1,1.22-.23,1.15.66,0,.14-.76.21-1.16.31l-1.17,1a2.59,2.59,0,0,0,2.09,2.16l5.19-.51,2.94-.68,1.27-3.6a3.47,3.47,0,0,0-.63-.5C93.64,88.88,91.7,87,93.64,83.56Z"/><path class="cls-3" d="M94.2,101.58c3.28-.34,2.36,2.88,3.61,4.26,3-2.48,2.77-3.66-1.67-8.35C95.5,98.86,93.56,99.58,94.2,101.58Z"/><path class="cls-8" d="M101,84.49c-1.29,2.13-5,2.45-4.47,5.92.17.16.34.32.5.49l6.64-3.13q0-.13,0-.27A2.86,2.86,0,0,0,101,84.49Z"/><path class="cls-11" d="M95.77,94.55l-2.94.68c.39,2.2-1.24,3.62-2.08,5.34l2.86,1,.29.15.3-.14c-.64-2,1.3-2.73,1.94-4.09Z"/><path class="cls-1" d="M93.61,101.54l-2.86-1-.14,0c-.39,2.13-2.72,2-3.84,3.33,0,2.07.16,4.21-3,3.55l-.19.17c.7,2.39-1.18,3.57-2.3,5.15-2.18,3.08-2.14,4.1-.07,7.21-.3.09-.87.32-.87.25-4.6-7.55-9.45.89-14.15-.2a6.54,6.54,0,0,0-2.39.41l-1.16,2.16a1.22,1.22,0,0,1,.16.7c3.49,2.55,6.09,6.28,10.09,8.15l1.83.3c4.42-.37,9.14,1,13.08-2.21l1-2.81c-1,0-2.17,1.34-2.85-.26a2.42,2.42,0,0,1,.31-2.18c1.27-1.2,2.6-.77,3.72.43,2.22-.32,2.1-3.73,4.7-3.54a.46.46,0,0,1,.21-.57c-.58-3.74.42-7.93-1.58-11.16C91.4,106.34,91.74,104.09,93.61,101.54Z"/><path class="cls-13" d="M90,131.71A18,18,0,0,1,83,134l-.19,1.61a5.18,5.18,0,0,1,1,0c.78.15,2,0,2.26.49,1.69,3.15-.91,14.68-3.71,17a1.63,1.63,0,0,1-2.54-.34H77.9q0,.09,0,.18a1.93,1.93,0,0,1-2.13,1.71l1,6c3.12.35,4.13-4.79,7.77-3h.31c.51-3.6,1.25-6.92,4.51-9.34,2-1.49,1.93-3.76-.22-5.49-1-.8-2-2.2-.61-2.7,4.6-1.62,2.79-5.39,3.28-8.39Z"/><path class="cls-14" d="M90,124.67l-.19-.08a1.36,1.36,0,0,1-1,2v.11l-1,2.81c1.39.07,2,.92,2.15,2.18H91.8c5.09-2.84,5.49-4.15,2.92-10.56C92.12,120.94,92.24,124.35,90,124.67Z"/><path class="cls-8" d="M77.81,169.56a2.08,2.08,0,0,1,.94,2l1,4c1.68-3.16,4.42-3.65,7.68-3.16.89.13,1.15-1,1.31-1.8l-1.11-1c-3.82.53-6.32-.78-6.8-4.83-1,.2-2,.37-3,.53Z"/><path class="cls-8" d="M77.81,164.56v.7c1-.16,2-.33,3-.53,0-.06,0-.11,0-.17Z"/><path class="cls-3" d="M80.75,164.75c.47,4,3,5.32,6.8,4.82l-.12-3.83a1.78,1.78,0,0,1-1.62-2.19Q83.31,164.24,80.75,164.75Z"/><path class="cls-3" d="M85.83,163.45l-1-1.88c-2.1,0-4.41-.29-4.1,3,0,.06,0,.12,0,.18q2.55-.51,5.06-1.2S85.82,163.48,85.83,163.45Z"/><path class="cls-14" d="M76.73,160.46l-.09.11a6.85,6.85,0,0,0,1.09,3.94h3c-.32-3.26,2-3,4.1-3l-.33-4.05C80.86,155.72,79.84,160.86,76.73,160.46Z"/><path class="cls-8" d="M85.79,163.78a1.79,1.79,0,0,0,1.67,1.9c.4-1.31-.27-1.9-1.34-2.22l-.29.08A1.78,1.78,0,0,0,85.79,163.78Z"/><path class="cls-8" d="M85.83,163.55l.29-.08-.26-.07C85.85,163.44,85.84,163.49,85.83,163.55Z"/><path class="cls-9" d="M95.71,169.57l.42.21-.4-.23Z"/><path class="cls-7" d="M86.57,89.54c-2.92.06-4.31-1.23-3.66-4.23q-.48-3.3-1-6.6c.06-2.41-1.16-3-3.24-2.22,2.5,8,2.18,8.54-6,7.69A9.37,9.37,0,0,0,67.2,85c-3.81,1.8-8.1-1.2-9.26-6.7-1.26-6-2.83-12.31,3.38-16.94,1.2-.88.9-1.94.2-3-2.6.59-4,2.76-5.75,4.43-.33,3-2.9,9.49-3.8,12.15-.76,2.26-.6,4.91-.45,7.37.14,2,2,1,3.14,1.24.94.2,1.11.56,1.34,1.56,1.21,5.17,4.13,9.82,4.64,15.22,2.88,2.23,1.81,5.57,2.38,8.44,4.59,2.54,8.4-1.81,12.74-1.46-1.11-2.84-3.43-2-5-1.14-4.84,2.55-5.9.14-6-4.12-.11-4.48-.43-9.12,3.3-12.43s7.64-3.2,12.23.49c1.65,1.32,2.94,3.15,5.27,3.41l1.17-1a5,5,0,0,1,0-1Z"/><path class="cls-7" d="M48.7,58.09C47.47,56.2,44.25,56,44.64,53H42.71c.18,1.71-.7,2.71-2,3.71-1.79,1.35-1,3.36-.91,5.11.05,1.33,1,1.51,2.14,1.13,1.57-.52,2.68-.11,2.67,1.7s-1.08,2.57-2.8,2.89c-1.27.23-3.71-.87-3.48,1.36.18,1.7,1.37,4.15,3.52,4.38,2.7.29,5,1.14,8.11,4.06C48.7,70,52.63,64.09,48.7,58.09Z"/><path class="cls-12" d="M60.64,100.36l-1.89.22c-3.26,1.89-5-.77-7.08-2.37-.06,1.64-.15,3.29.85,4.74,3.55,5.36,5,11.58,7.3,17.48h1.43A56.87,56.87,0,0,1,63,108.8C62.45,105.92,63.52,102.59,60.64,100.36Z"/><path class="cls-14" d="M53.62,91.86a5.38,5.38,0,0,1-3.12-4.64c-.33-3.51-2.16-2.41-3.77-.61a1.86,1.86,0,0,1-2,1.94v6l1,6a2,2,0,0,1,1.89,1.28c.35,1.08.72,2.69,2.09,2.18,1.91-.71.39-2.18.14-3.31-.66-3-2.26-5.92-1.85-9.35,3.17,1.5,2.76,4.49,3.66,6.84,2.08,1.6,3.83,4.26,7.08,2.37C55.58,98.54,57.19,93.76,53.62,91.86Z"/><path class="cls-4" d="M61.66,47.71c-1.9-.47-1.93-1.85-2-3.31l-1.88.05a2.14,2.14,0,0,1-2.11,1.17l-1,1.91a3.59,3.59,0,0,0,1.49,2.93c4.07,2.83,1.3,3.46-1.3,4.16l.89,3,4.79-1.06,3.18-5C63.76,49.88,63.56,48.18,61.66,47.71Z"/><path class="cls-13" d="M55.75,57.6c-.16,1.74-5.57,3.51,0,5.21,1.75-1.67,3.15-3.84,5.75-4.43L63,56.76l-2.46-.22Z"/><path class="cls-8" d="M48.53,47.6c-1.4,1.43-.64,3.22-.8,4.86l1,1.09,2.13.17a5.37,5.37,0,0,0,.87-.13c.24-2,1.4-3.84.88-6Z"/><path class="cls-14" d="M56.14,50.43a3.59,3.59,0,0,1-1.5-2.93l-2,.14c.49,2.11-.68,3.95-.91,5.95,1.16,0,2.36-.18,3.11,1C57.44,53.88,60.21,53.26,56.14,50.43Z"/><path class="cls-3" d="M44.76,88.57H45a1.86,1.86,0,0,0,1.77-1.94c-3.65-2.63-1-5.15.73-7.76C42,79.48,42.21,81.13,44.76,88.57Z"/><path class="cls-14" d="M32.17,68.24c-1,1.42.48,3.85-2.09,4.17a5.4,5.4,0,0,0,.69,4.1l2,1C31.59,74.58,35.17,71.3,32.17,68.24Z"/><path class="cls-8" d="M45.55,48.41C44.41,49.81,38,48,42.75,53h1.89l2.06-.59C46.62,51,47.13,49.41,45.55,48.41Z"/><path class="cls-4" d="M45.56,47.47v1c1.58,1,1.07,2.57,1.15,4l1.07.07c.15-1.64-.6-3.43.8-4.86q.07-.45.16-.9A4.31,4.31,0,0,0,45.56,47.47Z"/><path class="cls-14" d="M49.87,56c1.07,0,.81-1.45,1-2.3l-2.13-.17C49,54.48,48.23,56.07,49.87,56Z"/><path class="cls-3" d="M33.89,81.53a2.8,2.8,0,0,0,1.78,3.08C35.74,83.22,35.89,81.79,33.89,81.53Z"/><path class="cls-7" d="M37.13,53.57l.45.67c.26-.13.63-.19.71-.39s-.13-.51-.22-.77Z"/><path class="cls-7" d="M39.73,45.56l1.09.88Z"/><path class="cls-10" d="M53.64,38.66l-2.74-.2c.89,2.49,2.5,5.15-1.6,6.49-.35.11-.39,1.15-.58,1.75l-.16.9,4.11,0,2-.14,1-1.91c.07-.86.2-1.69,1.13-2.09l-.16-1.84C55.48,40.84,53.9,40.41,53.64,38.66Z"/><path class="cls-10" d="M47.74,29.38l-2.11,1.3c1.57,2.07,2.45,4.7,4.92,6l1.32-4.17-1.13-1.1A2.66,2.66,0,0,1,47.74,29.38Z"/><path class="cls-4" d="M51.89,32.55l-1.35,4.17.38,1.74,2.74.2C53.11,36.61,55.35,33.76,51.89,32.55Z"/><path class="cls-4" d="M47.73,29.38a2.66,2.66,0,0,0,3,2.07C50.42,29.77,50.14,28,47.73,29.38Z"/><path class="cls-5" d="M103.24,57.14l-.24.07a2.37,2.37,0,0,1-2.85-1.76c.83-1.35,3.89,1,3.45-2-.38-2.6-.88-5.44-2.68-7.32-2-2-3.24,1.43-5.15,1.43-.34,0-.67.07-1,.07l0,2.8c1.28,1.24,1.59,3.27,0,3.6-3.07.65-2.55,2.22-2.07,4.22A2.06,2.06,0,0,1,92,60l-.29.25a7.17,7.17,0,0,0-.5,10.13c1.27,1.54,2.8,2.83,2.55,5.08l1.95.1,4,0c1.26-1.71,2.43.32,3.65.08l2.39-.18c-.44-1.62-2.93-1.65-2.93-3.84,1.55-.87,2.54.6,3.74,1,.37-2.54-1.2-3.08-3.25-3s-3.29-1.1-3.24-2.92c.06-2.2,1.67-1.68,3.29-1.42,4.13.7,3.39-2.9,3.66-5S106.62,55.75,103.24,57.14Z"/><path class="cls-6" d="M95.71,75.62l-2-.1-.1.05c.52,3.33-2.25,2.77-4.18,3.2l2.19,2.81,1.89.07c.76.06,1.75-.07,1.62,1.06,0,.34-.94.58-1.45.86-1.93,3.45,0,5.32,2.79,6.85-.53-3.48,3.18-3.8,4.47-5.93l-.28-2.93C98.85,79.77,95.65,79.07,95.71,75.62Z"/><path class="cls-15" d="M95.74,75.63c-.09,3.44,3.11,4.14,5,5.94,2.32-2.44-.7-4-1-6Z"/><path class="cls-15" d="M103.39,75.65a7.91,7.91,0,0,0,2.94,4l1.36-.06.09-.09a6.22,6.22,0,0,0-2-4Z"/><path class="cls-6" d="M107.68,81.59v-2l-1.36.06C106.62,80.41,106.62,81.35,107.68,81.59Z"/><path class="cls-5" d="M113.76,70.23c-.6-1.88-.21-5.36-2.44-4.93s-2.75,3.64-1.75,6.24a7.34,7.34,0,0,1,.17,2c3.62,2.83,4,7.06,4.78,11.06,6-2.26,2.5-5.82,1.24-9.07C113.45,74.39,114.36,72.11,113.76,70.23Z"/><path class="cls-2" d="M109.74,73.54l-1.94.06,1.8,5.87A10.81,10.81,0,0,1,110.85,84c.47,3.63,2,3,3.66.63C113.74,80.59,113.36,76.37,109.74,73.54Z"/><path class="cls-4" d="M106.58,72.63c-1.2-.43-2.19-1.91-3.74-1,0,2.19,2.49,2.22,2.93,3.84a6.22,6.22,0,0,1,2,4h1.82l-1.8-5.87Z"/><path class="cls-10" d="M82.76,135.54c-5.52-.37-11.26.8-16.41-2.25a8.39,8.39,0,0,1-1.64-1.76c-4.61-2.81-11.24-2.7-12.45-10.28-.59-3.7-5.22-4.69-8.36-6.44-.4-.21-1.65.17-1.71.45-.64,2.86,1.82,4.32,3.09,6.32.55.87,1.38,1.62.15,2.45-.93.63-2.14.64-2.48-.53-.66-2.29-2.85-2-4.28-3a14,14,0,0,0,.63,2.86c2.4,5.34,7.25,9,9.69,14.55,1.08,2.49,2.71,6.7,6.71,7.59,1.77-4.3,4.34-1,5.94-.2C67,148,71.9,151.54,78.35,149c1.07-.41,1.19.8,1.36,1.59,6.42-3.65,2.61-10,4-15A5.21,5.21,0,0,0,82.76,135.54Z"/><path class="cls-10" d="M74.62,161.62c-1-1.13-2.36-2.14-2-4-3.3,0-4-5.36-8-4,.38,2,2.06,2.9,3.38,4.09a15.15,15.15,0,0,1,4.42,7.58l.14.58q1.2-.09,2.39-.23A9.78,9.78,0,0,1,74.62,161.62Z"/><path class="cls-3" d="M78.34,148.92c-6.45,2.59-11.39-.94-16.71-3.6-1.6-.8-4.16-4.09-5.94.2,1.77,2.12,5.36,3.16,4,7l3.12,1.06h1.87c4-1.34,4.67,4,8,4-.15-2.17.77-3.27,3.07-3.08a1.72,1.72,0,0,1,2.14-1.89H79.7v-2.1C79.53,149.72,79.42,148.49,78.34,148.92Z"/><path class="cls-12" d="M59.46,158.76c-3.19-1.11-3.74-4-4.61-6.61-.45-1.34-.56-2.64-2.64-2.47-.24.08-.85.09-1.19.41-1.93,2.08-3.68,4.22-3.32,7.39.33,2.86,2.28,3.82,4.66,4.39,1.75.42,3.54.71,5.29,1.16,1.18.3,2.4.76,2.81-.87C60.82,160.91,61.12,159.34,59.46,158.76Z"/><path class="cls-3" d="M46.75,171.51c-1.61-2.38-1.69-6.27-6-6.05.24,1.38-1.2,7.12-2,8.12a30.64,30.64,0,0,0,4.19.89c1.58.12,2.25,3,4.07,1.52C48.65,174.65,46.46,173,46.75,171.51Z"/><path class="cls-10" d="M60.13,155.16c1.55.8,2.41.06,2.65-1.55l-3.12-1.06C58.38,153.68,59,154.58,60.13,155.16Z"/><path class="cls-10" d="M39.89,163.55a3.46,3.46,0,0,0,.85-2.61q-1-.41-2-.85C38.61,161.36,38.47,162.64,39.89,163.55Z"/><path class="cls-10" d="M38.71,158.55a6.58,6.58,0,0,1,0,1.55q1,.44,2,.85A3.6,3.6,0,0,0,38.71,158.55Z"/><path class="cls-10" d="M41.34,94c-2.61-3-5.31.08-5.61,1-1,3.16.68,5.79,3,8.16s3,.06,3.86-1.42c.73-1.24,1.9-1.18,3-1.18l-1-6C43.56,94.41,42,94.67,41.34,94Z"/><path class="cls-10" d="M62.31,123.43h-.47l-.13.12c.64,2.78,2.8,5,3,8,2.69-1,5.48,2.7,8.13-.16-4.09-1.87-6.59-5.6-10.09-8.15Z"/><path class="cls-10" d="M61.25,120.41H59.82a2.78,2.78,0,0,0,1.89,3.1l.13-.12a2.68,2.68,0,0,1,0-.81Z"/><path class="cls-8" d="M23.68,158.55c-2.31.2-3.45,1.7-2.76,3.7.6,1.73.23,5.33,2.16,4.89,4.4-1,4.51,3,6.66,4.43l.89-.08q0-1.47,0-2.94C30.23,163.92,25.81,162,23.68,158.55Z"/><path class="cls-15" d="M15.66,147.66c-.82,1.61-.23,2.85,1,3.93,2.91-2.34,5.14-.15,7.7,1.19a2,2,0,0,1-.12-.87,90.88,90.88,0,0,1-8.49-6.81C15.57,145.86,15.89,146.89,15.66,147.66Z"/><path class="cls-15" d="M20.55,147.78c-.28.1-.9-.74-1.28-1.21-.77-1-1-3-2.61-2.43a1.24,1.24,0,0,0-.91,1,90.88,90.88,0,0,0,8.49,6.81C24.35,149.47,27,145.29,20.55,147.78Z"/><path class="cls-9" d="M97.63,38.76a2.88,2.88,0,0,1-.13-.7,2.54,2.54,0,0,1-.61.12L95.7,39.54c-.37,3.92-3,2.18-5,2a9.46,9.46,0,0,1-2,6l.06,2c1.73,1.82,3.75,1.93,5.94,1l.07-2.91a6.83,6.83,0,0,1,3.44-3.94C101.39,41.76,100.91,40,97.63,38.76Z"/><path class="cls-5" d="M97.68,38.76l1-1.26-1.08.56C97.58,38.29,97.63,38.53,97.68,38.76Z"/><path class="cls-5" d="M88.76,49.58l-.06-2c-2.37-2.35-.16-4.7,0-7-2.1.47-4.91-1.49-6.1,1.87a19,19,0,0,0,1.15,2.68c.63,1,1.39,2.09.29,3.09-.82.77-2,1.62-3.12.92-5.7-3.38-13.09-1.28-18.44-5.78-1.44-1.21-2.41-.62-2.83,1.09.06,1.46,0,2.82,2,3.31s2.06,2.17,2.06,3.85c6.41-1.19,13.16-5.39,18.64,2.06.34.47,1.18,1.16,1.59.33.3-.6-.14-1.56-.25-2.36l-.39-.45.45.4c.56.29,1.35.44,1.65.9.61.93.91,2.44,2.36,1.8s.68-1.92.31-3A1.4,1.4,0,0,1,88.76,49.58Z"/><path class="cls-3" d="M84.29,36.3a5.06,5.06,0,0,1-1.68-2.79l-3.38.26-.36,1.73c1.21,1.15.77,2.67.89,4.07.83,1.07,1,2.74,2.83,2.82,1.19-3.36,4-1.39,6.1-1.87l2.11,0,5-.89q.06-.91.06-1.81l-.18-.28C91.81,37.87,87.84,39.78,84.29,36.3Z"/><path class="cls-5" d="M55.69,45.6a2.14,2.14,0,0,0,2.13-1.14l-1-.95C55.88,43.91,55.75,44.73,55.69,45.6Z"/><path class="cls-7" d="M94.49,32.18c-5,5-5.43-.52-7.19-2.88a7,7,0,0,1-.68-1.79c-2,1.55-4.06,3-4,6A5.06,5.06,0,0,0,84.3,36.3c3.55,3.48,7.52,1.57,11.39,1.21V34.67C95.49,33.67,95.32,31.36,94.49,32.18Z"/><path class="cls-12" d="M86.66,27.5a7,7,0,0,0,.68,1.79c1.76,2.36,2.19,7.88,7.19,2.88.83-.82,1,1.49,1.19,2.49,1.68-.89,3.57-1.66,3-4.16C95.26,27.44,91.72,24.43,86.66,27.5Z"/><path class="cls-5" d="M95.8,39.59l1.13-1.42-1.07-.39Q95.8,38.69,95.8,39.59Z"/><path class="cls-12" d="M85.56,93.55c-2.33-.26-3.62-2.08-5.27-3.41-4.59-3.69-8.38-3.92-12.23-.49s-3.41,8-3.3,12.43c.06,4.26,1.11,6.67,6,4.12,1.6-.86,3.92-1.7,5,1.14,2.81.38,3.62-2.27,5.31-3.55a11.63,11.63,0,0,1,4.64-2.35l1.94-5.73A2.58,2.58,0,0,1,85.56,93.55Z"/><path class="cls-6" d="M88.76,49.55a1.4,1.4,0,0,0-.69,1.68c.37,1.07,1.24,2.3-.31,3s-1.75-.87-2.36-1.8c-.3-.46-1.08-.61-1.65-.9l0,.07c.11.8.55,1.76.25,2.36-.41.82-1.25.13-1.59-.33C77,46.18,70.22,50.38,63.8,51.57l-3.18,5,2.46.22H64.8C70.16,54.5,75.27,54.55,80,58.4a3.44,3.44,0,0,1,1.91,3A4.84,4.84,0,0,1,84,64.48c2,3.17.21,6.7.9,10,.8.37.77.74,0,1.12a4.19,4.19,0,0,0-.16.94l2,1.06c1.76-2.54,4.45-2,7-2l.06-.06C94,73.29,92.48,72,91.2,70.46l-.25-.29a7.17,7.17,0,0,1,1-10.09,2.06,2.06,0,0,0,.64-1.71c-.48-2-1-3.58,2.07-4.22,1.6-.33,1.28-2.36,0-3.6C92.51,51.48,90.49,51.38,88.76,49.55Zm-6,7.6-.49-.94c.27-.09.58-.3.78-.23s.26.46.39.72Z"/><path class="cls-10" d="M83.89,64.49l-2,1.13a13.75,13.75,0,0,1-3.13,10.94c2.08-.73,3.3-.2,3.24,2.21,1.42-.09,1.63-1.61,2.63-2.21a4.19,4.19,0,0,1,.16-.94q0-.56,0-1.13C84.1,71.2,85.89,67.68,83.89,64.49Z"/><path class="cls-15" d="M86.66,77.61c-2,6,3,3.16,5,4l-2.19-2.81c1.92-.43,4.7.13,4.18-3.2C91.15,75.56,88.46,75,86.66,77.61Z"/><path class="cls-7" d="M87.65,95.7l-1.94,5.73c1.92,1.24,2.71-3.53,4.9-.9h.15c.84-1.72,2.47-3.14,2.08-5.34Z"/><path class="cls-10" d="M83,85.37c-.65,3,.74,4.29,3.66,4.23C88.89,85.13,84.89,86.16,83,85.37Z"/><path class="cls-15" d="M93.6,81.66l.17,1.92c.5-.29,1.45-.52,1.45-.86C95.35,81.59,94.36,81.66,93.6,81.66Z"/><path class="cls-10" d="M86.73,91.53a5,5,0,0,0,0,1c.4-.1,1.16-.17,1.15-.34C88,91.3,87.2,91.63,86.73,91.53Z"/><path class="cls-8" d="M85.71,101.43a11.63,11.63,0,0,0-4.66,2.35c-1.68,1.29-2.49,3.94-5.3,3.56-4.35-.34-8.15,4-12.75,1.46a56.77,56.77,0,0,0-1.77,11.63l.59,2.17a1.45,1.45,0,0,1,.75-.06l1.16-2.16c3-4.92,7.39-8.31,13-9.18,3-.46,3.34-4.88,6.84-3.64l.19-.17a3.54,3.54,0,0,1,3-3.55c1.12-1.33,3.45-1.2,3.84-3.33C88.43,97.9,87.63,102.67,85.71,101.43Z"/><path class="cls-9" d="M76.76,111.2c-5.65.87-10,4.26-13,9.18A6.54,6.54,0,0,1,66.2,120c4.7,1.09,9.55-7.34,14.15.2,0,.07.56-.16.87-.25-2.07-3.11-2.11-4.13.07-7.21,1.13-1.58,3-2.76,2.31-5.15C80.1,106.32,79.76,110.74,76.76,111.2Z"/><path class="cls-3" d="M74.76,131.71l-1.91-.31c-2.66,2.86-5.44-.84-8.13.16a8.39,8.39,0,0,0,1.64,1.76c5.15,3,10.88,1.85,16.4,2.22l.19-1.61C80.4,132.55,76.67,135.48,74.76,131.71Z"/><path class="cls-7" d="M87.84,129.5c-3.94,3.21-8.66,1.84-13.08,2.21,1.91,3.77,5.63.84,8.19,2.22a18,18,0,0,0,7-2.25A2.14,2.14,0,0,0,87.84,129.5Z"/><path class="cls-2" d="M86.27,124.25a2.42,2.42,0,0,0-.31,2.18c.68,1.6,1.85.26,2.85.26v-.09c0-.86.1-1.63,1-2l.19.08C88.86,123.48,87.54,123,86.27,124.25Z"/><path class="cls-9" d="M83.74,107.39c3.15.61,3-1.48,3-3.55A3.54,3.54,0,0,0,83.74,107.39Z"/><path class="cls-9" d="M61.89,122.6a2.69,2.69,0,0,0,0,.82h.48l.43-.18a1.23,1.23,0,0,0-.16-.7A1.45,1.45,0,0,0,61.89,122.6Z"/><path class="cls-14" d="M83.71,135.57c-1.42,5,2.39,11.34-4,15v2.1a1.63,1.63,0,0,0,2.55.39c2.8-2.36,5.4-13.89,3.71-17C85.71,135.57,84.49,135.72,83.71,135.57Z"/><path class="cls-14" d="M72.68,157.58c-.36,1.86,1,2.87,1.91,4.11l2-1,.09-.11-1-6C73.45,154.3,72.53,155.4,72.68,157.58Z"/><path class="cls-14" d="M77.2,152.63a1.72,1.72,0,0,0-1.48,1.93h.18a1.93,1.93,0,0,0,2-1.9A1.72,1.72,0,0,0,77.2,152.63Z"/><path class="cls-1" d="M88.79,126.58a1.36,1.36,0,0,0,1-2C88.89,125,88.79,125.74,88.79,126.58Z"/><path class="cls-3" d="M75.7,169.48l2.1.06q0-2.14,0-4.28-1.38.21-2.77.37A17.71,17.71,0,0,1,75.7,169.48Z"/><path class="cls-3" d="M76.71,160.6l-2,1a9.77,9.77,0,0,0,.32,4q1.39-.16,2.77-.37v-.72A6.85,6.85,0,0,1,76.71,160.6Z"/><path class="cls-14" d="M75.69,169.51l2.1.06a2.08,2.08,0,0,1,.94,2h-4A2.15,2.15,0,0,1,75.69,169.51Z"/><path class="cls-12" d="M81.89,65.62c-1.14-2.75-4.26-1.55-6-3L73.84,63c-1.15,2.17-2.23,2.14-3.15-.18l-4.89.62c-4.66-1.54,0-4.55-1-6.66H63.08L61.6,58.43c.7,1,1,2.08-.2,3C55.19,66,56.76,72.37,58,78.37c1.15,5.5,5.45,8.5,9.26,6.7a9.37,9.37,0,0,1,5.52-.83c8.15.84,8.48.31,6-7.69A13.76,13.76,0,0,0,81.89,65.62Z"/><path class="cls-6" d="M88.74,47.61a9.46,9.46,0,0,0,2-6V40.52H88.69C88.54,42.88,86.33,45.23,88.74,47.61Z"/><path class="cls-5" d="M90.73,41.62c2,.17,4.63,1.92,5-2l-5,.89Z"/><polygon class="cls-6" points="83.69 51.58 83.75 51.53 83.3 51.13 83.69 51.58"/><path class="cls-7" d="M81.86,61.41c-2.31.07-3.12-.82-1.91-3-4.71-3.85-9.82-3.91-15.18-1.61,1,2.11-3.7,5.12,1,6.66,2.48-4.31,6.9-4.7,10.17-.84,1.74,1.45,4.86.25,6,3l2-1.13A4.84,4.84,0,0,0,81.86,61.41Z"/><path class="cls-10" d="M79.91,58.41c-1.22,2.18-.41,3.07,1.91,3A3.44,3.44,0,0,0,79.91,58.41Z"/><path class="cls-5" d="M83,56c-.2-.08-.52.14-.78.23l.49.94.68-.46C83.26,56.44,83.19,56.07,83,56Z"/><path class="cls-8" d="M84.79,74.5q0,.56,0,1.12C85.56,75.24,85.58,74.87,84.79,74.5Z"/><path class="cls-8" d="M65.77,63.46l4.89-.61,3.15.17,2.09-.45C72.68,58.76,68.25,59.15,65.77,63.46Z"/><path class="cls-7" d="M73.81,63l-3.15-.17C71.58,65.16,72.64,65.2,73.81,63Z"/></g></g></g></g></svg>