<svg xmlns="http://www.w3.org/2000/svg" viewBox="0 0 142.37 172.38"><defs><style>.cls-1{fill:#31261d;}.cls-2{fill:#dccfc1;}.cls-3{fill:#e4d9cc;}.cls-4{fill:#986e46;}.cls-5{fill:#57473c;}.cls-6{fill:#503726;}.cls-7{fill:#f0e7dd;}.cls-8{fill:#765b43;}.cls-9{fill:#d2c3b2;}.cls-10{fill:#957a64;}.cls-11{fill:#e9e0d6;}.cls-12{fill:#c4af98;}.cls-13{fill:#b78556;}.cls-14{fill:#b19b82;}.cls-15{fill:#fcf4ec;}</style></defs><title>jack</title><g id="Layer_2" data-name="Layer 2"><g id="Layer_1-2" data-name="Layer 1"><path class="cls-1" d="M137.13,49.84,134.94,47l-.37.1-.35-.15c-5.89,2.29-5.89,2.29-8.49-5.16-3.71-3.34-5.14-8.21-8.06-12.1-.62-.83-.91-1.66-2.07-1.62l-.91.77-4.17-.92c-2.66,1.33-5,3.47-8.48,2.07-1.74-.69-2.54.92-2.48,2.68.1,2.71-1.31,4.61-3.34,6.17l.36,3c2.11,4.1,7.52,6.42,6.69,12.87-3.11-3.77-7-3.19-10.67-3.2-4.23,5.46-4,7.06,1.66,10.1L89.43,66c5.61,2.94,8.69-1,12.06-5,1.16,2.93,3.71,4.71,3,7.87,1,.67,1,1.31,0,1.93l.08,5,1.2.05a8.85,8.85,0,0,0,2.73-1c3.57-3,6.11-2.84,7.68,2,.46,1.42,1.61,2.63,2.45,3.93a1.87,1.87,0,0,1,1,2h0a6.38,6.38,0,0,1,1.87.54c4.17,2.81,6.19,2.49,6.7-2.43s2.72-8.49,5.14-12.07c2.26-3.35,2.21-6.45,2-10.21C135.1,55.87,132.92,52,137.13,49.84Z"/><path class="cls-2" d="M32.61,129.81h0Z"/><path class="cls-2" d="M89.44,97.18c1.8,7.84-4.71,10.8-9,15-1.47,1.46-2.62,0-3.51-1.28s-3.41-1.61-1.65-3.77a4.22,4.22,0,0,0,1.33-2.51q.07-1.78.14-3.56c-.6.13-1.38.07-1.77.44-1.34,1.23-2.07,3.86-4.41,2.9-2-.81-.61-3.24-1.23-4.83-2.2,0-3.2,1.05-2.84,3.27.77.36.78.67-.06.93-2.91.75-.69,1.42,0,2.12,3,1.67,3.87,3.44.51,5.76a24.17,24.17,0,0,1-8.37,3.76c-1.92.45-3.16.22-4.06-1.52-2.33-.42-4.91.83-7-1-3.39-.78-5-3.56-7-6-2.16-3.39-5.45-6.56-2-11l-5-2-2.93-.08c-.47.93.8,3.64-2.18,2-2.55-1.42-6.19.1-8.2-3.29-.63-1.06-1.5.36-1.68,1.37a1.76,1.76,0,0,1,.71,2.3,3,3,0,0,0,.08,1c4.2-.84,2.9,2.12,2.27,4.93,6-3.18,6.89,1.38,8.63,4.53.22.4.38,1.26.19,1.4-4.69,3.53-.4,7,0,10.46.17,1.54.7,3.35-1.15,4.45l1.63,4.89c1.31.08,1.68.92,1.67,2.06,2,.1,2,1.54,1.95,3,1.28,2.42,5.48-.81,6,3.1,1.29,1.65,4.31,1.76,4.14,4.69l1.14-.56c-.09-2.08,1.65-3.94,2.81-2.75,2.36,2.41,6.14,1.12,8,3.89l2.8,1c1,.19,2.23-.64,3.12.49l1.06.13a.72.72,0,0,1,.8-.07l2.15.25c2.46-2.21,6.25-1,8.65-3.37,1.1-1.22,1.17-3.36,3.27-3.69-.3-1.81.09-3.31,1.9-4.16,2.08-2.23,4.54-4.21,5-7.5.19-1.37,1.12-1.4,2.15-1.35.21-.24.63-.52.59-.72-1.53-9,1.33-16.39,7.55-22.88,1.84-1.93,3.87-4.12,4-7.18h-.9C96.18,94.69,92.34,95.09,89.44,97.18ZM76.16,128.5c-2.3,5-5.85,8.86-11,10.85-2.56,1-4.43-.56-4.09-3.16a7.51,7.51,0,0,0-2.59-6.59c-1.69-1.64-2.23-3.12-1.59-5.22s2.16-2.74,4.21-2.58a4,4,0,0,0,4.06-2.36,4.48,4.48,0,0,1,5-2.62C76.79,116.77,79.24,121.81,76.16,128.5Z"/><path class="cls-1" d="M59.5,6l-.24-1.16-1.57-1c-.54.09-1,0-1.1-.62l-.74-.61L48.6,3.85c-9,4.87-9.13,14.24-11.44,22.53-.27,1-.18,2.38-2,3-.6-2.68-.35-5.91-5-5.59-1.18.08-2.1-5.52-4.19-7.22-4.06-3.3-.53-5.14.75-7.31,1-1.76.7-3.52.83-5.3l-2-.11c-4.65,2.1-4.48,7.93-8.43,10.77-1.85,1.33-.15,9.73,1.57,11.76,2,2.4,5.29,5.1-.63,6.88a1.67,1.67,0,0,0-1,1c-1.06,5.27-2.74,3.37-4.65.47-3.07-4.65-3.1-4.63-5.86.08,0,2,0,3.94,0,5.92C6.43,48,9.47,50.12,16.62,48.17c3.14-.86,5.66-3.26,9.05-3.34l1.09.9,2.93-.86,1.87-2.13C32.2,39.92,34.28,41,36,41.12a1,1,0,0,0,.6-.2c.85-2-2.36-5.05,1.68-6.16l1.3-2.07,1-.88c3.8-3,8.89-2.66,12.92-5.07l.2-1.92c-.84-.52-1.11-1.29-.5-2.05,2.1-2.63,2.3-5.43,1.52-8.65-.48-2-.55-4.55,2.9-4.27l1.93-2V6.68A.55.55,0,0,1,59.5,6Z"/><path class="cls-3" d="M17.67,133.68a14.41,14.41,0,0,0,7.27,1.15c1.85-.12,3.71-.11,4.64,2,1.5,3.66,4.41,4.52,8,4-2-3.84-7.77-4-8.52-9.22-.2-1.42-2.28-.09-3.52,0-3.15.32-6.63,1-6.84-3.9q-.06-.46-.1-.92a5.8,5.8,0,0,1-6-4h-2c-1.26,2.06-2.93,3.69-.77,6.6A1.82,1.82,0,0,1,10.2,131q1.45,1.46,2.95,2.84C14.31,132.87,15.76,132.77,17.67,133.68Z"/><path class="cls-3" d="M7,117.83c2.52-1.59,1.41-4.54,1.63-7A73.71,73.71,0,0,0,0,119.15q1.39,1.85,2.83,3.61A9.09,9.09,0,0,1,7,117.83Z"/><path class="cls-4" d="M61.59,35.39c.18-1.24-.29-2.57-1.56-2.77-3.43-.54-3.46-3.46-4.41-5.77l-2.15-.11c-4,2.41-9.12,2.08-12.92,5.07l-1,.88-1.3,2.07,1.39,1.29c4.45-2.16,8.13-1.42,10.89,2.86,2-.95,2.67-2.28,1.53-4.38a1.57,1.57,0,0,1,1.18-2.28,4.09,4.09,0,0,1,2.2.56c-.55,2.92,3.3,5.37,1.45,8-2.19,3.14-1.26,5.61.48,8.15,1.22,1.78,1,4-.84,3.55-3.29-.8-6.35.48-9.65-.21-5.68-1.2-8.79-4-9.41-9.73a5.22,5.22,0,0,0-.89-1.66,1,1,0,0,1-.6.2c-.26,3.82-2.32,2.78-4.42,1.63L29.7,44.88c.11,1.76-1.59,2.59-2.09,4,.21,4-2.08,7.26-3.09,10.89a17.11,17.11,0,0,0-.87,5.82l-.05,1.18c2,1.57,1.49,4.84,4.06,6l2.94,1c.1-7,1.57-14.07,0-21.15-.35-1.61-.63-4.13,1.87-4.42C34.77,48,34.72,50.5,35,51.92c.85,3.77,1.48,6.69,6.08,2.81,3.08-2.6,6.09.06,7.66,2.23,2.3,3.18-.27,5.44-3.06,7.06a15,15,0,0,1-4.09,4.72c.11,3.45-5.27,4.13-4.09,8.11l1.28.14c5-3.49,8.31-8.52,12.33-12.9C53,60.6,56.54,59,59.6,56.87c1.2-2.67.73-7.35-.88-10.09-.61-1-2-2.73-.28-3.32,2.08-.73,2.43,1.85,3.44,4.27l4.19-9.21C62,40.09,61.16,38.44,61.59,35.39Z"/><path class="cls-5" d="M100.83,24.93a49.07,49.07,0,0,0-18.27-10c.49,3.86-2,5.59-5,7-.09,1.12.2,2.48-1.43,2.74-.89.14-1.94-.33-2-1.09C73.9,21,71,20.19,70.61,17.82c-.39-2-1.38-3.8-1.05-5.89-1.59-1.15-3.46-1-5.23-.91-2.55.21-4-1-4.81-3.19l-1.93,2,2,12A11.78,11.78,0,0,0,62,21.52c6.13-2.06,7.44-1.14,7.51,5.35L69.32,34l.21,2.16,4.26-1,.79,5.76c2.07,0,3-1.69,4.16-2.92,3.47-3.5,6.17-7.79,12.52-6.78,3.55.56,3.73,2.35,4.07,4.8.21,1-.14,2.16.9,2.89,2-1.56,3.43-3.46,3.34-6.17-.06-1.75.74-3.37,2.48-2.68,3.51,1.39,5.82-.75,8.48-2.07l-1.68-1C105.71,28.11,103.3,27,100.83,24.93Zm-24.44,6a11.82,11.82,0,0,1-1.22,1.91c-1-2.43.35-3.46,1.85-4.49A23.39,23.39,0,0,1,76.39,30.88Z"/><path class="cls-6" d="M22.5,2.48C21.27,3.94,19.61,4,17.89,3.93l-1.22.56c-1.21,2.13-3.33,2-5.35,2.18l-2.79.72-.88.45-.07,0c.22,1.72-2.3,2.18-1.83,4,2.17-.22,2.81.85,2.86,2.91.08,2.87-1.65,3.65-3.95,4a57.94,57.94,0,0,0,1.89,16c2.76-4.71,2.79-4.73,5.86-.08,1.91,2.9,3.59,4.8,4.65-.47a1.67,1.67,0,0,1,1-1c5.92-1.78,2.66-4.48.63-6.88-1.72-2-3.41-10.43-1.57-11.76,4-2.84,3.78-8.67,8.43-10.77L25.53,2.2Z"/><path class="cls-7" d="M69.41,155.73l2.23,6.09c3.53.77,5.68-.84,7-4,.11-1-.07-2.17,0-3.19A69.57,69.57,0,0,1,69.41,155.73Z"/><path class="cls-7" d="M81.57,151.83c2.68.1,4.54-1,4.95-3.77.28-1.89,1-3.13,3-3.23-.67-2-.52-4.27-2-6-2.28,2.68-4.09,2.37-5.44-.86l-1.59,1.19-.74.66c-.29,1.15-1.29,1.13-2.16,1.33l-.84.9a1.21,1.21,0,0,1-.25.78c-.13,1.19-1,1.32-1.95,1.43-.35,1.22.42,2.73-1,3.68l-4.93,5.94.68,1.87a69.57,69.57,0,0,0,9.19-1.1C78.71,153.26,79.27,152.11,81.57,151.83Z"/><path class="cls-5" d="M140.31,59.87c-2.95-2.72-2.71-6.35-2.81-9.87l-.11-.25-.26.09c-4.21,2.11-2,6-1.87,8.83.22,3.76.27,6.87-2,10.21-2.42,3.58-4.64,7.27-5.14,12.07s-2.53,5.25-6.7,2.43a6.38,6.38,0,0,0-1.87-.54A12.73,12.73,0,0,0,125,88.42c1.38.84,3.08,1.31,3.55-.81,1.28-5.77,5.8-9,9.56-12.88C143,69.62,143.6,65.27,140.31,59.87Z"/><path class="cls-2" d="M3.55,130.85c.62,1.82,1.21,3.27,3.3,2.67,1.4-.4,3.06-1.34,3.35-2.56a109.11,109.11,0,0,1-7.37-8.19C2.07,125.18,2.54,127.89,3.55,130.85Z"/><path class="cls-2" d="M9.82,129.4c-2.16-2.91-.49-4.54.77-6.6-.17-5.89,2.88-10.5,6.05-15l-1.14-5c-3.56,1.62-5.4,4.7-6.89,8.08-.22,2.41.89,5.36-1.63,7a9.09,9.09,0,0,0-4.15,4.94A109.11,109.11,0,0,0,10.2,131,1.82,1.82,0,0,0,9.82,129.4Z"/><path class="cls-8" d="M48.46.31C40.86,1.54,33.27,2.63,25.53,2.2l.05,1.63,2,.11c.7-1,1.94-1.28,2.46-.39,4,6.87,9.32,3.1,14.06,1.48,1.5-.52,2.85-1.31,4.5-1.18l7.24-1.19C54.19-.63,51.09-.11,48.46.31Z"/><path class="cls-3" d="M24.15,87c-1.65.8-3.16,1.34-3.62-1.25a8.19,8.19,0,0,0-4,8h2c.18-1,1.05-2.43,1.68-1.37,2,3.39,5.65,1.87,8.2,3.29,3,1.66,1.71-1.06,2.18-2-.84-2.94,1.11-5.23,1.8-7.82C29.12,84.6,29.12,84.59,24.15,87Z"/><path class="cls-9" d="M30.78,82.85c.5-3.87-1.54-6.85-3.12-10-2.57-1.19-2.07-4.45-4.06-6-1.17,6.29.84,13.1-3.07,19,.45,2.59,2,2.05,3.62,1.25,5-2.42,5-2.42,8.29-1.1a6.5,6.5,0,0,0,.14-.91C31.95,84.29,30.7,83.48,30.78,82.85Z"/><path class="cls-8" d="M123.29,31.19c-1.18-2.92-4.14-5.76-6-5.07-3,1.09-5.77-.52-8.42.74l1.68,1,4.17.92.91-.77c1.16,0,1.45.79,2.07,1.62,2.93,3.88,4.35,8.76,8.06,12.1,3-.55,3.22,5,6.82,3.09A41.85,41.85,0,0,1,123.29,31.19Z"/><path class="cls-1" d="M82.44,14.9l-1.74,0-7.3-2a1.49,1.49,0,0,1-1.78-.6l-2.06-.32c-.33,2.08.66,3.93,1.05,5.89,3.33-.34,6.32-.12,7,4.09,3-1.39,5.46-3.12,5-7Z"/><path class="cls-8" d="M104.53,75.84C102.42,81.17,98.89,86,98.77,92h.9l.06-.15c0-.66.15-1,.9-.69,3.49-.7,4.28-3.31,3.93-6.23-.38-3.19.39-6.11,1.17-9.08Z"/><path class="cls-8" d="M26.77,45.74l-1.09-.9c1.06,4.41-.87,8.21-2.86,11.8-1.89,3.4-1.37,6.18.83,9a17.11,17.11,0,0,1,.87-5.82c1-3.63,3.3-6.92,3.09-10.89C26.47,48.09,26.77,46.87,26.77,45.74Z"/><path class="cls-10" d="M19.28,96.1l-3.48-.16-.31,6.86,1.14,5,.74.19c.23-2.86,2.09-1,3.27-1.13q-.64-4.88-1.28-9.76A3,3,0,0,1,19.28,96.1Z"/><path class="cls-8" d="M85.42,124.18c-.46,3.29-2.92,5.27-5,7.5,1.25.85,3.48-2.46,4.12,1a3.16,3.16,0,0,1,.51-.07c1.13-3.18,3.21-6.11,2.52-9.76C86.54,122.78,85.61,122.81,85.42,124.18Z"/><path class="cls-11" d="M85.05,132.59a3.16,3.16,0,0,0-.51.07L82.14,138c1.35,3.23,3.16,3.55,5.44.86C87.41,136.47,87.13,134.16,85.05,132.59Z"/><path class="cls-5" d="M132.56,44.86c-3.61,1.91-3.83-3.65-6.82-3.09,2.6,7.46,2.6,7.46,8.49,5.16a2.9,2.9,0,0,0,.24-.75A2,2,0,0,0,132.56,44.86Z"/><path class="cls-1" d="M5.75,11.88l-1,.89-.1,6c2.29-.38,4-1.16,3.95-4C8.56,12.73,7.93,11.66,5.75,11.88Z"/><path class="cls-8" d="M137.49,50c.1,3.53-.13,7.15,2.81,9.87C139.43,56.56,139.58,53,137.49,50Z"/><path class="cls-8" d="M11.32,6.66c2-.16,4.14,0,5.35-2.18C14.95,5.36,12.62,4.75,11.32,6.66Z"/><path class="cls-8" d="M7.58,7.87c-2.55.71-3.32,2.44-2.82,4.9l1-.89C5.28,10.05,7.8,9.59,7.58,7.87Z"/><path class="cls-8" d="M17.89,3.93c1.72.09,3.38,0,4.62-1.45C20.59,1.75,19.18,2.66,17.89,3.93Z"/><path class="cls-12" d="M18.58,93.8h-2l-.76,2.15,3.48.16A1.76,1.76,0,0,0,18.58,93.8Z"/><path class="cls-5" d="M118.59,80.83c-.62,1.13.07,1.62,1,2A1.87,1.87,0,0,0,118.59,80.83Z"/><path class="cls-5" d="M57.56,3.29a2,2,0,0,1,.13.6l1.57,1C59.31,3.65,59.4,2.41,57.56,3.29Z"/><path class="cls-5" d="M80.7,14.87l1.74,0A1.05,1.05,0,0,0,80.7,14.87Z"/><path class="cls-5" d="M71.62,12.24a1.49,1.49,0,0,0,1.78.6C73.06,11.88,72.34,12.06,71.62,12.24Z"/><path class="cls-8" d="M134.47,46.18a2.9,2.9,0,0,1-.24.75l.35.15.37-.1Z"/><path class="cls-2" d="M99.73,91.89l.9-.69C99.88,90.85,99.7,91.23,99.73,91.89Z"/><path class="cls-8" d="M56.58,3.27c.13.62.57.71,1.1.62a2,2,0,0,0-.13-.6A2.35,2.35,0,0,1,56.58,3.27Z"/><path class="cls-8" d="M7.65,7.84l.88-.45C8,7.13,7.76,7.32,7.65,7.84Z"/><path class="cls-5" d="M59.51,6.68c.09-.06.27-.16.26-.18A4.46,4.46,0,0,0,59.5,6,.55.55,0,0,0,59.51,6.68Z"/><path class="cls-4" d="M104.5,68.86c.71-3.15-1.84-4.93-3-7.87-3.37,3.95-6.45,7.93-12.06,5-2.19-.06-4.28-.42-5.85-2.15-2.92-.27-3.68,1.64-4,4,3.63-1.34,6.54.09,8.43,3,2,3.05,3.95,3.55,6.79,1.38a11.13,11.13,0,0,1,2.67-1.33c.85-.34,1.76-1.32,2.68-.35s.18,1.85-.22,2.75c-2.74,6.3-8.79,10.3-11.56,16.61-.6,1.36-1.95.69-3.09.34-1.73-.53-3.51-.89-5.27-1.32-.55.95,0,2.4-1.42,2.95l.14,1.94c3.06.17,7.45-1,4.81,4.83,2.17.37,3.86-1.24,5.89-1.42,2.91-2.08,6.74-2.49,9.33-5.14.11-6,3.65-10.87,5.76-16.2l-.08-5C103.53,70.12,103.57,69.48,104.5,68.86ZM82.64,92.41c1.1-.59,2.11-1,3-.05C84.61,93.22,83.57,92.63,82.64,92.41Z"/><path class="cls-13" d="M74.57,40.83h0l0,0Z"/><path class="cls-13" d="M95.33,35.92c-3.86-2.59-7.65-1.87-11.52.08a48,48,0,0,1-5.08,1.91c-1.21,1.23-2.08,2.92-4.15,2.92l-1.1,1-1,.1c-1.22,4.57-4.49,8.84-2,13.94,1.9.45,1.73-2.1,3.08-2.33,1.85,1,.28,4.46,3.39,4.29l-.25-1c-.85-.38-.84-.69.07-.94a1.86,1.86,0,0,0,.82-.21c0-.66,0-1.33,0-2,.15-8.14.26-8.26,8-8.92,2-2.33,4-3.45,6.18-.25l3.82.58c.05-1.19-.19-2.47,1.07-3.26q-.18-1.51-.36-3C95.18,38.08,95.54,36.92,95.33,35.92Z"/><path class="cls-6" d="M92.61,51.5l-1.88-.76c-1.72.69-3.2,2-5.17,2.07-2.29,2.06-4.8,3.5-8.06,2.86a1.89,1.89,0,0,1-.82.21,3.05,3.05,0,0,1-.07.94l.26,1L78.54,60c3.15-.63,4.09,1.62,5,3.86,1.58,1.74,3.66,2.09,5.86,2.15l4.84-4.39C88.61,58.56,88.37,57,92.61,51.5Z"/><path class="cls-4" d="M95.52,45.09c.93,4-4,3.08-4.79,5.64l1.88.76c3.71,0,7.56-.57,10.67,3.2.83-6.45-4.59-8.77-6.69-12.87C95.33,42.62,95.57,43.9,95.52,45.09Z"/><path class="cls-8" d="M104.5,68.86c-.93.62-1,1.27,0,1.93C105.54,70.17,105.52,69.52,104.5,68.86Z"/><path class="cls-6" d="M114.69,28.82l.91-.77Z"/><path class="cls-11" d="M70.2,116.81a4.48,4.48,0,0,0-5,2.62,4,4,0,0,1-4.06,2.36c-2.05-.16-3.57.46-4.21,2.58s-.1,3.59,1.59,5.22a7.51,7.51,0,0,1,2.59,6.59c-.34,2.6,1.53,4.15,4.09,3.16,5.16-2,8.71-5.85,11-10.85C79.24,121.81,76.79,116.77,70.2,116.81Z"/><path class="cls-3" d="M56.4,63.38c-1.74.29-3.51.47-5.26.7-4,4.38-7.37,9.41-12.33,12.9a3.89,3.89,0,0,1-2.12,3l-1.14,1.77L34.67,84l-1.1,9.86,5,2,3.38-3.24-.34-1.76c-3.54-1.24-.73-2.64-.1-4,.19-1.47-.12-3.34,2.37-3,.41-1.94,1.72-3.36,2.79-4.92,1.24-4.33,5.78-5.33,8.76-7.3,2.75-1.82,6-2.9,8.16-5.76q0-1.57.07-3.14C61,60.65,58.81,63,56.4,63.38Z"/><path class="cls-14" d="M55.56,103.86h.09l0,0Z"/><path class="cls-14" d="M70,89.81a15.28,15.28,0,0,1-8.75,9.92c.24,4.32-2.89,3.95-5.63,4.12,1.68,2.08,4.68,2,7.19,4.53a23.33,23.33,0,0,1-15-2.1c-1.75-.82-3.19-2.38-5.34-2.26l1,2.81a11.15,11.15,0,0,0,4.07,4A12.48,12.48,0,0,0,54.68,112a32.59,32.59,0,0,0,7.71-1c2.81-.75,4.33-2.09,4.12-5.07-.72-.69-2.94-1.36,0-2.11l.06-.93c-.36-2.22.64-3.27,2.84-3.27a5.25,5.25,0,0,1,.14-.79,4.2,4.2,0,0,1,0-.92C67.86,95.05,72.12,92.63,70,89.81Z"/><path class="cls-11" d="M75.58,84.82c-1-.64-1-1.31-.06-2,.05-.8.09-1.6,1-2l-1-2a1.55,1.55,0,0,1-.86.3c-.59,1.51-1.33,2-2.05.14a2.35,2.35,0,0,0-2.21-1.57c-.35,2.09,1.25,4.6-1.3,6.23l1,5.84c2.08,2.82-2.19,5.25-.5,8,.83.33.78.64,0,.92a5,5,0,0,0-.14.79c.62,1.59-.72,4,1.23,4.83,2.34,1,3.07-1.66,4.41-2.9.39-.36,1.17-.3,1.77-.43l-.05-.06a1.63,1.63,0,0,1,1.48-2.22l.52-5-.14-1.94C75.43,90.42,75.43,87.66,75.58,84.82Z"/><path class="cls-12" d="M30.46,107.93c.19-.14,0-1-.19-1.4-1.74-3.15-2.59-7.71-8.63-4.53.63-2.81,1.93-5.77-2.27-4.93q.64,4.88,1.28,9.76c2.81,5.39,6.87,10.09,8.66,16,1.84-1.1,1.32-2.91,1.15-4.45C30.06,114.9,25.76,111.46,30.46,107.93Z"/><path class="cls-5" d="M60.64,145.74q0-.43,0-.87l-1.13-2.77-2.8-1-2.22,1.6a2.83,2.83,0,0,1-1.87,3.08l-.23.4-.18-.19.41-.22,0-2.88c-2.06-1.44-3.72-3.8-6.78-2.93l-1.14.56c-.87,2.82-2.36-2.34-3.24.25l0,1,.35,1.66c1.43.56,2.14,1.83,3,3,3.08.18,4.66,2.74,6.87,4.31,2-.53,1.58,1.88,2.78,2.34l4.11-.22a3.6,3.6,0,0,0-.21-1c-.75-1.42-3.52-1.51-2.6-4.08S58.74,145.88,60.64,145.74Z"/><path class="cls-3" d="M83.54,98.6c-1.55,2.86-5,3.55-6.89,6a4.21,4.21,0,0,1-1.33,2.51c-1.75,2.16.85,2.6,1.65,3.77s2,2.74,3.51,1.28c4.25-4.2,10.76-7.16,9-15C87.4,97.36,85.71,99,83.54,98.6Z"/><path class="cls-9" d="M32.6,129.8h0Z"/><path class="cls-9" d="M40.55,135.88c-.51-3.91-4.71-.68-6-3.1a2.94,2.94,0,0,1-2-3l-1.73-.37-3.25-2.65c-2.77,2.24-5.77,2.2-8.91.95.2,4.92,3.68,4.22,6.84,3.9,1.24-.12,3.32-1.45,3.52,0,.75,5.23,6.57,5.39,8.52,9.22l1,1,2.81.06,0-1C37.95,138,37.86,137.55,40.55,135.88Z"/><path class="cls-5" d="M20.65,106.82c-1.18.12-3-1.73-3.27,1.13l1,3.84,4.32,8.06,1.86,2.95,3.06,4,3.25,2.65.07-1.7-1.63-4.89C27.51,116.91,23.45,112.2,20.65,106.82Z"/><path class="cls-8" d="M68.2,143.76c-.27.16-1.05-.55-1.6-.86l-2.15-.25c-.07.48.39,1.19-.51,1.29a9,9,0,0,1-.3-1.22l-1.06-.13c0,1.3-.44,2.29-2,2.28q0,.43,0,.87c3.71,1-.33,3.73,1.21,5.19l.86.89c1.15-.84.68-2.1.87-3.2s-.38-2.74,1.56-2.3a1.88,1.88,0,0,1,1.06,2.85,3.81,3.81,0,0,0,.54,4.57l2,.11,4.93-5.94C73,145,73.51,140.64,68.2,143.76Z"/><path class="cls-9" d="M66.5,105.88c.21,3-1.31,4.33-4.12,5.07a32.66,32.66,0,0,1-7.7,1l-.1,1.91c.9,1.74,2.14,2,4.06,1.52A24.17,24.17,0,0,0,67,111.64C70.38,109.32,69.53,107.54,66.5,105.88Z"/><path class="cls-12" d="M41.18,101.83c-2.77-1.16-1.19-2,0-3.4,1.39-1.62,4.1-3.46.77-5.86l-3.38,3.24c-3.41,4.42-.12,7.6,2,11l2.95,0-1-2.81A2.84,2.84,0,0,1,41.18,101.83Z"/><path class="cls-10" d="M78.74,93.77l-.52,5c.54,1.43.12,2.22-1.48,2.22l.05.06q-.07,1.78-.14,3.56c1.9-2.46,5.34-3.15,6.89-6C86.19,92.77,81.79,93.94,78.74,93.77Z"/><path class="cls-5" d="M80.42,131.68c-1.81.85-2.21,2.34-1.9,4.16a8.45,8.45,0,0,0-.86,5.3c.87-.2,1.87-.18,2.16-1.33-.1-.61.11-.87.74-.66L82.14,138l2.4-5.31C83.9,129.22,81.67,132.53,80.42,131.68Z"/><path class="cls-14" d="M48.64,137.26c-1.16-1.19-2.9.68-2.81,2.75,3.06-.87,4.72,1.49,6.78,2.93l1.84-.2,2.22-1.59C54.78,138.38,51,139.66,48.64,137.26Z"/><path class="cls-12" d="M32.58,85a6.65,6.65,0,0,1-.14.91c-.69,2.59-2.64,4.88-1.8,7.82l2.93.08L34.67,84C33.82,84,33,84.08,32.58,85Z"/><path class="cls-10" d="M75.25,139.53c-2.4,2.37-6.19,1.16-8.65,3.37.54.3,1.33,1,1.6.86,5.31-3.12,4.82,1.24,5.45,4.16,1.39-.95.62-2.46,1-3.68.25-1,.82-1.6,1.95-1.43a1.21,1.21,0,0,0,.25-.78C75.6,141.64,75.57,140.5,75.25,139.53Z"/><path class="cls-14" d="M40.55,135.88c-2.69,1.68-2.6,2.14.9,4.94.88-2.6,2.37,2.57,3.24-.25C44.86,137.64,41.84,137.53,40.55,135.88Z"/><path class="cls-9" d="M43.55,106.84l-2.95,0c1.92,2.48,3.57,5.26,7,6l.06-2A11.15,11.15,0,0,1,43.55,106.84Z"/><path class="cls-12" d="M47.62,110.8l-.06,2c2.12,1.87,4.69.61,7,1q0-1,.1-1.91A12.48,12.48,0,0,1,47.62,110.8Z"/><path class="cls-8" d="M75.25,139.53c.31,1,.35,2.11,1.56,2.51l.84-.9a8.45,8.45,0,0,1,.86-5.3C76.42,136.17,76.36,138.31,75.25,139.53Z"/><path class="cls-10" d="M59.47,142.1l1.13,2.77c1.55,0,1.95-1,2-2.28C61.71,141.46,60.51,142.29,59.47,142.1Z"/><path class="cls-12" d="M32.6,129.8a2.94,2.94,0,0,0,2,3C34.59,131.33,34.61,129.9,32.6,129.8Z"/><path class="cls-12" d="M30.94,127.74l-.07,1.7,1.74.38C32.62,128.66,32.25,127.82,30.94,127.74Z"/><path class="cls-10" d="M64.46,142.66a.72.72,0,0,0-.8.07,9,9,0,0,0,.3,1.22C64.85,143.84,64.39,143.14,64.46,142.66Z"/><path class="cls-9" d="M66.53,102.83l-.06.93C67.31,103.51,67.3,103.2,66.53,102.83Z"/><path class="cls-6" d="M44.1,5c-4.74,1.62-10,5.39-14.06-1.48-.52-.89-1.76-.56-2.46.39-.13,1.78.21,3.54-.83,5.3-1.28,2.17-4.82,4-.75,7.31,2.09,1.7,3,7.3,4.19,7.22,4.63-.32,4.38,2.91,5,5.59,1.82-.6,1.73-2,2-3C39.47,18.09,39.58,8.72,48.6,3.85,46.94,3.72,45.6,4.51,44.1,5Z"/><path class="cls-6" d="M56.9,40.82c1.85-2.65-2-5.1-1.45-8a4.09,4.09,0,0,0-2.2-.56,1.57,1.57,0,0,0-1.18,2.28c1.13,2.1.45,3.44-1.54,4.38l-1,1.88.08.08c3.48,1.47,2.06,3.75,1,6-.27,2.26-1.18,3.13-3.4,1.62a4.36,4.36,0,0,1,3.33-1.68c.08-2-.3-3.38-2.75-2s-4,.72-4.27-2.31c-.1-1.14.65-3.31-1.27-3.05s-1.78,2.36-1.3,4c.23.78.44,1.57.65,2.36l1,1,.39.45-.46-.39-1-1c-3.74-2.66-1.32-6.53-1.91-9.8l-1.39-1.29c-4,1.1-.82,4.18-1.68,6.16a5.22,5.22,0,0,1,.89,1.66c.63,5.71,3.73,8.53,9.41,9.73,3.3.69,6.35-.59,9.65.21,1.87.45,2.06-1.77.84-3.55C55.63,46.43,54.71,44,56.9,40.82Z"/><path class="cls-6" d="M54.69,14.12c.77,3.22.58,6-1.52,8.65-.61.76-.34,1.53.5,2.05,1.88-1.17,3.5-2.86,5.9-3l-2-12C54.14,9.57,54.21,12.11,54.69,14.12Z"/><path class="cls-8" d="M62,21.52a11.79,11.79,0,0,1-2.44.29c-2.4.15-4,1.84-5.9,3l-.2,1.92,2.15.11c1.66-2.53,4.11-3.26,7-3,2.35-2.85,3.52-.42,4.9,1.08q0,.45,0,.9l2,1.08C69.46,20.38,68.14,19.46,62,21.52Z"/><path class="cls-6" d="M31.57,42.75c2.1,1.15,4.16,2.19,4.42-1.63C34.28,41,32.2,39.92,31.57,42.75Z"/><path class="cls-6" d="M27.61,48.92c.49-1.45,2.2-2.28,2.08-4l-2.93.86C26.77,46.87,26.47,48.09,27.61,48.92Z"/><path class="cls-6" d="M40.56,31.81l-1,.88Z"/><path class="cls-15" d="M25.29,142.23a10.17,10.17,0,0,0-3.5-1.32q2.65,1.92,5.39,3.62A4.42,4.42,0,0,0,25.29,142.23Z"/><path class="cls-7" d="M26.1,151.09c-.29,3.93-2.55,8.3,1.46,11.75,1-3.47,2.16-6.65,1.54-10.68-.25-1.6,1.14-3.57,2.83-4.93q-2.4-1.27-4.74-2.71C27.85,146.62,26.26,148.86,26.1,151.09Z"/><path class="cls-7" d="M38.59,141.8l-1-1c-3.59.52-6.5-.33-8-4L15.66,136q3,2.59,6.14,4.87a10.17,10.17,0,0,1,3.5,1.32,4.42,4.42,0,0,1,1.89,2.3q2.34,1.44,4.74,2.71a6.48,6.48,0,0,1,3.44-1.59C39.11,145.54,38.45,143.83,38.59,141.8Z"/><path class="cls-12" d="M18.48,120.79q-.49,0-1,0,0,1,0,2a2,2,0,0,1,1.12,2q0,1,0,2,0,.46.09.92c3.14,1.25,6.14,1.29,8.91-.95l-3.06-4C22.22,123.08,20.46,121.6,18.48,120.79Z"/><path class="cls-9" d="M16.64,107.76c-3.18,4.55-6.22,9.15-6.05,15h2l1-2.86c.53-3.34,1.12-6.64,4.77-8.16l-1-3.84Z"/><path class="cls-11" d="M11.58,135.81l4.08.23q-1.27-1.1-2.51-2.24A6.15,6.15,0,0,0,11.58,135.81Z"/><path class="cls-11" d="M24.94,134.84a14.41,14.41,0,0,1-7.27-1.15c-1.91-.91-3.36-.81-4.52.12q1.24,1.15,2.51,2.24l13.92.78C28.65,134.72,26.79,134.71,24.94,134.84Z"/><path class="cls-2" d="M17.5,122.83q0-1,0-2l-3-1.09a2.93,2.93,0,0,0-.9.19l-1,2.87a5.8,5.8,0,0,0,6,4q0-1,0-2C17.38,124.63,16.1,124.5,17.5,122.83Z"/><path class="cls-13" d="M41.12,54.73c-4.6,3.88-5.23,1-6.08-2.81-.32-1.42-.27-3.91-2.54-3.64-2.5.29-2.22,2.82-1.87,4.42,1.55,7.08.08,14.1,0,21.15,1.44.83,3.23,1.18,4,3q.49,0,1,.08l2,0c-1.17-4,4.2-4.66,4.09-8.11-1.59-.41-3.53,1.67-4.56.19-1.28-1.83,1-3.31,2-4.58,1.73-2.26,3.24-5,6.54-5.54l.26-.41-.2.47q.05,2.58.1,5.16c2.79-1.62,5.37-3.87,3.06-7.05C47.22,54.79,44.2,52.13,41.12,54.73Z"/><path class="cls-13" d="M69.51,36.69c0-.19,0-.39,0-.58L69.32,34C66,31.84,65.88,29,67.48,25.79q0-.45,0-.9c-1.66-.25-3.66,1-4.9-1.08-2.86-.22-5.3.52-7,3,.95,2.31,1,5.23,4.41,5.77,1.27.2,1.73,1.53,1.56,2.77-.43,3,.42,4.7,4.47,3.14l-4.19,9.21c-1-2.42-1.36-5-3.44-4.27-1.69.59-.33,2.28.28,3.32,1.61,2.74,2.08,7.42.88,10.09,5.06-.83,5.58-5.94,8.17-9,1.49-1.78,1.52-4.78,2.21-7.23C67.6,39.57,68.58,38.13,69.51,36.69Z"/><path class="cls-12" d="M70.4,55.87c-2.45-5.1.82-9.37,2-13.94-.28-1.33.55-2.87-.74-4L70,40.61c-.69,2.45-.73,5.45-2.22,7.23-2.59,3.09-3.11,8.2-8.17,9C56.54,59,53,60.6,51.14,64.08c1.75-.23,3.52-.41,5.26-.7,2.41-.4,4.62-2.73,7.26-.68,5.17,2.61,8.77,6.48,9.8,12.37.25,1.41-.1,3,1.2,4.09a1.52,1.52,0,0,0,.86-.3c.92-5.33-1.22-10-3.07-14.79C67.26,62.46,71.84,58.42,70.4,55.87Z"/><path class="cls-1" d="M49.62,40.87l-.48.4.4-.48,1-1.88c-2.75-4.28-6.44-5-10.89-2.86.59,3.27-1.83,7.14,1.91,9.8l0,0c-.22-.79-.43-1.57-.65-2.36-.48-1.68-.77-3.76,1.3-4s1.17,1.91,1.27,3.05c.27,3,1.69,3.73,4.27,2.31s2.83,0,2.75,2l.06.06C51.68,44.63,53.11,42.34,49.62,40.87Z"/><path class="cls-14" d="M45.55,58.79c-3.3.5-4.81,3.28-6.54,5.54-1,1.27-3.23,2.76-2,4.58,1,1.48,3-.61,4.56-.19A15,15,0,0,0,45.72,64q-.05-2.58-.1-5.16Z"/><path class="cls-10" d="M32.41,80.84c-.13-1.44-.54-3.79,2.17-4-.74-1.77-2.53-2.13-4-3l-2.95-1c1.58,3.16,3.62,6.14,3.12,10-.08.63,1.17,1.44,1.8,2.16.4-.93,1.24-1,2.09-1.06l.9-2.17C34.45,81.53,32.57,82.54,32.41,80.84Z"/><path class="cls-10" d="M35.56,76.88,36.7,80a3.89,3.89,0,0,0,2.12-3l-1.28-.14Z"/><path class="cls-4" d="M91.25,31.13c-6.35-1-9.05,3.28-12.53,6.78A48,48,0,0,0,83.81,36c3.86-2,7.66-2.66,11.52-.08C95,33.48,94.81,31.69,91.25,31.13Z"/><path class="cls-6" d="M70.61,17.82C71,20.19,73.9,21,74.14,23.56c.07.76,1.13,1.24,2,1.09,1.63-.26,1.34-1.62,1.43-2.74C76.93,17.69,73.94,17.47,70.61,17.82Z"/><path class="cls-4" d="M69.32,34q.11-3.54.21-7.09l-2-1.08C65.88,29,66,31.84,69.32,34Z"/><path class="cls-10" d="M73.78,35.08l-4.26,1c0,.19,0,.38,0,.58l2.18,1.23c1.3,1.14.46,2.68.74,4l1-.1,1.13-1,0,0Z"/><path class="cls-10" d="M75.17,32.79a11.82,11.82,0,0,0,1.22-1.91A23.39,23.39,0,0,0,77,28.31C75.52,29.33,74.2,30.37,75.17,32.79Z"/><path class="cls-12" d="M59.6,155.72c1.15,2.31.37,3.95-1.78,5.11-.71-2.23-4.47-2.93-3.62-6-1-.17-2-.36-3-.57.28,4.41,3.63,8.05,4.41,12.34l3.06,0c0-3.49,2-5.27,5.13-6,.59-2.17-2.9-2.59-2.09-4.86l0-.09-1.74-.13Z"/><path class="cls-12" d="M54.47,154.13c.12-.26,0-.65-.08-1-1.2-.45-.76-2.86-2.78-2.34a9.06,9.06,0,0,0-.45,3.49c1,.22,2,.4,3,.57A4.65,4.65,0,0,1,54.47,154.13Z"/><path class="cls-12" d="M59.88,155.59l1.74.13a2.67,2.67,0,0,1-.26-.81Z"/><path class="cls-5" d="M62,155.73l-.33.07c-.81,2.27,2.68,2.69,2.09,4.86,1.61.13,2.33,1.6,3.52,2.35,1.86,1.17,3.6,1.73,4.36-1.19l-2.23-6.09c-1.22.06-2.45.11-3.68.11S63.23,155.8,62,155.73Z"/><path class="cls-5" d="M66.75,153.75c-1.32,1.31-3.05,1.61-4.76,2,1.24.07,2.48.11,3.73.11s2.46,0,3.68-.11l-.68-1.87Z"/><path class="cls-8" d="M74.62,144.24c.92-.11,1.82-.24,1.95-1.43C75.44,142.64,74.88,143.23,74.62,144.24Z"/><path class="cls-11" d="M79.82,139.81l.74-.66C79.93,138.94,79.72,139.2,79.82,139.81Z"/><path class="cls-13" d="M97.46,70.85a11.13,11.13,0,0,0-2.67,1.33C91.94,74.35,90,73.85,88,70.79c-1.89-2.89-4.8-4.32-8.43-3,.33,3.05.73,6.1,1,9.16.15,2,.28,4.14-2.82,3.79C77.89,83.64,82,85.4,80,88.88c1.76.43,3.54.79,5.27,1.32,1.14.35,2.49,1,3.09-.34,2.76-6.31,8.81-10.31,11.56-16.61.39-.91,1-1.87.22-2.75S98.31,70.51,97.46,70.85Z"/><path class="cls-8" d="M78.54,60c-1.06,2.58-1.06,2.58-4.47-.36l-1.63,4.46c1.85,4.76,4,9.45,3.07,14.79l1,2,1.2-.08c3.1.35,3-1.82,2.82-3.79-.23-3.06-.63-6.11-1-9.16.33-2.34,1.09-4.25,4-4C82.64,61.58,81.69,59.34,78.54,60Z"/><path class="cls-9" d="M76.51,80.85c-.91.37-.94,1.17-1,2,1.05.64,1.1,1.31.06,2-.15,2.83-.15,5.6,3,7,1.38-.55.87-2,1.41-2.95,2-3.48-2.12-5.24-2.29-8.12Z"/><path class="cls-10" d="M82.64,92.41c.94.22,2,.81,3-.05C84.75,91.45,83.73,91.82,82.64,92.41Z"/><path class="cls-4" d="M84.54,47.95l.13-.21.86-3c-7.75.66-7.85.78-8,8.92,0,.66,0,1.33,0,2,3.25.63,5.76-.8,8.06-2.86l-.84-1C83.22,50.59,83.13,49.3,84.54,47.95Z"/><path class="cls-4" d="M73.48,53.54c-1.35.23-1.18,2.78-3.08,2.33,1.44,2.55-3.14,6.59,2,8.2l1.63-4.46c3.41,2.93,3.41,2.93,4.47.36l-1.68-2.14C73.75,58,75.33,54.55,73.48,53.54Z"/><path class="cls-5" d="M91.7,44.51l-.14,3.13c-.22.83-.56.92-1,.17l-5.85-.08-.13.21c.68,1.26,1.77,2.5.18,3.87l.84,1c2-.06,3.45-1.38,5.17-2.07.79-2.57,5.73-1.61,4.79-5.65Z"/><path class="cls-8" d="M85.53,44.76l-.86,3,5.85.08,1-.17.14-3.13C89.51,41.31,87.49,42.43,85.53,44.76Z"/><path class="cls-5" d="M73.48,41.83l1.13-1Z"/><path class="cls-4" d="M76.61,56.82a3.05,3.05,0,0,0,.07-.94C75.77,56.12,75.76,56.44,76.61,56.82Z"/><path class="cls-12" d="M63.59,65.84c-2.12,2.86-5.41,3.94-8.16,5.76-3,2-7.52,3-8.76,7.3l1.93-.05a5.71,5.71,0,0,1,4.94-1.78c2.61-1.81,4.8-.93,6.84,1q0-1.67-.06-3.33c1.82-1.95,1.6-5.6,5.11-6.14A2.87,2.87,0,0,0,63.59,65.84Z"/><path class="cls-10" d="M47.66,95.78A9.52,9.52,0,0,1,44.88,90c-1-.42-1.11-1.39-1.43-2.23L41.85,90a1.75,1.75,0,0,1-.25.79l.34,1.76c3.33,2.4.62,4.23-.77,5.86-1.18,1.37-2.76,2.24,0,3.4h9.15C49.7,99.3,47.32,98.09,47.66,95.78Z"/><path class="cls-2" d="M63.66,62.7q0,1.57-.07,3.14a2.87,2.87,0,0,1,1.84,2.8c3.92.6,3.08,3.62,3.15,6.18q0,1,0,2.05l1.79.87A2.35,2.35,0,0,1,72.6,79.3c.72,1.89,1.46,1.37,2.05-.14-1.3-1.1-1-2.68-1.2-4.09C72.43,69.18,68.83,65.31,63.66,62.7Z"/><path class="cls-4" d="M34.58,76.8c-2.71.25-2.29,2.6-2.17,4,.15,1.7,2,.69,3.15.95L36.7,80l-1.13-3.13Q35.07,76.83,34.58,76.8Z"/><path class="cls-5" d="M43.87,83.83q.48,0,1,0c2.76-.49,3.8-2.3,3.76-4.93l-1.93.05C45.59,80.46,44.28,81.89,43.87,83.83Z"/><path class="cls-12" d="M41.5,86.83q.17,1.6.34,3.2l1.6-2.28c.12-.74.1-1.55.93-2l.45-2q-.48,0-1,0C41.38,83.49,41.7,85.36,41.5,86.83Z"/><path class="cls-2" d="M41.6,90.82a1.72,1.72,0,0,0,.25-.79q-.17-1.6-.34-3.2C40.87,88.18,38.06,89.58,41.6,90.82Z"/><path class="cls-1" d="M67.62,82.81a25.86,25.86,0,0,1-14.09-5.73,5.71,5.71,0,0,0-4.94,1.78c0,2.63-1,4.44-3.76,4.93l-.45,2c3,1,3,2.46.51,4.18a9.49,9.49,0,0,0,2.77,5.8C51.74,98.7,56,101,61.29,99.73A15.28,15.28,0,0,0,70,89.81l-1-5.84ZM48.72,91.52a1.24,1.24,0,0,1-.39-.12c0-.11.08-.31.12-.31a1.28,1.28,0,0,1,.39.12C48.8,91.33,48.76,91.52,48.72,91.52Zm6.85-7.11-.49-.94c.26-.09.58-.3.77-.22s.26.46.39.72ZM60,86.66a1.53,1.53,0,0,1-1-.71.6.6,0,0,1,.77-.79,3.43,3.43,0,0,1,1,.64C61,86.59,60.5,86.77,60,86.66Z"/><path class="cls-5" d="M55.21,103.61l.35.25h.09l0,0Z"/><path class="cls-5" d="M55.66,103.85h-.09l-.35-.25.4.19,0,0c2.74-.18,5.88.19,5.64-4.12-5.29,1.26-9.55-1-13.64-3.94-.34,2.31,2,3.52,2.67,6.05H41.18A2.84,2.84,0,0,0,42.55,104c2.15-.12,3.58,1.43,5.34,2.26a23.33,23.33,0,0,0,15,2.1C60.34,105.89,57.34,105.93,55.66,103.85Z"/><path class="cls-9" d="M69.54,97.85a4.16,4.16,0,0,0,0,.92C70.32,98.49,70.37,98.18,69.54,97.85Z"/><path class="cls-12" d="M70.39,77.74l-1.79-.87c-1.69,1.47-4,.47-5.79,1.39.69,2.48,4.77,1.38,4.81,4.54L69.09,84C71.64,82.33,70,79.83,70.39,77.74Z"/><path class="cls-2" d="M75.52,82.82c-1,.7-.93,1.37.06,2C76.62,84.12,76.57,83.46,75.52,82.82Z"/><path class="cls-2" d="M76.74,101c1.6,0,2-.79,1.48-2.22A1.63,1.63,0,0,0,76.74,101Z"/><path class="cls-9" d="M40.13,157.05c2.47,1.45,4.18,6.75,8.67,2.82.9-.79,1.39.91,1.38,1.37,0,2.33,2.05,3.68,2.48,5.75l2.9-.36c-.78-4.29-4.13-7.93-4.41-12.34a72.36,72.36,0,0,1-11.22-3.38C36.76,153,36.6,155,40.13,157.05Z"/><path class="cls-9" d="M51.61,150.81c-2.21-1.57-3.79-4.13-6.87-4.31,0,2.88-2.51,3-4.27,4.08l-.54.34a72.36,72.36,0,0,0,11.22,3.38A9.06,9.06,0,0,1,51.61,150.81Z"/><path class="cls-2" d="M34.72,151.37c-.87,1.23-3.56,1.29-2.87,3.74.6,2.13,1.73,3.93,4.44,3.74a1.94,1.94,0,0,1,2.31,2c5.09-.25,3.95,4.68,5.87,7.07l1.31,4.06,4.67-2.12L52.67,167c-.43-2.07-2.5-3.42-2.48-5.75,0-.46-.48-2.16-1.38-1.37-4.49,3.93-6.2-1.38-8.67-2.82-3.52-2.06-3.37-4.06-.19-6.14-1-.39-2-.8-3-1.23A5.53,5.53,0,0,0,34.72,151.37Z"/><path class="cls-2" d="M44.74,146.5c-.84-1.14-1.56-2.42-3-3,1,4.32-2.21,4.94-4.78,6.16,1,.43,2,.85,3,1.23l.54-.34C42.23,149.53,44.76,149.38,44.74,146.5Z"/><path class="cls-11" d="M29.1,152.17c.62,4-.51,7.21-1.54,10.68,1.45,2.15-.43,5.73,3,7,.34-5.1,2.72-8.39,8-9.08a1.94,1.94,0,0,0-2.31-2c-2.71.19-3.84-1.6-4.44-3.74-.69-2.45,2-2.51,2.87-3.74A5.53,5.53,0,0,1,37,149.68q-2.55-1.12-5-2.44C30.24,148.6,28.86,150.57,29.1,152.17Z"/><path class="cls-11" d="M41.75,143.52l-.35-1.66-2.81-.06c-.14,2,.52,3.73-3.21,3.85a6.48,6.48,0,0,0-3.44,1.59q2.49,1.32,5,2.44C39.55,148.46,42.76,147.84,41.75,143.52Z"/><path class="cls-10" d="M57.82,160.83c2.15-1.16,2.93-2.8,1.78-5.11l.28-.13q-2.87-.24-5.69-.71C53.35,157.9,57.11,158.6,57.82,160.83Z"/><path class="cls-10" d="M62.72,151.82l-.86-.9c-.27,2.09-1.67,2.27-3.35,2l-4.11.22c0,.33.2.73.08,1a4.65,4.65,0,0,0-.28.74q2.82.47,5.69.71l1.47-.68Z"/><path class="cls-1" d="M60.64,145.74c-1.9.14-4-.39-4.95,2.16s1.85,2.65,2.6,4.08a3.61,3.61,0,0,1,.21,1c1.68.27,3.08.08,3.35-2C60.31,149.46,64.35,146.69,60.64,145.74Z"/><path class="cls-8" d="M52.61,142.94l0,2.88a2.83,2.83,0,0,0,1.87-3.08Z"/><polygon class="cls-8" points="52.35 146.23 52.58 145.82 52.17 146.04 52.35 146.23"/><path class="cls-14" d="M13.61,119.94a3,3,0,0,1,.89-.19c1.49-2,3-3.31,4.23.16l4-.07-4.32-8.06C14.73,113.29,14.14,116.6,13.61,119.94Z"/><path class="cls-10" d="M18.73,119.9q-.11.45-.25.89c2,.8,3.74,2.29,6.08,2l-1.86-2.95Z"/><path class="cls-1" d="M61.66,155.8l.33-.07-.37,0Z"/><path class="cls-1" d="M66.21,149.18a1.88,1.88,0,0,0-1.06-2.85c-1.94-.45-1.4,1.3-1.56,2.3s.28,2.36-.87,3.2l-1.36,3.08a2.67,2.67,0,0,0,.26.81l.37,0c1.7-.37,3.43-.67,4.76-2A3.81,3.81,0,0,1,66.21,149.18Z"/><path class="cls-1" d="M47.22,48.47c2.21,1.51,3.13.64,3.4-1.62l-.06-.06A4.36,4.36,0,0,0,47.22,48.47Z"/><path class="cls-1" d="M41.56,45.85l1,1,.07-.07-1-1Z"/><path class="cls-1" d="M42.55,46.86l.46.39-.39-.45Z"/><path class="cls-4" d="M62.59,23.81c1.24,2.13,3.24.83,4.9,1.08C66.11,23.39,64.94,21,62.59,23.81Z"/><path class="cls-7" d="M30.57,169.88c.34-5.1,2.72-8.39,8-9.08,5.09-.25,3.95,4.68,5.87,7.07a7.47,7.47,0,0,1-3.26-.88c-4-2.07-6.39-.31-7.73,3.56-.33,1-.75,2-1.93,1.79S30.69,170.8,30.57,169.88Z"/><path class="cls-9" d="M14.5,119.74l3,1.09q.49,0,1,0,.14-.44.25-.89C17.46,116.43,16,117.74,14.5,119.74Z"/><path class="cls-9" d="M17.5,122.83c-1.4,1.67-.12,1.8,1.12,2A2,2,0,0,0,17.5,122.83Z"/><path class="cls-14" d="M45.61,58.85l.2-.47-.26.41Z"/><path class="cls-4" d="M70,40.61l1.71-2.7-2.18-1.23C68.58,38.13,67.6,39.57,70,40.61Z"/><path class="cls-6" d="M49.14,41.27l.48-.4-.08-.08Z"/><path class="cls-8" d="M84.72,51.81c1.59-1.36.51-2.61-.18-3.87C83.13,49.3,83.22,50.59,84.72,51.81Z"/><path class="cls-6" d="M91.56,47.64l-1,.17C91,48.56,91.34,48.47,91.56,47.64Z"/><path class="cls-7" d="M65.43,68.64c-3.51.54-3.29,4.19-5.12,6.14,2.75,2,5.51-.48,8.27,0C68.51,72.26,69.34,69.24,65.43,68.64Z"/><path class="cls-5" d="M62.81,78.26a2.26,2.26,0,0,1-2.44-.15c-2-2-4.23-2.85-6.84-1a25.86,25.86,0,0,0,14.09,5.73C67.58,79.64,63.51,80.74,62.81,78.26Z"/><path class="cls-3" d="M60.31,74.78q0,1.67.06,3.33a2.26,2.26,0,0,0,2.44.15c1.82-.92,4.1.08,5.79-1.39q0-1,0-2.05C65.82,74.3,63.06,76.8,60.31,74.78Z"/><path class="cls-5" d="M44.38,85.8c-.83.4-.81,1.21-.93,2,.32.84.44,1.81,1.43,2.23C47.4,88.26,47.38,86.85,44.38,85.8Z"/><path class="cls-5" d="M59.81,85.15a.6.6,0,0,0-.77.79,1.53,1.53,0,0,0,1,.71c.46.11.91-.07.78-.87A3.43,3.43,0,0,0,59.81,85.15Z"/><path class="cls-5" d="M55.85,83.25c-.19-.08-.51.14-.77.22l.49.94.67-.45C56.11,83.7,56,83.32,55.85,83.25Z"/><path class="cls-5" d="M48.33,91.41a1.24,1.24,0,0,0,.39.12s.08-.2.12-.31a1.28,1.28,0,0,0-.39-.12S48.37,91.3,48.33,91.41Z"/><path class="cls-14" d="M55.56,103.86l.05-.05-.4-.19Z"/></g></g></svg>