<?xml version="1.0" encoding="utf-8"?>
<!-- Generator: Adobe Illustrator 20.0.0, SVG Export Plug-In . SVG Version: 6.00 Build 0)  -->
<svg version="1.1" id="Layer_1" xmlns="http://www.w3.org/2000/svg" xmlns:xlink="http://www.w3.org/1999/xlink" x="0px" y="0px"
	 viewBox="0 0 225.7 284.9" style="enable-background:new 0 0 225.7 284.9;" xml:space="preserve">
<style type="text/css">
	.st0{fill:#F2F1F4;}
	.st1{fill:#E8E5E8;}
	.st2{fill:#BDB8B4;}
	.st3{fill:#C9C4C1;}
	.st4{fill:#DDD9DA;}
	.st5{fill:#D3D0CE;}
	.st6{fill:#FEFEFE;}
	.st7{fill:#6B6461;}
	.st8{fill:#B3AFAA;}
	.st9{fill:#A6A09C;}
	.st10{fill:#88827E;}
	.st11{fill:#2A2626;}
	.st12{fill:#938E89;}
	.st13{fill:#9A9692;}
	.st14{fill:#7D7773;}
	.st15{fill:#5B5250;}
</style>
<title>yor</title>
<g id="Layer_2">
	<g id="Layer_1-2">
		<path class="st0" d="M82.7,73.2c-0.8,2.7-0.5,4.4,2,5.7c2.3,1.3,4.2,3.2,6.9,0.4c2-2.1,4.5-3.9,7.8-3.3c7.2,1.3,12.8,5.8,18.6,9.8
			c3,2,5.4,6.6,10.2,3.3c0.5-0.3,1.7,0.1,2.3,0.6c2.9,2.5,5.8,4.8,9.7,5.8c1.5,0.4,1.4,2.1,1.4,3.4l3,1.2c5.3-2.2,7.2-1.6,8.9,3l0,0
			c1,0.5,1.9,1.2,2.8,1.9c2.7,2.6,1.7,7.8-1.7,9c-1.3,1.4,0.5,5-3.2,4.8c-0.2,0.2-0.4,0.4-0.6,0.6l-0.3,1.5c-3.3,6.5-6.9,5.6-12.3,2
			c-0.9-0.6-1.2-2-2.6-2c-1.1,1.5-3.6,3-0.8,4.8c2.7,1.8,5.7,3.6,9,4c2.7,0.3,6.1,0.4,6.6-3.2c0.7-4.9,4.2-6.9,7.9-6.3
			c4.5,0.8,7.4-1.2,10.9-2.9c2.3-1.1,2.6-2,0.8-3.4c-8.2-6.5-12.7-17.1-23.4-20.7c-1.1-0.4-2.6-1.9-2.6-2.9
			c-0.1-4.3-2.8-6.5-5.9-8.5c-0.9-0.6-2-2.1-0.4-2.7c3.2-1.2,2.5-5.3,6-6.1c-2-1.2-3.3-2.1-4.8-2.9c-6.6-3.8-13.2-2.8-18.5,3
			c-3.1,3.3-10.1,3.1-10.2-0.6c-0.2-5.5-3.4-9.9-3.9-15.3c-0.4-3.7,1-3.6,3.4-3.1c1.1,0.3,2.2,0.8,3.1,1.6c2,1.7,3.5,1,5.2-0.6
			c1.8-1.8,2-3.5,0.7-5.8c-2.6-4.4-6.6-3.5-10.8-2.7c0.8-3.7,2.4-5.5,6.1-5.8c4.7-0.5,9.3,0.2,13.7,2.1c1.4,0.6,3,1.8,4.1,0.3
			c2.3-3,4.3-4.5,8.8-4.3c2.5,0.1,5.1,0.6,7.5,1.4c4.8,1.7,1.6,4.7,1.4,6.9c-0.2,2-0.3,3.6,1.9,3.6c5.6-0.1,9.6,3.1,13.7,6.2
			c5.5,4.2,9.4,9.1,8.6,16.3c-0.4,3.9,1.6,7.1,2.3,10.6c0.3,1.7,1.8,2.6,3.4,1.3c2.8-2.5,3.9-0.5,5.9,1.4c3.6,3.5,5.9,8.1,9.4,11.5
			c5.4,5.3,2.2,12.5,4.9,18.3c0.2,0.5-0.8,1.7-1.4,2.5c-3.6,5.5-3.7,15.4-0.1,20.6c1,1.3,2.2,2.5,3.4,3.7c1.1,1.2,1.5,2.8-0.7,2.6
			c-3.8-0.4-4.5,6.3-9,3.4c-0.1,0-0.9,0.9-0.8,1c2.3,4.2-2.2,4.4-3.7,6.4c-2.8,3.7-5,2.2-6.7-1.1c-1.6-3.1-4.1-5.7-7.1-7.5
			c-6.4-4-13.2-7-19.6-10.8c-8.3-4.9-15.9,1.8-23.9,2.7c-0.1,0-0.2,0.6-0.2,0.9c9.1,3.9,17.3,9.9,23.8,17.3c1.4,1.6,3.7,2.9,2,5.6
			c2.2,5,5.5,9.4,6.1,15c1.2,0.8,1,1.9,0.9,3.1l0.1,4.9c1.7,0.9,0.5,4.8,4,3.9v-2.9c-1.3-1.8-1.8-3.3,1.1-4v-3
			c-0.5-1.9-0.9-3.8-0.1-5.8c0.5-1.2-0.8-3.7,1.2-3.7c1.8,0,4.3,1.4,4.5,3.3c0.4,4,3.4,6.6,4.4,10.1c2.1-1.3-0.2-4.3,2.4-5.8
			c3.4,4.9,3.4,10.6,4.5,15.9c0.2,1.1-0.8,1.7-1.9,1.8c-1.2,2.1-1.1,5.5-4,5.7c-7,0.5-7.4,5-7,10.3c1.1,0.4,2.1,1.3,3.3,0.8
			c3.4-1.5,4.9-0.5,4.8,3.3c-0.1,1.8,1.2,2,2.8,1.5c4.5-1.6,5.2-3.3,2.8-8.3c-1.3-2.8-0.9-5.4,1.2-7.2c2.1-1.9,3.9,0.7,5,1.8
			c3.7,3.7,5.4,1.2,7-1.8c0.7-1.4,0.8-3.5,3.2-1.9c3.4-0.6,3.9-3.3,3.9-6c0.1-2.5,0.5-4.9,1.1-7.3c0.1-0.6,0.1-1.7,0.5-1.8
			c7-2.4,6.6-11.7,13.5-14.3c2.6-1,2.3-2.7,0.6-4.6c-3.1-3.5-3.3-7.7-2.5-12c-1.9-0.2-3.1-0.9-2.5-3.2c0.4-1.8,0-4.1-1.2-5.1
			c-5.6-5-2.8-11.4-2.5-16.9c0.2-2.9,1.3-5.9,0.3-8.9c-3.2-8.9-6.2-17.9-13.2-25.7c1.4,0.1,2,0.1,2.6,0.1c2.5,0,4.5,4.8,5.8,2.5
			c1.4-2.5-3.7-3.8-4.9-6.5c-0.1-0.2-0.6-0.3-0.9-0.5c-1.6-0.9-4-0.8-3.7-3.8c0.4-3.5,3.7,0.4,4.5-2c-0.6-1.6-2.8-0.9-3.5-2.4
			c4.1-2,1.3-5.2,0.8-7.6c-0.7-3.7-1.1-5.9,5-3.9c-4.1-4.7-4.7-8.1-3.5-13.4c1.1-4.8,2.5-3,4.7-2.6c-1.1-2.4-2.6-4.4-0.6-7.6
			c2.5-3.8-1.5-6.6-3.6-8.9c-5.6-6-12-11.7-20.6-11.7c-6.7,0-8.3-4.1-9.9-8.6c-1.9-5.4-5.2-10-7.3-15.2c-1.2-2.9-3.3-4-6.2-1.5
			C154.4,5,150.2,8.5,146,12c-1.7,1.6-4.3,2-6.4,1c-1.4-0.6-2.3-2.8-3.8-1.8c-1.9,1.4-4.6,3.6-4.6,5.4c0.1,7-6.1,7.2-9.8,8.8
			c-5.4,2.3-11.5,2.5-17,0.5c-2.7-1-4.5-0.6-5.7,2c0,1.6,0.2,2.9,2.3,3.1c1.5,0.1,4-0.9,4.3,1.2c0.4,2.4-2.7,1.8-4,2.8
			c-0.9,0.5-1.8,0.8-2.8,0.9c-2.1,0.6-4.3,3.5-4.1,3.7c3.6,6.3-3.1,7.1-5.4,10.1c-0.5,0.6-1.2,1-1,2c0.6,2.6,8.1,8.7,11.1,9.1
			c1.4,0.2,3.9,0.5,3,2.1c-1,1.8-3.6,2.8-5.6,3.8c-1.4,0.7-2.3-0.3-2.9-1.8c-1-2.4-3.7-3-4.7-1.1C87,67,83.8,69.3,82.7,73.2z
			 M185.2,55.1c2.9-2,6.1,0.2,9.1,0c0.9-0.1,1.2,1,1.2,1.8c0.2,1.2-0.6,2.4-1.8,2.6c-1,0.2-2,0.3-3,0.3c-2.6,0-3.7,0-4.9,0
			c-1.6,0.1-3-0.8-3.5-2.3C181.7,55.2,184.2,55.8,185.2,55.1z M179.9,50.2c0.7-4.5,9-11.3,13.8-11.3c1,0.3,3.5-0.1,2.3,1.7
			c-2.2,3.2-3,8.1-8.4,8.3c-2,0.1-3.9,1.2-4.9,3c0,0-0.1,0.1-0.1,0.1c-0.4,0.7-1.4,0.9-2.1,0.4C179.7,52,179.7,51,179.9,50.2z
			 M149.7,20.9c0.7-0.4,1.1-1.2,1-2c0-1.5-0.1-3,2-3c2.2,0.2,1.7-2.3,3-3c2-2.9,4-2.9,6,0l1.9,1c1.6-1,2.8-0.9,4.1,0.9
			c2.6,3.7,3.5,8,5.3,12c1,2.2-0.6,2.9-2.4,3.1l0.9,5.1c0.1,1,0.1,1.9,0.2,2.9c0.3,0,0.7,0,1,0c2.7,0.3,1.8,2.4,1.9,4
			c-2,5.6-7.6,5.9-12,7.9c-0.7-0.3-1.5-0.6-2.3-0.9c-6.7-1.7-7.7-4.8-3.5-9.9c1.4-1.9,2.7-4,3.8-6.1l-3,0c-2.3,0.3-4.2-0.8-5.9-2.1
			C147,27.2,146.3,23.8,149.7,20.9z"/>
		<path class="st1" d="M104.6,283.9c5.5,0.7,11.1,1,16.6,1c1.2,0,2.3,0,3.5,0c-0.1-0.6-0.3-1.2-0.5-1.8c-0.4-1.1-0.6-2.3-0.6-3.5
			c-2.1,0.3-4.3,0.6-6.4,0.8c-0.7,0.9-1.3,1.7-1.9,2.6c-1.3,2.1-3.2-0.5-4.9-0.6C108.4,282.1,106.3,282.7,104.6,283.9z"/>
		<path class="st1" d="M119.6,274.9c0.1,2.3-1,4-2.3,5.7c2.2-0.2,4.3-0.5,6.4-0.8c0-1.5,0-3,0.2-4.4c0.1-1.2,1.7-3.1,2.5-1.2
			c1.6,3.6,4.1,3.3,7.1,3.4h0.3c9.2-2.6,18.1-6.4,26.2-11.3c-0.5-1-1-1.9-1.6-2.9c-1.5-2.4-3.1-5.2,0-7.5c2.5-1.8,3.3-4.3,4.2-7
			c1.6-5.2,9.1-10.4,13.2-8.3c3.8,1.9,5.2,5.8,5,10c3-2.8,5.8-5.7,8.6-8.8c-0.4-0.3-0.9-0.5-1.3-0.8c-7.7-5.1-8.1-12.6-0.8-18
			c1.4-1.1,2.3-2.7,3.4-4.1c1.5-1.7,2.2-4.8,5.7-3.2c0.8,0.4,1.8-0.4,1.9-1.2c0.6-4.6,4-8.5,3.4-13.4c-2.4-1.6-2.4,0.4-3.2,1.9
			c-1.6,3-3.3,5.5-7,1.8c-1.1-1.1-3-3.6-5-1.8c-2.1,1.8-2.6,4.4-1.2,7.2c2.4,5,1.7,6.7-2.8,8.3c-1.6,0.5-2.8,0.4-2.8-1.5
			c0.1-3.8-1.4-4.8-4.8-3.3c-1.2,0.5-2.2-0.3-3.3-0.8c0.6,3-1.7,5.2-2,8c2.2,0,4.3,0.4,3.7,3.2c-0.5,2.2-1.7,4.1-4.5,3.7
			c-1.1-0.3-2.2-0.6-3.3-1c-1.2,0.7-0.9,1.9-1,3c2.5,0.5,3.3,2.3,2.6,4.4c-0.5,1.6-2.5,3.3-3.8,2.4c-3.6-2.6-4.7,0.4-6.8,2.1
			c-1.4,1.2-2.8,2.7-4.9,3.2c-4.2,0.9-5.5,4.6-4.7,8c0.8,3.4-0.2,5-2.7,6.5c-1,0.6-1.8,1.5-2.3,2.5c-3.3,6.4-4.5,7-11.8,5.9
			C123.6,263.8,119.4,267.5,119.6,274.9z"/>
		<path class="st1" d="M42.1,67.6c0.4,0.6,1.1,1.1,1,1.6c-1,5,2,5.7,5.8,5.7c2.6,0,4.7,0,6.8,2.6c3.4,4.1,5.4,7.1,5,11.4
			c4.2-6.6,9.8-10.2,18-9c1.8,0.3,4,0.2,4.6,2.1s-0.1,4.6-1.8,5.2c-4.3,1.7-1.8,3.1-0.3,4.8c1.1,1.2,2.3,2.5-0.5,3
			c1.6,2.9,4.6,5.1,4,9c2.5,1.5,1.6,6.4,6,6v-3c-2.1-0.1-2.3-2-2.5-3.2c-0.4-3.3-1.7-6.2-3.6-9.7c5.9,2.2,6.1-2.4,5.8-4.8
			c-0.5-4,1.2-6.1,3.8-8.6c2.9-2.8,3.7-1.7,4.5,1.2l2,2c0.6-0.3,1.4-0.4,1.7-0.8c0.8-1.4,1.1-3.6,3.3-2.8s0.2,2.5,0.2,3.8
			c0,3.7,0.9,7.1,3.5,9.7c1.2,1.2,1.7,1.9,0.4,3.1c0.6,3.2,3.2,1.6,4.9,2.2c-0.1-2.2,1-4.8-2-6c-0.8-0.3-1.8-0.5-1.4-1.6
			c0-0.1,0.1-0.3,0.2-0.4c0.4-0.8,1.4-1.1,2.2-0.6c0.9,0.3,1.9,0.4,2.9,0.2c4.5-0.7,8.8,4.8,7.5,9.2c-0.9,2.9-2.4,3.7-5.2,2.7
			c-1.4-0.5-2.8-1-4.2-1.5c-0.6,0.4-1,1.2-0.9,2c1.7,0.6,4.6,0.2,4.7,2.6c0.2,2.6-1.2,5-3.6,6c-1,0.4-1.8,1.4-3.1,1.4
			c-1.1,0.7-0.9,1.9-1,3l-3,9c1.7,0,2-1.4,2.8-2.5c2.6-3.9,5.6-7.4,8.9-10.7c2-1.9,4-3.5,5.6,0.5c0.7,2,2.8,3.1,4.9,2.6
			c-2.4-3.5-2.8-6.8-0.6-10.8c2.8-5.1,6.4-6.9,12.4-5.2c0-1.3,0.1-3-1.4-3.4c-3.8-1-6.8-3.4-9.7-5.8c-0.6-0.5-1.8-0.9-2.3-0.6
			c-4.9,3.3-7.2-1.3-10.2-3.3c-5.9-3.9-11.4-8.4-18.6-9.7c-3.3-0.6-5.8,1.2-7.8,3.3c-2.8,2.8-4.6,0.9-6.9-0.4c-2.4-1.4-2.8-3-2-5.7
			c1.1-3.8,4.3-6.2,6.1-9.4c1.1-1.9,3.7-1.3,4.7,1.1c0.6,1.5,1.5,2.5,2.9,1.8c2.1-1,4.6-2,5.6-3.8c0.9-1.5-1.5-1.9-3-2.1
			C96,60.5,88.7,54.3,88,51.7c-0.3-1,0.5-1.3,1-2c2.3-3,9-3.8,5.4-10.1c-0.1-0.2,2.1-3.1,4.1-3.7c1-0.1,1.9-0.5,2.8-0.9
			c1.4-1,4.4-0.5,3.9-2.9c-0.3-2.2-2.8-1.1-4.3-1.2c-2.1-0.1-2.3-1.4-2.3-3.1c-5.6,2.8-10.8,0.9-16-1.4c-2.2-1-2.9,0.7-2.7,2.7
			c0.1,0.9,1.1,2-0.4,2.5c-0.1,0-0.2,0.1-0.3,0.1c-1.1,0.2-2.2-0.5-2.4-1.7c-1.1-4.8-3.8-5.2-8.4-4.4c-3.9,0.7-6.9-3.3-10.4-5.1
			c-1.8-1.1-3.7-2.1-5.6-2.9c-6.8-2.5-7.3-2.2-7.7,5.3c1.8-0.7,3.3,2.2,4.3,1.2c5.2-5.4,6.5,1.6,9.6,2.7c0.7,1.2,1.8,1,2.9,1.1
			c2.2,0.4,2.7,1.3,1,3v1.9c0.5,3.3-1.8,3.2-3.9,3.1c-0.7,1-1.4,0.9-2-0.1l-2,3c0,2.1-1.5,2.1-3,2.1c0,0.3,0,0.6,0,0.9
			c-0.7,2.6,1.4,7.3-4.6,5.8c0.9,4.2,5.6,2.8,7.3,5.5c-1.5,1.3-3.1,0.5-4.5,1c-1.2,0.4-3.2,0.8-2.6,2.3c1.3,3.5-1.4,3.2-3.2,4
			C38.7,62.7,38.7,62.7,42.1,67.6z M58.1,40.1c0.1-0.3,0.2-0.7,0.4-0.8s0.6,0.2,0.8,0.3c-0.1,0.3-0.2,0.7-0.4,0.8
			C58.7,40.5,58.4,40.2,58.1,40.1z"/>
		<path class="st2" d="M2.1,173.8c0.3,2.5,0.6,5,1,7.4c0.4-0.1,0.8-0.2,1.2-0.2c2.8-0.2,5.2-0.3,8-2s5.3,0,6,3
			c0.5,2.3,3.4,4.1,0.9,6.9c-0.4,0.4,0.8,0.8,1.3,1.1c5.6,4.9,6.3-3,9.8-4c2.6-0.8-0.5-2.9-0.9-4.5c-1-4.1-2.6-6.9-7.4-6.6
			c-0.2,0-0.5-0.7-0.9-1.2c1.9-0.7,3.4-2.2,4.1-4c2.3-4.9,4.9-9.7,10.6-11.7c-0.4-3.2,1.1-6.8-2.4-10.3
			c-0.8,10.9-6.1,16.1-16.3,16.4c-1.1,0-2,0.7-1.7,2.4c1.5,7.2-0.8,9-8.6,6.6H3.7C3.2,173.3,2.6,173.6,2.1,173.8z"/>
		<path class="st3" d="M6.8,173c7.8,2.4,10.1,0.6,8.6-6.6c-0.3-1.7,0.6-2.4,1.7-2.4c10.2-0.3,15.6-5.5,16.3-16.4
			c3.5,3.5,2,7.1,2.4,10.3l0,0h3c-0.6-2.4,1.9-3.8,2-6c-0.1-0.8,0.2-1.6,0.9-2l1-5c-5.2,0.6-4.8-3.4-3.7-5.8c1.8-3.9,3.1-8,4.7-12
			c1.6-4.3,6.4-7,6-12.2h-1c-3.3,0.6-2.5,3.9-3.9,5.8c-0.6,0.8-1,2.1-2.1,1.7c-1.6-0.7-0.7-1.8-0.1-2.8c0.4-0.7,1.2-1.3,0.4-2.2
			c-2.1-0.5-2.5,2.7-5.2,1.8c0.5-2.1,0.3-4.5,2.8-5.7c4.7-2.2,6.6-6.2,8-11.3c-2.2,0.4-4.1-0.6-5.8-0.6c-3.5,0-7.6-2.2-10.3,0.3
			c-6.8,6.4-11.8,14.5-13.2,23.8c-0.6,4.4-2.6,6.8-5.6,9.1c-1.1,3.1-4.7,4.2-6.1,7.1c1.1-0.2,2.2-0.5,3.3-0.9c3-1.7,6.8-0.9,8.1,0.8
			c1.7,2.1-1.7,4.4-3.2,6.4c-0.9,1-2.1,1.6-3.4,1.8c-0.5,0.1-0.9,0.3-1.2,0.6c-0.7,0.8-0.7,2.1,0.1,2.8c4.6,3.1,2.6,5.7,0,8.7
			c-0.6,0.7-0.5,1.9-0.7,2.9C10.9,168.4,9.3,170.9,6.8,173z"/>
		<path class="st1" d="M198.8,86.9c-0.3,3,2.1,2.9,3.7,3.8c0.3,0.2,0.7,0.2,0.8,0.5c1.2,2.7,6.3,3.9,4.9,6.5
			c-1.3,2.3-3.3-2.5-5.8-2.5c-0.6,0-1.2-0.1-2.6-0.1c7,7.7,9.9,16.8,13.1,25.6c1.1,3-0.1,6-0.3,8.9c-0.3,5.5-3.2,11.9,2.5,16.9
			c1.2,1.1,1.6,3.3,1.2,5.1c-0.6,2.4,0.5,3,2.5,3.2c5.1-1.1,4.3-4.5,3-8c-1.9-0.1-4.7-0.2-4.4-2.4c0.4-2.8,2.9-0.4,4.4-0.6
			c-0.3-2.4-1.5-4.9,2.7-5.7c1.9-0.3,1.5-2.8,0-4c-3.2-2.5-3.8-6-4-9.7c0-0.6-0.4-1.3-0.3-1.9c2-7.7,1.9-10-0.9-16.9
			c-0.6-1.4-0.6-3-0.1-4.4c1-2.6,0.9-4.8-1.2-6.8c-0.8-0.6-1.4-1.6-0.8-2.6c0.8-1.3,1.7-0.3,2.5,0.2c1.5,1,2.7,0.1,1.9-1.2
			c-1.5-2.5-1.6-5.9-4.3-7.7c-2.1-1.4-2.7-2.5-0.5-4.4s1.5-4.2-0.8-5.8c-2.6-1.8-3.2-4.2-3.2-7.3c0-4.5-2.8-7.8-5.9-10.8
			c-2.2-0.4-3.6-2.2-4.7,2.6c-1.2,5.3-0.6,8.7,3.5,13.4c-6-2-5.7,0.3-5,3.9c0.5,2.4,3.3,5.6-0.8,7.6c0.8,1.5,2.9,0.8,3.5,2.4
			C202.5,87.2,199.1,83.3,198.8,86.9z M212.6,103.4c-0.2-0.1-0.3-0.5-0.4-0.8c0.3-0.1,0.6-0.4,0.8-0.3c0.2,0.1,0.3,0.5,0.4,0.8
			C213.1,103.2,212.8,103.5,212.6,103.4L212.6,103.4z M210.5,100.4c-0.2-0.1-0.3-0.5-0.4-0.8c0.3-0.1,0.6-0.4,0.8-0.3
			c0.2,0.1,0.3,0.5,0.4,0.8C211.1,100.2,210.8,100.5,210.5,100.4L210.5,100.4z"/>
		<path class="st4" d="M22.8,90.9L22.8,90.9c2.7-1.3,6.5-1,7.8-4.4c2-5.1,4-5.9,7.7-1.6c1.6,1.9,2.4,1.3,3.9,0.8
			c2.3-0.8,4.1-3.3,7.8-2c-2.2,1.2-4,1.7-5.2,2.8s-3.6,1.3-3.7,4c3.9,0,5.8-4.4,9.7-4.2c1.1,0.1,2.4-0.8,2.5,1.1
			c0.2,3.9,3.7,7.4,1.5,11.7c-0.5,0.9,0.8,1.6,1.9,1.7c-0.4-3.6,2.4-6.8,1.6-10.6c-0.2-0.9,1.4-1.3,2.4-1.4c0.4-4.3-1.6-7.2-5-11.4
			c-2.1-2.6-4.2-2.6-6.8-2.6c-3.8,0-6.8-0.7-5.8-5.7c0-0.4-0.6-1.1-1-1.6c-3.5-4.8-3.5-4.9,1.8-7.2c1.8-0.8,4.5-0.5,3.2-4
			c-0.6-1.6,1.5-1.9,2.6-2.3c1.4-0.5,3,0.3,4.5-1c-1.7-2.7-6.3-1.3-7.3-5.5c6,1.6,3.9-3.1,4.6-5.8c-1.5-0.1-3.7,0.7-3.8-1.8
			c-0.1-4.3,1-8.5,3.2-12.1c1.6-2.8,5-1.1,7.7-1c-3.1-1.1-4.5-8.1-9.6-2.7c-1,1-2.5-1.9-4.3-1.2c-1.1,6.5-3.1,12.8-5.1,19.1
			c-0.9,3-3.9,3.9-5.7,6.1c-4.3,5.3-6.9,11.5-10.3,17.3c-0.2,0.4-0.7,0.9-0.1,1.2c4.8,2.3,1.4,5.4,1,8.3c1.5,1.8,1.2,10.6-0.5,11.9
			c-0.3,0.2-0.9,0.1-1.4,0.1l-0.1,1L22.8,90.9z"/>
		<path class="st5" d="M13.8,134.8c2.9-2.4,4.9-4.8,5.6-9.1c1.4-9.3,6.3-17.3,13.2-23.8c2.7-2.5,6.9-0.3,10.3-0.3
			c1.6,0,3.6,1,5.8,0.6c-1.4,5.1-3.3,9.1-8,11.3c-2.5,1.2-2.3,3.6-2.8,5.7c2.7,0.9,3.2-2.4,5.2-1.8c0.8,0.9,0,1.5-0.4,2.2
			c-0.6,1-1.5,2.2,0.1,2.8c1.1,0.4,1.5-0.9,2.1-1.7c1.4-1.9,0.6-5.2,3.9-5.8c1.7-4.9,4.3-8.9,9.8-10c2.2-2.6,0.7-3.5-1.8-4
			c-1.1-0.1-2.4-0.8-1.9-1.7c2.1-4.3-1.4-7.8-1.5-11.7c-0.1-1.9-1.4-1.1-2.5-1.1c-3.9-0.2-5.8,4.2-9.7,4.2c0.1-2.8,2.4-2.9,3.7-4
			s3-1.7,5.2-2.8c-3.7-1.2-5.5,1.2-7.8,2c-1.6,0.6-2.3,1.1-3.9-0.8c-3.7-4.3-5.7-3.5-7.7,1.6c-1.3,3.4-5.1,3.1-7.8,4.4
			c0.1,2.1,0.2,4.3-2.9,4l-1.1,2c1.3,0.3,3.4-0.7,3.7,1.3c0.3,2.3-1.4,3.4-3.6,3.7c-0.7,2.8-3,5-3.1,8l0,0c1.1,2.3,5.6,4.4,0.6,7.3
			c-0.5,0.3-1.4,0.9-0.5,1.4c4.1,2.9,1.1,6.3-0.2,8.4C14.3,129.4,13.6,132.1,13.8,134.8z"/>
		<path class="st4" d="M7.7,144.6c-1.7,5.4-0.1,11-1.5,16.5c-0.5,2,2.5,3,4.5,3.8c0.2-1,0.1-2.2,0.7-2.9c2.5-2.9,4.5-5.6,0-8.7
			c-0.3-0.3-0.6-0.7-0.6-1.2c-0.2-1.1,0.6-2.1,1.7-2.3c1.3-0.1,2.5-0.8,3.4-1.8c1.5-2,4.9-4.3,3.2-6.4c-1.3-1.6-5.1-2.4-8.1-0.8
			c-1.1,0.4-2.2,0.7-3.3,0.9c-1.5,1.4-4.3,1.3-4.5,4.1C5.2,147.4,5.6,144.4,7.7,144.6z"/>
		<path class="st1" d="M21.5,85.5c-0.1,0.1,0.9,0.9,1.3,1.4c0.5,0,1.1,0.1,1.4-0.1c1.7-1.3,2-10.1,0.5-11.9
			C21.9,77.9,23.6,82.3,21.5,85.5z"/>
		<path class="st4" d="M18.9,101.8c2.1-0.4,3.9-1.5,3.6-3.7c-0.3-2-2.4-1-3.7-1.3C17.5,98.5,14.7,100.3,18.9,101.8z"/>
		<path class="st0" d="M217.4,144.4c-0.3,2.2,2.5,2.3,4.4,2.4c1.3-1,1.3-2,0-3C220.2,144.1,217.7,141.7,217.4,144.4z"/>
		<path class="st4" d="M19.7,91.8l0.1,3c3.1,0.3,2.9-1.9,2.9-4l0,0L19.7,91.8z"/>
		<path class="st1" d="M19.7,91.9l3-1c0-1,0-2,0-3C20.2,88,19.7,89.7,19.7,91.9z"/>
		<path class="st5" d="M14.5,114.2c0,0.1,0.1,0.3,0.1,0.3c0.1,0,0.3-0.1,0.4-0.1c0-0.1-0.1-0.3-0.1-0.3
			C14.8,114.1,14.6,114.2,14.5,114.2z"/>
		<path class="st5" d="M15.3,110.3c0.1-0.1,0.2,0,0.3-0.1c0.1-0.1,0.1-0.2,0.2-0.3l0,0L15.3,110.3z"/>
		<path class="st6" d="M106.4,57.2c0.5,5.3,3.7,9.8,3.9,15.3c0.1,3.6,7.1,3.9,10.2,0.6c5.3-5.8,11.9-6.8,18.5-3
			c1.4,0.8,2.8,1.7,4.8,2.9c-3.5,0.8-2.8,4.9-6,6.1c-1.6,0.6-0.5,2.1,0.4,2.7c3.2,2,5.8,4.2,5.9,8.5c0,1,1.5,2.5,2.6,2.9
			c10.8,3.6,15.2,14.2,23.4,20.6c1.8,1.4,1.5,2.2-0.8,3.4c-3.5,1.8-6.4,3.7-10.9,2.9c-3.7-0.6-7.2,1.4-7.9,6.3
			c-0.5,3.7-3.9,3.6-6.6,3.2c-3.3-0.4-6.4-2.3-9-4c-2.6-1.8-0.2-3.3,0.8-4.8c-1.6-1.1-2.4-3.1-2-5c-1.3-0.4-2.8,0.4-3.8-1
			c-2,0.5-4.2-0.6-4.9-2.6c-1.6-4-3.6-2.4-5.6-0.5c-3.3,3.2-6.3,6.8-8.9,10.7c-0.8,1.1-1.1,2.5-2.8,2.5l-1,2
			c0.6,2.6-1.9,8.6,4.8,4.3c0.6-0.3,1.3-0.4,1.9-0.1c4.2,4.1,11.1,4.3,14.3,9.8l2,0.1c0.1-0.3,0.1-0.9,0.2-0.9
			c8-0.9,15.6-7.7,23.9-2.7c6.4,3.8,13.3,6.9,19.6,10.8c3,1.8,5.5,4.3,7.1,7.5c1.7,3.3,3.8,4.8,6.7,1.1c1.5-1.9,6-2.2,3.7-6.4
			c-0.1-0.1,0.8-1,0.8-1c4.5,2.8,5.2-3.9,9-3.4c2.2,0.3,1.8-1.4,0.7-2.6c-1.2-1.2-2.3-2.4-3.4-3.7c-3.6-5.2-3.5-15.1,0.1-20.6
			c0.5-0.8,1.6-2,1.4-2.5c-2.7-5.8,0.5-13-4.9-18.3c-3.4-3.4-5.7-8-9.3-11.5c-2-1.9-3.1-3.9-5.9-1.4c-1.6,1.3-3.1,0.4-3.4-1.3
			c-0.7-3.5-2.7-6.7-2.3-10.6c0.7-7.2-3.1-12.2-8.6-16.3c-4.1-3.1-8.1-6.3-13.7-6.2c-2.2,0-2.1-1.6-1.9-3.6c0.2-2.2,3.5-5.2-1.4-6.9
			c-2.4-0.8-4.9-1.3-7.5-1.4c-4.5-0.2-6.5,1.3-8.8,4.3c-1.1,1.5-2.7,0.3-4.1-0.3c-4.3-1.8-9-2.5-13.7-2.1c-3.7,0.3-5.2,2.1-6.1,5.8
			c4.3-0.8,8.2-1.7,10.8,2.7c1.3,2.3,1.1,4-0.7,5.8c-1.6,1.6-3.2,2.4-5.2,0.6c-0.9-0.8-1.9-1.3-3.1-1.6
			C107.5,53.6,106.1,53.4,106.4,57.2z"/>
		<path class="st3" d="M67.8,272.1c-0.2,0.8-0.5,1.6-0.8,2.4c3,1.2,6.1,2.3,9.1,3.3l0.5-0.6c0.2,0.3,0.4,0.6,0.6,0.9
			c2.7,0.9,5.3,1.6,8,2.3c0-0.5,0-1,0-1.5c0-0.3,0.1-0.6,0.1-0.9C79.3,276.6,73.5,274.6,67.8,272.1z"/>
		<path class="st3" d="M69.7,265c0,1-0.8,1.9-1.9,1.9c0.7,1.7,0.7,3.5,0.1,5.2c5.6,2.5,11.5,4.5,17.5,6c0.1-0.5-0.1-1.1-0.4-1.5
			c-2.3-2.3-2.9-4.5-1-7.5c2.4-3.7,4.6,0.2,6.8-0.2l0,0c1-3.2,2-1.5,3,0c1.4,0.1,3-0.5,4,1c1.8,2.4,5.7,1.8,7,5
			c2.2,0.6,3.9,1.2,4.4-2.2c0.3-2.3,0.3-4.6,0.7-6.8c0.5-2.6,0.5-6,5.1-4.4c2.2,0.8,3.1-1.2,3.8-2.9c0.7-2,1.4-4.1,3-5.6
			c0-1.6,0.8-3,2.2-3c4.3,0.1,6.9-7,12-2.7c0.1,0.1,0.6-0.2,0.9-0.4c0.2-1.6-0.8-4.2,0.8-4.6c5.4-1.4,8.4-7.1,14.2-7.4
			c0-1.2-0.8-2.1-1.4-3.1c-1.5-2.7,0.8-4.9,1.7-6.8c0.9-2,2.4,0.1,3.6,0.7c2.8,1.4,2.8-0.9,3.7-2.6c2.1-4.2,2.3-9.7,7.4-12.2l1-5
			c0.1-2.2,0.2-4.4,3-5c0-1.3,0-2.7,0-4c-1.9,0.3-3.9-0.5-5-2.1c-2,2.1-1.4,5.2-3.2,7.5c-0.6-5.2-1.7-10.3,0.2-15.4
			c0-1.6-0.1-3.3-0.1-4.9c-2-0.5-2.5-1.5-0.9-3.1c-0.6-5.6-3.9-10.1-6.1-15l-3.8-1c0.6,3.4,3.6,5.5,4.8,8.6c1.9,4.9,2.1,6.5,1,8.9
			c-1.9-2.6-2.9-5.6-4.2-8.3c-2.3-4.8-4.4-3.1-6.2-0.3c-1.8,2.8-2.9,2.6-4.8,0.4c-0.8-0.8-1.6-1.6-2.6-2.3l-2-0.1v1.1
			c0,0.3,0,0.7,0,1c1.2,1.1,1.4,2.3-0.3,2.9c-1.7,0.6-2.7,1.5-2.8,3.3c0,0.6,0.1,1.3,0.1,1.9c1.9,0,2.2,1.8,3.1,2.9
			c2.2-5.2,2.8-5.4,7-1.4c1.3,1.2,2.4,2.5,4.7,1.8c1.6-0.5,2.4,1.4,3.2,2.6c5.5,0,6.2,3.6,5.9,8c0.4,2.1-0.6,4-1,6
			c0.6,3.2-1.6,6.4-0.8,9.3c1.5,5.3-1.9,8.2-4.8,11.1c-1.4,1.4-4.2,2-6.4,2c-1.5,0-0.7-2.2-0.9-3.4c0-2.3-0.1-4.6-0.1-6.9
			c-5.4-0.6-7.1-4.5-8-9c-2.7-2.2-3.1-6.1-6-8.1c-3.6,1.6-1.8,3.5-0.2,5.3c2.9,3.3,4.3,7.2,5.4,11.4c2.1,7.9,1.8,16,3.5,23.9
			c0,0.1,0,0.1,0.1,0.2c0.3,1.1-0.4,2.3-1.5,2.6c-5,1.6-9.9,3.5-15,4.6c-4.4,1-8.7,1.7-11,6.2c-1.5,3-3,2.8-4.3-0.1
			c-1.8,1.3-2.7,1.4-2.7,0.8c0.5-5.5-3-3-5.4-2.8c-1,1.5-2.6,0.9-4,1h-1v2c0,0.3,0,0.7,0,1c-0.2,3.4,0,6.6,3.5,8.6
			c1.4,0.8,2.2,2.5,3.3,3.7c1.4,1.6,2,3.6,0.6,5c-1.7,1.7-2.8-0.5-4-1.5c-2.9-2.3-6.8-6-9.3-5.1c-4,1.4-7,0.4-10.4-0.5
			c-1.7-0.5-3.5,0-4.6,1.2C72.7,263.4,71.7,264.9,69.7,265C69.7,264.9,69.7,264.9,69.7,265z"/>
		<path class="st4" d="M99.8,141.9l-1,3h3c4.8-1.2,9.5-1.4,14,1c2.8-1,5.4-1.6,3.9,3c0.3,0,0.7,0,1,0c0.8,0.1,1.7,0,1.6,1.1
			c0,0.3-0.9,0.6-1.4,0.9l0.1,1.9c3.8,0.7,2.6,3.7,2.8,6.1c0,1.3,0,2.7,0,4c3.3,2.9,7.2,4.9,11,7c0.2-1,0.4-2,1.7-1.8
			c1,0.1,1.2,1,1.3,1.8l2,0.1c4.2-1.2,1.6-5.9,4-8c-2.7-2.2-5.4-4.3-8-6.5c-0.9-0.6-1.2-1.7-0.7-2.6c0.5-0.8,1.4-0.7,2.2-0.7
			c5.9,0.2,12.5,5.2,14.4,10.9l0,0l3.8,1c1.8-2.7-0.6-4.1-2-5.6c-6.6-7.5-14.7-13.4-23.8-17.3l-2-0.1c-1,1.5-3,2.1-4.7,1.4
			C115.4,140.1,107.6,136.4,99.8,141.9z"/>
		<path class="st4" d="M170.8,200.9c2.1,3.5-0.6,4.2-3,5l-1,5c1.8,2.6,1.2,5.3,0.4,7.9c-0.5,1.7-1.8,3.2-0.4,5c2,0,2.2-1.7,3-3
			c0.4-2.7,2.6-5,2-8c-0.4-5.3-0.1-9.8,7-10.3c2.9-0.2,2.9-3.6,4-5.7c0.4-2.3-0.6-4.6-2.5-6c-1.9-1.3-2.9-3.7-2.5-6
			c-0.9-3.6-4-6.1-4.4-10.1c-0.2-1.9-2.7-3.3-4.5-3.3c-1.9,0-0.7,2.4-1.2,3.7c-0.8,2-0.4,3.8,0.1,5.8c6,0.4,8.7,6.7,5.7,13.8
			c-1.2-4.2-3.9-7.3-5.8-10.8c-2.9,0.7-2.4,2.2-1.1,4c3.4,2,2.6,6,4,9L170.8,200.9z"/>
		<path class="st7" d="M132.8,109c0,3.9,3.1,4.7,5.3,6.5l1.6,0.7c1.5-0.3,2.9-0.3,3.1,1.7c1.7,0,3.5,0.4,4.9,1.3l3.4,0.1
			c0.2-0.2,0.4-0.4,0.6-0.6c2.9-7.5,2.7-8.8-2.8-13.5c-0.2-0.1-0.1-0.6-0.1-0.9c-1.5-0.4-2.9-1.3-3.9-2.5l-1.2,0.4
			c-0.1,1-0.2,1.9-0.4,2.9c-0.9,3-3.1,5.6-6,4.5c-3.3-1.3,0.1-3.8,0.4-5.8c0.1-0.3,0.1-0.7,0.1-1C133.5,102.8,132.7,105.3,132.8,109
			z M145.2,113.5c0,0-0.1,0-0.1,0c-1.3-0.1-2.4-1.3-2.3-2.6c0-1.1,0.3-2,1.6-1.8c1.5,0.2,1.9,1.6,2.1,2.9c0.1,0.2,0.1,0.4,0,0.6
			C146.4,113.3,145.8,113.7,145.2,113.5L145.2,113.5z"/>
		<path class="st4" d="M149.7,20.9c0.6,2,0.4,4.9,2.6,5.5c3.5,1,4.3,3.8,5.4,6.4l3,0c1.3,0,2,0.7,2.1,2c2.3-1.7,3.2-3.5-0.5-3.9
			c-2.5-0.3-3.3-1.1-3.8-3.4c-0.4-1.9-1.1-3.7-2.1-5.4c-1.5-2.5,1.6-4.1,3-5.5s2.6,0.8,3.2,1.9c2.2,4,4.7,7.9,6.1,12.3
			c0.5,1.7,0.7,3.6,3,4l-0.9-5.1c-2.4-5.4-6.4-9.9-7.1-16l-1.9-1h-5.9c-1.3,0.7-0.8,3.1-3,3c0,1.4,0,2.9-2,3
			C150.9,19.7,150.5,20.5,149.7,20.9z"/>
		<path class="st3" d="M156.3,22.2c1,1.7,1.7,3.5,2.1,5.4c0.5,2.3,1.4,3.1,3.8,3.4c3.8,0.4,2.8,2.2,0.5,3.9l0,0c1,1.7,1.4,3.9,4,4
			l2,0c0.8-1.2,2-0.9,3.1-1l-0.2-2.9c-2.2-0.4-2.5-2.3-3-4c-1.4-4.4-3.9-8.3-6.1-12.3c-0.6-1.2-1.8-3.3-3.2-1.9
			C157.9,18,154.7,19.6,156.3,22.2z"/>
		<path class="st1" d="M157,39c-4.2,5.1-3.2,8.2,3.4,10c0.8,0.2,1.6,0.5,2.3,0.9c2.6-4.8,7-6.8,12-8c-0.2-1.5,0.7-3.6-1.9-4
			c-0.7,2.8-2.2,2.4-4,1h-2c-1.4,3.2-3.3,2.2-5.3,0.6c-2.9-2.5-0.4-3.4,1.3-4.6l0,0c-0.1-1.3-0.7-2-2.1-2
			C159.7,35,158.4,37.1,157,39z"/>
		<path class="st8" d="M129.4,104c-2.2,4-1.8,7.3,0.6,10.8c1,1.4,2.6,0.6,3.8,1l4.3-0.3c-2.2-1.8-5.3-2.6-5.3-6.5
			c0-3.7,0.8-6.2,5-6.2c1.9-0.3,3.8-1.5,5.9-0.7l1.2-0.4l-0.1-1.8l-3-1.2C135.8,97.1,132.2,98.9,129.4,104z"/>
		<path class="st6" d="M179.9,50.2c-0.1,0.8-0.1,1.8,0.6,2.2c0,0,0.1,0.1,0.1,0.1c0.7,0.4,1.6,0.1,2-0.7c1-1.8,2.9-2.9,4.9-3
			c5.4-0.2,6.2-5.1,8.4-8.3c1.3-1.8-1.3-1.5-2.3-1.7C188.9,38.8,180.5,45.7,179.9,50.2z"/>
		<path class="st4" d="M133.8,115.8c-0.4,1.9,0.4,3.9,2,5c1.4,0,1.7,1.4,2.6,2c5.4,3.6,8.9,4.6,12.3-2c-1.3,0-2.7,0.3-3.1-1.5
			c-1.5-0.9-3.2-1.4-4.9-1.3c-1.4,0.2-2.7,0.1-3.1-1.7l-1.6-0.7L133.8,115.8z"/>
		<path class="st6" d="M163.6,13.9c0.7,6.1,4.7,10.7,7.1,16c1.8-0.2,3.4-0.9,2.4-3.1c-1.8-4-2.7-8.4-5.3-12
			C166.5,12.9,165.3,12.9,163.6,13.9z"/>
		<path class="st6" d="M182.4,57.6c0.5,1.5,2,2.4,3.5,2.3c1.2,0,2.3,0,4.9,0c1,0,2-0.1,3-0.3c1.2-0.3,2-1.4,1.8-2.6
			c0-0.9-0.3-1.9-1.2-1.8c-3.1,0.2-6.2-2-9.1,0C184.2,55.8,181.7,55.2,182.4,57.6z"/>
		<path class="st1" d="M177.8,184.8c-0.4,2.3,0.6,4.7,2.5,6c1.9,1.4,2.9,3.7,2.5,6c1.1-0.2,2.1-0.7,1.9-1.8
			c-1.1-5.3-1.1-11-4.5-15.9C177.6,180.6,179.9,183.6,177.8,184.8z"/>
		<path class="st5" d="M167.8,180.8c0,1,0,2,0,3c1.8,3.6,4.5,6.6,5.8,10.8C176.5,187.5,173.7,181.3,167.8,180.8z"/>
		<path class="st1" d="M151.8,30.7c1.7,1.2,3.6,2.3,5.9,2.1c-1.1-2.7-1.9-5.4-5.4-6.4c-2.2-0.6-2-3.5-2.6-5.5
			C146.3,23.8,147,27.2,151.8,30.7z"/>
		<path class="st4" d="M162.7,186.8c-1.8,5.1-0.8,10.3-0.1,15.4c1.8-2.3,1.2-5.4,3.2-7.5l0.9-4C163.2,191.6,164.4,187.8,162.7,186.8
			z"/>
		<path class="st8" d="M148.7,104.2c0,0.3-0.1,0.8,0.1,0.9c5.5,4.7,5.8,6,2.8,13.5c3.7,0.2,1.9-3.4,3.2-4.8
			c0.1-3.6-0.3-7.3-1.1-10.8l0,0C151.9,103.2,149.9,102.2,148.7,104.2z"/>
		<path class="st4" d="M144.7,99.9l0.1,1.8c0.9,1.3,2.3,2.2,3.9,2.5c1.2-2,3.3-1,4.9-1.3C151.9,98.4,150,97.8,144.7,99.9z"/>
		<path class="st4" d="M162.8,49.8c4.4-2.1,9.9-2.3,11.9-7.9C169.7,43.1,165.3,45,162.8,49.8z"/>
		<path class="st4" d="M156.4,104.8c-0.9-0.7-1.8-1.3-2.8-1.9c0.8,3.6,1.2,7.2,1.1,10.9C158.1,112.7,159.1,107.4,156.4,104.8z"/>
		<path class="st5" d="M166.7,190.8l-0.9,4c1.1,1.6,3.1,2.4,5,2.1c-1.4-3-0.5-7-4-9C166.7,188.8,166.7,189.8,166.7,190.8z"/>
		<path class="st1" d="M155.7,12.9h6C159.7,10,157.7,10,155.7,12.9z"/>
		<path class="st4" d="M168.8,38.8c1.8,1.4,3.3,1.8,4-1c-0.3,0-0.7,0-1,0C170.7,37.9,169.5,37.7,168.8,38.8z"/>
		<path class="st1" d="M150.7,18.9c2-0.1,2-1.6,2-3C150.7,15.9,150.7,17.4,150.7,18.9z"/>
		<path class="st4" d="M161.7,178.8c-1.6,1.6-1.1,2.6,0.9,3.1C162.7,180.8,163,179.6,161.7,178.8z"/>
		<path class="st8" d="M151,119.3l-3.4-0.1c0.4,1.8,1.8,1.5,3.1,1.5L151,119.3z"/>
		<path class="st4" d="M88.3,280.8c0,0.1,0,0.2,0,0.3c5.4,1.2,10.8,2.2,16.2,2.8c1.7-1.2,3.8-1.8,5.9-1.6c1.7,0.2,3.5,2.7,4.9,0.6
			c0.6-0.9,1.2-1.7,1.9-2.6c-3,0.3-6,0.4-9,0.4c-6.6,0-13.3-0.7-19.8-2C88.5,279.5,88.4,280.2,88.3,280.8z"/>
		<path class="st4" d="M90.8,268.9c-2,3.1-2.1,6.5-2.2,9.9c6.5,1.3,13.1,2,19.8,2c3,0,6-0.1,9-0.4c1.2-1.7,2.3-3.4,2.3-5.7
			c-0.1-7.2,4-11,10.9-9.9c7.2,1.1,8.5,0.5,11.8-5.9c0.5-1.1,1.3-2,2.3-2.6c2.5-1.5,3.5-3.2,2.7-6.5s0.5-7.1,4.7-8
			c2.2-0.5,3.5-2,4.9-3.2c2.1-1.7,3.2-4.7,6.8-2.1c1.3,0.9,3.3-0.7,3.8-2.4c0.7-2.1-0.1-3.9-2.6-4.4c-4.6,1-7.4,6.5-13,5
			c-5.8,0.3-8.8,6.1-14.2,7.4c-1.6,0.4-0.6,3-0.8,4.6c1.4,1.8,1.4,2.9-0.9,4.1c-4.5,2.4-9.6-0.4-14.1,1.9c-1.6,1.5-2.2,3.6-3,5.6
			c-0.7,1.8-1.6,3.7-3.8,2.9c-4.6-1.6-4.6,1.9-5.1,4.4c-0.5,2.2-0.4,4.5-0.7,6.8c-0.5,3.4-2.2,2.9-4.4,2.2c-3.6,0.2-7,0-7-5
			c-1-1.5-2.6-0.8-4-1h-3L90.8,268.9z"/>
		<path class="st5" d="M152.1,224.9c-0.9,2.1-3.2,4.1-1.7,6.8c0.6,1,1.4,1.8,1.4,3.1c5.6,1.5,8.4-4,13-5c0.1-1.1-0.2-2.3,1-3l1-3
			c-1.3-1.8-0.1-3.3,0.4-5c0.8-2.6,1.4-5.4-0.4-7.9c-5.1,2.5-5.2,8-7.4,12.2c-0.9,1.7-0.9,4-3.7,2.6
			C154.5,225.1,153,222.9,152.1,224.9z"/>
		<path class="st0" d="M166.7,223.8l-1,3c1.1,0.4,2.2,0.7,3.3,1c2.8,0.4,4-1.6,4.5-3.7c0.6-2.9-1.5-3.2-3.7-3.2
			C169,222.1,168.7,223.8,166.7,223.8z"/>
		<path class="st0" d="M56.8,100.9c2.5,0.5,4,1.4,1.8,4c1.5,3.8,5,1.1,7.3,2.1c1.3-1.7,3.3-0.8,4.8-1.4c1.8-4.1,4.1-3.7,6.7-0.7
			c0.6,0.7,1.2,1.7,2.4,1.5c0.3-0.1,0.8-1,0.8-1c-2.4-2.5-0.1-6.5-3.4-9s-7.4-2.7-12-5c6.7-1.6,11.1,1.4,15.6,3.4
			c2.8-0.6,1.5-1.8,0.5-3c-1.5-1.7-4-3.1,0.3-4.8c1.7-0.7,2.4-3.3,1.8-5.2s-2.8-1.8-4.6-2.1c-8.1-1.2-13.8,2.4-18,9
			c-1,0.1-2.5,0.5-2.4,1.4C59.2,94,56.4,97.2,56.8,100.9z"/>
		<path class="st3" d="M85.7,111.8c1.8,2,0.9,6.6,5.3,6c4.1-0.6,8.4,0.5,11.7,3c0-2,0-4,0-6l-0.1-3.1c-4.8-1.6-6.6-2.6-7.1-3.8
			c-2.6-5.8-1.5-12.9,2.9-16.9c-0.4,3.8,4.6,4.1,4.4,7.8c5.7-0.2,4.8,5.2,7,8c0.5,3-1,6.2,1,9c0-1.1-0.2-2.3,1-3
			c-0.3-3.5,0.4-6.9,2-10c-0.1-0.8,0.2-1.6,0.9-2c0-0.6,0-1.2,0-1.8c-1.7-0.5-4.3,1-4.9-2.2c-4-3.6-6.4-8.4-9-13l-2-2
			c-3.4,1.3-3.2,5.8-6.2,7.4c-0.1,0.1,0.2,0.9,0.2,1.4c0.4,5.5-0.8,10.8-2,16.2v3c1.5,1.5,1.3,3,0.1,4.8
			C89.2,113.1,88,111.4,85.7,111.8z"/>
		<path class="st4" d="M80.6,105.4c0,0.1-0.5,1-0.8,1c-1.2,0.2-1.7-0.8-2.4-1.5c-2.6-3-4.9-3.4-6.7,0.7l1.2,0.8
			c5.2,0.4,8.2,3.8,10.8,7.7c2.3,1.2,3.8,2.9,3.6,5.7c4.8,1.8,5.3,7.1,8.5,10.2c0.4,0.7,1.2,1,2,0.9c0.4-3-2.3-5.4-1.5-8.9
			c3.7,1.4,3.8,5.8,6.9,7.6c1-3.2,0.4-6,0.6-8.8c-3.3-2.5-7.6-3.6-11.7-3c-4.4,0.6-3.5-4-5.3-5.9c-1.6-2.5-4-4.9-1-8
			c0.6-3.9-2.4-6.1-4-9c-4.6-2-8.9-4.9-15.6-3.4c4.6,2.3,8.7,2.4,12,5C80.4,99,78.1,103,80.6,105.4z"/>
		<path class="st5" d="M84.7,94c1.9,3.5,3.2,6.4,3.6,9.7c0.1,1.2,0.4,3.1,2.5,3.2c1.2-5.3,2.4-10.7,2-16.2c0-0.5-0.4-1.3-0.2-1.4
			c3-1.7,2.8-6.1,6.2-7.4c-0.8-2.9-1.6-4.1-4.5-1.2c-2.6,2.5-4.2,4.6-3.8,8.6C90.7,91.6,90.6,96.2,84.7,94z"/>
		<path class="st0" d="M113.2,90.2c-0.9-0.2-1.8,0.4-1.9,1.2c-0.3,1.1,0.7,1.3,1.4,1.6c3,1.2,1.9,3.8,2,6c0,0.6,0,1.2,0,1.8
			c1.4,0.5,2.8,1,4.2,1.5c2.8,1,4.3,0.2,5.2-2.7c1.3-4.3-3-9.8-7.5-9.2c-1,0.2-2,0.1-2.9-0.2C113.5,90.3,113.3,90.2,113.2,90.2z"/>
		<path class="st3" d="M47.9,40c0.1,2.5,2.3,1.7,3.8,1.8c0-0.3,0-0.6,0-0.9l1-2.9c0-1.1,0-2.3,0-3.4c0.1-2.5,1-4.4,3.5-5.3
			c0.8-0.3,1.7-0.3,2.2,0.5c1.4,2.4-0.6,3.8-1.6,5.6c0,0.2-0.1,0.3-0.1,0.5c0.6,1.1,1.3,1.1,2,0.1c0.8-1.7,1.6-3.3,3.9-3.1
			c0-0.6,0-1.2,0-1.9c-1.1-0.8-0.9-1.9-1-3c-1.1-0.1-2.2,0.1-2.9-1.1c-2.7-0.1-6.1-1.8-7.7,1C48.9,31.5,47.8,35.7,47.9,40z"/>
		<path class="st4" d="M101.9,106.9l0.7,4.9l0.1,3.1c2.5-0.2,2.9,1.2,3.1,3.3c0.2,2.9-1.1,5.9,0.9,8.6l1-2l3-9c-2-2.8-0.5-6-1-9
			c-2.9-0.7-2.7,2.2-3.9,3.7C104.3,109.3,104.9,106.1,101.9,106.9z"/>
		<path class="st4" d="M102.4,83c-0.3,0.4-1.1,0.6-1.7,0.8c2.6,4.6,5,9.4,9,13c1.3-1.2,0.8-1.9-0.4-3.1c-2.6-2.6-3.5-6.1-3.5-9.7
			c0-1.3,1.9-3-0.2-3.8C103.4,79.4,103.2,81.6,102.4,83z"/>
		<path class="st4" d="M113.8,102.9c-1.6,3.1-2.3,6.5-2,10c1.3,0,2.1-1,3.1-1.4c2.4-1,3.8-3.4,3.6-6
			C118.4,103.1,115.5,103.5,113.8,102.9z"/>
		<path class="st5" d="M84.7,103.8c-2.9,3.1-0.6,5.5,1,8c2.3-0.5,3.5,1.3,5.2,2.8c1.1-1.8,1.3-3.3-0.1-4.8
			C86.4,110.2,87.2,105.4,84.7,103.8z"/>
		<path class="st9" d="M52.8,37.8c0.8-0.1,1.6,0.2,2,0.9l2-3c0-0.2,0-0.3,0.1-0.5c0.9-1.8,3-3.2,1.6-5.6c-0.5-0.8-1.3-0.8-2.2-0.5
			c-2.5,0.9-3.4,2.8-3.5,5.3C52.7,35.6,52.7,36.7,52.8,37.8z"/>
		<path class="st4" d="M58.7,35.8c2.2,0.1,4.4,0.2,3.9-3.1C60.4,32.5,59.5,34.1,58.7,35.8z"/>
		<path class="st4" d="M51.7,40.8c1.5,0.1,2.9,0,3-2.1c-0.4-0.7-1.2-1-2-0.9L51.7,40.8z"/>
		<path class="st4" d="M61.7,27.9c0.1,1.1-0.1,2.3,1,3C64.4,29.2,63.9,28.2,61.7,27.9z"/>
		<path class="st4" d="M58.1,40.1c0.3,0.1,0.6,0.4,0.8,0.3s0.2-0.5,0.4-0.8c-0.3-0.1-0.6-0.4-0.8-0.3C58.3,39.4,58.2,39.8,58.1,40.1
			z"/>
		<path class="st8" d="M11.8,217.9c-0.8-2.4-1.6-4.9-2.3-7.4C9.4,213.1,10.2,215.7,11.8,217.9L11.8,217.9z"/>
		<path class="st8" d="M5.2,193.1c-0.2-1-0.4-2-0.6-3c-0.5,1.4-1.6,3-1.1,4.7C4.1,194.3,4.7,193.7,5.2,193.1z"/>
		<path class="st8" d="M6.1,197.4c-0.2-0.7-0.3-1.3-0.4-2c-0.4,0.4-0.7,0.9-0.9,1.5C5.2,196.9,5.7,197.1,6.1,197.4z"/>
		<path class="st8" d="M8.2,205.8c-0.7-2.5-1.3-5.1-1.9-7.7c-0.6,0.5-1.1,1.1-1.5,1.8c0.9,2.8,1.8,5.6,2.7,8.4
			C7.7,207.5,8,206.7,8.2,205.8z"/>
		<path class="st8" d="M0,182.3c0.5,2,0.9,4,1.5,6c0.8-0.7,1.7-1.1,2.4-0.7c0.1,0.1,0.2,0.1,0.2,0.2c-0.4-2.2-0.8-4.4-1.1-6.7
			C2,181.4,1,181.7,0,182.3z"/>
		<path class="st8" d="M3.1,180.9c0.3,2.2,0.7,4.5,1.1,6.7c0.9,0.6,0.8,1.4,0.4,2.4c0.2,1,0.4,2,0.6,3c1.4-1.6,2.8-3.1,5.3-2.6
			c-0.7,2.7-3.3,3.3-4.8,4.9c0.2,0.7,0.3,1.3,0.4,2c0.3,0.2,0.5,0.5,0.2,0.8l0,0c0.6,2.6,1.3,5.2,1.9,7.7c0.5-1.7,1.1-3.3,1.7-4.9
			c0.3-1,1-2,2.1-1.5c0.9,0.4,0.6,1.4,0.3,2.2c-0.4,1.1-0.7,2.2-1.2,3.2c-0.9,1.7-1.5,3.7-1.6,5.6c0.7,2.5,1.5,5,2.3,7.4l3.9,1
			c-0.2-3.4-2.3-7.4,3-9v-3c0.5-4.4,3.9-6,7.2-8.4c3.6-2.7,5.3-7.6,10.8-3.5c0.6-5.3,4.1-9.8,5-15c-2-5.2,1.9-13.6,7-15
			c3.8-5.4,8.3-10.2,13.5-14.3c2.8-2.3,6.4-4.3,6.3-8.8c1-1.5,1.4-3.3,1.1-5h-2c-0.9,4.9-5.6,2.1-8,4l0,0l-0.4,1.3l-0.4-0.2l0.8-1
			l0,0l0,0c-0.1-2-1.6-2-3-2c-2.3,1.2-4.8,0.9-4.8-1.8c0-4.9,0.5-10,3.8-14.2v-2.9v-4c-4.9,3.8-6.9,9-7,15c-1.2,3.6-0.7,8-4.9,10.1
			c0,1.4-0.3,2.7-1.1,3.9l-1,5c4.6-1.3,6.9-6.1,11.8-7.8c-4.1,10.2-5.6,11.2-12.7,9.8c-0.1,2.2-2.6,3.6-2,6c-0.3,2.6,1,5.8-3,7.9
			v-7.9l0,0c-5.6,2-8.2,6.9-10.6,11.7c-0.8,1.8-2.3,3.3-4.1,4c0.4,0.6,0.7,1.2,0.9,1.2c4.8-0.3,6.4,2.5,7.4,6.6
			c0.4,1.6,3.5,3.7,0.9,4.5c-3.4,1-4.2,8.9-9.8,4c-0.4-0.4-1.7-0.7-1.3-1.1c2.5-2.8-0.4-4.6-0.9-6.9c-0.7-3-3.5-4.6-6-3
			s-5.2,1.8-8,2C3.9,180.9,3.5,180.9,3.1,180.9z"/>
		<path class="st8" d="M59.7,140.8L59.7,140.8L59.7,140.8z"/>
		<path class="st9" d="M4.2,187.8c0.1,0.8,0.3,1.6,0.4,2.4C5,189.2,5,188.4,4.2,187.8z"/>
		<path class="st9" d="M5.2,193.1c0.2,0.8,0.3,1.5,0.5,2.3c1.5-1.6,4.1-2.2,4.8-4.9C8,190,6.6,191.5,5.2,193.1z"/>
		<path class="st5" d="M42.8,144.8c0.8-1.2,1.1-2.5,1.1-3.9c0.9-3.7-0.2-8.4,4.9-10.1c0.1-6,2.1-11.2,7-15l0.9-1.1
			c0-0.3,0-0.6,0-0.9l-4-0.1l-3,1.1c0.4,5.2-4.3,7.9-6,12.2c-1.5,4-2.8,8.1-4.7,12C38,141.4,37.6,145.4,42.8,144.8z"/>
		<path class="st2" d="M48.7,114.9h1l3-1.1c1.4-1.9,2.7-3.4,4,0.1c0,0.3,0,0.6,0,0.9l2.1-0.9c1.3-1,1.6-3.3,4-2.9
			c1.6-0.2,3.1-0.6,3.9-2.2l-0.8-1.8c-2.3-1-5.8,1.7-7.3-2.1C53,106,50.4,110,48.7,114.9z"/>
		<path class="st2" d="M40.8,151.9c7.1,1.4,8.6,0.4,12.7-9.8c-4.8,1.7-7.2,6.5-11.8,7.8C41.1,150.3,40.7,151.1,40.8,151.9z"/>
		<path class="st2" d="M35.7,157.9v7.9c4-2.2,2.7-5.3,3-7.9L35.7,157.9z"/>
		<path class="st0" d="M212.2,102.6c0.1,0.3,0.2,0.7,0.4,0.8s0.5-0.2,0.8-0.3c-0.1-0.3-0.2-0.7-0.4-0.8
			C212.7,102.2,212.5,102.5,212.2,102.6z"/>
		<path class="st0" d="M210.1,99.6c0.1,0.3,0.2,0.7,0.4,0.8c0.2,0.1,0.5-0.2,0.8-0.3c-0.1-0.3-0.2-0.7-0.4-0.8
			C210.7,99.2,210.4,99.4,210.1,99.6z"/>
		<path class="st1" d="M96.7,130.9c6,2.3,4,6.8,3,11l0,0c7.8-5.4,15.7-1.8,23.3,0.4c1.7,0.7,3.6,0.1,4.7-1.4
			c-3.2-5.5-10.1-5.7-14.3-9.8c-0.6-0.3-1.3-0.3-1.9,0.1c-6.8,4.4-4.3-1.7-4.8-4.3c-2-2.6-0.7-5.8-0.9-8.6c-0.1-2.2-0.6-3.6-3.1-3.3
			c0,2,0,4,0,6c-0.2,2.8,0.4,5.6-0.6,8.8c-3.1-1.8-3.2-6.2-6.9-7.6C94.4,125.4,97.1,127.9,96.7,130.9z"/>
		<path class="st9" d="M42.8,256.5c0.7,0.6,1.4,1.1,2.1,1.6c0.1-0.8-0.1-1.5-1-1.7C43.5,256.4,43.1,256.4,42.8,256.5z"/>
		<path class="st9" d="M51.9,267.4c3.3,1.8,6.7,3.4,10.1,4.9c0.9-0.4,1.8-0.5,2.7-0.5c0-0.3,0-0.7,0-1c-0.9-0.4-1.7-0.9-2.4-1.5
			c-2.9-1.5-5.7-3.1-8.5-4.9c-0.3,0.2-0.7,0.3-1,0.4L51.9,267.4z"/>
		<path class="st9" d="M51.7,251.8c0,0.1,0,0.2,0,0.3c0.1,1,1,1.8,2,1.7c1.5-1,2.9-2.1,4.5-3c2.8-1.7,4.8-4.3,8-5.3
			c1.1-0.3,2.3-1.4,3,0.2c0.5,1.2-0.8,1.6-1.6,2.2c-2.4,1.9-5.1,3.6-5.9,6.9c0.2,0.8,0.8,2.1,0.5,2.3c-3.1,2.1-4.9,5.8-8.4,7.4
			c2.8,1.8,5.6,3.4,8.5,4.9c-0.5-0.5-0.3-1.3,1.2-2.4c0.9-0.7,1.6-1.4,0.8-2.4c-2.8-3.7,0.9-2.9,2.4-3.7l6-7c0-2.8,1-3.8,3.6-1.9
			c2.1,1.5,2.4,3.9,3.4,5.9c2-0.1,3.1-1.4,4-3c0-1.3,0-2.7,0-4c-2.8,1.4-3.3,0.2-2.8-2.3c0.8-3.3,1.6-6.6,2.5-10.5
			c-4.9,1.9-5.4-1.3-5.7-4.3c-0.3-3.4,0-7-0.5-10.4c-0.5-3.9-2.6-5.7-6.6-3.4c1.4,3.7,1.8,7.3-1.6,10c-1.7,1.4-2.6,2.8-2.3,5
			c0.4,3.1,2.3,0.3,3.3,0.8c1.3,0.6,1.9,1.3,0.8,2.6c-2.1,2.4-3.6,1.3-5-0.8c-0.9-1.5-0.3-4.2-3-4.5c-2.1,2.8-6,4.5-5,9
			c0.6,0.4,1,1.1,0.6,1.6c-1.9,2.1-4.1,3.9-4.2,7.2C54.2,251.5,52.7,251.8,51.7,251.8z"/>
		<path class="st2" d="M107.7,247.8v1c1.3,2.9,2.8,3.1,4.3,0.1c2.3-4.5,6.6-5.2,11-6.2c5.1-1.2,10-3,15-4.6c0.1,0,0.1,0,0.2-0.1
			c1.1-0.4,1.6-1.6,1.2-2.7c-1.8-7.9-1.4-16-3.5-23.9c-1.1-4.2-2.6-8.1-5.4-11.4c-1.6-1.8-3.4-3.7,0.2-5.3c-0.8-1.5-1.2-3.2-1-4.9
			l-6-0.1c-2.2-0.5-3.4,3.6-6,1.2l-2.1,0.8c0.1,1.4-0.6,2-1.9,2.1c-3.2,0.9-2.2,3.5-1.6,5.2c1.2,3.5,3.5,6.7,4.5,10.2
			c1.2,4.3,6.6,5.1,7.2,9.6c0,0.3,0,0.7,0,1c2.2,0,6-4.8,6,2l0.1,1c5.5,0.5,6.4,2.3,5.6,11.6c-1.3-1.8-3-1.5-4.6-1.5
			c0,2.2-0.4,4-3.2,3.8l-2.7-0.1c-3.4,0.5-8.1-1-7.6,5.3c0.1,0.9-1.7,0.6-2.5,1C112.3,244.2,108.6,244,107.7,247.8z"/>
		<path class="st2" d="M66.8,260.9c-0.3,2.3,3.3,1.7,3.1,4c1.9,0,2.9-1.4,4.1-2.6c1.2-1.3,2.9-1.7,4.6-1.2c3.4,0.9,6.4,1.9,10.4,0.5
			c2.5-0.9,6.4,2.8,9.3,5.1c1.2,1,2.3,3.2,4,1.5c1.4-1.5,0.7-3.5-0.6-5c-1.1-1.2-1.9-2.9-3.3-3.7c-3.5-2-3.7-5.2-3.5-8.6
			c-0.1-0.1-0.4-0.3-0.4-0.3c0.1-0.2,0.2-0.5,0.4-0.7c0-0.7,0-1.3,0-2c-2.9-1.6-4.1-0.3-4,2.5c0.1,2.6-0.7,5.3-2.1,7.5
			c-0.6,1-1.3,2.1-2.7,1.4s-1-1.7-0.4-2.9c1.9-3.4-0.4-2.1-1.9-1.6c-0.9,1.6-2,2.9-4,3l-6.4,1.5c-1.1-1.9,4.1-4.1-0.6-5.5
			L66.8,260.9z"/>
		<path class="st5" d="M85.3,278.9c0,0.5,0,1,0,1.5c1.1,0.3,2.1,0.5,3.1,0.8c0-0.1,0-0.2,0-0.3c0.1-0.7,0.1-1.4,0.1-2.1
			c-1.1-0.2-2.1-0.5-3.2-0.7C85.3,278.3,85.3,278.6,85.3,278.9z"/>
		<path class="st5" d="M83.9,269.1c-1.9,3-1.3,5.2,1,7.5c0.4,0.4,0.5,0.9,0.4,1.5c1,0.3,2.1,0.5,3.2,0.7c0.2-3.5,0.2-6.8,2.2-9.9
			C88.5,269.4,86.3,265.4,83.9,269.1z"/>
		<path class="st2" d="M76.8,277.2l-0.5,0.6l1.1,0.4C77.2,277.8,77,277.5,76.8,277.2z"/>
		<path class="st8" d="M137.8,182.8c0.7,2,2.4,3,3.9,4.1c1.8-0.2,3.6,0.2,5.2,1.2c2.7,1.6,6,3.7,4.4,7.2c-1.1,2.3-0.6,4.3-0.7,6.4
			l1.1,1.1c3,0.9,3-4,6-3c0.4-2,1.4-3.9,1-6c-3.1-1.6-5.3-4.6-5.9-8c-0.8-1.2-1.7-3.1-3.2-2.6c-2.3,0.7-3.3-0.5-4.7-1.8
			C140.6,177.5,140,177.7,137.8,182.8z"/>
		<path class="st5" d="M120.7,175.1c0,0.9-0.2,2,1.1,2.4s1.5-1.2,2.1-1.4c2-0.6,4.3-2.4,6,0.5l4.8,1.4c0.1-1.8,1.1-2.7,2.8-3.3
			s1.5-1.8,0.3-2.9c-2.6,1.8-2.6-0.5-3-2l0,0c-3.8-2.1-7.7-4.1-11-7C120.5,166.4,121,170.8,120.7,175.1z"/>
		<path class="st8" d="M83.7,250.8c0,1.3,0,2.7,0,4c1.5-0.6,3.8-1.8,1.9,1.6c-0.6,1.2-1,2.1,0.4,2.9s2.1-0.4,2.7-1.4
			c1.4-2.2,2.2-4.8,2.1-7.5c-0.1-2.8,1.1-4.1,4-2.5h1c0.7-2.8,2.2-2.4,4-1c2.4-0.2,5.8-2.7,5.4,2.8c-0.1,0.7,0.8,0.6,2.7-0.8v-1
			c-2.4-6.6-2.4-6.6-9.6-4.6c-0.8,0.2-1.7,0.7-2.3,0.1c-2.7-2.6-4.8-0.3-7.1,0.6C88.9,247.5,86.1,249,83.7,250.8z"/>
		<path class="st5" d="M139.7,169.8c0.9,0.7,1.8,1.5,2.6,2.3c1.8,2.2,3,2.5,4.8-0.4s3.9-4.5,6.2,0.3c1.3,2.7,2.3,5.8,4.2,8.3
			c1.1-2.4,0.8-4-1-8.9c-1.2-3.1-4.1-5.2-4.8-8.6l0,0c-2.8,0.5-5.6,1.1-8-1C141.4,164,144,168.6,139.7,169.8z"/>
		<path class="st2" d="M145.8,222.2c2.2,0,5-0.6,6.4-2c2.9-2.9,6.4-5.7,4.8-11.1c-0.8-2.9,1.4-6.1,0.8-9.3c-3-1-3,3.9-6,3
			c0,1,0,1.9,0,2.9c3.6,1.7,1.4,4.9,1.8,7.4c0.1,0.7-0.6,1.6-1.1,1.2c-4.6-2.9-4.6,0.5-5.2,3.5c-0.2,1.1-1.6,0.9-2.6,0.9
			C145,220,144.2,222.2,145.8,222.2z"/>
		<path class="st8" d="M142.8,203.8c0.1,2.8,2.2,5.2,1.8,8.1l0.1,6.9c1,0,2.4,0.2,2.6-0.9c0.6-3,0.6-6.4,5.2-3.5
			c0.5,0.3,1.2-0.6,1.1-1.2c-0.5-2.5,1.8-5.7-1.8-7.4C148.9,204.9,146.3,202.1,142.8,203.8z"/>
		<path class="st8" d="M129.7,190c-0.2,1.7,0.2,3.4,1,4.9c3,2,3.3,5.9,6,8.1c2-3.3,4,0.1,6,0l-1-5.9c-1-1.4-2.7-2.2-3.1-4l-5.1-5.1
			C132.3,188.7,131.4,189.9,129.7,190z"/>
		<path class="st9" d="M123.7,188.8c0,0.3,0,0.7,0,1l6,0.1c1.6,0,2.6-1.3,3.8-2.1c1.3-3.1-2.6-2.7-3.3-4.6l4.5-3.3
			c0-0.6-0.1-1.3-0.1-1.9l-4.8-1.3c-2.1,0.8,0.1,3.7-1.5,3.9c-3.7,0.5-1.7,2.6-1.7,4.2C129.2,188.7,124.3,187.2,123.7,188.8z"/>
		<path class="st5" d="M121.8,252.8c4.4-2.3,9.5,0.5,14.1-1.9c2.4-1.2,2.4-2.3,0.9-4.1c-0.3,0.1-0.8,0.5-0.9,0.4
			c-5.2-4.3-7.8,2.8-12,2.7C122.6,249.8,121.7,251.3,121.8,252.8z"/>
		<path class="st10" d="M134.7,180l-4.5,3.3c0.6,1.9,4.6,1.5,3.3,4.6l5.1,5.1c-0.1-1.5-0.3-3.1-0.4-4.9l4.5,1.9l0.1-0.1l-1-2.9
			c-1.6-1.1-3.3-2.1-3.9-4.1C137,181.7,136.7,180,134.7,180z"/>
		<path class="st2" d="M136.7,202.9c1,4.5,2.7,8.4,8,9c0.3-2.9-1.7-5.3-1.9-8.1c0-0.3-0.1-0.7-0.1-1
			C140.7,202.9,138.7,199.5,136.7,202.9z"/>
		<path class="st8" d="M65,270.7c-0.9-0.4-1.8-0.9-2.7-1.3c0.8,0.6,1.6,1.1,2.4,1.5L65,270.7z"/>
		<path class="st8" d="M62.3,269.4c0.9,0.5,1.8,0.9,2.7,1.3c1.4-0.7,1.7-1.7,1.2-3.4c-0.4-1.4,0.6-1.5,1.6-0.5c0.1,0,0.2,0,0.3,0
			c1-0.1,1.8-1,1.7-2c0.3-2.3-3.3-1.7-3.1-4c-1.5,0.8-5.2,0-2.4,3.7c0.8,1,0.1,1.8-0.8,2.4C62,268.1,61.9,268.8,62.3,269.4z"/>
		<path class="st2" d="M152.8,185.9c0.7,3.4,2.8,6.4,5.9,8C159,189.5,158.3,185.9,152.8,185.9z"/>
		<path class="st2" d="M67.1,274.4l-2.2-0.9c0.2,1.1,0.9,1.9,1.9,2.3C66.8,275.4,67,274.9,67.1,274.4z"/>
		<path class="st2" d="M64.7,270.8c0,0.3,0,0.7,0,1c0,0.6,0,1.1,0.1,1.7l2.2,0.9c0.2-0.8,0.5-1.6,0.8-2.4c-1-0.4-1.9-0.9-2.9-1.3
			L64.7,270.8z"/>
		<path class="st2" d="M65,270.7c0.9,0.5,1.9,0.9,2.9,1.3c0.6-1.7,0.6-3.6-0.1-5.2c-1-1-2-0.9-1.6,0.5C66.6,269,66.3,270,65,270.7z"
			/>
		<path class="st5" d="M97.7,269.8c0,5,3.3,5.2,7,5C103.5,271.6,99.6,272.2,97.7,269.8z"/>
		<path class="st5" d="M167.7,205.8c2.5-0.8,5.2-1.5,3-5C167.9,201.4,167.9,203.7,167.7,205.8z"/>
		<path class="st2" d="M95.7,247.8c1.4-0.1,2.9,0.5,4-1C98,245.5,96.5,245,95.7,247.8z"/>
		<path class="st5" d="M134.8,169.8L134.8,169.8l3,1v-1.1c-0.1-0.8-0.3-1.6-1.3-1.8C135.1,167.9,134.9,168.8,134.8,169.8z"/>
		<path class="st4" d="M137.7,170.8l-3-1c0.4,1.5,0.4,3.8,3,2C137.7,171.5,137.7,171.2,137.7,170.8z"/>
		<path class="st5" d="M90.7,268.8h3C92.7,267.3,91.7,265.7,90.7,268.8z"/>
		<path class="st8" d="M94.8,249.8c-0.1,0.2-0.3,0.5-0.4,0.7c0,0,0.2,0.2,0.4,0.3C94.7,250.5,94.7,250.2,94.8,249.8z"/>
		<path class="st8" d="M118.1,151.8c3.9,5.2,2.9,14.4-2.1,19.3l-0.4,1.6c1,1.7,3.2,3.9,2.8,4.9c-2.4,5.3,2.6,5.1,4.8,7.1l3.7,0.1
			c0-1.6-2-3.7,1.7-4.2c1.6-0.2-0.6-3.2,1.5-3.9c-1.8-2.9-4-1.1-6-0.5c-0.6,0.2-0.9,1.8-2.1,1.4s-1.1-1.5-1.1-2.5
			c0.2-4.2-0.3-8.7,2.9-12.2c0-1.3,0-2.7,0-4c-2.4-1.4-2.3-3.8-2.8-6.1c0-0.6-0.1-1.3-0.1-1.9l-0.2-2c-0.3,0-0.7,0-1,0l-2.9-1.2
			l-1.6,0.6C116.1,149.4,117.1,150.5,118.1,151.8z"/>
		<path class="st3" d="M135.1,152.6c-0.5,0.9-0.2,2.1,0.6,2.6c2.7,2.2,5.3,4.4,8,6.5c2.4,2.1,5.2,1.5,8,1
			c-1.9-5.6-8.6-10.7-14.4-10.9C136.5,151.9,135.6,151.8,135.1,152.6z"/>
		<path class="st2" d="M101.7,144.9c0,0.9,0,1.9,0,2.8c4.5-1.1,9-0.5,13.4,0.6l1.6-0.6l-1.1-1.8
			C111.2,143.5,106.5,143.6,101.7,144.9z"/>
		<path class="st5" d="M121,152.8c0.5,2.2,0.4,4.7,2.8,6.1C123.5,156.5,124.7,153.5,121,152.8z"/>
		<path class="st1" d="M94.7,143.8l1.1,1.1l2.9,0.1v-0.2l1-3l0,0C97.9,141.6,96,142.4,94.7,143.8z"/>
		<path class="st3" d="M115.8,145.9l1.1,1.8l2.9,1.2C121.1,144.3,118.6,144.9,115.8,145.9z"/>
		<path class="st3" d="M101.7,144.8h-3v0.2l1,2.9l2-0.2C101.7,146.8,101.7,145.8,101.7,144.8z"/>
		<path class="st5" d="M120.6,148.9l0.2,2c0.5-0.3,1.4-0.6,1.4-0.9C122.4,148.9,121.4,149,120.6,148.9z"/>
		<path class="st11" d="M137.6,103.8c-0.3,2-3.7,4.5-0.4,5.8c2.9,1.1,5.1-1.5,6-4.5c0.2-1,0.3-1.9,0.4-2.9c-2.1-0.8-3.9,0.3-5.9,0.7
			C137.7,103.1,137.7,103.5,137.6,103.8z"/>
		<path class="st12" d="M142.7,111C142.7,111,142.7,111,142.7,111c0,1.4,1.1,2.5,2.4,2.5c0.2,0,0.4,0,0.6,0c0.6-0.2,1-0.8,0.8-1.5
			c-0.2-1.3-0.6-2.6-2.1-2.9C143.1,108.9,142.8,109.9,142.7,111z"/>
		<path class="st8" d="M139.6,116.2c0.3,1.8,1.6,1.9,3.1,1.7C142.5,115.8,141.2,115.8,139.6,116.2z"/>
		<path class="st4" d="M161.5,39.5c1.9,1.6,3.9,2.6,5.3-0.6c-2.6-0.1-3.1-2.3-4-4C161.1,36.1,158.6,37,161.5,39.5z"/>
		<path class="st12" d="M65.9,106.9l0.8,1.8l2.1,0.1l0,0c0.1-1.4,0.8-2,2.2-1.8l0.9-0.7l-1.2-0.8C69.1,106.1,67.1,105.3,65.9,106.9z
			"/>
		<path class="st2" d="M95.5,107.9c0.5,1.2,2.3,2.2,7.1,3.8l-0.7-4.9c-0.7-2.8,0.8-5.3,0.9-8c0.2-3.7-4.8-3.9-4.4-7.8
			C94,95.1,92.9,102.2,95.5,107.9z"/>
		<path class="st5" d="M102.8,98.9c-0.1,2.7-1.6,5.2-0.9,8c2.9-0.8,2.4,2.4,3.9,3.7c1.2-1.5,1-4.4,3.9-3.7
			C107.6,104,108.4,98.7,102.8,98.9z"/>
		<path class="st0" d="M78.1,143.1c6-2.7,11.4-1.6,16.7,0.8c1.2-1.4,3.1-2.2,5-2c1-4.2,3-8.7-3-11c-0.8,0.1-1.6-0.2-2-0.9l-3-0.2
			c-0.7,1.2-1.9,1-3,1.1c0,0.1,0,0.3,0,0.4c-0.1,1-1,1.7-2,1.5h-1c0,0.1,0,0.3,0,0.4c-0.1,1-1,1.7-2,1.6
			C82.7,137.8,78.2,138.4,78.1,143.1z"/>
		<path class="st2" d="M74.7,128.9l-1.4,1.9c1.4,0.3,2.4,1.6,2.3,3c3.1,0.1,5.5-1.8,8.1-2.9s5-3.1,8-1l3,0.2
			c-3.2-3.1-3.7-8.5-8.5-10.2c-3.6-0.1-6.8,0.1-4.3,5.1c0.7,1.3-0.2,1.7-1.1,2.2C79,128.2,76.9,128.8,74.7,128.9z"/>
		<path class="st10" d="M73.3,125.1c1,1,2.6-1,3.1,0.4s-1.6,1.9-1.7,3.3c2.2,0,4.3-0.6,6.1-1.8c0.9-0.5,1.8-0.9,1.1-2.2
			c-2.5-5,0.7-5.2,4.3-5.1c0.2-2.8-1.3-4.5-3.6-5.7c0.1,1.4,0.2,2.9-1.9,2.8c-0.7,0.2-2.2,0-1.8,0.8c2,3.2-0.6,3.8-2.3,5.2
			C75.6,123.7,73.7,123.4,73.3,125.1z"/>
		<path class="st7" d="M68.7,108.9l-0.9,4.1c6.9-3.7,10.8-2.5,12.9,3.9c2.1,0.1,2-1.4,1.9-2.8c-2.7-3.9-5.6-7.4-10.8-7.7l-0.9,0.7
			C70.8,108.1,69.8,108.9,68.7,108.9L68.7,108.9z"/>
		<path class="st2" d="M7.5,208.3c-0.4,1.4-0.6,2.8-0.8,4.3c1.5,2.7,3.1,5.4,4.7,8c0.1-0.4,0.1-0.9,0.2-1.3
			C10.2,215.7,8.8,212,7.5,208.3z"/>
		<path class="st2" d="M8.2,205.8c-0.3,0.8-0.5,1.6-0.7,2.5c1.3,3.7,2.7,7.4,4.1,11c0.1-0.4,0.2-0.9,0.2-1.4
			c-1.6-2.1-2.3-4.8-2.2-7.4C9.1,208.9,8.6,207.4,8.2,205.8z"/>
		<path class="st2" d="M8.2,205.8c0.4,1.6,0.9,3.1,1.3,4.6c0.1-2,0.7-3.9,1.6-5.6c0.5-1,0.8-2.1,1.2-3.2c0.3-0.8,0.5-1.9-0.3-2.2
			c-1.1-0.5-1.8,0.5-2.1,1.5C9.3,202.5,8.7,204.2,8.2,205.8z"/>
		<path class="st2" d="M24,216.7c-0.7,2.4-0.4,5,0.8,7.3c4-0.8,3.9-4.3,3.8-7c-0.1-2.3,0-4.5,0.2-6.8c0.1-1.7-0.1-3.7,2.1-4
			c2-0.3,3.6,0.4,4,2.7c1.5,4.4,4.3,8.2,8,11c3.8,1.6,3.1,0.1,2-2.6c-2.6-6.6-1.5-8.4,5-8.5c0.4-5.2-0.4-10.3-1.1-15.4
			c-0.1-0.9,0.1-2.5-1.4-1.9c-3.8,1.4-2.2-0.8-1.8-2.4c0.3-1.3,0.8-3.1-0.4-3.7c-1.7-0.8-2.5,1.1-3.3,2.3c-2.2,3.2-2.2,7.1-3.8,10.9
			c-1.5-1.3-1.1-2.7-1.2-3.9c-5.5-4.1-7.3,0.9-10.8,3.5c-3.3,2.4-6.7,4-7.2,8.4C25.5,209.7,25.5,209.7,24,216.7z"/>
		<path class="st5" d="M46.8,178.4c-0.7,2.1,0.4,4.4,2.5,5.1c2.6,1,2.4-1.6,3-2.9c0.8-1.8,1-3.8,1.9-5.6s1-5.2,3.6-4.4
			c2,0.6-0.5,3.2-0.2,4.9s-1.2,2.6-1.8,3.9c-1.3,3.2-3,6.7,0.8,9.5c1.6-3.9,1.1-8.5,4-12c0.4-1.8-1.1-4.3,2-5c0-0.3,0.1-0.7,0.1-1
			c0.5-3.8,1.4-7.3,5.9-8.1l2-3l0.1-3.9c-2.6-0.4-1.6-1.6-0.8-3c2-3,2.9-6.6,2.6-10.1c-0.8,0.1-1.6-0.2-2-0.9h-2.1
			c0.1,4.5-3.5,6.5-6.3,8.8c-5.2,4.1-9.7,8.9-13.5,14.3c0,0.6,0,1.3,0,1.9c2.1,0,3.4,0.2,2.1,2.8s-2.4,5.4-3.8,8
			C47,177.9,46.9,178.2,46.8,178.4z"/>
		<path class="st3" d="M38,198.7c1.6-3.8,1.6-7.8,3.8-10.9c0.8-1.2,1.5-3.1,3.3-2.3c1.3,0.6,0.7,2.4,0.4,3.7
			c-0.4,1.6-1.9,3.8,1.8,2.4c1.5-0.6,1.3,1,1.4,1.9c0.6,5.1,1.4,10.2,1,15.4c2.2,2.2,3.8,1.9,4.9-1.1c0.6-3.3-1-6.8,1.1-9.9
			c0.2-3,1.5-5.9,1-9c-3.8-2.8-2.2-6.3-0.8-9.5c0.5-1.3,2.1-2.1,1.8-3.9s2.2-4.3,0.2-4.9c-2.6-0.8-2.7,2.7-3.6,4.4s-1.1,3.8-1.9,5.6
			c-0.6,1.3-0.4,3.9-3,2.9c-0.3-0.1-0.5-0.2-0.7-0.3c-1.9-1.1-2.6-3.5-1.5-5.4c1.4-2.6,2.5-5.5,3.8-8s-0.1-2.8-2.1-2.8
			c-3.8,3.5-3.8,9.1-7,13c-0.9,5.2-4.3,9.7-5,15C36.9,196.1,36.5,197.4,38,198.7z"/>
		<path class="st3" d="M15.7,228.7c0.3,0.7,0.6,1.3,0.9,2c-0.3-0.7-0.6-1.5-0.9-2.2L15.7,228.7z"/>
		<path class="st3" d="M16,227.6c1.6,2.3,3.3,4.5,5,6.7c0.5-2.5,1.8-4.8,3.7-6.5v-4c-1.2-2.2-1.4-4.8-0.8-7.3
			c1.5-6.9,1.5-6.9-5.2-9.7c0,1,0,2,0,3c1.3,4.6,2.7,9.2-1.9,13C16.9,224.5,16.6,226.1,16,227.6z"/>
		<path class="st3" d="M23.2,237l0.9,1c0.1-0.7,0.1-1.5,0.1-2.2C23.7,236.2,23.4,236.6,23.2,237z"/>
		<path class="st4" d="M72.7,140.9L72.7,140.9L72.7,140.9l0.9-1c0.5-0.9,0.9-1.8,2.2-1.5c0.3,0.2,0.4,0.5,0.4,0.8
			c-0.2,1.4-1.4,1.7-2.6,1.8L72.7,140.9L72.7,140.9L72.7,140.9l-0.1,1.9c0.3,3.6-0.6,7.2-2.6,10.1c-0.9,1.4-1.9,2.6,0.8,3
			c3.7-3.5,7.2-6.8,12.8-7.3c3-0.2,6.2,0.5,9.1-0.8c0.2-2,1.6-2,3.1-1.9c0-0.3,0.1-0.7,0.1-1l-1.2-1.2c-5.2-2.4-10.7-3.6-16.7-0.8
			c0.1-4.6,4.6-5.1,5.7-8.1c0-0.1,0-0.3,0-0.4c0.1-1,1-1.7,2-1.6h1c0-0.1,0-0.3,0-0.4c0.1-1,1.1-1.7,2-1.5c1.1-0.1,2.3,0.1,3-1.1
			c-3-2.2-5.4-0.2-8,1s-5,3-8.1,2.9c-1.9,1.2-3.5,2.9-6,3l0.1,0.1c0.3,1.7-0.1,3.5-1.1,5h2.1C71.2,141.2,72,140.8,72.7,140.9z"/>
		<path class="st4" d="M72.8,140.8L72.8,140.8L72.8,140.8L72.8,140.8z"/>
		<path class="st12" d="M55.7,122.9c1.8,1.7,0.8,4,1,6c0.2,1.4-1.8,3.4-0.5,4.1c3.9,1.9,0.4,3.9,0.5,5.9c1.5,0,2.9,0,3,2
			c2.4-1.9,7.1,0.9,8-4c-0.2-2.5-2.6-2.1-4.1-2.9c-2.6-1.1-4.1-3.8-3.7-6.6c0.3-5.6,0.8-11.1,2.8-16.3c-2.4-0.4-2.7,1.9-4,2.9
			c-0.3,2.3,0.9,5.4-3,6L55.7,122.9z"/>
		<polygon class="st12" points="59.8,140.8 59.8,140.8 59.8,140.8 		"/>
		<path class="st10" d="M60,127.3c-0.4,2.8,1.1,5.5,3.7,6.7c1.5,0.8,3.8,0.3,4.1,2.9h2l-0.1-0.1l0.2-3.6c-3.6-2.9-8.5-5.3-5.3-11.5
			c0.5-1.2,0.5-2.6-0.1-3.8c-2.2-4.1-0.1-4.8,3.4-4.8l0,0l0.9-4.1l-2.1-0.1c-0.8,1.6-2.2,2-3.9,2.2C60.7,116.2,60.3,121.7,60,127.3z
			"/>
		<path class="st9" d="M52,137c0,2.7,2.5,3,4.8,1.8c-0.1-1.9,3.4-4-0.5-5.9c-1.3-0.6,0.6-2.6,0.5-4.1c-0.3-2,0.8-4.2-1-6
			C52.5,127,52,132.1,52,137z"/>
		<path class="st2" d="M16.8,222.9c4.6-3.7,3.2-8.4,1.9-13c-5.3,1.6-3.2,5.6-3,9C15.9,220.2,15.2,221.8,16.8,222.9z"/>
		<path class="st2" d="M41.8,179.8c3.2-3.9,3.2-9.4,7-13c0-0.6,0-1.3,0-1.9C43.7,166.3,39.8,174.7,41.8,179.8z"/>
		<path class="st3" d="M43.8,140.9c4.3-2.1,3.7-6.5,4.9-10.1C43.7,132.5,44.8,137.3,43.8,140.9z"/>
		<path class="st9" d="M56.7,114.8l-0.9,1.1v4c3.9-0.6,2.7-3.7,3-6L56.7,114.8z"/>
		<path class="st12" d="M59.8,140.9l-0.8,1l0.4,0.2L59.8,140.9z"/>
		<path class="st12" d="M59.7,140.8L59.7,140.8L59.7,140.8z"/>
		<path class="st3" d="M52.7,113.8l4,0.1C55.4,110.4,54.1,111.9,52.7,113.8z"/>
		<path class="st13" d="M45.2,263.6c0.4,2.2,1.6,4.3,3.2,5.8c2.6,2.5,3.3,1.2,3.4-1.6c-0.9-0.2-1.7-0.8-2.1-1.7
			C48.1,265.3,46.6,264.5,45.2,263.6z"/>
		<path class="st13" d="M47.7,237.8L47.7,237.8z"/>
		<path class="st13" d="M44.7,259.4c0,1.4,0.2,2.8,0.4,4.1c1.5,0.9,3,1.8,4.5,2.6c-0.3-1.1-0.4-2.2-0.5-3.3c-0.1-0.5-0.1-1,0-1.5
			c-1.5-1-2.9-2.1-4.4-3.2C44.7,258.6,44.7,259.1,44.7,259.4z"/>
		<path class="st13" d="M30.6,245.4c3.8,4,7.8,7.7,12.1,11.1c0.3-0.1,0.7-0.2,1.1-0.1c0.9,0.2,1,0.9,1,1.7c1.4,1.1,2.9,2.2,4.4,3.2
			c0.5-3.1,3.6-4.8,4.6-7.5c-0.1,0-0.2,0-0.3,0c-1-0.1-1.8-1-1.7-2h-0.1c-2.1,0.4-5.9,8.1-5.8-1.3c0-0.2-1.4-0.3-1.6-0.8
			c-1.7-2.8-6.7-4.2-3.4-9.1c1.9-2.7,4.2-2.8,6.9-2.7c1.7-2.9,4.1-3.5,7.1-2c3.8-3.5,3.8-3.8-1-6.1c-1.7,1.7-2.8,5.9-6.2,1.9
			c-2.5-2.9,2.2-3,2.1-5c0-1.3-0.8-1.9-2-1.9c-0.1,1.2-0.5,2.7-1.8,2.7c-7.2,0.2-7.9,5.1-7.6,10.5c0.1,2.1-1,2.6-2.6,2.8
			c-0.4,0.7-1.2,1-2,1c0,0.1,0,0.1,0,0.2c-0.1,1.6-1.4,2.9-3,2.8L30.6,245.4z"/>
		<path class="st8" d="M39.2,223.1c0.8,2.3,3.2,1.8,5.1,1.3c1.2-0.3,2.4-1.1,3.5,0.3c1.2,0,1.9,0.6,2,1.9c1.9,0.3,3,1.6,4,3.1
			c4.8,2.3,4.8,2.6,1,6.1c0,0.8-0.3,1.6-1,2c2.5,0.2-2.7,8.1,4,4c-1-4.5,2.9-6.3,5-9c-4.2-2.9-7.1-9.6-6-14c0.4-1.8,0.6-3.6,2-5
			l-4.1-6c-1.1,2.9-2.7,3.3-4.9,1.1c-6.5,0.1-7.7,1.9-5,8.5c1.1,2.7,1.8,4.2-2,2.6C41.6,221.1,38.1,220.2,39.2,223.1z"/>
		<path class="st2" d="M54.6,207.9l4.1,6c2.1,1.7,3.8,3.7,4,6.5c0.1,1.2,0,2.6-1.3,2.9c-1.9,0.6-1.5-1.2-1.8-2.2
			c-0.3-1.3-1.5-2.3-2.9-2.3c-1,4.3,1.8,11,6,14c2.7,0.3,2,3,3,4.5c1.4,2.1,2.9,3.2,5,0.8c1.1-1.3,0.6-2-0.8-2.6
			c-1-0.5-2.8,2.4-3.3-0.8c-0.3-2.2,0.6-3.6,2.3-5c3.4-2.7,3-6.4,1.6-10l-2-3h-1c-7.2-2.7-7.9-9.7-9.9-15.7
			c-0.5-1.3,0.1-3.1-2.1-3.3C53.7,201,55.3,204.5,54.6,207.9z"/>
		<path class="st13" d="M68.8,215.9l-0.1,1l2,3c4-2.3,6.1-0.5,6.6,3.4c0.5,3.4,0.2,7,0.5,10.4c0.3,3.1,0.8,6.2,5.7,4.3
			c-0.9,3.9-1.8,7.2-2.5,10.5c-0.6,2.5,0,3.7,2.8,2.3c2.4-1.8,5.1-3.4,5-7l-1-3.9c-2-2.9-0.6-6.1-1-9.1c-0.1-2.1-0.1-4.3,3-4
			c-0.1-1.1-0.7-2.2-1.8-1.8c-3.2,1.3-5.1-0.7-5.9-2.9C79.6,215.4,75.3,213.6,68.8,215.9z"/>
		<path class="st12" d="M49.7,266.2c0.4,0.9,1.1,1.5,2.1,1.7l0.2-0.5L49.7,266.2z"/>
		<path class="st12" d="M49.2,262.9c0,1.1,0.2,2.2,0.5,3.3l2.2,1.2l0.9-2.5c0.1-0.3,0.1-0.6,0.2-0.9c-1.3-0.8-2.5-1.7-3.8-2.6
			C49.1,261.9,49.1,262.4,49.2,262.9z"/>
		<path class="st12" d="M49.2,261.4c1.3,0.9,2.5,1.7,3.8,2.6c1.3-4.5,4.9-6.9,8.7-9.1c0.8-3.3,3.6-4.9,5.9-6.9
			c0.7-0.6,2.1-1,1.6-2.2c-0.7-1.5-2-0.5-3-0.2c-3.2,1-5.2,3.7-8,5.3c-1.5,0.9-3,2-4.5,3C52.7,256.6,49.7,258.3,49.2,261.4z"/>
		<path class="st13" d="M51.7,251.9L51.7,251.9c1.1-0.1,2.5-0.4,2.5-1.3c0.1-3.3,2.3-5.1,4.2-7.2c0.4-0.5,0-1.2-0.6-1.6
			c-6.8,4-1.5-3.8-4-4c-1.4,0.5-1.6,1.8-2.1,3C50.1,244.6,52.4,248.2,51.7,251.9z"/>
		<path class="st8" d="M73.4,259.3l6.4-1.5c-1-2-1.4-4.4-3.4-5.9c-2.6-1.9-3.6-0.9-3.6,1.9C77.4,255.2,72.3,257.4,73.4,259.3z"/>
		<path class="st13" d="M52.8,264.9c0.3-0.1,0.7-0.2,1-0.4L53,264C52.9,264.3,52.9,264.6,52.8,264.9z"/>
		<path class="st13" d="M53,264l0.8,0.5c3.5-1.6,5.3-5.3,8.4-7.4c0.2-0.2-0.3-1.5-0.5-2.3C57.9,257,54.3,259.5,53,264z"/>
		<path class="st9" d="M86.7,230.8c3.7,0.5,6,1.6,5.3,6.3c-0.5,3.5-1.8,3.6-4.3,2.8l1,3.9c2.3-0.9,4.4-3.2,7.1-0.6
			c0.6,0.6,1.5,0.2,2.3-0.1c7.2-2,7.2-2,9.6,4.6c0.9-3.8,4.6-3.6,7.2-4.9c0.8-0.4,2.6-0.1,2.5-1c-0.5-6.3,4.2-4.8,7.6-5.3
			c-0.7-1.9-3.2-3.2-1.9-5.7c0-0.1,0.1-0.2,0.1-0.2c0.4-0.7,1.3-0.9,2-0.5c2.2,1.4,2.8,3.5,2.6,6l-0.1,0.5c2.8,0.2,3.2-1.7,3.2-3.8
			l-1-10l-0.1-1c-3.1,2.6-5.2,2.4-6-2c0-0.3,0-0.7,0-1c-1.6-0.1-3.3-0.1-4.9-0.2c-0.9-0.1-1.9-1.1-2.7,0.1c-0.6,0.9-0.1,2,0.5,2.8
			c1.4,2,2.3,4.4,2.5,6.8c0.2,1.5,1.1,3.1-0.6,3.9c-2.1,1-2.7-1.2-3.8-2.3c-2-2-2.6-5.5-6-6.1c-0.2,2.3,5.5,6.4-2,6.7
			c-0.3,0-0.8,0.7-0.8,1.1c-1.2,5.7-2.8,1.9-4.2,0.2c-1.2-1-1.9-2.5-1.9-4l-1-1.1c-2.4,1,2.1,4.7-2,5c-1.6-0.1-3.6,0.8-4-1.9
			c-0.1,0-0.1,0-0.2,0c-1.6-0.1-2.9-1.4-2.8-3C86.6,226.5,86.6,228.7,86.7,230.8z"/>
		<path class="st8" d="M102.8,205.8c1.9,2.1-0.8,4.8,0.9,6.9l0.1,0.1c1.4,0.1,2,0.8,1.8,2.2l0.2,3.8c2.8,0.6,2.8,2.9,3,5
			c3.4,0.6,4,4.1,6,6.1c1.1,1.1,1.7,3.3,3.8,2.3c1.7-0.8,0.8-2.4,0.6-3.9c-0.3-2.4-1.1-4.8-2.5-6.8c-0.6-0.8-1.1-1.8-0.5-2.8
			c0.7-1.1,1.8-0.1,2.7-0.1c1.6,0.1,3.3,0.1,4.9,0.2c-0.6-4.5-6-5.2-7.2-9.6c-0.9-3.6-3.2-6.7-4.5-10.2c-0.6-1.7-1.6-4.3,1.6-5.2
			v-1.4l-3.9,0.2c-0.1,1.1-0.1,2.3-0.1,3.4c0.5,3.9,2.8,9.1-5.1,6.4c-0.5-0.2-1.2,0.3-1.9,0.4L102.8,205.8z"/>
		<path class="st8" d="M129.8,222.9l1,10c1.6,0,3.3-0.2,4.6,1.5C136.2,225.1,135.3,223.4,129.8,222.9z"/>
		<path class="st7" d="M110.4,191.4l-0.5,1.2l3.9-0.2l1.9-0.7l2.1-0.8c1-1.7,0.3-3-0.9-4.3c-2.6,0.9-3.8-2.6-6.3-2l-0.9,1.2
			C108.9,187.8,113.6,189.1,110.4,191.4z"/>
		<path class="st10" d="M124.8,230.1c-0.7-0.3-1.6,0.1-1.8,0.8c-1.3,2.5,1.2,3.8,1.9,5.7l2.7,0.1l0.1-0.5c0.2-2.5-0.4-4.6-2.6-6
			C125,230.1,124.9,230.1,124.8,230.1z"/>
		<path class="st8" d="M123.7,219.8c0.8,4.4,2.9,4.6,6,2C129.7,215.1,126,219.8,123.7,219.8z"/>
		<path class="st13" d="M116.8,186.7c1.2,1.3,1.9,2.6,0.9,4.3c2.6,2.5,3.8-1.6,6-1.2c0-0.3,0-0.7,0-1h-2c-1.8,0.1-1.7-1.4-2.3-2.4
			C118.6,185.2,117.3,183.6,116.8,186.7z"/>
		<path class="st13" d="M113.8,192.4c0,0.5,0,0.9,0,1.4c1.3-0.1,2.1-0.7,1.9-2.1L113.8,192.4z"/>
		<path class="st12" d="M142.8,189.9l-4.5-1.9c0.2,1.9,0.3,3.4,0.4,4.9c0.4,1.9,2.1,2.6,3.1,4c2.3-0.3,4.2,0,5.4,2.4
			c0.6,1.4,2,2.4,3.5,2.4c0.2-2.1-0.4-4.1,0.7-6.4c1.6-3.5-1.7-5.7-4.4-7.2c-1.5-1-3.4-1.5-5.2-1.2l1,2.9c0.6,0.1,1.4,0.2,1.4,1
			c0,0.2-0.4,0.6-0.6,0.6C142.9,191.3,142.8,190.5,142.8,189.9z"/>
		<path class="st9" d="M141.6,196.9l1,5.9c0,0.3,0.1,0.7,0.1,1c3.5-1.6,6.1,1.1,9,2c0-1,0-1.9,0-2.9l-1.1-1.1c-1.6,0-2.9-1-3.5-2.4
			C146,197,144.1,196.6,141.6,196.9z"/>
		<path class="st12" d="M123,184.7l-1.3,4.1h2c0.6-1.6,5.5-0.1,3-4L123,184.7z"/>
		<path class="st11" d="M87.8,158.1c-4.8,4.3-0.5,7.9,1.1,11.6c0.1,0,0.2,0,0.3,0c1,0.2,1.7,1.1,1.5,2.2l2.2,2.9
			c1.5,0.3,3.5-0.4,4.1,1.9l1.9,0.1c2.9-0.3,5,3,8.1,2c2.1-3.3,5.9-4,8.7-6.3l0.4-1.6c-0.4-1.2-0.1-2.6-1.8-3.2
			c-2.1-0.9-1.4-2.2-0.1-3.4c3.3-3.4,3-4.7-1.3-6.8c-2.2-1.1-4.6-0.6-6.9-0.7c-0.2,0.9-0.6,1.8-1.6,1.3c-1.5-0.5-2.4-2-2.3-3.5
			c0.2-1.6,0.5-3.2,0.8-4.9l-2.9,0.1c-1.4,3.9-5,6.6-9.1,6.9L87.8,158.1z"/>
		<path class="st7" d="M99.7,147.9l-1.2,1.7l1.3,0.3l2.9-0.1c1.9-1.3,4.1-1,6.2-1c1.7,0,3.6,0.1,3.6,2.4s-2.1,1.5-3.4,1.7
			c-2.5,0.3-5.6,0-3.2,4.1c2.3,0.1,4.6-0.4,6.9,0.7c4.3,2.1,4.6,3.3,1.3,6.8c-1.2,1.2-2,2.6,0.1,3.4c1.7,0.7,1.4,2,1.8,3.2
			c5-4.9,6-14.1,2.1-19.3c-0.8-1.2-1.8-2.3-2.8-3.4c-4.4-1.1-8.9-1.7-13.4-0.6L99.7,147.9z"/>
		<path class="st14" d="M106.8,178.9l-0.1,2.9c0.3,0,0.7,0,1,0c1.8-0.9,1.9-3.9,4.9-3.6l-1.9,6.4c2.5-0.6,3.7,2.9,6.3,2
			c0.4-3.1,1.7-1.6,2.5-0.3c0.7,1,0.6,2.6,2.3,2.4l1.3-4.1c-2.1-2-7.1-1.8-4.8-7.1c0.5-1-1.8-3.2-2.8-4.9
			C112.7,174.9,108.9,175.7,106.8,178.9z M115.6,183c-0.8-0.2-1.5-0.4-1.4-1.4c0-0.2,0.2-0.3,0.3-0.3c1-0.1,1.2,0.7,1.4,1.4l0.3,0.7
			L115.6,183L115.6,183z"/>
		<path class="st2" d="M71.4,163.3c-1,2.4,0.6,2.4,2.2,2.4c0.3-1.3-0.4-2.9,1-4l0.2-3.9c0.8-4.5,7.5-8.4,11.4-6.5
			c0.3,0.1,0.3,0.9,0.5,1.4l2,0.1c2.6-3.1,6.2-2.9,9.7-3.2l1.3-1.8l-1-2.9l-2.8-0.1c-0.1,0.3-0.1,0.7-0.1,1c-0.2,2-1.6,1.9-3.1,1.9
			c-2.9,1.3-6.1,0.5-9.1,0.8c-5.7,0.5-9.1,3.8-12.8,7.3l-0.1,3.9C72,160.8,71.9,162.1,71.4,163.3z"/>
		<path class="st10" d="M68.8,108.8c1.1,0.1,2.1-0.7,2.2-1.8C69.5,106.8,68.8,107.4,68.8,108.8z"/>
		<path class="st1" d="M88.3,130.9c-1,0.1-1.7,1-1.6,1.9c0.1,0,0.3,0,0.4,0c1-0.1,1.7-0.9,1.7-1.9C88.6,130.9,88.5,130.9,88.3,130.9
			z"/>
		<path class="st1" d="M85.4,132.8c-1,0.1-1.7,1-1.6,2c0.1,0,0.3,0,0.4,0c1-0.1,1.7-1,1.6-2C85.6,132.8,85.5,132.8,85.4,132.8z"/>
		<path class="st11" d="M67.9,113c-0.5,6.5-1,12.9,2.9,18.7l2.6-1l1.4-1.9c0.1-1.4,2.3-1.9,1.7-3.3s-2.1,0.6-3.1-0.4
			c0.4-1.8,2.3-1.4,3.3-2.3c1.7-1.4,4.3-2.1,2.3-5.2c-0.4-0.8,1.1-0.6,1.8-0.8C78.7,110.4,74.8,109.3,67.9,113L67.9,113z"/>
		<path class="st9" d="M69.9,133l-0.2,3.6c2.5-0.1,4.1-1.8,6-3c0-1.4-0.9-2.7-2.3-3l-2.6,1L69.9,133z"/>
		<path class="st9" d="M35.8,240.9c1.6-0.2,2.7-0.7,2.6-2.8c-0.3-5.5,0.4-10.3,7.6-10.5c1.3,0,1.7-1.4,1.8-2.7
			c-1.1-1.4-2.2-0.7-3.5-0.3c-1.9,0.5-4.3,1-5.1-1.3c-1.1-3.1,2.4-2.2,3.6-3.4c-3.7-2.8-6.5-6.6-8-11c-4.1,1.6-5.3,9.4-2.9,14.9
			c1.5,3.5,3.6,6.9,3.8,10.9c0.1,1.2-0.2,2.4-1.6,2.8c-1.2,0.3-1.2-0.7-1.4-1.5h-3C29,240.9,34,238.9,35.8,240.9z"/>
		<path class="st8" d="M24.8,227.8c1.3,2.8,2.7,5.5,6.4,5.8c1.1,0.1,1.5,1.1,1.6,2.2c0.2,0.8,0.2,1.8,1.4,1.5
			c1.3-0.4,1.6-1.6,1.6-2.8c-0.2-4-2.3-7.4-3.8-10.9c-2.4-5.5-1.3-13.3,2.9-14.9c-0.4-2.3-2.1-3-4-2.7c-2.1,0.4-1.9,2.3-2.1,4
			c-0.2,2.3-0.3,4.5-0.2,6.8c0.1,2.7,0.2,6.2-3.8,7C24.7,225.2,24.7,226.5,24.8,227.8z"/>
		<path class="st8" d="M55.8,197.8c2.2,0.2,1.6,2,2.1,3.3c2,6,2.6,12.9,9.9,15.7c0.2-2.9-1.7-4.8-3-7.1c-4-7.1-4.1-17,0.2-21.5
			c1.7-1.8,3.8-3,5.8-4.5c-0.4-1.6-0.7-3.1-0.9-4.8c-0.1-1.6-0.8-3.8,1.9-4.2c-0.1-0.8,0.3-1.6,1-2c-0.4-2.4,0.6-4.7,0.9-7
			c-1.6,0-3.2,0-2.2-2.4c0.5-1.3,0.6-2.6-0.7-3.6l-2,3c-0.8,4.1-1.5,8.3-0.4,12.6c-3.6,0.2-1.6-5.7-5.6-4.5c0,0.3-0.1,0.7-0.1,1
			c1.1,2.4,3.5,5.3-2,5c-2.9,3.4-2.5,8-4,12C57.3,191.9,56,194.8,55.8,197.8z"/>
		<path class="st2" d="M62.8,170.9c4-1.1,2,4.7,5.6,4.5c-1.2-4.3-0.4-8.4,0.4-12.6C64.1,163.6,63.3,167.1,62.8,170.9z"/>
		<path class="st2" d="M60.7,176.8c5.5,0.3,3-2.6,2-5C59.6,172.5,61.1,175,60.7,176.8z"/>
		<path class="st8" d="M72.7,140.9L72.7,140.9L72.7,140.9z"/>
		<path class="st8" d="M70.7,141.8c0.4,0.7,1.2,1,2,0.9v-1.9C72,140.8,71.2,141.2,70.7,141.8z"/>
		<path class="st2" d="M26.7,244.8c0.7-0.4,1.1-1.2,1.1-2c0-0.2,0-0.3,0-0.5c-1.3-1.4-2.5-2.8-3.8-4.3
			C23.7,240.9,23.1,243.6,26.7,244.8z"/>
		<path class="st2" d="M21.9,238.2c0.3,0.1,0.8-0.5,1.3-1.3c-0.7-0.9-1.4-1.7-2.1-2.6c-0.1,0.4-0.2,0.8-0.2,1.1
			C20.6,236.4,20.2,238,21.9,238.2z"/>
		<path class="st2" d="M24,235.8c0,0.7,0,1.5-0.1,2.2c1.2,1.5,2.5,2.9,3.8,4.3c0-0.9,0-1.9,1-2.5c-0.3-0.6-0.4-1.3-0.9-1.7
			c-0.9-0.6-2.6-0.8-1.8-2.3c0.9-1.7,2.4-1.3,3.6,0h3c-0.1-1.1-0.5-2.1-1.6-2.2c-3.7-0.3-5.1-2.9-6.4-5.8c-1.9,1.7-3.2,4-3.7,6.5
			c0.7,0.9,1.4,1.8,2.1,2.6C23.4,236.6,23.7,236.2,24,235.8z"/>
		<path class="st8" d="M25.1,249.3l0.4,0.3l-0.3-0.6C25.1,249.1,25.1,249.2,25.1,249.3z"/>
		<path class="st8" d="M29,243.6c0.5,0.6,1.1,1.2,1.6,1.8l0.1-0.5L29,243.6z"/>
		<path class="st5" d="M73.8,139.9v1c1.2-0.1,2.3-0.4,2.6-1.8c0-0.3-0.2-0.6-0.4-0.8C74.7,138,74.2,139,73.8,139.9z"/>
		<path class="st3" d="M92.7,147.8c1.4,0,2.9,0.1,3.1-1.9C94.3,145.8,92.9,145.8,92.7,147.8z"/>
		<path class="st8" d="M73.7,139.9l-0.9,1h1L73.7,139.9z"/>
		<path class="st8" d="M72.8,140.9L72.8,140.9L72.8,140.9L72.8,140.9z"/>
		<path class="st7" d="M64.6,121.6c-3.1,6.2,1.7,8.5,5.3,11.5l0.9-1.4c-3.9-5.7-3.4-12.3-2.9-18.7c-3.4,0-5.6,0.8-3.4,4.8
			C65,119,65.1,120.4,64.6,121.6z"/>
		<path class="st10" d="M47.7,237.8l0.2,0.4L47.7,237.8L47.7,237.8L47.7,237.8z"/>
		<path class="st10" d="M44.3,249.7c0.3,0.4,1.6,0.5,1.6,0.8c-0.1,9.4,3.7,1.7,5.8,1.3c0.8-3.7-1.5-7.3,0-11c0.5-1.2,0.7-2.5,2.1-3
			c0.7-0.4,1-1.2,1-2c-2.9-1.4-5.3-0.9-7.1,2l0,0l0.2,0.4l-0.2-0.4l0,0c-2.7-0.1-5,0-6.9,2.7C37.6,245.5,42.6,246.9,44.3,249.7z"/>
		<path class="st10" d="M47.6,231.7c3.4,4,4.4-0.2,6.2-1.9c-0.9-1.5-2.1-2.9-4-3.1C49.9,228.7,45.1,228.8,47.6,231.7z"/>
		<path class="st8" d="M27.9,238.1c0.4,0.3,0.6,1.1,0.9,1.7c1,2.4,3.1,1.9,5,2.1c0.8,0,1.6-0.3,2-1c-1.8-1.9-6.8,0-6-5
			c-1.2-1.3-2.7-1.6-3.6,0C25.3,237.3,27,237.5,27.9,238.1z"/>
		<path class="st9" d="M27.8,242.3c0,0.2,0,0.3,0,0.5l1.2,0.8L27.8,242.3z"/>
		<path class="st9" d="M27.7,242.4l1.2,1.3l1.8,1.2c0.1,0,0.1,0,0.2,0c1.6-0.1,2.9-1.4,2.8-3c-1.9-0.1-4,0.3-5-2.1
			C27.7,240.5,27.7,241.4,27.7,242.4z"/>
		<path class="st9" d="M58.8,213.8c-1.4,1.4-1.6,3.2-2,5c1.4,0,2.6,0.9,2.9,2.3c0.3,1-0.2,2.8,1.8,2.2c1.3-0.4,1.4-1.8,1.3-2.9
			C62.5,217.5,60.9,215.5,58.8,213.8z"/>
		<path class="st9" d="M64.9,188.3c-4.3,4.5-4.2,14.4-0.2,21.5c1.2,2.2,3.2,4.2,3,7.1h1l0.1-1c-0.1-10.9,0.4-21.6,3.9-32l-2-0.1
			C68.7,185.3,66.5,186.5,64.9,188.3z"/>
		<path class="st12" d="M72.8,183.9c-3.5,10.4-3.9,21.2-3.9,32c6.5-2.2,10.8-0.4,13.2,6.3c0.8,2.2,2.7,4.3,5.9,2.9
			c1.2-0.5,1.7,0.7,1.8,1.8c0,0.1,0,0.1,0,0.2c0,1.6,1.4,2.9,3,2.8c1.7-0.1,4.3-2.1,4,1.9c4.1-0.3-0.4-4,2-5l-3.2-9.8H94l-0.2,2
			l0.9,3.9c-0.2,1.3,1,3.4-1.3,3.6c-1.9,0.1-2.8-1.4-2.7-3.4c-1.1-0.7-1-1.9-1.2-3c-2.1-1.7-5.2,3.4-6.8-1.1
			c-2.6-4.3-6.2-8.1-6.5-13.3c2.1-1.3,1.9,2.6,3.8,1.1c0-3.3-1.8-6.7,0.9-9.7c-2.3-2.1-1.1-4.2,0-6.2c0.5-1,2.2-1.3,1.4-2.9
			s-2.4-1.2-3.5-0.8c-4,1.4-4.8-1.2-3.9-3.8c1.1-3.1,0.7-6.4,1.8-9.6c0.8-2.1,3.1-5,1-7.9c-3.3,1.2-0.8,6.5-5,7
			c-0.7,0.4-1.1,1.2-1,2C72.9,177.8,74.4,180.6,72.8,183.9z"/>
		<path class="st8" d="M87.7,239.9c2.5,0.8,3.9,0.8,4.3-2.8c0.7-4.7-1.6-5.8-5.3-6.3C87.1,233.8,85.7,237,87.7,239.9z"/>
		<path class="st14" d="M93.8,210.9c1.4,1.8,1.4,4,1.8,6l3.2,9.8l1,1.1c2.8-2.9,3.6-6.1,2.1-10c-0.6-1.5-2.2-3.2-0.3-5
			c0.1-1.1,0.2-2.2-0.9-2.8c-1.1,1.8-2.3,2.4-3.7,0.4c-0.7-1.1-2-1.7-3.3-1.6C92.7,209.5,92.7,210.2,93.8,210.9z"/>
		<path class="st13" d="M101.7,231.8c1.5,1.7,3.1,5.5,4.2-0.2c0.1-0.4,0.5-1.1,0.8-1.1c7.6-0.2,1.8-4.3,2-6.7c-0.2-2.1-0.3-4.4-3-5
			c-0.3,1.6,1.8,3.3,0.2,4.6C103.4,225.7,103.2,229,101.7,231.8z"/>
		<path class="st10" d="M99.8,227.9c0.1,1.5,0.8,3,1.9,4c1.4-2.8,1.6-6.2,4.3-8.4c1.6-1.3-0.5-3-0.2-4.6c-0.1-1.3-0.2-2.5-0.2-3.8
			c-0.1,0-0.1,0-0.2,0c-1-0.2-1.7-1.1-1.6-2.2l-0.1-0.1h-2.1c-1.9,1.8-0.2,3.5,0.3,5C103.5,221.8,102.6,224.9,99.8,227.9z"/>
		<path class="st13" d="M92.7,229.9c0.3,2.7,2.4,1.8,4,1.9C97,227.8,94.5,229.7,92.7,229.9z"/>
		<path class="st9" d="M102.8,202.8c0.6-0.2,1.4-0.6,1.9-0.4c7.9,2.7,5.5-2.5,5.1-6.4c0-1.1,0-2.3,0.1-3.4l0.5-1.2l-2.7,0.6
			c-0.1,1.9-1.4,2.9-2.8,3.7C101.9,197.4,101.4,199.9,102.8,202.8z"/>
		<path class="st13" d="M99.5,203.9c0.2,1,0,2.3,1.1,3l2.1-1v-2.9c-1.5-3-0.9-5.5,2.1-7.2c1.5-0.8,2.7-1.8,2.8-3.7l-1.7-0.5
			l-1.9-0.4h0.1l-2.4-0.3C97.8,194.6,100.7,199.6,99.5,203.9z"/>
		<path class="st9" d="M102.8,205.8l-2.1,1c0,1,0,2.1,0,3.1c1.2,0.7,0.9,1.8,0.9,2.8h2.1C102.1,210.6,104.7,207.9,102.8,205.8z"/>
		<path class="st9" d="M105.7,214.3c-0.1-0.9-0.9-1.6-1.8-1.5c0,0.1,0,0.1,0,0.2c-0.1,1,0.7,1.9,1.8,2
			C105.7,214.8,105.7,214.5,105.7,214.3z"/>
		<path class="st11" d="M107.7,185.9c-0.9,1.8-2.3,3.4-1.7,5.6l1.7,0.4l2.7-0.6c3.2-2.3-1.5-3.5-0.7-5.5L107.7,185.9z"/>
		<path class="st13" d="M107.7,181.9c0.1,1.3,0.1,2.7,0.1,4h2l0.9-1.2l1.9-6.4C109.5,177.9,109.4,181,107.7,181.9z"/>
		<path class="st10" d="M142.8,189.8l-0.1,0.1c0.1,0.6,0.2,1.4,1,1.4c0.2,0,0.6-0.4,0.6-0.6C144.2,190,143.5,189.9,142.8,189.8z"/>
		<path class="st7" d="M81.1,163.5c-0.7,1.6-1.6,4.3,0.7,4.6c3.9,0.4,4.9,3.5,6.9,5.8c2.4,2.9,0.7,11.3-2.4,13.5
			c-2.4,1.7-5.3,3.6-3.6,7.5c1.2,0.3,2.2,1.4,3.2-0.7c0.6-1.4,2.2-2.3,3.4-3.4c0.5-0.7,1.5-0.9,2.2-0.4c1,0.8,0.9,1.5,0.1,2.5
			c-1.9,2.3-2,5.1-1.9,8c0.1,4.3-1.6,7.2-6.1,8c4.9,1.6,6.2,6.7,9.6,9.8c0.1,0.1,0.3,0.1,0.5,0.1c0.1-0.7,0.1-1.3,0.2-2
			c-0.1-2-0.1-4-0.2-6c-1-0.7-1-1.4,0-2.1c-0.4-1.9-0.8-3.8-1.4-5.6c-0.8-2.2-1-4.1,1.4-5.4c2.7-4.5,5.3-9,6.4-14.3
			c0.8,2.6,0.2,5.2,1.7,7.4l2.4,0.3h-0.1l1.9,0.4c-0.6-2.2,0.8-3.9,1.7-5.6c-0.1-1.3-0.1-2.7-0.1-4c-0.3,0-0.7,0-1,0
			c-4.1,0.6-7-0.5-8-4.9l-1.9-0.1c-1.6-0.1-3.8,0.9-4.1-1.9l-2.2-2.9c-0.2,0-0.3,0-0.4,0c-1-0.2-1.5-1.2-1.3-2.1
			c-1.6-3.8-5.8-7.3-1.1-11.6c0-1.2-0.3-2.6,1-3.4v-1.9l-2-0.1c0,1.1-0.8,2-1.9,2.1C84.5,158.2,82.4,160.6,81.1,163.5z"/>
		<path class="st15" d="M102,154.8c-0.1,1.6,0.8,3,2.3,3.5c1,0.5,1.4-0.5,1.6-1.3c-2.4-4.1,0.7-3.8,3.2-4.1c1.3-0.2,3.4,0.6,3.4-1.7
			s-1.9-2.4-3.6-2.4c-2.1-0.1-4.3-0.3-6.2,1C102.5,151.5,102.1,153.1,102,154.8z"/>
		<path class="st15" d="M88.7,152.9c0,0.6,0,1.2,0,1.9l2,2.1c4.1-0.3,7.7-3,9.1-6.9l-1.3-0.3C95,150,91.4,149.8,88.7,152.9z"/>
		<path class="st15" d="M98.7,176.9c1,4.4,3.9,5.6,8,4.9c0-1,0.1-2,0.1-2.9C103.7,179.9,101.7,176.6,98.7,176.9z"/>
		<path class="st15" d="M92.8,174.8c0.3,2.8,2.5,1.8,4.1,1.9C96.3,174.4,94.3,175.1,92.8,174.8z"/>
		<path class="st10" d="M87.8,158.1l3-1.3l-2-2.1C87.5,155.6,87.8,156.9,87.8,158.1z"/>
		<path class="st15" d="M90.6,171.7c0-1-0.8-1.9-1.8-1.9c0,0.1-0.1,0.3,0,0.4c0,1,0.8,1.8,1.8,1.7C90.6,171.8,90.6,171.8,90.6,171.7
			z"/>
		<path class="st13" d="M114.2,181.6c-0.1,1,0.6,1.2,1.4,1.4c0.1-0.1,0.2-0.2,0.4-0.4c-0.2-0.7-0.4-1.5-1.4-1.4
			C114.4,181.4,114.2,181.5,114.2,181.6z"/>
		<path class="st13" d="M115.9,182.7c-0.1,0.1-0.2,0.2-0.3,0.4l0.7,0.4L115.9,182.7z"/>
		<path class="st9" d="M74.9,157.9l4.8-1.1c1.1-2.2,3.1-2.1,5.1-1.9c1.1-0.1,2-1,1.9-2.1c-0.1-0.5-0.2-1.2-0.5-1.4
			C82.4,149.5,75.6,153.4,74.9,157.9z"/>
		<path class="st13" d="M73.6,165.8c-0.3,2.3-1.3,4.6-0.9,7c4.3-0.5,1.7-5.8,5-7c0-1-0.1-2-0.1-2.9l-3-1.1
			C73.3,162.9,73.9,164.5,73.6,165.8z"/>
		<path class="st12" d="M74.9,157.9c-0.1,1.3-0.2,2.6-0.2,3.9l3,1.1c0.1-2.2,2.7-3.6,2-6.1L74.9,157.9z"/>
		<path class="st13" d="M69.8,179c0.2,1.6,0.5,3.2,0.9,4.8l2,0.1c1.7-3.2,0.2-6.1-0.9-9C69,175.3,69.7,177.4,69.8,179z"/>
		<path class="st13" d="M47.7,237.8l0.2,0.4L47.7,237.8L47.7,237.8z"/>
		<path class="st10" d="M75,183.3c-0.9,2.6-0.1,5.1,3.9,3.8c1.1-0.4,2.8-0.6,3.5,0.8s-0.9,1.9-1.4,2.9c-1.1,2.1-2.2,4.2,0,6.2
			c0,0,0,0,0.1,0c1-0.1,1.8-1,1.7-2c-1.8-3.9,1.2-5.8,3.6-7.5c3.1-2.2,4.8-10.6,2.4-13.5c-1.9-2.3-2.9-5.4-6.9-5.8
			c-2.4-0.3-1.5-3-0.7-4.6c1.3-2.8,3.4-5.3,3.7-8.5c-2-0.2-4-0.3-5.1,1.9c0.7,2.5-1.9,3.9-2,6.1c0,1,0.1,2,0.1,2.9
			c2.1,2.9-0.3,5.8-1,7.9C75.7,176.9,76.1,180.2,75,183.3z"/>
		<path class="st15" d="M82.7,195c0,1-0.8,1.9-1.8,1.9c-2.7,3-0.9,6.5-0.9,9.8l3.6,2.3c4.5-0.8,6.2-3.7,6.1-8c-0.1-2.8,0-5.7,1.9-8
			c0.8-1,0.9-1.8-0.1-2.5c-0.7-0.5-1.7-0.3-2.2,0.4c-1.2,1.1-2.8,2-3.4,3.4C85,196.3,83.9,195.2,82.7,195
			C82.7,194.9,82.7,195,82.7,195z"/>
		<path class="st14" d="M76.2,205.5c0.3,5.2,3.9,9.1,6.5,13.3c2.5-1.3,5.2-3.4,6.8,1.1c0.2,1.1,0.1,2.3,1.2,3l4-0.1l-0.9-3.9
			c-0.2,0-0.4,0-0.5-0.1c-3.4-3.1-4.7-8.2-9.6-9.8l-3.6-2.3C78.1,208.1,78.4,204.2,76.2,205.5z M83.1,214.1
			c-0.1-0.1-0.1-0.3-0.1-0.4c0-0.1,0.2-0.1,0.4-0.1c0.1,0.1,0.1,0.3,0.1,0.4C83.5,214.1,83.3,214.1,83.1,214.1L83.1,214.1z"/>
		<path class="st10" d="M82.8,218.8c1.6,4.5,4.8-0.6,6.8,1.1C88,215.4,85.3,217.5,82.8,218.8z"/>
		<path class="st10" d="M90.7,222.9c-0.2,2,0.8,3.6,2.7,3.4c2.3-0.1,1.1-2.3,1.3-3.6L90.7,222.9z"/>
		<path class="st10" d="M95.6,216.9c-0.4-2.1-0.4-4.3-1.8-6c0.1,2,0.1,4,0.2,6H95.6z"/>
		<path class="st10" d="M92.4,203.1c0.7,1.8,1,3.7,1.4,5.6c1.3-0.2,2.6,0.5,3.3,1.6c1.3,2,2.6,1.4,3.7-0.4c0-1,0-2.1,0-3.1
			c-1.1-0.7-0.9-1.9-1.1-3c-4.2,0.1-5-3.1-5.8-6.1C91.3,199.1,91.6,201,92.4,203.1z"/>
		<path class="st14" d="M100.1,183.4c-1.1,5.3-3.6,9.8-6.4,14.3c0.9,3.1,1.7,6.2,5.9,6.1c1.2-4.3-1.8-9.2,2.2-13
			C100.2,188.6,100.9,186,100.1,183.4z"/>
		<path class="st11" d="M104.2,191.1L104.2,191.1L104.2,191.1z"/>
		<path class="st10" d="M83.4,213.6c-0.1,0-0.4,0.1-0.4,0.1c0,0.1,0.1,0.3,0.1,0.4c0.1,0,0.4-0.1,0.4-0.1
			C83.5,213.9,83.4,213.7,83.4,213.6z"/>
	</g>
</g>
</svg>
