<svg xmlns="http://www.w3.org/2000/svg" viewBox="0 0 123.51 145.36"><defs><style>.cls-1{fill:#7b5223;}.cls-2{fill:#c48b4d;}.cls-3{fill:#ac7b46;}.cls-4{fill:#8a5f2a;}.cls-5{fill:#9b6f3b;}.cls-6{fill:#826d56;}.cls-7{fill:#a57031;}.cls-8{fill:#b77e3c;}.cls-9{fill:#523a1e;}.cls-10{fill:#f2e2d3;}.cls-11{fill:#e0cdb8;}.cls-12{fill:#cda482;}.cls-13{fill:#ad8157;}.cls-14{fill:#cb9961;}.cls-15{fill:#dda76d;}</style></defs><title>terr</title><g id="Layer_2" data-name="Layer 2"><g id="Layer_1-2" data-name="Layer 1"><path class="cls-1" d="M81.73,31.25c-2.26-2.3-5.65-2.87-7.8-1.55-5.73,3.52-7.6.5-9.06-4.21l-1.1,1c-.35.52-.69.53-1,0l-.09-.09c-2.87.18-2-4.24-4.92-4a16,16,0,0,1,0,2c-.16,1.37.68,3.31-1.31,3.77-1.65.38-1.93-1.47-2.59-2.52a2.42,2.42,0,0,0-2-1.18l.17,2.9c.65,3.51-1.09,3.69-3.39,2.17a37.34,37.34,0,0,0-3.5-2.36c-2.71-1.41-3.69-1.16-3.74,2,0,2.92-2.76,3.15-4.68,4.13a7,7,0,0,0,1.48.05c3.37-.59,4.69,1.86,6,4.13.93,1.6-.36,2.36-1.55,3-2.52,1.45-5,2.7-7.3-.47,1.57-1.65,3.08,1.14,4.66-.16-1.5-3.2-4.45-1.43-6.68-1.71-.6-2.51,2-3,2.44-4.72-.3-2.08-1.22-2.21-2.53-.76-1.09,1.19-1.08,3.17-3.34,4.3-1-4.35-2.93-8.56-2.7-12.66.21-3.77-1.69-2.71-3.42-3a6.79,6.79,0,0,0-1.2,1.48c-.94,2.23-1.64,4.58-2.69,6.76-1.59,3.29-4.41-1.47-6.25.81,7,1.56,11.94,4.76,10.15,13.14.3,1.67,1,2.86,3,2.85.79-1.25,1.56-2.52,2.39-3.75S30.35,39,32,40s3.37,3,1.71,5.39-1,4.65.1,7c1.17.15,2.56.35,2.35,1.86-.44,3.09,1.53,3.11,3.6,3.16-.4-3.89,1.64-8.47-3.25-11.09-.53-.29-.36-1.13.28-1.66,1.47-1.22,10.47-1.27,12.06,0l.09-.15c.31-1.44,1.41-1.93,2.68-2.21l1-2A18.6,18.6,0,0,1,54,36.07c1.28-2.06,2.94-4.26,4.72-.33.48,1.06,1,1.79,2.16,1.27s.78-1.68.84-2.64c-1.37-1.16-1.11-2.63-.63-4a1.3,1.3,0,0,1,1.19-.41c1.92.9,1.33,2.77,1.52,4.33,3.84.46,2.42,4.22,3.86,6.18l.13,1.95c1.69.79,2.07,8.65,5.4.94.65-1.51,2.38.44,3.61,0a2.53,2.53,0,0,0-.19-1C72.32,36.3,73.77,33.15,81.73,31.25Z"/><path class="cls-1" d="M101.78,100.38h0v0Z"/><path class="cls-1" d="M94.53,83.76l.23-.38s0,0,0,0v0Z"/><path class="cls-1" d="M101.72,70.39c-1.61,1-3.35-6.85-4.87.07,1-.42,2.46-.62,1.67.85-2,3.81-2.2,8.13-3.76,12,0,0,0,0,0,0l-.23.38.22-.39v0c-.1-1.39.47-2.94-1-4a6.33,6.33,0,0,0-1.31,5.88c.53,2.36.23,4.94-2.57,6.18l-4.14,6.94-.49,1.2c-1.77,4.13,1,8.8-1.55,12.84,2.83,3.21,4.28,0,6.12-1.32q0-.37-.13-.74L88.44,110l1.16-.49,1.42-1c2.09-2.38,5-3.47,7.65-5,.22-1.84,1.08-3,3.1-3,.87-3.12.68-7.1,5.62-6.92l1.15-1.07c.81-2.4.1-4.63-.93-6.73A71.23,71.23,0,0,1,101.72,70.39Z"/><path class="cls-2" d="M88.84,7.09c-.55,0-.83-.24-.82-.8a3.6,3.6,0,0,1-.34-.76,4.5,4.5,0,0,1-2.75-4.44,27.05,27.05,0,0,1-9.72,1.25,33.68,33.68,0,0,0-12.49,2c1.79,2,.1,5.08,2,7.07l1.92-.08c1.46-3.67,8.36-4.25,11.09-.5,1.6,2.19,5.84,4.11,2.21,8.33-.9,1,.48,4.06.82,6.16l2,0a2.91,2.91,0,0,1,2.95,2h0c3,.21,3.26,2.07,2.78,4.44l-.2,1.61,2.48,0v0l.9-1c1.88-5,1.89-10.55,4.56-15.39,1-1.87-1.4-3.48-1.69-5.39Z"/><path class="cls-3" d="M109.74,121.36c1.75-.13,1.7-.93,1.49-1.81q-.81.8-1.64,1.57A1.91,1.91,0,0,1,109.74,121.36Z"/><path class="cls-3" d="M115.33,129.15l.41.24h0Z"/><path class="cls-3" d="M113.54,104.16c-1,.28-2.24.11-2,2,.28,2.4.17,4.84.23,7.26l.41.41c-.09,0-.21,0-.25-.07a1.37,1.37,0,0,1-.16-.34c-1.45,0-2.86,0-3,2l-1,5a2.17,2.17,0,0,1,1.85.75q.83-.77,1.64-1.57a3.48,3.48,0,0,1-.19-1.47,7.53,7.53,0,0,1,1.27-2c.43.33,1,.6,1.44.94q2.82-3,5.44-6.25A26.55,26.55,0,0,0,113.54,104.16Z"/><path class="cls-4" d="M113.13,103.24c-2.9-.38-2.08-3.36-3.4-4.85-3.54,6-9.13,9.69-15,13,1.38,2,2.54,4.7.5,6.28a6.1,6.1,0,0,1-7.71-.31c-1.18-.16-2.47,1.64-3.47.19-2.5-3.64-2.05.65-3,1a2.37,2.37,0,0,0-.12.73l2.91,2.07c.75.14,1.75.17,1.48,1.27-.08.34-1,.48-1.55.71l-1,.91c.12,2.67-.42,5.87,4,5.06,2.24-.46-2-4.38,2.06-3.88.23-.23.52-.7.69-.66,6.2,1.42,9.41-2.39,12.82-6.64,1.3-1.63,3.68-3.41,6.51-2.77.12-2,1.53-2,3-2h0c-.06-2.42,0-4.86-.23-7.26-.22-1.84,1-1.67,2-2Z"/><path class="cls-4" d="M14.74,139.38a7.23,7.23,0,0,0,4,1c.25-1.25-.46-3.64,2.25-2.17,4.05,2.21,3.72-.92,3.7-3.12,0-.72-.05-1.45-.08-2.19a81,81,0,0,1-7.2-4.66A28.8,28.8,0,0,0,14.74,139.38Z"/><path class="cls-4" d="M35.88,138.51h.91a72.16,72.16,0,0,1-7.22-3A14.77,14.77,0,0,0,35.88,138.51Z"/><path class="cls-4" d="M39.55,121.37l.45-2c-2.2-.11-3.83.3-4.29,3-.5,2.89-1.28,6-5.17,5.88-2-.07-6.7-7.89-5.56-9.49,2.27-3.2.75-6.31.7-9.47-3.48,5.07-3.77,11.49-7,16.64a23.64,23.64,0,0,0-1.26,2.31,81,81,0,0,0,7.2,4.66,11.76,11.76,0,0,1,1.75-7.13c-.31,4.71.94,7.72,3.19,9.72a72.16,72.16,0,0,0,7.22,3h4.34C37.37,132.83,33,127.43,39.55,121.37Z"/><path class="cls-5" d="M47.76,81.39c-1.18-.22-3,.75-3.37-1-.31-1.29,1.52-.75,2.33-1.48-.87-1.23-3.14.21-3.43-1.47s2.06-1.33,2.61-2.67c-1.85-1-4.82-.31-5.16-3.45-1.61.94-.57,2.89-1.56,4.61l-2.39-4.59-2.06-1a2.7,2.7,0,0,1-2.79,3c4.18,5.27,3.18,11.14,2,17,4.61.21,2.89,4.87,4.87,6.93,2.51-1.4,5.24-.82,7.9-.88l.11-1.15q-.09-3.45-.17-6.91a1.73,1.73,0,0,1-.79-2C45.81,84.46,47.12,83.05,47.76,81.39Z"/><path class="cls-4" d="M100.79,14.4a2.12,2.12,0,0,1-1-2.15l-.65-.84-4.57.17c.29,1.91,2.73,3.52,1.69,5.39-2.67,4.84-2.67,10.38-4.56,15.39l-.9,1v0l-.16,4.1a3.41,3.41,0,0,1,2.1,1.87c2.73-.11,5.3-1.51,8.11-1,.81-5.7-.77-12.73,7.85-14.07C102,24.26,102.83,18.17,100.79,14.4Z"/><path class="cls-1" d="M35.75,111.65c-1.5-2.1-3.94-3.07-2.7-6.66.85-2.45-2.25-1.06-3.46-1.66-1.64,1.77-3.28,3.54-3.9,6,0,3.16,1.57,6.27-.7,9.47-1.13,1.6,3.61,9.42,5.56,9.49,3.89.14,4.67-3,5.17-5.88.46-2.68,2.09-3.1,4.29-3l.86-.9C40.61,115.17,37.4,114,35.75,111.65Z"/><path class="cls-4" d="M98,55c-1,1.2-1,3.21-3.08,3.4l-4.15,6a23.82,23.82,0,0,0-3.9,13c2.59-1.16,4.83-3.22,7.94-3l2-3.95c1.52-6.93,3.27.94,4.88-.07-1.6-6.42-.59-12.71.91-19C99.84,51,99.24,53.46,98,55Z"/><path class="cls-1" d="M118.67,21.43a8.48,8.48,0,0,0-3.44-6.27c-1.86-1.47-4.17-2.89-4.5-5.7-5.57-8.34-13.47-10.69-23-8.9-.32.53-.66.61-1,0l-1.78.47a4.5,4.5,0,0,0,2.75,4.44c2.43-2.94,7.36-4,10.12-2,2.07,1.52,3.93,3.33,5.88,5l0-.13,1,1.22c1.62,2.26,4.14,3.86,4.92,6.72,1.9.66,2.26,2.49,3.05,4,2.25-1.07,2.43.87,2.93,2.12.43,1.08.64,2.66,2,2.36C119.44,24.44,118.77,22.61,118.67,21.43Z"/><path class="cls-6" d="M108.53,92.4l-1.15,1.07a11.44,11.44,0,0,1-5.62,6.93l0,0c-1.16.87,0,4.16-3.11,3C96,105,93.1,106,91,108.42c-.39.89.2,2.22-1.19,2.65-1.85,1.33-3.3,4.52-6.12,1.32-1.05-.63-.58,2.16-1.93.86l-1.27,1.07c-.25,3.27-2.92-.08-3.82,1.4l1.81,1.69c.74.25,1.75-.12,2.16.91l.32.24c1-.39.52-4.68,3-1,1,1.45,2.28-.35,3.47-.19,1.82-2.7,5-3.79,7.22-6,5.92-3.28,11.51-6.93,15-13l.15-2.18C109.25,95,108.35,93.89,108.53,92.4Z"/><path class="cls-2" d="M55.71,4.35c-9.61-.57-19.19-.61-28.72,1,1,.09,2.16-.11,2.79,1,1.27.42,2.38-1.48,3.56-.4.83.76.44,1.74-.47,2.4q-.14.43-.27.85l.12,1.05L32,14.21c2.87-1.63,5.66-2.35,7-5.27.69-1.48,1.9-1.17,3.35-.89,2.49.49,1.41,2,1.37,3.32l1.33.49-1.31.51c-1,2.91-.05,4.31,3.11,4-.23-3.15,2.83-5,3.15-7.92-.83-.21-2.2,0-1.18-1.61C50.49,4.23,53.14,4.42,55.71,4.35Z"/><path class="cls-6" d="M57.38,119.59l-4.89-.89c-4.33-.28-8.12-1.66-10.8-5.3-1.82-.6-2.3-1.33-.23-2.32l.68-1.46-1.56-.27c-4.51-1-5-5.31-6.8-8.5a42.12,42.12,0,0,1-1.92-4.53l-2.27,7c1.2.6,4.31-.78,3.46,1.66-1.25,3.59,1.2,4.56,2.7,6.66,1.66,2.32,4.87,3.52,5.12,6.85,4.9,1.72,9.61,4.05,14.85,4.73l2.08.25C60.53,121.88,58.49,120.79,57.38,119.59Z"/><path class="cls-5" d="M120.89,15.75c-3.45-2-6.78-4.18-10.17-6.29.33,2.81,2.64,4.23,4.5,5.7a8.48,8.48,0,0,1,3.44,6.27c.1,1.18.77,3-1,3.39-1.38.3-1.59-1.28-2-2.36-.5-1.26-.68-3.19-2.93-2.12v0q0,.45,0,.9c1.74,3.17,3.44,6.37,5.25,9.5.57,1,1.38,2,2.77,1.67s.89-1.56,1-2.48c.48-2.77.92-5.56,1.52-8.31C123.88,19.06,123.3,17.15,120.89,15.75Z"/><path class="cls-7" d="M92.71,39.4c3.85,3.61,3.45,8.08,2.69,12.69-.34,2.07-2.12,4.07-.49,6.31C97,58.21,97,56.2,98,55c1.25-1.55,1.85-4,4.63-3.6.58-4.5-.59-8.76-1.8-13C98,37.89,95.45,39.29,92.71,39.4Z"/><path class="cls-8" d="M62.73,4.33l-7,0c-2.57.06-5.21-.13-6.87,2.48-1,1.61.35,1.39,1.18,1.61l1.66,0c.51-3.25,3-3.9,5.1-2.55,1.91,1.24,1.66,4.3-.1,5.66-2.05,1.58-1.22,3.08-1,4.76l1.06.08L57,14.5c1.2,2.17,3.49.66,5,1.53.13.07-.15.87-.24,1.33h5.6c-.54-2.51-2.76-3.76-2.6-6C62.83,9.41,64.52,6.37,62.73,4.33Z"/><path class="cls-4" d="M22.69,7.39a6.07,6.07,0,0,1-4.92,3l-2.1,2a1.76,1.76,0,0,1-1.7,2.1l-.17.24a1.5,1.5,0,0,1-1.15,1.6L9.85,20.94q0,3.78,0,7.55l1.61,0a7.55,7.55,0,0,1,5.37-5.12c-.31-1.8-2.95.33-2.89-1.56s1.73-3,3.45-3.75c.42-1.86,2.28-2.35,3.39-3.55,2.73-2,3.31-6.12,7.05-7.1l-5-.11Z"/><path class="cls-5" d="M28.7,56.37a2,2,0,0,1-1-2c-.34-2-2-4.05,0-6.07a2,2,0,0,0-1-1.94c-1.92,0-2.67-1.18-3-2.85-2.64,9.92.39,18.56,6.05,26.59.05-1-.21-2.14.95-2.77l-1-6Z"/><path class="cls-1" d="M41.76,105.38q-.07-1-.15-2c-1.81-1.62-1.75-4.1-2.81-6.07-2-2.06-.25-6.72-4.87-6.93a10.15,10.15,0,0,0-2.08,6,42.12,42.12,0,0,0,1.92,4.53c1.8,3.19,2.29,7.47,6.8,8.5l1.2-3C41.07,106.05,41,105.72,41.76,105.38Z"/><path class="cls-3" d="M11.45,28.54l-1.62,0c-.08,1.07,0,2.2-1,2.95-.13,1.86-.31,4.16-2.76,3.72s0-2.44-.49-3.66a3.88,3.88,0,0,1-2-3.12c-4.62,2.26-4,5.89-2.47,9.69.59,1.46.25,3.73,2.27,4.06,2.31.38,3.41-1.64,4.52-3.28,1.83-2.71,2.18-6.3,5-8.41A2.27,2.27,0,0,1,11.45,28.54Z"/><path class="cls-9" d="M20.85,19.44a4.33,4.33,0,0,1-4,4,7.55,7.55,0,0,0-5.37,5.12,2.27,2.27,0,0,0,1.48,1.91,3.81,3.81,0,0,0,.68-.06c1.84-2.28,4.66,2.49,6.25-.81,1.05-2.18,1.75-4.52,2.69-6.76a6.79,6.79,0,0,1,1.2-1.48l.13-1.86L22.54,18.2Z"/><path class="cls-9" d="M109.66,16.34a2.06,2.06,0,0,0-.35.77c.2.7,1.68,1.5,0,2.05-.93.32-1.3-.49-1.13-1.42a.83.83,0,0,0-.41-.6c-2.34.21-4.89.79-4.92-2.91l-.08,0-2,.17c2,3.78,1.17,9.86,7.89,9.92l0,0a1.71,1.71,0,0,1,1.7-1l.26-.25.67-.7a.56.56,0,0,0,.45-.66l.92-1.28v0C111.93,18.83,111.56,17,109.66,16.34Z"/><path class="cls-1" d="M3.6,28.38a3.88,3.88,0,0,0,2,3.12l3.25-.06c1-.75.92-1.88,1-2.95q0-3.78,0-7.55C7.25,23,5.58,25.81,3.6,28.38Z"/><path class="cls-4" d="M30.77,67.35c-1.16.63-.9,1.76-.95,2.77l.1.2.78,1.18a1,1,0,0,0,.4.87l.72.81.12.14a2.7,2.7,0,0,0,2.79-3q0-.46,0-.93l-1-1Z"/><path class="cls-3" d="M27,5.39A5.71,5.71,0,0,0,22.8,7.33l5,.11,1.85-.16a5.31,5.31,0,0,1,.11-.87C29.15,5.28,28,5.49,27,5.39Z"/><path class="cls-3" d="M109.87,96.21l-.15,2.18c1.31,1.49.5,4.47,3.4,4.85C112.26,100.8,111.77,98.18,109.87,96.21Z"/><path class="cls-3" d="M17.77,10.34a6.07,6.07,0,0,0,4.92-3A7.23,7.23,0,0,0,17.77,10.34Z"/><path class="cls-3" d="M14,14.41a1.76,1.76,0,0,0,1.7-2.1A2.7,2.7,0,0,0,14,14.41Z"/><path class="cls-1" d="M108.71,24.28a1.58,1.58,0,0,0,1.7-1A1.71,1.71,0,0,0,108.71,24.28Z"/><path class="cls-3" d="M12.66,16.25a1.5,1.5,0,0,0,1.15-1.6A1.66,1.66,0,0,0,12.66,16.25Z"/><path class="cls-5" d="M29.92,70.32l.78,1.18Z"/><path class="cls-5" d="M31.82,73.19l-.72-.81C31,73,31.28,73.19,31.82,73.19Z"/><path class="cls-2" d="M87.76.56l-1,0C87.09,1.17,87.43,1.09,87.76.56Z"/><path class="cls-1" d="M110.67,23l.67-.7Z"/><path class="cls-1" d="M112.71,20.36l-.92,1.28.94-.38Q112.7,20.81,112.71,20.36Z"/><path class="cls-7" d="M57.75,24.35a16,16,0,0,0,0-2c-4.71-2.21-4.77-2.56-1-6l-1.06-.08-6,1.14c-3.22,1.06-4.51,2.64-1.23,5.27-3.59,2.19-7.89-1.45-11.11,2.1-.86.95-1.58-.62-2.05-1.4-1.12-1.85-2.22-3.22-3.66-.24-.31.64-.92,1.18-1.48.48s-1-1.8-.7-2.15c1.82-2.4.06-4.22-.76-6.2L25.78,16.4c0,1.4,0,2.84-1.89,3.08q-.06.93-.13,1.86c1.73.26,3.63-.8,3.42,3-.23,4.09,1.68,8.31,2.7,12.66,2.26-1.13,2.25-3.11,3.34-4.3,1.32-1.45,2.24-1.32,2.53.76l.95-.15c1.92-1,4.63-1.21,4.68-4.13.05-3.18,1-3.43,3.74-2a37.34,37.34,0,0,1,3.5,2.36c2.3,1.52,4,1.34,3.39-2.17a3.15,3.15,0,0,1-1.92-3.08l1.75.17a2.42,2.42,0,0,1,2,1.18c.66,1,.95,2.9,2.59,2.52C58.43,27.66,57.59,25.71,57.75,24.35Z"/><path class="cls-5" d="M46.77,53.4l-.44.39.4-.43c-.8-3.28,2.77-5.52,2.1-8.77-1.59-1.24-10.59-1.19-12.06,0-.64.53-.81,1.37-.28,1.66,4.89,2.63,2.85,7.21,3.25,11.09C44.28,59,43.06,63,41.9,65.44c-1.86,4-.16,4.08,2.8,3.95,1.54-.88.85-3.42,2.91-3.92a8.25,8.25,0,0,1,.84-.1l-.17-2a1.78,1.78,0,0,1-1.45-2,14.31,14.31,0,0,1,2.93-6.95C49.05,53.21,47.87,53.42,46.77,53.4Z"/><path class="cls-5" d="M88.91,37.54l-.41-.39c-2.82,3.51-6.9,4.78-10.94,6.09l-.3.65-.42-.58v0c-1.23.49-3-1.47-3.61,0-3.33,7.71-3.71-.15-5.4-.94-1.94.57-5.81-2.09-5,3,2.49,3.23,4.57,6.92,9,8,3.48-1,5.67-3.67,8.13-6,3.81-3.12,5.74-2.88,7.95,1l2-1C90,44,86.35,41.06,88.91,37.54Z"/><path class="cls-3" d="M52.6,40.26l-1,2c.2,2.07-1.22,2.17-2.68,2.21l-.09.15c.67,3.25-2.9,5.49-2.1,8.77l0,0c1.1,0,2.28-.18,3,1,1.29-.84,2.93-1.26,3.45-3-.67-.23-1.94.15-1.68-1.13C51.88,48.53,53,47.2,55,47.48c3,.44,5.36-.8,7.79-2.1-.77-5.11,3.1-2.45,5-3l-.13-1.95C62.67,38.7,57.63,39.75,52.6,40.26Z"/><path class="cls-9" d="M88.3,33.46c.06-.53.13-1.07.19-1.61l-1.71.05c-1.86,1.16-3.35-.63-5.06-.65-8,1.89-9.4,5-5.1,11.06a2.52,2.52,0,0,1,.19,1v0l.72-.07c4-1.32,8.12-2.58,10.94-6.09C89.16,35.88,87.06,34.75,88.3,33.46Z"/><path class="cls-7" d="M73.46,18.91c-1.85-.54-1.72-2.56-.34-4.25a1.73,1.73,0,0,0,.36-1.23A1.08,1.08,0,0,0,72,12.57c-2.28,1.48-3.49-1.09-5.3-1.26l-1.92.08c-.16,2.21,2.06,3.46,2.6,6h-5.6c-.38,3.07,1.56,5.91.89,9l.09.09,1,0,1.1-1c.2-1.88.46-3.73,2.85-4.08,1.2-.68.93-2,1.2-3.15,3.73,2.5,2.78,5.27.83,8.11,2.47.67,3.59-2.64,6-2l.49-1.28.47,1.31a2.15,2.15,0,0,1,1,2c1.7-.21,3.62.66,5-1l-2,0C78.52,23,77.07,20,73.46,18.91Z"/><path class="cls-4" d="M41.9,65.44C43.06,63,44.28,59,39.74,57.37c-2.07,0-4-.07-3.6-3.16.21-1.51-1.18-1.71-2.35-1.86q0,1,0,2c.21.25.58.48.6.74.33,5.5.14,11.07,2.38,16.29L39.17,76c1-1.72,0-3.67,1.56-4.61,1.69.08,3.28,0,4-2C41.74,69.52,40,69.41,41.9,65.44Z"/><path class="cls-4" d="M85.72,27.41h0c-2.65-.44-5.55,1.07-8-1a2.15,2.15,0,0,0-1-2h-.48l-.48,0c-2.44-.61-3.57,2.7-6,2-6.31.65-1.17-3.38-2-5-2.4.35-2.65,2.2-2.86,4.08,1.47,4.71,3.33,7.73,9.06,4.21,2.14-1.32,5.54-.76,7.8,1.55,1.71,0,3.2,1.8,5.06.65C86.41,30.41,85.4,29.06,85.72,27.41Z"/><path class="cls-7" d="M63.82,34.24l-2.08.13c-.06,1,.22,2.15-.84,2.64s-1.68-.21-2.16-1.27C57,31.82,55.29,34,54,36.07a18.52,18.52,0,0,0-1.41,4.19c5-.51,10.07-1.56,15.07.16C66.23,38.46,67.66,34.71,63.82,34.24Z"/><path class="cls-9" d="M38.17,33.33a7.07,7.07,0,0,1-1.48,0l-.95.15c-.46,1.68-3,2.21-2.44,4.72,2.23.28,5.18-1.49,6.68,1.71-1.58,1.3-3.1-1.49-4.66.16,2.28,3.18,4.78,1.92,7.3.47,1.19-.68,2.48-1.44,1.55-3C42.86,35.18,41.54,32.74,38.17,33.33Z"/><path class="cls-7" d="M32,40c-1.64-1-2.09,1.48-2.87,2.62s-1.6,2.5-2.39,3.75a2,2,0,0,1,1,1.94c3.36.67,2.84,5.17,6,6.07l.07,0q0-1,0-2c-1.1-2.3-1.78-4.54-.1-7S33.55,40.94,32,40Z"/><path class="cls-4" d="M61.77,17.36c.09-.46.37-1.25.24-1.33-1.56-.87-3.84.63-5-1.53l-.23,1.86c-3.76,3.44-3.7,3.8,1,6,2.92-.24,2.05,4.18,4.92,4C63.33,23.27,61.39,20.43,61.77,17.36Z"/><path class="cls-4" d="M62.29,29.91a1.3,1.3,0,0,0-1.19.41c-.48,1.42-.74,2.88.63,4l2.08-.13C63.62,32.68,64.22,30.82,62.29,29.91Z"/><path class="cls-5" d="M48.93,44.44c1.47,0,2.88-.14,2.68-2.21C50.34,42.51,49.24,43,48.93,44.44Z"/><path class="cls-8" d="M50.09,24.25A3.15,3.15,0,0,0,52,27.33l-.17-2.9Z"/><path class="cls-4" d="M63.77,26.49l-1,0C63.08,27,63.42,27,63.77,26.49Z"/><path class="cls-10" d="M84.77,91.46l-2-.42c.45,4.06-2.9,5.82-5,8.31,0,1.47.11,3-2,3l-1,0a8.89,8.89,0,0,0-6.86,3.93C64,111.46,59.53,116,53,117.9c-.24.07-.36.53-.53.81l4.88.89,5.52-.13a1.79,1.79,0,0,0,.88-.21c.14-.51.41-.8,1-.6l3-.76a1.65,1.65,0,0,1,1.86-.54l2.2,0,1-.55a.71.71,0,0,1,1.09-.44.3.3,0,0,0,.27-.41c-.2-2-.36-3.91-.62-5.86-.12-.92-.91-2.06.47-2.47a5.44,5.44,0,0,1,3.37-.07c2.07.87-.1,1.7-.23,2.58-.36,2.54.58,4.14,3.39,4.15l1.26-1.07c.3-3.14.55-6.29.92-9.42.21-1.76.43-3.61,2.55-4.28l.49-1.2C86.23,95.94,83.33,94,84.77,91.46Z"/><path class="cls-5" d="M86.61,79.39a1.92,1.92,0,0,0-1.87,1,8.43,8.43,0,0,1-3.12,3.2l.09,1.73c2,.58,3.33-1.15,5.16-1.65,1.52,3.05-2.26,4.53-2,7.09,1.48,1.64,3.87-3.81,5,.64,2.8-1.25,3.11-3.83,2.57-6.18a6.33,6.33,0,0,1,1.31-5.88l.1-3C91.19,76.76,90.6,82.14,86.61,79.39Z"/><path class="cls-11" d="M82.69,103.83c-.38,3.13-.62,6.28-.92,9.42,1.35,1.3.88-1.49,1.93-.86,2.54-4-.22-8.71,1.55-12.84C83.12,100.22,82.9,102.07,82.69,103.83Z"/><path class="cls-11" d="M84.9,90.77a2.4,2.4,0,0,1-.13.69c-1.44,2.54,1.47,4.47,1,6.89l4.14-6.94C88.76,87,86.38,92.41,84.9,90.77Z"/><path class="cls-9" d="M96.84,70.46l-2,3.95a2,2,0,0,1-.94,2q0,1.49-.1,3c1.46,1.05.89,2.6,1,4,1.56-3.9,1.73-8.21,3.76-12C99.3,69.84,97.8,70,96.84,70.46Z"/><path class="cls-9" d="M94.76,83.38s0,0,0,0v0Z"/><path class="cls-9" d="M101.76,100.4a11.44,11.44,0,0,0,5.62-6.93C102.43,93.29,102.64,97.28,101.76,100.4Z"/><path class="cls-9" d="M98.67,103.38c3.12,1.17,2-2.12,3.11-3C99.75,100.35,98.89,101.53,98.67,103.38Z"/><path class="cls-9" d="M89.7,110.33c.05.24.1.49.13.74,1.4-.43.8-1.77,1.19-2.65l-1.42,1Q89.65,109.9,89.7,110.33Z"/><path class="cls-6" d="M88.44,110l1.26.38q0-.44-.1-.87Z"/><path class="cls-9" d="M94.53,83.76l.23-.38h0Z"/><path class="cls-8" d="M77.79,10.82c-2.74-3.75-9.63-3.17-11.09.5,1.81.16,3,2.74,5.3,1.26a1.08,1.08,0,0,1,1.49.85,1.73,1.73,0,0,1-.36,1.23c-1.38,1.69-1.51,3.71.34,4.25,3.61,1.06,5.05,4.12,7.36,6.4-.33-2.11-1.72-5.12-.82-6.16C83.63,14.93,79.39,13,77.79,10.82Z"/><path class="cls-9" d="M87.68,5.53a3.6,3.6,0,0,0,.34.76l.82.8,5.71,4.48,4.57-.17c.08-3.25,2.76-2.37,4.56-2.88-2-1.68-3.81-3.5-5.88-5C95,1.5,90.11,2.58,87.68,5.53Z"/><path class="cls-8" d="M82.78,25.36c-1.41,1.67-3.33.8-5,1,2.43,2.11,5.33.6,8,1A2.91,2.91,0,0,0,82.78,25.36Z"/><path class="cls-8" d="M85.72,27.41c-.32,1.66.69,3,1.07,4.49l1.71-.05C89,29.48,88.68,27.61,85.72,27.41Z"/><path class="cls-5" d="M88.5,37.15l.41.39h1.71q.08-2,.16-4.1l-2.47,0C87.06,34.75,89.16,35.88,88.5,37.15Z"/><path class="cls-5" d="M91.69,32.35l-.9,1Z"/><path class="cls-1" d="M88.84,7.09,88,6.28C88,6.85,88.3,7.1,88.84,7.09Z"/><path class="cls-2" d="M115.75,129.38h0Z"/><path class="cls-2" d="M68.81,141.36l.12.3,1.54-.24A6.65,6.65,0,0,0,68.81,141.36Z"/><path class="cls-2" d="M77.54,139.46c-.06.15-.14.27-.21.41,1.06-.3,2.11-.62,3.15-1C79.59,136.57,78.62,136.93,77.54,139.46Z"/><path class="cls-8" d="M80.57,139.12c.77,2.16,1.81,2.34,3.7,2,6.35-1.16,11-5.56,16.48-8.43,1.36-.71-.19-4.11,3-3.27,1.31-3.21,6.9-3.21,6-8.05a1.92,1.92,0,0,0-.15-.23,79.63,79.63,0,0,1-29.11,17.76Z"/><path class="cls-8" d="M77.33,139.86a67.62,67.62,0,0,1-6.85,1.55C73,141.77,75.76,142.91,77.33,139.86Z"/><path class="cls-8" d="M107.75,120.38c-3.12,6.43-7.6,8.24-13.48,6.59-1.83-.51-4,.15-5.52-1.54-4.07-.51.18,3.41-2.06,3.88-.45,2.76-.53,5.48-4.9,4.24-2.93-.83-4.91,3-8,2.83l-.23.43.22-.44,0-2.84-6.65,5.88.32,1.15a1,1,0,0,1,1.26.81l.1,0a6.65,6.65,0,0,1,1.67.06,67.62,67.62,0,0,0,6.85-1.55c.07-.13.14-.26.21-.41,1.08-2.53,2.05-2.88,2.94-.56a79.63,79.63,0,0,0,29.11-17.76A2.17,2.17,0,0,0,107.75,120.38Z"/><path class="cls-7" d="M113.76,117c-.4-.33-1-.61-1.44-.94a7.53,7.53,0,0,0-1.27,2,3.48,3.48,0,0,0,.19,1.47C112.09,118.72,112.93,117.87,113.76,117Z"/><path class="cls-7" d="M102.25,118.13c-3.41,4.25-6.62,8.06-12.82,6.64-.17,0-.46.43-.69.66,1.49,1.69,3.69,1,5.52,1.54,5.89,1.65,10.36-.16,13.48-6.59l1-5C105.93,114.72,103.56,116.5,102.25,118.13Z"/><path class="cls-7" d="M111.74,113.37a1.37,1.37,0,0,0,.16.34c0,.06.17.05.25.07l-.41-.41Z"/><path class="cls-2" d="M115.75,129.38h0l-.42-.23Z"/><path class="cls-7" d="M82.64,124.25c-1.73,1.2-3.26,2.76-5.44,3.2l-.41,1-.41.92-.75,1-1.85,3.19,0,2.84h0c3.11.17,5.1-3.66,8-2.83,4.37,1.24,4.45-1.49,4.9-4.24C82.22,130.12,82.76,126.92,82.64,124.25Z"/><path class="cls-2" d="M79.86,119.41l-1.28-.05-2.58,1-.16,1.92c1.43,1.47-.23,3.76,1.36,5.19,2.18-.44,3.71-2,5.44-3.2l1-.91.07-2-2.91-2.07Z"/><path class="cls-8" d="M87.46,117.33a6.1,6.1,0,0,0,7.71.31c2-1.58.89-4.25-.49-6.28C92.43,113.54,89.28,114.63,87.46,117.33Z"/><path class="cls-7" d="M83.76,121.36l-.07,2c.54-.23,1.47-.37,1.55-.71C85.5,121.53,84.51,121.5,83.76,121.36Z"/><path class="cls-6" d="M79.86,119.41l1-.12a2.44,2.44,0,0,1,.12-.73l-.32-.24Z"/><path class="cls-11" d="M43.13,141.5a3.09,3.09,0,0,0-.22.82c2.22-.2,3.67.64,4,3l1,0,1.45-3.72q-3-.45-6-1.16A4.07,4.07,0,0,0,43.13,141.5Z"/><path class="cls-11" d="M58.55,137.55c.89.87,1.2,2.13,2.48.75a1.9,1.9,0,0,0-.2-3.05c-1.84-1.11-4.42-1.56-2.34-4.6.08-.11-.55-1-.84-1-8.29.15-2.59-3.89-1.94-6.4-5.23-.68-9.94-3-14.85-4.73l-.86.9-.45,2c-.35,5.25.52,10.07,4.23,14.18,1.48,1.64.18,3.27-.41,4.92q3,.72,6,1.16c.28-.74.57-1.47.84-2.21C52,134.36,54.6,133.7,58.55,137.55Z"/><path class="cls-7" d="M26.36,125.79a11.76,11.76,0,0,0-1.75,7.13q2.44,1.4,4.95,2.59C27.3,133.51,26.05,130.5,26.36,125.79Z"/><path class="cls-3" d="M35.87,138.51l.94,3.84,1.86,0c.84-3.6,2.84-1.28,4.46-.88a4.07,4.07,0,0,1,.24-1q-3.34-.81-6.59-2Z"/><path class="cls-3" d="M43.78,135.55c-3.71-4.11-4.58-8.93-4.23-14.18-6.53,6.06-2.19,11.46,1.57,17.14H36.78q3.25,1.14,6.59,2C44,138.82,45.27,137.19,43.78,135.55Z"/><path class="cls-12" d="M82.61,87.53c-3.36.67-2.73,5.74-6.52,5.94l-.3,2.91c-.13,1-.38,1.95-1.69,1.83-1-.09-1.19-.92-1.35-1.71a3.3,3.3,0,0,0-.49-.85c-5.14-4.74-5.15-4.74-.33-9.34q-.12-.45-.25-.89c-5.4.34-10.68,2.66-16.2.95-.82,1.41-.12,2.74.23,4.08l.66.45-.68.41h0c0,1.22-.34,2.49-1.58,2.6-1.63.15-1.8-1.46-2.21-2.64L49.59,88.5l-2.94-.14q.09,3.45.17,6.91c1.12.69,1.62,2.36,3.33,2.12,4.49.33,9.28-1.15,13.25,2.27.33.29,1.14.55,1.35.37,4.38-3.66,7,.28,10,2.31l1,0c-.34-1.66-.85-3.44,2-3,2.14-2.49,5.49-4.25,5-8.31Z"/><path class="cls-6" d="M53.39,77.32c-2.46-2.05-2.09-5-2.66-7.71-.36-1.67.46-3.87-2.27-4.24a8.15,8.15,0,0,0-.84.1c1,5.3,3.85,10.58.15,15.92-.64,1.66-1.95,3.07-1.91,5a5,5,0,0,1,3.68.94q.1-.48.16-1c.19-2.11,1.67-2.05,3.2-1.91,1.64-2.61,4.18-3.21,7-3.16l.44-4.64C58,76.72,55.83,79.35,53.39,77.32Z"/><path class="cls-13" d="M44.7,69.39c-.68,1.94-2.27,2.06-4,2,.34,3.14,3.31,2.48,5.16,3.45-.55,1.34-2.89,1-2.61,2.67s2.56.23,3.43,1.47c-.81.73-2.64.19-2.33,1.48.41,1.71,2.19.73,3.37,1,3.71-5.34.88-10.62-.15-15.92C45.55,66,46.24,68.51,44.7,69.39Z"/><path class="cls-7" d="M33.8,54.35l-.07,0c-.54,1.29-1.93,2.21-1.08,4,1.5,3.21-.76,3.09-2.88,2.93l1,6,2.93,1,1,1q0,.47,0,.93l2.06,1c-2.24-5.22-2.06-10.79-2.38-16.29C34.38,54.83,34,54.59,33.8,54.35Z"/><path class="cls-4" d="M38.8,97.3c1.05,2,1,4.45,2.81,6.07l4.13-1L47,100.58q-.15-2.08-.3-4.16C44,96.48,41.31,95.89,38.8,97.3Z"/><path class="cls-3" d="M46.82,95.26l-.11,1.15.3,4.16,1.92-1,1.23-2.21C48.44,97.62,47.94,96,46.82,95.26Z"/><path class="cls-13" d="M45.85,86.38a1.73,1.73,0,0,0,.79,2l2.94.14c0-.39,0-.78,0-1.17A5,5,0,0,0,45.85,86.38Z"/><path class="cls-2" d="M90.62,37.53H88.91c-2.55,3.53,1.1,6.47.92,9.77-1.08,1.9,2.74,5.52-2.14,6.08q0,1.49,0,3l3.09,8,4.15-6c-1.62-2.24.15-4.23.49-6.31.76-4.61,1.17-9.09-2.69-12.7A3.41,3.41,0,0,0,90.62,37.53Z"/><path class="cls-3" d="M103.71,8.4l0,.12c-1.8.51-4.48-.37-4.56,2.88l.65.84a3.62,3.62,0,0,1,3.05,2l.08,0,4.92,2.91a.82.82,0,0,1,.41.59l1.08-.64a2,2,0,0,1,.35-.77c-.79-2.87-3.3-4.47-4.92-6.72Z"/><path class="cls-1" d="M99.78,12.25a2.11,2.11,0,0,0,1,2.15l2-.17A3.62,3.62,0,0,0,99.78,12.25Z"/><path class="cls-7" d="M80.83,57.29l-.1,1.14c-.61,3.31,2.69,6.62,0,9.94.07,1.71-.14,3.27-2,4,2.17,1.92.85,3.06-.92,4.1.37,1.63,3.18-.68,3,1.85q.05,1,.1,2l3.84.11a1.92,1.92,0,0,1,1.87-1l.25-2a23.84,23.84,0,0,1,3.9-13l-3.09-8C85.71,59.06,83.16,57.35,80.83,57.29Zm4.39,6.33c-.13-.26-.36-.51-.35-.76s.26-.48.41-.72l.4.77Z"/><path class="cls-1" d="M86.61,79.39c4,2.76,4.58-2.62,7.25-3a2,2,0,0,0,.94-2c-3.11-.23-5.35,1.84-7.94,3Z"/><path class="cls-9" d="M104.74,9.62l-1-1.22Z"/><path class="cls-11" d="M77.11,110.18c.12-.89,2.3-1.71.23-2.58a5.44,5.44,0,0,0-3.37.07c-1.38.41-.59,1.56-.47,2.47.25,1.95.42,3.9.62,5.86l2.56-.27c.9-1.48,3.57,1.87,3.82-1.4C77.69,114.31,76.76,112.72,77.11,110.18Z"/><path class="cls-9" d="M76.68,115.72l-2.56.27a.3.3,0,0,1-.27.41L76,120.34l2.58-1q0-1-.08-1.95Z"/><path class="cls-12" d="M78.49,117.41q0,1,.08,1.95l1.28.05.79-1.09C80.24,117.28,79.23,117.66,78.49,117.41Z"/><polygon class="cls-8" points="43.76 11.37 43.75 11.38 43.75 11.38 43.76 11.37"/><path class="cls-8" d="M49.69,17.42l0-1.12-2.78.06c-3.16.33-4.09-1.07-3.11-4h0l-1.3-.51,1.3-.49c0-1.29,1.12-2.83-1.37-3.32-1.45-.28-2.66-.59-3.35.89-1.36,2.92-4.14,3.63-7,5.27l.71-3.89q-.44.06-.88.15l-3.14,4.8c.82,2,2.58,3.8.76,6.2-.27.36.23,1.58.7,2.15s1.17.16,1.48-.48c1.44-3,2.53-1.61,3.66.24.48.79,1.2,2.35,2.05,1.4,3.21-3.55,7.52.09,11.11-2.1C45.17,20.07,46.47,18.48,49.69,17.42Z"/><path class="cls-9" d="M29.68,7.29l-1.85.16c-3.75,1-4.32,5.11-7.05,7.1,1.69-.12,3.58-.68,4.07,1.84a2.71,2.71,0,0,1,.94,0l2.92-1.13,3.14-4.8.76-1.2q.13-.43.27-.86C31.71,8.3,30.43,8.54,29.68,7.29Z"/><path class="cls-7" d="M51.68,8.42,50,8.44c-.32,2.93-3.38,4.77-3.15,7.92l2.78-.06c1.32-2.07,2.78-4.07,3.93-6.23C55.12,7.2,52.44,8.84,51.68,8.42Z"/><path class="cls-4" d="M29.78,6.42a5.21,5.21,0,0,0-.11.87c.76,1.25,2,1,3.19,1.13.91-.66,1.3-1.64.47-2.4C32.16,4.94,31.05,6.84,29.78,6.42Z"/><path class="cls-8" d="M43.75,11.38h0Z"/><path class="cls-8" d="M43.75,12.37h0l1.31-.51-1.31-.49Z"/><path class="cls-4" d="M31.84,10.47q.44-.09.88-.15L32.6,9.27Z"/><path class="cls-10" d="M67.19,141.89c.07-.21.14-.42.23-.62a.9.9,0,0,1,0-.69l-.33-1.15c-1.14-.37-1.82-1.65-1-2.11,2.38-1.26,2.41-3.38,3-5.5,1.17-4,4.09-1.74,6.42-1.46l.75-1-.75-1c-1.79-1.62-2-3.75-1.89-6l-5.89-.08-1.13.5-1.32.35-.3,0c-2.38,1.19-4.78,2.15-7.3.35l-2.08-.25c-.65,2.51-6.35,6.55,1.94,6.4.29,0,.92.91.84,1-2.08,3,.5,3.5,2.34,4.6a1.9,1.9,0,0,1,.2,3.05c-1.28,1.38-1.59.11-2.48-.75-3.95-3.86-6.53-3.19-8.37,1.87-.27.74-.55,1.48-.84,2.21a65.71,65.71,0,0,0,17.85.25Z"/><path class="cls-11" d="M64.76,100c-.21.18-1-.09-1.35-.37-4-3.43-8.77-1.95-13.26-2.27L48.93,99.6c-.22,3.16-1,6-3.81,8a2.69,2.69,0,0,1-3,2.06l-.68,1.46.23,2.32c2.68,3.64,6.47,5,10.81,5.3.18-.28.3-.74.53-.81,6.5-1.91,11-6.44,14.89-11.62a8.89,8.89,0,0,1,6.86-3.93C71.73,100.32,69.14,96.38,64.76,100Z"/><path class="cls-11" d="M62.89,119.46l-5.52.13c1.11,1.19,3.15,2.29.42,3.89,2.53,1.8,4.92.83,7.3-.36C65.77,121.06,61,122.24,62.89,119.46Z"/><path class="cls-3" d="M41.76,105.38a5.14,5.14,0,0,1,0,1l-1.19,3,1.56.27a2.69,2.69,0,0,0,3-2.06l.63-5.18-4.13,1Q41.69,104.37,41.76,105.38Z"/><path class="cls-12" d="M41.69,113.41l-.23-2.32C39.39,112.07,39.87,112.81,41.69,113.41Z"/><path class="cls-2" d="M56.78,5.87c-2.07-1.35-4.59-.7-5.1,2.55.76.42,3.44-1.22,1.9,1.65-1.16,2.16-2.61,4.16-3.93,6.23q0,.56,0,1.12l6-1.14c-.22-1.68-1.05-3.18,1-4.76C58.44,10.17,58.68,7.11,56.78,5.87Z"/><path class="cls-14" d="M20.77,14.54c-1.11,1.2-3,1.69-3.39,3.55.83,1.3,2.18,1.21,3.46,1.34l1.69-1.24a3.52,3.52,0,0,1,2.3-1.81C24.35,13.86,22.46,14.42,20.77,14.54Z"/><path class="cls-13" d="M17.38,18.1c-1.72.73-3.39,1.73-3.45,3.75s2.58-.24,2.89,1.56a4.32,4.32,0,0,0,4-4C19.57,19.31,18.21,19.4,17.38,18.1Z"/><path class="cls-8" d="M27.76,48.32c-2,2-.35,4,0,6.07a1.9,1.9,0,0,1,1,2l1.06,5c2.13.16,4.38.28,2.88-2.93-.84-1.81.55-2.74,1.08-4C30.59,53.49,31.12,49,27.76,48.32Z"/><path class="cls-7" d="M27.74,54.4a2,2,0,0,0,1,2A1.9,1.9,0,0,0,27.74,54.4Z"/><path class="cls-4" d="M41.77,106.37a5.14,5.14,0,0,0,0-1C41,105.72,41.07,106.05,41.77,106.37Z"/><path class="cls-4" d="M6.08,35.16c2.45.44,2.64-1.86,2.76-3.72l-3.25.06C6.08,32.72,3.62,34.71,6.08,35.16Z"/><path class="cls-1" d="M24.84,16.39a3.52,3.52,0,0,0-2.3,1.81l1.35,1.29c1.91-.25,1.86-1.69,1.89-3.09A2.71,2.71,0,0,0,24.84,16.39Z"/><path class="cls-1" d="M107.83,17.16l-4.92-2.91C102.94,18,105.49,17.37,107.83,17.16Z"/><path class="cls-1" d="M108.24,17.75c-.18.92.2,1.73,1.13,1.42,1.63-.56.15-1.36,0-2.05Z"/><path class="cls-5" d="M33.7,68.4l1,1Z"/><path class="cls-9" d="M69,61.58c-.72-8.53-4-11.2-12.33-10.23-1.15.13-2.32.06-3.47.08-.52,1.72-2.16,2.15-3.44,3a14.31,14.31,0,0,0-2.93,6.95c1.14.22,1.81.77,1.46,2q.08,1,.17,2c2.74.37,1.91,2.57,2.27,4.24.58,2.66.21,5.66,2.66,7.71s4.58-.61,7-.66l-.44,4.64c1.35,1.52,3.22.64,4.81,1.05,1.63-1.51,2.63-1.15,3,1l3,.1,1.1-1.09C65.94,76.13,67,68.91,69,61.58ZM53.62,56.89C57,54.68,59.5,55,62,56.64,59.46,57.41,56.89,58.27,53.62,56.89Z"/><path class="cls-6" d="M46.83,61.36a1.78,1.78,0,0,0,1.46,2C48.64,62.13,48,61.58,46.83,61.36Z"/><path class="cls-3" d="M46.33,53.79l.44-.39,0,0Z"/><path class="cls-4" d="M62.76,45.38c-2.43,1.3-4.82,2.54-7.79,2.1-1.93-.29-3.1,1.05-3.46,2.83-.26,1.28,1,.9,1.68,1.13,1.15,0,2.32.05,3.47-.08C65,50.38,68.27,53,69,61.58a1.81,1.81,0,0,0,.57.06l1.19-.27,1-8C67.33,52.3,65.25,48.61,62.76,45.38Z"/><path class="cls-3" d="M80.8,51.36l-.95-4c-2.45,2.36-4.64,5.06-8.12,6l-1,8c1.14,3.06,3.61-.23,5.12,1.08,0-.83-.07-1.65-.06-2.48,0-1.46-.39-3.25,1.24-4,2.28-1,2.33,1.79,3.68,2.46l.1-1.14V52.4C80.08,52.08,80,51.74,80.8,51.36Z"/><path class="cls-4" d="M87.8,48.34c-2.2-3.86-4.13-4.1-7.95-1l.95,4c.65.32.71.67,0,1q0,2.45,0,4.9c2.33.05,4.88,1.77,6.83-.92q0-1.49,0-3C84.53,51.64,86,50,87.8,48.34Z"/><path class="cls-7" d="M89.83,47.31l-2,1c-1.79,1.65-3.27,3.3-.11,5C92.57,52.83,88.75,49.21,89.83,47.31Z"/><path class="cls-1" d="M77.25,43.89l.3-.65-.72.07Z"/><path class="cls-8" d="M68.92,18.27c-.27,1.13,0,2.47-1.2,3.15.86,1.58-4.28,5.61,2,5C71.7,23.53,72.65,20.77,68.92,18.27Z"/><path class="cls-8" d="M75.78,24.34l.48,0h.48l-.47-1.31Z"/><path class="cls-12" d="M72.76,116.84c.25,3.24.25,3.24-1,2.67-1.17-.27-2.13-.74-2.16-2.15a1.65,1.65,0,0,0-1.86.54c0,1.48,1.2,2.93.1,4.43l5.89.07,2.09-.14q.08-1,.16-1.93l-2.14-3.93A.71.71,0,0,0,72.76,116.84Z"/><path class="cls-3" d="M86.88,83.68c-1.83.5-3.15,2.23-5.16,1.65q-.05.41-.08.82l1,1.38q.08,1.76.16,3.52l2,.42a2.38,2.38,0,0,0,.13-.69C84.62,88.21,88.39,86.74,86.88,83.68Z"/><path class="cls-6" d="M64.76,118.66l-1,.6a1.79,1.79,0,0,1-.88.21c-1.85,2.78,2.88,1.6,2.21,3.67l.3,0,1.32-.35,1.13-.5c1.1-1.5-.09-3-.1-4.43Z"/><path class="cls-11" d="M75.75,102.38c2.09-.07,2-1.55,2-3C74.9,98.94,75.42,100.72,75.75,102.38Z"/><path class="cls-6" d="M71.77,119.51q0-1.06,0-2.12l-2.19,0C69.64,118.77,70.6,119.24,71.77,119.51Z"/><path class="cls-1" d="M71.81,117.38q0,1.06,0,2.12c1.24.57,1.24.57,1-2.67Z"/><path class="cls-12" d="M63.77,119.26l1-.6C64.19,118.46,63.92,118.75,63.77,119.26Z"/><path class="cls-4" d="M80.88,83.48c-1.38.08-2.78,1-4.11-.14a7.39,7.39,0,0,1-4.92-1l-1.1,1.09.93,1.93q.13.44.25.89l.84.21,5,.92,3.84-1.27c0-.27,0-.55.08-.82l-.09-1.73Z"/><path class="cls-8" d="M80.88,83.48l.75.12a8.43,8.43,0,0,0,3.12-3.2l-3.84-.11Q80.89,81.88,80.88,83.48Z"/><path class="cls-14" d="M68.71,141.38l-1.29-.11c-.08.21-.16.41-.23.62l1.74-.23-.12-.3Z"/><path class="cls-11" d="M69.2,131.8c-.62,2.12-.65,4.25-3,5.5-.86.46-.18,1.74,1,2.11l6.65-5.88,1.85-3.19C73.29,130.06,70.37,127.79,69.2,131.8Z"/><path class="cls-7" d="M73.53,136.81l.23-.43h0Z"/><path class="cls-15" d="M67.45,140.57a.89.89,0,0,0,0,.7l1.29.11A1.05,1.05,0,0,0,67.45,140.57Z"/><path class="cls-11" d="M75.83,122.26l-2.09.14c-.07,2.21.11,4.34,1.89,6l1.16.07.41-1C75.6,126,77.25,123.73,75.83,122.26Z"/><path class="cls-2" d="M76.37,129.35l.41-.92-1.16-.07Z"/><path class="cls-7" d="M38.67,142.38l4.24-.05a3.12,3.12,0,0,1,.22-.82C41.51,141.1,39.51,138.78,38.67,142.38Z"/><path class="cls-13" d="M67.73,83.37c-1.12,0-2.31.22-3-1-1.59-.42-3.46.46-4.81-1.05-2.84-.05-5.38.55-7,3.16a1.93,1.93,0,0,0-.06.8l2.64,1.09c5.52,1.72,10.8-.61,16.2-.95l-.93-1.93Z"/><path class="cls-13" d="M73.78,91.44l-1-4.93-.84-.21c-4.82,4.6-4.81,4.6.33,9.34a3.3,3.3,0,0,1,.49.85l3-.12.3-2.91A3.67,3.67,0,0,1,73.78,91.44Z"/><path class="cls-4" d="M55.47,86.35l-2.64-1.09L49.7,86.36q-.06.49-.16,1c0,.39,0,.78,0,1.17l2.28,2.77,3.79,0h0a4.78,4.78,0,0,1,0-.86C55.35,89.09,54.66,87.76,55.47,86.35Z"/><path class="cls-14" d="M77.79,87.42c.17,2.85-1.18,4.17-4,4a3.67,3.67,0,0,0,2.31,2c3.79-.2,3.16-5.27,6.52-5.94l-1-1.38Z"/><path class="cls-13" d="M54.08,93.91c1.24-.11,1.62-1.38,1.58-2.6l-3.79,0C52.28,92.44,52.45,94.06,54.08,93.91Z"/><path class="cls-14" d="M74.1,98.21c1.31.11,1.56-.82,1.69-1.83l-3,.12C72.91,97.29,73.08,98.12,74.1,98.21Z"/><path class="cls-13" d="M55.68,91.29l.68-.41-.66-.45A4.78,4.78,0,0,0,55.68,91.29Z"/><path class="cls-5" d="M49.7,86.36l3.14-1.11a2,2,0,0,1,.06-.8C51.36,84.31,49.88,84.25,49.7,86.36Z"/><path class="cls-12" d="M45.74,102.38l-.63,5.18c2.78-1.93,3.59-4.81,3.81-8l-1.92,1Z"/><path class="cls-14" d="M78.72,72.36c-1.31-3.34-4.21-2.82-6.89-2.85,1,2.4,3.18,4.47.66,7.48-1,1.23,1.34,1.68,2.27,2.38l1-1a2.76,2.76,0,0,1,2-1.92C79.57,75.42,80.89,74.28,78.72,72.36Z"/><path class="cls-4" d="M80.73,58.44c-1.35-.67-1.4-3.51-3.68-2.46-1.63.75-1.23,2.54-1.24,4,0,.83,0,1.65.06,2.48,1.23,1.37,4.59.6,3.9,3.89a2.16,2.16,0,0,0,1,2C83.42,65.06,80.12,61.75,80.73,58.44Z"/><path class="cls-3" d="M79.77,66.35c-2.71.5-6.25-2.37-8,2l.08,1.19c2.68,0,5.58-.48,6.89,2.85,1.89-.71,2.1-2.28,2-4A2.16,2.16,0,0,1,79.77,66.35Z"/><path class="cls-2" d="M75.77,78.37l-1,1c-.15,1.74,1.4,2.62,2,4,1.33,1.13,2.74.22,4.11.14q0-1.6,0-3.19-.05-1-.1-2Z"/><path class="cls-8" d="M77.8,76.46a2.76,2.76,0,0,0-2,1.92l5-.07C81,75.78,78.17,78.09,77.8,76.46Z"/><path class="cls-4" d="M84.87,62.85c0,.25.22.51.35.76l.46-.72-.4-.77C85.14,62.37,84.88,62.61,84.87,62.85Z"/><path class="cls-2" d="M43.75,12.37v-1l-1.31.49Z"/><path class="cls-11" d="M65.4,123.18l1.32-.35Z"/><path class="cls-13" d="M72.49,77c2.52-3,.29-5.08-.66-7.48l-.08-1.19c-3.93-1.18-1.2-4.53-2.18-6.67a1.69,1.69,0,0,1-.58-.06c-2,7.33-3,14.55,2.85,20.81a7.39,7.39,0,0,0,4.92,1c-.6-1.36-2.15-2.24-2-4C73.83,78.66,71.46,78.21,72.49,77Z"/><path class="cls-6" d="M53.62,56.89c3.27,1.38,5.84.52,8.4-.25C59.5,55,57,54.68,53.62,56.89Z"/><path class="cls-6" d="M64.72,82.35c.7,1.24,1.89,1,3,1C67.35,81.2,66.35,80.84,64.72,82.35Z"/><path class="cls-5" d="M75.87,62.45c-1.51-1.31-4,2-5.12-1.08l-1.18.26c1,2.14-1.74,5.49,2.18,6.67,1.77-4.34,5.31-1.46,8-2C80.47,63.05,77.11,63.82,75.87,62.45Z"/><path class="cls-7" d="M80.8,51.36c-.78.38-.72.72,0,1C81.51,52,81.45,51.68,80.8,51.36Z"/><path class="cls-3" d="M73.78,91.44c2.83.16,4.18-1.16,4-4l-5-.92Z"/></g></g></svg>