<svg xmlns="http://www.w3.org/2000/svg" viewBox="0 0 190.85 246.18"><defs><style>.cls-1{fill:#d9d2c2;}.cls-2{fill:#47372c;}.cls-3{fill:#af8158;}.cls-4{fill:#e5e2da;}.cls-5{fill:#8c6d55;}.cls-6{fill:#ccbeac;}.cls-7{fill:#bc9670;}.cls-8{fill:#745e4f;}.cls-9{fill:#c4b5a0;}.cls-10{fill:#625042;}.cls-11{fill:#9b856d;}.cls-12{fill:#ded8cc;}.cls-13{fill:#fffefe;}.cls-14{fill:#a37242;}.cls-15{fill:#d4cab9;}.cls-16{fill:#b29f86;}</style></defs><title>Asset 1</title><g id="Layer_2" data-name="Layer 2"><g id="Layer_1-2" data-name="Layer 1"><path class="cls-1" d="M30.41,207.58c-.47,3.06-.81,6.45-4.79,7.33q-.12,1.41-.24,2.83c.06,2.69,3.66,1.8,4.12,4.08,4,1.9,1.82,6.14,1.42,7.89-1.37,6,.75,10.46,3.56,15.09,1.67.11,3.33,3,5,0,.47-1.77-3.46-2.69-1.12-4.55,1.52-1.21,3.09-.06,4.15,1.46a1.22,1.22,0,0,0,2.07.19,1.34,1.34,0,0,0-.16-2.14c-1.3-1.21-1-2.76-.91-4.21.11-3,1.49-3.37,3.83-1.77,3.76,2.58,6.39,1.64,8.27-2.71,1-2.27,1.85-4.17,5-1.54,2.51,2.11,5.91,4.17,9.41,3.14s6.09-.34,8.47,2.13c1.3-2.51,3.46-2.25,5.62-1.61,1.34.39,2.52.9,3.47-.66a12.7,12.7,0,0,0-.12-3.7c-20.09-.29-39-9-55.37-24C31.25,204.78,30.7,205.7,30.41,207.58Z"/><path class="cls-1" d="M85.86,220.49c-4.31,1.2-8.19-2.78-12.5-.93-5.17,2.22-5.61,2-5-3.79.52-4.92-3.39-7.26-5.82-10.2-.95-1.15-3.91,2.49-7.83,1.2,8.85-4.65,17.07-9.11,16.83-20a6.85,6.85,0,0,0,0-.91c-2.55-.51-4,2-6.33,2.24-.75.08-1.54.88-2.22,0a1.38,1.38,0,0,1,.42-2.11c1.58-1,.54-3.29,2.21-4.17,0-1.11.06-2.27-1.1-3-2.22.22-3.21-.79-3-3l2-2.21a2.62,2.62,0,0,0-.07-.84c-2.16,0-1.87-1.57-1.93-2.93a1.91,1.91,0,0,0-1.86-1.06c-1.74,1-3.24,4.45-5.16-.36-.66-1.65-4.59-.35-7-.61a2.11,2.11,0,0,0-1,2,1.8,1.8,0,0,1-2,2c-.22,1.37,1.39,2.61-.11,4.17-3.44,3.59-3.46,8.29-2.8,12.67,1,6.63-3.25,11.65-4.55,17.55-.39,1.78-1.73,1.35-2.93,0a3.61,3.61,0,0,0-2-1.4c16.42,15,35.28,23.71,55.37,24C87.07,225.25,86.24,220.39,85.86,220.49Z"/><path class="cls-2" d="M52.55,4.52a7.85,7.85,0,0,1-5.14,1.15A55.78,55.78,0,0,0,31.1,22.39c-1.88,3-4.58,5.58-6.91,8.35,0,.33.15.75,0,1-5.48,7.94-5.51,18-10,26.31-.86,1.6-.5,3.85-.7,5.8,4.31,0,5.26-5.17,9.1-5.89l1.55-1.26c4.26-3.5,4.29-3.5,5.42,2.34.24,1.23.6,2.28,1.89,2.65,1.58.45,2.61-.53,3.29-1.68,2.72-4.54,6.5-8.3,7.24-14.19.48-3.81,3.6-7.29,5.53-10.92,0-1.42-.12-2.91,1.9-3.09l0,0c2-6.31,3.89-12.71,8.8-17.61.8-.8,1.88-1.7,2-2.68.39-2.36,1.32-5.92.19-6.94C58.55,2.81,55.09,3.19,52.55,4.52Z"/><path class="cls-2" d="M161.79,48.72l-1.4-7.8c-2.51-3.75-5.12-7.45-6-12-3.71-1.41-5-5-7.07-7.89a42.49,42.49,0,0,0-16-13.64c-2-1-2.85-.49-4.16.41A6.39,6.39,0,0,0,125.72,9c-1,1.35-.2,5.74,1.13,7,.42.4.46,1.2.67,1.81l0,0A1.76,1.76,0,0,1,129.42,20l.94.93a20.31,20.31,0,0,1,6.84,15.3l0,1.3.32,1.38c.95.29,2.51.6,2.32,1.52-1,4.61,3.24,7.41,3.75,11.44,1.12.8.89,2,.87,3.08l1.09,1.94c1,2,2.11,4,3,6.08,1.37,3.09,3,5.63,7,5.07,1.72,0,2.85.65,3,2.51l1.94,3.36c1.54-3.5,1.36-7.12,1.15-10.85C161.37,58.27,161.71,53.49,161.79,48.72Z"/><path class="cls-3" d="M67.53,18.78l-.07.07c-.35,2.23-1.43,1.89-2.6.67-.77-.81-1.91-1.91,0-2.61,1.71-.62,1.61-1.85,1.54-3.19l-1-.08c-5.18,2.05-8.2,5.81-9.54,11.24-.81,3.28-3.38,5.39-6.39,6.86l0,0c0,1.41.22,3-1.9,3.09C45.57,38.49,42.46,42,42,45.78c-.74,5.89-4.52,9.65-7.24,14.19-.69,1.15-1.72,2.13-3.29,1.68-1.29-.37-1.65-1.42-1.89-2.65-1.13-5.84-1.16-5.84-5.42-2.34l-1.55,1.26,3.07,2.82c3.06,1.19,2.6,3.83,2.57,6.29l2,2.18c1.67-.55,1-3.37,3.25-3.36.13-1.06.55-2.18,1.78-1.75,1.92.68,1,2.46,1.1,3.85l.06,3.89c1.23-.22,2.56-.84,3.69-.58,3.44.8,3.33-1.31,3.26-3.55-4-1.25-.68-3.88-1.11-5.81-2-.34-2.29,2.18-4,2.4-.7-4.47,1.74-7.9,5.23-7.47l6.73-4.18,2.14-2c2.55-2.21,3.32-6.75,8.09-6.15.45.06,1.28-.64,1.48-1.16,2.12-5.55,6.93-5.36,11.59-5.54-.46-.91-1-1.84-2.16-1.77s-2,0-1.87-1.44c.07-1-.1-2.38,1-2.5,1.95-.21,3-2.07,4.86-2.22,4-.32,8.53,1.2,10.81-3.93.15-.34,1.56-.12,2.39-.16,2.21-1.37,2.8-3.54,2.9-5.94C83.51,19.83,75.57,18.08,67.53,18.78Z"/><path class="cls-4" d="M27.8,200.73c-.81,4.68-.71,9.63-2.18,14.18,4-.88,4.32-4.27,4.79-7.33.29-1.88.83-2.8,1.67-2.74Q29.91,202.85,27.8,200.73Z"/><path class="cls-4" d="M34.12,206.24c1.2,1.33,2.54,1.75,2.93,0,1.3-5.9,5.55-10.92,4.55-17.55-.66-4.38-.65-9.09,2.8-12.67,1.5-1.56-.12-2.8.11-4.17a1.83,1.83,0,0,1,2-2,2.11,2.11,0,0,1,1-2c-.29-2.24,1-3.64,2.54-5,1-.85,2.47-1.66,2.67-2.69,1.23-6.48,4.16-3,6.81-1.31l1.76-.06a6.5,6.5,0,0,0-1.81-4.92c-2.69-1.38-3.52-3.33-1.84-6L57.17,146c-2.35-.71-2.52-3.86-5.32-4.52-.56,2-1.54,3.89-4.25,3.29.86,3.5,2.62,6.84,1.87,10.63-.16.79,0,1.85-1.1,1.89a1.87,1.87,0,0,1-1.46-1c-1.11-4.48-2.19-9-3.06-13.52-.2-1.07,1-1.58,2.05-1.8a2.68,2.68,0,0,1,.85,0c-.7-2.5-3.05-4.28-3.11-7.07a7.71,7.71,0,0,1-1.89-7.11l.18-2.69c-2.1-1.09-3.28-2.13-2.71-5.15s-1.11-6.05-4.74-7c1.69,4.41.08,9.29,1.88,13.66,1.63,4,3.93,7.27,4,12.2.2,8.27,1.45,16.62-1,24.58-3.22,10.44-3.53,21.67-9.25,31.46a20.58,20.58,0,0,0-2.38,7q2.11,2.13,4.28,4.12A3.61,3.61,0,0,1,34.12,206.24Z"/><path class="cls-4" d="M135.07,212.87c-.51.37-1,.74-1.53,1.1A2.19,2.19,0,0,0,135.07,212.87Z"/><path class="cls-4" d="M136.48,192.85l0-.05-.34-.15Z"/><path class="cls-4" d="M137.48,210.82c.08-2.45-.39-5,1.21-7.2l-.48-2.45c-.67-.56-.79-1.12,0-1.66l-.17-3.21c-1.54-.71-1.51-2.12-1.54-3.49h0l0,.05-.3-.2.34.15a9.62,9.62,0,0,0,1-1.49c.29-.67-.09-1.92,1-1.91,1.34,0,1.05,1.31,1.14,2.22l0,.08c2.68-.41,3.9,2.09,5.94,3-.3-6.06-4.93-9.83-8.09-14.18-2.51-3.45-3.73-6.35-3.28-10.67,1-9.22,4.13-17.95,5.39-27.06.34-2.43,3.54-4.08,1.72-7-2.23-.2-2.43,1.31-3.05,3-.8,2.18-.17,5.05-2.73,6.65-2-6.17,5.06-11.79,1.1-18.32-1.35,1.22.86,4.06-2.27,3.55l-2.91,5.12c-1.25,4.75-5.53,4.11-8.94,5l-1,1a4.1,4.1,0,0,1-4,4l-.44.19-.47-.05-4,7.91.89,1,3-.07,0,0a3,3,0,0,1,2-2.93c2.36-1.31,4.18-3.55,7-4.08.41-.56,1.1-1,1.47-.33.78,1.4-.57,1.84-1.43,2.44q0,.48,0,1a6,6,0,0,1-2,5l0,3c1.8,1.32-.35,2.65,0,4h0c5.28.15,7.47,2.65,7.91,9.74a22.47,22.47,0,0,1-1.21,10.19,16,16,0,0,0,.69,14.16c.32.57.94,1.6.81,1.72-6.11,5.43,1.7,10.11.78,15.22a2.33,2.33,0,0,0,1,.15c.51-.36,1-.73,1.53-1.1C135.73,211.94,136.24,210.77,137.48,210.82Z"/><path class="cls-5" d="M58.47.17C52.31,1,46.12,2,40.92,6.1a17.18,17.18,0,0,1-8.81,3.18A89.59,89.59,0,0,0,11,14.53C-.43,18.87-1.45,20.77,1.24,32.44c1.33,5.8,2.06,12.24,8.43,15.42.7-2.28-2-3.18-2.1-5.14-1.66-2.74-4.6-5-3-8.88a71,71,0,0,1-.88-8.74,5.24,5.24,0,0,1,2.77-4.42c1.52-4.69,6.45-4,9.65-5.17A48.37,48.37,0,0,1,26,13.37c1.43-.2,3.09-1.32,4.06.16s-.19,3.07-1.39,4.27c-.64,3.63-5.08,5.05-5.22,9a1.87,1.87,0,0,1-1,2,3.22,3.22,0,0,0-.1.87,2,2,0,0,0,1.89,1.06c2.32-2.77,5-5.31,6.9-8.35A55.81,55.81,0,0,1,47.41,5.67C53.41.46,58.62,0,64,4.67c1.55,1.34,2.83,0,4.13.53l.42-.44C66.54.29,62.51-.4,58.47.17Z"/><path class="cls-2" d="M23.8,20.16A4.93,4.93,0,0,1,20.1,23c-4.21-.42-5.42,2.24-6.72,5.27a2.16,2.16,0,0,1-2.91,1.22c-1.24-.64-.38-1.73-.11-2.6,1.13-3.62-3.09-3.84-3.9-6.21A5.24,5.24,0,0,0,3.69,25.1a71,71,0,0,0,.88,8.74c2.77,2.37,3.22,5.51,3,8.88.1,2,2.8,2.86,2.1,5.14l1.58,1.7A12,12,0,0,0,15,41.93a16.24,16.24,0,0,1,7.27-12.26,3.14,3.14,0,0,1,.1-.87,2,2,0,0,1,1-2c.14-3.92,4.58-5.34,5.22-9C26.62,17.72,24.64,17.75,23.8,20.16Z"/><path class="cls-3" d="M151.42,205.85a4.47,4.47,0,0,0-2.31-4,1.31,1.31,0,0,1-.51-.5q-3.55,3.54-7.26,6.67c1.9,1.81,3.05,3.55-.75,4.87v1.93c1.84,1.45,1.66,3.16,1.12,5.27a8.08,8.08,0,0,0,.82,5.75l.79.06a2.35,2.35,0,0,0,1.13-2.51c-.76-3.68.87-6.14,4.29-6.64s2.2,3.56,3.81,5l1,.08c2.12-2,1.79-5,3.23-7.29l-3.33-4.67C151.1,209.33,149.58,208.42,151.42,205.85Z"/><path class="cls-3" d="M148.42,200.11l-1-1.29a2.76,2.76,0,0,1-1.87-3l0,0c-3.06.23-4.72-1.56-5.91-4.05l0-.08c-1.61,1.2-.76,3.19-1.52,4.67q.08,1.61.16,3.21,0,.83,0,1.66l.48,2.45c1.48,1,1.93,2.51,2.33,4.09l.31.29q3.71-3.12,7.26-6.67A2.15,2.15,0,0,1,148.42,200.11Z"/><path class="cls-6" d="M146.53,82.86h0c-.33,4.22.13,8.61-2.74,12.26a1.75,1.75,0,0,1-.06.94c-.05,3.07-.09,6.14-.16,9.21,0,1.77-.5,3.28-2.53,3.68-.49,1.94.16,4.18-1.52,5.81a3,3,0,0,1-2.87,3.15l-.32,1.8c-.31,3.72-2.37,7.13-2,11,3.14.51.93-2.33,2.27-3.55,4,6.53-3.09,12.15-1.1,18.32,2.57-1.6,1.93-4.47,2.73-6.65.62-1.69.82-3.19,3.05-3l.11-1c4.43-7.63,4.65-15.86,3.42-24.27-.15-1.05-.3-2,.68-2.65,3-8,1.26-16.79,4.16-24.81Z"/><path class="cls-7" d="M118.43,14.82l-2.49,2A23.29,23.29,0,0,1,109.61,18c-7.87.55-15.55-1.18-23.33-1.54-6.83-.31-12.58-1.9-14.88-9.27A5.35,5.35,0,0,0,71,8c.06,1.42,1.2,3.35-1.62,3.39a2.68,2.68,0,0,1-3,2.36c.07,1.34.17,2.57-1.54,3.19-1.92.7-.78,1.8,0,2.61,1.17,1.22,2.25,1.56,2.6-.67l-.39-.46.46.39c8-.7,16,1,24,1.09l1.93,0c4.84,1,9.7.33,14.57.25,4.13-.07,4.14.2,3.61,4.47,2.68-2.68,5.42-.6,8.09-.19,2.35.36,4.82,1.27,4.78-2.61h0C122.34,19.6,119.75,17.76,118.43,14.82Z"/><path class="cls-8" d="M179.8,49.77C176.26,54.18,173.15,59,168,62.41c-1.55-4.66.15-9.84-3.45-13.59l-2.78-.09c-.08,4.76-.41,9.54-.15,14.29.21,3.73.39,7.35-1.15,10.85A2.38,2.38,0,0,0,163,76.34c1.22-.11,1.17-1.76,1.48-2.81.77-2.57,0-5.68,2.86-7.49s5.42-3.61,8.13-5.42l7.13-9.69C182,49.72,180.89,49.77,179.8,49.77Z"/><path class="cls-5" d="M187.89,45.73l1.81-4.6-.26-5.19a68,68,0,0,0-33-18.14l0,1.06c9.06,3.78,18.8,6.41,25.12,14.83l.06.06c2,.2,2,1.6,1.85,3.06a19.11,19.11,0,0,1-3.68,13c1.09,0,2.2-.05,2.77,1.16l3.37-.29a1,1,0,0,0,.55-.63v.17L187,47.7C186.09,46.52,186.87,46.07,187.89,45.73Z"/><path class="cls-9" d="M39.1,91c-4.36-1.64-3.39-4.93-2.64-8.17,2.57-3.66-1.28-7.31,0-11q0-1.95-.06-3.89l-2.88-2.1c-2.25,0-1.58,2.81-3.25,3.36C34,76.37,31.68,84.4,33.48,91.83c1.82,1.81.81,4.09,1,6.16.2,2.31-.07,4.73,2.55,6,.88-3.72,2.82-7.2,2.52-11.18C39.4,92.16,39.43,91.1,39.1,91Z"/><path class="cls-10" d="M144.59,12.72c-2.78-3.34-7.31-4.15-10.33-7.16a7.45,7.45,0,0,0-5.63-.81l-1.4-.16-3.56,1.49c.1,2.65-2.25,2.86-3.83,3.83a1.09,1.09,0,0,0-.47.69l.84,4.11c2.34,1.26,3.49,5.38,7.33,3.06-.21-.62-.25-1.41-.67-1.81-1.33-1.26-2.17-5.65-1.13-7a6.39,6.39,0,0,1,1.49-1.18c1.3-.9,2.17-1.37,4.16-.41a42.49,42.49,0,0,1,16,13.64c2.08,2.84,3.36,6.48,7.07,7.89C152.76,22.53,148.71,17.6,144.59,12.72Z"/><path class="cls-8" d="M22.32,29.67A16.24,16.24,0,0,0,15,41.93a12,12,0,0,1-3.8,7.63c1.94,2.64,2.16,5.46,1.64,8.68-.28,1.72-1.72,4,.6,5.58.2-2-.16-4.21.7-5.8,4.5-8.35,4.53-18.37,10-26.31.15-.22,0-.64,0-1A2,2,0,0,1,22.32,29.67Z"/><path class="cls-8" d="M158.49,28.83c-1.54-2.22-3-4.48-4.36-6.82-2.23-3.84.25-3.08,2.32-3.14l0-1.06-3-1-.32.06-.3-.09-3.56-2.89-4.76-1.17c4.12,4.88,8.17,9.8,9.82,16.18.86,4.57,3.46,8.27,6,12a2.15,2.15,0,0,1,2.09-1.08Z"/><path class="cls-4" d="M144.83,110.48c1.23,8.41,1,16.64-3.42,24.27,1.34.08,2.62.08,3.57-1.14,4-5.16,4.32-19.86.53-25.78C144.53,108.53,144.67,109.43,144.83,110.48Z"/><path class="cls-7" d="M155.57,68c-.77,2.71-1.14,5.57-3,7.85-.06.53.16,1.26-.68,1.28-.17,0-.34-.72-.52-1.1l0-.06-2.79-1.17c-3.14,2.08-2.89,5-2,8.07l3.13.16a15.32,15.32,0,0,0,6.22-8.69c.39-1.52.58-3.39,2.66-3.83C158.42,68.64,157.29,68,155.57,68Z"/><path class="cls-9" d="M41.39,109.89c-2.64-.09-1.64-3.91-4.18-4.1-1,.9-.41,3.26-2.7,3l-.31,2,.29,1v0c3.63,1,5.34,3.89,4.74,7s.6,4.07,2.71,5.15c2.56-2.2-.92-5.31,1.13-7.59Z"/><path class="cls-11" d="M182.57,50.93l-7.13,9.69c4.86-1.9,9.81-3.7,10.49-10Z"/><path class="cls-4" d="M34.46,98c-.18-2.07.83-4.35-1-6.16-2.25,5.82-.82,11.42,1,17,2.29.22,1.67-2.14,2.7-3q-.09-.91-.19-1.83C34.4,102.73,34.66,100.3,34.46,98Z"/><path class="cls-11" d="M134.26,5.56c3,3,7.55,3.81,10.33,7.16l4.76,1.17C145.35,9.24,140.58,6,134.26,5.56Z"/><path class="cls-11" d="M115.94,16.84l2.49-2,1.77-.1-.84-4.11C116.78,11.9,116.27,14.32,115.94,16.84Z"/><path class="cls-9" d="M25.66,60.74c.92,2.07.09,4.86,2.57,6.29C28.26,64.57,28.72,61.94,25.66,60.74Z"/><path class="cls-7" d="M139.62,191.71c1.19,2.49,2.85,4.29,5.91,4.05l0-1.09C143.52,193.8,142.3,191.3,139.62,191.71Z"/><path class="cls-11" d="M119.83,9.92c1.58-1,3.93-1.18,3.83-3.83C122,7,119.63,7.17,119.83,9.92Z"/><path class="cls-7" d="M151.42,205.85c-1.84,2.57-.32,3.48,2,4A4.62,4.62,0,0,0,151.42,205.85Z"/><path class="cls-5" d="M68.56,4.76l-.42.44C68.71,6.53,69.45,7.68,71,8a5.25,5.25,0,0,1,.38-.77A5.8,5.8,0,0,0,68.56,4.76Z"/><path class="cls-11" d="M189.44,35.94l.26,5.19C191.21,39.32,191.33,37.58,189.44,35.94Z"/><path class="cls-7" d="M145.56,195.8a2.76,2.76,0,0,0,1.87,3C147.5,197.38,147.11,196.23,145.56,195.8Z"/><path class="cls-11" d="M187.89,45.73c-1,.34-1.8.78-.85,2A1.67,1.67,0,0,0,187.89,45.73Z"/><path class="cls-7" d="M148.59,201.33a1.31,1.31,0,0,0,.51.5l-.29-.72Z"/><path class="cls-7" d="M148.82,201.11l-.4-1a2.15,2.15,0,0,0,.18,1.22Z"/><path class="cls-5" d="M152.83,16.35l.08.43.3.09.32-.06Z"/><path class="cls-11" d="M127.23,4.6l1.4.16A.9.9,0,0,0,127.23,4.6Z"/><path class="cls-4" d="M34,111.18a4.66,4.66,0,0,0,.53.64l-.29-1C34.11,110.93,33.92,111.12,34,111.18Z"/><path class="cls-11" d="M186.49,50.18v0Z"/><path class="cls-12" d="M87.46,228.84a12.7,12.7,0,0,1,.12,3.7c-.95,1.56-2.13,1.05-3.47.66-2.16-.63-4.32-.9-5.62,1.61v0c4.16-1.2,7.45,2.48,11.53,2,2.49-.26,4-1.94,5.78-2.94,2.34-1.3,2.83-3.66,3.42-5.89a71.93,71.93,0,0,1-10.73.82Z"/><path class="cls-12" d="M120.48,216.59c-6.3-1.21-7.47-3.59-4.74-9.2,1.4-2.88-.4-6.84,3.19-9,.52-.31,0-1.27-.72-1.46-1.54-.38-3.24-2-4.65-.44-2.67,2.89-5.1,2.42-7.75.16-2.92-2.49-5-5.51-4.11-9.43a36.83,36.83,0,0,0,.81-8.38c-1.09.75-2.86,1.28-3.17,2.28-2.42,7.65-9,6.46-14.46,6.51-4.4,0-9.09,2-13.33-.9.24,10.93-8,15.38-16.83,20,3.92,1.29,6.88-2.35,7.83-1.2,2.43,2.94,6.33,5.28,5.82,10.2-.61,5.81-.17,6,5,3.79,4.31-1.85,8.18,2.13,12.5.93.38-.1,1.2,4.76,1.59,8.35l1,0A71.93,71.93,0,0,0,99.23,228c.62-2.33,1.34-4.52,4.37-5.21,1.94-.44-.26-3,1.06-5.5,1.86,4.65,5.64,4.66,9.33,5.36a8.06,8.06,0,0,1,2.15.72,84.39,84.39,0,0,0,9.49-4.51C124.41,217.31,122.66,217,120.48,216.59Z"/><path class="cls-13" d="M102.52,168.87h0v0Z"/><path class="cls-13" d="M102.55,168.87l.06,1.25a1.51,1.51,0,0,1,0,.64c-2,4.58-6.52,6.26-10.13,9-4.16,5.52-13.71,5.6-18,.16-4.39-.81-7.72-3.44-10.93-6.3l-2,2.21c1.27.72,3,1,3,3,1.16.69,1.07,1.85,1.1,3,.89,2.93,5.39.57,5.92,4a6.74,6.74,0,0,1,0,.91c4.24,2.86,8.93.94,13.33.9,5.47,0,12,1.14,14.46-6.51.31-1,2.08-1.53,3.17-2.28a5.22,5.22,0,0,1,.92-.07c0-2.13.54-3.8,3-4l0-1.92a2.15,2.15,0,0,1,.88-2V169l-3-.28Z"/><path class="cls-9" d="M92.74,176.11c-5.22,5.07-15.23,4.85-21.6-.94-3.1-.51-2.94-4.41-5.61-5.38a2,2,0,0,1-2.08,1q0,1,0,2a2.64,2.64,0,0,1,.07.84c3.21,2.85,6.55,5.49,10.93,6.3a24.07,24.07,0,0,0,18-.16c3.6-2.74,8.16-4.42,10.13-9l-4.3.19A9.69,9.69,0,0,1,92.74,176.11Z"/><path class="cls-12" d="M58,166.38c-3.93-2.49-3.89-4.36.62-5.94.41-.14.56-1.06.83-1.61-2.65-1.64-5.58-5.17-6.81,1.31-.2,1-1.71,1.84-2.67,2.69-1.5,1.34-2.83,2.74-2.54,5,2.42.25,6.35-1,7,.61,1.92,4.81,3.42,1.36,5.16.36C59.11,168,58.78,166.85,58,166.38Z"/><path class="cls-6" d="M61.25,158.76l-1.76.06c-.27.56-.41,1.47-.83,1.61-4.51,1.58-4.55,3.45-.62,5.94.74.47,1.08,1.58,1.6,2.4a1.91,1.91,0,0,1,1.86,1.06l1.84.46-.76-7.81Z"/><path class="cls-12" d="M65.58,181.79c-1.67.88-.63,3.18-2.21,4.17a1.38,1.38,0,0,0-.42,2.11c.68.87,1.47.06,2.22,0,2.3-.23,3.78-2.74,6.33-2.24C71,182.36,66.47,184.73,65.58,181.79Z"/><path class="cls-12" d="M61.49,175.83c-.22,2.21.77,3.22,3,3C64.49,176.83,62.77,176.55,61.49,175.83Z"/><path class="cls-13" d="M61.5,169.84c.06,1.36-.24,3,1.93,2.93q0-1,0-2a1.07,1.07,0,0,1-.11-.5Z"/><path class="cls-12" d="M44.5,171.83a1.8,1.8,0,0,0,2-2A1.83,1.83,0,0,0,44.5,171.83Z"/><path class="cls-10" d="M68.14,5.2c-1.3-.55-2.58.81-4.13-.53C58.62,0,53.41.46,47.41,5.67a7.85,7.85,0,0,0,5.14-1.15c2.54-1.33,6-1.71,7.91,0,1.13,1,.2,4.58-.19,6.94-.16,1-1.24,1.88-2,2.68-4.9,4.89-6.75,11.3-8.8,17.61,3-1.47,5.58-3.58,6.39-6.86,1.34-5.43,4.37-9.19,9.54-11.24.62-2,1.86-3,4-2.28,2.82,0,1.68-2,1.62-3.4C69.45,7.68,68.71,6.53,68.14,5.2Z"/><path class="cls-10" d="M47.51,34.87c2.12-.11,1.88-1.68,1.9-3.09C47.39,32,47.51,33.45,47.51,34.87Z"/><path class="cls-3" d="M106.72,27.43l-.23.39h0Z"/><path class="cls-3" d="M142.41,59c-4.82-2.94-8-9.86-7-15.27a41.6,41.6,0,0,0,.27-4.93c.15-.87.89-1,1.54-1.27q0-.65,0-1.31c-2.39-.45-2.82-2.68-3.37-4.36-1.18-3.64-4.19-6.71-3.47-10.94l-.94-.93a1.91,1.91,0,0,1-1.87-2.16l0,0c-3.84,2.32-5-1.8-7.32-3.06l-1.77.1c1.32,2.95,3.91,4.79,6.07,7l.24-.42-.24.43c0,3.88-2.43,3-4.78,2.61-2.68-.41-5.41-2.49-8.09.19.52-4.27.52-4.54-3.61-4.47-4.87.08-9.72.73-14.57-.25.29,1.95-.44,4.05.7,5.85s2.53,4.21.25,5.65c-2.49,1.57-4.63,0-5.83-2.58-2,1.82-.59,4.44-1.55,6.57-.77,1.73-2.22,2.68-3.41,3.94-.7-1.67-3.51-.19-3.83-2.59-.06-.48-.89-.86-1.45-1.36-.89,5.17,1.22,8.44,5.61,8.8.8.07,1.51.38,1.38,1-.75,3.56,3.8,7.55-1,10.86-1.41,1,1.24,4.65-2.57,4.64l-.13,3c1.14.71.95,1.91,1.09,3,1,.25,2.35-.09,2.63,1.37.23,1.18-.59,1.63-1.6,1.82q0,.94.08,1.88c2.35.33-.11,4.81,3.5,4.07l.19-1,1-2c-.15-1.75,1.45-2.61,2-4-1.32-3.23-1.4-8.63,1.15-8.49,4.39.23,3.76-3.25,5.71-4.5-.16-1.7.77-3.6-.9-5h0c-.14.92.32,2.32-.95,2.51-1.55.23-2.33-1.16-2.78-2.4a2.77,2.77,0,0,1,1-3.55c4.08-2.53,6.25-5.68,4.84-10.83-.68-2.5.14-4.64,3.66-4.68,2.25,0,.88-4.65,4.23-4h0l.23-.39-.22.41h0c1.21,3.62,4.09,2,6.19,1.63a41,41,0,0,1,7.74-.44c1,0,2.43.47,2.57,1.88.12,1.2-.91,1.71-1.93,1.82-2.18.23-2.95,1.15-2,3.29.67,1.53-1.12,1.78-1.58,2.74l-1.22,2.34.48,2.67a3,3,0,0,1,.9,0c4.34,2.91,10.14,4.09,11.85,10.09L131.33,56c1.92,1.41,4.83,1.75,5.17,4.85,2.47,1.92,2.73,4.67,3,7.52.45,4-.68,4.84-4,2.42,1,3.49-3.64,1.6-4.07,4.28-.24,1.47-2.67,2.46-3.39,4-1.49,3.2-1.68-.5-2.53-.32-4,1.89-7.82,4-8.18,9.19-.53,3,1.36,5.24,2.17,7.83,1.61,1.17,1.58,3.63,3.54,4.52,2.46-2.42,2.42,2.55,4.42,1.5l.22-1.77c-.36-1.48-.38-2.92,1.1-3.79,2.1-1.23-.41-1.59-.38-2.41-1.48-.56-.34-4.1-3.44-3-.2.07-3.21-1.14-1.23-2.61,2.92-2.17,5-6.13,9.61-5.28.69-1.19,1.5-2.45,3.09-1.74s.39,2,.43,3c.26,6.26-4.39,10.43-6.47,15.68-.58,2.27-1.27,4.53-1,6.92l1.94,2.12c2-.73,4.66,2.47,6.11-1.12a10.42,10.42,0,0,1-1.23-6.8c.77-3.57,3-6.25,7.44-4.9a1.72,1.72,0,0,0,.07-.93c.23-2.56-1.76-4.52-1.92-6.93-.22-3.22.54-5.8,4.66-5.32h0c-.91-3.08-1.16-6,2-8.07-3.49-4.48-4.62-9.87-5.93-15.2A1.7,1.7,0,0,0,142.41,59ZM126.7,30.33c-.2.08-.54-.19-.81-.31.12-.28.18-.7.38-.78s.54.19.81.31C127,29.82,126.89,30.25,126.7,30.33Z"/><path class="cls-14" d="M143.56,51.82c-.51-4-4.7-6.83-3.75-11.44.19-.91-1.37-1.23-2.32-1.52l-1.86-.11a41.38,41.38,0,0,1-.26,4.93c-.91,5.41,2.22,12.33,7,15.27-1.71-4.76,2.23-1.18,3.12-2.11l-1.09-1.94C143.42,54.08,141.64,53.47,143.56,51.82Z"/><path class="cls-10" d="M148.56,62.92c-.92-2.07-2-4.06-3-6.08-.88.93-4.83-2.64-3.12,2.11a1.7,1.7,0,0,1,.18.64c3.68,5,9.26,9.07,8.72,16.37l0,.06,1.19-.18c1.88-2.28,2.25-5.14,3-7.85C151.6,68.56,149.93,66,148.56,62.92Z"/><path class="cls-10" d="M133.83,31.81c.54,1.69,1,3.91,3.37,4.36a20.32,20.32,0,0,0-6.84-15.3C129.64,25.1,132.66,28.18,133.83,31.81Z"/><path class="cls-5" d="M164.13,41.93a1.85,1.85,0,0,1-1.66-2.08h0a2.15,2.15,0,0,0-2.09,1.08q.7,3.9,1.4,7.8l2.78.09Z"/><path class="cls-10" d="M143.56,51.82c-1.92,1.65-.14,2.26.87,3.08C144.46,53.79,144.68,52.61,143.56,51.82Z"/><path class="cls-10" d="M127.54,17.79A1.91,1.91,0,0,0,129.42,20,1.76,1.76,0,0,0,127.54,17.79Z"/><path class="cls-10" d="M135.64,38.75l1.86.11-.32-1.38C136.53,37.74,135.79,37.89,135.64,38.75Z"/><path class="cls-7" d="M54.2,79.94a2.83,2.83,0,0,1-2.63-3.41c.2-1.88,1.66-1.65,2.94-1.67A1.72,1.72,0,0,0,55.36,73c-3-.7-1.45-3.24-2-4.92l-1-1-.49,0L51.39,67c-2.06-.13-3.93-.47-3.78-3.21-2.89-.93-2.89-.93-4.23,4,.07,2.23.18,4.34-3.26,3.54-1.12-.26-2.45.36-3.68.58-1.26,3.66,2.59,7.31,0,11,4.72-1,5.4,2.39,5.92,5.65.33,2.09.64,4.57-2.85,4.32.3,4-1.64,7.46-2.52,11.18q.1.91.19,1.83c2.55.19,1.54,4,4.18,4.1,1.72-.29,3.39-1,4.42,1.48.76,1.83,2.34,1.37,3.65.27-2.27-6.5-3.43-13.28-4.87-20-.24-1.14-.72-3.09,1-3.41,2.42-.46,1.4,2,2.07,3.07,1.65,2.66-.54,6.57,2.88,8.58,3-5.62,7.31-10.93,4-17.94Zm-5.29,5.22c-2.17,1-3-.79-3.52-2.84a16.74,16.74,0,0,1-.26-9.1,81.25,81.25,0,0,0,4.18,7.7C50.52,82.65,50.53,84.43,48.91,85.15Z"/><path class="cls-7" d="M86.23,26c-2.27,5.14-6.85,3.61-10.81,3.93-1.83.15-2.92,2-4.86,2.22-1.14.12-1,1.53-1,2.5-.1,1.44.71,1.52,1.87,1.44s1.69.86,2.16,1.77c1.49,2.07-.17,3.45-1.09,5l0,2c1,.33,1.07,1.12,1,2,1.79,2.84,4.45,5.27,4.08,9.11-.29,3,3.88,2.23,4.2,4.78,3.81,0,1.17-3.67,2.57-4.64,4.81-3.31.26-7.3,1-10.86.13-.61-.58-.93-1.38-1-4.4-.36-6.51-3.63-5.61-8.8.56.5,1.39.88,1.45,1.36.32,2.4,3.13.92,3.83,2.59,1.19-1.26,2.64-2.22,3.41-3.94,1-2.13-.48-4.75,1.55-6.57q0-1.51.06-3C87.79,25.85,86.38,25.63,86.23,26Z"/><path class="cls-2" d="M64.51,50.76l-12.11-.09-2.15,2a10.88,10.88,0,0,1,2.82,1.82c1.74,2.14.15,2.35-1.57,2.35.38,1.8.51,3.79,3,4,.36-1.67.58-3.4,2.43-4.83-1.14,4.46,1.83,5.41,6.06,6-3.36,1.51-5.45.74-7.49.87-.09,1,2.39,3.11-1.06,2.47-1.69-.32-1.84.67-2.11,1.77l1,1,5,.91,1.14.84c5.06-4.13,6.34-9.9,7-16A3,3,0,0,1,64.51,50.76Z"/><polygon class="cls-2" points="51.49 56.83 51.5 56.83 51.5 56.83 51.49 56.83"/><polygon class="cls-2" points="66.49 53.83 66.49 53.83 66.5 53.83 66.49 53.83"/><path class="cls-10" d="M51.07,56.59l.43.24h0Z"/><path class="cls-10" d="M55.52,62.81a1.73,1.73,0,0,1-1-2v0c-2.52-.17-2.64-2.16-3-4h0l-.43-.24.43.24h0c1.72,0,3.31-.21,1.57-2.35a10.88,10.88,0,0,0-2.82-1.82l-6.73,4.18-1.25,5.07c.42,1.93-2.88,4.56,1.1,5.81,1.34-4.89,1.34-4.89,4.23-4A4.48,4.48,0,0,1,51.39,67l.48.09.49,0c.27-1.1.41-2.08,2.11-1.77,3.45.64,1-1.52,1.06-2.47Z"/><path class="cls-8" d="M62,43.37c-.2.52-1,1.22-1.48,1.16-4.76-.61-5.53,3.93-8.08,6.15l12.11.09,1.83-1a3.68,3.68,0,0,0-1-3.15c-1.59-1.7-.69-3.48.45-4.95s3-1.79,4.93-1.88c2.78-.13-1.27,3.5,1.78,3.06.92-1.54,2.58-2.92,1.09-5C68.89,38,64.08,37.82,62,43.37Z"/><path class="cls-14" d="M93.45,19.91l-1.93,0c-.1,2.4-.69,4.57-2.9,5.94q0,1.51-.06,3c1.21,2.57,3.35,4.15,5.83,2.58,2.28-1.44,1-3.74-.25-5.65S93.73,21.86,93.45,19.91Z"/><path class="cls-14" d="M38.29,64.31c1.69-.21,2-2.74,4-2.4l1.25-5.07C40,56.41,37.59,59.83,38.29,64.31Z"/><path class="cls-5" d="M65.38,13.65l1,.08a2.68,2.68,0,0,0,3-2.36C67.24,10.68,66,11.63,65.38,13.65Z"/><path class="cls-7" d="M35.27,64.1c-1.23-.44-1.64.68-1.78,1.75L36.37,68C36.31,66.57,37.19,64.78,35.27,64.1Z"/><path class="cls-7" d="M52.61,125.63q-.11-1.88-.23-3.76c-3.87-.5-6.13-3.77-9.3-5.45-2,2.28,1.44,5.38-1.13,7.58l-.18,2.69c2.46,1.88,2.36,4.45,1.89,7.11.05,2.79,2.41,4.57,3.11,7.07,1.16.42,2.68,1.58,2.52-1-.08-1.22-1.2-2.62.51-3.44s2.07,1,3,1.76A7.58,7.58,0,0,0,55,139l.44-1.25,0-2.08C54.47,132.35,49.6,130.09,52.61,125.63Z"/><path class="cls-8" d="M64.38,140.85c-.06-1-1.24-1.83-.49-3l-8.45-.11L55,139c.81,2.29,2.91,4.18,2.17,7l.43,1.82a11.93,11.93,0,0,1,1.84,6,6.5,6.5,0,0,1,1.81,4.92l1.33,3.73c3-5.21,1.2-10-1.31-14.71C57.18,143.17,61,142.11,64.38,140.85Z"/><path class="cls-9" d="M52.79,138.16c-.93-.77-1.29-2.57-3-1.76s-.58,2.22-.51,3.44c.16,2.6-1.36,1.45-2.52,1a2.68,2.68,0,0,0-.85,0l.54,2a1.8,1.8,0,0,1,1.13,1.84l0,0c2.71.6,3.7-1.25,4.25-3.29,2.8.67,3,3.81,5.32,4.52.75-2.78-1.36-4.66-2.17-7A7.58,7.58,0,0,1,52.79,138.16Z"/><path class="cls-13" d="M47.58,144.76a1.75,1.75,0,0,1-1.13-1.84l-.54-2c-1,.22-2.26.73-2.05,1.8.87,4.54,1.95,9,3.06,13.52a1.87,1.87,0,0,0,1.46,1c1.11,0,.94-1.1,1.1-1.89.75-3.79-1-7.13-1.87-10.63Z"/><path class="cls-9" d="M41.77,126.69a7.71,7.71,0,0,0,1.89,7.11C44.12,131.13,44.23,128.57,41.77,126.69Z"/><path class="cls-6" d="M59.44,153.85a11.93,11.93,0,0,0-1.84-6C55.92,150.51,56.75,152.46,59.44,153.85Z"/><path class="cls-1" d="M125.63,218.89a6.91,6.91,0,0,1,1.07,2.14c1,3.17,1.82,5.31-1.58,7.36-1.16.7-.88,2.39.37,3.44,2.2.67,3.1-1.94,5-2,0-1.11-.18-2.3,1-3.05-.44-3.09,4-2.23,4-5-.09-1.08.23-2.49-1.19-2.81-3-.66-2.52-2.41-2-4.19C130.08,216.28,127.87,217.65,125.63,218.89Z"/><path class="cls-1" d="M132.5,213.82c.92-5.11-6.89-9.79-.78-15.22.14-.12-.49-1.14-.81-1.72a16,16,0,0,1-.69-14.16,22.47,22.47,0,0,0,1.21-10.19c-.44-7.09-2.63-9.58-7.91-9.74,3,6.07,2.5,7.58-3.25,10.81-2.83,1.59-7.91-1.27-8-4.51,0-.33.2-.78.05-1-3.63-4.54.11-7.1,2.72-9.84a3.91,3.91,0,0,0,1.36-3.51l-3,.07-1.79,1-2.37,1.79c.11.67.15,1.41-.6,1.64s-1.14-.38-1.29-1.08l-2.64.65-.17,3c4.52.61,4.89,1.55,2.8,7.13q0,.92,0,1.83c1.68,1.53.46,1.81-.88,2l0,1.92c.14,2.21.3,4.43-3,4a5.19,5.19,0,0,0-.92.07,36.83,36.83,0,0,1-.81,8.38c-.9,3.92,1.19,6.94,4.11,9.43,2.65,2.26,5.08,2.73,7.75-.16,1.41-1.53,3.11.06,4.65.44.76.19,1.24,1.15.72,1.46-3.58,2.14-1.79,6.1-3.19,9-2.73,5.61-1.56,8,4.74,9.2,2.18.42,3.93.72,5.16,2.3,2.24-1.24,4.45-2.61,6.62-4.06C132.35,214.49,132.44,214.15,132.5,213.82Z"/><path class="cls-10" d="M111.91,132.92c-.32,2.18-2.06,2.93-3.77,3.69,0,2.09-1.31,3.05-3.1,3.87-3.46,1.59-5.29,4.24-4.38,8.24,2.87-2,4.46,2.28,7.12,1-.23,3.56-5.56,5-3,9.09l2.64-.65,1.89-.56,2.37-1.79a1.81,1.81,0,0,1,.9-2l4-7.91c-.19-2.51,1-4.38,2-6.64a15.57,15.57,0,0,0-.16-14.35C115,126.55,115,131,111.91,132.92Z"/><path class="cls-5" d="M131.4,108.87c0,3,0,6.09-3.89,6.93.45,1.28-1.8,2.49.16,4s-.36,2.7-1,3.64a3.36,3.36,0,0,1-4,1.25c-2-.81-.22-2.27-.35-3.42-.06-.49-.05-1-.08-1.48-1.33.2-2.67.39-2.84,2.13a4.52,4.52,0,0,1,.1.9l.4.28-.5-.18c-.88.43-.93,1.26-1,2.07a15.58,15.58,0,0,1,.15,14.35c-1.06,2.26-2.21,4.13-2,6.64l.47.05.44-.19a5.67,5.67,0,0,1,4-4l1-1a7.22,7.22,0,0,1,2.88-4c1.27-4,1.19-8.32,6.11-10.75,1.33-.66,2.65-4.54,4.85-6.34l.32-1.8c-.75-.22-2-.23-1.68-1.31.66-2.41,2.85-1.63,4.54-1.84,1.68-1.63,1-3.87,1.52-5.81l-3.53-1.2C136.07,111.34,133.38,108.14,131.4,108.87Z"/><path class="cls-15" d="M118.49,151.83c0,1.44.07,2.94-2,2.93l0,0a3.91,3.91,0,0,1-1.36,3.51c-2.61,2.74-6.35,5.3-2.72,9.84.15.19-.06.64-.05,1,.08,3.24,5.16,6.1,8,4.51,5.75-3.23,6.21-4.74,3.25-10.81h0c-3.52-1.32-.75-2.65,0-4l0-3c-1.93-2.67-.49-4,2-5q0-.48,0-1l0-2.12C122.67,148.28,120.85,150.52,118.49,151.83Z"/><path class="cls-7" d="M131.49,126c-4.92,2.43-4.84,6.79-6.11,10.75,2.17.57,4.05-.6,6.06-1l2.91-5.11c-.38-3.85,1.68-7.25,2-11C134.14,121.5,132.82,125.38,131.49,126Z"/><path class="cls-12" d="M133.54,214l-1.28.86c-.47,1.77-.94,3.52,2,4.19,1.42.32,1.1,1.73,1.19,2.81l1,0c1.55.59,3.41,1.55,2.63-1.58a43,43,0,0,0-1.61-4.45c-1.81-1.58.48-3.21,0-4.81q-1.23.95-2.48,1.85A2.19,2.19,0,0,1,133.54,214Z"/><path class="cls-12" d="M132.5,213.82c-.07.33-.16.67-.25,1l1.28-.86A2.32,2.32,0,0,1,132.5,213.82Z"/><path class="cls-12" d="M135.07,212.87q1.25-.9,2.48-1.85a1.53,1.53,0,0,0-.07-.2C136.24,210.77,135.73,211.94,135.07,212.87Z"/><path class="cls-15" d="M137.55,211c.49,1.6-1.81,3.23,0,4.81l3-1q0-1,0-1.93c-1-1.16-1.48-2.28-1.14-3.33C138.82,210,138.19,210.54,137.55,211Z"/><path class="cls-15" d="M141,207.71c-.39-1.58-.84-3.13-2.33-4.09-1.6,2.2-1.13,4.75-1.21,7.2a1.53,1.53,0,0,1,.07.2c.63-.49,1.26-1,1.89-1.48A3.74,3.74,0,0,1,141,207.71Z"/><path class="cls-9" d="M125.38,136.79a7.22,7.22,0,0,0-2.88,4c3.41-.92,7.69-.28,8.94-5C129.43,136.19,127.55,137.37,125.38,136.79Z"/><path class="cls-7" d="M138.46,189.41c-1.06,0-.68,1.23-1,1.91a10.47,10.47,0,0,1-1,1.54l0,0c0,1.38,0,2.78,1.55,3.49.76-1.48-.09-3.47,1.52-4.67C139.51,190.72,139.8,189.43,138.46,189.41Z"/><path class="cls-1" d="M123.56,155.84a6,6,0,0,0,2-5C123.07,151.81,121.63,153.17,123.56,155.84Z"/><path class="cls-1" d="M123.52,158.82c-.75,1.33-3.52,2.65,0,4C123.17,161.47,125.32,160.14,123.52,158.82Z"/><path class="cls-9" d="M117.49,145.8a4.1,4.1,0,0,0,4-4A5.67,5.67,0,0,0,117.49,145.8Z"/><path class="cls-1" d="M125.49,147.75l0,2.12c.86-.6,2.21-1,1.43-2.44C126.59,146.76,125.9,147.2,125.49,147.75Z"/><path class="cls-1" d="M116.46,154.76c2.1,0,2-1.49,2-2.93A3,3,0,0,0,116.46,154.76Z"/><path class="cls-16" d="M111.65,155.86l1.79-1-.89-1A1.81,1.81,0,0,0,111.65,155.86Z"/><path class="cls-7" d="M138.22,201.17q0-.83,0-1.66C137.43,200.05,137.54,200.6,138.22,201.17Z"/><path class="cls-7" d="M136.48,192.85l0,0-.35-.15Z"/><path class="cls-10" d="M26,13.37a48.37,48.37,0,0,0-9.88,2.14C12.91,16.71,8,16,6.46,20.68c.81,2.38,5,2.59,3.9,6.21-.27.87-1.14,2,.11,2.6a2.16,2.16,0,0,0,2.91-1.22c1.3-3,2.5-5.69,6.72-5.27a4.93,4.93,0,0,0,3.7-2.84c.84-2.41,2.83-2.44,4.87-2.35,1.2-1.2,2.45-2.67,1.39-4.27S27.42,13.18,26,13.37Z"/><path class="cls-10" d="M4.58,33.84C3,37.68,5.91,40,7.57,42.72,7.8,39.35,7.34,36.2,4.58,33.84Z"/><path class="cls-8" d="M22.42,28.8a1.87,1.87,0,0,0,1-2A2,2,0,0,0,22.42,28.8Z"/><path class="cls-9" d="M140.58,212.87c3.8-1.32,2.65-3.06.75-4.87-.62.53-1.25,1-1.88,1.54C139.1,210.59,139.56,211.7,140.58,212.87Z"/><path class="cls-9" d="M139.45,209.54c.63-.51,1.26-1,1.88-1.54l-.31-.29A3.74,3.74,0,0,0,139.45,209.54Z"/><path class="cls-7" d="M136.29,101a10.43,10.43,0,0,0,1.23,6.8l3.53,1.2c2-.41,2.49-1.92,2.53-3.68.07-3.07.11-6.14.15-9.21C139.29,94.7,137.06,97.38,136.29,101Z"/><path class="cls-7" d="M141.87,88.19c.16,2.41,2.16,4.37,1.92,6.93,2.86-3.65,2.41-8,2.74-12.26C142.41,82.39,141.65,85,141.87,88.19Z"/><path class="cls-3" d="M135,116.6c-.3,1.08.93,1.09,1.68,1.31a3,3,0,0,0,2.87-3.15C137.83,115,135.64,114.19,135,116.6Z"/><path class="cls-3" d="M67.45,18.86l.07-.07-.46-.39Z"/><path class="cls-2" d="M183.48,36.81c-2.1-.12-2-1.56-1.85-3.06l-.06-.06c-3.76,2.08-3.81,6.13-5,9.56-.36,1.06-.16,2.48-1.85,2.37-1.37-.09-1.91-1.09-2.19-2.31-1.46-6.38-5.74-10.68-10.66-14.53-1.17-.91-2.29-1.36-3.4.05l4,11h0c1.25.14,2.09.6,1.66,2.08q.21,3.45.42,6.89c3.61,3.75,1.9,8.93,3.45,13.59,5.13-3.4,8.24-8.23,11.78-12.64A19.11,19.11,0,0,0,183.48,36.81Z"/><path class="cls-10" d="M156.45,18.86c-2.07.06-4.56-.7-2.32,3.14,1.37,2.35,2.82,4.6,4.36,6.82,1.11-1.41,2.23-1,3.4-.05,4.92,3.84,9.21,8.15,10.66,14.53.28,1.22.82,2.22,2.19,2.31,1.69.11,1.49-1.31,1.85-2.37,1.18-3.43,1.22-7.47,5-9.56C175.25,25.27,165.51,22.64,156.45,18.86Z"/><path class="cls-10" d="M181.63,33.75c-.17,1.49-.25,2.94,1.85,3.06C183.59,35.35,183.6,34,181.63,33.75Z"/><path class="cls-3" d="M36.46,82.81c-.75,3.24-1.72,6.52,2.64,8.17.32.12.3,1.18.43,1.81,3.49.25,3.18-2.24,2.85-4.32C41.86,85.2,41.18,81.81,36.46,82.81Z"/><path class="cls-14" d="M142.59,59.59c1.31,5.33,2.44,10.72,5.92,15.2l2.8,1.17C151.85,68.67,146.27,64.64,142.59,59.59Z"/><path class="cls-14" d="M151.36,76c.17.39.35,1.1.52,1.1.84,0,.61-.75.68-1.28Z"/><path class="cls-5" d="M52.4,115.84c-1.3-1.18-1-3.46-2.95-4.19-1.32,1.1-2.9,1.56-3.66-.27-1-2.47-2.69-1.77-4.41-1.49q.85,3.26,1.69,6.52c3.18,1.68,5.43,4.95,9.3,5.45C54.27,119.87,51.93,117.85,52.4,115.84Z"/><path class="cls-4" d="M104.66,217.33c-1.32,2.5.87,5.07-1.06,5.5-3,.69-3.75,2.88-4.37,5.21a75.51,75.51,0,0,0,16.92-4.64,8.06,8.06,0,0,0-2.15-.72C110.3,222,106.52,222,104.66,217.33Z"/><path class="cls-1" d="M49.49,240.83a2.06,2.06,0,0,1-2,1c.08-.88-.32-2.08.74-2.46S49.31,240.13,49.49,240.83Z"/><path class="cls-12" d="M74.43,179.91c4.28,5.45,13.84,5.36,18-.16A24.07,24.07,0,0,1,74.43,179.91Z"/><path class="cls-12" d="M102.54,168.83h0v0Z"/><path class="cls-12" d="M100.48,163.9l-.21-2-1.93,2.11c-.74,2.29-1.11,4.58-.09,6.89l4.3-.19a1.51,1.51,0,0,0,0-.64c-.57-.4-1.18-.8-.07-1.27C103.35,166.58,100.5,165.82,100.48,163.9Z"/><path class="cls-12" d="M104.58,161.83l-.13,2q0,2.44-.08,4.88l3,.28C109.47,163.38,109.1,162.45,104.58,161.83Z"/><path class="cls-9" d="M100.48,163.9c0,1.93,2.9,2.69,2,5l1.85-.19q0-2.44.08-4.88C103.08,161.78,101.79,162.93,100.48,163.9Z"/><path class="cls-12" d="M103.42,178.79c3.33.39,3.17-1.83,3-4C104,175,103.38,176.65,103.42,178.79Z"/><path class="cls-12" d="M107.38,170.79a2.15,2.15,0,0,0-.88,2C107.84,172.6,109.06,172.32,107.38,170.79Z"/><path class="cls-9" d="M102.6,170.12l-.06-1.28C101.41,169.31,102,169.71,102.6,170.12Z"/><path class="cls-10" d="M96.53,163.86a3.46,3.46,0,0,1-.27.84c.15,7.6-5.71,10.52-13.73,6.83-5.31,1.28-9.08-2.38-13.4-4.23-1-.44-.44-1.78-.67-2.69-3.57.27-.84,4.07-2.92,5.18,2.66,1,2.51,4.87,5.61,5.38,7.17,1,14.29,3.07,21.6.93a9.68,9.68,0,0,0,5.51-5.16c-1-2.31-.65-4.6.09-6.89Z"/><path class="cls-1" d="M67.54,143.94c-.47.12-1.17.09-1.37.39-1.69,2.55-2.55,3.2-4.9,3.45,2.51,4.72,4.26,9.51,1.31,14.71l.76,7.81a1.07,1.07,0,0,0,.12.5,2,2,0,0,0,2.08-1c2.07-1.11-.65-4.91,2.92-5.18l.11-4.77c.28-2.74-1.27-5.45-.1-8.2-.77-1.88.81-3.11,1.29-4.65Z"/><path class="cls-5" d="M71.15,175.18c6.37,5.78,16.37,6,21.6.93C85.44,178.25,78.32,176.13,71.15,175.18Z"/><path class="cls-5" d="M121.48,71.65c-.93,1.7-2.6,1-4,1.22-3.61,1.92-4.57-2.28-7-3-3.25-.31-3-2.77-3-5l-1-1.09c-5,.73-1.11-3.82-2.95-5-1.09.52-1.42,2.51-3.16,1.72a1.42,1.42,0,0,1-.69-1.16c.48-2,2.19-2.2,3.82-2.5.65-2.43,2.33-4.18,3.94-6-2.78-1.33-.43-3.47-.81-5.18q0-1.43.05-2.86h-1.17c-.13,4.4-5.56,6.71-4.44,11.84.35,1.61-2.31,1.05-3.68,1.21-2,1.24-1.32,4.73-5.71,4.5-2.55-.14-2.47,5.27-1.15,8.49,2.84-1,2.29-4.45,4.54-6.1,2.15,2.08,3,5.5,7.19,7.19L88.48,72.83l-1,2c.79.49.55.78-.18,1-3.61.74-1.15-3.73-3.5-4.07-3,1.11-5.17,3.43-4.36,6.39.63,2.28-1.8,7.1,3.86,6.63,1.39-3.34,2.17-7.31,7.13-7,2.1-3.43,6.78-4.33,10.76-1.88-1.56,1.26-4.55-.94-5.31,2.82,5.81-.68,8.65,3.08,10.51,8a2.18,2.18,0,0,0,.62-2.82,4,4,0,0,1,1.25-4.49c1.95-1.36,2.69,1,3.84,2a3.83,3.83,0,0,0,1.39.47,16.56,16.56,0,0,0,0-2.43c-.45-3.36.47-4.89,4.17-3.64,1.16.39,2.57,0,3.87,0-.16-1.72,2.35-2.11,2-3.94Z"/><path class="cls-8" d="M83.81,71.74l-.08-1.88-1.23,0h0l-.23.41.23-.41h0q.1-1.57.2-3.15c-.14-1.08,0-2.28-1.09-3-5.7-2-8.05-1.1-11.81,4.86-1,1.55-1.3,3.24-3.34,1.24a1.8,1.8,0,0,0-2,2c-.7,2-.51,4.34-2,6.1,0,3.4-1.78,6.26-3,9.28-1,2.61-1.07,4.81,1.21,6.71,5.81-2.23,7.61-7.7,9.61-12.68.79-2,1-4,3.36-4,2.67,0,1.46,2.39,1.86,3.79.87,3,3.32,4.87,5.65,6.56,1.48,1.07,2.36-.09,2.12-2.69-5.66.47-3.23-4.35-3.86-6.63C78.64,75.18,80.81,72.85,83.81,71.74Z"/><path class="cls-8" d="M82.26,70.23l.23-.41h0Z"/><path class="cls-8" d="M117.41,87.92c-1.63-.89-3.38-1.69-2.9-4.08a2.05,2.05,0,0,1-1-2h0a3.83,3.83,0,0,1-1.39-.46c-1.15-1-1.89-3.39-3.84-2A4,4,0,0,0,107,83.83a2.18,2.18,0,0,1-.62,2.82c-1.86-4.89-4.7-8.65-10.51-8,.76-3.75,3.75-1.56,5.31-2.82-4-2.45-8.66-1.56-10.76,1.88,3.34,5,6.65,10,10,15,.64.94,1.77,2.6,2.2,2.46,4.54-1.48,5.49,2.31,7.36,4.74,1.5-3.58,2.9.81,4.36.05-1.14-4.94,3.36-2.93,5.19-4.2C118.77,93.17,116.88,90.88,117.41,87.92Z"/><path class="cls-7" d="M106.49,27.82h0Z"/><path class="cls-7" d="M120.42,29a41,41,0,0,0-7.74.44c-2.1.37-5,2-6.19-1.63-3.35-.6-2,4-4.23,4-3.52,0-4.34,2.18-3.66,4.68,1.41,5.15-.76,8.3-4.84,10.83a2.77,2.77,0,0,0-1,3.55c.45,1.24,1.23,2.62,2.78,2.4,1.27-.19.81-1.58.95-2.51l-1.3-.36.25-.38,1.07.73c1.67,1.44.73,3.33.9,5,1.37-.16,4,.4,3.68-1.21-1.12-5.13,4.31-7.44,4.44-11.84-.14-1.36-.08-2.63,1.37-3.34l.44-.93c1.15-2.46,2.29-2.29,3.42,0a1.84,1.84,0,0,1,.79.24h2l3.95-.05c.46-1,2.26-1.21,1.58-2.74-.94-2.14-.17-3.06,2-3.29,1-.11,2-.61,1.93-1.82C122.85,29.49,121.44,29,120.42,29Z"/><path class="cls-11" d="M129.46,106.75a10.85,10.85,0,0,0-4,6c-.5,1.66-1.7,2.3-3,1.69-1.69-.81-.71-2.26-.07-3.38,1.76-3.07,4.85-5.4,5.16-9.28-2,1.05-2-3.92-4.42-1.5,1.62,4-1.75,6.46-2.85,9.61-.4,1.15-1.55,1-2.57.82-1.59-.32-2.06-1.44-2.24-2.89-.32-2.62-.71-5.24-1.08-7.86-1.47.75-2.87-3.63-4.37-.05L115.2,119a21.89,21.89,0,0,0,4.24-2.18c2.07-1.7,2.78-.63,3.35,1.24,1.73-.42,2.4-3.09,4.73-2.21,3.91-.84,3.91-3.89,3.89-6.93Z"/><path class="cls-5" d="M77.53,55.91c.37-3.84-2.29-6.27-4.08-9.11l-2.65.13,0,2.87c3.07,3.19,3.71,8.5.64,11.79a29.14,29.14,0,0,0-5,8.19c2,2,2.36.32,3.34-1.24,3.76-6,6.11-6.82,11.81-4.86q.06-1.5.13-3C81.41,58.15,77.24,58.93,77.53,55.91Z"/><path class="cls-7" d="M135.55,70.76c-.75-.23-.84-.53-.11-.94-.41-5.4-.92-5.76-5.49-3.89a2.1,2.1,0,0,1-.3.92c-.12,1.42,0,3-2.17,3h0c-.25,1-1,1.13-1.85,1.21a2.18,2.18,0,0,1-2.11.81h0c.38,1.83-2.14,2.22-2,3.94h0l2.05,1,2,1.95c.85-.18,1,3.51,2.53.31.72-1.54,3.15-2.53,3.39-4,.43-2.68,5-.79,4.08-4.28Z"/><path class="cls-10" d="M119.58,95.75c-1.84,1.27-6.33-.74-5.19,4.2.36,2.62.76,5.23,1.08,7.86.17,1.45.65,2.57,2.24,2.89,1,.21,2.17.33,2.57-.82,1.11-3.15,4.47-5.65,2.85-9.61C121.16,99.38,121.19,96.92,119.58,95.75Z"/><path class="cls-10" d="M136.5,60.83c-2.55-.73-4.95-1.63-5.16-4.85l-1.85-2.12-1.09.13c.29,4-.51,8.17,1.56,12,4.57-1.87,5.08-1.51,5.49,3.89a2.51,2.51,0,0,1,.11.94h0c3.29,2.42,4.42,1.56,4-2.42C139.22,65.51,139,62.76,136.5,60.83Z"/><path class="cls-5" d="M117.63,43.77c.06,2.18-.84,3.34-3.17,3a4.7,4.7,0,0,1-.9.11c-.3,2.17-.1,4.14,2.1,5.33,4.47-1,8.75-.72,12.74,1.77l1.09-.13C127.77,47.86,122,46.68,117.63,43.77Z"/><path class="cls-11" d="M121.51,75.79h0Z"/><path class="cls-11" d="M121.51,75.8c-1.29,0-2.69.36-3.84,0-3.7-1.26-4.63.27-4.17,3.64a16.57,16.57,0,0,1,0,2.43h0c1.31.17,2.54.38,1,2-.48,2.39,1.27,3.19,2.9,4.08.36-5.17,4.13-7.3,8.18-9.19l-2-1.95C121.9,78.46,121.66,77.23,121.51,75.8Z"/><path class="cls-7" d="M136.52,81.13c-1.59-.71-2.4.55-3.09,1.74q0,2.46,0,4.92l-.94,1c-2.74.54-2.25,3.67-4,5,0,.82,2.48,1.18.38,2.41-1.47.86-1.46,2.31-1.1,3.79l2.72-.17c2.09-5.25,6.73-9.42,6.47-15.68C136.91,83.08,138,81.8,136.52,81.13Z"/><path class="cls-14" d="M123.82,88.16c-2,1.47,1,2.68,1.23,2.61,3.09-1.07,2,2.47,3.44,3,1.76-1.32,1.28-4.45,4-5l.94-1q0-2.46,0-4.92C128.82,82,126.74,86,123.82,88.16Z"/><path class="cls-2" d="M114.48,40.84c-1.44,0-2.92,0-3-2a1.84,1.84,0,0,0-.79-.24l-3.42,0-.44.93a2.5,2.5,0,0,1-.2,3.34q0,1.43,0,2.86c1.36.17,2.83.2,2.74,2.19l4.19-1a4.65,4.65,0,0,0,.91-.11,3.2,3.2,0,0,1,2.27-3l-.48-2.67Z"/><path class="cls-8" d="M95.07,62.75c-2.25,1.65-1.7,5.08-4.54,6.1-.59,1.38-2.19,2.23-2,4l13.77-2.89C98,68.25,97.22,64.83,95.07,62.75Z"/><path class="cls-9" d="M127.76,100l-.22,1.77c-.31,3.88-3.39,6.21-5.16,9.28-.64,1.12-1.62,2.57.07,3.38,1.27.61,2.47,0,3-1.69a10.84,10.84,0,0,1,4-6c-.25-2.39.44-4.65,1-6.92Z"/><path class="cls-5" d="M131.33,56c.21,3.22,2.61,4.12,5.16,4.85C136.16,57.74,133.25,57.39,131.33,56Z"/><polygon class="cls-5" points="82.5 69.83 82.5 69.83 82.49 69.83 82.5 69.83"/><path class="cls-5" d="M82.69,66.68q-.1,1.57-.2,3.15l1.23,0c1-.19,1.83-.64,1.6-1.82C85,66.59,83.68,66.93,82.69,66.68Z"/><path class="cls-10" d="M116.73,43.75a3.2,3.2,0,0,0-2.27,3c2.32.33,3.23-.83,3.16-3A3,3,0,0,0,116.73,43.75Z"/><path class="cls-5" d="M114.48,40.84l1.78.23,1.22-2.33-3.95.05Z"/><path class="cls-7" d="M126.26,29.23c-.2.08-.26.51-.38.78.28.12.61.39.81.31s.26-.51.38-.78C126.8,29.43,126.46,29.16,126.26,29.23Z"/><path class="cls-8" d="M87.49,74.82l-.18,1C88,75.61,88.28,75.31,87.49,74.82Z"/><path class="cls-7" d="M124.5,21.83l.24-.43-.24.42Z"/><path class="cls-7" d="M106.5,27.84l.22-.41-.23.39Z"/><path class="cls-8" d="M162.48,39.85a1.85,1.85,0,0,0,1.66,2.08C164.56,40.45,163.72,40,162.48,39.85Z"/><path class="cls-11" d="M62.47,77.85c-3.75-.74-5.31,2.76-8,4.12,3.35,7-1,12.32-4,17.94-.5,3.45,1.16,6.2,2.91,8.92,3.6-2.06,3.43-6,4.66-9.25.74-2,1.73-3.83,2.61-5.75-2.28-1.9-2.24-4.1-1.21-6.71C60.69,84.11,62.45,81.25,62.47,77.85Z"/><path class="cls-9" d="M50.53,99.91c-3.42-2-1.23-5.93-2.88-8.58-.67-1.08.34-3.53-2.07-3.07-1.7.32-1.23,2.27-1,3.41,1.44,6.7,2.6,13.48,4.87,20,1.93.73,1.65,3,2.95,4.19l1-7C51.69,106.11,50,103.36,50.53,99.91Z"/><path class="cls-5" d="M55.55,72.77l-.2.19a1.72,1.72,0,0,1-.84,1.89c-.32,1.68,2.28,3.54-.31,5.08q.14,1,.28,2c2.66-1.36,4.23-4.85,8-4.12,1.51-1.76,1.33-4.07,2-6.1l-4,.14C59.32,74.75,57.29,73,55.55,72.77Z"/><path class="cls-3" d="M45.12,73.21a16.74,16.74,0,0,0,.26,9.1c.55,2,1.35,3.8,3.52,2.84,1.62-.72,1.61-2.5.4-4.24A81.25,81.25,0,0,1,45.12,73.21Z"/><path class="cls-3" d="M54.52,74.85c-1.28,0-2.74-.21-2.94,1.67a2.83,2.83,0,0,0,2.63,3.41C56.8,78.39,54.2,76.53,54.52,74.85Z"/><path class="cls-5" d="M55.36,73l.2-.19C55.37,70.65,58,70.64,58.39,69L53.34,68C53.91,69.73,52.38,72.27,55.36,73Z"/><path class="cls-5" d="M47.61,63.76c-.15,2.73,1.73,3.08,3.78,3.21A4.48,4.48,0,0,0,47.61,63.76Z"/><polygon class="cls-2" points="66.5 53.83 66.5 53.82 66.49 53.83 66.5 53.83"/><path class="cls-2" d="M70.67,39.76c-1.91.09-3.73.34-4.93,1.88s-2,3.25-.45,4.95a3.68,3.68,0,0,1,1,3.15l.16,4.08c2.73.06,1.72-3.88,4.28-4q0-1.44,0-2.87c-.33-1.37.26-2,1.62-2.11q0-1,0-2C69.4,43.26,73.45,39.63,70.67,39.76Z"/><path class="cls-8" d="M72.42,44.83c-1.36.07-2,.74-1.62,2.11l2.65-.13C73.48,46,73.41,45.15,72.42,44.83Z"/><path class="cls-10" d="M66.49,53.82c-.63,6.06-1.91,11.84-7,16a2.1,2.1,0,0,0,1,2.1l4-.14a1.8,1.8,0,0,1,2-2,29.14,29.14,0,0,1,5-8.19c3.08-3.29,2.44-8.6-.64-11.79C68.21,49.94,69.23,53.88,66.49,53.82Z"/><path class="cls-8" d="M57,56c-1.84,1.43-2.06,3.16-2.43,4.83v0a1.85,1.85,0,0,1,1,2v0c2-.13,4.12.64,7.49-.87C58.78,61.37,55.81,60.42,57,56Z"/><path class="cls-8" d="M59.53,69.79,58.39,69c-.39,1.68-3,1.7-2.84,3.82,1.74.19,3.76,2,5-.88A2.1,2.1,0,0,1,59.53,69.79Z"/><path class="cls-10" d="M64.51,50.76a3,3,0,0,0,2,3.06l-.16-4.09Z"/><path class="cls-2" d="M54.52,60.82a1.73,1.73,0,0,0,1,2A1.85,1.85,0,0,0,54.52,60.82Z"/><path class="cls-2" d="M51.49,56.83h0l-.43-.24Z"/><path class="cls-10" d="M102.66,95.16c-.43.14-1.56-1.52-2.2-2.46-3.37-5-6.69-10-10-15-5-.27-5.74,3.69-7.13,7,.24,2.6-.64,3.76-2.12,2.69-2.33-1.69-4.79-3.52-5.65-6.56-.4-1.4.82-3.83-1.86-3.79-2.37,0-2.57,2.07-3.36,4-2,5-3.8,10.45-9.61,12.68-.88,1.91-1.86,3.78-2.61,5.75-1.23,3.25-1.06,7.19-4.66,9.25l-1,7c-.48,2,1.86,4,0,6l.23,3.76,1.8,1.46,2.09-.25c1.25-1.83,3-2.9,2.23-6.11-1.52-6.22-.66-6.77,5.59-7,.24-3.44.45-6.89,2.47-9.89-2.07-.15-2.48-1.44-2-3.13.62-2.23,7.86-6.22,10.12-5.71,1,.23,2.38.75,2.11,1.68-.93,3.24,1.09,4.45,3.33,5.7a1,1,0,0,1,.23,1.67,1,1,0,0,1-1.71.07c-3.3-3.78-5.88-.18-8.72.8.09,3-2.25,5.37-2,8.48.12,1.51-1.52,1.4-2.66,1.47l-.31,4a2.87,2.87,0,0,1,.39.89c2.39.63,2.41,3.22,3.86,4.71,3.46,3.56,7.86,4.55,12.33,5.62-.08-1.32-.23-2.64-.21-4,0-1.09-.4-2.45,1-3,1.23-.49,1.63.68,2.34,1.32,2.37,2.13,5.27,2.51,8.31,2.27.25-1.11.78-1.94,2.05-2l4.09-6.16a8,8,0,0,1,4.11-6.63c-.54-.6-1.68-1.43-1.54-1.77,1.45-3.68-1.72-3.49-3.54-4.42.05,2.49.14,5,.14,7.48,0,.92.26,2.25-1.18,2.29-1.21,0-1.55-.82-1.33-2.07.13-.72-.36-1.54-.46-2.33-1-7.59-7.43-6.69-12.64-7.76,2.13-2.85,7.37-3.17,10.73-.74,1.49,1.08,2.8,2.35,4.73,2.55-.95-3.42-1.83-6.86-2.87-10.25-.38-1.25-1.34-2.46.18-3.49a2.22,2.22,0,0,1,1.82-.25c1.35.6,1.08,2,.91,3-.67,4.42,1.47,4.82,4.78,3.39,1.53-.66,3.59-1.19,3,1.06-1.37,4.94.45,9.4,1,14.05,0,.34-.53.75-.82,1.13l.11,1c4.1.3,4.14,2.76,3.09,5.8,2.15.22,1.62,2.63,2.85,3.67,1.77,0,.07-3.26,2.43-2.54q.19-1.42.38-2.84L110,99.9C108.15,97.47,107.2,93.68,102.66,95.16ZM73.22,119.69c-1.65-.35-4.25-.16-4.39-2.33a3.47,3.47,0,0,1,3.6-3.3,3,3,0,0,1,3.08,3.22C75.58,118.89,74.88,120,73.22,119.69Zm12.69-3.18A2.8,2.8,0,0,1,89,114c1.78.31,2.49,2.25,3.71,3.44-.92.78-1.33,2.35-3,2C88.33,118.56,85.65,119.1,85.9,116.52Z"/><path class="cls-11" d="M95.27,124.73c-1.27.07-1.8.9-2.05,2,.51,2.18.73,3.74-2.6,3.27-2.89-.41-5.91,0-8.87.12-4.46-1.07-8.86-2.06-12.32-5.61-1.45-1.49-1.48-4.08-3.86-4.71a6.65,6.65,0,0,0,1.32,5.14,1.48,1.48,0,0,1-.87,2.38c-1.1.4-1.28-.57-1.63-1.33a39.7,39.7,0,0,0-2.12-3.91c-.85-1.37-1.38-3.15-.46-4.19s2,1.22,3.38,1q.15-2,.31-4l-1.16-1.13c-6.25.23-7.11.77-5.59,7,.78,3.21-1,4.28-2.23,6.1.63.14,1.48.08,1.83.47,1.15,1.27,4.71-2.11,4,1.86-.44,2.61-.14,6.76-5.1,5.63l-1.84.91q0,1,0,2.07l8.45.11c5.87-3.42,12-4.87,18.65-2.54l11.36.6c.05-.72.16-.61.29,0l.36.17c2.33-.16,3.07-1.09,2.06-3.44S94.73,127.54,95.27,124.73Z"/><polygon class="cls-11" points="56.5 126.83 56.5 126.83 56.49 126.83 56.5 126.83"/><path class="cls-16" d="M54.41,127.08l-1.8-1.45c-3,4.46,1.86,6.72,2.82,10.07l1.84-.91-1.74-4C53.9,129.95,54.61,128.38,54.41,127.08Z"/><path class="cls-9" d="M63.89,137.88c-.75,1.14.43,2,.49,3l5,.06c.66-1.27-1.73-3.55.37-3.75,2.84-.27,6.06-2.27,8.78.55l4.91.25-.85-2.62C75.89,133,69.76,134.46,63.89,137.88Z"/><path class="cls-11" d="M61.28,147.78c2.35-.24,3.21-.9,4.9-3.45.2-.3.9-.27,1.37-.39l0-.16c.05-.78-.06-1.66,1.05-1.84l.78-1-5-.06C61,142.11,57.18,143.17,61.28,147.78Z"/><path class="cls-4" d="M46.45,142.93a1.75,1.75,0,0,0,1.13,1.84A1.8,1.8,0,0,0,46.45,142.93Z"/><path class="cls-16" d="M100.65,148.73l.86,2c1.23,3.51-1.62,6.49-1.29,9.89q0,.64.06,1.29l.21,2c1.3-1,2.6-2.11,4-.1l.13-2,.17-3c-2.54-4.12,2.79-5.52,3-9.09C105.11,151,103.52,146.7,100.65,148.73Z"/><path class="cls-15" d="M131.48,226.77c5.55,2.34,4-2.6,5.05-4.91l-1,0C135.48,224.55,131,223.68,131.48,226.77Z"/><path class="cls-16" d="M107.39,158.21c.15.7.5,1.32,1.29,1.08s.72-1,.61-1.64Z"/><path class="cls-9" d="M106.32,121.37v0l0,0Z"/><path class="cls-9" d="M107.39,124.85c-.57-.53-2-.78-.76-2,1.09-1,1.14-1-.31-1.56v0l0,0,0,0,.29-1.53-1-1-6.3-.2-4.09,6.16c-.54,2.81.27,5.43,1.34,7.92s.27,3.27-2.06,3.44c3.51,1.89,6.64-.16,9.68-1.25,2.35-.84,3.27-.3,3.9,1.78,1.72-.76,3.45-1.5,3.78-3.68l-.46-1.64C108.43,130.19,107.67,127.68,107.39,124.85Z"/><path class="cls-15" d="M104.23,134.83c-3,1.09-6.18,3.14-9.68,1.25l-.36-.17-.29,0-11.35-.59.85,2.62a1,1,0,0,1,.14.72,3.2,3.2,0,0,1,3,1,59.69,59.69,0,0,0,7,1.14c2.54.13,1.93,1.62,1.74,3.07l.54,2.65,1.26,1.09c1.58.54,2.18,1.84,2.55,3.31l1.84-.13-.86-2c-.91-4,.92-6.66,4.38-8.24,1.8-.82,3.06-1.78,3.1-3.88C107.5,134.53,106.59,134,104.23,134.83Z"/><path class="cls-11" d="M106.32,121.37v0l0,0Z"/><path class="cls-11" d="M114.82,121.8c-2.36-.72-.66,2.52-2.43,2.54-1.23-1-.7-3.44-2.85-3.67l-2.92-.85-.29,1.53c1.45.58,1.4.54.31,1.56-1.26,1.17.18,1.42.76,2,5.49.31,6,1,4.06,6.43l.46,1.64c3.08-1.92,3.06-6.38,6.54-8,.09-.81.14-1.65,1-2.07l.1-.1a4.5,4.5,0,0,0-.1-.9Z"/><path class="cls-10" d="M127.68,119.75c-2-1.47.29-2.68-.16-4-2.33-.87-3,1.8-4.73,2.21l-.49,1.73c0,.49,0,1,.08,1.48.13,1.15-1.61,2.61.35,3.42a3.36,3.36,0,0,0,4-1.25C127.32,122.46,129.6,121.2,127.68,119.75Z"/><path class="cls-16" d="M119.44,116.77A21.83,21.83,0,0,1,115.2,119c-.13.95-.25,1.9-.38,2.85l4.64.08c.17-1.74,1.51-1.93,2.84-2.13l.49-1.73C122.22,116.14,121.51,115.08,119.44,116.77Z"/><path class="cls-11" d="M119.46,122.88l.5.18-.4-.28Z"/><path class="cls-15" d="M97.85,158.34a18.89,18.89,0,0,0,.74-5.3l-1.21-.23-.95,1c.44,2.47-.38,4.75-1,7.06.14,1.09-.06,2.31,1.13,3l1.82.19,1.93-2.11q0-.64-.06-1.29C98.42,160.91,97.09,160.45,97.85,158.34Z"/><path class="cls-9" d="M95.4,160.86c-3.1,4.21-6.33,7.55-12.2,4.1-1.19-.7-3.41.28-5.14.59-4.33.77-8,.55-8.21-5.18,0-.19-.84-.35-1.28-.52q-.05,2.39-.11,4.77c.24.91-.37,2.25.67,2.69,4.32,1.84,8.09,5.51,13.4,4.23,1.89-1.39,4.18-.22,6.1-.91a13.46,13.46,0,0,0,7.63-5.92,3.49,3.49,0,0,0,.27-.84C95.34,163.17,95.54,162,95.4,160.86Z"/><path class="cls-11" d="M88.63,170.63c-1.92.69-4.21-.48-6.1.91,8,3.68,13.88.76,13.73-6.83A13.46,13.46,0,0,1,88.63,170.63Z"/><path class="cls-7" d="M94.81,154.69c-.89,5.65-4.62,6.53-9.45,6a63.73,63.73,0,0,0-9.08,0c-3.6.09-3.93-3.79-4.8-6.57l-.2-.23c-1.33.09-1.78-.68-1.81-1.85l-1-.31c-1.17,2.75.38,5.46.1,8.19.45.17,1.27.33,1.28.52.24,5.73,3.88,5.95,8.21,5.18,1.73-.31,3.95-1.29,5.14-.59,5.87,3.45,9.11.11,12.2-4.1.64-2.31,1.46-4.59,1-7.06C95.86,154.1,94.87,154.32,94.81,154.69Z"/><path class="cls-4" d="M69.7,137.16c-2.1.2.29,2.49-.36,3.75l-.78,1a1.91,1.91,0,0,1-1.05,1.84l0,.16L69.76,147a1.28,1.28,0,0,0,.69-.32c-.1-4.3-.35-8.71,6.16-7.75l1.86-1.23C75.77,134.89,72.55,136.89,69.7,137.16Z"/><path class="cls-8" d="M73.6,145.48c-1,.51-1.76,1.69-3.15,1.2a1.28,1.28,0,0,1-.69.32c-.49,1.53-2.07,2.76-1.29,4.65l1,.31,1.73-.07c.25-1.86.71-3.39,2.8-4.22S74.75,146.05,73.6,145.48Z"/><path class="cls-2" d="M128.39,54c-4-2.49-8.27-2.76-12.74-1.77-.43.84.22,2.82-1.87,1.92-1.63-.7-3.17-1.61-4.81-2.45-1.63,3.27,2,4.51,2.59,6.89L115.3,65c2.85-1.88,6.66,1.16,9.3-1.8,1.28,1.16,2.39,2.35.93,4.13-1.33,1.61-3.41,2.33-4.88,1.28-3.84-2.73-3,.27-3.14,2.24q.06.45.1.89c1.29.36,2.56-1.62,3.87-.06l2,.2h0l0-1.05c1.06-1.45,2.6-.91,4-1h0a2.65,2.65,0,0,1,2.17-3,2,2,0,0,0,.3-.92C127.88,62.16,128.69,58,128.39,54Z"/><path class="cls-10" d="M113.56,46.89l-4.19,1-1.93,3c-1.61,1.8-3.3,3.55-3.94,6q0,1,0,1.94c1.83,1.15-2.07,5.7,2.95,5,.17-2,1.67-1.93,3.1-1.93-.2-1.61.21-2.85,2-3.23-.6-2.38-4.23-3.62-2.59-6.89,1.64.84,3.18,1.75,4.81,2.45,2.09.9,1.44-1.08,1.87-1.92C113.46,51,113.26,49.06,113.56,46.89Z"/><path class="cls-8" d="M113.51,66.81c-3.25-1.23-1.71,2.32-3,3,2.45.76,3.4,5,7,3l.1-1.16q0-.45-.1-.9C116.6,69.06,112.69,70.3,113.51,66.81Z"/><path class="cls-10" d="M110.47,61.79a2.78,2.78,0,0,1-3,3c.07,2.24-.23,4.69,3,5,1.31-.7-.23-4.25,3-3l.18-.2A10.62,10.62,0,0,0,110.47,61.79Z"/><path class="cls-8" d="M106.63,45.67c.38,1.71-2,3.84.81,5.18l1.93-3C109.46,45.87,108,45.84,106.63,45.67Z"/><path class="cls-8" d="M99.68,59.33a1.42,1.42,0,0,0,.69,1.16c1.74.79,2.07-1.2,3.16-1.72q0-1,0-1.94C101.87,57.13,100.16,57.36,99.68,59.33Z"/><path class="cls-8" d="M109.58,61.81c-1.44,0-2.93-.11-3.1,1.93l1,1.09a2.78,2.78,0,0,0,3-3l-.45,0Z"/><path class="cls-10" d="M117.61,71.71l-.1,1.16c1.37-.27,3,.47,4-1.22C120.16,70.09,118.9,72.07,117.61,71.71Z"/><path class="cls-8" d="M105.51,42.81h1.17a2.5,2.5,0,0,0,.2-3.34C105.43,40.18,105.37,41.45,105.51,42.81Z"/><path class="cls-5" d="M82.26,70.23l.23-.41h0Z"/><path class="cls-5" d="M113.48,81.84a2.05,2.05,0,0,0,1,2C116,82.22,114.8,82,113.48,81.84Z"/><path class="cls-8" d="M107.31,38.54l3.42,0C109.6,36.25,108.47,36.08,107.31,38.54Z"/><path class="cls-10" d="M111.53,38.8c0,2.05,1.51,2,3,2l-1-2Z"/><path class="cls-3" d="M95.18,50.47l1.3.36h0l-1.07-.73Z"/><path class="cls-10" d="M127.49,69.81c2.16.07,2-1.53,2.17-3A2.65,2.65,0,0,0,127.49,69.81Z"/><path class="cls-10" d="M123.48,70.79l2.15.24c.83-.08,1.61-.24,1.85-1.21C126.09,69.88,124.54,69.34,123.48,70.79Z"/><path class="cls-5" d="M123.57,76.79l-2.05-1C121.66,77.22,121.9,78.47,123.57,76.79Z"/><path class="cls-5" d="M123.52,71.85a2.18,2.18,0,0,0,2.11-.82l-2.15-.24Z"/><path class="cls-3" d="M135.55,70.76a2.51,2.51,0,0,0-.11-.94C134.71,70.23,134.8,70.54,135.55,70.76Z"/><path class="cls-3" d="M132.49,88.82l.94-1Z"/><path class="cls-8" d="M106.18,98.67c.62-2.25-1.44-1.73-3-1.06-3.31,1.43-5.45,1-4.78-3.39.16-1.07.44-2.44-.91-3a2.22,2.22,0,0,0-1.82.25c-1.52,1-.57,2.24-.18,3.49,1,3.39,1.92,6.83,2.87,10.25a2.31,2.31,0,0,0,0,.59c1.83.93,5,.74,3.54,4.42-.13.33,1,1.17,1.54,1.77l2.87,1.91c.29-.38.86-.79.82-1.13C106.63,108.07,104.81,103.61,106.18,98.67Z"/><path class="cls-11" d="M80.35,102.38c-2.25-1.25-4.26-2.46-3.33-5.7.27-.94-1.07-1.45-2.11-1.68-2.26-.51-9.49,3.48-10.12,5.71-.47,1.7-.06,3,2,3.13l3.37,1.08c2.83-1,5.42-4.58,8.71-.8a1,1,0,0,0,1.71-.07A1,1,0,0,0,80.35,102.38Z"/><path class="cls-11" d="M98.39,105.76a2.31,2.31,0,0,1,0-.59c-1.93-.2-3.25-1.47-4.73-2.55-3.36-2.43-8.6-2.11-10.73.74,5.21,1.07,11.66.17,12.64,7.76.1.79.59,1.6.46,2.33-.22,1.25.12,2.1,1.33,2.07,1.43,0,1.17-1.37,1.18-2.29C98.53,110.74,98.44,108.25,98.39,105.76Z"/><path class="cls-8" d="M84.91,124.48c-.71-.64-1.11-1.81-2.34-1.32-1.43.57-1,1.94-1,3,0,1.32.13,2.64.2,4,3-.08,6-.53,8.87-.12,3.33.48,3.12-1.09,2.6-3.27C90.18,127,87.28,126.6,84.91,124.48Z"/><path class="cls-16" d="M66.79,103.84c-2,3-2.22,6.45-2.47,9.89l1.16,1.13c1.14-.07,2.77,0,2.66-1.47-.24-3.11,2.11-5.49,2-8.48Z"/><path class="cls-11" d="M106.34,113.86l-2.87-1.91a8,8,0,0,0-4.11,6.63l6.3.2c1.14-1.12.64-2.58.79-3.91Z"/><path class="cls-2" d="M72.43,114.06a3.47,3.47,0,0,0-3.6,3.3c.14,2.17,2.73,2,4.39,2.33s2.37-.8,2.29-2.42A2.94,2.94,0,0,0,72.43,114.06Z"/><path class="cls-16" d="M65.56,119.81a2.91,2.91,0,0,0-.38-.89c-1.35.2-2.33-2.21-3.38-1s-.38,2.82.46,4.19A39.7,39.7,0,0,1,64.38,126c.36.76.53,1.73,1.63,1.33a1.48,1.48,0,0,0,.87-2.38A6.65,6.65,0,0,1,65.56,119.81Z"/><path class="cls-2" d="M89,114a2.8,2.8,0,0,0-3.12,2.53c-.25,2.59,2.43,2,3.83,2.92,1.67.34,2.08-1.22,3-2C91.51,116.24,90.8,114.3,89,114Z"/><path class="cls-8" d="M106.45,114.87c-.15,1.33.35,2.78-.79,3.91l1,1,2.92.85C110.59,117.63,110.56,115.17,106.45,114.87Z"/><path class="cls-11" d="M54.41,127.08c.19,1.3-.51,2.87,1.11,3.75,1.39-1.07.62-2.67,1-4Z"/><polygon class="cls-11" points="56.49 126.83 56.49 126.83 56.5 126.83 56.49 126.83"/><path class="cls-8" d="M58.33,127.3c-.35-.39-1.21-.33-1.84-.47-.36,1.33.42,2.92-1,4l1.75,4c5,1.13,4.67-3,5.1-5.63C63,125.19,59.48,128.56,58.33,127.3Z"/><path class="cls-9" d="M93.9,135.94l.29,0C94.06,135.33,94,135.22,93.9,135.94Z"/><path class="cls-10" d="M93.58,140.78a59.69,59.69,0,0,1-7-1.14l-2.38,10.44c-1.61-3.79-3.51-7.5-.67-11.39a1,1,0,0,0-.14-.72l-4.91-.25-1.86,1.23c-1.65,1.89-2.23,4.26-3,6.54,1.14.57,2.41,1.39.39,2.19s-2.55,2.36-2.8,4.22q0,1,.08,1.92l.2.23,3.94.87c.6-1.28-1.1-3.6,2.33-3.64,3.24,0,5.94-.5,5.67,5.17.11-9.07,8.09-8.67,11.92-12.6C95.52,142.4,96.12,140.9,93.58,140.78Z"/><path class="cls-9" d="M67.51,143.78a1.91,1.91,0,0,0,1.05-1.84C67.46,142.12,67.57,143,67.51,143.78Z"/><path class="cls-13" d="M101.51,150.77l-1.84.13L98.58,153a18.9,18.9,0,0,1-.74,5.3c-.76,2.11.57,2.57,2.37,2.32C99.89,157.26,102.74,154.28,101.51,150.77Z"/><path class="cls-8" d="M107.39,124.85c.28,2.82,1,5.34,4.06,6.43C113.35,125.89,112.89,125.16,107.39,124.85Z"/><path class="cls-8" d="M106.32,121.37l0,0Z"/><path class="cls-5" d="M97.12,147.59l-1.25-1.09c-1.3,1-2.52,2.68-3.92,2.86-3.69.47-4.77,2.82-5.76,5.82-.85,2.6-1.82,6.56-5.11,1.4-.73-1.15-2.09-.86-3.18-.4-1.42.6-2.21.23-2.48-1.27l-3.94-.86c.87,2.78,1.2,6.66,4.8,6.57a63.73,63.73,0,0,1,9.08,0c4.83.57,8.56-.31,9.45-6,.06-.37,1.05-.59,1.62-.89l.95-1C96.08,151.13,96.41,149.37,97.12,147.59Z"/><path class="cls-8" d="M83.41,156.45c.28-5.68-2.43-5.21-5.67-5.17-3.43,0-1.73,2.36-2.33,3.64.27,1.5,1.06,1.87,2.48,1.27,1.09-.46,2.45-.75,3.18.4,3.29,5.16,4.26,1.19,5.11-1.4,1-3,2.07-5.36,5.76-5.82,1.41-.18,2.62-1.86,3.92-2.86l-.54-2.65C91.51,147.78,83.52,147.38,83.41,156.45Z"/><path class="cls-2" d="M83.54,138.69c-2.83,3.89-.94,7.6.67,11.39l2.38-10.44A3.19,3.19,0,0,0,83.54,138.69Z"/><path class="cls-7" d="M97.12,147.59c-.71,1.78-1,3.54.25,5.22l1.21.23,1.09-2.14C99.3,149.43,98.71,148.13,97.12,147.59Z"/><path class="cls-5" d="M69.46,152c0,1.18.49,1.94,1.82,1.85q0-1-.08-1.92Z"/><path class="cls-9" d="M70.45,146.69c1.39.49,2.14-.7,3.15-1.2.78-2.28,1.37-4.66,3-6.54C70.11,138,70.35,142.39,70.45,146.69Z"/><path class="cls-10" d="M124.6,63.17c-2.64,3-6.45-.09-9.3,1.8.11,1.18-.45,1.7-1.61,1.64l-.18.2c-.82,3.49,3.09,2.25,4,4,.15-2-.7-5,3.14-2.24,1.48,1.05,3.56.34,4.88-1.28C127,65.53,125.87,64.33,124.6,63.17Z"/><path class="cls-11" d="M111.58,58.57c-1.79.39-2.2,1.62-2,3.23l.45,0,.45,0a10.6,10.6,0,0,1,3.22,4.82c1.16.06,1.71-.46,1.61-1.64Z"/></g></g></svg>